<svg width="835" height="672" viewBox="0 0 835 672" fill="none" xmlns="http://www.w3.org/2000/svg">
<path d="M330.621 564.742L318.562 554.236V546.106L297.46 560.448L287.412 567.208L281.109 573.146L277.82 568.396L259.184 543.731L260.463 542.726L260.92 541.356L260.098 540.168L251.785 548.573L243.015 557.708L237.808 562.549L232.419 565.655L227.212 566.66H224.106L220.817 566.112L216.889 564.011L214.057 563.189H209.946L202.821 566.751L202.73 565.473C202.73 565.473 202.638 562.823 202.638 562.458C202.638 562.093 201.634 559.626 201.634 559.626L201.451 556.337C201.451 556.337 201.085 551.587 201.085 551.313C201.085 551.039 199.807 546.015 199.807 546.015L198.345 541.356L198.162 537.976L196.244 534.048L189.849 535.144C189.849 535.144 183.729 535.327 183.455 535.327C183.181 535.327 180.714 536.332 180.714 536.332L170.118 535.51L165.185 538.159L159.795 540.899L151.939 545.467L143.261 548.025L138.51 549.212L135.496 549.395L130.837 552.775L90.8253 576.8V580.637L90.4599 584.839L89.2723 590.868L90.6426 590.685L96.6717 589.406L100.6 588.493L106.264 586.757L106.812 590.959L102.884 593.974L97.4025 594.613L90.1858 595.618L84.9788 593.974L81.0508 593.517L75.6611 593.243L71.4589 591.599L70.9108 590.229L66.8914 593.06L62.5979 597.354L58.4872 602.104L56.7515 604.753C56.7515 604.753 58.5785 606.763 59.0353 606.946C59.492 607.128 60.4969 608.955 60.4969 608.955L60.0401 611.056L57.4823 611.239L53.7369 608.955C53.7369 608.955 51.7272 607.311 51.7272 607.037C51.7272 606.763 52.3667 602.652 52.3667 602.652L53.3715 601.647L57.1169 601.282L59.218 598.998C59.218 598.998 62.5066 595.71 62.5979 595.436C62.6893 595.161 65.6125 592.238 65.6125 592.238L62.4152 592.421L62.0498 591.69L61.2277 590.229L65.1558 588.767L59.218 586.483L58.3958 587.031L57.2996 588.767L55.4726 590.594L52.9148 591.69L50.4483 592.786C50.4483 592.786 48.2559 591.507 47.9818 591.416C47.7078 591.325 45.424 589.68 45.424 589.68L43.0489 586.209L40.1257 582.738L38.9381 581.642L36.8371 580.728L33.183 579.632L30.7166 577.257L30.3512 575.338L28.4328 573.055L27.1539 572.05L27.428 571.502L28.7069 570.131L27.428 569.218H24.9615L25.3269 567.756L26.2404 566.203L27.5193 564.559L28.6155 562.184L28.5242 560.722L24.8701 559.352L24.3418 561.01L24.8899 564.573L24.0677 566.491L21.6013 566.217H17.7647V563.476L17.2166 560.188L16.1204 559.64L12.0098 561.558L12.5579 563.476L15.0244 565.669V567.313L12.284 568.409L10.6397 566.765L7.07724 565.943C7.07724 565.943 4.88483 565.395 4.06267 564.573C3.24052 563.75 4.33672 561.01 4.33672 561.01L3.24052 557.722L2.69241 553.611L0.5 548.952L2.14431 548.404L7.07706 544.568L11.1877 541.279L14.2022 536.347C14.2022 536.347 15.5725 537.169 16.3945 537.169C17.2164 537.169 20.505 537.991 20.505 537.991L22.1494 534.976L26.8081 530.318L30.3705 527.029L29.2743 521.549L29.8224 519.904L33.3849 515.52L38.3177 511.409L42.7023 509.491V507.025L43.7985 504.832L40.2359 501.818L36.3993 495.789L34.7552 494.967L32.2887 494.419L30.0965 491.678L31.1927 490.034L28.1783 487.02L24.3418 484.279L24.8899 482.087L26.2404 478.05L26.6972 472.021L26.2404 467.91L23.5912 465.718L24.5047 461.059L23.8653 457.131L23.1345 454.482L27.1539 446.625C27.1539 446.625 29.1636 441.418 29.3463 441.144C29.529 440.87 30.9906 436.485 30.9906 436.211C30.9906 435.937 30.9906 433.562 30.9906 433.562L30.8993 429.817L41.496 426.437L49.5348 415.109L58.3045 402.503L68.6271 387.522L76.3919 377.382L84.0653 367.881C84.0653 367.881 86.4404 365.597 86.4404 365.323C86.4404 365.049 88.7242 362.126 88.7242 362.126L90.0945 361.669L78.5843 355.732L75.113 354.27L68.7184 350.342L62.2325 347.053L59.9488 346.871L58.9439 344.13L56.8428 342.486L53.4629 343.125L45.2413 345.774C45.2413 345.774 37.9333 347.967 37.5679 347.967C37.2025 347.967 31.9955 348.698 31.9955 348.698L25.5096 349.246L26.2404 343.034L26.3318 338.284V329.788L26.6972 322.115L27.2453 317.547L29.8031 310.513L30.7166 306.311L31.2647 299.094L31.9955 295.075L33.0004 286.945L35.4668 276.257L36.9284 269.04L39.3949 270.867C39.3949 270.867 41.4046 273.425 41.6787 273.516C41.9527 273.607 45.424 274.886 45.424 274.886L49.7175 275.708C49.7175 275.708 53.0061 275.982 53.2802 275.982C53.5542 275.982 54.6504 275.434 54.6504 275.434L55.838 275.069L56.3861 273.516V272.237L57.5737 270.593V268.583L56.7515 262.554L55.1072 258.535L56.9342 255.977L57.2996 249.217L59.492 245.197L60.7709 239.716L62.5979 237.341V233.322L63.3287 231.86L63.146 223.821C63.146 223.821 60.9536 217.609 60.2228 216.513C59.492 215.417 58.3958 212.859 58.3958 212.859L57.4823 211.763L50.1743 215.6L44.8759 217.975H42.3181C42.3181 217.975 37.9333 220.167 37.2025 220.167C36.4717 220.167 35.1928 217.609 35.1928 217.609L33.9139 213.773L31.7214 213.59L32.4522 208.109L30.9906 207.378L31.1733 205.551L32.2695 204.638L35.1928 206.099L40.6738 204.09L42.5008 200.984L49.6262 199.522L55.4726 195.685L60.7709 187.464C60.7709 187.464 63.3287 182.714 64.0595 182.348C64.7904 181.983 69.906 180.156 69.906 180.156L74.6562 179.425L78.1275 182.531L79.7719 183.079H82.147L85.2529 185.454L87.4453 186.368L90.7339 186.733L93.6571 187.281L95.8495 188.012H99.3209L101.513 190.57L104.619 191.483L107.542 193.858L111.196 195.685L116.495 196.051L122.524 198.609L127.822 201.166L128.918 197.695L136.044 197.512L140.611 198.974L142.256 192.762V189.473L139.698 185.819L135.678 182.714L130.745 179.06L123.742 170.655L119.601 165.052L119.113 160.911L121.793 158.719L125.082 156.283L128.005 149.34L130.806 143.128L132.755 138.5L134.46 134.48L137.018 131.557L138.967 125.467L140.307 120.595L140.429 115.723L147.128 114.992L147.371 116.088L152.609 116.21L157.115 115.48H160.648C160.648 115.48 164.18 114.749 164.667 114.749C165.154 114.749 166.981 113.653 167.468 113.653C167.956 113.653 170.392 115.236 170.757 115.236C171.122 115.236 173.071 115.601 173.071 115.601L175.02 114.871L180.379 114.992L185.13 114.262C185.13 114.262 189.149 113.531 190.123 113.774C191.098 114.018 194.995 115.236 194.63 115.114C194.265 114.992 194.386 103.787 194.386 103.787L193.899 98.4275L192.559 94.6516L190.489 90.6322L190.245 87.1C190.245 87.1 196.822 88.6835 197.31 88.6835C197.797 88.6835 201.085 88.3181 201.085 88.3181L204.009 87.2219L208.15 87.4654C208.15 87.4654 213.265 86.0038 213.753 86.0038C214.24 86.0038 216.676 85.1511 216.676 85.1511L217.163 61.8872H212.778L213.631 44.7133L220.939 46.5403L226.176 47.0276L233.241 46.7841L237.991 46.0532L243.837 45.4443L247.37 49.4637L236.042 58.3553L246.761 77.3562L247.857 77.5997C247.857 77.5997 246.883 83.9334 246.883 84.2988C246.883 84.6642 245.543 86.4912 245.543 86.4912L245.786 89.5363L245.421 93.3122L248.831 100.377L249.806 104.153L250.171 105.98L241.889 110.973L249.562 109.877L254.069 109.024C254.069 109.024 260.037 111.46 260.768 111.46C261.499 111.46 266.736 111.704 266.736 111.704L277.333 114.871L284.641 118.281L288.295 116.82L293.654 115.602L302.424 114.749L303.155 116.819L307.661 114.871L310.584 115.358L313.507 113.531L316.431 111.826L322.155 109.755L323.861 109.268L326.053 106.223L327.515 105.857L331.047 103.787L333.605 100.62L332.021 97.6968L335.553 91.2415L336.041 92.2158L337.746 90.5107L339.695 89.4145L339.208 88.4401L337.989 87.9528L340.426 86.3694L343.105 86.4912L346.028 85.0296L347.246 83.3245L347.977 79.4269L347.734 75.1639L350.413 71.6318L351.875 65.2981L352.362 63.5929H355.163L355.529 62.4967L356.381 61.157L363.568 67.7342L368.074 70.292L370.267 72.4844C370.267 72.4844 375.26 69.8048 375.626 70.292C375.991 70.7793 377.087 72.119 377.087 72.119H378.914V75.2858C378.914 75.2858 383.056 79.6706 383.421 79.9142C383.787 80.1577 391.704 84.9079 391.704 84.9079L396.576 80.7667L401.082 81.2539L403.275 79.0615L402.057 73.5805L402.179 66.2724L409.73 63.8365L410.096 56.2849L413.628 55.0668C413.628 55.0668 417.647 54.2141 418.013 54.2141C418.378 54.2141 423.737 53.9706 423.737 53.9706L423.981 55.7976C423.981 55.7976 433.116 56.772 433.36 56.4066C433.604 56.0412 436.527 55.5539 436.527 55.0668C436.527 54.5795 437.258 52.0217 437.258 52.0217L439.937 50.5601L441.886 49.2204L445.54 48.6114L447.123 45.6882L450.168 44.1047L449.681 40.0853L448.098 39.111L435.552 38.2583C435.552 38.2583 425.443 29.8541 424.468 29.8541C423.494 29.8541 419.109 27.9052 419.109 27.9052L430.315 14.6288L438.232 17.1866L442.739 9.8786L444.078 10.244L449.072 2.32701L450.899 3.54508L454.431 0.5L455.528 1.96161C455.528 1.96161 450.168 12.5583 450.29 12.9237C450.412 13.2891 451.63 16.6996 451.63 16.6996L466.003 8.66071L463.323 33.3857L471.24 41.4245L486.587 49.7069L489.997 50.8031L499.376 58.5984L507.171 54.9444L509.242 58.842L511.678 58.9638L510.825 73.7018L507.415 89.9013L493.286 99.1583L493.408 111.217L491.702 112.313L485.856 129.487L484.394 142.154L487.318 141.301L500.716 167.123L518.742 164.565L523.127 165.296L529.583 166.758L538.23 169.437L549.07 172.36L548.949 173.578L556.013 177.232L562.469 182.348L568.437 186.977L572.335 191.727L575.623 196.599L578.059 201.836L585.489 198.913L588.047 200.74L589.387 204.516L593.406 204.272L596.329 211.581L596.573 216.209L598.156 219.985L598.522 223.761L599.131 227.415L601.567 231.312L604.003 234.966L603.394 239.229V243.127L602.785 247.268L637.985 255.672L648.46 256.89L655.646 257.134L666.365 258.717L667.095 261.032L663.076 267.731L660.153 267.365C660.153 267.365 659.665 268.462 659.178 268.462C658.691 268.462 657.351 267.853 657.351 267.853C657.351 267.853 656.012 268.462 655.646 268.462C655.281 268.462 651.87 268.096 651.87 268.096L653.576 275.404L652.723 276.5L654.306 283.687L658.813 283.199L668.07 281.981L677.57 283.443L683.904 283.077L692.795 281.981L695.231 289.777L689.629 295.136L685 298.912L680.493 302.687L675.621 307.438L670.384 313.649L665.512 321.932L663.32 328.387L661.614 334.356L660.153 342.151L658.935 348.972L658.082 354.696L656.62 356.889L663.441 359.081L658.813 367.12L647.364 384.903L646.511 395.378L649.556 397.083C649.556 397.083 644.075 405.365 644.44 405.365C644.806 405.365 649.069 406.705 649.069 406.705L651.505 404.025L656.742 405.731L656.864 409.629L657.473 409.75L657.351 413.526L658.935 413.648L659.3 412.795L658.569 409.019L661.127 408.532L660.883 399.032L664.781 398.91C664.781 398.91 667.583 395.865 667.948 395.621C668.313 395.378 673.429 393.307 673.429 393.307L677.692 390.628C677.692 390.628 682.199 385.877 682.686 385.877C683.173 385.877 688.045 386.486 688.045 386.486L694.257 389.409L697.424 389.653L702.174 392.942L706.315 395.256C706.315 395.256 708.386 395.378 709.117 395.378C709.847 395.378 713.258 394.16 713.258 394.16L716.79 396.352L722.636 400.494L728.361 403.538L730.675 407.436C730.675 407.436 733.842 409.507 734.207 409.629C734.573 409.75 737.983 410.603 737.983 410.603L745.778 411.456L749.311 412.064C749.311 412.064 751.747 418.155 751.747 418.52C751.747 418.885 752.112 422.905 752.112 422.905L754.061 426.193L753.939 428.873V430.7L762.1 431.065L762.952 427.777L762.831 424.001L762.1 420.712L759.177 420.103L757.715 411.456L755.157 407.558L753.696 403.904L755.888 404.025L760.273 407.923L765.997 411.577C765.997 411.577 770.017 413.891 770.382 413.891C770.748 413.891 773.549 413.891 773.549 413.891L777.812 419.251L781.101 425.828C781.101 425.828 785.242 429.969 785.608 429.969C785.973 429.969 789.627 434.111 789.627 434.111C789.627 434.111 791.941 436.912 792.55 437.034C793.159 437.155 798.518 437.277 798.518 437.277L799.493 436.425L800.711 436.668L801.076 437.765C801.076 437.765 810.089 439.592 810.577 439.592C811.064 439.592 812.282 438.495 812.282 438.495C812.282 438.495 820.077 441.175 820.443 441.175C820.808 441.175 825.436 443.733 825.436 443.733L826.167 445.194L827.385 444.464L825.315 450.188L829.09 450.797L827.629 459.445L834.45 460.297L832.501 463.83L825.558 463.708L827.142 453.355L820.564 454.573L813.013 461.394L812.16 471.503L807.166 471.869L806.314 472.234H801.198L796.57 470.529L791.576 467.484L787.435 464.561L786.216 463.464L786.338 465.901L790.114 468.945L794.255 471.26L797.422 472.112L800.833 472.843L804.608 473.087L808.262 473.939L808.019 480.395L811.186 481.856L810.455 484.779L805.826 485.51L799.127 498.543L799.493 500.979L798.762 503.293L797.909 506.704L799.371 509.505L801.442 512.307L803.878 515.595L803.512 517.057L807.532 519.127L809.115 521.563L809.724 524.73L806.679 527.044L805.583 531.795L805.461 534.84L800.711 539.833L799.371 539.468L798.275 539.712H797.179L794.986 540.93L792.916 543L789.627 543.609L788.165 542.757L785.729 542.878L784.268 541.417L781.345 543.366L779.152 545.68L777.203 546.898L776.716 548.603L775.133 549.943L772.94 551.405L770.991 552.501L769.286 554.328L767.703 554.45L763.805 560.661L763.44 558.591L761.978 558.347L761.491 561.879L758.933 564.925L756.984 567.848L754.792 570.162L752.843 572.233H750.651L749.433 572.841L748.458 575.399L750.285 577.348L752.234 576.739L759.177 580.759L764.901 579.784L762.709 587.336L765.998 587.457L766.85 588.067L766.728 590.137L765.267 593.304L763.683 597.202L761.247 601.952L758.568 605.362L759.299 607.555C759.299 607.555 757.106 607.92 757.471 608.042C757.837 608.164 758.202 609.138 758.202 609.138L756.253 608.407L754.426 609.138L752.599 609.26L748.458 606.58L745.657 605.362L741.637 606.824L736.278 610.478L732.624 611.452L731.163 615.106L730.554 616.324L729.092 617.177L727.509 620.587L726.9 627.652L727.143 630.697C727.143 630.697 724.342 631.062 724.342 631.428C724.342 631.793 723.611 633.864 723.611 633.864L723.002 636.787L721.906 639.223L719.104 640.563L718.982 642.999L716.546 644.095L716.425 647.627L715.694 650.55L715.938 652.987L714.476 654.692L713.136 656.762L711.065 660.66L710.944 663.827C710.944 663.827 711.187 667.968 711.187 668.455C711.187 668.942 709.726 670.769 709.726 670.769L707.046 671.5L704.123 670.891L701.808 669.308L700.347 669.186C700.347 669.186 696.815 664.679 696.206 664.557C695.597 664.436 691.577 657.493 691.577 657.493L690.846 650.916L690.725 639.101C690.725 639.101 690.968 632.159 690.968 631.793C690.968 631.428 693.283 626.921 693.283 626.921L698.885 620.1C698.885 620.1 702.052 616.568 702.174 615.959C702.296 615.35 702.174 612.183 702.174 612.183L700.712 607.555L695.11 606.458L695.962 601.099L694.379 592.208L683.173 595.496L676.109 585.63L649.8 602.804L650.409 598.42L649.8 596.105L649.069 594.766L648.46 594.157L649.678 592.086L648.582 588.554L645.902 586.727C645.902 586.727 644.928 584.169 644.562 584.047C644.197 583.925 642.37 582.707 642.37 582.707L640.177 579.906L636.401 579.175L634.574 576.008L634.696 574.425L634.331 572.72L632.991 572.233L632.26 570.406L632.991 568.091L633.113 566.264L632.26 564.559L630.799 563.219L621.177 568.213L615.208 569.918C615.208 569.918 610.093 571.867 609.606 571.867C609.118 571.867 605.952 572.963 605.952 572.963C605.952 572.963 601.932 575.278 601.567 575.278C601.201 575.278 595.842 577.105 595.842 577.105H589.996C589.996 577.105 584.271 576.983 583.662 576.983C583.053 576.983 578.303 577.226 578.303 577.226L573.187 577.47C573.187 577.47 569.289 577.47 568.924 577.47C568.559 577.47 559.545 577.714 559.545 577.714L559.18 573.938V569.553L559.545 565.899L560.764 560.296L561.494 556.277L562.347 554.206C562.347 554.206 558.084 557.007 557.597 557.007C557.11 557.007 552.481 560.418 552.481 560.418C552.481 560.418 545.051 557.617 544.32 557.251C543.59 556.886 537.865 553.963 537.865 553.963C537.865 553.963 535.307 553.11 534.82 553.11C534.333 553.11 531.653 554.693 531.044 554.815C530.435 554.937 523.736 557.007 523.736 557.007L516.306 558.713L508.511 560.661L498.158 564.559L490.119 567.239L487.683 555.79L483.907 547.142C483.907 547.142 473.432 519.858 472.214 519.736C470.997 519.615 468.073 518.031 467.099 518.031C466.125 518.031 461.009 519.371 461.009 519.371C461.009 519.371 445.662 528.262 445.175 528.384C444.688 528.506 436.162 533.013 436.162 533.013C436.162 533.013 428.366 538.007 427.392 537.885C426.418 537.763 412.41 543.244 412.41 543.244L412.167 548.847L426.052 590.99L425.078 595.618L418.622 612.549C418.622 612.549 401.448 611.818 399.987 612.061C398.525 612.305 378.672 611.452 378.672 611.452L375.992 589.894L355.042 590.624C355.042 590.624 356.26 580.271 355.895 580.149C355.529 580.028 343.228 573.572 343.228 573.572L330.621 564.742Z" fill="url(#paint0_radial_2566_4196)"/>
<path d="M330.621 564.742L318.562 554.236V546.106L297.46 560.448L287.412 567.208L281.109 573.146L277.82 568.396L259.184 543.731L260.463 542.726L260.92 541.356L260.098 540.168L251.785 548.573L243.015 557.708L237.808 562.549L232.419 565.655L227.212 566.66H224.106L220.817 566.112L216.889 564.011L214.057 563.189H209.946L202.821 566.751L202.73 565.473C202.73 565.473 202.638 562.823 202.638 562.458C202.638 562.093 201.634 559.626 201.634 559.626L201.451 556.337C201.451 556.337 201.085 551.587 201.085 551.313C201.085 551.039 199.807 546.015 199.807 546.015L198.345 541.356L198.162 537.976L196.244 534.048L189.849 535.144C189.849 535.144 183.729 535.327 183.455 535.327C183.181 535.327 180.714 536.332 180.714 536.332L170.118 535.51L165.185 538.159L159.795 540.899L151.939 545.467L143.26 548.025L138.51 549.212L135.496 549.395L130.837 552.775L90.8253 576.8V580.637L90.4599 584.839L89.2723 590.868L90.6426 590.685L96.6717 589.406L100.6 588.493L106.264 586.757L106.812 590.959L102.884 593.974L97.4025 594.613L90.1858 595.618L84.9788 593.974L81.0508 593.517L75.6611 593.243L71.4589 591.599L70.9108 590.229L66.8914 593.06L62.5979 597.354L58.4872 602.104L56.7515 604.753C56.7515 604.753 58.5785 606.763 59.0353 606.946C59.492 607.128 60.4969 608.955 60.4969 608.955L60.0401 611.056L57.4823 611.239L53.7369 608.955C53.7369 608.955 51.7272 607.311 51.7272 607.037C51.7272 606.763 52.3667 602.652 52.3667 602.652L53.3715 601.647L57.1169 601.282L59.218 598.998C59.218 598.998 62.5066 595.71 62.5979 595.436C62.6893 595.161 65.6125 592.238 65.6125 592.238L62.4152 592.421L62.0498 591.69L61.2277 590.229L65.1558 588.767L59.218 586.483L58.3958 587.031L57.2996 588.767L55.4726 590.594L52.9148 591.69L50.4483 592.786C50.4483 592.786 48.2559 591.507 47.9818 591.416C47.7078 591.325 45.424 589.68 45.424 589.68L43.0489 586.209L40.1257 582.738L38.9381 581.642L36.8371 580.728L33.183 579.632L30.7166 577.257L30.3512 575.338L28.4328 573.055L27.1539 572.05L27.428 571.502L28.7069 570.131L27.428 569.218H24.9615L25.3269 567.756L26.2404 566.203L27.5193 564.559L28.6155 562.184L28.5242 560.722L24.8701 559.352L24.3418 561.01L24.8899 564.573L24.0677 566.491L21.6013 566.217H17.7647V563.476L17.2166 560.188L16.1204 559.64L12.0098 561.558L12.5579 563.476L15.0244 565.669V567.313L12.284 568.409L10.6397 566.765L7.07724 565.943C7.07724 565.943 4.88483 565.395 4.06267 564.573C3.24052 563.75 4.33672 561.01 4.33672 561.01L3.24052 557.722L2.69241 553.611L0.5 548.952L2.14431 548.404L7.07706 544.568L11.1877 541.279L14.2022 536.347C14.2022 536.347 15.5725 537.169 16.3945 537.169C17.2164 537.169 20.505 537.991 20.505 537.991L22.1494 534.976L26.8081 530.318L30.3705 527.029L29.2743 521.549L29.8224 519.904L33.3849 515.52L38.3177 511.409L42.7023 509.491V507.025L43.7985 504.832L40.2359 501.818L36.3993 495.789L34.7552 494.967L32.2887 494.419L30.0965 491.678L31.1927 490.034L28.1783 487.02L24.3418 484.279L24.8899 482.087L26.2404 478.05L26.6972 472.021L26.2404 467.91L23.5912 465.718L24.5047 461.059L23.8653 457.131L23.1345 454.482L27.1539 446.625C27.1539 446.625 29.1636 441.418 29.3463 441.144C29.529 440.87 30.9906 436.485 30.9906 436.211C30.9906 435.937 30.9906 433.562 30.9906 433.562L30.8993 429.817L41.496 426.437L49.5348 415.109L58.3045 402.503L68.6271 387.522L76.3919 377.382L84.0653 367.881C84.0653 367.881 86.4404 365.597 86.4404 365.323C86.4404 365.049 88.7242 362.126 88.7242 362.126L90.0945 361.669L78.5843 355.732L75.113 354.27L68.7184 350.342L62.2325 347.053L59.9488 346.871L58.9439 344.13L56.8428 342.486L53.4629 343.125L45.2413 345.774C45.2413 345.774 37.9333 347.967 37.5679 347.967C37.2025 347.967 31.9955 348.698 31.9955 348.698L25.5096 349.246L26.2404 343.034L26.3318 338.284V329.788L26.6972 322.115L27.2453 317.547L29.8031 310.513L30.7166 306.311L31.2647 299.094L31.9955 295.075L33.0003 286.945L35.4668 276.257L36.9284 269.04L39.3949 270.867C39.3949 270.867 41.4046 273.425 41.6787 273.516C41.9527 273.607 45.424 274.886 45.424 274.886L49.7175 275.708C49.7175 275.708 53.0061 275.983 53.2802 275.983C53.5542 275.983 54.6504 275.434 54.6504 275.434L55.838 275.069L56.3861 273.516V272.237L57.5737 270.593V268.583L56.7515 262.554L55.1072 258.535L56.9342 255.977L57.2996 249.217L59.492 245.197L60.7709 239.716L62.5979 237.341V233.322L63.3287 231.86L63.146 223.821C63.146 223.821 60.9536 217.609 60.2228 216.513C59.492 215.417 58.3958 212.859 58.3958 212.859L57.4823 211.763L50.1743 215.6L44.8759 217.975H42.3181C42.3181 217.975 37.9333 220.167 37.2025 220.167C36.4717 220.167 35.1928 217.609 35.1928 217.609L33.9139 213.773L31.7214 213.59L32.4522 208.109L30.9906 207.378L31.1733 205.551L32.2695 204.638L35.1928 206.099L40.6738 204.09L42.5008 200.984L49.6262 199.522L55.4726 195.685L60.7709 187.464C60.7709 187.464 63.3287 182.714 64.0595 182.348C64.7904 181.983 69.906 180.156 69.906 180.156L74.6562 179.425L78.1275 182.531L79.7718 183.079H82.147L85.2529 185.454L87.4453 186.368L90.7339 186.733L93.6571 187.281L95.8495 188.012H99.3209L101.513 190.57L104.619 191.483L107.542 193.858L111.196 195.685L116.495 196.051L122.524 198.609L127.822 201.166L128.918 197.695L136.044 197.512L140.611 198.974L142.256 192.762V189.474L139.698 185.819L135.678 182.714L130.745 179.06L123.742 170.655L119.601 165.052L119.113 160.911L121.793 158.719L125.082 156.283L128.005 149.34L130.806 143.128L132.755 138.5L134.46 134.48L137.018 131.557L138.967 125.467L140.307 120.595L140.429 115.723L147.128 114.992L147.371 116.088L152.609 116.21L157.115 115.48H160.648C160.648 115.48 164.18 114.749 164.667 114.749C165.154 114.749 166.981 113.652 167.468 113.652C167.956 113.652 170.392 115.236 170.757 115.236C171.122 115.236 173.071 115.601 173.071 115.601L175.02 114.871L180.379 114.992L185.13 114.262C185.13 114.262 189.149 113.531 190.123 113.774C191.098 114.018 194.995 115.236 194.63 115.114C194.265 114.992 194.386 103.787 194.386 103.787L193.899 98.4275L192.559 94.6516L190.489 90.6322L190.245 87.1C190.245 87.1 196.822 88.6835 197.31 88.6835C197.797 88.6835 201.085 88.3181 201.085 88.3181L204.009 87.2219L208.15 87.4654C208.15 87.4654 213.265 86.0038 213.753 86.0038C214.24 86.0038 216.676 85.1511 216.676 85.1511L217.163 61.8872H212.778L213.631 44.7133L220.939 46.5403L226.176 47.0276L233.241 46.7841L237.991 46.0532L243.837 45.4443L247.37 49.4637L236.042 58.3553L246.761 77.3562L247.857 77.5997C247.857 77.5997 246.883 83.9334 246.883 84.2988C246.883 84.6642 245.543 86.4912 245.543 86.4912L245.786 89.5363L245.421 93.3122L248.831 100.377L249.806 104.153L250.171 105.98L241.889 110.973L249.562 109.877L254.069 109.024C254.069 109.024 260.037 111.46 260.768 111.46C261.499 111.46 266.736 111.704 266.736 111.704L277.333 114.871L284.641 118.281L288.295 116.82L293.654 115.602L302.424 114.749L303.155 116.819L307.661 114.871L310.584 115.358L313.507 113.531L316.431 111.826L322.155 109.755L323.861 109.268L326.053 106.223L327.515 105.857L331.047 103.787L333.605 100.62L332.021 97.6968L335.553 91.2415L336.041 92.2158L337.746 90.5107L339.695 89.4145L339.208 88.4401L337.989 87.9528L340.426 86.3694L343.105 86.4912L346.028 85.0296L347.246 83.3245L347.977 79.4269L347.734 75.1639L350.413 71.6318L351.875 65.2981L352.362 63.5929H355.163L355.529 62.4967L356.381 61.157L363.568 67.7342L368.074 70.292L370.267 72.4844C370.267 72.4844 375.26 69.8048 375.626 70.292C375.991 70.7793 377.087 72.119 377.087 72.119H378.915V75.2858C378.915 75.2858 383.056 79.6706 383.421 79.9142C383.787 80.1577 391.704 84.9079 391.704 84.9079L396.576 80.7667L401.082 81.2539L403.275 79.0615L402.057 73.5805L402.179 66.2724L409.73 63.8365L410.096 56.2849L413.628 55.0668C413.628 55.0668 417.647 54.2141 418.013 54.2141C418.378 54.2141 423.737 53.9706 423.737 53.9706L423.981 55.7976C423.981 55.7976 433.116 56.772 433.36 56.4066C433.604 56.0412 436.527 55.5539 436.527 55.0668C436.527 54.5795 437.258 52.0217 437.258 52.0217L439.937 50.5601L441.886 49.2204L445.54 48.6114L447.123 45.6882L450.168 44.1047L449.681 40.0853L448.098 39.111L435.552 38.2583C435.552 38.2583 425.443 29.854 424.468 29.854C423.494 29.854 419.109 27.9052 419.109 27.9052L430.315 14.6288L438.232 17.1866L442.739 9.8786L444.078 10.244L449.072 2.32701L450.899 3.54508L454.431 0.5L455.528 1.96161C455.528 1.96161 450.168 12.5583 450.29 12.9237C450.412 13.2891 451.63 16.6996 451.63 16.6996L466.002 8.66071L463.323 33.3857L471.24 41.4245L486.587 49.7069L489.997 50.8031L499.376 58.5984L507.171 54.9444L509.242 58.842L511.678 58.9638L510.825 73.7018L507.415 89.9013L493.286 99.1583L493.408 111.217L491.702 112.313L485.856 129.487L484.394 142.154L487.317 141.301L500.716 167.123L518.742 164.565L523.127 165.296L529.582 166.758L538.23 169.437L549.07 172.36L548.949 173.578L556.013 177.232L562.469 182.348L568.437 186.977L572.335 191.727L575.623 196.599L578.059 201.836L585.489 198.913L588.047 200.74L589.387 204.516L593.406 204.272L596.329 211.581L596.573 216.209L598.156 219.985L598.522 223.761L599.131 227.415L601.567 231.312L604.003 234.966L603.394 239.229V243.127L602.785 247.268L637.985 255.672L648.46 256.89L655.646 257.134L666.365 258.717L667.095 261.032L663.076 267.731L660.153 267.365C660.153 267.365 659.665 268.462 659.178 268.462C658.691 268.462 657.351 267.853 657.351 267.853C657.351 267.853 656.012 268.462 655.646 268.462C655.281 268.462 651.87 268.096 651.87 268.096L653.576 275.404L652.723 276.5L654.306 283.687L658.813 283.199L668.07 281.981L677.57 283.443L683.904 283.078L692.795 281.981L695.231 289.777L689.629 295.136L685 298.912L680.493 302.687L675.621 307.438L670.384 313.649L665.512 321.932L663.32 328.387L661.614 334.356L660.153 342.151L658.935 348.972L658.082 354.696L656.62 356.889L663.441 359.081L658.813 367.12L647.364 384.903L646.511 395.378L649.556 397.083C649.556 397.083 644.075 405.365 644.44 405.365C644.806 405.365 649.069 406.705 649.069 406.705L651.505 404.025L656.742 405.731L656.864 409.629L657.473 409.75L657.351 413.526L658.935 413.648L659.3 412.795L658.569 409.019L661.127 408.532L660.883 399.032L664.781 398.91C664.781 398.91 667.583 395.865 667.948 395.621C668.313 395.378 673.429 393.307 673.429 393.307L677.692 390.628C677.692 390.628 682.199 385.877 682.686 385.877C683.173 385.877 688.045 386.486 688.045 386.486L694.257 389.409L697.424 389.653L702.174 392.942L706.315 395.256C706.315 395.256 708.386 395.378 709.117 395.378C709.847 395.378 713.258 394.16 713.258 394.16L716.79 396.352L722.636 400.494L728.361 403.538L730.675 407.436C730.675 407.436 733.842 409.507 734.207 409.629C734.573 409.75 737.983 410.603 737.983 410.603L745.778 411.456L749.311 412.064C749.311 412.064 751.747 418.155 751.747 418.52C751.747 418.885 752.112 422.905 752.112 422.905L754.061 426.193L753.939 428.873V430.7L762.1 431.065L762.952 427.777L762.831 424.001L762.1 420.712L759.177 420.103L757.715 411.456L755.157 407.558L753.696 403.904L755.888 404.025L760.273 407.923L765.997 411.577C765.997 411.577 770.017 413.891 770.382 413.891C770.748 413.891 773.549 413.891 773.549 413.891L777.812 419.251L781.101 425.828C781.101 425.828 785.242 429.969 785.608 429.969C785.973 429.969 789.627 434.111 789.627 434.111C789.627 434.111 791.941 436.912 792.55 437.034C793.159 437.155 798.518 437.277 798.518 437.277L799.493 436.425L800.711 436.668L801.076 437.765C801.076 437.765 810.089 439.592 810.577 439.592C811.064 439.592 812.282 438.495 812.282 438.495C812.282 438.495 820.077 441.175 820.443 441.175C820.808 441.175 825.436 443.733 825.436 443.733L826.167 445.194L827.385 444.464L825.315 450.188L829.09 450.797L827.629 459.445L834.45 460.297L832.501 463.83L825.558 463.708L827.142 453.355L820.564 454.573L813.013 461.394L812.16 471.503L807.166 471.869L806.314 472.234H801.198L796.57 470.529L791.576 467.484L787.435 464.561L786.216 463.464L786.338 465.901L790.114 468.945L794.255 471.26L797.422 472.112L800.833 472.843L804.608 473.087L808.262 473.939L808.019 480.395L811.186 481.856L810.455 484.779L805.826 485.51L799.127 498.543L799.493 500.979L798.762 503.293L797.909 506.704L799.371 509.505L801.442 512.307L803.878 515.595L803.512 517.057L807.532 519.127L809.115 521.563L809.724 524.73L806.679 527.044L805.583 531.795L805.461 534.84L800.711 539.834L799.371 539.468L798.275 539.712H797.179L794.986 540.93L792.916 543L789.627 543.609L788.165 542.757L785.729 542.878L784.268 541.417L781.345 543.366L779.152 545.68L777.203 546.898L776.716 548.603L775.133 549.943L772.94 551.405L770.991 552.501L769.286 554.328L767.703 554.45L763.805 560.661L763.44 558.591L761.978 558.347L761.491 561.879L758.933 564.925L756.984 567.848L754.792 570.162L752.843 572.233H750.651L749.433 572.841L748.458 575.399L750.285 577.348L752.234 576.739L759.177 580.759L764.901 579.784L762.709 587.336L765.998 587.457L766.85 588.067L766.728 590.137L765.267 593.304L763.683 597.202L761.247 601.952L758.568 605.362L759.298 607.555C759.298 607.555 757.106 607.92 757.472 608.042C757.837 608.164 758.202 609.138 758.202 609.138L756.253 608.407L754.426 609.138L752.599 609.26L748.458 606.58L745.657 605.362L741.637 606.824L736.278 610.478L732.624 611.452L731.163 615.106L730.554 616.324L729.092 617.177L727.509 620.587L726.9 627.652L727.143 630.697C727.143 630.697 724.342 631.062 724.342 631.428C724.342 631.793 723.611 633.864 723.611 633.864L723.002 636.787L721.906 639.223L719.104 640.563L718.982 642.999L716.546 644.095L716.425 647.627L715.694 650.55L715.938 652.987L714.476 654.692L713.136 656.762L711.065 660.66L710.944 663.827C710.944 663.827 711.187 667.968 711.187 668.455C711.187 668.942 709.726 670.769 709.726 670.769L707.046 671.5L704.123 670.891L701.808 669.308L700.347 669.186C700.347 669.186 696.815 664.679 696.206 664.557C695.597 664.436 691.577 657.493 691.577 657.493L690.846 650.916L690.725 639.101C690.725 639.101 690.968 632.159 690.968 631.793C690.968 631.428 693.283 626.921 693.283 626.921L698.885 620.1C698.885 620.1 702.052 616.568 702.174 615.959C702.296 615.35 702.174 612.183 702.174 612.183L700.712 607.555L695.11 606.458L695.962 601.099L694.379 592.208L683.173 595.496L676.109 585.63L649.8 602.804L650.409 598.42L649.8 596.105L649.069 594.766L648.46 594.157L649.678 592.086L648.582 588.554L645.902 586.727C645.902 586.727 644.928 584.169 644.562 584.047C644.197 583.926 642.37 582.707 642.37 582.707L640.177 579.906L636.401 579.175L634.574 576.008L634.696 574.425L634.331 572.72L632.991 572.233L632.26 570.406L632.991 568.091L633.113 566.264L632.26 564.559L630.799 563.219L621.177 568.213L615.209 569.918C615.209 569.918 610.093 571.867 609.606 571.867C609.118 571.867 605.952 572.963 605.952 572.963C605.952 572.963 601.932 575.278 601.567 575.278C601.201 575.278 595.842 577.105 595.842 577.105H589.996C589.996 577.105 584.271 576.983 583.662 576.983C583.053 576.983 578.303 577.226 578.303 577.226L573.187 577.47C573.187 577.47 569.289 577.47 568.924 577.47C568.559 577.47 559.545 577.714 559.545 577.714L559.18 573.938V569.553L559.545 565.899L560.764 560.296L561.494 556.277L562.347 554.206C562.347 554.206 558.084 557.007 557.597 557.007C557.11 557.007 552.481 560.418 552.481 560.418C552.481 560.418 545.051 557.617 544.32 557.251C543.59 556.886 537.865 553.963 537.865 553.963C537.865 553.963 535.307 553.11 534.82 553.11C534.333 553.11 531.653 554.693 531.044 554.815C530.435 554.937 523.736 557.007 523.736 557.007L516.306 558.713L508.511 560.661L498.158 564.559L490.119 567.239L487.683 555.79L483.907 547.142C483.907 547.142 473.432 519.858 472.214 519.736C470.997 519.615 468.073 518.031 467.099 518.031C466.125 518.031 461.009 519.371 461.009 519.371C461.009 519.371 445.662 528.262 445.175 528.384C444.688 528.506 436.162 533.013 436.162 533.013C436.162 533.013 428.366 538.007 427.392 537.885C426.418 537.763 412.41 543.244 412.41 543.244L412.167 548.847L426.052 590.99L425.078 595.618L418.622 612.549C418.622 612.549 401.448 611.818 399.987 612.061C398.525 612.305 378.672 611.452 378.672 611.452L375.992 589.894L355.042 590.624C355.042 590.624 356.26 580.271 355.895 580.149C355.529 580.028 343.227 573.572 343.227 573.572L330.621 564.742Z" stroke="#E0E0E0" stroke-linecap="round" stroke-linejoin="round"/>
<path d="M42.2852 503.103L47.0354 501.824L49.1365 502.007L52.6991 500.91L54.8002 499.266L64.0266 497.348L73.8925 495.521L80.6524 488.761L86.0421 480.539L89.6961 477.251L98.7398 469.303L107.875 469.12L111.894 461.447L116.553 455.144L119.294 434.864M119.294 434.864L127.028 436.204C127.028 436.204 128.611 434.864 129.586 435.351C130.56 435.838 131.413 435.96 131.413 437.056C131.413 438.153 131.656 439.492 132.022 439.736C132.387 439.98 133.118 441.076 133.727 440.832C134.336 440.588 135.797 438.274 136.65 437.787C137.503 437.3 138.234 436.204 139.695 436.569C141.157 436.934 148.708 438.274 148.708 438.274C148.708 438.274 154.555 436.326 156.26 436.447C157.965 436.569 161.01 437.3 161.01 437.3C161.01 437.3 171.85 434.255 172.46 434.377C173.069 434.499 181.96 436.569 182.447 436.934C182.935 437.3 200.717 440.954 200.717 440.954L208.634 441.076L211.07 438.761C211.07 438.761 211.679 439.858 212.41 440.101C213.141 440.345 218.257 438.396 218.257 438.396L231.898 435.473L245.175 430.844L266.246 435.595L267.342 434.986C267.342 434.986 272.093 435.717 272.58 435.717C273.067 435.717 283.176 435.595 283.542 435.595M119.294 434.864C119.294 434.864 119.354 431.088 119.354 430.236C119.354 429.383 118.38 424.389 118.136 422.562C117.892 420.735 118.623 420.492 119.841 416.229C121.059 411.966 120.206 410.139 120.206 410.139C120.206 410.139 116.309 402.952 115.822 400.882C115.334 398.811 118.379 393.33 118.745 392.356C119.11 391.381 118.379 382.49 118.379 382.49L124.713 378.227L128.976 377.983L141.887 370.188C141.887 370.188 140.913 367.143 140.913 366.412C140.913 365.681 144.323 357.642 144.323 357.642L147.612 357.399L152.362 348.386C152.362 348.386 154.311 348.751 154.676 348.751C155.042 348.751 154.554 347.898 154.554 347.898C154.554 347.898 153.337 344.001 153.215 343.148C153.093 342.295 151.997 331.455 151.997 330.481C151.997 329.507 153.093 327.558 153.458 326.827C153.824 326.096 154.554 322.686 154.554 322.686C154.554 322.686 165.882 322.929 166.247 322.929C166.613 322.929 173.312 321.468 174.773 321.224C176.235 320.98 183.909 323.904 183.909 323.904C183.909 323.904 185.248 324.878 186.588 324.147C187.928 323.416 185.005 316.839 185.005 316.839C185.005 316.839 187.806 318.301 188.415 318.666C189.024 319.032 200.717 317.813 201.935 317.448C203.153 317.083 207.538 314.647 208.878 313.794C210.218 312.941 219.231 313.672 219.231 313.672C219.231 313.672 222.763 310.871 223.981 310.018C225.199 309.166 227.148 309.896 227.148 309.896L228.244 301.37L220.692 298.691C220.692 298.691 219.718 296.376 218.744 294.915C217.769 293.453 215.333 293.331 215.333 292.844C215.333 292.357 216.429 286.51 216.429 286.51L211.557 273.721L211.435 271.894C211.435 271.894 193.774 271.773 191.704 271.285C189.633 270.798 163.324 252.163 163.324 252.163C163.324 252.163 157.356 245.707 157.112 244.976C156.869 244.246 157.721 242.784 157.965 240.713C158.208 238.643 156.016 237.912 155.773 237.547C155.529 237.181 155.164 234.745 155.164 233.771C155.164 232.796 153.337 231.7 152.728 230.969C152.119 230.239 152.606 227.559 152.484 226.585C152.362 225.61 144.323 218.789 143.349 217.45C142.375 216.11 142.984 212.212 142.74 210.994C142.497 209.776 139.573 203.564 139.573 203.564L140.612 198.976M283.542 435.595C283.907 435.595 293.773 440.101 293.773 440.101C293.773 440.101 294.747 437.3 295.478 437.665C296.209 438.031 296.453 438.396 296.453 438.396L297.305 437.178L304.613 435.107L306.562 434.499V436.569L318.864 449.724L320.082 450.089L320.569 454.108L322.64 454.352L324.589 453.012L326.05 454.108L326.903 456.057L329.095 456.179L351.994 508.31L346.635 512.695L342.25 524.144L317.402 540.831L317.768 546.434M283.542 435.595L282.568 414.402L297.184 413.427L302.421 411.844L301.325 386.509C301.325 386.509 301.081 374.938 301.203 373.72C301.325 372.502 302.787 368.726 302.665 367.995C302.543 367.265 302.178 366.534 302.178 366.534C302.178 366.534 299.863 365.316 300.229 365.316C300.594 365.316 304.735 357.399 304.735 357.399M304.735 357.399L301.934 356.668L301.081 354.841C301.081 354.841 298.646 355.693 297.671 355.085C296.697 354.476 294.991 353.988 295.235 353.501C295.478 353.014 296.697 349.725 296.697 349.725C296.697 349.725 289.876 347.046 290.363 347.046C290.85 347.046 293.043 346.315 293.773 345.462C294.504 344.61 295.113 343.514 295.113 343.514L291.154 342.052L298.158 340.286L297.549 338.337C297.549 338.337 295.783 336.449 295.357 335.536C294.93 334.622 294.93 333.952 294.93 333.952C294.93 333.952 293.164 334.683 291.703 333.83C290.241 332.978 289.266 332.795 288.84 330.968C288.414 329.141 288.17 327.497 288.353 326.522C288.536 325.548 288.658 324.573 287.988 323.538C287.318 322.503 285.125 319.823 283.725 319.214C282.324 318.605 280.862 317.753 279.401 318.301C277.939 318.849 276.66 319.093 276.295 319.945C275.929 320.798 275.138 323.051 275.32 323.903C275.503 324.756 275.442 325.243 275.381 325.426C275.32 325.609 274.528 327.192 274.285 327.192C274.041 327.192 272.641 325.852 272.641 325.852L270.022 316.413L267.403 307.338L271.727 305.329C271.727 305.329 272.336 304.294 272.154 303.989C271.971 303.684 271.788 302.832 271.362 302.832C270.936 302.832 267.282 303.867 267.282 303.867L265.028 296.864L283.907 291.078L283.177 283.892L270.448 270.311L219.779 271.803L211.558 271.621M304.735 357.399L323.919 363.519L333.511 366.99L340.088 368.087C340.088 368.087 341.915 365.437 342.28 364.615C342.646 363.793 342.829 361.601 342.829 361.601L344.656 357.855L345.935 359.682L349.223 347.99C349.223 347.99 350.411 349.36 351.324 350.182C352.238 351.004 376.172 346.711 376.172 346.711C376.172 346.711 376.72 345.34 376.628 345.066C376.537 344.792 380.008 344.518 380.008 344.518L382.657 345.98L383.388 344.975L387.225 349.634C387.225 349.634 389.417 348.081 389.874 347.898C390.331 347.715 391.975 351.826 391.975 351.826L395.081 352.922L395.812 351.552L399.649 352.74C399.649 352.74 401.019 350.091 400.745 350.091C400.471 350.091 403.485 351.004 404.125 351.187C404.764 351.369 406.135 351.278 408.053 350.821C409.971 350.365 411.067 348.629 411.067 348.629L413.625 342.783C413.625 342.783 405.769 336.662 404.673 335.749C403.577 334.835 409.423 323.599 409.423 323.599L407.688 322.503C407.688 322.503 408.692 321.132 408.692 320.676C408.692 320.219 409.971 321.224 410.428 321.224C410.885 321.224 411.25 316.291 411.25 316.291L406.865 314.19C406.865 314.19 407.505 313.094 407.87 312.728C408.236 312.363 399.375 308.709 399.375 308.709M415.087 542.292C415.087 542.292 411.25 541.561 410.337 541.013C409.423 540.465 402.937 536.811 401.658 536.811C400.379 536.811 393.437 538.273 392.706 538.73C391.975 539.186 391.975 539.186 391.975 539.186L387.59 528.864L388.321 526.945C388.321 526.945 393.985 524.387 393.985 523.931C393.985 523.474 394.442 521.19 394.442 521.19L390.788 519.911L394.898 508.949C394.898 508.949 394.807 504.199 395.172 504.199C395.538 504.199 397.456 498.627 397.456 497.713C397.456 496.8 397.913 493.876 397.913 493.876L399.101 491.41C399.101 491.41 399.101 489.035 399.101 488.761C399.101 488.487 401.658 474.236 401.658 474.236L405.221 458.25L405.952 458.432L409.88 448.932L416.548 448.567L414.173 446.557L408.692 443.725C408.692 443.725 409.24 440.893 409.88 440.893C410.519 440.893 411.616 441.167 411.616 441.167V439.523L410.245 438.792C410.245 438.792 410.337 430.296 409.423 430.57C408.51 430.844 403.668 431.667 403.668 431.667C403.668 431.667 397.822 405.175 397.456 405.175C397.091 405.175 394.35 407.185 394.35 407.185L389.6 406.271L388.047 401.704L388.595 391.472C388.595 391.472 390.422 388.184 390.696 388.184C390.97 388.184 389.6 384.53 389.6 384.53C389.6 384.53 405.586 387.179 405.86 387.27C406.135 387.362 408.327 388.823 408.418 388.458C408.51 388.092 410.154 384.987 410.154 384.987L402.846 368.817L428.607 380.145M428.607 380.145L435.732 369.914L437.925 370.188C437.925 370.188 440.939 364.067 443.223 363.61C445.507 363.154 445.872 363.336 445.872 363.336L457.474 366.899L457.017 368.726C457.017 368.726 461.128 371.741 462.041 371.832C462.955 371.923 464.233 371.923 464.416 372.289C464.599 372.654 467.339 374.39 467.705 374.39C468.07 374.39 471.176 374.755 471.176 374.755L476.2 379.414C476.2 379.414 476.657 382.52 476.931 382.155C477.205 381.789 477.936 380.602 477.936 380.602C477.936 380.602 480.859 380.693 481.133 381.15C481.407 381.607 482.686 384.164 482.686 384.164L486.158 381.332C486.158 381.332 487.528 379.505 489.172 379.962C490.817 380.419 492.278 380.602 492.278 380.602L492.826 378.957C492.826 378.957 489.994 377.678 489.629 377.404C489.264 377.13 488.807 375.76 488.807 375.76L484.513 372.837H483.234L482.778 371.923C482.778 371.923 481.407 374.207 481.133 374.024C480.859 373.842 478.85 372.563 478.85 372.563L476.931 369.731C476.931 369.731 471.359 367.082 471.633 366.625C471.907 366.168 472.546 363.976 472.546 363.976L463.503 358.312L465.786 345.432L467.705 342.143L471.085 335.2L469.989 326.705C469.989 326.705 471.633 327.253 471.633 326.979C471.633 326.705 468.07 318.575 468.07 318.575L464.599 314.19M428.607 380.145L435.062 384.682L437.985 381.272L449.069 389.189L451.505 386.022L468.679 403.927C468.679 403.927 468.07 408.799 468.07 410.504C468.07 412.209 472.942 418.299 472.942 418.299C472.942 418.299 479.52 426.947 480.007 428.774C480.494 430.601 479.154 432.55 477.693 434.62C476.231 436.691 475.987 440.711 475.987 440.711H454.307C454.307 440.711 462.102 456.301 463.685 458.372C465.269 460.442 482.565 471.77 482.565 471.77L506.316 488.091C506.316 488.091 516.791 495.521 517.765 496.252C518.74 496.982 529.702 501.124 529.702 501.124L535.548 501.611L536.279 504.412C536.279 504.412 535.304 508.554 535.304 510.137C535.304 511.72 537.619 513.304 537.619 513.669C537.619 514.035 538.349 515.862 538.349 515.862L540.542 518.419L540.664 520.977L541.882 524.022L540.785 526.336L543.343 527.92L542.369 530.234C542.369 530.234 542.978 531.452 542.978 532.427C542.978 533.401 541.882 538.395 541.882 538.395L539.202 545.094C539.202 545.094 536.279 548.261 535.913 548.626C535.548 548.991 535.913 550.209 535.913 550.209L534.33 552.889M464.599 314.19C464.599 314.19 454.276 316.748 453.546 316.839C452.815 316.93 444.41 315.651 444.41 314.647C444.41 313.642 444.959 312.728 444.959 312.728C444.959 312.728 439.934 301.766 439.66 301.766C439.386 301.766 432.718 304.963 432.718 304.963L426.597 296.742C426.597 296.742 422.486 301.127 422.212 300.67C421.938 300.213 421.116 299.482 421.116 299.482L405.769 303.045C405.769 303.045 405.678 304.324 404.947 304.141C404.216 303.959 402.846 303.593 402.846 303.593L399.375 308.709M464.599 314.19C464.599 314.19 462.681 311.632 462.041 310.901C461.402 310.17 458.204 308.526 457.2 308.252C456.195 307.978 455.281 308.161 453.728 307.887C452.175 307.613 447.79 305.511 447.79 305.511L444.593 300.487L450.348 297.747C450.348 297.747 454.55 286.237 454.642 285.597C454.733 284.958 455.372 281.76 455.372 281.76L459.849 275L454.733 258.557C454.733 258.557 455.19 258.557 455.738 258.466C456.286 258.375 458.204 259.653 458.752 259.745C459.301 259.836 470.811 259.562 470.811 259.562L471.724 257.826C471.724 257.826 470.445 255.817 470.171 255.634C469.897 255.451 471.085 254.903 471.085 254.903C471.085 254.903 472.546 255.634 472.912 255.634C473.277 255.634 478.302 248.874 478.302 248.874L488.624 251.158C488.624 251.158 489.812 244.489 489.72 243.302C489.629 242.114 488.076 239.739 488.076 239.739C488.076 239.739 484.696 234.989 484.148 234.167C483.6 233.345 480.22 231.609 479.306 231.061C478.393 230.513 476.566 230.878 476.566 230.878C476.566 230.878 476.749 226.036 476.749 225.58C476.749 225.123 474.008 224.758 474.008 224.758V222.017L477.936 215.988L472.546 211.238L472.455 208.497L467.705 208.314L467.613 198.357L468.436 197.9C468.436 197.9 467.339 194.703 467.339 193.79C467.339 192.876 467.888 186.573 467.888 186.573L469.623 186.847L470.537 185.477L472.912 181.092C472.912 181.092 473.551 179.174 473.551 178.534C473.551 177.895 475.926 174.149 476.566 173.419C477.205 172.688 496.48 158.437 496.48 158.437M399.375 308.709C399.375 308.709 395.538 306.608 392.98 305.146C390.422 303.684 381.287 301.309 381.287 301.309C381.287 301.309 382.566 299.117 382.383 298.386C382.201 297.655 382.201 296.376 382.201 296.376C382.201 296.376 384.941 292.357 384.393 291.809C383.845 291.261 382.749 290.165 382.749 290.165C382.749 290.165 380.008 281.03 379.46 280.847C378.912 280.664 377.268 279.568 377.268 279.568C377.268 279.568 373.066 270.067 373.066 268.971C373.066 267.875 371.239 261.663 371.239 261.663L370.873 259.045C370.873 259.045 368.985 259.593 368.985 259.227C368.985 258.862 369.472 254.66 369.472 254.66L368.133 248.874C368.133 248.874 368.194 242.419 367.645 241.079C367.097 239.739 363.261 232.066 362.774 231.639C362.286 231.213 355.892 225.732 355.892 225.732M250.564 270.616C250.564 270.616 259.974 250.427 260.339 250.427C260.704 250.427 277.97 244.581 278.518 243.941C279.066 243.302 279.34 241.201 280.071 241.292C280.802 241.383 286.191 241.475 286.191 241.475L292.768 236.45C292.768 236.45 307.841 240.47 308.298 240.47C308.755 240.47 320.722 239.739 320.722 240.013C320.722 240.287 321.087 242.206 321.361 242.114C321.635 242.023 328.304 240.287 328.304 240.287L329.035 246.59L335.703 241.657L343.011 240.653L344.29 229.142C344.29 229.142 346.848 228.594 347.67 227.863C348.492 227.133 350.502 225.854 350.502 225.854L355.344 226.402L356.623 224.484L354.796 222.748L355.252 221.926L348.492 216.719C348.492 216.719 348.218 217.358 347.762 217.358C347.305 217.358 346.3 217.358 345.112 216.719C343.925 216.079 343.285 214.709 343.285 214.709L340.088 212.699C340.088 212.699 338.809 210.964 337.622 210.141C336.434 209.319 332.597 207.31 332.597 207.31L324.376 199.636L323.645 200.184L302.269 183.102C302.269 183.102 306.562 181.366 307.659 181.366C308.755 181.366 315.149 180.818 316.885 180.361C318.621 179.904 319.169 179.722 319.169 179.722C319.169 179.722 328.121 166.202 328.578 165.197C329.035 164.192 335.429 146.379 335.429 145.739C335.429 145.1 335.064 136.513 334.607 135.508C334.15 134.503 322.549 109.564 322.549 109.564M492.004 380.602C492.004 380.602 494.014 382.703 494.288 383.159C494.562 383.616 496.663 388.641 496.663 388.641L502.692 388.732L505.707 390.011L506.894 389.097L508.539 392.934L510.183 398.05C510.183 398.05 516.029 404.627 516.486 404.718C516.943 404.81 520.78 402.526 522.607 402.891C524.434 403.257 530.828 405.997 530.828 405.997L532.107 403.257L544.257 417.233C544.257 417.233 553.818 401.612 554.184 401.856C554.549 402.1 558.446 404.536 558.446 404.536L565.633 405.145C565.633 405.145 564.536 403.927 565.024 403.927C565.511 403.927 569.896 403.927 569.896 403.927M569.896 403.927C569.896 403.927 568.921 398.446 568.069 397.349C567.216 396.253 565.389 391.868 564.658 391.868C563.928 391.868 563.927 391.868 563.927 391.868L563.684 386.996C563.684 386.996 566.242 382.855 565.876 381.028C565.511 379.201 564.902 378.227 564.902 378.227L558.69 364.95C558.69 364.95 558.203 362.149 558.203 361.296C558.203 360.444 558.446 360.809 557.838 359.713C557.229 358.617 555.036 354.963 555.036 354.963L551.626 354.354L545.414 340.834C545.414 340.834 546.388 338.398 546.388 338.032C546.388 337.667 545.779 332.064 546.267 332.064C546.754 332.064 548.215 331.942 548.215 331.942C548.215 331.942 548.459 328.654 546.875 326.827C545.292 325 543.465 324.147 543.465 324.147L523.855 324.634C523.855 324.634 523.612 305.633 523.246 302.223C522.881 298.812 521.297 286.876 520.566 284.684C519.836 282.491 518.496 281.151 518.496 281.151L524.951 279.69C524.951 279.69 531.285 275.548 532.625 275.183C533.965 274.818 537.74 272.869 537.74 272.869L527.753 239.983C527.753 239.983 544.318 217.815 545.048 217.571C545.779 217.327 548.337 216.475 548.824 215.622C549.311 214.77 550.529 212.943 550.529 212.943L575.62 202.102L576.838 198.692M569.896 403.927C569.896 403.927 578.056 404.261 580.34 404.17C582.624 404.079 586.187 402.343 586.187 402.343L586.735 403.074C586.735 403.074 588.196 402.8 588.562 402.709C588.927 402.617 589.11 401.156 589.292 400.882C589.475 400.607 596.418 395.857 597.149 394.761C597.879 393.665 597.879 390.559 597.879 390.559L603.452 386.996L606.01 388.915C606.01 388.915 610.577 386.357 611.308 386.265C612.039 386.174 633.049 402.343 633.049 402.343L639.535 401.795L640.083 405.084L643.372 405.632L644.011 404.718M389.143 390.468L385.855 393.208L382.566 392.843C382.566 392.843 381.47 395.766 380.922 395.766C380.374 395.766 373.979 396.679 373.431 396.131C372.883 395.583 373.431 392.112 372.7 392.112C371.969 392.112 363.2 392.295 363.2 392.295C363.2 392.295 363.2 394.67 362.652 394.67C362.104 394.67 347.67 395.4 347.67 395.4L348.218 390.102L347.305 389.554C347.305 389.554 348.036 385.717 348.584 385.717C349.132 385.717 349.132 385.717 349.132 385.717L349.314 383.159L350.228 381.332L340.728 378.044L339.083 370.37L340.179 367.63" stroke="#E0E0E0" stroke-linejoin="round"/>
<path d="M259.643 250.5C256.976 256.5 250.543 269.8 250.143 271L270.143 270L282.143 283.5L284.143 291L264.143 297L266.143 301.5L267.143 304H272.143L267.143 308L273.643 329.5L276.143 323.5V320L279.643 318.5L284.143 320L288.143 325V329.5L290.143 332.5L294.143 335L297.143 339.5L290.143 340.5L294.143 342.5L290.143 346.5L297.143 351L295.643 353.5L298.143 355.5L300.643 353.5L302.643 356.5L334.643 367.5L341.143 369L343.643 362L346.143 360L349.643 348L351.143 351L362.643 348L393.643 353.5L410.143 351L413.643 342.5L404.143 335L408.143 325V323.5V321.5L410.143 320V316.5L408.143 314V312L399.143 308L382.143 300.5L382.643 296L385.143 292L382.643 288.5L380.143 281L377.143 279L370.143 258.5H368.643L370.143 254.5L368.643 241.5L362.643 231L356.643 225.5H350.143L343.643 229L342.643 240L334.643 241.5L329.143 246L328.143 240L320.643 241.5V239.5L307.643 240L292.143 236.5L285.643 241.5H279.643L278.143 244L259.643 250.5Z" fill="#F8F4EC" stroke="#C1C1C1" stroke-width="2"/>
<circle cx="363.5" cy="364.5" r="6" fill="white" stroke="#DDDDDD" stroke-width="2"/>
<circle cx="403.5" cy="342.5" r="6" fill="white" stroke="#DDDDDD" stroke-width="2"/>
<circle cx="468.5" cy="377.5" r="6" fill="white" stroke="#DDDDDD" stroke-width="2"/>
<circle cx="345.5" cy="242.5" r="6" fill="white" stroke="#DDDDDD" stroke-width="2"/>
<circle cx="395.5" cy="322.5" r="6" fill="white" stroke="#DDDDDD" stroke-width="2"/>
<circle cx="387.5" cy="333.5" r="6" fill="white" stroke="#A09060" stroke-width="2"/>
<circle cx="374.5" cy="339.5" r="6" fill="white" stroke="#DDDDDD" stroke-width="2"/>
<circle cx="332.5" cy="348.5" r="6" fill="white" stroke="#DDDDDD" stroke-width="2"/>
<circle cx="309.5" cy="357.5" r="6" fill="white" stroke="#DDDDDD" stroke-width="2"/>
<circle cx="319.5" cy="370.5" r="6" fill="white" stroke="#DDDDDD" stroke-width="2"/>
<circle cx="361.5" cy="333.5" r="6" fill="white" stroke="#DDDDDD" stroke-width="2"/>
<circle cx="376.5" cy="325.5" r="6" fill="white" stroke="#DDDDDD" stroke-width="2"/>
<circle cx="369.5" cy="348.5" r="6" fill="white" stroke="#DDDDDD" stroke-width="2"/>
<g filter="url(#filter0_d_2566_4196)">
<circle cx="376.5" cy="386.5" r="18" fill="#D3C393" fill-opacity="0.04" shape-rendering="crispEdges"/>
</g>
<g filter="url(#filter1_d_2566_4196)">
<circle cx="376.5" cy="386.5" r="18" fill="#A09060"/>
</g>
<g clip-path="url(#clip0_2566_4196)">
<path d="M380.639 389.96C380.521 390.266 380.415 390.544 380.305 390.821C379.978 391.655 379.605 392.466 379.033 393.165C378.7 393.572 378.328 393.952 377.791 394.072C377.041 394.241 376.254 393.974 376.026 393.182C375.862 392.617 376.139 391.921 376.622 391.699C376.795 391.62 376.973 391.596 377.154 391.666C377.223 391.693 377.273 391.74 377.282 391.818C377.289 391.884 377.261 391.941 377.204 391.966C376.833 392.128 376.804 392.468 376.773 392.802C376.755 392.996 376.815 393.167 376.937 393.327C377.155 393.617 377.675 393.56 377.934 393.41C378.38 393.15 378.679 392.753 378.964 392.337C379.586 391.427 379.984 390.411 380.382 389.393C380.474 389.158 380.57 388.924 380.648 388.683C380.737 388.409 380.61 388.149 380.365 388.061C380.219 388.008 380.085 388.067 379.958 388.117C379.375 388.351 378.559 389.299 378.673 390.066C378.687 390.16 378.704 390.245 378.772 390.314C378.842 390.384 378.878 390.463 378.826 390.561C378.768 390.668 378.667 390.662 378.571 390.648C378.161 390.588 377.871 390.149 377.947 389.702C378.021 389.272 378.208 388.893 378.481 388.559C378.893 388.055 379.392 387.671 380.046 387.545C380.454 387.466 380.845 387.5 381.131 387.861C381.321 388.101 381.362 388.389 381.387 388.68C381.456 389.465 381.387 390.247 381.329 391.03C381.3 391.426 381.281 391.823 381.262 392.22C381.259 392.286 381.24 392.359 381.292 392.431C381.384 392.372 381.424 392.278 381.472 392.192C381.728 391.737 381.97 391.275 382.239 390.829C382.702 390.059 383.143 389.276 383.645 388.531C383.798 388.304 383.962 388.083 384.132 387.869C384.38 387.556 384.699 387.473 385.018 387.625C385.224 387.723 385.269 387.81 385.186 388.023C385.012 388.469 384.817 388.907 384.654 389.357C384.273 390.405 383.932 391.465 383.818 392.582C383.802 392.737 383.803 392.894 383.814 393.049C383.833 393.32 384.02 393.411 384.255 393.269C384.329 393.225 384.396 393.17 384.462 393.115C384.523 393.065 384.587 393.015 384.663 393.07C384.74 393.125 384.707 393.207 384.684 393.278C384.572 393.634 384.08 393.954 383.721 393.907C383.247 393.845 382.99 393.562 382.972 393.07C382.958 392.713 383.013 392.363 383.083 392.013C383.268 391.099 383.577 390.221 383.865 389.336C383.878 389.297 383.91 389.259 383.876 389.202C383.606 389.57 383.372 389.954 383.136 390.337C382.528 391.323 382.022 392.363 381.449 393.367C381.394 393.464 381.338 393.566 381.25 393.639C381.014 393.834 380.714 393.733 380.659 393.433C380.598 393.099 380.595 392.759 380.627 392.42C380.703 391.626 380.673 390.829 380.673 390.034C380.674 390.022 380.663 390.009 380.639 389.96Z" fill="white"/>
<path d="M368.063 390.365C367.77 390.359 367.482 390.32 367.22 390.178C367.101 390.114 366.996 390.027 366.931 389.904C366.866 389.784 366.875 389.662 366.963 389.557C367.039 389.466 367.14 389.434 367.254 389.48C367.767 389.683 368.291 389.635 368.812 389.532C369.717 389.352 370.58 389.023 371.46 388.759C372.506 388.444 373.561 388.163 374.648 388.021C375.214 387.947 375.783 387.895 376.351 388.002C376.624 388.053 376.88 388.15 377.101 388.323C377.287 388.471 377.403 388.661 377.384 388.908C377.375 389.038 377.328 389.152 377.183 389.187C377.044 389.218 376.961 389.146 376.896 389.033C376.694 388.676 376.338 388.615 375.98 388.589C375.434 388.549 374.897 388.643 374.361 388.734C372.944 388.976 371.588 389.433 370.23 389.887C369.617 390.093 369 390.283 368.352 390.344C368.256 390.353 368.16 390.358 368.063 390.365Z" fill="white"/>
<path d="M388.18 384.973C388.097 384.906 388.005 384.929 387.924 384.982C387.811 385.058 387.724 385.162 387.638 385.265C387.393 385.554 387.109 385.801 386.79 386.004C386.524 386.174 386.241 386.301 385.914 386.289C385.586 386.278 385.386 386.084 385.361 385.755C385.35 385.599 385.371 385.445 385.395 385.29C385.416 385.157 385.472 385.113 385.61 385.126C386.262 385.189 386.769 384.898 387.19 384.439C387.437 384.17 387.572 383.843 387.564 383.468C387.554 383.072 387.297 382.815 386.903 382.802C386.673 382.795 386.473 382.886 386.271 382.972C386.119 383.099 385.954 383.212 385.823 383.361C385.514 383.715 385.253 384.097 385.066 384.53C384.98 384.728 384.864 384.907 384.721 385.07C384.49 385.447 384.225 385.798 383.893 386.094C383.853 386.129 383.805 386.158 383.756 386.178C383.606 386.242 383.501 386.177 383.486 386.016C383.469 385.84 383.516 385.674 383.571 385.51C383.763 384.946 384.058 384.432 384.333 383.909C384.435 383.714 384.543 383.52 384.579 383.298C384.594 383.208 384.577 383.122 384.494 383.07C384.409 383.016 384.321 383.024 384.234 383.073C384.129 383.13 384.072 383.229 384.016 383.326C383.876 383.568 383.746 383.817 383.601 384.056C383.194 384.724 382.762 385.372 382.192 385.915C382.004 386.095 381.791 386.243 381.534 386.308C381.278 386.373 381.093 386.298 380.982 386.094C380.749 385.662 380.865 384.986 381.227 384.662C381.299 384.597 381.375 384.537 381.445 384.471C382.471 383.51 383.215 382.353 383.791 381.083C383.966 380.696 384.12 380.299 384.159 379.868C384.205 379.347 383.876 379.065 383.376 379.208C383.299 379.229 383.225 379.263 383.153 379.299C382.821 379.469 382.598 379.752 382.388 380.046C382.094 380.459 381.875 380.917 381.621 381.354C381.593 381.423 381.57 381.495 381.537 381.562C381.112 382.442 380.778 383.355 380.556 384.308C380.499 384.552 380.487 384.812 380.337 385.029C380.149 385.299 379.95 385.56 379.729 385.803C379.595 385.95 379.463 386.102 379.281 386.193C379.087 386.29 378.958 386.203 378.974 385.988C378.988 385.81 379.039 385.638 379.118 385.477C379.259 385.187 379.405 384.899 379.549 384.61C379.622 384.464 379.679 384.314 379.696 384.151C379.72 383.922 379.642 383.742 379.444 383.614C379.313 383.53 379.166 383.503 379.021 383.464C378.738 383.388 378.732 383.372 378.807 383.097C378.811 383.081 378.814 383.065 378.818 383.05C378.848 382.913 378.83 382.786 378.697 382.712C378.561 382.635 378.426 382.661 378.31 382.764C378.189 382.871 378.141 383.016 378.137 383.17C378.125 383.572 377.964 383.924 377.774 384.262C377.485 384.778 377.142 385.262 376.799 385.744C376.721 385.853 376.644 385.966 376.537 386.049C376.401 386.155 376.294 386.12 376.249 385.952C376.23 385.881 376.225 385.803 376.228 385.729C376.236 385.504 376.313 385.296 376.405 385.095C376.625 384.622 376.874 384.163 377.078 383.681C377.124 383.572 377.168 383.461 377.173 383.341C377.177 383.24 377.153 383.145 377.051 383.097C376.954 383.052 376.861 383.072 376.779 383.137C376.706 383.195 376.653 383.268 376.611 383.351C376.59 383.392 376.582 383.458 376.524 383.454C376.466 383.451 376.469 383.383 376.451 383.34C376.297 382.986 375.994 382.843 375.621 382.954C375.345 383.035 375.123 383.201 374.913 383.39C374.712 383.572 374.568 383.803 374.392 384.004C374.31 384.149 374.224 384.292 374.146 384.439C373.925 384.858 373.687 385.265 373.398 385.641C373.228 385.863 373.059 386.087 372.806 386.225C372.736 386.264 372.66 386.309 372.58 386.251C372.499 386.192 372.523 386.107 372.539 386.028C372.606 385.695 372.729 385.379 372.853 385.065C372.974 384.755 373.106 384.447 373.148 384.112C373.189 383.772 373.111 383.619 372.831 383.486C372.487 383.469 372.226 383.64 371.984 383.857C371.512 384.279 371.142 384.791 370.729 385.264C370.69 385.309 370.662 385.37 370.565 385.391C370.687 385.065 370.78 384.771 371.044 384.533C371.863 383.796 372.553 382.944 373.175 382.036C373.467 381.609 373.733 381.167 373.899 380.673C373.968 380.468 374.023 380.261 373.977 380.041C373.931 379.824 373.812 379.701 373.594 379.659C373.354 379.613 373.148 379.707 372.957 379.83C372.696 380 372.496 380.233 372.321 380.488C371.887 381.118 371.521 381.787 371.202 382.482C371.058 382.795 370.917 383.108 370.775 383.421C370.636 383.788 370.496 384.154 370.359 384.522C370.302 384.675 370.217 384.81 370.11 384.933C369.716 385.384 369.294 385.806 368.842 386.196C368.441 386.542 368.01 386.842 367.496 387.005C366.674 387.267 365.979 386.921 365.707 386.102C365.569 385.686 365.547 385.256 365.623 384.827C365.856 383.515 366.416 382.343 367.185 381.266C367.59 380.697 368.059 380.188 368.667 379.825C368.878 379.7 369.105 379.617 369.356 379.636C369.519 379.649 369.661 379.702 369.739 379.861C369.784 379.903 369.806 379.959 369.824 380.014C369.946 380.385 369.884 380.742 369.74 381.093C369.635 381.423 369.464 381.708 369.182 381.92C369.03 382.036 368.996 382.168 369.06 382.316C369.124 382.468 369.259 382.535 369.446 382.506C369.612 382.48 369.746 382.388 369.863 382.275C370.387 381.761 370.615 381.121 370.639 380.402C370.651 380.059 370.566 379.738 370.333 379.474C370.01 379.106 369.583 379.043 369.128 379.067C368.772 379.085 368.445 379.204 368.126 379.352C367.647 379.648 367.217 380.003 366.845 380.426C366.013 381.372 365.43 382.455 365.046 383.647C364.8 384.408 364.673 385.184 364.832 385.984C365.053 387.099 365.902 387.772 367.034 387.717C367.507 387.695 367.935 387.52 368.33 387.264C368.82 386.947 369.244 386.55 369.653 386.135C369.694 386.094 369.726 386.032 369.799 386.028C369.816 386.088 369.79 386.131 369.776 386.176C369.719 386.362 369.653 386.544 369.607 386.732C369.578 386.848 369.608 386.963 369.735 387.014C369.853 387.062 369.959 387.025 370.039 386.931C370.091 386.87 370.133 386.799 370.177 386.732C370.67 385.965 371.23 385.25 371.872 384.603C372.045 384.429 372.214 384.243 372.441 384.131C372.483 384.11 372.531 384.079 372.576 384.118C372.614 384.153 372.592 384.2 372.58 384.24C372.528 384.415 372.477 384.591 372.417 384.763C372.287 385.134 372.139 385.498 372.051 385.883C372.004 386.084 371.979 386.285 372.045 386.488C372.132 386.76 372.4 386.901 372.672 386.815C372.775 386.783 372.87 386.732 372.958 386.669C373.148 386.534 373.315 386.375 373.465 386.197C373.487 386.171 373.508 386.125 373.552 386.137C373.596 386.149 373.593 386.197 373.597 386.232C373.669 386.774 374.179 387.005 374.681 386.727C374.998 386.552 375.248 386.304 375.483 386.034C375.551 385.955 375.615 385.872 375.701 385.766C375.716 385.924 375.723 386.045 375.74 386.166C375.8 386.593 376.167 386.781 376.55 386.583C376.671 386.52 376.775 386.434 376.871 386.341C377.509 385.72 377.967 384.977 378.335 384.174C378.478 383.861 378.472 383.859 378.793 383.983C379.071 384.09 379.121 384.186 379.012 384.462C378.898 384.753 378.767 385.036 378.647 385.324C378.526 385.614 378.426 385.907 378.444 386.229C378.465 386.622 378.73 386.827 379.113 386.73C379.364 386.666 379.574 386.526 379.761 386.352C379.943 386.184 380.116 386.007 380.271 385.814C380.294 385.785 380.317 385.743 380.358 385.751C380.413 385.762 380.404 385.819 380.408 385.858C380.423 386.015 380.452 386.166 380.51 386.314C380.652 386.676 380.935 386.862 381.324 386.85C381.575 386.841 381.792 386.736 381.999 386.606C382.335 386.395 382.615 386.121 382.873 385.823C382.901 385.79 382.919 385.733 382.998 385.753C382.978 385.947 382.948 386.145 383.007 386.34C383.11 386.681 383.433 386.833 383.76 386.693C383.977 386.6 384.157 386.456 384.311 386.281C384.454 386.12 384.59 385.954 384.73 385.79C384.751 385.765 384.769 385.733 384.806 385.741C384.838 385.748 384.839 385.78 384.841 385.807C384.859 386.104 384.986 386.355 385.174 386.578C385.297 386.655 385.414 386.739 385.559 386.776C385.896 386.861 386.221 386.827 386.534 386.678C387.168 386.376 387.672 385.911 388.119 385.381C388.161 385.332 388.188 385.272 388.213 385.213C388.249 385.127 388.258 385.038 388.18 384.973ZM385.669 384.551C385.859 384.181 386.078 383.833 386.39 383.551C386.453 383.493 386.529 383.45 386.611 383.422C386.843 383.344 386.981 383.443 386.98 383.712C386.968 383.983 386.823 384.204 386.596 384.381C386.356 384.57 386.081 384.663 385.777 384.673C385.698 384.674 385.605 384.675 385.669 384.551ZM381.115 384.134C381.157 383.912 381.214 383.693 381.292 383.48C381.703 382.366 382.183 381.287 382.9 380.327C383.032 380.149 383.177 379.983 383.364 379.861C383.424 379.822 383.487 379.78 383.559 379.819C383.634 379.859 383.617 379.938 383.625 380.016C383.58 380.336 383.462 380.643 383.33 380.943C382.87 381.992 382.309 382.983 381.563 383.86C381.459 383.983 381.346 384.099 381.214 384.194C381.189 384.211 381.161 384.242 381.129 384.221C381.097 384.203 381.108 384.165 381.115 384.134ZM371.476 383.088C371.847 382.275 372.271 381.492 372.787 380.761C372.89 380.616 373.014 380.487 373.158 380.381C373.223 380.334 373.299 380.285 373.38 380.336C373.47 380.393 373.451 380.489 373.427 380.571C373.318 380.938 373.158 381.286 372.957 381.611C372.494 382.357 371.957 383.047 371.352 383.685C371.323 383.716 371.29 383.744 371.258 383.772C371.251 383.778 371.238 383.778 371.194 383.788C371.27 383.532 371.375 383.31 371.476 383.088ZM375.872 384.663C375.635 385.08 375.373 385.481 375.057 385.843C374.923 385.998 374.764 386.128 374.582 386.226C374.47 386.285 374.347 386.339 374.233 386.256C374.121 386.175 374.128 386.038 374.141 385.914C374.172 385.616 374.273 385.337 374.403 385.07C374.632 384.598 374.912 384.159 375.29 383.79C375.392 383.691 375.503 383.608 375.631 383.548C375.931 383.409 376.145 383.546 376.15 383.906C376.119 384.161 376.011 384.418 375.872 384.663Z" fill="white"/>
<path d="M384.417 382.039C384.426 381.828 384.507 381.653 384.699 381.549C384.928 381.423 385.173 381.53 385.239 381.785C385.298 382.018 385.228 382.221 385.059 382.385C384.943 382.497 384.798 382.549 384.642 382.472C384.468 382.384 384.41 382.227 384.417 382.039Z" fill="white"/>
</g>
<circle cx="379.5" cy="355.5" r="6" fill="white" stroke="#DDDDDD" stroke-width="2"/>
<circle cx="390.5" cy="349.5" r="6" fill="white" stroke="#DDDDDD" stroke-width="2"/>
<defs>
<filter id="filter0_d_2566_4196" x="338.5" y="350.5" width="76" height="76" filterUnits="userSpaceOnUse" color-interpolation-filters="sRGB">
<feFlood flood-opacity="0" result="BackgroundImageFix"/>
<feColorMatrix in="SourceAlpha" type="matrix" values="0 0 0 0 0 0 0 0 0 0 0 0 0 0 0 0 0 0 127 0" result="hardAlpha"/>
<feOffset dy="2"/>
<feGaussianBlur stdDeviation="10"/>
<feComposite in2="hardAlpha" operator="out"/>
<feColorMatrix type="matrix" values="0 0 0 0 0 0 0 0 0 0 0 0 0 0 0 0 0 0 0.15 0"/>
<feBlend mode="normal" in2="BackgroundImageFix" result="effect1_dropShadow_2566_4196"/>
<feBlend mode="normal" in="SourceGraphic" in2="effect1_dropShadow_2566_4196" result="shape"/>
</filter>
<filter id="filter1_d_2566_4196" x="338.5" y="350.5" width="76" height="76" filterUnits="userSpaceOnUse" color-interpolation-filters="sRGB">
<feFlood flood-opacity="0" result="BackgroundImageFix"/>
<feColorMatrix in="SourceAlpha" type="matrix" values="0 0 0 0 0 0 0 0 0 0 0 0 0 0 0 0 0 0 127 0" result="hardAlpha"/>
<feOffset dy="2"/>
<feGaussianBlur stdDeviation="10"/>
<feComposite in2="hardAlpha" operator="out"/>
<feColorMatrix type="matrix" values="0 0 0 0 0 0 0 0 0 0 0 0 0 0 0 0 0 0 0.15 0"/>
<feBlend mode="normal" in2="BackgroundImageFix" result="effect1_dropShadow_2566_4196"/>
<feBlend mode="normal" in="SourceGraphic" in2="effect1_dropShadow_2566_4196" result="shape"/>
</filter>
<radialGradient id="paint0_radial_2566_4196" cx="0" cy="0" r="1" gradientUnits="userSpaceOnUse" gradientTransform="translate(361.5 336.5) rotate(80.5141) scale(339.644 422.125)">
<stop offset="0.289755" stop-color="#F7F7F7"/>
<stop offset="1" stop-color="white"/>
</radialGradient>
<clipPath id="clip0_2566_4196">
<rect width="23.4783" height="15.0549" fill="white" transform="translate(364.762 379.064)"/>
</clipPath>
</defs>
</svg>
