<svg width="33" height="79" viewBox="0 0 33 79" fill="none" xmlns="http://www.w3.org/2000/svg">
<path d="M11.632 0.750004C7.5259 5.61928 1.69198 14.9399 2.95575 21.4464C4.05401 27.1009 9.94491 30.8799 14.2243 32.582C18.4071 34.2457 23.8098 34.553 28.4861 31.7692C30.6079 30.506 32.4666 28.2737 30.8005 26.3819C26.382 21.365 16.4626 27.4172 14.0774 34.6355C10.5249 45.3866 12.6544 57.3144 7.55453 67.6017C6.97004 68.7807 4.48458 75.415 2.69537 74.528C0.849405 73.6129 1.60474 69.0823 1.00481 67.1553C0.0877095 64.2095 1.95379 73.5683 1.81453 76.9438C1.70466 79.6067 1.2153 79.7623 3.50366 77.2107C5.8509 74.5934 9.90114 71.0414 12.9044 71.1874" stroke="black" stroke-width="1.5" stroke-linecap="round" stroke-dasharray="6 6"/>
</svg>
