<svg width="78" height="167" viewBox="0 0 78 167" fill="none" xmlns="http://www.w3.org/2000/svg">
<path d="M73.1862 165.074C76.5614 151.302 78.9813 126.943 70.0271 115.215C62.2455 105.023 46.7592 103.311 36.5407 104.147C26.5528 104.965 15.4731 109.694 8.89866 119.87C5.91565 124.488 4.41561 130.778 9.60943 132.904C23.3828 138.541 37.1833 116.662 34.8032 99.906C31.2583 74.9497 15.2168 53.2648 15.2168 27.7037C15.2168 24.7741 13.6143 9.08419 18.06 9.08419C22.6467 9.08419 25.62 18.8675 28.722 22.1178C33.4639 27.0865 20.4881 10.2651 17.4282 3.39482C15.0143 -2.0251 15.8364 -2.81941 13.7953 4.5327C11.7015 12.074 7.13533 23.1634 1.00089 25.8418" stroke="#8B7B70" stroke-width="2" stroke-linecap="round" stroke-dasharray="6 6"/>
</svg>
