<svg width="33" height="59" viewBox="0 0 33 59" fill="none" xmlns="http://www.w3.org/2000/svg">
<path d="M2.95632 0.75016C4.05458 6.40461 9.94548 10.1837 14.2249 11.8858C18.4077 13.5495 23.8104 13.8568 28.4867 11.0729C30.6084 9.80979 32.4672 7.57742 30.801 5.68562C26.3826 0.668805 16.4631 6.72099 14.078 13.9393C10.5254 24.6904 12.655 36.6182 7.5551 46.9055C6.97061 48.0845 4.48515 54.7188 2.69594 53.8318C0.849975 52.9166 1.60531 48.3861 1.00538 46.4591C0.0882818 43.5133 1.95436 52.8721 1.8151 56.2475C1.70523 58.9105 1.21588 59.0661 3.50423 56.5144C5.85147 53.8971 9.90171 50.3451 12.9049 50.4911" stroke="#8B7B70" stroke-width="1.5" stroke-linecap="round" stroke-dasharray="6 6"/>
</svg>
