<svg width="20" height="20" viewBox="0 0 20 20" fill="none" xmlns="http://www.w3.org/2000/svg">
<path d="M15 7.67375C14.6281 7.89062 14.375 8.28875 14.375 8.75C14.3756 8.96838 14.4336 9.18275 14.5434 9.37157C14.6531 9.56038 14.8106 9.71699 15 9.82562V12.515C14.9481 12.5119 14.8987 12.5 14.8462 12.5H12.5V9.82562C12.6894 9.71699 12.8469 9.56038 12.9566 9.37157C13.0664 9.18275 13.1244 8.96838 13.125 8.75C13.125 8.28875 12.8719 7.89062 12.5 7.67375V5H15V7.67375ZM5 12.515V9.82562C5.18944 9.71699 5.34693 9.56038 5.45664 9.37157C5.56636 9.18275 5.62442 8.96838 5.625 8.75C5.625 8.28875 5.37187 7.89062 5 7.67375V5H7.5V7.67375C7.12813 7.89062 6.875 8.28875 6.875 8.75C6.87558 8.96838 6.93364 9.18275 7.04336 9.37157C7.15307 9.56038 7.31056 9.71699 7.5 9.82562V12.5H5.15375C5.10125 12.5 5.05188 12.5119 5 12.515ZM11.25 7.67375C10.8781 7.89062 10.625 8.28875 10.625 8.75C10.6256 8.96838 10.6836 9.18275 10.7934 9.37157C10.9031 9.56038 11.0606 9.71699 11.25 9.82562V12.5H8.75V9.82562C8.93944 9.71699 9.09693 9.56038 9.20664 9.37157C9.31636 9.18275 9.37442 8.96838 9.375 8.75C9.375 8.28875 9.12187 7.89062 8.75 7.67375V5H11.25V7.67375ZM18.125 3.75H1.875C1.53125 3.75 1.25 4.03125 1.25 4.375C1.25 4.71812 1.53125 5 1.875 5H3.75V7.67375C3.37812 7.89062 3.125 8.28875 3.125 8.75C3.12558 8.96838 3.18364 9.18275 3.29336 9.37157C3.40307 9.56038 3.56056 9.71699 3.75 9.82562V12.9094C3.36803 13.1464 3.05278 13.4768 2.83406 13.8695C2.61534 14.2622 2.50037 14.7042 2.5 15.1538C2.5 15.7594 2.99063 16.25 3.59625 16.25H16.4038C17.0094 16.25 17.5 15.7594 17.5 15.1538C17.5 14.205 16.9981 13.3788 16.25 12.9094V9.82562C16.4394 9.71699 16.5969 9.56038 16.7066 9.37157C16.8164 9.18275 16.8744 8.96838 16.875 8.75C16.875 8.28875 16.6219 7.89062 16.25 7.67375V5H18.125C18.4688 5 18.75 4.71812 18.75 4.375C18.75 4.03125 18.4688 3.75 18.125 3.75Z" fill="#923D4F"/>
</svg>
