<svg width="384" height="344" viewBox="0 0 384 344" fill="none" xmlns="http://www.w3.org/2000/svg">
<g clip-path="url(#clip0_1305_52388)">
<path d="M176.149 215.985C176.098 215.985 176.048 215.97 176.007 215.941L107.211 168.075C107.001 167.93 106.753 167.852 106.498 167.853C106.243 167.853 105.995 167.931 105.786 168.077L37.4854 215.94C37.4314 215.978 37.3645 215.993 37.2996 215.982C37.2346 215.97 37.1768 215.934 37.1389 215.88C37.101 215.826 37.0861 215.759 37.0975 215.694C37.1089 215.629 37.1457 215.571 37.1997 215.533L105.5 167.67C105.793 167.466 106.141 167.357 106.497 167.356C106.854 167.355 107.202 167.464 107.495 167.667L176.291 215.533C176.335 215.563 176.367 215.606 176.384 215.657C176.401 215.707 176.402 215.761 176.386 215.811C176.37 215.862 176.339 215.906 176.296 215.937C176.253 215.969 176.202 215.985 176.149 215.985Z" fill="#3F3D56"/>
<path d="M41.3828 217.682L106.56 169.423L172.232 221.116L109.918 258.021L76.0874 250.317L41.3828 217.682Z" fill="#E6E6E6"/>
<path d="M78.9476 280.816H46.7484C46.5507 280.816 46.3549 280.777 46.1722 280.702C45.9894 280.627 45.8234 280.516 45.6835 280.376C45.5436 280.237 45.4326 280.071 45.3569 279.889C45.2812 279.706 45.2422 279.51 45.2422 279.313C45.2422 279.115 45.2812 278.92 45.3569 278.737C45.4326 278.555 45.5436 278.389 45.6835 278.25C45.8234 278.11 45.9894 277.999 46.1722 277.924C46.3549 277.848 46.5507 277.81 46.7484 277.81H78.9476C79.1453 277.81 79.3412 277.848 79.5239 277.924C79.7066 277.999 79.8727 278.11 80.0126 278.25C80.1525 278.389 80.2635 278.555 80.3392 278.737C80.4149 278.92 80.4539 279.115 80.4539 279.313C80.4539 279.51 80.4149 279.706 80.3392 279.889C80.2635 280.071 80.1525 280.237 80.0126 280.376C79.8727 280.516 79.7066 280.627 79.5239 280.702C79.3412 280.777 79.1453 280.816 78.9476 280.816Z" fill="#D3C393"/>
<path d="M58.3008 274.355H46.7484C46.5507 274.355 46.3549 274.316 46.1722 274.241C45.9894 274.166 45.8234 274.055 45.6835 273.915C45.5436 273.776 45.4326 273.61 45.3569 273.428C45.2812 273.245 45.2422 273.05 45.2422 272.852C45.2422 272.654 45.2812 272.459 45.3569 272.276C45.4326 272.094 45.5436 271.928 45.6835 271.789C45.8234 271.649 45.9894 271.538 46.1722 271.463C46.3549 271.388 46.5507 271.349 46.7484 271.349H58.3008C58.4985 271.349 58.6943 271.388 58.8771 271.463C59.0598 271.538 59.2259 271.649 59.3658 271.789C59.5057 271.928 59.6166 272.094 59.6924 272.276C59.7681 272.459 59.8071 272.654 59.8071 272.852C59.8071 273.05 59.7681 273.245 59.6924 273.428C59.6166 273.61 59.5057 273.776 59.3658 273.915C59.2259 274.055 59.0598 274.166 58.8771 274.241C58.6943 274.316 58.4985 274.355 58.3008 274.355Z" fill="#D3C393"/>
<path d="M107.481 244.562C107.236 244.562 106.994 244.515 106.767 244.422L66.5703 227.759V175.601C66.5709 175.14 66.7545 174.698 67.0809 174.371C67.4074 174.045 67.85 173.862 68.3116 173.861H145.426C145.888 173.862 146.331 174.045 146.657 174.371C146.983 174.698 147.167 175.14 147.168 175.601V227.796L147.092 227.828L108.216 244.414C107.983 244.512 107.733 244.562 107.481 244.562Z" fill="white"/>
<path d="M107.48 244.686C107.219 244.686 106.961 244.636 106.719 244.537L66.4453 227.842V175.601C66.4459 175.107 66.6426 174.633 66.9924 174.283C67.3421 173.934 67.8164 173.737 68.311 173.737H145.426C145.92 173.737 146.395 173.934 146.744 174.283C147.094 174.633 147.291 175.107 147.291 175.601V227.877L108.264 244.528C108.016 244.632 107.75 244.686 107.48 244.686ZM66.9428 227.51L106.909 244.078C107.282 244.229 107.699 244.226 108.07 244.071L146.794 227.549V175.601C146.793 175.238 146.649 174.891 146.393 174.635C146.136 174.378 145.788 174.234 145.426 174.234H68.311C67.9483 174.234 67.6005 174.378 67.344 174.635C67.0875 174.891 66.9433 175.238 66.9428 175.601L66.9428 227.51Z" fill="#3F3D56"/>
<path d="M175.648 215.488H175.598L147.041 227.671L107.969 244.339C107.816 244.403 107.652 244.437 107.486 244.438C107.321 244.438 107.157 244.407 107.003 244.344L66.6923 227.636L37.4335 215.508L37.3888 215.488H37.339C36.8773 215.489 36.4347 215.672 36.1082 215.998C35.7818 216.325 35.5982 216.767 35.5977 217.228V292.778C35.5982 293.24 35.7818 293.682 36.1082 294.008C36.4347 294.334 36.8773 294.518 37.339 294.518H175.648C176.109 294.518 176.552 294.334 176.879 294.008C177.205 293.682 177.389 293.24 177.389 292.778V217.228C177.389 216.767 177.205 216.325 176.879 215.998C176.552 215.672 176.109 215.489 175.648 215.488ZM176.892 292.778C176.891 293.108 176.76 293.424 176.527 293.657C176.294 293.89 175.978 294.021 175.648 294.021H37.339C37.0091 294.021 36.6928 293.89 36.4596 293.657C36.2264 293.424 36.0953 293.108 36.0952 292.778V217.228C36.0956 216.907 36.2204 216.598 36.4434 216.366C36.6664 216.135 36.9703 215.998 37.2917 215.985L66.6923 228.173L106.812 244.804C107.246 244.98 107.733 244.978 108.165 244.796L147.041 228.21L175.698 215.985C176.018 215.999 176.322 216.136 176.544 216.367C176.766 216.599 176.891 216.907 176.892 217.228V292.778Z" fill="#3F3D56"/>
<path d="M107.083 229.771C105.599 229.774 104.155 229.295 102.967 228.405L102.894 228.35L87.3934 216.494C86.6756 215.944 86.0731 215.259 85.6204 214.477C85.1676 213.695 84.8735 212.831 84.7549 211.935C84.6362 211.04 84.6953 210.13 84.9287 209.257C85.1621 208.384 85.5654 207.565 86.1154 206.848C86.6654 206.131 87.3514 205.529 88.1343 205.077C88.9172 204.625 89.7815 204.331 90.6781 204.212C91.5746 204.094 92.4857 204.153 93.3594 204.386C94.2331 204.619 95.0522 205.022 95.7701 205.571L105.81 213.263L129.536 182.35C130.086 181.633 130.772 181.031 131.555 180.579C132.338 180.127 133.203 179.834 134.099 179.715C134.996 179.597 135.907 179.657 136.781 179.89C137.654 180.124 138.473 180.527 139.191 181.077L139.043 181.277L139.195 181.079C140.642 182.191 141.59 183.831 141.829 185.639C142.067 187.448 141.579 189.277 140.469 190.725L112.562 227.086C111.917 227.924 111.087 228.602 110.136 229.068C109.186 229.534 108.142 229.774 107.083 229.771Z" fill="#D3C393"/>
<path d="M109.037 112.972L63.0018 91.9675M62.9973 91.9664L129.676 93.9188L108.853 112.891L109.19 141.519L62.9973 91.9664Z" stroke="#CCCCCC" stroke-width="2" stroke-linecap="round" stroke-linejoin="round"/>
<path d="M-10.8403 215.457L-23.0007 203.51M-23.002 203.509L-2.23557 211.746L-10.8892 215.41L-13.9536 224.565L-23.002 203.509Z" stroke="#CCCCCC" stroke-linecap="round" stroke-linejoin="round"/>
<path d="M30.9171 317.483L7.00236 304.988M7.00001 304.987L42.7677 307.965L30.8214 317.435L29.8673 332.65L7.00001 304.987Z" stroke="#CCCCCC" stroke-linecap="round" stroke-linejoin="round"/>
<path d="M207.915 253.258L219.695 245.001M219.696 245L209.511 261.207L207.961 253.224L200.996 249.036L219.696 245Z" stroke="#CCCCCC" stroke-linecap="round" stroke-linejoin="round"/>
<path d="M6.91855 188.258L18.6994 180.001M18.7003 180L8.51457 196.207L6.96495 188.224L0 184.036L18.7003 180Z" stroke="#CCCCCC" stroke-linecap="round" stroke-linejoin="round"/>
<path d="M128.539 327.341L154.998 309.002M155 309L132.123 345L128.643 327.267L113 317.963L155 309Z" stroke="#CCCCCC" stroke-width="2" stroke-linecap="round" stroke-linejoin="round"/>
<path d="M270.657 33.3875C279.88 25.7353 278.98 26.4371 286.112 36.8481C288.606 42.1788 297.571 25.9756 293.193 30.1691C301.998 33.2222 311.27 36.852 312.042 47.5163C324.35 56.4551 325.803 72.0289 325.992 86.095C326.011 87.4006 325.282 92.2709 325.535 93.0704C326.79 94.12 326.915 94.1343 326.993 95.8652C330.001 96.1356 331.519 95.981 333.558 98.4395C336.801 102.351 337.175 109.011 336.7 113.822C336.155 119.367 333.946 126.099 329.521 129.795C327.713 131.307 326.776 131.292 324.557 131.669C323.026 147.837 319.575 161.738 306.401 172.541C305.879 172.967 305.35 173.384 304.813 173.791L300.972 176.255L297.903 177.97C296.683 178.504 295.449 179.003 294.201 179.468C280.359 184.597 267.689 183.958 254.338 177.842L252.253 176.778C250.942 176.076 249.742 175.219 248.509 174.386C233.524 163.024 229.619 149.58 227.944 131.529C216.204 129.281 213.591 111.177 216.78 101.774C218.338 97.1768 220.572 96.715 224.883 95.7005C225.24 95.6161 225.297 94.3373 225.354 93.9659L226.776 93.0469C226.964 92.2073 226.423 85.2688 226.449 83.7575C226.511 79.2045 226.881 74.318 227.808 69.862C229.477 61.8495 232.658 52.3534 239.966 47.8646C241.133 47.1481 240.95 45.9537 241.122 44.6574C241.624 36.4364 253.06 32.5228 259.467 30.1082C254.281 24.2668 265.408 38.7939 270.657 33.3875Z" fill="#803C07"/>
<path d="M271.636 36.6169C280.859 28.9647 279.442 25.0527 286.574 35.4637C289.069 40.7944 297.572 25.9756 293.195 30.1691C301.999 33.2223 311.271 36.852 312.044 47.5163C324.351 56.4551 325.804 72.0289 325.993 86.095C326.012 87.4006 325.283 92.2709 325.537 93.0704C324.789 93.2204 323.239 93.249 322.423 93.2882C314.253 93.3772 306.024 92.1575 297.867 92.6045C290.468 93.01 285.737 92.7323 280.443 98.4242C277.934 98.6194 274.436 98.5622 271.842 98.5829L271.636 98.3707C270.681 97.3936 268.994 95.5732 267.829 95.0777C257.235 90.5737 241.23 93.3901 230.078 93.2545C228.61 93.3112 228.187 93.2573 226.778 93.0469C226.965 92.2073 226.425 85.2688 226.45 83.7575C226.512 79.2045 226.882 74.3181 227.81 69.862C229.478 61.8495 232.659 52.3534 239.968 47.8646C241.134 47.1481 240.952 45.9537 241.124 44.6574C241.625 36.4364 253.061 32.5229 259.468 30.1082C254.282 24.2668 266.387 42.0233 271.636 36.6169Z" fill="#FEBC8A"/>
<path d="M274.808 38.2317C284.031 30.5795 278.056 28.9739 285.188 39.3848C287.682 44.7156 297.57 25.9753 293.192 30.1688C301.996 33.222 311.269 36.8518 312.041 47.516C311.327 52.1008 310.48 53.8603 307.151 57.199C301.903 61.7422 297.304 64.6339 290.531 66.523C275.093 70.8287 257.706 68.1253 245.86 56.9397C241.684 52.5339 241.212 50.4524 241.121 44.6571C241.623 36.4361 253.059 32.5226 259.466 30.1079C254.28 24.2665 269.559 43.638 274.808 38.2317Z" fill="#FEBC8A"/>
<path d="M268.352 39.8461C277.575 32.1939 275.521 34.0484 282.653 44.4593C285.148 49.7901 297.572 25.9754 293.194 30.1689C284.272 27.477 268.169 27.2381 259.468 30.108C254.282 24.2666 263.103 45.2525 268.352 39.8461Z" fill="#803C07"/>
<path d="M226.778 93.0468C226.965 92.2071 226.425 85.2686 226.45 83.7573C226.512 79.2044 226.882 74.3179 227.81 69.8619C229.478 61.8494 232.659 52.3532 239.968 47.8644C241.134 47.148 240.952 45.9536 241.124 44.6572C241.215 50.4525 241.687 52.5341 245.863 56.9398C235.328 66.7561 230.573 78.1724 230.091 92.6412C230.084 92.8456 230.08 93.05 230.078 93.2544C228.61 93.3111 228.187 93.2571 226.778 93.0468Z" fill="#A06A48"/>
<path d="M312.042 47.5161C324.35 56.455 325.803 72.0287 325.992 86.0949C326.011 87.4005 325.282 92.2708 325.536 93.0703C324.788 93.2202 323.238 93.2488 322.422 93.288C321.988 78.2014 318.482 67.742 307.152 57.1991C310.481 53.8604 311.328 52.1009 312.042 47.5161Z" fill="#A06A48"/>
<path d="M291.006 77.7446C297.273 77.4517 310.448 79.924 313.734 87.6181C313.939 88.097 313.615 88.4781 313.34 88.8411C312.056 89.4847 311.793 89.6609 310.319 89.6983C303.573 87.5748 298.238 86.6595 291.179 86.0713C286.424 85.675 285.039 79.7929 291.006 77.7446Z" fill="#4E2606"/>
<path d="M257.542 77.83C263.936 77.6363 268.737 81.9369 262.944 85.4421C261.023 86.6047 249.976 87.4212 245.825 88.5893C245.251 88.7794 244.674 88.9579 244.093 89.1249C242.262 89.6425 239.524 90.139 238.961 87.7898C240.377 81.2882 251.854 78.2623 257.542 77.83Z" fill="#4E2606"/>
<path d="M280.443 98.4249C285.737 92.733 290.468 93.0107 297.866 92.6052C306.023 92.1581 314.253 93.3779 322.422 93.2889C323.239 93.2497 324.789 93.221 325.536 93.0711C326.791 94.1206 326.916 94.135 326.994 95.8659C330.002 96.1362 331.52 95.9817 333.559 98.4401C336.802 102.351 337.176 109.012 336.701 113.822C336.156 119.367 333.947 126.1 329.522 129.796C327.714 131.308 326.777 131.293 324.558 131.67L324.563 124.462C324.591 121.319 324.554 111.288 323.331 108.816C320.826 120.639 319.415 127.991 310.389 136.895C302.673 131.138 296.972 129.885 287.688 128.826C287.02 128.819 285.23 128.737 284.807 129.181C281.108 133.165 274.781 134.852 270.154 131.478C267.503 129.544 268.305 128.98 264.948 128.841C265.872 128.701 266.464 128.559 267.369 128.319C267.72 125.482 267.601 122.397 267.952 119.335C264.313 124.208 259.836 126.254 253.855 126.856C232.719 128.985 231.428 118.35 229.787 101.34C226.011 98.7465 225.508 98.5458 225.355 93.9666L226.777 93.0476C228.187 93.2579 228.609 93.3119 230.077 93.2552C241.23 93.3908 257.234 90.5744 267.829 95.0784C268.994 95.5739 270.681 97.3943 271.635 98.3714L271.842 98.5836C274.436 98.5629 277.933 98.6201 280.443 98.4249Z" fill="#841D13"/>
<path d="M322.566 101.168C325.412 99.2976 325.763 99.0125 326.994 95.8652C330.002 96.1356 331.52 95.981 333.559 98.4395C336.803 102.351 337.176 109.011 336.701 113.822C336.157 119.367 333.947 126.099 329.523 129.795C327.714 131.307 326.778 131.292 324.559 131.669L324.563 124.461C324.591 121.318 324.554 111.288 323.332 108.815C320.826 120.638 319.415 127.99 310.39 136.895C302.673 131.137 296.973 129.885 287.688 128.825C286.562 128.635 285.183 128.752 284.207 128.255C284.259 125.283 284.389 124.347 283.874 121.288C283.577 119.525 282.731 116.575 282.805 115.048C285.644 121.506 290.559 125.673 297.553 126.533C321.274 129.447 319.904 117.935 322.566 101.168Z" fill="#FEBC8A"/>
<path d="M323.332 108.815C324.199 106.769 324.877 104.575 327.129 103.723C329.952 102.655 331.138 106.115 331.387 108.225C331.959 113.117 330.127 118.043 327.23 121.923C326.22 123.287 325.168 123.775 324.564 124.461C324.591 121.318 324.555 111.288 323.332 108.815Z" fill="#F59C5F"/>
<path d="M267.949 119.335C268.256 118.387 269.355 116.493 269.801 115.151C270.951 111.688 271.661 108.383 272.441 104.842C273.695 103.392 276.749 102.559 278.292 103.595C281.175 105.532 281.665 111.585 282.803 115.048C282.728 116.575 283.575 119.525 283.872 121.289C284.386 124.347 284.256 125.284 284.204 128.256C285.18 128.752 286.559 128.636 287.685 128.826C287.018 128.819 285.227 128.736 284.805 129.181C281.106 133.165 274.779 134.852 270.152 131.478C267.5 129.544 268.303 128.98 264.945 128.841C265.87 128.7 266.462 128.559 267.366 128.319C267.717 125.482 267.598 122.397 267.949 119.335Z" fill="#F59C5F"/>
<path d="M240.325 95.7793C246.891 95.2174 255.025 95.5805 261.582 96.2217C269.949 97.0397 270.103 103.442 268.503 110.098C267.231 115.39 265.301 119.062 260.557 122.004C254.872 124.39 245.499 125.301 239.497 121.922C233.592 118.598 231.635 104.237 234.251 98.3273C235.023 96.583 238.448 96.0829 240.325 95.7793Z" fill="#FEBC8A"/>
<path d="M253.2 101.282C261.883 101.051 262.113 111.805 255.441 115.609C248.514 116.187 245.999 105.042 253.2 101.282Z" fill="#0D0D0C"/>
<path d="M255.274 103.496C255.955 103.303 256.687 103.497 257.184 104.001C257.681 104.505 257.863 105.24 257.66 105.918C257.457 106.596 256.9 107.11 256.208 107.258C255.185 107.477 254.173 106.845 253.921 105.829C253.669 104.813 254.268 103.781 255.274 103.496Z" fill="white"/>
<path d="M293.61 95.8149C298.44 95.2327 311.958 95.1621 316.237 97.0425C321.362 99.2938 318.751 114.452 316.361 118.286C314.311 121.578 312.947 122.285 309.232 123.246L309.033 123.29C295.473 126.16 284.69 120.655 283.516 105.983C282.804 97.0859 285.799 96.8234 293.61 95.8149Z" fill="#FEBC8A"/>
<path d="M227.944 131.529C216.204 129.281 213.591 111.177 216.78 101.774C218.338 97.1767 220.572 96.7149 224.883 95.7004C225.24 95.616 225.297 94.3372 225.354 93.9658C225.507 98.545 226.01 98.7457 229.786 101.339C231.427 118.35 232.718 128.984 253.854 126.855C259.835 126.253 264.311 124.207 267.951 119.334C267.6 122.397 267.719 125.481 267.368 128.319C266.463 128.559 265.871 128.7 264.947 128.841C256.3 129.467 248.879 131.369 241.996 136.937C231.994 128.691 231.767 118.967 228.991 108.4C228.064 112.821 227.746 120.029 227.712 124.609C227.788 126.55 228.011 129.677 227.944 131.529Z" fill="#FEBC8A"/>
<path d="M227.711 124.609C214.3 112.587 223.895 94.9739 228.99 108.4C228.063 112.821 227.746 120.029 227.711 124.609Z" fill="#F59C5F"/>
<path d="M254.373 146.43C262.866 146.793 269.467 147.878 278.025 145.753C280.224 145.207 281.648 144.855 283.854 144.111C286.859 143.095 292.802 139.734 295.575 139.844C298.679 141.936 295.236 147.743 293.736 150.082C290.479 154.002 287.727 156.081 282.503 158.222C273.465 161.925 258.518 159.902 254.1 149.993C253.448 148.532 253.694 147.797 254.373 146.43Z" fill="white"/>
<path d="M226.832 93.0457L230.753 93.2764C231.244 91.1456 235.857 71.2341 240.902 62.5976C245.142 64.952 249.385 65.7692 254.222 66.1484C259.483 66.8268 264.795 67.0351 270.094 66.7707C281.031 66.1986 291.814 63.947 302.064 60.0952C304.388 59.2278 312.456 55.5318 312.683 56.3238C293.725 51.5255 321.846 76.9205 321.175 93.2764H325.557C329.884 75.1359 327.383 75.4638 326.665 69.5615C326.206 63.9575 324.32 58.5635 321.186 53.8912C325.456 51.7227 331.616 46.8198 331.314 41.3701C331.314 41.2004 331.314 41.257 331.314 41.3701C331.144 39.5976 328.045 41.917 327.251 42.3318C327.553 41.3136 328.158 38.2964 326.193 39.013C326.193 38.4661 326.325 36.9764 325.607 36.7313C324.889 36.4861 323.85 37.561 323.378 37.9004C322.473 38.5666 321.512 39.1534 320.506 39.6541C319.485 39.1639 318.446 38.6547 317.407 38.221C315.328 37.3536 313.231 36.5427 311.096 35.8261C308.921 34.95 306.844 33.8504 304.898 32.545C296.414 27.4724 287.231 22.9467 277.217 22.1547C266.935 21.3061 256.67 23.9655 248.1 29.6976C244.296 32.2018 241.001 35.4007 238.388 39.1261C237.027 41.1439 232.719 48.9507 237.443 49.7427C222.346 60.5667 226.491 91.0658 226.832 93.0457Z" fill="#663B13"/>
<path d="M291.65 112.259C291.65 112.259 293.424 106.043 299.457 106.008C300.975 105.84 302.498 106.271 303.704 107.21C304.911 108.149 305.705 109.522 305.921 111.04C305.921 111.04 300.748 104.855 291.65 112.259Z" fill="black"/>
<mask id="mask0_1305_52388" style="mask-type:alpha" maskUnits="userSpaceOnUse" x="192" y="169" width="177" height="228">
<path d="M193.153 331.095C193.768 339.399 196.567 358.96 197.305 361.543L200.535 379.997C210.838 383.534 234.489 391.438 246.668 394.759C261.892 398.911 305.258 394.759 324.634 394.759C344.01 394.759 331.093 370.77 341.242 369.386C351.392 368.002 360.618 320.946 360.618 308.951C360.618 296.956 371.69 244.825 367.538 233.753C363.386 222.681 328.786 187.158 324.634 183.929C321.312 181.345 294.647 173.318 275.271 169.627C260.355 174.241 233.659 172.211 231.444 175.163C229.23 178.116 214.99 201.152 207.455 212.532L200.969 230.044C197.62 239.086 195.532 248.546 194.765 258.158L192 292.804L193.153 331.095Z" fill="#D9D9D9"/>
</mask>
<g mask="url(#mask0_1305_52388)">
<path d="M96.4483 170.587C98.1313 172.004 99.8359 173.394 101.563 174.756C103.085 175.696 105.138 177.066 106.755 177.686C122.62 183.821 133.525 184.888 149.532 177.866C149.677 177.803 149.821 177.738 149.964 177.673C151.52 176.873 153.249 175.793 154.774 174.892C157.202 173.428 158.305 172.538 160.396 170.632L160.6 170.7C166.449 172.607 173.651 173.088 177.104 179.532C178.167 181.516 178.308 184.084 178.981 185.775C181.184 191.309 183.256 191.733 182.44 197.833C194.167 202.645 198.933 208.293 204.875 219.2C212.182 203.194 221.503 196.9 237.479 190.932L238.564 190.529L240.239 189.919C242.953 188.687 250.245 187.1 253.425 186.347L253.497 183.192C253.465 181.322 253.618 179.189 253.708 177.3C269.973 184.857 282.168 184.044 298.385 176.903L298.006 180.558C298.052 182.794 298.046 184.374 297.873 186.599C300.708 187.175 309.985 189.977 312.012 190.062L313.412 190.819C327.687 195.989 339.434 202.345 346.262 216.839C348.044 220.659 349.376 224.675 350.23 228.804C353.901 245.954 356.472 287.475 351.179 304.437C349.709 309.147 346.429 313.109 341.969 315.319C338.571 317.003 333.996 316.615 332.823 317.48C332.71 318.808 332.675 319.777 332.665 321.098L332.723 322.435C332.858 332.453 335.382 347.256 328.866 354.956C329.092 372.319 332.216 372.739 314.44 374.727C292.286 377.336 269.927 377.725 247.696 375.887C240.44 375.302 233.205 374.479 226.003 373.422L224.287 373.269C221.391 374.097 204.95 374.061 202.455 372.427C200.979 370.223 201.411 366.59 201.449 363.863C201.453 363.052 201.415 362.331 201.371 361.521C200.803 360.534 199.274 360.055 198.2 359.397C197.118 358.59 196.752 357.114 196.394 355.885C196.449 355.85 187.339 369.751 186.596 370.845C182.683 371.72 178.83 372.906 174.883 373.622C162.972 375.781 150.242 376.489 138.147 376.872C127.845 377.199 80.9751 377.031 74.9487 371.215C73.429 369.749 74.0412 356.776 73.9794 354.109C69.7808 348.076 70.3118 342.999 70.3362 336.005C70.3551 330.539 70.3787 325.04 70.4086 319.57C54.4268 319.922 43.0601 316.282 41.4921 297.743C40.8022 289.585 41.5655 280.808 42.16 272.623C43.407 255.456 44.114 237.349 50.6516 221.23C55.6245 209.231 63.1966 202.611 74.9842 197.889C74.7987 196.896 74.3429 193.934 74.7415 192.998C81.2888 177.626 78.9849 174.75 96.4483 170.587Z" fill="#D4B57A"/>
<path d="M267.575 279.271C269.433 279.03 271.298 278.859 273.164 279.208C274.06 279.375 274.9 279.694 275.623 280.263C276.236 280.746 276.615 281.369 276.555 282.179C276.524 282.604 276.37 282.98 275.893 283.093C275.436 283.197 275.164 282.961 274.952 282.588C274.287 281.419 273.119 281.218 271.946 281.133C270.155 281.001 268.391 281.311 266.633 281.61C261.984 282.401 257.533 283.9 253.076 285.391C251.065 286.063 249.043 286.69 246.916 286.888C246.6 286.918 246.284 286.934 245.968 286.956C245.003 286.937 244.061 286.81 243.201 286.344C242.808 286.132 242.465 285.85 242.251 285.446C242.039 285.051 242.069 284.653 242.357 284.307C242.605 284.01 242.938 283.905 243.312 284.054C244.996 284.721 246.716 284.565 248.425 284.225C251.395 283.634 254.225 282.558 257.112 281.69C260.547 280.658 264.009 279.735 267.575 279.271ZM249.463 249.906C250.957 249.829 252.358 250.035 253.419 251.24C254.183 252.108 254.46 253.159 254.422 254.282C254.342 256.641 253.595 258.741 251.875 260.424C251.493 260.797 251.054 261.097 250.507 261.182C249.894 261.278 249.452 261.058 249.24 260.562C249.031 260.076 249.142 259.642 249.642 259.263C250.567 258.565 251.127 257.632 251.474 256.551C251.946 255.401 252.15 254.228 251.749 253.012C251.689 252.831 251.617 252.649 251.469 252.512C251.213 251.987 250.746 251.815 250.213 251.773C249.389 251.71 248.644 251.982 247.951 252.394C245.957 253.582 244.418 255.252 243.088 257.116C240.566 260.649 238.728 264.49 237.964 268.792C237.714 270.2 237.786 271.609 238.239 272.974C239.132 275.659 241.412 276.795 244.11 275.936C245.794 275.4 247.209 274.415 248.525 273.281C250.009 272.002 251.394 270.618 252.686 269.141C253.037 268.737 253.318 268.295 253.505 267.793C253.953 266.588 254.411 265.385 254.867 264.183C255.334 263.156 255.796 262.129 256.269 261.105C257.318 258.827 258.519 256.633 259.942 254.565C260.517 253.731 261.173 252.965 262.027 252.41C262.654 252.004 263.333 251.697 264.118 251.848C264.835 251.985 265.226 252.389 265.377 253.1C265.528 253.822 265.346 254.499 265.121 255.172C264.574 256.792 263.704 258.241 262.745 259.642C260.704 262.618 258.439 265.412 255.752 267.828C254.884 268.611 254.579 269.572 254.181 270.643C254.499 270.574 254.59 270.374 254.719 270.226C256.073 268.674 257.288 266.997 258.835 265.613C259.629 264.902 260.486 264.339 261.615 264.396C262.536 264.833 262.789 265.333 262.654 266.45C262.52 267.548 262.085 268.556 261.687 269.572C261.28 270.604 260.876 271.64 260.656 272.732C260.604 272.99 260.525 273.27 260.791 273.462C261.055 273.651 261.302 273.503 261.533 273.377C262.363 272.924 262.918 272.191 263.476 271.464C264.423 270.231 265.206 268.894 265.932 267.521C266.187 267.038 266.468 266.572 266.737 266.097C267.317 265.435 267.787 264.677 268.446 264.081C269.136 263.461 269.867 262.917 270.771 262.65C271.993 262.288 272.988 262.758 273.493 263.919C273.554 264.059 273.543 264.281 273.735 264.292C273.925 264.303 273.95 264.087 274.019 263.952C274.159 263.683 274.331 263.441 274.57 263.252C274.84 263.038 275.145 262.972 275.464 263.12C275.799 263.279 275.878 263.59 275.864 263.922C275.848 264.314 275.703 264.677 275.552 265.036C274.884 266.615 274.065 268.123 273.345 269.674C273.04 270.333 272.79 271.013 272.763 271.749C272.752 271.993 272.768 272.249 272.831 272.482C272.979 273.034 273.331 273.147 273.776 272.801C274.128 272.529 274.381 272.158 274.637 271.801C275.763 270.22 276.887 268.633 277.838 266.939C278.459 265.833 278.989 264.677 279.027 263.359C279.041 262.857 279.197 262.379 279.593 262.027C279.975 261.692 280.417 261.605 280.865 261.857C281.299 262.102 281.36 262.517 281.261 262.967C281.25 263.016 281.239 263.068 281.226 263.12C280.978 264.023 281 264.075 281.929 264.325C282.404 264.451 282.888 264.539 283.316 264.816C283.965 265.236 284.223 265.825 284.144 266.577C284.086 267.112 283.898 267.603 283.659 268.081C283.187 269.028 282.708 269.973 282.244 270.926C281.986 271.453 281.818 272.016 281.774 272.601C281.722 273.306 282.146 273.591 282.78 273.272C283.376 272.973 283.81 272.476 284.25 271.993C284.975 271.197 285.63 270.341 286.245 269.457C286.74 268.746 286.778 267.892 286.965 267.093C287.693 263.966 288.79 260.973 290.186 258.088C290.293 257.868 290.369 257.632 290.46 257.404C291.292 255.974 292.012 254.472 292.977 253.118C293.666 252.152 294.398 251.224 295.488 250.667C295.722 250.549 295.966 250.439 296.219 250.367C297.859 249.9 298.939 250.824 298.788 252.534C298.662 253.948 298.156 255.249 297.579 256.518C295.689 260.682 293.249 264.476 289.883 267.625C289.652 267.842 289.402 268.04 289.166 268.251C287.979 269.313 287.599 271.532 288.363 272.946C288.726 273.616 289.333 273.862 290.174 273.648C291.017 273.434 291.716 272.952 292.334 272.361C294.202 270.58 295.623 268.454 296.955 266.264C297.433 265.481 297.86 264.666 298.318 263.872C298.502 263.554 298.689 263.23 299.032 263.041C299.318 262.882 299.609 262.857 299.887 263.032C300.159 263.202 300.216 263.486 300.167 263.779C300.049 264.507 299.695 265.144 299.359 265.783C298.455 267.499 297.489 269.185 296.859 271.032C296.678 271.57 296.524 272.114 296.579 272.69C296.629 273.22 296.972 273.432 297.467 273.224C297.626 273.158 297.785 273.061 297.914 272.946C299.005 271.977 299.874 270.827 300.632 269.589C301.102 269.056 301.483 268.468 301.764 267.82C302.376 266.401 303.233 265.146 304.247 263.987C304.678 263.496 305.22 263.128 305.718 262.711C306.383 262.428 307.039 262.129 307.792 262.153C309.086 262.195 309.93 263.038 309.96 264.336C309.987 265.566 309.545 266.64 308.734 267.521C307.352 269.026 305.687 269.981 303.55 269.775C303.096 269.731 302.912 269.874 302.844 270.311C302.764 270.818 302.695 271.324 302.733 271.837C302.813 272.916 303.47 273.55 304.547 273.589C305.618 273.627 306.547 273.21 307.421 272.652C308.468 271.985 309.399 271.178 310.204 270.229C310.487 269.894 310.773 269.55 311.144 269.303C311.407 269.127 311.71 269.053 311.982 269.272C312.238 269.484 312.21 269.778 312.092 270.058C312.009 270.252 311.919 270.45 311.784 270.609C310.314 272.347 308.663 273.871 306.58 274.862C305.555 275.351 304.489 275.461 303.382 275.184C302.907 275.063 302.522 274.786 302.118 274.536C301.503 273.803 301.085 272.981 301.024 272.007C301.019 271.919 301.016 271.812 300.912 271.79C300.789 271.763 300.731 271.87 300.662 271.949C300.203 272.487 299.755 273.032 299.288 273.562C298.783 274.135 298.192 274.607 297.48 274.912C296.406 275.371 295.345 274.87 295.007 273.753C294.815 273.114 294.911 272.466 294.979 271.829C294.719 271.763 294.661 271.953 294.567 272.06C293.721 273.037 292.801 273.934 291.699 274.626C291.021 275.052 290.309 275.397 289.484 275.425C288.21 275.466 287.278 274.854 286.813 273.668C286.624 273.185 286.528 272.688 286.479 272.175C286.468 272.046 286.495 271.859 286.316 271.823C286.179 271.796 286.105 271.936 286.031 272.029C285.523 272.663 284.954 273.242 284.357 273.794C283.742 274.362 283.053 274.824 282.229 275.032C280.973 275.351 280.105 274.678 280.033 273.391C279.976 272.334 280.305 271.373 280.7 270.423C281.093 269.478 281.525 268.55 281.898 267.598C282.255 266.692 282.094 266.376 281.179 266.024C280.127 265.618 280.145 265.627 279.676 266.65C278.47 269.283 276.967 271.722 274.873 273.756C274.557 274.063 274.216 274.344 273.82 274.55C272.562 275.2 271.359 274.585 271.161 273.183C271.106 272.787 271.084 272.389 271.034 271.873C270.751 272.219 270.543 272.493 270.317 272.751C269.548 273.635 268.726 274.451 267.688 275.024C266.039 275.936 264.366 275.178 264.13 273.399C264.116 273.284 264.127 273.127 263.981 273.089C263.836 273.05 263.769 273.198 263.695 273.286C263.204 273.868 262.654 274.39 262.033 274.832C261.742 275.038 261.432 275.205 261.094 275.312C260.201 275.593 259.321 275.132 259.035 274.239C258.821 273.575 258.901 272.913 259.055 272.254C259.346 270.994 259.83 269.8 260.256 268.584C260.454 268.019 260.621 267.442 260.791 266.868C260.829 266.739 260.904 266.582 260.777 266.47C260.632 266.341 260.472 266.442 260.335 266.511C259.59 266.879 259.036 267.489 258.47 268.06C256.362 270.182 254.524 272.526 252.905 275.041C252.762 275.261 252.625 275.491 252.455 275.691C252.191 276.002 251.842 276.122 251.455 275.963C251.04 275.795 250.941 275.42 251.034 275.038C251.185 274.423 251.403 273.825 251.59 273.218C251.637 273.07 251.721 272.927 251.666 272.732C251.427 272.744 251.323 272.946 251.188 273.083C249.845 274.442 248.455 275.744 246.845 276.784C245.551 277.622 244.146 278.195 242.594 278.27C238.879 278.448 236.093 276.244 235.367 272.587C234.845 269.965 235.263 267.419 236.068 264.924C237.329 261.017 239.242 257.465 241.973 254.362C243.193 252.976 244.605 251.812 246.177 250.84C247.224 250.357 248.295 249.967 249.463 249.906ZM272.507 265.772C272.49 264.595 271.787 264.144 270.804 264.6C270.383 264.795 270.018 265.07 269.686 265.394C268.444 266.604 267.525 268.042 266.772 269.591C266.347 270.467 266.018 271.381 265.913 272.358C265.872 272.765 265.85 273.212 266.215 273.479C266.588 273.75 266.992 273.575 267.36 273.38C267.959 273.059 268.48 272.633 268.922 272.125C269.958 270.936 270.817 269.621 271.595 268.254C272.051 267.452 272.405 266.61 272.507 265.772ZM308.045 265.138C308.048 264.254 307.597 263.93 306.836 264.186C306.564 264.279 306.316 264.419 306.107 264.608C305.086 265.533 304.366 266.675 303.742 267.889C303.533 268.295 303.838 268.293 304.097 268.287C305.094 268.254 305.998 267.952 306.786 267.332C307.528 266.75 308.006 266.024 308.045 265.138ZM296.818 252.372C296.582 252.246 296.376 252.383 296.181 252.509C295.565 252.91 295.089 253.456 294.655 254.038C292.303 257.184 290.729 260.724 289.38 264.378C289.124 265.075 288.938 265.791 288.798 266.521C288.776 266.623 288.74 266.747 288.845 266.808C288.952 266.876 289.043 266.774 289.125 266.717C289.559 266.407 289.927 266.025 290.271 265.621C292.716 262.747 294.556 259.499 296.067 256.059C296.499 255.076 296.887 254.068 297.035 253.017C297.011 252.764 297.065 252.504 296.818 252.372ZM263.418 254.068C263.152 253.901 262.902 254.06 262.688 254.217C262.215 254.563 261.811 254.985 261.473 255.46C259.777 257.857 258.387 260.424 257.17 263.09C256.837 263.82 256.494 264.548 256.244 265.388C256.39 265.352 256.431 265.352 256.453 265.333C256.56 265.242 256.668 265.149 256.764 265.048C258.747 262.959 260.508 260.693 262.027 258.247C262.69 257.182 263.215 256.042 263.572 254.837C263.652 254.568 263.712 254.255 263.418 254.068ZM300.561 258.05C301.313 257.638 302.118 257.99 302.332 258.824C302.527 259.59 302.296 260.254 301.741 260.792C301.362 261.16 300.884 261.331 300.373 261.078C299.802 260.79 299.612 260.273 299.634 259.658C299.664 258.964 299.931 258.393 300.561 258.05Z" fill="white"/>
</g>
<path d="M253.508 278.344C252.368 276.785 250.465 274.026 251.541 272.055C255.078 265.585 265.022 269.178 270.787 267.789C271.407 267.639 271.554 267.499 272.348 267.396L272.6 267.365C272.387 264.502 270.381 261.224 270.045 257.622C269.467 251.429 270.378 245.153 277.666 243.986C278.262 243.891 279.734 244.392 279.937 244.996C281.215 248.782 279.79 253.646 280.96 257.66C282.443 262.304 288.993 274.081 292.074 277.148L292.351 277.421C296.222 283.578 294.998 288.98 293.735 295.852C293.344 297.975 291.483 303.599 290.489 305.387C288.925 305.973 287.271 306.626 285.702 307.168C284.452 307.436 283.198 307.683 281.94 307.91C276.658 308.831 260.168 309.574 255.71 306.189C251.743 303.178 255.702 301.625 255.747 299.608C255.751 299.463 251.611 296.392 251.72 294.333C251.834 292.185 252.406 291.739 253.844 290.136L253.707 288.338C249.402 285.794 250.001 282.059 254.226 279.932L253.508 278.344Z" fill="#FEBC8A"/>
<path d="M253.707 288.338C255.149 288.34 256.696 288.159 257.842 288.97L257.922 289.482C256.845 290.241 256.517 290.113 255.205 290.121L253.844 290.136L253.707 288.338Z" fill="#F59C5F"/>
<path d="M253.508 278.345C255.054 278.265 256.469 278.023 257.817 278.732L257.973 279.217C256.924 280.064 255.66 279.891 254.226 279.932L253.508 278.345Z" fill="#F59C5F"/>
<path d="M253.707 177.3C269.973 184.857 282.168 184.044 298.385 176.903L298.006 180.558C298.051 182.794 298.045 184.375 297.872 186.599C300.707 187.175 309.984 189.977 312.012 190.062C310.7 193.642 309.646 197.699 307.01 200.55C293.993 214.633 270.417 217.421 253.848 208.291C246.069 204.004 240.878 198.973 240.238 189.919C242.952 188.687 250.244 187.1 253.424 186.347L253.497 183.192C253.464 181.322 253.617 179.189 253.707 177.3Z" fill="#D4B57A"/>
<path d="M253.704 177.3C269.97 184.857 282.165 184.044 298.382 176.903L298.003 180.558C298.048 182.794 298.042 184.375 297.869 186.599C297.72 188.735 297.629 193.474 296.592 195.034C283.484 202.49 268.035 202.924 254.852 195.427C252.658 193.173 253.277 189.29 253.422 186.347L253.494 183.192C253.462 181.322 253.614 179.189 253.704 177.3Z" fill="#FEBC8A"/>
<path d="M253.707 177.3C269.973 184.857 282.168 184.044 298.385 176.903L298.006 180.558C297.92 181.223 297.711 183.651 297.285 183.936C286.738 190.981 263.468 191.483 253.497 183.192C253.464 181.322 253.617 179.189 253.707 177.3Z" fill="#F59C5F"/>
<path d="M296.591 195.034C287.602 207.24 274.588 212.21 261.552 202.462C258.922 200.53 256.654 198.148 254.852 195.427C268.035 202.924 283.484 202.49 296.591 195.034Z" fill="white"/>
<path d="M223.35 359.909C223.806 354.679 223.337 350.047 223.426 344.863L224.518 241.367C224.545 239.917 224.514 237.736 225.173 236.521L225.764 236.208C228.163 237.446 227.542 244.68 227.561 247.283C227.59 251.129 227.504 255.041 227.489 258.893C227.597 278.841 227.532 298.79 227.293 318.737C227.229 324.876 227.104 331.014 226.919 337.15C226.743 341.874 226.407 347.003 226.649 351.692C226.912 356.795 237.446 357.578 241.473 358.05C266.297 360.957 291.919 360.515 316.697 357.399C319.275 357.071 321.842 356.823 324.364 356.285C325.884 355.961 327.008 354.917 328.252 355.059L328.272 356.135C322.423 361.997 282.941 362.817 273.714 362.812C259.751 362.804 239.99 361.538 226.58 358.225C226.564 363.405 226.615 368.254 226.002 373.422L224.286 373.27C221.391 374.097 204.949 374.062 202.454 372.427C200.978 370.223 201.41 366.59 201.448 363.863C201.452 363.052 201.414 362.331 201.37 361.521C200.802 360.534 199.273 360.056 198.199 359.397C203.591 360.631 217.848 360.312 223.35 359.909Z" fill="#C8A663"/>
<path d="M323.307 277.184C323.463 273.165 324.547 237.635 325.042 236.46L325.86 235.881C326.394 236.04 326.461 235.938 326.76 236.47C328.901 240.29 326.5 271.292 326.046 277.507C328.489 277.975 334.752 278.614 335.86 280.171L335.753 280.945C333.712 282.342 326.315 279.924 323.717 279.794C314.565 279.332 304.863 276.81 295.851 276.175C298.752 285.243 296.002 300.375 291.803 308.694C304.148 313.28 319.082 316.15 332.275 316.834C332.394 318.17 332.492 319.793 332.663 321.098L332.722 322.435C322.101 321.998 295.345 316.37 286.877 310.24L285.703 307.168C287.273 306.626 288.926 305.974 290.49 305.387C291.485 303.599 293.346 297.975 293.736 295.852C295 288.98 296.223 283.578 292.352 277.421C292.626 276.326 292.793 275.001 293.548 274.266C297.24 273.369 317.751 276.669 323.307 277.184Z" fill="#C8A663"/>
<path d="M238.562 190.528L240.238 189.919C240.877 198.973 246.068 204.004 253.847 208.29C270.416 217.42 293.992 214.632 307.01 200.55C309.646 197.698 310.699 193.641 312.011 190.062L313.411 190.819C313.1 195.343 311.076 200.47 307.771 203.676C291.364 219.585 261.833 220.303 244.693 205.131C240.083 201.051 238.684 196.375 238.562 190.528Z" fill="#C8A663"/>
<path d="M300.716 176.243L304.557 173.779L304.819 173.898C311.571 176.894 320.103 177.863 322.848 186.007C324.343 190.428 324.426 191.532 324.066 195.981C316.611 207.384 293.741 211.91 281.347 214.524C279.766 214.858 277.285 215.775 275.844 215.213C277.008 214.705 282.199 208.481 283.868 206.941C287.912 203.208 292.11 199.78 295.958 195.863C296.359 195.554 296.755 195.24 297.147 194.92C298.288 191.05 298.001 187.311 297.98 183.271C297.959 181.589 297.772 179.658 297.647 177.958L300.716 176.243Z" fill="#D4B57A"/>
<path d="M250.819 176.243L246.978 173.779L246.716 173.898C239.965 176.894 231.432 177.863 228.687 186.007C227.192 190.428 227.109 191.532 227.469 195.981C234.924 207.384 257.794 211.91 270.188 214.524C271.769 214.858 274.251 215.775 275.691 215.213C274.527 214.705 269.336 208.481 267.667 206.941C263.623 203.208 259.425 199.78 255.578 195.863C255.176 195.554 254.78 195.24 254.388 194.92C253.247 191.05 253.534 187.311 253.555 183.271C253.576 181.589 253.763 179.658 253.888 177.958L250.819 176.243Z" fill="#D4B57A"/>
<path d="M297.648 177.958L300.717 176.244C305.452 178.72 309.989 181.262 306.462 187.216C305.034 189.627 299.712 194.24 297.148 194.92C298.289 191.051 298.002 187.311 297.981 183.271C297.96 181.59 297.774 179.658 297.648 177.958Z" fill="#C8A663"/>
<path d="M253.891 177.958L250.822 176.244C246.087 178.72 241.55 181.262 245.077 187.216C246.505 189.627 251.827 194.24 254.391 194.92C253.25 191.051 253.537 187.311 253.558 183.271C253.579 181.59 253.766 179.658 253.891 177.958Z" fill="#C8A663"/>
<path d="M322.221 195.98L323.979 196.636C320.625 205.917 298.522 214.067 289.196 214.487C287.684 214.311 287.285 214.365 285.834 214.531C285.582 215.018 285.462 215.142 285.135 215.592C281.512 216.814 268.68 216.656 264.486 216.002C262.924 215.758 262.812 215.602 262.173 214.548C260.792 214.273 260.137 214.413 258.769 214.573L258.387 214.568C252.211 214.438 222.852 204.562 226.097 196.588C228.227 198.296 229.549 200.037 231.937 201.641C241.845 208.294 253.74 211.952 265.423 213.914C267.804 214.314 271.05 215.718 272.722 215.727L273.74 215.129L273.999 215.213C275.44 215.775 277.921 214.857 279.503 214.524C291.896 211.91 314.766 207.384 322.221 195.98Z" fill="#C8A663"/>
<path d="M255.895 196.439C257.092 196.976 258.3 197.49 259.519 197.98C273.012 203.311 284.403 200.557 296.953 195.462C292.983 199.385 288.651 202.817 284.479 206.555C282.757 208.098 277.4 214.33 276.199 214.839L275.932 214.754C270.873 208.59 261.82 202.252 255.895 196.439Z" fill="white"/>
</g>
<defs>
<clipPath id="clip0_1305_52388">
<rect width="384" height="344" fill="white"/>
</clipPath>
</defs>
</svg>
