<svg width="180" height="104" viewBox="0 0 180 104" fill="none" xmlns="http://www.w3.org/2000/svg">
<path d="M154.518 95.776H179.774C174.385 90.5663 168.591 82.9627 162.891 74.4007C157.61 66.4687 152.41 57.715 147.687 49.281C142.008 39.1387 137.019 29.4595 133.409 22.2301C133.436 22.2844 133.464 22.339 133.491 22.3935C133.435 22.2814 133.379 22.1697 133.324 22.0591C133.271 21.9532 133.219 21.8482 133.166 21.7433C133.156 21.7222 133.145 21.7013 133.135 21.6804C133.026 21.4632 132.92 21.248 132.814 21.0353C132.809 21.026 132.805 21.0167 132.8 21.0077C132.774 20.9549 132.748 20.9025 132.723 20.8503C132.719 20.8449 132.718 20.8403 132.715 20.8349C130.148 15.6639 128.381 11.9418 127.705 10.5066C127.705 10.5051 127.704 10.5037 127.703 10.5023C127.625 10.3363 127.562 10.2013 127.514 10.0985C127.505 10.0784 127.496 10.0594 127.487 10.0422C127.483 10.0328 127.479 10.0239 127.475 10.0152C127.473 10.0094 127.469 10.0041 127.467 9.99867C127.459 9.98138 127.452 9.96566 127.445 9.95123C127.437 9.93504 127.431 9.92143 127.426 9.90921C127.423 9.90525 127.422 9.90167 127.42 9.89771C127.414 9.88585 127.411 9.87619 127.407 9.86893C127.405 9.86498 127.404 9.86176 127.403 9.85928C127.402 9.85817 127.402 9.85716 127.401 9.85643C127.4 9.85532 127.4 9.85496 127.4 9.85496L126.319 9.8625C126.319 9.86213 126.319 9.86213 126.319 9.86176C126.32 9.8305 126.32 9.79923 126.321 9.76797C126.321 9.75436 126.321 9.74066 126.321 9.72705C126.322 9.68218 126.322 9.63695 126.322 9.59162C126.322 6.95998 125.384 4.57008 123.854 2.83024C122.326 1.09151 120.191 -0.000735183 117.829 3.98528e-07C115.549 -0.000735183 113.48 1.01685 111.965 2.65104C110.45 1.01685 108.382 -0.000735183 106.102 3.98528e-07C103.822 -0.000735183 101.754 1.01685 100.239 2.65104C98.7235 1.01685 96.6558 -0.000735183 94.3755 3.98528e-07C92.0958 -0.000735183 90.0277 1.01685 88.5123 2.65104C86.9967 1.01685 84.9289 -0.000735183 82.6489 3.98528e-07C80.3689 -0.000735183 78.3008 1.01685 76.7854 2.65104C75.2701 1.01685 73.2019 -0.000735183 70.9223 3.98528e-07C68.6423 -0.000735183 66.5738 1.01685 65.0588 2.65104C63.5438 1.01685 61.4754 -0.000735183 59.1957 3.98528e-07C56.9153 -0.000735183 54.8476 1.01685 53.3322 2.65104C51.8169 1.01685 49.7488 -0.000735183 47.4689 3.98528e-07C45.1892 -0.000735183 43.1208 1.01685 41.6057 2.65104C40.0901 1.01685 38.0223 -0.000735183 35.7423 3.98528e-07C33.3801 -0.000735183 31.2448 1.09151 29.7165 2.83024C28.1868 4.57008 27.2494 6.95998 27.249 9.59162C27.249 9.91886 27.2637 10.2421 27.2918 10.5607L26.4503 10.5664C26.4503 10.5664 19.0079 34.0376 12.7375 59.4924C9.30313 71.2415 5.10123 85.3954 0 102.255L4.69574 101.542C4.62715 102.239 4.56573 102.924 4.51148 103.596L26.2681 100.773L54.5398 103.563L54.6723 104L155.894 103.576C155.573 101.345 155.156 98.962 154.655 96.4579C154.611 96.2322 154.565 96.0049 154.518 95.776ZM28.199 10.5542C28.1685 10.2385 28.1527 9.91739 28.1527 9.59198C28.1527 7.17624 29.015 4.99607 30.3954 3.42754C31.7778 1.85863 33.6638 0.904398 35.7426 0.90403C37.7867 0.904398 39.644 1.8271 41.0196 3.34966C39.742 5.03166 38.9759 7.2133 38.9759 9.59208C38.9759 9.89091 38.9885 10.1865 39.0118 10.4785L28.199 10.5542ZM43.3315 9.71372C43.3311 9.73101 43.3311 9.74821 43.3308 9.76577C43.33 9.78875 43.3297 9.81174 43.3293 9.83473C43.3289 9.8545 43.3282 9.8739 43.3275 9.89367C43.3271 9.91481 43.326 9.93568 43.3257 9.95656C43.325 9.97706 43.3242 9.99711 43.3232 10.0172C43.3225 10.0374 43.3214 10.0568 43.3204 10.0768C43.3193 10.098 43.3185 10.1192 43.3175 10.1404C43.3164 10.1601 43.315 10.1799 43.3139 10.1997C43.3128 10.2198 43.3118 10.2396 43.3104 10.2596C43.3089 10.2822 43.3071 10.3049 43.3053 10.3271C43.3028 10.3663 43.2992 10.4051 43.2963 10.4435L43.2956 10.4478L39.918 10.4719C39.8925 10.1827 39.8795 9.88934 39.8795 9.59198C39.8792 7.49337 40.5303 5.57323 41.606 4.07696C42.6813 5.57323 43.3325 7.49337 43.3321 9.59198C43.3322 9.63253 43.3319 9.67317 43.3315 9.71372ZM44.2029 10.4418C44.2065 10.3983 44.2093 10.3549 44.2123 10.3114C44.2126 10.3038 44.2134 10.2963 44.2137 10.2888C44.2159 10.2514 44.2184 10.2144 44.2202 10.177C44.2205 10.1656 44.2213 10.1541 44.222 10.1426C44.2238 10.1088 44.2252 10.0751 44.2267 10.041C44.2271 10.0284 44.2278 10.0161 44.2282 10.004C44.2293 9.97026 44.2307 9.93715 44.2314 9.90378C44.2318 9.89081 44.2321 9.87794 44.2325 9.86498C44.2332 9.83234 44.234 9.79923 44.2343 9.76622C44.2347 9.75326 44.2351 9.74002 44.2351 9.72742C44.2358 9.68255 44.2362 9.63731 44.2362 9.59198C44.2358 7.21321 43.4697 5.03156 42.1922 3.34956C43.5682 1.827 45.4254 0.904308 47.4695 0.90394C49.5135 0.904308 51.3712 1.827 52.7467 3.34956C51.4692 5.03156 50.7031 7.21321 50.7031 9.59198C50.7031 9.86277 50.7131 10.1307 50.7325 10.3954L44.2029 10.4418ZM55.058 9.71372C55.058 9.73101 55.0576 9.74821 55.0569 9.76577C55.0569 9.78875 55.0565 9.81174 55.0558 9.83473C55.0554 9.8545 55.055 9.8739 55.054 9.89367C55.0537 9.91481 55.0529 9.93568 55.0522 9.95656C55.0515 9.97706 55.0507 9.99711 55.0497 10.0172C55.049 10.0374 55.0482 10.0568 55.0472 10.0768C55.0461 10.098 55.045 10.1192 55.044 10.1404C55.0429 10.1601 55.0415 10.1799 55.0404 10.1999C55.0393 10.2197 55.0383 10.2395 55.0368 10.2595C55.0354 10.2825 55.0336 10.3051 55.0318 10.3281C55.0311 10.3407 55.0299 10.3529 55.0293 10.3651L51.638 10.3892C51.6171 10.1267 51.6064 9.86084 51.6064 9.5918C51.606 7.49319 52.2568 5.57304 53.3325 4.07678C54.4082 5.57304 55.0587 7.49319 55.0587 9.5918C55.0587 9.63253 55.0587 9.67317 55.058 9.71372ZM55.9358 10.3588C55.9365 10.343 55.9376 10.3272 55.9387 10.3114C55.9394 10.3038 55.9398 10.2963 55.9401 10.2884C55.9423 10.2514 55.9448 10.214 55.9469 10.177C55.9473 10.1656 55.948 10.1541 55.9484 10.1426C55.9502 10.1088 55.9516 10.0751 55.9531 10.041C55.9538 10.0284 55.9538 10.0161 55.9546 10.004C55.956 9.97026 55.9567 9.93715 55.9578 9.90378C55.9582 9.89081 55.9585 9.87794 55.9589 9.86498C55.9596 9.83234 55.9604 9.79923 55.961 9.76622C55.961 9.75326 55.9614 9.74002 55.9617 9.72742C55.9621 9.68255 55.9625 9.63731 55.9625 9.59198C55.9621 7.21321 55.196 5.03156 53.9184 3.34956C55.2944 1.827 57.1516 0.904308 59.196 0.90394C61.24 0.904308 63.0977 1.827 64.4729 3.34956C63.1957 5.03156 62.4296 7.21321 62.4292 9.59198C62.4292 9.83445 62.4371 10.0751 62.4529 10.3129L55.9358 10.3588ZM66.7848 9.71372C66.7845 9.73101 66.7837 9.74821 66.7837 9.76577C66.7834 9.78875 66.7826 9.81174 66.7823 9.83473C66.7819 9.8545 66.7812 9.8739 66.7808 9.89367C66.7801 9.91481 66.7793 9.93568 66.7787 9.95656C66.778 9.97706 66.7769 9.99711 66.7766 10.0172C66.7755 10.0374 66.7747 10.0568 66.7734 10.0768C66.7722 10.098 66.7719 10.1192 66.7701 10.1404C66.7694 10.1601 66.7683 10.1799 66.7673 10.1999C66.7655 10.2197 66.7644 10.2395 66.7637 10.2595C66.763 10.2671 66.7626 10.2746 66.7616 10.2825L63.3581 10.3066C63.3411 10.0709 63.333 9.83252 63.3326 9.59189C63.3322 7.49328 63.9834 5.57314 65.0591 4.07687C66.1348 5.57314 66.7856 7.49328 66.7856 9.59189C66.7856 9.63253 66.7848 9.67317 66.7848 9.71372ZM67.6674 10.2762C67.6695 10.2435 67.6713 10.2101 67.6731 10.177C67.6739 10.1656 67.6743 10.1541 67.6749 10.1426C67.6767 10.1088 67.6785 10.0751 67.6796 10.041C67.68 10.0284 67.6807 10.0161 67.6811 10.004C67.6825 9.97026 67.6835 9.93715 67.6843 9.90378C67.6846 9.89081 67.6854 9.87794 67.6854 9.86498C67.6865 9.83234 67.6869 9.79923 67.6875 9.76622C67.6875 9.75326 67.6879 9.74002 67.6879 9.72742C67.6886 9.68255 67.689 9.63731 67.689 9.59198C67.6886 7.21321 66.9225 5.03156 65.6453 3.34956C67.0209 1.827 68.8781 0.904308 70.9226 0.90394C72.9665 0.904308 74.8242 1.827 76.1999 3.34956C74.9223 5.03156 74.1559 7.21321 74.1559 9.59198C74.1559 9.80641 74.1623 10.0194 74.1746 10.2302L67.6674 10.2762ZM78.5113 9.71372C78.5113 9.73101 78.5106 9.74821 78.5106 9.76577C78.5102 9.78875 78.5095 9.81174 78.5091 9.83473C78.5088 9.8545 78.508 9.8739 78.5077 9.89367C78.5066 9.91481 78.5062 9.93568 78.5055 9.95656C78.5048 9.97669 78.5037 9.99646 78.5031 10.0161C78.502 10.0377 78.5012 10.0593 78.5002 10.0808C78.4991 10.0998 78.4981 10.1188 78.4974 10.1375C78.4963 10.1587 78.4952 10.1792 78.4938 10.2L75.0791 10.2241C75.0658 10.0154 75.059 9.80457 75.059 9.59198C75.059 7.49337 75.7098 5.57323 76.7855 4.07696C77.8615 5.57323 78.5123 7.49337 78.512 9.59198C78.5121 9.63253 78.5117 9.67317 78.5113 9.71372ZM79.3989 10.1936C79.3993 10.1889 79.3996 10.1842 79.4 10.1796C79.4007 10.1656 79.4011 10.1512 79.4018 10.1372C79.4037 10.1063 79.4047 10.0754 79.4065 10.0446C79.4069 10.0298 79.4076 10.0148 79.408 9.99968C79.4091 9.96952 79.4101 9.93936 79.4112 9.90921C79.4116 9.89339 79.4116 9.87794 79.4123 9.86213C79.4131 9.83087 79.4138 9.7996 79.4144 9.76834C79.4144 9.75473 79.4148 9.74103 79.4148 9.72742C79.4156 9.68255 79.4159 9.63731 79.4159 9.59198C79.4156 7.21321 78.6494 5.03156 77.3722 3.34956C78.7475 1.827 80.6051 0.904308 82.6491 0.90394C84.6931 0.904308 86.5508 1.827 87.9267 3.34956C86.6488 5.03156 85.8828 7.21321 85.8828 9.59198C85.8828 9.77873 85.8874 9.96373 85.8967 10.1476L79.3989 10.1936ZM90.2379 9.71372C90.2375 9.73101 90.2375 9.74821 90.2372 9.76577C90.2364 9.78875 90.2364 9.81174 90.2357 9.83473C90.2353 9.8545 90.2346 9.8739 90.2339 9.89367C90.2335 9.91481 90.2328 9.93568 90.2318 9.95656C90.2314 9.97669 90.2307 9.99646 90.2296 10.0161C90.2289 10.0377 90.2278 10.0593 90.2268 10.0808C90.2261 10.093 90.2257 10.1049 90.225 10.1174L86.801 10.1415C86.791 9.95968 86.7859 9.77652 86.7859 9.59189C86.7856 7.49328 87.4367 5.57314 88.5124 4.07687C89.5878 5.57314 90.2389 7.49328 90.2386 9.59189C90.2386 9.63253 90.2386 9.67317 90.2379 9.71372ZM91.1301 10.1109C91.1312 10.0887 91.1316 10.0668 91.1326 10.0445C91.1333 10.0297 91.1337 10.0147 91.1344 9.99959C91.1359 9.96943 91.1365 9.93927 91.1373 9.90911C91.138 9.8933 91.1384 9.87785 91.1384 9.86204C91.1395 9.83077 91.1402 9.79951 91.1405 9.76825C91.1405 9.75464 91.1412 9.74094 91.1412 9.72733C91.1416 9.68246 91.1423 9.63722 91.1423 9.59189C91.1423 7.21311 90.3758 5.03147 89.0983 3.34947C90.4743 1.82691 92.3312 0.904216 94.3756 0.903848C96.42 0.904216 98.2773 1.82691 99.6529 3.34947C98.3753 5.03147 97.6096 7.21311 97.6092 9.59189C97.6092 9.75069 97.6128 9.90829 97.6196 10.0652L91.1301 10.1109ZM101.964 9.71372C101.964 9.73101 101.964 9.74821 101.963 9.76577C101.963 9.78875 101.963 9.81174 101.963 9.83473C101.962 9.8545 101.961 9.8739 101.961 9.89367C101.96 9.91481 101.959 9.93568 101.959 9.95656C101.958 9.97669 101.957 9.99646 101.956 10.0161C101.956 10.0222 101.956 10.0284 101.956 10.0344L98.5236 10.0585C98.516 9.90442 98.5124 9.74857 98.5124 9.59198C98.5124 7.49374 99.1632 5.57323 100.239 4.07696C101.314 5.57323 101.965 7.49374 101.965 9.59198C101.965 9.63253 101.965 9.67317 101.964 9.71372ZM102.86 10.028C102.861 10.0186 102.861 10.009 102.861 9.99959C102.862 9.96943 102.863 9.93927 102.864 9.90911C102.864 9.8933 102.865 9.87785 102.865 9.86204C102.866 9.83077 102.867 9.79951 102.867 9.76825C102.867 9.75464 102.868 9.74094 102.868 9.72733C102.868 9.68246 102.869 9.63722 102.869 9.59189C102.868 7.21311 102.103 5.03147 100.825 3.34947C102.2 1.82691 104.058 0.904216 106.102 0.903848C108.146 0.904216 110.004 1.82691 111.379 3.34947C110.102 5.03147 109.336 7.21311 109.336 9.59189C109.336 9.72264 109.338 9.85302 109.343 9.9823L102.86 10.028ZM113.691 9.71372C113.691 9.73101 113.691 9.74821 113.69 9.76577C113.69 9.78875 113.69 9.81174 113.689 9.83473C113.689 9.8545 113.688 9.8739 113.687 9.89367C113.687 9.91343 113.686 9.93247 113.685 9.95187L110.246 9.97596C110.242 9.84879 110.239 9.72099 110.239 9.59198C110.239 7.49374 110.89 5.57323 111.965 4.07696C113.041 5.57323 113.692 7.49374 113.692 9.59198C113.692 9.63253 113.691 9.67317 113.691 9.71372ZM125.418 9.71372C125.418 9.73101 125.417 9.74821 125.417 9.76577C125.417 9.78875 125.416 9.81174 125.416 9.83473C125.416 9.84622 125.415 9.85771 125.414 9.86884L114.589 9.94534C114.59 9.93348 114.591 9.92088 114.591 9.90902C114.591 9.8932 114.592 9.87776 114.592 9.86194C114.593 9.83068 114.593 9.79942 114.594 9.76816C114.594 9.75455 114.594 9.74085 114.594 9.72724C114.595 9.68237 114.595 9.63713 114.595 9.5918C114.595 7.21302 113.829 5.03138 112.552 3.34938C113.927 1.82682 115.785 0.904123 117.829 0.903755C119.908 0.904123 121.793 1.85845 123.176 3.42726C124.556 4.9958 125.419 7.17597 125.419 9.59171C125.419 9.63253 125.418 9.67317 125.418 9.71372Z" fill="#8B7B70"/>
<path d="M154.52 95.7759H179.776C174.386 90.5662 168.592 82.9626 162.893 74.4006C157.611 66.4686 152.412 57.7149 147.689 49.2809C142.01 39.1387 137.02 29.4594 133.411 22.23C133.472 22.3532 133.534 22.4764 133.596 22.601H30.087L26.4522 10.5667C26.4522 10.5667 22.2377 35.5319 12.7395 59.4926C9.30508 71.2417 5.10318 85.3956 0.00195312 102.255L4.6977 101.542C4.6291 102.24 4.56768 102.925 4.51343 103.597L26.2701 100.773L54.5417 103.563L54.6742 104L155.896 103.576C155.575 101.346 155.157 98.9622 154.657 96.4581C154.612 96.2321 154.566 96.0048 154.52 95.7759Z" fill="#FFEDCF"/>
<path d="M26.4525 10.5667C26.4525 10.5667 19.0101 34.0378 12.7397 59.4926C9.10818 74.2358 5.86953 89.6439 4.69794 101.542C4.62934 102.24 4.56792 102.925 4.51367 103.597L26.2703 100.773L54.542 103.563L26.4525 10.5667Z" fill="#4D6678"/>
<path d="M133.327 22.0591C133.274 21.9532 133.222 21.8483 133.169 21.7434C133.159 21.7222 133.148 21.7013 133.138 21.6805C133.029 21.4632 132.923 21.248 132.817 21.0354C132.813 21.026 132.808 21.0167 132.803 21.0077C132.777 20.9549 132.751 20.9025 132.726 20.8504C132.722 20.8449 132.721 20.8403 132.718 20.8349C130.151 15.664 128.384 11.9418 127.708 10.5066C127.708 10.5051 127.707 10.5038 127.706 10.5023C127.628 10.3363 127.565 10.2013 127.517 10.0986C127.508 10.0784 127.499 10.0594 127.49 10.0422C127.486 10.0328 127.482 10.0239 127.478 10.0152C127.476 10.0095 127.472 10.0041 127.47 9.9987C127.462 9.98141 127.455 9.96569 127.448 9.95125C127.441 9.93507 127.434 9.92146 127.429 9.90923C127.427 9.90528 127.425 9.90169 127.423 9.89774C127.417 9.88587 127.414 9.87622 127.41 9.86896C127.408 9.865 127.407 9.86178 127.406 9.8593C127.405 9.8582 127.405 9.85719 127.404 9.85645C127.403 9.85535 127.403 9.85498 127.403 9.85498L126.322 9.86252C126.282 11.4763 125.89 12.9927 125.226 14.3155C124.67 15.4236 123.923 16.3962 123.034 17.176C122.239 17.8731 121.326 18.4158 120.335 18.7602C120.172 18.5045 120.038 18.2298 119.93 17.9438C120.848 17.6425 121.694 17.1472 122.438 16.4964C123.337 15.7094 124.08 14.6944 124.6 13.5246C125.091 12.4227 125.382 11.1835 125.418 9.86859L114.593 9.94509C114.542 11.528 114.152 13.0153 113.5 14.3155C112.944 15.4235 112.197 16.3961 111.307 17.1759C110.512 17.873 109.599 18.4157 108.608 18.7601C108.445 18.5044 108.311 18.2297 108.204 17.9437C109.121 17.6424 109.968 17.1471 110.712 16.4963C111.611 15.7093 112.354 14.6943 112.874 13.5245C113.354 12.4456 113.643 11.2355 113.689 9.95153L110.25 9.97562L109.346 9.98205L102.863 10.0277C102.801 11.58 102.414 13.0378 101.773 14.3155C101.217 15.4235 100.47 16.3961 99.5804 17.1759C98.7855 17.873 97.8729 18.4157 96.8823 18.7601C96.7185 18.5044 96.5842 18.2297 96.4764 17.9437C97.3938 17.6424 98.2414 17.1471 98.9852 16.4963C99.8838 15.7093 100.627 14.6943 101.147 13.5245C101.617 12.469 101.904 11.2872 101.959 10.0341L98.5266 10.0582L97.6226 10.065L91.1331 10.1106H91.1328C91.0609 11.6317 90.6759 13.0605 90.0463 14.3154C89.4903 15.4234 88.744 16.396 87.8543 17.1758C87.0591 17.8729 86.1461 18.4156 85.1554 18.76C84.9921 18.5043 84.8577 18.2296 84.7503 17.9436C85.6677 17.6423 86.5149 17.147 87.2587 16.4962C88.1577 15.7092 88.9008 14.6942 89.421 13.5244C89.8796 12.4919 90.1645 11.3392 90.228 10.1169L86.8041 10.141L85.8997 10.1471L79.4019 10.1931C79.3204 11.6833 78.9382 13.0834 78.3197 14.3153C77.7637 15.4233 77.017 16.396 76.1273 17.1757C75.3322 17.8728 74.4199 18.4155 73.4285 18.7603C73.2651 18.5042 73.1311 18.2295 73.0234 17.9435C73.9407 17.6422 74.7879 17.1469 75.5318 16.4961C76.4308 15.7091 77.1742 14.6941 77.694 13.5243C78.143 12.5154 78.4249 11.3912 78.4967 10.1995L75.0821 10.2236L74.1773 10.2297L67.6702 10.2756C67.5794 11.7349 67.1997 13.1059 66.5927 14.3153C66.0367 15.4233 65.2907 16.396 64.4007 17.1757C63.6055 17.8728 62.6928 18.4155 61.7018 18.7599C61.5384 18.5042 61.4045 18.2295 61.2967 17.9435C62.2141 17.6422 63.0613 17.1469 63.8055 16.4961C64.7041 15.7091 65.4476 14.6941 65.9673 13.5243C66.4056 12.5384 66.6846 11.4429 66.7643 10.2821L63.3608 10.3062L62.4557 10.3122L55.9386 10.3582H55.9382C55.838 11.7866 55.4612 13.1289 54.8661 14.3152C54.3101 15.4232 53.5638 16.3959 52.6741 17.1756C51.8789 17.8727 50.9662 18.4154 49.9752 18.7598C49.8119 18.5041 49.6775 18.2294 49.5698 17.9434C50.4874 17.6421 51.3347 17.1468 52.0785 16.496C52.9771 15.709 53.7206 14.694 54.2404 13.5242C54.6685 12.562 54.9451 11.495 55.032 10.3646L51.6407 10.3887L50.7348 10.3948L44.2055 10.4411C44.097 11.8387 43.7231 13.1518 43.1391 14.3152C42.5834 15.4232 41.8371 16.3959 40.947 17.1756C40.1519 17.8727 39.2392 18.4154 38.2482 18.7602C38.0852 18.5041 37.9505 18.2294 37.8431 17.9434C38.7604 17.6421 39.6076 17.1468 40.3519 16.496C41.2505 15.709 41.9939 14.694 42.5141 13.5242C42.9311 12.5854 43.2044 11.547 43.2981 10.4472L39.9205 10.4713L39.0143 10.4777L28.2015 10.5535L27.2946 10.5603L26.4531 10.5661L30.0879 22.6005H133.597C133.507 22.419 133.416 22.2383 133.327 22.0591Z" fill="#9EC2DD"/>
<path d="M64.0992 95.776L52.7104 71.2744L33.0911 29.0658L30.0859 22.6011L60.9612 99.0028L154.656 96.4581C154.611 96.2321 154.565 96.0048 154.519 95.776H64.0992Z" fill="#8B7B70"/>
<path d="M76.9973 54.4779L76.033 52.4032L65.9521 46.9245C65.2054 48.275 64.4587 49.6262 63.712 50.9766C63.369 51.5965 63.0695 52.2897 62.4187 52.6439C61.6167 53.0799 60.7859 52.7437 60.1369 52.2132C59.03 51.3077 57.9816 50.3193 56.908 49.3747C56.4178 48.943 56.4702 48.1093 56.908 47.6715C57.3886 47.1913 58.1231 47.2423 58.6108 47.6715C59.5378 48.4876 60.4645 49.3029 61.3911 50.1185C61.4001 50.1264 61.4105 50.1347 61.4209 50.1434C61.6964 49.6455 61.9715 49.1474 62.2469 48.6496C62.7767 47.6913 63.3068 46.7326 63.8366 45.7745L51.5649 39.105H48.0055V38.6234H50.6788L46.7969 36.5137L55.1472 54.4779L76.9973 54.4779Z" fill="#FFF7DD"/>
<path d="M143.309 88.9675H85.2656L97.7934 95.776H155.836L143.309 88.9675Z" fill="#FFF7DD"/>
<path d="M77.5274 54.4779H79.8491L76.7422 52.7894L77.5274 54.4779Z" fill="#FFF7DD"/>
<path d="M85.3077 72.3602H63.4598V71.8786H85.0839L77.2196 54.9595H55.3691L66.4147 78.7222L84.3796 88.4855H92.8032L85.3077 72.3602Z" fill="#FFF7DD"/>
<path d="M115.227 88.4856L107.731 72.3602H85.8379L93.3334 88.4856H115.227Z" fill="#FFF7DD"/>
<path d="M106.746 69.0962L108.039 71.8787H111.865L106.746 69.0962Z" fill="#FFF7DD"/>
<path d="M80.7363 54.9595H77.752L85.6163 71.8786H107.509L106.036 68.71L80.7363 54.9595Z" fill="#FFF7DD"/>
<path d="M108.264 72.3602L115.759 88.4856H142.423L112.752 72.3602H108.264Z" fill="#FFF7DD"/>
<path d="M46.0832 36.1276L33.0898 29.0659L52.7091 71.2746L65.7024 78.3362L46.0832 36.1276Z" fill="#FFF7DD"/>
<path d="M91.0683 35.365L97.0636 38.6235H113.313C110.505 33.1479 108.582 29.0929 107.912 27.6627L107.388 27.3778L87.416 27.5075L91.0683 35.365Z" fill="#FFF7DD"/>
<path d="M108.979 28.7983C109.562 30.021 110.415 31.7884 111.499 33.9664C112.193 35.3618 112.981 36.9261 113.853 38.6234H128.078L108.625 28.0513C108.729 28.271 108.847 28.5207 108.979 28.7983Z" fill="#FFF7DD"/>
<path d="M142.93 54.9595H127.121L150.788 67.8221C148.015 63.566 145.369 59.1905 142.93 54.9595Z" fill="#FFF7DD"/>
<path d="M106.511 26.9018L98.5981 22.6011H67.582L75.8616 27.1008L106.511 26.9018Z" fill="#FFF7DD"/>
<path d="M114.102 39.105C115.901 42.5969 118.04 46.6232 120.427 50.8901C120.543 51.0966 120.659 51.3035 120.776 51.5111L126.235 54.4779H142.653C142.003 53.348 141.369 52.2284 140.752 51.1254C139.193 48.3389 137.74 45.6552 136.417 43.1557L128.965 39.105H114.102Z" fill="#FFF7DD"/>
<path d="M113.56 39.105H97.9492L119.981 51.0791C117.55 46.7334 115.378 42.6393 113.56 39.105Z" fill="#FFF7DD"/>
<path d="M86.9559 27.6604L87.2827 27.5084L76.7383 27.5767L90.3572 34.9785L86.9559 27.6604Z" fill="#FFF7DD"/>
<path d="M137.182 43.5715C138.41 45.8839 139.745 48.3442 141.17 50.89C144.311 56.5028 147.883 62.5322 151.68 68.308L162.891 74.4007C157.609 66.4687 152.409 57.715 147.686 49.281L137.182 43.5715Z" fill="#FFF7DD"/>
<path d="M122.436 16.4967C123.335 15.7097 124.078 14.6947 124.598 13.5249C124.058 13.0142 123.357 12.7017 122.514 12.7312C121.28 12.7735 120.443 13.4445 119.992 14.364C119.607 15.148 119.503 16.1121 119.672 17.0214C119.731 17.335 119.815 17.6453 119.928 17.9441C120.845 17.6427 121.692 17.1475 122.436 16.4967Z" fill="#4D6678"/>
<path d="M123.033 17.1762C122.238 17.8733 121.325 18.416 120.334 18.7604C120.424 18.9019 120.523 19.0374 120.632 19.1655C121.143 19.7704 121.877 20.2058 122.667 20.2661C123.814 20.3537 124.935 19.612 125.459 18.5873C126.1 17.336 125.974 15.5785 125.225 14.3157C124.669 15.4238 123.922 16.3964 123.033 17.1762Z" fill="#4D6678"/>
<path d="M110.711 16.4967C111.61 15.7097 112.353 14.6947 112.874 13.5249C112.333 13.0142 111.632 12.7017 110.789 12.7312C109.556 12.7735 108.719 13.4445 108.267 14.364C107.883 15.148 107.778 16.1121 107.948 17.0214C108.006 17.335 108.09 17.6453 108.203 17.9441C109.12 17.6427 109.967 17.1475 110.711 16.4967Z" fill="#4D6678"/>
<path d="M111.306 17.1762C110.511 17.8733 109.598 18.416 108.607 18.7604C108.698 18.9019 108.797 19.0374 108.905 19.1655C109.416 19.7704 110.151 20.2058 110.94 20.2661C112.088 20.3537 113.208 19.612 113.733 18.5873C114.374 17.336 114.248 15.5785 113.499 14.3157C112.943 15.4238 112.196 16.3964 111.306 17.1762Z" fill="#4D6678"/>
<path d="M98.9825 16.4967C99.8811 15.7097 100.625 14.6947 101.145 13.5249C100.604 13.0142 99.903 12.7017 99.0604 12.7312C97.8274 12.7735 96.9898 13.4445 96.5391 14.364C96.154 15.148 96.0499 16.1121 96.2187 17.0214C96.2773 17.335 96.3617 17.6453 96.4737 17.9441C97.391 17.6427 98.2386 17.1475 98.9825 16.4967Z" fill="#4D6678"/>
<path d="M99.579 17.1762C98.7841 17.8733 97.8715 18.416 96.8809 18.7604C96.9707 18.9019 97.0698 19.0374 97.1778 19.1655C97.6896 19.7704 98.4238 20.2058 99.2129 20.2661C100.361 20.3537 101.481 19.612 102.006 18.5873C102.647 17.336 102.521 15.5785 101.772 14.3157C101.215 15.4238 100.469 16.3964 99.579 17.1762Z" fill="#4D6678"/>
<path d="M87.8531 17.1762C87.058 17.8733 86.1449 18.416 85.1543 18.7604C85.2444 18.9019 85.3436 19.0374 85.452 19.1655C85.9631 19.7704 86.6973 20.2058 87.4867 20.2661C88.6346 20.3537 89.7549 19.612 90.2796 18.5873C90.92 17.336 90.7947 15.5785 90.0451 14.3157C89.489 15.4238 88.7427 16.3964 87.8531 17.1762Z" fill="#4D6678"/>
<path d="M87.258 16.4967C88.157 15.7097 88.9001 14.6947 89.4202 13.5249C88.88 13.0142 88.1789 12.7017 87.336 12.7312C86.1026 12.7735 85.2653 13.4445 84.8142 14.364C84.4292 15.148 84.3251 16.1121 84.4945 17.0214C84.5527 17.335 84.6368 17.6453 84.7495 17.9441C85.6669 17.6427 86.5142 17.1475 87.258 16.4967Z" fill="#4D6678"/>
<path d="M76.1266 17.1762C75.3314 17.8733 74.4191 18.416 73.4277 18.7608C73.5182 18.9019 73.6171 19.0374 73.7255 19.1655C74.237 19.7704 74.9707 20.2058 75.7605 20.2661C76.9084 20.3537 78.0287 19.612 78.5531 18.5873C79.1938 17.336 79.0684 15.5785 78.3189 14.3157C77.7629 15.4238 77.0162 16.3964 76.1266 17.1762Z" fill="#4D6678"/>
<path d="M75.5312 16.4967C76.4302 15.7097 77.1737 14.6947 77.6935 13.5249C77.1537 13.0142 76.4526 12.7017 75.6096 12.7312C74.3762 12.7735 73.5389 13.4445 73.0875 14.364C72.7028 15.148 72.5983 16.1121 72.7681 17.0214C72.8263 17.335 72.91 17.6453 73.0228 17.9441C73.9401 17.6427 74.7874 17.1475 75.5312 16.4967Z" fill="#4D6678"/>
<path d="M63.8052 16.4967C64.7038 15.7097 65.4473 14.6947 65.9671 13.5249C65.4273 13.0142 64.7258 12.7017 63.8828 12.7312C62.6495 12.7735 61.8126 13.4445 61.3611 14.364C60.976 15.148 60.8719 16.1121 61.0414 17.0214C61.1 17.335 61.1836 17.6453 61.2964 17.9441C62.2137 17.6427 63.061 17.1475 63.8052 16.4967Z" fill="#4D6678"/>
<path d="M64.4 17.1762C63.6048 17.8733 62.6922 18.416 61.7012 18.7604C61.7914 18.9019 61.8905 19.0374 61.9989 19.1655C62.51 19.7704 63.2445 20.2058 64.034 20.2661C65.1816 20.3537 66.3021 19.612 66.8265 18.5873C67.4673 17.336 67.342 15.5785 66.5919 14.3157C66.036 15.4238 65.2901 16.3964 64.4 17.1762Z" fill="#4D6678"/>
<path d="M52.0785 16.4967C52.9771 15.7097 53.7206 14.6947 54.2404 13.5249C53.7005 13.0142 52.9991 12.7017 52.1565 12.7312C50.9227 12.7735 50.0859 13.4445 49.6347 14.364C49.25 15.148 49.1452 16.1121 49.3147 17.0214C49.3733 17.335 49.4574 17.6453 49.5697 17.9441C50.4874 17.6427 51.3346 17.1475 52.0785 16.4967Z" fill="#4D6678"/>
<path d="M52.6715 17.1762C51.8763 17.8733 50.9637 18.416 49.9727 18.7604C50.0628 18.9019 50.162 19.0374 50.2704 19.1655C50.7815 19.7704 51.516 20.2058 52.3051 20.2661C53.4533 20.3537 54.5732 19.612 55.098 18.5873C55.7384 17.336 55.6133 15.5785 54.8634 14.3157C54.3075 15.4238 53.5612 16.3964 52.6715 17.1762Z" fill="#4D6678"/>
<path d="M40.352 16.4967C41.2506 15.7097 41.9941 14.6947 42.5142 13.5249C41.974 13.0142 41.273 12.7017 40.43 12.7312C39.1962 12.7735 38.3593 13.4445 37.9082 14.364C37.5232 15.148 37.4187 16.1121 37.5883 17.0214C37.6465 17.335 37.7305 17.6453 37.8432 17.9441C38.7606 17.6427 39.6079 17.1475 40.352 16.4967Z" fill="#4D6678"/>
<path d="M40.9449 17.1762C40.1498 17.8733 39.2371 18.416 38.2461 18.7608C38.3363 18.9019 38.4354 19.0374 38.5438 19.1655C39.0553 19.7704 39.7894 20.2058 40.5789 20.2661C41.7268 20.3537 42.847 19.612 43.3714 18.5873C44.0122 17.336 43.8868 15.5785 43.1369 14.3157C42.5813 15.4238 41.835 16.3964 40.9449 17.1762Z" fill="#4D6678"/>
<path d="M167.663 88.5538C162.267 83.3386 156.773 76.0514 151.683 68.308C147.886 62.5322 144.314 56.5028 141.173 50.89C139.748 48.3442 138.413 45.8839 137.184 43.5715C135.243 39.9177 133.572 36.6338 132.245 33.9662C131.162 31.7881 130.309 30.0207 129.726 28.7981C129.435 28.1868 129.211 27.7116 129.061 27.3895C128.91 27.0676 128.833 26.8992 128.833 26.8985L128.768 26.7573L106.513 26.9017L75.8629 27.1007L41.9922 27.3205L46.086 36.1273L65.7052 78.336L70.647 88.9675H168.091L167.663 88.5538ZM150.789 67.8222C151.68 69.1899 152.583 70.5447 153.498 71.8786H133.338C129.572 66.4053 125.976 60.5611 122.741 54.9595H142.93C145.37 59.1906 148.016 63.566 150.789 67.8222ZM99.421 54.4779H77.5282L76.7431 52.7895L70.3825 39.1051H92.2756L99.421 54.4779ZM92.8066 39.105H113.561C115.379 42.6393 117.551 46.7334 119.982 51.0791C119.991 51.0945 119.999 51.1099 120.008 51.1254C120.625 52.2284 121.259 53.3479 121.908 54.4779H99.9519L92.8066 39.105ZM99.6456 54.9595L106.037 68.71L107.51 71.8786H85.6165L77.7522 54.9595H99.6456ZM106.747 69.0961L100.176 54.9595H122.185C125.408 60.5504 128.992 66.3916 132.753 71.8786H108.041L106.747 69.0961ZM136.418 43.1557C137.74 45.6552 139.194 48.3389 140.752 51.1254C141.37 52.2284 142.004 53.3479 142.654 54.4779H122.464C121.889 53.4798 121.326 52.4892 120.777 51.5111C120.66 51.3035 120.544 51.0966 120.428 50.8901C118.041 46.6232 115.902 42.5969 114.102 39.105H134.306C134.965 40.3865 135.671 41.7417 136.418 43.1557ZM128.46 27.2412C128.843 28.0659 130.886 32.438 134.058 38.6234H113.855C112.983 36.9259 112.194 35.3617 111.501 33.9664C110.417 31.7883 109.564 30.0209 108.981 28.7983C108.849 28.5206 108.731 28.2711 108.627 28.0512C108.502 27.7869 108.399 27.5656 108.316 27.3896C108.313 27.3836 108.311 27.3778 108.308 27.3721L128.46 27.2412ZM107.388 27.3777L107.778 27.3756C107.814 27.4546 107.86 27.5505 107.912 27.6625C108.582 29.0928 110.505 33.1478 113.313 38.6234H92.5828L91.0682 35.3649L87.4158 27.5073L107.388 27.3777ZM76.7385 27.5768L87.283 27.5085L86.9561 27.6604L90.3574 34.9785L92.052 38.6234H70.1586L65.0591 27.6529L76.7385 27.5768ZM46.7963 36.5136L42.7449 27.7973L64.5414 27.6557L64.5314 27.6604L69.6277 38.6234L47.7862 38.6435L46.7963 36.5136ZM48.005 39.105H69.8511L76.0324 52.4033L76.9968 54.4779H55.1467L48.005 39.105ZM70.9544 88.4856L66.4159 78.7222L55.3704 54.9595H77.2208L85.0852 71.8786H63.461V72.3602H85.3089L92.8044 88.4856H70.9544ZM93.3357 88.4856L85.8402 72.3602H107.734L115.229 88.4856H93.3357ZM115.76 88.4856L108.264 72.3602H133.084C137.313 78.4866 141.756 84.1461 146.16 88.4856H115.76ZM146.848 88.4856C142.428 84.2003 137.944 78.529 133.671 72.3602H153.83C158.057 78.4866 162.502 84.1461 166.905 88.4856H146.848Z" fill="#4D6678"/>
<path d="M119.177 58.9302C117.992 61.0744 116.806 63.2187 115.621 65.3626C115.346 65.8608 115.071 66.3586 114.796 66.8567C114.784 66.8477 114.774 66.8395 114.765 66.8316C113.838 66.016 112.912 65.2003 111.985 64.385C111.497 63.9554 110.762 63.9048 110.282 64.385C109.844 64.8229 109.792 65.6568 110.282 66.0879C111.355 67.0325 112.404 68.0213 113.51 68.9268C114.16 69.4573 114.991 69.7931 115.793 69.3574C116.444 69.0033 116.743 68.3101 117.086 67.6902C118.476 65.1756 119.867 62.6607 121.257 60.1461C122.008 58.7891 119.928 57.5721 119.177 58.9302Z" fill="#2A9421"/>
<path d="M65.8023 42.2172C65.1465 43.4028 64.491 44.5888 63.8355 45.7745C63.3057 46.7328 62.7756 47.6914 62.2458 48.6496C61.9704 49.1474 61.6952 49.6456 61.4198 50.1434C61.4094 50.1348 61.3989 50.1265 61.39 50.1186C60.4633 49.3029 59.5367 48.4876 58.6097 47.6716C58.1219 47.2424 57.3874 47.1913 56.9069 47.6716C56.4691 48.1094 56.4167 48.943 56.9069 49.3747C57.9805 50.3193 59.0289 51.3077 60.1358 52.2132C60.7849 52.7438 61.6156 53.0799 62.4176 52.6439C63.0684 52.2897 63.368 51.5965 63.7109 50.9766C64.4576 49.6261 65.2043 48.2749 65.951 46.9245C66.5947 45.7604 67.2383 44.5968 67.8819 43.4326C68.6322 42.0754 66.5534 40.8592 65.8023 42.2172Z" fill="#2A9421"/>
<path d="M4.69793 101.542C4.62934 102.24 4.56792 102.925 4.51367 103.597L26.2703 100.773L26.4525 10.5667C26.4525 10.5667 19.0101 34.0378 12.7397 59.4926C9.10809 74.2358 5.86953 89.6439 4.69793 101.542Z" fill="#57758C"/>
</svg>
