<svg width="46" height="46" viewBox="0 0 46 46" fill="none" xmlns="http://www.w3.org/2000/svg">
<g clip-path="url(#clip0_1010_41915)">
<path d="M0.651367 24.7705C0.217122 25.7288 0 26.7246 0 27.7578V29.375C0 30.513 0.306966 31.5537 0.920898 32.4971C1.53483 33.4404 2.3584 34.1442 3.3916 34.6084C3.85579 35.6416 4.55957 36.4652 5.50293 37.0791C6.44629 37.693 7.48698 38 8.625 38C9.6582 38 10.6165 37.7454 11.5 37.2363C12.3835 36.7272 13.0872 36.0234 13.6113 35.125H29.5137C30.0378 36.0234 30.7415 36.7272 31.625 37.2363C32.5085 37.7454 33.4668 38 34.5 38C35.5332 38 36.4915 37.7454 37.375 37.2363C38.2585 36.7272 38.9622 36.0234 39.4863 35.125H43.125C43.5293 35.125 43.9036 35.0501 44.248 34.9004C44.5924 34.7507 44.8919 34.5485 45.1465 34.2939C45.401 34.0394 45.6107 33.7324 45.7754 33.373C45.9401 33.0137 46.015 32.6393 46 32.25V26.5C46 25.3021 45.7754 24.179 45.3262 23.1309C44.877 22.0827 44.263 21.1693 43.4844 20.3906C42.7057 19.612 41.7923 18.998 40.7441 18.5488C39.696 18.0996 38.5729 17.875 37.375 17.875H36.5439L29.1768 10.5078C28.7725 10.1035 28.3083 9.79655 27.7842 9.58691C27.2601 9.37728 26.7061 9.26497 26.1221 9.25H5.75V12.125H6.40137L0.651367 24.7705ZM17.25 12.125V17.875H6.94043L9.16406 12.9561C9.28385 12.7015 9.46354 12.4993 9.70312 12.3496C9.94271 12.1999 10.2048 12.125 10.4893 12.125H17.25ZM26.1221 12.125C26.5114 12.125 26.8483 12.2673 27.1328 12.5518L32.4561 17.875H20.125V12.125H26.1221ZM34.5 35.125C34.0957 35.125 33.7214 35.0501 33.377 34.9004C33.0326 34.7507 32.7331 34.5485 32.4785 34.2939C32.224 34.0394 32.0143 33.7324 31.8496 33.373C31.6849 33.0137 31.61 32.6393 31.625 32.25C31.625 31.8457 31.6999 31.4714 31.8496 31.127C31.9993 30.7826 32.2015 30.4831 32.4561 30.2285C32.7106 29.974 33.0176 29.7643 33.377 29.5996C33.7363 29.4349 34.1107 29.36 34.5 29.375C34.9043 29.375 35.2786 29.4499 35.623 29.5996C35.9674 29.7493 36.2669 29.9515 36.5215 30.2061C36.776 30.4606 36.9857 30.7676 37.1504 31.127C37.3151 31.4863 37.39 31.8607 37.375 32.25C37.375 32.6543 37.3001 33.0286 37.1504 33.373C37.0007 33.7174 36.7985 34.0169 36.5439 34.2715C36.2894 34.526 35.9824 34.7357 35.623 34.9004C35.2637 35.0651 34.8893 35.14 34.5 35.125ZM34.5 26.5C33.7064 26.5 32.9652 26.6497 32.2764 26.9492C31.5876 27.2487 30.9736 27.6605 30.4346 28.1846C29.8955 28.7087 29.4837 29.3151 29.1992 30.0039C28.9147 30.6927 28.765 31.4414 28.75 32.25H20.125V20.75H37.375C38.1686 20.75 38.9098 20.8997 39.5986 21.1992C40.2874 21.4987 40.9014 21.9105 41.4404 22.4346C41.9795 22.9587 42.3913 23.5651 42.6758 24.2539C42.9603 24.9427 43.11 25.6914 43.125 26.5V32.25H40.25C40.25 31.4564 40.1003 30.7152 39.8008 30.0264C39.5013 29.3376 39.0895 28.7236 38.5654 28.1846C38.0413 27.6455 37.4349 27.2337 36.7461 26.9492C36.0573 26.6647 35.3086 26.515 34.5 26.5ZM8.625 35.125C8.2207 35.125 7.84635 35.0501 7.50195 34.9004C7.15755 34.7507 6.85807 34.5485 6.60352 34.2939C6.34896 34.0394 6.13932 33.7324 5.97461 33.373C5.8099 33.0137 5.73503 32.6393 5.75 32.25C5.75 31.8457 5.82487 31.4714 5.97461 31.127C6.12435 30.7826 6.3265 30.4831 6.58105 30.2285C6.83561 29.974 7.14258 29.7643 7.50195 29.5996C7.86133 29.4349 8.23568 29.36 8.625 29.375C9.0293 29.375 9.40365 29.4499 9.74805 29.5996C10.0924 29.7493 10.3919 29.9515 10.6465 30.2061C10.901 30.4606 11.1107 30.7676 11.2754 31.127C11.4401 31.4863 11.515 31.8607 11.5 32.25C11.5 32.6543 11.4251 33.0286 11.2754 33.373C11.1257 33.7174 10.9235 34.0169 10.6689 34.2715C10.4144 34.526 10.1074 34.7357 9.74805 34.9004C9.38867 35.0651 9.01432 35.14 8.625 35.125ZM2.875 27.7578C2.875 27.1439 3.00228 26.5449 3.25684 25.9609L5.6377 20.75H17.25V32.25H14.375C14.375 31.4564 14.2253 30.7152 13.9258 30.0264C13.6263 29.3376 13.2145 28.7236 12.6904 28.1846C12.1663 27.6455 11.5599 27.2337 10.8711 26.9492C10.1823 26.6647 9.43359 26.515 8.625 26.5C7.99609 26.5 7.38965 26.5973 6.80566 26.792C6.22168 26.9867 5.6901 27.2637 5.21094 27.623C4.73177 27.9824 4.3125 28.4092 3.95312 28.9033C3.59375 29.3975 3.31673 29.9515 3.12207 30.5654C2.95736 30.1611 2.875 29.7643 2.875 29.375V27.7578Z" fill="black"/>
</g>
<defs>
<clipPath id="clip0_1010_41915">
<rect width="46" height="46" fill="white"/>
</clipPath>
</defs>
</svg>
