<svg width="46" height="46" viewBox="0 0 46 46" fill="none" xmlns="http://www.w3.org/2000/svg">
<path d="M30.6667 3.83203V11.4987M15.3333 3.83203V11.4987M40.25 30.6654V22.9987C40.25 15.7709 40.25 12.1561 38.0037 9.9117C35.7573 7.66728 32.1444 7.66536 24.9167 7.66536H21.0833C13.8556 7.66536 10.2407 7.66536 7.99633 9.9117C5.75192 12.158 5.75 15.7709 5.75 22.9987V26.832C5.75 34.0598 5.75 37.6746 7.99633 39.919C10.2427 42.1634 13.8556 42.1654 21.0833 42.1654H23M5.75 19.1654H40.25" stroke="black" stroke-width="3" stroke-linecap="round" stroke-linejoin="round"/>
<path d="M40.2487 37.3737H27.7904M31.6237 42.1654C30.6539 41.2243 26.832 38.7154 26.832 37.3737C26.832 36.032 30.6539 33.5231 31.6237 32.582" stroke="black" stroke-width="3" stroke-linecap="round" stroke-linejoin="round"/>
</svg>
