<svg width="47" height="47" viewBox="0 0 47 47" fill="none" xmlns="http://www.w3.org/2000/svg">
<g clip-path="url(#clip0_1010_41921)">
<path fill-rule="evenodd" clip-rule="evenodd" d="M20.9667 24.8845L8.63451 1.68868C8.56366 1.55543 8.51975 1.40954 8.50529 1.25932C8.49083 1.1091 8.50609 0.957509 8.55021 0.813191C8.63932 0.521728 8.84056 0.277601 9.10967 0.134516C9.37877 -0.00857006 9.6937 -0.0388939 9.98516 0.0502151C10.1295 0.0943373 10.2637 0.166453 10.3801 0.262445C10.4966 0.358436 10.593 0.476424 10.6638 0.609671L22.9972 23.8055L24.7461 22.8748C25.2792 22.5914 25.8628 22.4158 26.4638 22.358C27.0647 22.3002 27.6711 22.3613 28.2484 22.5379C28.8257 22.7145 29.3625 23.0031 29.8283 23.3872C30.294 23.7713 30.6795 24.2434 30.9628 24.7765L31.7074 26.1761L39.6006 37.7304L23.227 46.436L18.0618 33.4304L17.3183 32.0308C17.0349 31.4979 16.8592 30.9143 16.8013 30.3134C16.7435 29.7125 16.8045 29.1061 16.981 28.5288C17.1575 27.9516 17.446 27.4147 17.83 26.9489C18.2139 26.4831 18.6859 26.0975 19.2189 25.8142L20.9667 24.8845ZM20.2968 27.8435L25.824 24.9052C26.0905 24.7635 26.3823 24.6757 26.6827 24.6467C26.9832 24.6178 27.2864 24.6483 27.575 24.7366C27.8636 24.8248 28.1321 24.9691 28.365 25.161C28.5979 25.353 28.7906 25.589 28.9323 25.8555L29.6769 27.254L20.09 32.3514L19.3465 30.9518C19.2048 30.6853 19.1169 30.3935 19.088 30.0931C19.0591 29.7927 19.0896 29.4895 19.1778 29.2008C19.2661 28.9122 19.4103 28.6438 19.6023 28.4109C19.7943 28.178 20.0303 27.9852 20.2968 27.8435ZM21.2506 35.2345L24.414 43.2013L26.5215 42.0809L24.0337 37.2374L26.0791 36.1871L28.552 41.0019L36.2533 36.9065L31.4178 29.828L21.2506 35.2345Z" fill="black"/>
<path d="M14.4138 35.9497C14.5298 35.8531 14.6636 35.7804 14.8077 35.7355C14.9518 35.6907 15.1033 35.6746 15.2536 35.6883C15.4039 35.7021 15.55 35.7452 15.6836 35.8154C15.8172 35.8856 15.9357 35.9814 16.0323 36.0974C16.1289 36.2134 16.2017 36.3472 16.2465 36.4913C16.2914 36.6354 16.3074 36.7869 16.2937 36.9372C16.28 37.0875 16.2368 37.2336 16.1666 37.3672C16.0964 37.5008 16.0006 37.6193 15.8846 37.7159L15.8835 37.717L15.8812 37.7193L15.8777 37.7216L15.8663 37.7308L15.8318 37.7596L15.7134 37.8503C15.6131 37.9269 15.4725 38.0265 15.2917 38.1491C14.9297 38.3904 14.4069 38.7053 13.7473 39.0201C12.0326 39.8428 10.1563 40.2734 8.25457 40.2807C7.94981 40.2807 7.65753 40.1596 7.44203 39.9441C7.22654 39.7286 7.10547 39.4364 7.10547 39.1316C7.10547 38.8268 7.22654 38.5346 7.44203 38.3191C7.65753 38.1036 7.94981 37.9825 8.25457 37.9825C9.81446 37.975 11.3531 37.6206 12.7591 36.9448C13.1941 36.7381 13.6142 36.5012 14.0162 36.2358C14.1484 36.1484 14.2776 36.0564 14.4034 35.9601L14.4149 35.9486L14.4138 35.9497ZM18.0852 43.535C18.3387 43.3658 18.5147 43.1029 18.5744 42.804C18.6341 42.5051 18.5726 42.1947 18.4035 41.9412C18.2343 41.6876 17.9714 41.5116 17.6725 41.4519C17.3736 41.3922 17.0632 41.4537 16.8097 41.6229L16.8074 41.6252L16.7844 41.6389L16.6856 41.7021C16.5944 41.7596 16.4607 41.8389 16.2845 41.94C15.8109 42.2105 15.3238 42.4567 14.8252 42.6777C13.5979 43.2236 12.0455 43.728 10.5528 43.728C10.248 43.728 9.95575 43.8491 9.74025 44.0646C9.52475 44.2801 9.40368 44.5724 9.40368 44.8771C9.40368 45.1819 9.52475 45.4742 9.74025 45.6897C9.95575 45.9052 10.248 46.0262 10.5528 46.0262C12.5086 46.0262 14.4023 45.3816 15.7594 44.7783C16.4969 44.4507 17.212 44.0749 17.9002 43.6533L18.0312 43.5706L18.0679 43.5465L18.0794 43.5396L18.0852 43.535Z" fill="black"/>
</g>
<defs>
<clipPath id="clip0_1010_41921">
<rect width="46.436" height="46.436" fill="white"/>
</clipPath>
</defs>
</svg>
