<svg width="35" height="35" viewBox="0 0 35 35" fill="none" xmlns="http://www.w3.org/2000/svg">
<g clip-path="url(#clip0_1010_41837)">
<path d="M2.63672 4.9137C2.63672 5.86362 3.01407 6.77463 3.68576 7.44632C4.35746 8.11801 5.26847 8.49537 6.21839 8.49537C7.1683 8.49537 8.07931 8.11801 8.75101 7.44632C9.4227 6.77463 9.80005 5.86362 9.80005 4.9137C9.80005 3.96378 9.4227 3.05277 8.75101 2.38108C8.07931 1.70938 7.1683 1.33203 6.21839 1.33203C5.26847 1.33203 4.35746 1.70938 3.68576 2.38108C3.01407 3.05277 2.63672 3.96378 2.63672 4.9137Z" stroke="black" stroke-width="2" stroke-miterlimit="10"/>
<path d="M27.6661 13.9447L26.6657 20.497L21.3997 20.5378M18.1782 24.4126H33.4543M21.703 24.4126L21.1007 33.2239M29.9295 24.4126L30.5318 33.2239M16.644 14.1445H16.6324L10.5803 14.1795L6.14113 10.6008C6.09884 10.5658 6.05071 10.5424 6.00551 10.5118C5.93624 10.46 5.86471 10.4114 5.79113 10.366C5.71453 10.328 5.63563 10.2949 5.55488 10.2668C5.50092 10.2522 5.45134 10.226 5.39592 10.2056C5.28789 10.1774 5.17834 10.1555 5.0678 10.1399C5.03717 10.1399 5.00946 10.1253 4.97738 10.1224H4.83155C4.49828 10.1107 4.16682 10.1764 3.86319 10.3143C3.55956 10.4522 3.29202 10.6586 3.08155 10.9172L3.06259 10.9362C3.02613 10.9799 3.00134 11.031 2.96926 11.082C2.93717 11.1331 2.87446 11.2133 2.83509 11.2862C2.79798 11.3648 2.7644 11.4451 2.73446 11.5268C2.71405 11.5808 2.68926 11.6289 2.67176 11.6858C2.64323 11.7886 2.62227 11.8934 2.60905 11.9993C2.60905 12.0358 2.59155 12.0678 2.58863 12.1014V12.1233L1.55613 22.8376C1.50745 23.3653 1.65196 23.8927 1.96283 24.3219C2.2737 24.751 2.72978 25.0527 3.24634 25.171L11.0061 26.9458L11.5311 31.7145C11.562 32.001 11.6491 32.2785 11.7876 32.5312C11.926 32.7839 12.113 33.0068 12.3378 33.187C12.5626 33.3673 12.8208 33.5013 13.0975 33.5815C13.3743 33.6616 13.6642 33.6863 13.9505 33.6541C14.2362 33.6227 14.5129 33.5353 14.7648 33.3969C15.0167 33.2585 15.2388 33.0719 15.4185 32.8476C15.5982 32.6233 15.732 32.3658 15.8122 32.0898C15.8923 31.8138 15.9173 31.5248 15.8857 31.2391L15.1901 24.9245C15.1409 24.4723 14.9519 24.0467 14.6495 23.7069C14.3471 23.3671 13.9462 23.13 13.5028 23.0287L6.09446 21.337L6.56259 16.5566L8.44092 18.082C8.8303 18.3956 9.31592 18.5662 9.81467 18.5662H9.8278L16.6572 18.5268C17.2373 18.5251 17.793 18.2929 18.202 17.8815C18.6111 17.47 18.8398 16.9129 18.8381 16.3327C18.8364 15.7526 18.6042 15.1969 18.1928 14.7879C17.7813 14.3789 17.2242 14.1501 16.644 14.1518V14.1445Z" stroke="black" stroke-width="2" stroke-linecap="round" stroke-linejoin="round"/>
</g>
<defs>
<clipPath id="clip0_1010_41837">
<rect width="35" height="35" fill="white"/>
</clipPath>
</defs>
</svg>
