<svg width="34" height="34" viewBox="0 0 34 34" fill="none" xmlns="http://www.w3.org/2000/svg">
<path d="M4 29.8763H29.8784M29.8784 29.8763H18.6644V16.0756C18.6644 15.6181 18.4827 15.1793 18.1591 14.8558C17.8356 14.5323 17.3968 14.3505 16.9392 14.3505H8.31307C7.85551 14.3505 7.41669 14.1688 7.09315 13.8453C6.76961 13.5217 6.58784 13.083 6.58784 12.6254V5.72509C6.58784 5.26757 6.76961 4.82878 7.09315 4.50527C7.41669 4.18175 7.85551 4 8.31307 4H28.1532C28.6107 4 29.0496 4.18175 29.3731 4.50527C29.6966 4.82878 29.8784 5.26757 29.8784 5.72509V29.8763Z" stroke="black" stroke-width="1.5" stroke-linecap="round" stroke-linejoin="round"/>
<path d="M10.9022 14.3535V17.8037M29.8797 9.17821H24.704M29.8797 12.6284H24.704M6.69722 23.8415C6.69722 26.2232 6.69722 29.8793 11.0103 29.8793C14.4607 29.8793 14.7092 26.7799 15.1876 24.9191C15.2205 24.7916 15.2237 24.6583 15.197 24.5293C15.1703 24.4004 15.1145 24.2793 15.0338 24.1753C14.9531 24.0712 14.8496 23.9871 14.7314 23.9292C14.6131 23.8714 14.4831 23.8413 14.3515 23.8415H6.69722ZM6.69722 23.8415C6.01088 23.8415 5.35265 24.1141 4.86734 24.5994C4.38202 25.0846 4.10938 25.7428 4.10938 26.4291M24.704 29.8793H29.8797V17.8037H26.4292C25.9717 17.8037 25.5328 17.9854 25.2093 18.3089C24.8857 18.6324 24.704 19.0712 24.704 19.5287V29.8793ZM10.0396 9.17821C10.0396 9.63574 10.2213 10.0745 10.5449 10.398C10.8684 10.7216 11.3072 10.9033 11.7648 10.9033C12.2223 10.9033 12.6612 10.7216 12.9847 10.398C13.3082 10.0745 13.49 9.63574 13.49 9.17821C13.49 8.72069 13.3082 8.28191 12.9847 7.95839C12.6612 7.63487 12.2223 7.45312 11.7648 7.45312C11.3072 7.45312 10.8684 7.63487 10.5449 7.95839C10.2213 8.28191 10.0396 8.72069 10.0396 9.17821Z" stroke="black" stroke-width="1.5" stroke-linecap="round" stroke-linejoin="round"/>
</svg>
