<svg width="19" height="19" viewBox="0 0 19 19" fill="none" xmlns="http://www.w3.org/2000/svg">
<path d="M7.91536 4.74992H11.082C11.082 4.32999 10.9152 3.92727 10.6183 3.63033C10.3214 3.3334 9.91862 3.16659 9.4987 3.16659C9.07877 3.16659 8.67604 3.3334 8.37911 3.63033C8.08218 3.92727 7.91536 4.32999 7.91536 4.74992ZM6.33203 4.74992C6.33203 3.91007 6.66566 3.10461 7.25953 2.51075C7.85339 1.91688 8.65884 1.58325 9.4987 1.58325C10.3385 1.58325 11.144 1.91688 11.7379 2.51075C12.3317 3.10461 12.6654 3.91007 12.6654 4.74992H16.6237C16.8337 4.74992 17.035 4.83333 17.1835 4.98179C17.332 5.13026 17.4154 5.33162 17.4154 5.54158C17.4154 5.75155 17.332 5.95291 17.1835 6.10138C17.035 6.24984 16.8337 6.33325 16.6237 6.33325H15.9254L15.224 14.5191C15.1566 15.3095 14.7949 16.0459 14.2106 16.5824C13.6262 17.119 12.8618 17.4167 12.0684 17.4166H6.92895C6.13563 17.4167 5.37117 17.119 4.78682 16.5824C4.20247 16.0459 3.8408 15.3095 3.77336 14.5191L3.07195 6.33325H2.3737C2.16373 6.33325 1.96237 6.24984 1.8139 6.10138C1.66544 5.95291 1.58203 5.75155 1.58203 5.54158C1.58203 5.33162 1.66544 5.13026 1.8139 4.98179C1.96237 4.83333 2.16373 4.74992 2.3737 4.74992H6.33203ZM11.8737 9.49992C11.8737 9.28995 11.7903 9.08859 11.6418 8.94012C11.4934 8.79166 11.292 8.70825 11.082 8.70825C10.8721 8.70825 10.6707 8.79166 10.5222 8.94012C10.3738 9.08859 10.2904 9.28995 10.2904 9.49992V12.6666C10.2904 12.8765 10.3738 13.0779 10.5222 13.2264C10.6707 13.3748 10.8721 13.4583 11.082 13.4583C11.292 13.4583 11.4934 13.3748 11.6418 13.2264C11.7903 13.0779 11.8737 12.8765 11.8737 12.6666V9.49992ZM7.91536 8.70825C8.12533 8.70825 8.32669 8.79166 8.47516 8.94012C8.62362 9.08859 8.70703 9.28995 8.70703 9.49992V12.6666C8.70703 12.8765 8.62362 13.0779 8.47516 13.2264C8.32669 13.3748 8.12533 13.4583 7.91536 13.4583C7.7054 13.4583 7.50404 13.3748 7.35557 13.2264C7.2071 13.0779 7.1237 12.8765 7.1237 12.6666V9.49992C7.1237 9.28995 7.2071 9.08859 7.35557 8.94012C7.50404 8.79166 7.7054 8.70825 7.91536 8.70825ZM5.35036 14.3845C5.38409 14.7799 5.56504 15.1481 5.85738 15.4164C6.14972 15.6847 6.53215 15.8335 6.92895 15.8333H12.0684C12.465 15.8331 12.847 15.6842 13.139 15.4159C13.431 15.1477 13.6117 14.7796 13.6454 14.3845L14.3358 6.33325H4.66161L5.35036 14.3845Z" fill="#C72D2D"/>
</svg>
