<svg width="608" height="512" viewBox="0 0 608 512" fill="none" xmlns="http://www.w3.org/2000/svg">
<g clip-path="url(#clip0_1339_62198)">
<path fill-rule="evenodd" clip-rule="evenodd" d="M325.054 0.882459C371.844 9.42987 382.259 73.7604 418.118 104.927C446.712 129.78 487.3 135.749 512.622 163.909C544.472 199.329 589.44 239.198 580.953 286.012C572.402 333.179 508.276 344.438 473.832 377.873C443.286 407.525 432.058 462.28 390.342 471.041C348.253 479.882 317.598 424.803 274.896 419.657C218.166 412.821 157.549 465.108 107.844 436.999C60.2541 410.087 50.3282 343.779 44.7533 289.51C39.3123 236.544 45.5956 179.437 76.9585 136.347C106.513 95.7414 163.017 90.4861 207.151 66.3886C247.427 44.3967 279.885 -7.36867 325.054 0.882459Z" fill="#EBEBEB"/>
<path d="M332.674 281.129L332.729 289.296L332.662 293.434C337.075 294.52 347.384 296.871 351.079 298.686L351.7 298.943C382.956 309.875 401.094 326.583 404.963 360.756C410.172 406.797 412.889 454.491 409.623 500.78C409.189 506.974 409.285 518.567 402.567 520.898C402.513 522.401 402.398 524.151 402.416 525.633C402.482 529.119 403.074 534.028 401.167 536.821C397.69 539.438 377.275 539.343 373.485 537.551L372.857 537.532C370.117 538.377 362.686 539.276 359.469 539.683C325.081 543.817 290.343 544.086 255.895 540.486C250.245 539.919 239.561 538.949 234.509 537.32L231.774 538.289C231.49 538.343 231.201 538.39 230.911 538.43C225.986 539.143 209.736 539.633 205.674 536.559C203.948 533.967 204.424 528.857 204.449 525.616C204.527 523.534 204.479 522.605 204.267 520.54C197.706 519.58 197.815 502.049 197.423 496.736C195.775 474.102 195.557 451.386 196.777 428.725C197.326 417.551 198.322 406.179 199.095 395.125C201.044 367.296 198.75 337.771 220.957 317.009C231.635 307.029 241.812 303.235 255.194 298.377L255.75 298.237C258.412 296.755 269.965 294.019 273.243 293.193C273.049 290.583 273.092 288.861 273.194 286.234L273.357 281.696C292.8 291.535 313.316 290.155 332.674 281.129Z" fill="#D4B57A"/>
<path d="M231.238 520.048C231.401 511.942 228.98 510.544 229.022 501.349L230.356 364.413C230.399 361.899 230.26 360.318 231.956 358.67L233.006 358.882C235.004 361.669 234.394 402.041 234.376 408.74L234.044 480.802C233.942 489.668 233.097 498.642 233.628 507.501C233.706 508.809 234.056 509.784 234.757 510.894C237.056 514.544 244.022 516.215 248.169 516.813C282.418 521.723 317.814 522.132 352.117 517.617C356.735 517.008 371.475 515.128 371.542 508.975C371.578 505.831 371.33 501.051 371.234 497.737C370.998 489.951 370.854 482.162 370.793 474.372C370.703 447.618 370.775 420.863 371.011 394.11L371.035 374.442C371.029 371.133 370.25 361.083 372.84 359.121L373.576 359.678C375.713 364.317 374.801 385.903 374.795 392.438L374.801 450.652C374.819 459.667 374.771 468.856 374.994 477.858C375.266 488.524 375.978 498.864 375.634 509.56C375.598 513.305 375.532 516.79 375.749 520.533C381 520.872 385.226 521.089 390.441 521.03C392.723 521.005 400.974 520.631 402.568 520.899C402.513 522.402 402.399 524.151 402.417 525.633C402.483 529.12 403.075 534.028 401.167 536.822C397.69 539.439 377.276 539.343 373.485 537.552L372.858 537.532C370.117 538.378 362.687 539.277 359.469 539.684C325.082 543.818 290.344 544.087 255.895 540.487C250.245 539.92 239.561 538.95 234.509 537.321L231.775 538.29C231.491 538.344 231.201 538.391 230.912 538.431C225.986 539.143 209.737 539.634 205.674 536.56C203.948 533.968 204.425 528.857 204.449 525.616C204.528 523.535 204.479 522.606 204.268 520.541C206.586 519.781 223.94 522.361 231.238 520.048Z" fill="#C8A663"/>
<path d="M332.675 281.129L332.729 289.296L332.663 293.434C337.075 294.52 347.385 296.871 351.079 298.686C349.226 299.572 349.654 301.634 348.9 303.384C335.107 335.305 280.559 337.362 261.104 309.872C258.853 306.688 257.464 299.727 255.75 298.237C258.412 296.755 269.965 294.019 273.243 293.193C273.05 290.583 273.092 288.861 273.194 286.234L273.357 281.696C292.8 291.535 313.317 290.155 332.675 281.129Z" fill="#D4B57A"/>
<path d="M332.675 281.129L332.729 289.296L332.663 293.434C332.343 296.082 332.095 302.591 330.725 304.345C328.649 304.987 326.053 307.134 323.965 307.922C306.249 314.598 290.591 313.433 274.317 303.591C272.887 301.958 273.261 295.777 273.243 293.193C273.05 290.583 273.092 288.861 273.195 286.234L273.358 281.696C292.8 291.535 313.317 290.155 332.675 281.129Z" fill="#FEBC8A"/>
<path d="M332.674 281.129L332.728 289.296C327.03 293 320.608 295.464 313.896 296.526C302.324 298.456 285.526 297.132 275.482 290.307C273.351 288.859 273.538 288.442 273.194 286.234L273.357 281.696C292.799 291.535 313.316 290.155 332.674 281.129Z" fill="#F59C5F"/>
<path d="M255.75 298.238C257.464 299.729 258.852 306.689 261.104 309.874C280.558 337.363 335.107 335.306 348.9 303.385C349.654 301.635 349.226 299.573 351.079 298.687L351.7 298.944C351.743 299.55 351.767 300.157 351.779 300.764C352.129 320.652 321.272 332.743 304.045 332.361C287.307 331.99 267.11 326.348 257.832 311.06C255.261 306.817 255.152 303.141 255.195 298.378L255.75 298.238Z" fill="#C8A663"/>
<g clip-path="url(#clip1_1339_62198)">
<path d="M320.31 407.839C319.803 409.15 319.346 410.343 318.875 411.532C317.47 415.11 315.87 418.59 313.414 421.59C311.984 423.336 310.387 424.963 308.083 425.48C304.862 426.202 301.483 425.056 300.501 421.662C299.8 419.237 300.99 416.252 303.061 415.3C303.805 414.959 304.567 414.858 305.347 415.156C305.642 415.271 305.858 415.476 305.894 415.81C305.926 416.094 305.807 416.334 305.559 416.442C303.967 417.139 303.845 418.597 303.712 420.031C303.632 420.864 303.891 421.597 304.413 422.283C305.351 423.526 307.583 423.282 308.694 422.639C310.61 421.525 311.894 419.819 313.116 418.037C315.787 414.132 317.498 409.772 319.206 405.407C319.601 404.398 320.011 403.392 320.346 402.361C320.73 401.183 320.184 400.069 319.134 399.692C318.505 399.466 317.93 399.717 317.387 399.933C314.881 400.935 311.38 405.001 311.869 408.292C311.93 408.694 312.002 409.06 312.293 409.355C312.595 409.657 312.749 409.994 312.523 410.415C312.275 410.874 311.843 410.849 311.43 410.788C309.668 410.533 308.425 408.651 308.752 406.729C309.068 404.886 309.87 403.259 311.045 401.826C312.814 399.663 314.957 398.018 317.764 397.476C319.515 397.138 321.194 397.285 322.42 398.834C323.236 399.861 323.412 401.1 323.52 402.347C323.815 405.716 323.52 409.071 323.272 412.426C323.146 414.125 323.067 415.832 322.984 417.534C322.97 417.818 322.891 418.131 323.114 418.439C323.509 418.184 323.678 417.782 323.887 417.412C324.983 415.462 326.026 413.479 327.18 411.564C329.168 408.263 331.059 404.904 333.216 401.707C333.874 400.734 334.578 399.785 335.308 398.866C336.372 397.526 337.742 397.17 339.111 397.821C339.996 398.241 340.186 398.614 339.83 399.527C339.086 401.441 338.249 403.32 337.548 405.249C335.912 409.746 334.449 414.294 333.96 419.086C333.891 419.751 333.895 420.426 333.942 421.09C334.025 422.251 334.826 422.642 335.836 422.035C336.153 421.845 336.44 421.608 336.724 421.374C336.987 421.159 337.26 420.943 337.587 421.18C337.918 421.417 337.774 421.766 337.677 422.071C337.195 423.598 335.081 424.974 333.543 424.772C331.504 424.503 330.404 423.289 330.325 421.18C330.268 419.65 330.501 418.145 330.803 416.647C331.598 412.724 332.924 408.956 334.161 405.159C334.215 404.994 334.352 404.832 334.208 404.585C333.047 406.165 332.044 407.814 331.03 409.455C328.42 413.683 326.249 418.148 323.786 422.455C323.549 422.872 323.311 423.307 322.93 423.623C321.92 424.456 320.633 424.025 320.396 422.739C320.133 421.302 320.119 419.844 320.256 418.393C320.583 414.984 320.457 411.568 320.453 408.155C320.461 408.105 320.41 408.047 320.31 407.839Z" fill="white"/>
<path d="M266.308 409.58C265.046 409.555 263.813 409.389 262.687 408.779C262.173 408.502 261.724 408.132 261.444 407.604C261.167 407.087 261.206 406.566 261.584 406.113C261.907 405.725 262.342 405.589 262.831 405.783C265.035 406.656 267.285 406.451 269.522 406.006C273.408 405.233 277.111 403.825 280.889 402.69C285.383 401.339 289.912 400.132 294.579 399.525C297.009 399.209 299.45 398.987 301.891 399.443C303.063 399.662 304.163 400.079 305.108 400.822C305.91 401.454 306.406 402.27 306.327 403.329C306.288 403.886 306.086 404.378 305.461 404.526C304.864 404.662 304.508 404.353 304.231 403.865C303.361 402.334 301.833 402.072 300.298 401.961C297.954 401.788 295.646 402.194 293.346 402.586C287.263 403.62 281.439 405.582 275.608 407.532C272.976 408.412 270.33 409.231 267.548 409.49C267.134 409.529 266.721 409.551 266.308 409.58Z" fill="white"/>
<path d="M352.681 386.444C352.326 386.156 351.93 386.253 351.585 386.483C351.1 386.806 350.726 387.255 350.355 387.694C349.302 388.936 348.083 389.993 346.714 390.865C345.571 391.595 344.355 392.141 342.953 392.09C341.544 392.04 340.685 391.21 340.581 389.799C340.53 389.127 340.62 388.466 340.725 387.801C340.814 387.23 341.055 387.043 341.648 387.101C344.445 387.37 346.624 386.12 348.432 384.152C349.493 382.999 350.071 381.594 350.036 379.985C349.996 378.286 348.892 377.183 347.199 377.129C346.214 377.097 345.355 377.488 344.485 377.858C343.834 378.404 343.126 378.886 342.562 379.529C341.235 381.045 340.113 382.686 339.312 384.543C338.945 385.391 338.445 386.16 337.831 386.857C336.838 388.477 335.702 389.982 334.275 391.25C334.106 391.401 333.898 391.526 333.689 391.613C333.042 391.886 332.593 391.609 332.528 390.916C332.456 390.161 332.657 389.45 332.895 388.746C333.718 386.329 334.983 384.123 336.166 381.878C336.605 381.041 337.068 380.208 337.223 379.256C337.288 378.871 337.212 378.501 336.856 378.279C336.493 378.049 336.112 378.081 335.738 378.289C335.289 378.537 335.044 378.961 334.804 379.378C334.203 380.416 333.646 381.483 333.02 382.507C331.277 385.373 329.418 388.153 326.974 390.485C326.165 391.257 325.252 391.889 324.148 392.169C323.048 392.45 322.253 392.126 321.779 391.25C320.779 389.4 321.276 386.497 322.829 385.107C323.138 384.831 323.465 384.572 323.767 384.288C328.171 380.168 331.363 375.204 333.836 369.754C334.591 368.095 335.253 366.392 335.418 364.542C335.616 362.304 334.203 361.097 332.057 361.708C331.726 361.801 331.406 361.945 331.101 362.1C329.673 362.829 328.717 364.043 327.815 365.307C326.553 367.078 325.611 369.043 324.522 370.915C324.403 371.213 324.303 371.522 324.162 371.809C322.336 375.584 320.902 379.5 319.949 383.591C319.705 384.637 319.654 385.754 319.007 386.684C318.202 387.841 317.346 388.962 316.397 390.003C315.822 390.636 315.254 391.286 314.474 391.677C313.643 392.094 313.09 391.72 313.158 390.797C313.216 390.032 313.435 389.296 313.773 388.606C314.38 387.36 315.006 386.124 315.624 384.885C315.937 384.26 316.181 383.617 316.257 382.916C316.361 381.932 316.023 381.163 315.175 380.613C314.614 380.251 313.981 380.136 313.359 379.97C312.144 379.644 312.116 379.575 312.439 378.394C312.457 378.325 312.471 378.257 312.486 378.192C312.615 377.603 312.536 377.061 311.968 376.741C311.382 376.411 310.803 376.526 310.304 376.964C309.786 377.424 309.581 378.049 309.563 378.706C309.513 380.43 308.819 381.943 308.006 383.39C306.763 385.607 305.292 387.683 303.818 389.752C303.484 390.219 303.153 390.704 302.693 391.059C302.111 391.512 301.65 391.365 301.456 390.643C301.374 390.337 301.352 390.003 301.366 389.684C301.402 388.721 301.73 387.83 302.129 386.968C303.071 384.938 304.142 382.966 305.015 380.901C305.213 380.43 305.404 379.956 305.425 379.442C305.443 379.008 305.339 378.602 304.9 378.394C304.483 378.2 304.084 378.286 303.732 378.566C303.419 378.814 303.193 379.13 303.009 379.482C302.92 379.658 302.887 379.942 302.639 379.927C302.387 379.913 302.402 379.622 302.323 379.439C301.661 377.919 300.36 377.305 298.76 377.779C297.577 378.128 296.621 378.839 295.719 379.651C294.856 380.43 294.241 381.422 293.483 382.287C293.13 382.909 292.764 383.52 292.429 384.152C291.48 385.948 290.456 387.697 289.215 389.31C288.486 390.262 287.759 391.221 286.674 391.814C286.372 391.979 286.048 392.173 285.703 391.925C285.354 391.674 285.459 391.307 285.527 390.97C285.815 389.54 286.343 388.186 286.875 386.835C287.396 385.506 287.964 384.188 288.141 382.751C288.317 381.289 287.986 380.635 286.782 380.064C285.304 379.988 284.182 380.725 283.143 381.655C281.119 383.466 279.53 385.66 277.758 387.69C277.589 387.884 277.471 388.146 277.054 388.236C277.575 386.835 277.974 385.578 279.11 384.554C282.626 381.393 285.588 377.736 288.259 373.842C289.514 372.01 290.653 370.114 291.369 367.994C291.664 367.114 291.901 366.227 291.703 365.282C291.505 364.352 290.995 363.824 290.057 363.644C289.028 363.447 288.141 363.849 287.321 364.381C286.203 365.106 285.344 366.108 284.592 367.2C282.73 369.905 281.159 372.775 279.786 375.757C279.167 377.097 278.563 378.44 277.952 379.784C277.356 381.357 276.755 382.93 276.169 384.507C275.925 385.165 275.558 385.743 275.098 386.271C273.408 388.204 271.596 390.014 269.655 391.688C267.933 393.172 266.082 394.461 263.878 395.162C260.348 396.286 257.364 394.799 256.195 391.286C255.602 389.5 255.509 387.658 255.836 385.815C256.835 380.186 259.24 375.161 262.541 370.538C264.281 368.098 266.294 365.914 268.904 364.359C269.81 363.82 270.784 363.465 271.862 363.547C272.56 363.601 273.171 363.827 273.505 364.513C273.699 364.693 273.793 364.93 273.872 365.167C274.397 366.759 274.131 368.292 273.512 369.798C273.059 371.213 272.326 372.434 271.115 373.347C270.46 373.842 270.317 374.41 270.59 375.046C270.867 375.696 271.445 375.983 272.247 375.857C272.962 375.746 273.538 375.355 274.037 374.866C276.288 372.664 277.266 369.916 277.37 366.83C277.42 365.361 277.057 363.985 276.058 362.85C274.67 361.273 272.837 361.004 270.881 361.105C269.353 361.184 267.951 361.694 266.581 362.326C264.525 363.597 262.677 365.121 261.081 366.935C257.508 370.994 255.005 375.642 253.355 380.754C252.302 384.019 251.756 387.349 252.439 390.779C253.388 395.564 257.033 398.448 261.893 398.215C263.925 398.118 265.762 397.367 267.455 396.272C269.562 394.91 271.381 393.208 273.139 391.429C273.315 391.25 273.451 390.984 273.764 390.97C273.836 391.225 273.725 391.411 273.663 391.605C273.419 392.399 273.135 393.182 272.937 393.987C272.815 394.486 272.944 394.978 273.487 395.198C273.994 395.406 274.451 395.248 274.796 394.842C275.019 394.58 275.199 394.278 275.385 393.991C277.503 390.7 279.908 387.633 282.665 384.856C283.406 384.109 284.132 383.311 285.106 382.83C285.286 382.74 285.495 382.607 285.685 382.776C285.85 382.923 285.753 383.128 285.703 383.297C285.48 384.048 285.261 384.802 285.002 385.542C284.445 387.133 283.812 388.696 283.431 390.345C283.23 391.207 283.125 392.072 283.406 392.942C283.78 394.109 284.93 394.713 286.099 394.346C286.541 394.206 286.947 393.987 287.328 393.718C288.141 393.139 288.86 392.457 289.503 391.695C289.6 391.58 289.686 391.386 289.877 391.437C290.067 391.487 290.053 391.692 290.071 391.843C290.38 394.17 292.57 395.162 294.727 393.969C296.085 393.218 297.16 392.151 298.167 390.995C298.462 390.657 298.735 390.298 299.105 389.845C299.17 390.521 299.199 391.041 299.271 391.559C299.529 393.394 301.104 394.199 302.751 393.348C303.268 393.078 303.714 392.712 304.127 392.31C306.867 389.648 308.833 386.458 310.412 383.013C311.026 381.673 311.001 381.662 312.378 382.194C313.575 382.654 313.787 383.067 313.32 384.252C312.831 385.499 312.267 386.713 311.752 387.949C311.235 389.192 310.803 390.449 310.879 391.832C310.972 393.516 312.108 394.397 313.751 393.98C314.83 393.707 315.732 393.103 316.537 392.36C317.317 391.638 318.062 390.88 318.727 390.05C318.824 389.928 318.921 389.745 319.101 389.781C319.334 389.827 319.298 390.072 319.313 390.24C319.377 390.912 319.503 391.562 319.751 392.195C320.359 393.746 321.578 394.547 323.246 394.494C324.324 394.458 325.255 394.005 326.143 393.448C327.585 392.543 328.789 391.368 329.896 390.09C330.019 389.949 330.094 389.702 330.436 389.788C330.346 390.621 330.22 391.469 330.472 392.306C330.914 393.768 332.301 394.422 333.707 393.822C334.638 393.423 335.411 392.805 336.073 392.054C336.684 391.361 337.27 390.65 337.87 389.946C337.96 389.842 338.035 389.702 338.197 389.738C338.334 389.766 338.337 389.906 338.345 390.021C338.424 391.297 338.97 392.371 339.775 393.33C340.304 393.657 340.807 394.019 341.429 394.177C342.878 394.54 344.273 394.397 345.614 393.757C348.339 392.46 350.499 390.467 352.423 388.193C352.599 387.985 352.717 387.726 352.825 387.471C352.98 387.104 353.016 386.72 352.681 386.444ZM341.9 384.633C342.716 383.045 343.658 381.551 344.995 380.34C345.269 380.093 345.592 379.909 345.948 379.787C346.944 379.453 347.533 379.877 347.53 381.034C347.479 382.194 346.854 383.142 345.883 383.904C344.852 384.716 343.669 385.111 342.364 385.154C342.026 385.161 341.627 385.165 341.9 384.633ZM322.347 382.844C322.53 381.889 322.775 380.951 323.109 380.039C324.874 375.258 326.934 370.627 330.011 366.511C330.579 365.749 331.201 365.034 332.007 364.51C332.262 364.345 332.532 364.165 332.841 364.33C333.164 364.503 333.092 364.844 333.125 365.174C332.931 366.55 332.424 367.869 331.859 369.155C329.882 373.656 327.473 377.905 324.274 381.666C323.824 382.194 323.343 382.693 322.775 383.099C322.667 383.175 322.548 383.308 322.408 383.218C322.271 383.139 322.318 382.977 322.347 382.844ZM280.965 378.354C282.557 374.866 284.377 371.507 286.595 368.371C287.037 367.75 287.565 367.197 288.184 366.744C288.464 366.539 288.791 366.331 289.14 366.55C289.525 366.795 289.445 367.204 289.341 367.556C288.874 369.133 288.187 370.624 287.321 372.017C285.333 375.218 283.028 378.182 280.433 380.915C280.307 381.048 280.167 381.17 280.027 381.289C279.998 381.314 279.944 381.314 279.753 381.361C280.081 380.261 280.53 379.31 280.965 378.354ZM299.839 385.111C298.821 386.9 297.696 388.62 296.341 390.176C295.762 390.84 295.082 391.397 294.299 391.817C293.817 392.072 293.289 392.302 292.8 391.947C292.321 391.598 292.35 391.013 292.404 390.481C292.541 389.202 292.972 388.006 293.529 386.86C294.514 384.834 295.715 382.952 297.34 381.368C297.775 380.944 298.253 380.585 298.803 380.33C300.09 379.733 301.011 380.323 301.032 381.864C300.899 382.959 300.435 384.062 299.839 385.111Z" fill="white"/>
<path d="M336.527 373.864C336.566 372.955 336.915 372.208 337.738 371.759C338.723 371.22 339.776 371.68 340.057 372.772C340.312 373.774 340.01 374.644 339.284 375.348C338.788 375.829 338.162 376.052 337.494 375.721C336.746 375.344 336.498 374.669 336.527 373.864Z" fill="white"/>
</g>
<path d="M336.131 278.607L341.156 275.383L341.499 275.539C350.333 279.458 361.497 280.726 365.089 291.382C367.045 297.166 367.153 298.61 366.683 304.431C356.928 319.352 327.005 325.273 310.789 328.693C308.72 329.13 305.473 330.33 303.588 329.595C305.111 328.931 311.903 320.787 314.087 318.771C319.378 313.887 324.871 309.403 329.905 304.277C330.43 303.873 330.949 303.462 331.462 303.043C332.954 297.98 332.579 293.087 332.551 287.802C332.523 285.601 332.279 283.074 332.115 280.85L336.131 278.607Z" fill="#D4B57A"/>
<path d="M269.642 278.607L264.616 275.383L264.273 275.539C255.439 279.458 244.275 280.726 240.683 291.382C238.728 297.166 238.619 298.61 239.09 304.431C248.844 319.352 278.768 325.273 294.983 328.693C297.053 329.13 300.299 330.33 302.185 329.595C300.662 328.931 293.869 320.787 291.685 318.771C286.395 313.887 280.902 309.403 275.868 304.277C275.342 303.873 274.824 303.462 274.311 303.043C272.818 297.98 273.194 293.087 273.221 287.802C273.249 285.601 273.493 283.074 273.657 280.85L269.642 278.607Z" fill="#D4B57A"/>
<path d="M332.116 280.85L336.131 278.607C342.327 281.847 348.263 285.174 343.648 292.963C341.779 296.118 334.817 302.154 331.462 303.044C332.955 297.981 332.58 293.088 332.552 287.802C332.524 285.602 332.28 283.075 332.116 280.85Z" fill="#C8A663"/>
<path d="M273.657 280.85L269.642 278.607C263.446 281.847 257.51 285.174 262.125 292.963C263.994 296.118 270.957 302.154 274.311 303.044C272.818 297.981 273.194 293.088 273.222 287.802C273.249 285.602 273.493 283.075 273.657 280.85Z" fill="#C8A663"/>
<path d="M363.062 304.43L365.361 305.287C360.973 317.431 332.053 328.094 319.851 328.643C317.873 328.413 317.35 328.484 315.452 328.702C315.123 329.339 314.966 329.501 314.538 330.089C309.797 331.689 293.008 331.481 287.52 330.626C285.477 330.307 285.331 330.103 284.495 328.724C282.687 328.364 281.83 328.547 280.04 328.757L279.541 328.75C271.459 328.579 233.046 315.658 237.292 305.225C240.079 307.46 241.809 309.737 244.934 311.835C257.897 320.54 273.46 325.327 288.746 327.893C291.862 328.417 296.109 330.255 298.296 330.266L299.628 329.483L299.967 329.594C301.852 330.328 305.099 329.128 307.168 328.692C323.384 325.272 353.307 319.35 363.062 304.43Z" fill="#C8A663"/>
<path d="M276.281 305.633C277.848 306.336 279.429 307.008 281.024 307.65C298.678 314.624 313.582 311.021 330.003 304.355C324.808 309.488 319.14 313.979 313.681 318.869C311.428 320.888 304.419 329.042 302.847 329.707L302.498 329.597C295.879 321.531 284.035 313.238 276.281 305.633Z" fill="white"/>
<path d="M295.295 92.9004C307.363 82.8882 306.185 83.8065 315.516 97.4283C318.78 104.403 330.51 83.2026 324.782 88.6895C336.301 92.6842 348.433 97.4334 349.444 111.387C365.547 123.082 367.448 143.459 367.696 161.863C367.72 163.571 366.766 169.944 367.098 170.99C368.74 172.363 368.903 172.382 369.006 174.647C372.941 175 374.927 174.798 377.595 178.015C381.839 183.132 382.327 191.847 381.706 198.141C380.993 205.396 378.102 214.204 372.313 219.041C369.947 221.019 368.722 220.999 365.819 221.492C363.815 242.647 359.299 260.835 342.062 274.969C341.38 275.527 340.687 276.073 339.984 276.606L334.959 279.829L330.944 282.072C329.348 282.771 327.733 283.425 326.101 284.033C307.989 290.743 291.412 289.908 273.943 281.905L271.215 280.513C269.5 279.595 267.93 278.474 266.316 277.384C246.71 262.518 241.6 244.928 239.409 221.31C224.049 218.368 220.63 194.681 224.802 182.378C226.841 176.363 229.763 175.758 235.404 174.431C235.872 174.321 235.945 172.647 236.021 172.162L237.881 170.959C238.126 169.861 237.419 160.782 237.453 158.805C237.534 152.848 238.018 146.454 239.232 140.624C241.415 130.14 245.577 117.715 255.139 111.842C256.665 110.905 256.427 109.342 256.652 107.646C257.308 96.8896 272.271 91.7691 280.654 88.6098C273.869 80.9668 288.428 99.9741 295.295 92.9004Z" fill="#803C07"/>
<path d="M296.573 97.1246C308.641 87.1125 306.788 81.994 316.119 95.6158C319.383 102.591 330.509 83.2015 324.781 88.6883C336.301 92.6831 348.433 97.4323 349.443 111.385C365.547 123.081 367.448 143.458 367.695 161.862C367.72 163.57 366.766 169.943 367.098 170.989C366.12 171.185 364.092 171.222 363.023 171.274C352.334 171.39 341.567 169.794 330.894 170.379C321.214 170.91 315.023 170.546 308.097 177.994C304.814 178.249 300.237 178.174 296.843 178.201L296.573 177.924C295.324 176.645 293.117 174.263 291.593 173.615C277.731 167.722 256.79 171.407 242.199 171.23C240.278 171.304 239.725 171.233 237.881 170.958C238.126 169.859 237.419 160.781 237.452 158.804C237.533 152.847 238.017 146.453 239.231 140.623C241.414 130.139 245.576 117.714 255.139 111.841C256.665 110.904 256.426 109.341 256.651 107.645C257.308 96.8884 272.271 91.768 280.654 88.6087C273.868 80.9657 289.706 104.198 296.573 97.1246Z" fill="#FEBC8A"/>
<path d="M300.728 99.2382C312.796 89.226 304.978 87.1252 314.309 100.747C317.573 107.722 330.51 83.2019 324.782 88.6887C336.301 92.6835 348.433 97.4327 349.444 111.386C348.509 117.385 347.401 119.687 343.045 124.055C336.18 130 330.162 133.783 321.3 136.255C301.101 141.888 278.352 138.351 262.852 123.716C257.388 117.951 256.771 115.228 256.652 107.645C257.308 96.8889 272.271 91.7684 280.654 88.6091C273.869 80.9661 293.86 106.312 300.728 99.2382Z" fill="#FEBC8A"/>
<path d="M292.277 101.35C304.345 91.3383 301.658 93.7646 310.989 107.386C314.253 114.361 330.509 83.2019 324.781 88.6887C313.106 85.1666 292.038 84.854 280.653 88.6091C273.868 80.9661 285.409 108.424 292.277 101.35Z" fill="#803C07"/>
<path d="M237.881 170.958C238.126 169.859 237.419 160.781 237.452 158.803C237.533 152.846 238.017 146.453 239.231 140.622C241.414 130.139 245.576 117.714 255.139 111.841C256.665 110.903 256.426 109.341 256.651 107.645C256.771 115.227 257.388 117.951 262.852 123.715C249.069 136.559 242.847 151.496 242.217 170.427C242.208 170.694 242.202 170.962 242.199 171.229C240.278 171.304 239.725 171.233 237.881 170.958Z" fill="#A06A48"/>
<path d="M349.443 111.385C365.546 123.08 367.448 143.457 367.695 161.861C367.719 163.57 366.766 169.942 367.098 170.988C366.12 171.184 364.092 171.222 363.023 171.273C362.456 151.534 357.868 137.848 343.045 124.054C347.401 119.686 348.509 117.383 349.443 111.385Z" fill="#A06A48"/>
<path d="M321.92 150.936C330.12 150.553 347.358 153.788 351.658 163.855C351.926 164.481 351.502 164.98 351.142 165.455C349.463 166.297 349.117 166.528 347.189 166.577C338.363 163.798 331.383 162.6 322.146 161.831C315.925 161.312 314.113 153.616 321.92 150.936Z" fill="#4E2606"/>
<path d="M278.133 151.047C286.499 150.794 292.781 156.421 285.201 161.007C282.687 162.528 268.233 163.596 262.802 165.125C262.051 165.374 261.296 165.607 260.536 165.826C258.14 166.503 254.558 167.152 253.821 164.079C255.674 155.572 270.691 151.613 278.133 151.047Z" fill="#4E2606"/>
<path d="M308.096 177.994C315.023 170.546 321.214 170.91 330.894 170.379C341.566 169.794 352.334 171.39 363.023 171.274C364.091 171.223 366.119 171.185 367.097 170.989C368.739 172.362 368.902 172.381 369.005 174.646C372.94 174.999 374.926 174.797 377.594 178.014C381.838 183.131 382.327 191.846 381.705 198.14C380.993 205.395 378.101 214.204 372.313 219.04C369.946 221.018 368.721 220.998 365.818 221.492L365.824 212.061C365.86 207.948 365.812 194.824 364.212 191.589C360.934 207.059 359.087 216.678 347.279 228.329C337.183 220.796 329.724 219.157 317.576 217.771C316.703 217.762 314.36 217.654 313.807 218.236C308.967 223.448 300.689 225.655 294.635 221.24C291.166 218.71 292.216 217.972 287.823 217.791C289.032 217.607 289.807 217.422 290.991 217.108C291.45 213.395 291.294 209.36 291.753 205.353C286.992 211.729 281.135 214.405 273.309 215.193C245.655 217.979 243.965 204.065 241.818 181.808C236.878 178.415 236.219 178.152 236.02 172.161L237.88 170.958C239.724 171.233 240.277 171.304 242.198 171.23C256.79 171.407 277.73 167.722 291.592 173.615C293.117 174.264 295.324 176.645 296.573 177.924L296.843 178.202C300.237 178.174 304.813 178.249 308.096 177.994Z" fill="#841D13"/>
<path d="M363.211 181.585C366.935 179.137 367.394 178.764 369.005 174.646C372.941 175 374.927 174.798 377.595 178.015C381.838 183.132 382.327 191.847 381.705 198.141C380.993 205.396 378.102 214.204 372.313 219.041C369.947 221.019 368.722 220.999 365.818 221.492L365.824 212.062C365.861 207.949 365.812 194.825 364.213 191.59C360.935 207.059 359.088 216.679 347.28 228.33C337.184 220.796 329.725 219.158 317.577 217.772C316.103 217.523 314.299 217.675 313.021 217.026C313.09 213.137 313.26 211.912 312.587 207.91C312.198 205.603 311.09 201.743 311.188 199.745C314.902 208.195 321.333 213.647 330.484 214.772C361.521 218.585 359.728 203.522 363.211 181.585Z" fill="#FEBC8A"/>
<path d="M364.213 191.588C365.348 188.911 366.235 186.04 369.181 184.926C372.875 183.528 374.426 188.055 374.752 190.815C375.5 197.216 373.104 203.662 369.313 208.738C367.991 210.523 366.615 211.161 365.825 212.059C365.861 207.947 365.812 194.823 364.213 191.588Z" fill="#F59C5F"/>
<path d="M291.753 205.354C292.154 204.114 293.592 201.636 294.176 199.88C295.681 195.349 296.609 191.025 297.63 186.392C299.27 184.495 303.266 183.405 305.285 184.761C309.058 187.294 309.7 195.215 311.187 199.746C311.09 201.744 312.197 205.604 312.586 207.911C313.26 211.913 313.089 213.138 313.021 217.026C314.298 217.676 316.103 217.524 317.576 217.773C316.703 217.764 314.36 217.655 313.807 218.237C308.967 223.45 300.689 225.657 294.635 221.242C291.166 218.712 292.216 217.974 287.823 217.792C289.032 217.608 289.807 217.424 290.991 217.11C291.45 213.397 291.294 209.361 291.753 205.354Z" fill="#F59C5F"/>
<path d="M255.609 174.533C264.201 173.798 274.843 174.273 283.422 175.112C294.369 176.183 294.572 184.559 292.478 193.268C290.813 200.193 288.288 204.997 282.081 208.847C274.643 211.968 262.379 213.159 254.526 208.738C246.8 204.389 244.239 185.6 247.662 177.867C248.672 175.585 253.153 174.931 255.609 174.533Z" fill="#FEBC8A"/>
<path d="M272.455 181.733C283.816 181.431 284.117 195.501 275.387 200.478C266.324 201.235 263.033 186.652 272.455 181.733Z" fill="#0D0D0C"/>
<path d="M275.165 184.629C276.056 184.377 277.014 184.63 277.663 185.29C278.313 185.95 278.552 186.911 278.286 187.799C278.021 188.686 277.292 189.358 276.387 189.552C275.049 189.838 273.724 189.011 273.394 187.682C273.064 186.353 273.848 185.002 275.165 184.629Z" fill="white"/>
<path d="M325.324 174.581C331.643 173.819 349.33 173.727 354.929 176.187C361.635 179.133 358.219 198.966 355.092 203.982C352.409 208.29 350.625 209.214 345.764 210.472L345.503 210.529C327.761 214.285 313.652 207.082 312.116 187.885C311.185 176.244 315.104 175.9 325.324 174.581Z" fill="#FEBC8A"/>
<path d="M329.638 181.607C340.099 182.963 340.418 195.742 331.766 200.574C322.664 200.473 320.499 186.352 329.638 181.607Z" fill="#0D0D0C"/>
<path d="M330.204 185.074C330.944 184.518 331.926 184.405 332.773 184.778C333.62 185.151 334.199 185.953 334.287 186.875C334.375 187.796 333.958 188.693 333.198 189.22C332.053 190.014 330.484 189.746 329.668 188.616C328.852 187.486 329.091 185.911 330.204 185.074Z" fill="white"/>
<path d="M239.409 221.308C224.049 218.367 220.63 194.679 224.802 182.376C226.841 176.361 229.763 175.757 235.404 174.43C235.872 174.319 235.945 172.646 236.021 172.16C236.22 178.152 236.879 178.414 241.819 181.808C243.966 204.064 245.656 217.978 273.31 215.193C281.136 214.405 286.993 211.728 291.754 205.352C291.295 209.359 291.451 213.395 290.991 217.108C289.808 217.422 289.033 217.606 287.824 217.79C276.511 218.61 266.801 221.099 257.795 228.384C244.708 217.594 244.411 204.872 240.779 191.046C239.566 196.83 239.151 206.261 239.105 212.253C239.206 214.793 239.497 218.885 239.409 221.308Z" fill="#FEBC8A"/>
<path d="M239.104 212.253C221.557 196.523 234.111 173.479 240.778 191.045C239.565 196.829 239.15 206.261 239.104 212.253Z" fill="#F59C5F"/>
<path d="M275.432 230.48C286.301 232.841 294.57 235.71 306.078 234.877C309.035 234.664 310.949 234.528 313.958 234.059C318.059 233.419 326.47 230.41 330.021 231.169C333.557 234.558 327.824 241.278 325.369 243.959C320.296 248.288 316.285 250.355 309.073 251.951C296.595 254.713 277.775 248.774 274.286 235.014C273.772 232.985 274.252 232.092 275.432 230.48Z" fill="white"/>
<path d="M237.952 170.957L243.083 171.258C243.725 168.47 249.761 142.418 256.362 131.118C261.909 134.199 267.461 135.268 273.789 135.764C280.673 136.652 287.623 136.924 294.556 136.578C308.866 135.83 322.976 132.884 336.386 127.844C339.427 126.709 349.984 121.873 350.28 122.909C325.476 116.631 362.27 149.858 361.391 171.258H367.125C372.787 147.523 369.514 147.952 368.575 140.23C367.974 132.897 365.506 125.84 361.405 119.727C366.993 116.889 375.052 110.474 374.657 103.344C374.657 103.122 374.657 103.196 374.657 103.344C374.434 101.025 370.38 104.059 369.341 104.602C369.737 103.27 370.528 99.3223 367.957 100.26C367.957 99.5444 368.13 97.5952 367.19 97.2745C366.251 96.9537 364.891 98.3601 364.273 98.8042C363.089 99.6759 361.832 100.444 360.515 101.099C359.18 100.457 357.821 99.7911 356.461 99.2236C353.741 98.0887 350.997 97.0278 348.204 96.0902C345.359 94.9439 342.641 93.5051 340.095 91.7971C328.994 85.1602 316.979 79.2387 303.876 78.2025C290.424 77.0922 276.992 80.5717 265.779 88.0716C260.802 91.348 256.491 95.5336 253.072 100.408C251.292 103.048 245.655 113.262 251.836 114.299C232.083 128.461 237.507 168.366 237.952 170.957Z" fill="#663B13"/>
<g clip-path="url(#clip2_1339_62198)">
<path d="M462.774 210.223C462.774 206.478 461.294 202.886 458.659 200.238C456.025 197.589 452.452 196.102 448.726 196.102C446.882 196.102 445.055 196.467 443.35 197.177C441.646 197.886 440.098 198.926 438.793 200.238C437.489 201.549 436.454 203.106 435.748 204.819C435.042 206.533 434.679 208.369 434.679 210.223V251.423L422.709 265.527L462.436 265.405L462.774 251.435V210.223Z" fill="#4B2F91"/>
<path d="M525.496 196.101V173.549C525.496 173.138 525.334 172.744 525.045 172.454C524.756 172.163 524.364 172 523.955 172H412.728C412.321 172 411.93 172.162 411.641 172.451C411.352 172.741 411.189 173.133 411.188 173.543C411.139 182.787 410.873 230.699 411.079 253.445C411.083 254.339 411.189 255.23 411.393 256.1C411.588 256.948 411.873 257.773 412.245 258.56C412.614 259.333 413.061 260.066 413.58 260.746C414.096 261.412 414.679 262.023 415.32 262.568C416.626 263.686 418.151 264.514 419.797 264.998C420.78 265.289 421.795 265.456 422.818 265.496C423.765 265.53 424.712 265.45 425.64 265.259C426.472 265.093 427.282 264.834 428.057 264.488C428.826 264.161 429.559 263.754 430.244 263.273C430.922 262.785 431.549 262.229 432.117 261.615C432.684 261.001 433.186 260.329 433.615 259.61C434.053 258.886 434.411 258.116 434.685 257.315C434.977 256.497 435.179 255.65 435.289 254.788C435.344 254.302 435.373 253.813 435.374 253.324V210.563C435.374 202.904 441.295 196.381 448.908 196.107C450.795 196.039 452.676 196.353 454.439 197.032C456.202 197.71 457.811 198.739 459.171 200.056C460.53 201.374 461.611 202.953 462.349 204.7C463.088 206.447 463.469 208.325 463.469 210.223" fill="url(#paint0_linear_1339_62198)"/>
<g style="mix-blend-mode:multiply" opacity="0.12">
<path d="M455.82 251.423L456.158 210.223C456.158 202.425 457.626 196.102 449.868 196.102H542.667C547.754 196.103 552.633 198.135 556.23 201.752C559.827 205.368 561.849 210.272 561.85 215.386V274.364C561.85 302.954 556.594 329.485 581.39 357H473.879C455.602 342.945 455.82 321.127 455.82 297.986V251.423Z" fill="#1B1464"/>
</g>
<path d="M568.467 274.364V215.386C568.465 210.272 566.443 205.368 562.846 201.752C559.249 198.135 554.371 196.103 549.283 196.102H448.727C452.452 196.102 456.025 197.589 458.66 200.238C461.294 202.886 462.774 206.478 462.774 210.223L462.436 251.423V297.986C462.436 321.127 462.218 342.933 480.495 357H588.019C563.21 329.485 568.467 302.954 568.467 274.364Z" fill="url(#paint1_linear_1339_62198)"/>
<path d="M539.224 236.383H534.377V227.924H539.224V229.394H536.162V231.251H539.011V232.721H536.162V234.902H539.224V236.383Z" fill="#837BBC"/>
<path d="M530.435 229.296C530.093 229.296 529.79 229.363 529.525 229.498C529.264 229.629 529.044 229.82 528.863 230.071C528.687 230.322 528.553 230.624 528.461 230.979C528.368 231.334 528.322 231.734 528.322 232.177C528.322 232.775 528.395 233.286 528.541 233.711C528.691 234.131 528.921 234.453 529.232 234.677C529.543 234.897 529.944 235.007 530.435 235.007C530.776 235.007 531.118 234.968 531.459 234.891C531.805 234.814 532.179 234.704 532.582 234.561V236.066C532.21 236.22 531.843 236.33 531.482 236.395C531.122 236.465 530.717 236.499 530.268 236.499C529.401 236.499 528.687 236.32 528.127 235.961C527.57 235.599 527.158 235.093 526.889 234.445C526.621 233.793 526.486 233.034 526.486 232.166C526.486 231.525 526.573 230.939 526.745 230.407C526.918 229.874 527.171 229.413 527.505 229.024C527.839 228.634 528.251 228.333 528.743 228.121C529.234 227.909 529.798 227.803 530.435 227.803C530.853 227.803 531.271 227.857 531.69 227.965C532.112 228.069 532.515 228.214 532.898 228.399L532.323 229.857C532.008 229.706 531.692 229.575 531.373 229.463C531.055 229.352 530.742 229.296 530.435 229.296Z" fill="#837BBC"/>
<path d="M522.958 236.383V227.924H524.742V236.383H522.958Z" fill="#837BBC"/>
<path d="M521.214 232.142C521.214 232.794 521.133 233.388 520.972 233.924C520.811 234.457 520.565 234.916 520.235 235.302C519.909 235.687 519.495 235.984 518.992 236.193C518.489 236.397 517.895 236.499 517.208 236.499C516.521 236.499 515.926 236.397 515.423 236.193C514.921 235.984 514.504 235.687 514.174 235.302C513.848 234.916 513.605 234.455 513.443 233.919C513.282 233.382 513.202 232.786 513.202 232.131C513.202 231.255 513.344 230.493 513.628 229.845C513.915 229.193 514.357 228.688 514.951 228.329C515.546 227.97 516.302 227.791 517.219 227.791C518.132 227.791 518.883 227.97 519.47 228.329C520.061 228.688 520.498 229.193 520.782 229.845C521.07 230.497 521.214 231.263 521.214 232.142ZM515.072 232.142C515.072 232.732 515.145 233.242 515.291 233.67C515.441 234.094 515.673 234.422 515.987 234.654C516.302 234.881 516.709 234.995 517.208 234.995C517.714 234.995 518.125 234.881 518.439 234.654C518.754 234.422 518.982 234.094 519.124 233.67C519.27 233.242 519.343 232.732 519.343 232.142C519.343 231.255 519.178 230.557 518.848 230.048C518.518 229.538 517.975 229.284 517.219 229.284C516.717 229.284 516.306 229.4 515.987 229.631C515.673 229.859 515.441 230.187 515.291 230.615C515.145 231.039 515.072 231.548 515.072 232.142Z" fill="#837BBC"/>
<path d="M512.511 227.924L509.65 236.383H507.705L504.85 227.924H506.652L508.235 232.958C508.261 233.043 508.306 233.203 508.367 233.438C508.428 233.67 508.49 233.916 508.551 234.179C508.616 234.437 508.66 234.651 508.683 234.821C508.706 234.651 508.747 234.437 508.804 234.179C508.866 233.92 508.925 233.675 508.983 233.444C509.044 233.209 509.088 233.047 509.115 232.958L510.71 227.924H512.511Z" fill="#837BBC"/>
<path d="M503.785 236.383H501.517L497.857 229.984H497.805C497.82 230.25 497.834 230.518 497.845 230.788C497.857 231.058 497.868 231.328 497.88 231.598C497.891 231.864 497.903 232.132 497.914 232.402V236.383H496.32V227.924H498.57L502.225 234.26H502.266C502.258 233.997 502.248 233.737 502.237 233.479C502.225 233.22 502.214 232.962 502.202 232.703C502.195 232.445 502.187 232.186 502.179 231.928V227.924H503.785V236.383Z" fill="#837BBC"/>
<path d="M492.417 236.383V227.924H494.202V236.383H492.417Z" fill="#837BBC"/>
<path d="M480.471 314.5H484.096" stroke="#8289E8" stroke-width="2" stroke-miterlimit="10"/>
<path d="M490.76 314.5H554.098" stroke="#8289E8" stroke-width="2" stroke-miterlimit="10" stroke-dasharray="11.03 11.03"/>
<path d="M557.428 314.5H561.053" stroke="#8289E8" stroke-width="2" stroke-miterlimit="10"/>
<path d="M504.063 257.57H502.755V253.969C502.755 253.87 502.757 253.748 502.76 253.603C502.762 253.456 502.767 253.305 502.772 253.152C502.778 252.996 502.784 252.856 502.789 252.731C502.758 252.768 502.695 252.832 502.599 252.922C502.506 253.01 502.418 253.09 502.336 253.161L501.625 253.735L500.994 252.944L502.988 251.348H504.063V257.57Z" fill="#858CE8"/>
<path d="M493.45 257.57L491.96 252.688H491.922C491.927 252.805 491.936 252.981 491.947 253.216C491.961 253.449 491.974 253.697 491.985 253.961C491.997 254.225 492.002 254.463 492.002 254.676V257.57H490.83V251.348H492.616L494.081 256.106H494.106L495.66 251.348H497.447V257.57H496.223V254.625C496.223 254.429 496.226 254.203 496.232 253.948C496.24 253.693 496.25 253.45 496.261 253.22C496.272 252.988 496.281 252.813 496.287 252.697H496.248L494.652 257.57H493.45Z" fill="#858CE8"/>
<path d="M489.534 257.57H485.969V251.348H489.534V252.429H487.282V253.795H489.377V254.876H487.282V256.48H489.534V257.57Z" fill="#858CE8"/>
<path d="M483.336 257.57H482.023V252.446H480.343V251.348H485.017V252.446H483.336V257.57Z" fill="#858CE8"/>
<path d="M478.078 257.57V251.348H479.391V257.57H478.078Z" fill="#858CE8"/>
<path d="M560.691 254.459C560.691 254.961 560.652 255.409 560.573 255.804C560.497 256.198 560.372 256.533 560.2 256.808C560.031 257.083 559.808 257.293 559.531 257.438C559.255 257.583 558.919 257.655 558.524 257.655C558.027 257.655 557.619 257.529 557.3 257.276C556.981 257.021 556.746 256.655 556.593 256.178C556.441 255.699 556.365 255.126 556.365 254.459C556.365 253.787 556.434 253.212 556.572 252.735C556.713 252.256 556.942 251.888 557.258 251.633C557.574 251.378 557.996 251.25 558.524 251.25C559.018 251.25 559.424 251.378 559.743 251.633C560.065 251.886 560.303 252.252 560.459 252.731C560.614 253.208 560.691 253.784 560.691 254.459ZM557.664 254.459C557.664 254.933 557.69 255.329 557.741 255.646C557.794 255.961 557.883 256.198 558.007 256.357C558.132 256.516 558.304 256.595 558.524 256.595C558.741 256.595 558.912 256.517 559.036 256.361C559.163 256.202 559.253 255.966 559.307 255.651C559.361 255.333 559.387 254.936 559.387 254.459C559.387 253.985 559.361 253.589 559.307 253.272C559.253 252.954 559.163 252.715 559.036 252.557C558.912 252.395 558.741 252.314 558.524 252.314C558.304 252.314 558.132 252.395 558.007 252.557C557.883 252.715 557.794 252.954 557.741 253.272C557.69 253.589 557.664 253.985 557.664 254.459Z" fill="#858CE8"/>
<path d="M555.729 254.459C555.729 254.961 555.69 255.409 555.611 255.804C555.535 256.198 555.411 256.533 555.238 256.808C555.069 257.083 554.846 257.293 554.57 257.438C554.293 257.583 553.957 257.655 553.562 257.655C553.065 257.655 552.657 257.529 552.338 257.276C552.02 257.021 551.784 256.655 551.631 256.178C551.479 255.699 551.403 255.126 551.403 254.459C551.403 253.787 551.472 253.212 551.61 252.735C551.751 252.256 551.98 251.888 552.296 251.633C552.612 251.378 553.034 251.25 553.562 251.25C554.056 251.25 554.462 251.378 554.781 251.633C555.103 251.886 555.341 252.252 555.497 252.731C555.652 253.208 555.729 253.784 555.729 254.459ZM552.703 254.459C552.703 254.933 552.728 255.329 552.779 255.646C552.832 255.961 552.921 256.198 553.045 256.357C553.17 256.516 553.342 256.595 553.562 256.595C553.779 256.595 553.95 256.517 554.074 256.361C554.201 256.202 554.292 255.966 554.345 255.651C554.399 255.333 554.426 254.936 554.426 254.459C554.426 253.985 554.399 253.589 554.345 253.272C554.292 252.954 554.201 252.715 554.074 252.557C553.95 252.395 553.779 252.314 553.562 252.314C553.342 252.314 553.17 252.395 553.045 252.557C552.921 252.715 552.832 252.954 552.779 253.272C552.728 253.589 552.703 253.985 552.703 254.459Z" fill="#858CE8"/>
<path d="M549.112 256.962C549.112 256.695 549.184 256.508 549.328 256.4C549.475 256.292 549.651 256.238 549.857 256.238C550.058 256.238 550.23 256.292 550.374 256.4C550.521 256.508 550.594 256.695 550.594 256.962C550.594 257.217 550.521 257.402 550.374 257.515C550.23 257.629 550.058 257.685 549.857 257.685C549.651 257.685 549.475 257.629 549.328 257.515C549.184 257.402 549.112 257.217 549.112 256.962Z" fill="#858CE8"/>
<path d="M548.295 254.459C548.295 254.961 548.256 255.409 548.177 255.804C548.101 256.198 547.976 256.533 547.804 256.808C547.635 257.083 547.412 257.293 547.135 257.438C546.859 257.583 546.523 257.655 546.128 257.655C545.631 257.655 545.223 257.529 544.904 257.276C544.585 257.021 544.35 256.655 544.197 256.178C544.045 255.699 543.969 255.126 543.969 254.459C543.969 253.787 544.038 253.212 544.176 252.735C544.317 252.256 544.546 251.888 544.862 251.633C545.178 251.378 545.6 251.25 546.128 251.25C546.622 251.25 547.028 251.378 547.347 251.633C547.669 251.886 547.907 252.252 548.063 252.731C548.218 253.208 548.295 253.784 548.295 254.459ZM545.268 254.459C545.268 254.933 545.294 255.329 545.345 255.646C545.398 255.961 545.487 256.198 545.611 256.357C545.736 256.516 545.908 256.595 546.128 256.595C546.345 256.595 546.516 256.517 546.64 256.361C546.767 256.202 546.857 255.966 546.911 255.651C546.965 255.333 546.991 254.936 546.991 254.459C546.991 253.985 546.965 253.589 546.911 253.272C546.857 252.954 546.767 252.715 546.64 252.557C546.516 252.395 546.345 252.314 546.128 252.314C545.908 252.314 545.736 252.395 545.611 252.557C545.487 252.715 545.398 252.954 545.345 253.272C545.294 253.589 545.268 253.985 545.268 254.459Z" fill="#858CE8"/>
<path d="M543.368 257.569H539.041V256.654L540.595 255.075C540.908 254.752 541.159 254.482 541.348 254.267C541.54 254.048 541.678 253.85 541.763 253.671C541.851 253.492 541.894 253.301 541.894 253.096C541.894 252.85 541.825 252.665 541.687 252.543C541.551 252.418 541.369 252.356 541.141 252.356C540.901 252.356 540.668 252.411 540.442 252.522C540.216 252.632 539.981 252.79 539.735 252.994L539.024 252.147C539.202 251.994 539.389 251.849 539.587 251.713C539.787 251.577 540.019 251.468 540.281 251.385C540.547 251.3 540.864 251.258 541.234 251.258C541.64 251.258 541.989 251.332 542.28 251.479C542.573 251.627 542.799 251.828 542.957 252.083C543.115 252.336 543.194 252.623 543.194 252.943C543.194 253.286 543.126 253.6 542.991 253.884C542.855 254.167 542.658 254.448 542.398 254.726C542.141 255.004 541.831 255.312 541.467 255.65L540.671 256.403V256.463H543.368V257.569Z" fill="#858CE8"/>
<path d="M537.313 257.57H536.005V253.969C536.005 253.87 536.007 253.748 536.01 253.603C536.012 253.456 536.017 253.305 536.022 253.152C536.028 252.996 536.034 252.856 536.039 252.731C536.008 252.768 535.945 252.832 535.849 252.922C535.756 253.01 535.668 253.09 535.586 253.161L534.875 253.735L534.244 252.944L536.238 251.348H537.313V257.57Z" fill="#858CE8"/>
<path d="M530.963 258.077V257.222C530.588 257.213 530.252 257.178 529.956 257.115C529.662 257.05 529.394 256.964 529.152 256.856V255.732C529.391 255.848 529.678 255.955 530.011 256.051C530.344 256.145 530.661 256.202 530.963 256.222V254.902C530.518 254.726 530.161 254.556 529.892 254.392C529.627 254.224 529.435 254.04 529.317 253.838C529.201 253.634 529.143 253.39 529.143 253.106C529.143 252.817 529.219 252.567 529.372 252.357C529.527 252.144 529.741 251.974 530.015 251.847C530.289 251.719 530.605 251.639 530.963 251.608V250.957H531.543V251.591C531.871 251.603 532.176 251.641 532.458 251.706C532.743 251.768 533.022 251.861 533.296 251.983L532.898 252.979C532.667 252.882 532.434 252.807 532.2 252.753C531.968 252.699 531.75 252.664 531.543 252.647V253.902C531.857 254.018 532.155 254.145 532.437 254.281C532.719 254.417 532.949 254.59 533.127 254.8C533.305 255.01 533.394 255.285 533.394 255.626C533.394 256.049 533.24 256.403 532.932 256.69C532.627 256.976 532.164 257.148 531.543 257.205V258.077H530.963ZM531.543 256.192C531.741 256.158 531.886 256.1 531.98 256.017C532.073 255.932 532.119 255.823 532.119 255.69C532.119 255.61 532.098 255.539 532.056 255.477C532.013 255.414 531.948 255.356 531.861 255.302C531.776 255.246 531.67 255.189 531.543 255.132V256.192ZM530.963 253.664V252.664C530.848 252.681 530.749 252.709 530.667 252.749C530.585 252.786 530.523 252.834 530.481 252.893C530.439 252.953 530.417 253.024 530.417 253.106C530.417 253.189 530.436 253.261 530.472 253.323C530.512 253.386 530.571 253.444 530.65 253.498C530.732 253.552 530.836 253.607 530.963 253.664Z" fill="#858CE8"/>
<path d="M504.063 271.685H502.755V268.085C502.755 267.985 502.757 267.863 502.76 267.719C502.762 267.571 502.767 267.421 502.772 267.267C502.778 267.111 502.784 266.971 502.789 266.846C502.758 266.883 502.695 266.947 502.599 267.038C502.506 267.126 502.418 267.205 502.336 267.276L501.625 267.85L500.994 267.059L502.988 265.463H504.063V271.685Z" fill="#858CE8"/>
<path d="M493.45 271.685L491.96 266.804H491.922C491.927 266.92 491.936 267.096 491.947 267.331C491.961 267.564 491.974 267.812 491.985 268.076C491.997 268.34 492.002 268.578 492.002 268.791V271.685H490.83V265.463H492.616L494.081 270.221H494.106L495.66 265.463H497.447V271.685H496.223V268.74C496.223 268.544 496.226 268.319 496.232 268.063C496.24 267.808 496.25 267.565 496.261 267.335C496.272 267.103 496.281 266.928 496.287 266.812H496.248L494.652 271.685H493.45Z" fill="#858CE8"/>
<path d="M489.534 271.685H485.969V265.463H489.534V266.544H487.282V267.91H489.377V268.991H487.282V270.596H489.534V271.685Z" fill="#858CE8"/>
<path d="M483.336 271.685H482.023V266.561H480.343V265.463H485.017V266.561H483.336V271.685Z" fill="#858CE8"/>
<path d="M478.078 271.685V265.463H479.391V271.685H478.078Z" fill="#858CE8"/>
<path d="M560.691 268.574C560.691 269.076 560.652 269.525 560.573 269.919C560.497 270.313 560.372 270.648 560.2 270.923C560.031 271.199 559.808 271.409 559.531 271.553C559.255 271.698 558.919 271.77 558.524 271.77C558.027 271.77 557.619 271.644 557.3 271.392C556.981 271.136 556.746 270.77 556.593 270.294C556.441 269.814 556.365 269.241 556.365 268.574C556.365 267.902 556.434 267.327 556.572 266.851C556.713 266.371 556.942 266.004 557.258 265.748C557.574 265.493 557.996 265.365 558.524 265.365C559.018 265.365 559.424 265.493 559.743 265.748C560.065 266.001 560.303 266.367 560.459 266.846C560.614 267.323 560.691 267.899 560.691 268.574ZM557.664 268.574C557.664 269.048 557.69 269.444 557.741 269.762C557.794 270.077 557.883 270.313 558.007 270.472C558.132 270.631 558.304 270.711 558.524 270.711C558.741 270.711 558.912 270.633 559.036 270.477C559.163 270.318 559.253 270.081 559.307 269.766C559.361 269.448 559.387 269.051 559.387 268.574C559.387 268.1 559.361 267.705 559.307 267.387C559.253 267.069 559.163 266.831 559.036 266.672C558.912 266.51 558.741 266.429 558.524 266.429C558.304 266.429 558.132 266.51 558.007 266.672C557.883 266.831 557.794 267.069 557.741 267.387C557.69 267.705 557.664 268.1 557.664 268.574Z" fill="#858CE8"/>
<path d="M555.729 268.574C555.729 269.076 555.69 269.525 555.611 269.919C555.535 270.313 555.411 270.648 555.238 270.923C555.069 271.199 554.846 271.409 554.57 271.553C554.293 271.698 553.957 271.77 553.562 271.77C553.065 271.77 552.657 271.644 552.338 271.392C552.02 271.136 551.784 270.77 551.631 270.294C551.479 269.814 551.403 269.241 551.403 268.574C551.403 267.902 551.472 267.327 551.61 266.851C551.751 266.371 551.98 266.004 552.296 265.748C552.612 265.493 553.034 265.365 553.562 265.365C554.056 265.365 554.462 265.493 554.781 265.748C555.103 266.001 555.341 266.367 555.497 266.846C555.652 267.323 555.729 267.899 555.729 268.574ZM552.703 268.574C552.703 269.048 552.728 269.444 552.779 269.762C552.832 270.077 552.921 270.313 553.045 270.472C553.17 270.631 553.342 270.711 553.562 270.711C553.779 270.711 553.95 270.633 554.074 270.477C554.201 270.318 554.292 270.081 554.345 269.766C554.399 269.448 554.426 269.051 554.426 268.574C554.426 268.1 554.399 267.705 554.345 267.387C554.292 267.069 554.201 266.831 554.074 266.672C553.95 266.51 553.779 266.429 553.562 266.429C553.342 266.429 553.17 266.51 553.045 266.672C552.921 266.831 552.832 267.069 552.779 267.387C552.728 267.705 552.703 268.1 552.703 268.574Z" fill="#858CE8"/>
<path d="M549.112 271.077C549.112 270.81 549.184 270.623 549.328 270.515C549.475 270.407 549.651 270.354 549.857 270.354C550.058 270.354 550.23 270.407 550.374 270.515C550.521 270.623 550.594 270.81 550.594 271.077C550.594 271.332 550.521 271.517 550.374 271.63C550.23 271.744 550.058 271.801 549.857 271.801C549.651 271.801 549.475 271.744 549.328 271.63C549.184 271.517 549.112 271.332 549.112 271.077Z" fill="#858CE8"/>
<path d="M548.295 268.574C548.295 269.076 548.256 269.525 548.177 269.919C548.101 270.313 547.976 270.648 547.804 270.923C547.635 271.199 547.412 271.409 547.135 271.553C546.859 271.698 546.523 271.77 546.128 271.77C545.631 271.77 545.223 271.644 544.904 271.392C544.585 271.136 544.35 270.77 544.197 270.294C544.045 269.814 543.969 269.241 543.969 268.574C543.969 267.902 544.038 267.327 544.176 266.851C544.317 266.371 544.546 266.004 544.862 265.748C545.178 265.493 545.6 265.365 546.128 265.365C546.622 265.365 547.028 265.493 547.347 265.748C547.669 266.001 547.907 266.367 548.063 266.846C548.218 267.323 548.295 267.899 548.295 268.574ZM545.268 268.574C545.268 269.048 545.294 269.444 545.345 269.762C545.398 270.077 545.487 270.313 545.611 270.472C545.736 270.631 545.908 270.711 546.128 270.711C546.345 270.711 546.516 270.633 546.64 270.477C546.767 270.318 546.857 270.081 546.911 269.766C546.965 269.448 546.991 269.051 546.991 268.574C546.991 268.1 546.965 267.705 546.911 267.387C546.857 267.069 546.767 266.831 546.64 266.672C546.516 266.51 546.345 266.429 546.128 266.429C545.908 266.429 545.736 266.51 545.611 266.672C545.487 266.831 545.398 267.069 545.345 267.387C545.294 267.705 545.268 268.1 545.268 268.574Z" fill="#858CE8"/>
<path d="M543.368 271.685H539.041V270.77L540.595 269.191C540.908 268.867 541.159 268.598 541.348 268.382C541.54 268.164 541.678 267.965 541.763 267.786C541.851 267.607 541.894 267.416 541.894 267.212C541.894 266.965 541.825 266.78 541.687 266.658C541.551 266.533 541.369 266.471 541.141 266.471C540.901 266.471 540.668 266.526 540.442 266.637C540.216 266.748 539.981 266.905 539.735 267.109L539.024 266.263C539.202 266.109 539.389 265.965 539.587 265.828C539.787 265.692 540.019 265.583 540.281 265.501C540.547 265.416 540.864 265.373 541.234 265.373C541.64 265.373 541.989 265.447 542.28 265.594C542.573 265.742 542.799 265.943 542.957 266.199C543.115 266.451 543.194 266.738 543.194 267.058C543.194 267.402 543.126 267.715 542.991 267.999C542.855 268.283 542.658 268.564 542.398 268.842C542.141 269.12 541.831 269.428 541.467 269.765L540.671 270.518V270.578H543.368V271.685Z" fill="#858CE8"/>
<path d="M537.313 271.685H536.005V268.085C536.005 267.985 536.007 267.863 536.01 267.719C536.012 267.571 536.017 267.421 536.022 267.267C536.028 267.111 536.034 266.971 536.039 266.846C536.008 266.883 535.945 266.947 535.849 267.038C535.756 267.126 535.668 267.205 535.586 267.276L534.875 267.85L534.244 267.059L536.238 265.463H537.313V271.685Z" fill="#858CE8"/>
<path d="M530.963 272.19V271.335C530.588 271.326 530.252 271.291 529.956 271.229C529.662 271.163 529.394 271.077 529.152 270.969V269.845C529.391 269.962 529.678 270.068 530.011 270.165C530.344 270.258 530.661 270.315 530.963 270.335V269.016C530.518 268.84 530.161 268.669 529.892 268.505C529.627 268.337 529.435 268.153 529.317 267.952C529.201 267.747 529.143 267.503 529.143 267.22C529.143 266.93 529.219 266.68 529.372 266.471C529.527 266.258 529.741 266.087 530.015 265.96C530.289 265.832 530.605 265.753 530.963 265.721V265.07H531.543V265.704C531.871 265.716 532.176 265.754 532.458 265.819C532.743 265.882 533.022 265.974 533.296 266.096L532.898 267.092C532.667 266.995 532.434 266.92 532.2 266.866C531.968 266.812 531.75 266.777 531.543 266.76V268.015C531.857 268.132 532.155 268.258 532.437 268.394C532.719 268.53 532.949 268.703 533.127 268.913C533.305 269.123 533.394 269.399 533.394 269.739C533.394 270.162 533.24 270.516 532.932 270.803C532.627 271.09 532.164 271.261 531.543 271.318V272.19H530.963ZM531.543 270.305C531.741 270.271 531.886 270.213 531.98 270.131C532.073 270.045 532.119 269.936 532.119 269.803C532.119 269.723 532.098 269.653 532.056 269.59C532.013 269.528 531.948 269.47 531.861 269.416C531.776 269.359 531.67 269.302 531.543 269.245V270.305ZM530.963 267.777V266.777C530.848 266.794 530.749 266.822 530.667 266.862C530.585 266.899 530.523 266.947 530.481 267.007C530.439 267.066 530.417 267.137 530.417 267.22C530.417 267.302 530.436 267.374 530.472 267.437C530.512 267.499 530.571 267.557 530.65 267.611C530.732 267.665 530.836 267.72 530.963 267.777Z" fill="#858CE8"/>
<path d="M504.063 285.048H502.755V281.448C502.755 281.349 502.757 281.227 502.76 281.082C502.762 280.934 502.767 280.784 502.772 280.631C502.778 280.475 502.784 280.334 502.789 280.209C502.758 280.246 502.695 280.31 502.599 280.401C502.506 280.489 502.418 280.568 502.336 280.639L501.625 281.214L500.994 280.422L502.988 278.826H504.063V285.048Z" fill="#858CE8"/>
<path d="M493.45 285.048L491.96 280.167H491.922C491.927 280.283 491.936 280.459 491.947 280.695C491.961 280.927 491.974 281.175 491.985 281.439C491.997 281.703 492.002 281.941 492.002 282.154V285.048H490.83V278.826H492.616L494.081 283.584H494.106L495.66 278.826H497.447V285.048H496.223V282.103C496.223 281.907 496.226 281.682 496.232 281.427C496.24 281.171 496.25 280.929 496.261 280.699C496.272 280.466 496.281 280.292 496.287 280.175H496.248L494.652 285.048H493.45Z" fill="#858CE8"/>
<path d="M489.534 285.048H485.969V278.826H489.534V279.907H487.282V281.273H489.377V282.354H487.282V283.959H489.534V285.048Z" fill="#858CE8"/>
<path d="M483.336 285.048H482.023V279.924H480.343V278.826H485.017V279.924H483.336V285.048Z" fill="#858CE8"/>
<path d="M478.078 285.048V278.826H479.391V285.048H478.078Z" fill="#858CE8"/>
<path d="M560.691 281.937C560.691 282.44 560.652 282.888 560.573 283.282C560.497 283.677 560.372 284.012 560.2 284.287C560.031 284.562 559.808 284.772 559.531 284.917C559.255 285.061 558.919 285.134 558.524 285.134C558.027 285.134 557.619 285.007 557.3 284.755C556.981 284.5 556.746 284.134 556.593 283.657C556.441 283.177 556.365 282.604 556.365 281.937C556.365 281.265 556.434 280.69 556.572 280.214C556.713 279.734 556.942 279.367 557.258 279.112C557.574 278.856 557.996 278.729 558.524 278.729C559.018 278.729 559.424 278.856 559.743 279.112C560.065 279.364 560.303 279.73 560.459 280.21C560.614 280.686 560.691 281.262 560.691 281.937ZM557.664 281.937C557.664 282.411 557.69 282.807 557.741 283.125C557.794 283.44 557.883 283.677 558.007 283.836C558.132 283.994 558.304 284.074 558.524 284.074C558.741 284.074 558.912 283.996 559.036 283.84C559.163 283.681 559.253 283.444 559.307 283.129C559.361 282.811 559.387 282.414 559.387 281.937C559.387 281.464 559.361 281.068 559.307 280.75C559.253 280.432 559.163 280.194 559.036 280.035C558.912 279.873 558.741 279.792 558.524 279.792C558.304 279.792 558.132 279.873 558.007 280.035C557.883 280.194 557.794 280.432 557.741 280.75C557.69 281.068 557.664 281.464 557.664 281.937Z" fill="#858CE8"/>
<path d="M555.729 281.937C555.729 282.44 555.69 282.888 555.611 283.282C555.535 283.677 555.411 284.012 555.238 284.287C555.069 284.562 554.846 284.772 554.57 284.917C554.293 285.061 553.957 285.134 553.562 285.134C553.065 285.134 552.657 285.007 552.338 284.755C552.02 284.5 551.784 284.134 551.631 283.657C551.479 283.177 551.403 282.604 551.403 281.937C551.403 281.265 551.472 280.69 551.61 280.214C551.751 279.734 551.98 279.367 552.296 279.112C552.612 278.856 553.034 278.729 553.562 278.729C554.056 278.729 554.462 278.856 554.781 279.112C555.103 279.364 555.341 279.73 555.497 280.21C555.652 280.686 555.729 281.262 555.729 281.937ZM552.703 281.937C552.703 282.411 552.728 282.807 552.779 283.125C552.832 283.44 552.921 283.677 553.045 283.836C553.17 283.994 553.342 284.074 553.562 284.074C553.779 284.074 553.95 283.996 554.074 283.84C554.201 283.681 554.292 283.444 554.345 283.129C554.399 282.811 554.426 282.414 554.426 281.937C554.426 281.464 554.399 281.068 554.345 280.75C554.292 280.432 554.201 280.194 554.074 280.035C553.95 279.873 553.779 279.792 553.562 279.792C553.342 279.792 553.17 279.873 553.045 280.035C552.921 280.194 552.832 280.432 552.779 280.75C552.728 281.068 552.703 281.464 552.703 281.937Z" fill="#858CE8"/>
<path d="M549.112 284.438C549.112 284.172 549.184 283.984 549.328 283.877C549.475 283.769 549.651 283.715 549.857 283.715C550.058 283.715 550.23 283.769 550.374 283.877C550.521 283.984 550.594 284.172 550.594 284.438C550.594 284.694 550.521 284.878 550.374 284.992C550.23 285.105 550.058 285.162 549.857 285.162C549.651 285.162 549.475 285.105 549.328 284.992C549.184 284.878 549.112 284.694 549.112 284.438Z" fill="#858CE8"/>
<path d="M548.295 281.937C548.295 282.44 548.256 282.888 548.177 283.282C548.101 283.677 547.976 284.012 547.804 284.287C547.635 284.562 547.412 284.772 547.135 284.917C546.859 285.061 546.523 285.134 546.128 285.134C545.631 285.134 545.223 285.007 544.904 284.755C544.585 284.5 544.35 284.134 544.197 283.657C544.045 283.177 543.969 282.604 543.969 281.937C543.969 281.265 544.038 280.69 544.176 280.214C544.317 279.734 544.546 279.367 544.862 279.112C545.178 278.856 545.6 278.729 546.128 278.729C546.622 278.729 547.028 278.856 547.347 279.112C547.669 279.364 547.907 279.73 548.063 280.21C548.218 280.686 548.295 281.262 548.295 281.937ZM545.268 281.937C545.268 282.411 545.294 282.807 545.345 283.125C545.398 283.44 545.487 283.677 545.611 283.836C545.736 283.994 545.908 284.074 546.128 284.074C546.345 284.074 546.516 283.996 546.64 283.84C546.767 283.681 546.857 283.444 546.911 283.129C546.965 282.811 546.991 282.414 546.991 281.937C546.991 281.464 546.965 281.068 546.911 280.75C546.857 280.432 546.767 280.194 546.64 280.035C546.516 279.873 546.345 279.792 546.128 279.792C545.908 279.792 545.736 279.873 545.611 280.035C545.487 280.194 545.398 280.432 545.345 280.75C545.294 281.068 545.268 281.464 545.268 281.937Z" fill="#858CE8"/>
<path d="M543.368 285.048H539.041V284.133L540.595 282.554C540.908 282.23 541.159 281.961 541.348 281.745C541.54 281.527 541.678 281.328 541.763 281.149C541.851 280.971 541.894 280.779 541.894 280.575C541.894 280.328 541.825 280.144 541.687 280.022C541.551 279.897 541.369 279.834 541.141 279.834C540.901 279.834 540.668 279.89 540.442 280C540.216 280.111 539.981 280.268 539.735 280.473L539.024 279.626C539.202 279.473 539.389 279.328 539.587 279.192C539.787 279.056 540.019 278.946 540.281 278.864C540.547 278.779 540.864 278.736 541.234 278.736C541.64 278.736 541.989 278.81 542.28 278.958C542.573 279.105 542.799 279.307 542.957 279.562C543.115 279.814 543.194 280.101 543.194 280.422C543.194 280.765 543.126 281.078 542.991 281.362C542.855 281.646 542.658 281.927 542.398 282.205C542.141 282.483 541.831 282.791 541.467 283.128L540.671 283.882V283.941H543.368V285.048Z" fill="#858CE8"/>
<path d="M537.313 285.048H536.005V281.448C536.005 281.349 536.007 281.227 536.01 281.082C536.012 280.934 536.017 280.784 536.022 280.631C536.028 280.475 536.034 280.334 536.039 280.209C536.008 280.246 535.945 280.31 535.849 280.401C535.756 280.489 535.668 280.568 535.586 280.639L534.875 281.214L534.244 280.422L536.238 278.826H537.313V285.048Z" fill="#858CE8"/>
<path d="M530.963 285.554V284.698C530.588 284.69 530.252 284.654 529.956 284.592C529.662 284.527 529.394 284.44 529.152 284.332V283.209C529.391 283.325 529.678 283.431 530.011 283.528C530.344 283.622 530.661 283.678 530.963 283.698V282.379C530.518 282.203 530.161 282.033 529.892 281.868C529.627 281.701 529.435 281.516 529.317 281.315C529.201 281.111 529.143 280.867 529.143 280.583C529.143 280.293 529.219 280.044 529.372 279.834C529.527 279.621 529.741 279.451 530.015 279.323C530.289 279.195 530.605 279.116 530.963 279.085V278.434H531.543V279.068C531.871 279.079 532.176 279.117 532.458 279.183C532.743 279.245 533.022 279.337 533.296 279.459L532.898 280.455C532.667 280.359 532.434 280.283 532.2 280.23C531.968 280.176 531.75 280.14 531.543 280.123V281.379C531.857 281.495 532.155 281.621 532.437 281.757C532.719 281.894 532.949 282.067 533.127 282.277C533.305 282.487 533.394 282.762 533.394 283.102C533.394 283.525 533.24 283.88 532.932 284.166C532.627 284.453 532.164 284.625 531.543 284.681V285.554H530.963ZM531.543 283.668C531.741 283.634 531.886 283.576 531.98 283.494C532.073 283.409 532.119 283.3 532.119 283.166C532.119 283.087 532.098 283.016 532.056 282.953C532.013 282.891 531.948 282.833 531.861 282.779C531.776 282.722 531.67 282.665 531.543 282.609V283.668ZM530.963 281.14V280.14C530.848 280.157 530.749 280.186 530.667 280.225C530.585 280.262 530.523 280.31 530.481 280.37C530.439 280.43 530.417 280.501 530.417 280.583C530.417 280.665 530.436 280.737 530.472 280.8C530.512 280.862 530.571 280.92 530.65 280.974C530.732 281.028 530.836 281.084 530.963 281.14Z" fill="#858CE8"/>
<path d="M563.024 333.638C563.024 334.207 562.979 334.715 562.89 335.162C562.803 335.609 562.663 335.988 562.468 336.3C562.276 336.612 562.023 336.85 561.71 337.014C561.396 337.178 561.016 337.26 560.568 337.26C560.005 337.26 559.543 337.117 559.182 336.83C558.82 336.541 558.553 336.126 558.381 335.586C558.208 335.043 558.122 334.394 558.122 333.638C558.122 332.876 558.2 332.225 558.357 331.685C558.517 331.142 558.776 330.725 559.134 330.436C559.492 330.147 559.97 330.002 560.568 330.002C561.128 330.002 561.588 330.147 561.95 330.436C562.314 330.722 562.584 331.137 562.76 331.68C562.936 332.22 563.024 332.873 563.024 333.638ZM559.594 333.638C559.594 334.175 559.623 334.623 559.681 334.983C559.741 335.34 559.842 335.609 559.983 335.789C560.124 335.969 560.319 336.059 560.568 336.059C560.814 336.059 561.008 335.97 561.148 335.794C561.292 335.614 561.395 335.345 561.456 334.988C561.516 334.628 561.547 334.178 561.547 333.638C561.547 333.101 561.516 332.653 561.456 332.293C561.395 331.933 561.292 331.662 561.148 331.482C561.008 331.299 560.814 331.208 560.568 331.208C560.319 331.208 560.124 331.299 559.983 331.482C559.842 331.662 559.741 331.933 559.681 332.293C559.623 332.653 559.594 333.101 559.594 333.638Z" fill="#5852A0"/>
<path d="M557.402 333.638C557.402 334.207 557.357 334.715 557.268 335.162C557.181 335.609 557.041 335.988 556.846 336.3C556.654 336.612 556.401 336.85 556.088 337.014C555.774 337.178 555.394 337.26 554.946 337.26C554.383 337.26 553.921 337.117 553.56 336.83C553.198 336.541 552.931 336.126 552.759 335.586C552.586 335.043 552.5 334.394 552.5 333.638C552.5 332.876 552.578 332.225 552.735 331.685C552.894 331.142 553.154 330.725 553.512 330.436C553.87 330.147 554.348 330.002 554.946 330.002C555.506 330.002 555.966 330.147 556.328 330.436C556.692 330.722 556.962 331.137 557.138 331.68C557.314 332.22 557.402 332.873 557.402 333.638ZM553.972 333.638C553.972 334.175 554.001 334.623 554.059 334.983C554.119 335.34 554.22 335.609 554.361 335.789C554.501 335.969 554.697 336.059 554.946 336.059C555.192 336.059 555.386 335.97 555.526 335.794C555.67 335.614 555.773 335.345 555.833 334.988C555.894 334.628 555.925 334.178 555.925 333.638C555.925 333.101 555.894 332.653 555.833 332.293C555.773 331.933 555.67 331.662 555.526 331.482C555.386 331.299 555.192 331.208 554.946 331.208C554.697 331.208 554.501 331.299 554.361 331.482C554.22 331.662 554.119 331.933 554.059 332.293C554.001 332.653 553.972 333.101 553.972 333.638Z" fill="#5852A0"/>
<path d="M549.904 336.472C549.904 336.17 549.986 335.958 550.149 335.836C550.315 335.713 550.515 335.652 550.749 335.652C550.976 335.652 551.171 335.713 551.334 335.836C551.5 335.958 551.583 336.17 551.583 336.472C551.583 336.761 551.5 336.97 551.334 337.099C551.171 337.228 550.976 337.292 550.749 337.292C550.515 337.292 550.315 337.228 550.149 337.099C549.986 336.97 549.904 336.761 549.904 336.472Z" fill="#5852A0"/>
<path d="M548.979 333.638C548.979 334.207 548.934 334.715 548.844 335.162C548.758 335.609 548.617 335.988 548.422 336.3C548.23 336.612 547.978 336.85 547.664 337.014C547.351 337.178 546.97 337.26 546.523 337.26C545.96 337.26 545.498 337.117 545.136 336.83C544.775 336.541 544.508 336.126 544.335 335.586C544.163 335.043 544.076 334.394 544.076 333.638C544.076 332.876 544.155 332.225 544.311 331.685C544.471 331.142 544.73 330.725 545.088 330.436C545.447 330.147 545.925 330.002 546.523 330.002C547.082 330.002 547.543 330.147 547.904 330.436C548.269 330.722 548.539 331.137 548.715 331.68C548.891 332.22 548.979 332.873 548.979 333.638ZM545.549 333.638C545.549 334.175 545.578 334.623 545.635 334.983C545.696 335.34 545.797 335.609 545.937 335.789C546.078 335.969 546.273 336.059 546.523 336.059C546.769 336.059 546.962 335.97 547.103 335.794C547.247 335.614 547.349 335.345 547.41 334.988C547.471 334.628 547.501 334.178 547.501 333.638C547.501 333.101 547.471 332.653 547.41 332.293C547.349 331.933 547.247 331.662 547.103 331.482C546.962 331.299 546.769 331.208 546.523 331.208C546.273 331.208 546.078 331.299 545.937 331.482C545.797 331.662 545.696 331.933 545.635 332.293C545.578 332.653 545.549 333.101 545.549 333.638Z" fill="#5852A0"/>
<path d="M538.444 334.167C538.444 333.762 538.473 333.362 538.531 332.966C538.591 332.567 538.695 332.193 538.842 331.843C538.99 331.489 539.196 331.177 539.461 330.907C539.727 330.634 540.064 330.42 540.473 330.266C540.883 330.108 541.379 330.029 541.961 330.029C542.098 330.029 542.258 330.036 542.44 330.049C542.626 330.058 542.779 330.076 542.901 330.102V331.293C542.773 331.264 542.635 331.241 542.488 331.225C542.344 331.206 542.2 331.196 542.056 331.196C541.474 331.196 541.024 331.29 540.704 331.476C540.387 331.662 540.163 331.921 540.032 332.252C539.904 332.58 539.829 332.963 539.807 333.4H539.869C539.959 333.243 540.071 333.103 540.205 332.981C540.342 332.858 540.509 332.762 540.704 332.691C540.899 332.617 541.127 332.58 541.39 332.58C541.799 332.58 542.154 332.669 542.455 332.846C542.755 333.019 542.987 333.272 543.15 333.603C543.313 333.934 543.395 334.337 543.395 334.813C543.395 335.321 543.297 335.758 543.102 336.125C542.907 336.491 542.631 336.773 542.272 336.969C541.917 337.162 541.495 337.258 541.006 337.258C540.648 337.258 540.314 337.197 540.003 337.075C539.693 336.949 539.421 336.76 539.188 336.506C538.954 336.252 538.772 335.932 538.641 335.546C538.51 335.157 538.444 334.697 538.444 334.167ZM540.977 336.067C541.268 336.067 541.505 335.967 541.687 335.768C541.869 335.569 541.961 335.257 541.961 334.832C541.961 334.488 541.881 334.218 541.721 334.022C541.564 333.823 541.326 333.723 541.006 333.723C540.788 333.723 540.597 333.773 540.43 333.873C540.267 333.969 540.141 334.093 540.051 334.244C539.962 334.392 539.917 334.545 539.917 334.702C539.917 334.866 539.939 335.028 539.984 335.189C540.029 335.35 540.096 335.496 540.186 335.628C540.275 335.76 540.386 335.866 540.517 335.946C540.651 336.027 540.804 336.067 540.977 336.067Z" fill="#5852A0"/>
<path d="M537.499 331.69C537.499 332.015 537.432 332.296 537.298 332.534C537.164 332.772 536.981 332.966 536.751 333.117C536.524 333.268 536.268 333.379 535.984 333.45V333.479C536.546 333.55 536.973 333.723 537.264 334C537.559 334.276 537.706 334.646 537.706 335.109C537.706 335.52 537.605 335.889 537.403 336.213C537.205 336.538 536.898 336.794 536.482 336.98C536.067 337.167 535.531 337.26 534.875 337.26C534.488 337.26 534.127 337.228 533.791 337.163C533.459 337.102 533.145 337.007 532.851 336.879V335.61C533.152 335.765 533.467 335.882 533.796 335.963C534.125 336.04 534.432 336.078 534.717 336.078C535.248 336.078 535.619 335.987 535.83 335.803C536.044 335.617 536.151 335.357 536.151 335.022C536.151 334.826 536.102 334.66 536.003 334.525C535.904 334.39 535.731 334.288 535.485 334.217C535.242 334.146 534.901 334.111 534.463 334.111H533.93V332.968H534.472C534.904 332.968 535.232 332.928 535.456 332.847C535.683 332.764 535.836 332.651 535.916 332.51C536 332.365 536.041 332.201 536.041 332.018C536.041 331.767 535.964 331.571 535.811 331.429C535.657 331.288 535.401 331.217 535.043 331.217C534.819 331.217 534.615 331.246 534.429 331.304C534.247 331.359 534.082 331.426 533.935 331.507C533.788 331.584 533.659 331.659 533.547 331.733L532.861 330.706C533.136 330.507 533.457 330.341 533.825 330.209C534.196 330.078 534.637 330.012 535.149 330.012C535.872 330.012 536.444 330.158 536.866 330.451C537.288 330.743 537.499 331.156 537.499 331.69Z" fill="#5852A0"/>
<path d="M527.685 336.473C527.685 336.171 527.766 335.959 527.929 335.836C528.096 335.714 528.295 335.653 528.529 335.653C528.756 335.653 528.951 335.714 529.114 335.836C529.28 335.959 529.364 336.171 529.364 336.473C529.364 336.762 529.28 336.971 529.114 337.1C528.951 337.229 528.756 337.293 528.529 337.293C528.295 337.293 528.096 337.229 527.929 337.1C527.766 336.971 527.685 336.762 527.685 336.473ZM527.685 332.49C527.685 332.188 527.766 331.975 527.929 331.853C528.096 331.731 528.295 331.67 528.529 331.67C528.756 331.67 528.951 331.731 529.114 331.853C529.28 331.975 529.364 332.188 529.364 332.49C529.364 332.782 529.28 332.993 529.114 333.121C528.951 333.247 528.756 333.31 528.529 333.31C528.295 333.31 528.096 333.247 527.929 333.121C527.766 332.993 527.685 332.782 527.685 332.49Z" fill="#5852A0"/>
<path d="M522.451 337.162V330.111H523.938V335.927H526.783V337.162H522.451Z" fill="#5852A0"/>
<path d="M519.962 337.163L519.453 335.485H516.896L516.388 337.163H514.786L517.261 330.084H519.079L521.564 337.163H519.962ZM519.098 334.231L518.59 332.592C518.558 332.482 518.515 332.342 518.46 332.172C518.409 331.998 518.356 331.823 518.302 331.646C518.251 331.466 518.209 331.31 518.177 331.179C518.145 331.31 518.1 331.474 518.043 331.671C517.988 331.863 517.936 332.047 517.885 332.22C517.833 332.394 517.797 332.518 517.774 332.592L517.27 334.231H519.098Z" fill="#5852A0"/>
<path d="M512.684 337.162H511.197V331.356H509.293V330.111H514.589V331.356H512.684V337.162Z" fill="#5852A0"/>
<path d="M508.526 333.628C508.526 334.172 508.458 334.667 508.324 335.114C508.19 335.557 507.985 335.94 507.71 336.261C507.438 336.583 507.093 336.83 506.674 337.004C506.255 337.174 505.759 337.26 505.187 337.26C504.614 337.26 504.119 337.174 503.7 337.004C503.281 336.83 502.934 336.583 502.659 336.261C502.387 335.94 502.184 335.556 502.05 335.109C501.915 334.662 501.848 334.165 501.848 333.619C501.848 332.889 501.966 332.254 502.203 331.714C502.443 331.171 502.811 330.749 503.306 330.45C503.802 330.151 504.432 330.002 505.196 330.002C505.958 330.002 506.583 330.151 507.072 330.45C507.565 330.749 507.929 331.171 508.166 331.714C508.406 332.257 508.526 332.895 508.526 333.628ZM503.407 333.628C503.407 334.12 503.468 334.545 503.589 334.901C503.714 335.255 503.908 335.528 504.17 335.721C504.432 335.911 504.771 336.006 505.187 336.006C505.609 336.006 505.951 335.911 506.213 335.721C506.476 335.528 506.666 335.255 506.784 334.901C506.906 334.545 506.967 334.12 506.967 333.628C506.967 332.889 506.829 332.307 506.554 331.883C506.279 331.458 505.826 331.246 505.196 331.246C504.778 331.246 504.435 331.343 504.17 331.535C503.908 331.725 503.714 331.998 503.589 332.355C503.468 332.709 503.407 333.133 503.407 333.628Z" fill="#5852A0"/>
<path d="M499.176 337.162H497.689V331.356H495.785V330.111H501.081V331.356H499.176V337.162Z" fill="#5852A0"/>
<path d="M475.051 296.09H562.056" stroke="#837BBC" stroke-width="6" stroke-miterlimit="10"/>
<path d="M475.051 306.404H562.056" stroke="#837BBC" stroke-width="6" stroke-miterlimit="10"/>
</g>
<path d="M111.5 314.219C87.9093 314.219 71.3598 313.333 60.9335 312.485C50.453 311.634 42.3663 303.547 41.5152 293.066C40.6674 282.64 39.7812 266.091 39.7812 242.5C39.7812 218.909 40.6674 202.36 41.5152 191.933C42.3663 181.453 50.453 173.366 60.9335 172.515C71.3598 171.667 87.9093 170.781 111.5 170.781C135.091 170.781 151.64 171.667 162.066 172.515C172.547 173.366 180.634 181.453 181.485 191.933C182.333 202.36 183.219 218.909 183.219 242.5C183.219 266.091 182.333 282.64 181.485 293.066C180.634 303.547 172.547 311.634 162.066 312.485C151.64 313.333 135.091 314.219 111.5 314.219Z" fill="white"/>
<path d="M182.46 207.438H40.5366C40.8299 201.254 41.1741 196.103 41.5152 191.933C42.3662 181.453 50.4497 173.366 60.9302 172.515C71.3597 171.667 87.9061 170.781 111.5 170.781C135.091 170.781 151.637 171.667 162.066 172.515C172.547 173.366 180.634 181.453 181.485 191.933C181.823 196.103 182.167 201.251 182.46 207.438Z" fill="#2B2A29"/>
<path fill-rule="evenodd" clip-rule="evenodd" d="M60.5 189.906C60.5 188.638 61.0037 187.422 61.9004 186.525C62.7971 185.629 64.0132 185.125 65.2812 185.125H71.6562C72.9243 185.125 74.1404 185.629 75.0371 186.525C75.9338 187.422 76.4375 188.638 76.4375 189.906C76.4375 191.174 75.9338 192.39 75.0371 193.287C74.1404 194.184 72.9243 194.688 71.6562 194.688H65.2812C64.0132 194.688 62.7971 194.184 61.9004 193.287C61.0037 192.39 60.5 191.174 60.5 189.906ZM90.7812 185.125C89.5132 185.125 88.2971 185.629 87.4004 186.525C86.5037 187.422 86 188.638 86 189.906C86 191.174 86.5037 192.39 87.4004 193.287C88.2971 194.184 89.5132 194.688 90.7812 194.688H97.1562C98.4243 194.688 99.6404 194.184 100.537 193.287C101.434 192.39 101.938 191.174 101.938 189.906C101.938 188.638 101.434 187.422 100.537 186.525C99.6404 185.629 98.4243 185.125 97.1562 185.125H90.7812Z" fill="#E4B96A"/>
<path d="M142 235C130.94 235 122 243.94 122 255C122 266.06 130.94 275 142 275C153.06 275 162 266.06 162 255C162 243.94 153.06 235 142 235ZM152 262.18L149.18 265L142 257.82L134.82 265L132 262.18L139.18 255L132 247.82L134.82 245L142 252.18L149.18 245L152 247.82L144.82 255L152 262.18Z" fill="#C72D2D"/>
<path fill-rule="evenodd" clip-rule="evenodd" d="M79.9997 275C83.6125 275 87.1579 274.022 90.2592 272.169C93.3606 270.315 95.902 267.657 97.6135 264.475C99.325 261.293 100.143 257.707 99.9796 254.097C99.8166 250.488 98.6789 246.99 96.6874 243.976L80.7885 261.642C80.0459 262.468 79.0212 262.985 77.9162 263.093C76.8112 263.201 75.7059 262.891 74.8178 262.224L67.5561 256.778C67.0847 256.424 66.773 255.898 66.6896 255.314C66.6063 254.731 66.7581 254.138 67.1117 253.667C67.4653 253.195 67.9917 252.883 68.5751 252.8C69.1585 252.717 69.7511 252.869 70.2226 253.222L77.4843 258.669L93.8076 240.533C91.4429 238.276 88.5608 236.632 85.4138 235.747C82.2667 234.862 78.9506 234.762 75.7558 235.455C72.5611 236.149 69.585 237.615 67.0883 239.726C64.5916 241.836 62.6503 244.527 61.4345 247.562C60.2187 250.597 59.7653 253.883 60.1142 257.134C60.4631 260.385 61.6035 263.501 63.4356 266.208C65.2677 268.916 67.7357 271.133 70.6234 272.666C73.5111 274.199 76.7305 275 79.9997 275Z" fill="#2A9421"/>
<path d="M94.4064 269.656V268.438C94.4064 268.114 94.5348 267.804 94.7633 267.576C94.9919 267.347 95.3019 267.219 95.6251 267.219C95.9483 267.219 96.2583 267.347 96.4869 267.576C96.7154 267.804 96.8439 268.114 96.8439 268.438V269.656C96.8439 269.98 96.7154 270.29 96.4869 270.518C96.2583 270.747 95.9483 270.875 95.6251 270.875C95.3019 270.875 94.9919 270.747 94.7633 270.518C94.5348 270.29 94.4064 269.98 94.4064 269.656ZM83.4376 281.844H84.6564C84.9796 281.844 85.2896 281.715 85.5181 281.487C85.7467 281.258 85.8751 280.948 85.8751 280.625C85.8751 280.302 85.7467 279.992 85.5181 279.763C85.2896 279.535 84.9796 279.406 84.6564 279.406H83.4376C83.1144 279.406 82.8044 279.535 82.5758 279.763C82.3473 279.992 82.2189 280.302 82.2189 280.625C82.2189 280.948 82.3473 281.258 82.5758 281.487C82.8044 281.715 83.1144 281.844 83.4376 281.844ZM99.9547 271.966C100.098 272.038 100.254 272.08 100.414 272.092C100.573 272.103 100.734 272.083 100.886 272.032C101.038 271.982 101.178 271.902 101.299 271.797C101.42 271.692 101.519 271.564 101.591 271.42L102.81 268.983C102.954 268.694 102.978 268.359 102.876 268.052C102.774 267.746 102.554 267.492 102.265 267.348C101.976 267.203 101.641 267.179 101.335 267.281C101.028 267.383 100.774 267.603 100.63 267.892L99.4108 270.33C99.3391 270.473 99.2962 270.629 99.2847 270.788C99.2732 270.948 99.2932 271.109 99.3437 271.26C99.3942 271.412 99.4742 271.553 99.579 271.674C99.6839 271.795 99.8115 271.894 99.9547 271.966ZM85.3297 284.411L82.8922 285.63C82.6031 285.774 82.3833 286.028 82.2812 286.335C82.1791 286.641 82.2029 286.976 82.3476 287.265C82.4922 287.554 82.7458 287.774 83.0525 287.876C83.3592 287.978 83.6939 287.954 83.983 287.81L86.4205 286.591C86.5636 286.519 86.6913 286.42 86.7961 286.299C86.9009 286.178 86.9809 286.038 87.0315 285.886C87.0821 285.734 87.1023 285.574 87.0909 285.414C87.0795 285.254 87.0367 285.099 86.9651 284.955C86.8935 284.812 86.7944 284.685 86.6734 284.58C86.5525 284.475 86.4121 284.395 86.2602 284.344C86.1083 284.294 85.948 284.274 85.7884 284.285C85.6287 284.296 85.4729 284.339 85.3297 284.411ZM114.411 294.031C114.637 294.258 114.817 294.526 114.939 294.822C115.062 295.118 115.125 295.435 115.125 295.755C115.125 296.075 115.062 296.392 114.939 296.688C114.817 296.984 114.637 297.253 114.411 297.479L112.479 299.411C112.253 299.637 111.984 299.817 111.688 299.939C111.392 300.062 111.075 300.125 110.755 300.125C110.435 300.125 110.118 300.062 109.822 299.939C109.526 299.817 109.258 299.637 109.031 299.411L101.216 291.594L98.5196 298.615C98.5196 298.631 98.5074 298.647 98.4998 298.664C98.3133 299.099 98.003 299.469 97.6075 299.729C97.212 299.989 96.7488 300.127 96.2756 300.125H96.1553C95.6618 300.104 95.1866 299.932 94.794 299.633C94.4014 299.333 94.1102 298.92 93.96 298.449L85.997 274.062C85.8603 273.636 85.8437 273.18 85.9492 272.744C86.0546 272.309 86.2779 271.911 86.5946 271.595C86.9113 271.278 87.3091 271.055 87.7444 270.949C88.1797 270.844 88.6356 270.86 89.0621 270.997L113.449 278.96C113.915 279.116 114.323 279.409 114.62 279.801C114.917 280.193 115.088 280.665 115.111 281.156C115.134 281.647 115.008 282.134 114.75 282.552C114.492 282.97 114.113 283.301 113.664 283.5L113.615 283.52L106.594 286.215L114.411 294.031ZM112.688 295.754L104.871 287.938C104.589 287.657 104.381 287.311 104.264 286.932C104.147 286.552 104.124 286.149 104.198 285.758C104.272 285.368 104.441 285.001 104.689 284.691C104.937 284.38 105.257 284.135 105.622 283.977L105.671 283.955L112.671 281.268L88.3126 273.313L96.2649 297.666L98.9538 290.658C98.9538 290.642 98.966 290.625 98.9736 290.608C99.132 290.244 99.3771 289.924 99.6875 289.676C99.9979 289.428 100.364 289.259 100.755 289.185C100.905 289.157 101.058 289.143 101.212 289.143C101.857 289.143 102.477 289.4 102.933 289.857L110.754 297.688L112.688 295.754Z" fill="black"/>
<path d="M163.561 323.306C163.561 311.684 154.117 305.156 142.5 305.156C130.883 305.156 121.439 311.684 121.439 323.306V348.788C121.439 360.405 130.883 369.844 142.5 369.844C154.117 369.844 163.561 360.405 163.561 348.783V323.306Z" fill="#E0E0E0"/>
<path opacity="0.51" d="M160.704 326.465C160.704 321.694 159.475 315.603 154.844 311.528C152.834 309.759 150.403 308.218 148.284 308.638C144.899 309.312 145.901 313.048 147.281 315.215C148.273 316.773 149.998 318.53 150.214 325.425C150.295 328.104 150.305 330.616 149.524 333.176C147.475 339.888 141.88 338.659 140.969 339.16C139.336 340.06 139.088 342.27 139.082 344.136C139.066 348.594 138.872 353.418 139.341 357.849C139.664 360.906 141.486 364.9 145.201 364.749C148.165 364.631 150.235 363.628 152.65 361.968C157.507 358.636 160.478 353.019 160.478 347.133C160.483 347.127 160.704 326.476 160.704 326.465Z" fill="white"/>
<path d="M143.912 305.194C143.443 305.172 142.953 305.027 142.225 305.701C141.497 306.38 141.271 307.032 141.157 308.833L141.082 326.535H143.912V305.194Z" fill="#B5B5B5"/>
<path d="M159.788 328.881C157.173 327.361 153.589 325.986 148.759 325.329C148.423 325.282 148.115 325.115 147.892 324.86C147.669 324.604 147.546 324.277 147.546 323.938V321.474C147.395 317.21 145.195 315.383 142.295 315.383C139.395 315.383 136.862 316.558 136.614 321.976L136.581 323.819C136.573 324.225 136.422 324.614 136.157 324.921C135.891 325.227 135.526 325.43 135.126 325.496C130.873 326.196 127.649 327.469 125.245 328.865C122.884 330.229 121.444 332.757 121.444 335.479V336.126C121.886 335.328 125.067 330.272 134.808 328.428C135.686 328.261 136.49 328.956 136.473 329.846L136.463 330.347C136.813 335.813 139.39 337.204 142.29 337.204C145.19 337.204 147.594 335.414 147.54 331.452V329.447C147.54 328.687 148.22 328.099 148.969 328.213C159.685 329.835 163.071 335.242 163.556 336.126V335.479C163.561 332.768 162.133 330.245 159.788 328.881Z" fill="#B5B5B5"/>
<path d="M142.5 335.715C140.312 335.715 138.56 333.823 138.56 331.462V321.122C138.56 318.761 140.312 316.869 142.5 316.869C144.689 316.869 146.441 318.761 146.441 321.122V331.462C146.441 333.823 144.689 335.715 142.5 335.715Z" fill="#504F4F"/>
<path d="M145.239 320.423C145.853 324.013 145.578 328.347 145.336 331.253C145.093 334.158 143.691 334.735 142.937 334.902C141.913 335.129 140.748 334.789 140.301 333.695C140.301 333.695 141.395 332.46 141.573 330.725C141.869 327.83 142.053 324.892 141.681 322.008C141.514 320.725 141.487 319.561 140.301 319.189C140.301 319.189 140.538 318.364 141.481 318.003C144.398 316.871 145.098 319.609 145.239 320.423Z" fill="#757575"/>
<path opacity="0.51" d="M135.912 308.395C138.543 307.371 139.325 309.71 139.346 310.223C139.373 311.064 140.004 314.239 138.57 315.074C135.201 317.031 135.988 319.57 134.177 320.319C131.929 321.246 130.867 318.686 130.91 317.009C131.093 309.932 134.635 308.897 135.912 308.395Z" fill="white"/>
</g>
<defs>
<linearGradient id="paint0_linear_1339_62198" x1="468.248" y1="151.434" x2="468.248" y2="292.993" gradientUnits="userSpaceOnUse">
<stop stop-color="#ECEAF4"/>
<stop offset="0.14" stop-color="#E3E1F0"/>
<stop offset="0.36" stop-color="#CAC7E4"/>
<stop offset="0.57" stop-color="#AEAAD7"/>
<stop offset="0.87" stop-color="#847CBE"/>
<stop offset="0.99" stop-color="#696397"/>
</linearGradient>
<linearGradient id="paint1_linear_1339_62198" x1="518.366" y1="263.802" x2="518.366" y2="466.689" gradientUnits="userSpaceOnUse">
<stop stop-color="#ECEAF4"/>
<stop offset="0.14" stop-color="#E3E1F0"/>
<stop offset="0.36" stop-color="#CAC7E4"/>
<stop offset="0.57" stop-color="#AEAAD7"/>
<stop offset="0.87" stop-color="#847CBE"/>
<stop offset="0.99" stop-color="#696397"/>
</linearGradient>
<clipPath id="clip0_1339_62198">
<rect width="608" height="512" fill="white"/>
</clipPath>
<clipPath id="clip1_1339_62198">
<rect width="100.804" height="64.5868" fill="white" transform="translate(252.136 361.096)"/>
</clipPath>
<clipPath id="clip2_1339_62198">
<rect width="177" height="185" fill="white" transform="translate(411 172)"/>
</clipPath>
</defs>
</svg>
