<svg width="608" height="512" viewBox="0 0 608 512" fill="none" xmlns="http://www.w3.org/2000/svg">
<g clip-path="url(#clip0_1339_54427)">
<path fill-rule="evenodd" clip-rule="evenodd" d="M325.054 0.882459C371.844 9.42987 382.259 73.7604 418.118 104.927C446.712 129.78 487.3 135.749 512.622 163.909C544.472 199.329 589.44 239.198 580.953 286.012C572.402 333.179 508.276 344.438 473.832 377.873C443.286 407.525 432.058 462.28 390.342 471.041C348.253 479.882 317.598 424.803 274.896 419.657C218.166 412.821 157.549 465.108 107.844 436.999C60.2541 410.087 50.3282 343.779 44.7533 289.51C39.3123 236.544 45.5956 179.437 76.9585 136.347C106.513 95.7414 163.017 90.4861 207.151 66.3886C247.427 44.3967 279.885 -7.36867 325.054 0.882459Z" fill="#EBEBEB"/>
<path d="M298.712 91.3228C311.122 81.0274 309.91 81.9717 319.506 95.9788C322.862 103.151 334.923 81.3507 329.033 86.9928C340.879 91.1005 353.354 95.9841 354.393 110.332C370.952 122.358 372.907 143.312 373.161 162.237C373.186 163.993 372.205 170.546 372.547 171.621C374.235 173.033 374.403 173.053 374.508 175.381C378.555 175.745 380.597 175.537 383.341 178.845C387.704 184.107 388.207 193.069 387.567 199.541C386.835 207.001 383.862 216.058 377.91 221.031C375.477 223.066 374.216 223.045 371.231 223.553C369.17 245.305 364.527 264.008 346.802 278.542C346.101 279.116 345.389 279.677 344.666 280.225L339.498 283.54L335.369 285.846C333.729 286.565 332.068 287.237 330.39 287.862C311.766 294.762 294.72 293.903 276.756 285.674L273.952 284.243C272.188 283.299 270.574 282.146 268.914 281.025C248.753 265.738 243.499 247.651 241.246 223.364C225.451 220.34 221.935 195.982 226.225 183.331C228.322 177.146 231.327 176.525 237.127 175.16C237.608 175.046 237.684 173.326 237.762 172.826L239.675 171.59C239.927 170.46 239.2 161.125 239.234 159.091C239.317 152.966 239.815 146.392 241.063 140.396C243.308 129.616 247.588 116.84 257.421 110.801C258.99 109.837 258.745 108.23 258.976 106.486C259.651 95.4248 275.037 90.1595 283.657 86.9108C276.68 79.0517 291.651 98.5967 298.712 91.3228Z" fill="#803C07"/>
<path d="M300.027 95.6656C312.437 85.3703 310.531 80.107 320.126 94.1141C323.482 101.286 334.923 81.3486 329.033 86.9907C340.879 91.0984 353.354 95.982 354.393 110.33C370.952 122.356 372.907 143.31 373.161 162.234C373.186 163.991 372.205 170.544 372.547 171.619C371.541 171.821 369.456 171.859 368.357 171.912C357.365 172.032 346.294 170.391 335.319 170.992C325.365 171.538 318.999 171.164 311.877 178.822C308.501 179.085 303.795 179.008 300.305 179.036L300.027 178.75C298.743 177.436 296.473 174.986 294.906 174.32C280.652 168.26 259.119 172.049 244.114 171.867C242.139 171.943 241.571 171.871 239.675 171.588C239.927 170.458 239.2 161.123 239.234 159.089C239.317 152.964 239.815 146.389 241.063 140.394C243.308 129.614 247.588 116.838 257.421 110.798C258.99 109.835 258.745 108.228 258.976 106.483C259.651 95.4228 275.037 90.1575 283.657 86.9088C276.68 79.0496 292.966 102.939 300.027 95.6656Z" fill="#FEBC8A"/>
<path d="M304.298 97.8378C316.708 87.5424 308.669 85.3822 318.264 99.3893C321.62 106.561 334.923 81.3478 329.033 86.9899C340.878 91.0976 353.354 95.9812 354.393 110.329C353.432 116.498 352.292 118.865 347.813 123.357C340.754 129.469 334.566 133.36 325.453 135.902C304.683 141.694 281.29 138.057 265.352 123.008C259.733 117.08 259.099 114.28 258.976 106.483C259.651 95.422 275.037 90.1567 283.657 86.908C276.68 79.0488 297.237 105.112 304.298 97.8378Z" fill="#FEBC8A"/>
<path d="M295.61 100.012C308.019 89.7162 305.256 92.2112 314.851 106.218C318.207 113.39 334.923 81.3496 329.033 86.9917C317.028 83.37 295.364 83.0485 283.657 86.9098C276.68 79.0506 288.548 107.285 295.61 100.012Z" fill="#803C07"/>
<path d="M239.675 171.587C239.927 170.457 239.2 161.122 239.234 159.088C239.317 152.963 239.815 146.388 241.063 140.393C243.308 129.613 247.588 116.837 257.421 110.797C258.99 109.834 258.745 108.227 258.976 106.482C259.099 114.28 259.733 117.08 265.352 123.008C251.179 136.215 244.781 151.574 244.133 171.041C244.124 171.316 244.117 171.591 244.114 171.866C242.139 171.942 241.571 171.87 239.675 171.587Z" fill="#A06A48"/>
<path d="M354.393 110.33C370.952 122.357 372.907 143.31 373.161 162.235C373.186 163.991 372.206 170.544 372.547 171.619C371.541 171.821 369.456 171.86 368.357 171.912C367.774 151.615 363.057 137.542 347.814 123.358C352.293 118.866 353.432 116.498 354.393 110.33Z" fill="#A06A48"/>
<path d="M326.091 151C334.523 150.605 352.248 153.932 356.67 164.284C356.946 164.928 356.509 165.441 356.139 165.929C354.413 166.795 354.058 167.032 352.075 167.082C342.999 164.225 335.821 162.994 326.323 162.202C319.926 161.669 318.063 153.755 326.091 151Z" fill="#4E2606"/>
<path d="M281.064 151.116C289.667 150.855 296.127 156.641 288.333 161.357C285.748 162.921 270.885 164.02 265.3 165.592C264.527 165.847 263.751 166.088 262.969 166.312C260.506 167.009 256.823 167.677 256.065 164.516C257.97 155.769 273.412 151.698 281.064 151.116Z" fill="#4E2606"/>
<path d="M311.876 178.822C318.999 171.164 325.365 171.538 335.319 170.992C346.293 170.391 357.365 172.032 368.357 171.912C369.455 171.859 371.541 171.821 372.546 171.619C374.234 173.031 374.402 173.051 374.508 175.379C378.554 175.743 380.597 175.535 383.34 178.843C387.704 184.105 388.206 193.067 387.567 199.538C386.835 206.999 383.861 216.056 377.909 221.029C375.476 223.064 374.216 223.043 371.23 223.55L371.237 213.853C371.274 209.624 371.224 196.129 369.579 192.802C366.209 208.709 364.31 218.6 352.167 230.581C341.785 222.835 334.116 221.15 321.624 219.725C320.726 219.715 318.317 219.604 317.749 220.202C312.772 225.563 304.259 227.832 298.034 223.292C294.467 220.69 295.547 219.931 291.029 219.745C292.273 219.556 293.069 219.366 294.287 219.043C294.759 215.225 294.599 211.075 295.071 206.955C290.175 213.511 284.152 216.264 276.105 217.074C247.668 219.938 245.931 205.631 243.723 182.744C238.644 179.255 237.966 178.985 237.761 172.824L239.674 171.588C241.57 171.871 242.139 171.943 244.114 171.867C259.118 172.049 280.651 168.26 294.905 174.32C296.473 174.986 298.743 177.436 300.027 178.75L300.304 179.036C303.794 179.008 308.5 179.085 311.876 178.822Z" fill="#841D13"/>
<path d="M368.549 182.514C372.379 179.997 372.851 179.613 374.508 175.379C378.555 175.743 380.597 175.535 383.34 178.842C387.704 184.105 388.206 193.066 387.567 199.538C386.835 206.998 383.862 216.056 377.909 221.029C375.476 223.063 374.216 223.043 371.231 223.55L371.237 213.852C371.274 209.624 371.224 196.129 369.58 192.802C366.209 208.709 364.31 218.6 352.167 230.581C341.786 222.834 334.116 221.149 321.624 219.724C320.109 219.468 318.254 219.625 316.94 218.957C317.01 214.958 317.186 213.698 316.493 209.583C316.094 207.211 314.955 203.242 315.055 201.187C318.874 209.877 325.487 215.483 334.897 216.639C366.811 220.561 364.968 205.071 368.549 182.514Z" fill="#FEBC8A"/>
<path d="M369.58 192.803C370.746 190.05 371.659 187.098 374.688 185.953C378.486 184.516 380.082 189.171 380.417 192.009C381.186 198.591 378.722 205.219 374.824 210.438C373.465 212.274 372.05 212.93 371.237 213.854C371.274 209.625 371.224 196.13 369.58 192.803Z" fill="#F59C5F"/>
<path d="M295.07 206.956C295.483 205.681 296.961 203.132 297.561 201.326C299.109 196.667 300.063 192.221 301.114 187.457C302.8 185.506 306.909 184.386 308.985 185.78C312.864 188.385 313.524 196.53 315.054 201.189C314.954 203.243 316.093 207.212 316.492 209.585C317.185 213.7 317.009 214.96 316.939 218.958C318.253 219.626 320.108 219.47 321.624 219.725C320.725 219.716 318.317 219.605 317.748 220.203C312.771 225.564 304.259 227.833 298.034 223.293C294.466 220.691 295.546 219.932 291.029 219.746C292.272 219.557 293.069 219.367 294.286 219.044C294.758 215.226 294.598 211.076 295.07 206.956Z" fill="#F59C5F"/>
<path d="M257.904 175.262C266.739 174.506 277.682 174.995 286.504 175.858C297.761 176.958 297.969 185.572 295.816 194.527C294.105 201.647 291.508 206.588 285.125 210.546C277.476 213.756 264.866 214.981 256.791 210.435C248.846 205.963 246.212 186.642 249.732 178.691C250.771 176.344 255.378 175.671 257.904 175.262Z" fill="#FEBC8A"/>
<path d="M275.226 182.667C286.909 182.356 287.219 196.824 278.242 201.942C268.922 202.72 265.538 187.725 275.226 182.667Z" fill="#0D0D0C"/>
<path d="M278.013 185.646C278.93 185.386 279.915 185.647 280.582 186.325C281.251 187.004 281.496 187.992 281.223 188.905C280.95 189.817 280.201 190.508 279.27 190.707C277.894 191.002 276.531 190.151 276.192 188.784C275.853 187.418 276.659 186.029 278.013 185.646Z" fill="white"/>
<path d="M329.591 175.313C336.089 174.53 354.277 174.435 360.034 176.965C366.93 179.994 363.417 200.388 360.201 205.545C357.442 209.975 355.608 210.926 350.609 212.219L350.342 212.278C332.097 216.14 317.59 208.733 316.01 188.994C315.052 177.023 319.082 176.67 329.591 175.313Z" fill="#FEBC8A"/>
<path d="M241.246 223.363C225.451 220.338 221.935 195.98 226.225 183.329C228.322 177.144 231.327 176.523 237.127 175.158C237.608 175.044 237.684 173.324 237.762 172.824C237.966 178.985 238.644 179.255 243.724 182.745C245.931 205.631 247.669 219.938 276.105 217.074C284.153 216.264 290.175 213.512 295.071 206.955C294.599 211.075 294.76 215.225 294.287 219.043C293.07 219.366 292.274 219.556 291.03 219.745C279.397 220.588 269.412 223.147 260.152 230.638C246.694 219.544 246.389 206.461 242.654 192.244C241.407 198.192 240.98 207.89 240.933 214.052C241.036 216.664 241.336 220.871 241.246 223.363Z" fill="#FEBC8A"/>
<path d="M240.934 214.051C222.89 197.876 235.799 174.18 242.655 192.244C241.407 198.191 240.98 207.889 240.934 214.051Z" fill="#F59C5F"/>
<path d="M276.805 243.412C288.232 243.901 297.113 245.36 308.627 242.501C311.586 241.767 313.502 241.294 316.469 240.292C320.512 238.925 328.508 234.404 332.239 234.551C336.415 237.366 331.783 245.179 329.765 248.326C325.382 253.601 321.68 256.397 314.652 259.277C302.492 264.26 282.382 261.538 276.438 248.206C275.561 246.241 275.892 245.252 276.805 243.412Z" fill="white"/>
<path d="M239.747 171.586L245.023 171.897C245.684 169.03 251.89 142.24 258.678 130.621C264.382 133.788 270.09 134.888 276.598 135.398C283.677 136.311 290.823 136.591 297.952 136.235C312.667 135.466 327.176 132.436 340.966 127.254C344.093 126.087 354.948 121.114 355.253 122.18C329.747 115.724 367.582 149.891 366.678 171.897H372.574C378.396 147.49 375.031 147.931 374.065 139.99C373.447 132.45 370.91 125.193 366.693 118.907C372.438 115.989 380.725 109.393 380.319 102.061C380.319 101.833 380.319 101.909 380.319 102.061C380.09 99.6761 375.921 102.797 374.853 103.355C375.26 101.985 376.073 97.9255 373.429 98.8896C373.429 98.1538 373.607 96.1495 372.641 95.8197C371.675 95.4899 370.277 96.936 369.642 97.3927C368.424 98.289 367.131 99.0785 365.777 99.7522C364.405 99.0925 363.006 98.4075 361.608 97.824C358.812 96.657 355.99 95.566 353.117 94.6019C350.192 93.4232 347.397 91.9437 344.779 90.1874C333.365 83.3627 321.01 77.2738 307.536 76.2082C293.703 75.0665 279.892 78.6444 268.361 86.3565C263.244 89.7256 258.81 94.0296 255.295 99.0418C253.464 101.756 247.668 112.26 254.023 113.326C233.711 127.888 239.289 168.922 239.747 171.586Z" fill="#663B13"/>
<path d="M326.954 197.436C326.954 197.436 329.342 189.073 337.458 189.026C339.501 188.8 341.55 189.38 343.173 190.643C344.796 191.907 345.865 193.754 346.155 195.797C346.155 195.797 339.195 187.475 326.954 197.436Z" fill="black"/>
<mask id="mask0_1339_54427" style="mask-type:alpha" maskUnits="userSpaceOnUse" x="192" y="274" width="239" height="306">
<path d="M194.435 491.862C195.263 503.035 199.028 529.352 200.021 532.828L204.366 557.656C218.228 562.414 250.049 573.049 266.435 577.518C286.918 583.104 345.263 577.518 371.332 577.518C397.401 577.518 380.021 545.242 393.676 543.38C407.332 541.518 419.745 478.207 419.745 462.069C419.745 445.931 434.642 375.794 429.056 360.897C423.47 346 376.918 298.207 371.332 293.862C366.863 290.387 330.987 279.587 304.918 274.621C284.849 280.828 248.932 278.097 245.952 282.069C242.973 286.042 223.814 317.035 213.676 332.345L203.207 360.614C199.858 369.656 197.77 379.116 197.003 388.728L192.883 440.345L194.435 491.862Z" fill="#D9D9D9"/>
</mask>
<g mask="url(#mask0_1339_54427)">
<path d="M64.3244 275.912C66.5887 277.818 68.8821 279.688 71.2054 281.522C73.2536 282.786 76.0151 284.629 78.1906 285.464C99.5361 293.718 114.208 295.153 135.745 285.705C135.939 285.62 136.133 285.533 136.326 285.446C138.419 284.369 140.745 282.917 142.797 281.704C146.063 279.735 147.547 278.537 150.361 275.973L150.636 276.065C158.504 278.63 168.194 279.277 172.84 287.947C174.27 290.616 174.46 294.072 175.366 296.347C178.33 303.792 181.117 304.362 180.02 312.569C195.797 319.043 202.209 326.643 210.204 341.317C220.034 319.782 232.575 311.314 254.069 303.285L255.529 302.742L257.783 301.922C261.434 300.264 271.245 298.128 275.523 297.116L275.621 292.871C275.577 290.355 275.783 287.486 275.904 284.944C297.788 295.111 314.195 294.017 336.014 284.41L335.504 289.328C335.565 292.336 335.557 294.462 335.324 297.455C339.138 298.23 351.621 302 354.348 302.114L356.231 303.132C375.438 310.089 391.241 318.64 400.428 338.141C402.826 343.281 404.617 348.683 405.766 354.238C410.706 377.313 414.164 433.176 407.044 455.997C405.066 462.333 400.653 467.664 394.652 470.637C390.08 472.902 383.925 472.382 382.348 473.544C382.195 475.331 382.148 476.635 382.134 478.412L382.213 480.212C382.394 493.69 385.79 513.606 377.023 523.965C377.327 547.327 381.531 547.892 357.615 550.566C327.808 554.077 297.726 554.599 267.816 552.127C258.053 551.339 248.319 550.233 238.629 548.81L236.321 548.605C232.425 549.718 210.304 549.67 206.948 547.471C204.962 544.506 205.542 539.618 205.595 535.949C205.599 534.858 205.548 533.888 205.489 532.798C204.725 531.471 202.668 530.826 201.223 529.941C199.768 528.855 199.275 526.869 198.794 525.216C198.867 525.168 186.611 543.871 185.61 545.344C180.346 546.52 175.163 548.116 169.852 549.079C153.827 551.984 136.699 552.937 120.426 553.452C106.566 553.891 43.5065 553.665 35.3984 545.841C33.3538 543.868 34.1775 526.414 34.0943 522.826C28.4454 514.709 29.1598 507.879 29.1927 498.469C29.2182 491.114 29.2498 483.716 29.2902 476.357C7.78788 476.831 -7.50498 471.933 -9.61464 446.99C-10.5429 436.015 -9.51595 424.205 -8.71607 413.193C-7.03834 390.096 -6.08707 365.735 2.70872 344.048C9.39932 327.904 19.587 318.999 35.4462 312.645C35.1967 311.309 34.5834 307.323 35.1197 306.065C43.9285 285.383 40.8288 281.513 64.3244 275.912Z" fill="#D4B57A"/>
<path d="M294.562 422.138C297.061 421.813 299.571 421.584 302.081 422.053C303.286 422.278 304.417 422.706 305.39 423.471C306.214 424.121 306.724 424.96 306.643 426.05C306.602 426.622 306.395 427.128 305.752 427.279C305.138 427.42 304.772 427.102 304.487 426.6C303.593 425.026 302.022 424.756 300.443 424.642C298.033 424.464 295.66 424.883 293.294 425.285C287.039 426.349 281.051 428.365 275.055 430.371C272.349 431.276 269.628 432.118 266.767 432.384C266.342 432.424 265.916 432.447 265.491 432.477C264.194 432.451 262.926 432.281 261.769 431.653C261.24 431.369 260.778 430.988 260.489 430.445C260.205 429.913 260.246 429.378 260.634 428.912C260.966 428.513 261.414 428.373 261.917 428.572C264.183 429.47 266.497 429.259 268.796 428.801C272.792 428.007 276.6 426.559 280.485 425.392C285.106 424.003 289.764 422.762 294.562 422.138ZM270.193 382.629C272.204 382.525 274.09 382.802 275.517 384.424C276.544 385.591 276.918 387.006 276.866 388.517C276.759 391.689 275.753 394.515 273.439 396.779C272.926 397.282 272.334 397.684 271.599 397.799C270.774 397.928 270.179 397.632 269.895 396.964C269.614 396.31 269.761 395.727 270.434 395.217C271.679 394.279 272.434 393.023 272.899 391.567C273.535 390.02 273.809 388.442 273.27 386.806C273.188 386.562 273.092 386.318 272.893 386.134C272.549 385.428 271.92 385.196 271.203 385.141C270.094 385.056 269.092 385.421 268.16 385.975C265.476 387.574 263.406 389.82 261.617 392.328C258.224 397.082 255.75 402.25 254.723 408.038C254.386 409.933 254.483 411.827 255.093 413.663C256.294 417.275 259.362 418.805 262.992 417.649C265.258 416.929 267.162 415.603 268.933 414.077C270.929 412.356 272.792 410.494 274.529 408.507C275.002 407.964 275.38 407.369 275.632 406.693C276.234 405.072 276.851 403.454 277.465 401.836C278.093 400.454 278.715 399.073 279.351 397.695C280.763 394.63 282.378 391.678 284.293 388.896C285.066 387.774 285.949 386.743 287.099 385.997C287.941 385.45 288.855 385.037 289.912 385.24C290.877 385.425 291.401 385.968 291.604 386.925C291.808 387.896 291.564 388.808 291.261 389.713C290.525 391.892 289.354 393.843 288.063 395.727C285.317 399.731 282.271 403.491 278.655 406.741C277.487 407.794 277.077 409.087 276.541 410.527C276.97 410.435 277.092 410.165 277.266 409.966C279.088 407.879 280.722 405.622 282.803 403.761C283.871 402.804 285.025 402.046 286.544 402.124C287.782 402.711 288.122 403.384 287.941 404.887C287.76 406.364 287.176 407.72 286.64 409.087C286.093 410.476 285.55 411.869 285.254 413.339C285.184 413.686 285.076 414.063 285.435 414.321C285.789 414.576 286.122 414.376 286.433 414.206C287.549 413.597 288.296 412.611 289.047 411.632C290.322 409.973 291.376 408.175 292.352 406.328C292.695 405.678 293.072 405.049 293.435 404.41C294.214 403.52 294.847 402.501 295.734 401.699C296.662 400.865 297.645 400.134 298.861 399.775C300.506 399.288 301.844 399.919 302.524 401.481C302.606 401.67 302.592 401.969 302.851 401.983C303.105 401.998 303.138 401.706 303.23 401.525C303.419 401.164 303.652 400.839 303.974 400.584C304.336 400.296 304.747 400.207 305.176 400.406C305.627 400.621 305.733 401.038 305.715 401.485C305.693 402.013 305.497 402.501 305.294 402.984C304.396 405.108 303.294 407.137 302.325 409.224C301.915 410.11 301.578 411.026 301.541 412.016C301.526 412.344 301.549 412.688 301.634 413.002C301.833 413.744 302.306 413.896 302.905 413.431C303.378 413.065 303.719 412.566 304.062 412.086C305.578 409.958 307.09 407.824 308.369 405.545C309.205 404.056 309.918 402.501 309.97 400.728C309.988 400.052 310.199 399.409 310.731 398.937C311.245 398.486 311.841 398.367 312.443 398.707C313.027 399.036 313.109 399.594 312.976 400.199C312.961 400.266 312.946 400.336 312.928 400.406C312.595 401.621 312.625 401.692 313.874 402.028C314.513 402.198 315.164 402.317 315.74 402.689C316.613 403.255 316.961 404.045 316.854 405.057C316.776 405.777 316.524 406.438 316.202 407.081C315.566 408.355 314.924 409.626 314.299 410.908C313.951 411.617 313.726 412.374 313.667 413.161C313.597 414.11 314.166 414.495 315.02 414.066C315.822 413.664 316.406 412.995 316.997 412.345C317.973 411.274 318.853 410.121 319.681 408.932C320.346 407.975 320.398 406.826 320.649 405.751C321.629 401.544 323.105 397.518 324.982 393.636C325.127 393.34 325.23 393.022 325.352 392.716C326.472 390.791 327.441 388.771 328.738 386.95C329.666 385.65 330.65 384.401 332.117 383.651C332.431 383.493 332.761 383.345 333.101 383.249C335.307 382.621 336.76 383.862 336.557 386.163C336.387 388.065 335.706 389.817 334.93 391.523C332.386 397.127 329.104 402.231 324.575 406.468C324.265 406.76 323.928 407.026 323.61 407.311C322.014 408.74 321.504 411.725 322.531 413.627C323.019 414.528 323.837 414.86 324.968 414.572C326.103 414.284 327.041 413.634 327.873 412.84C330.387 410.443 332.298 407.583 334.091 404.636C334.734 403.583 335.307 402.486 335.925 401.419C336.172 400.99 336.424 400.555 336.886 400.3C337.27 400.086 337.662 400.052 338.035 400.288C338.401 400.517 338.479 400.898 338.412 401.293C338.253 402.272 337.776 403.129 337.325 403.989C336.109 406.298 334.808 408.566 333.962 411.052C333.718 411.776 333.51 412.508 333.584 413.283C333.651 413.996 334.113 414.281 334.778 414C334.993 413.911 335.207 413.782 335.381 413.627C336.848 412.323 338.017 410.775 339.037 409.109C339.669 408.393 340.183 407.602 340.56 406.73C341.384 404.821 342.538 403.133 343.902 401.574C344.483 400.913 345.211 400.418 345.88 399.856C346.774 399.476 347.658 399.073 348.671 399.106C350.412 399.162 351.546 400.296 351.587 402.043C351.624 403.698 351.029 405.142 349.938 406.328C348.079 408.352 345.839 409.637 342.963 409.36C342.353 409.301 342.105 409.493 342.013 410.08C341.906 410.763 341.814 411.443 341.865 412.134C341.972 413.585 342.856 414.439 344.305 414.491C345.746 414.543 346.996 413.981 348.172 413.231C349.58 412.334 350.833 411.248 351.916 409.97C352.297 409.519 352.682 409.057 353.181 408.725C353.535 408.488 353.942 408.389 354.308 408.685C354.651 408.969 354.615 409.364 354.456 409.74C354.345 410.002 354.223 410.269 354.042 410.483C352.064 412.822 349.842 414.872 347.04 416.205C345.661 416.862 344.227 417.01 342.737 416.637C342.098 416.474 341.58 416.102 341.037 415.766C340.209 414.779 339.647 413.675 339.565 412.363C339.558 412.245 339.555 412.101 339.414 412.071C339.248 412.034 339.171 412.179 339.078 412.286C338.461 413.01 337.858 413.741 337.229 414.454C336.549 415.226 335.754 415.861 334.797 416.271C333.352 416.888 331.925 416.216 331.47 414.713C331.211 413.852 331.34 412.98 331.433 412.123C331.082 412.035 331.004 412.29 330.879 412.434C329.74 413.748 328.502 414.956 327.02 415.887C326.106 416.459 325.148 416.925 324.039 416.962C322.324 417.017 321.071 416.193 320.446 414.598C320.191 413.948 320.062 413.279 319.995 412.589C319.98 412.415 320.017 412.164 319.777 412.116C319.593 412.079 319.492 412.267 319.393 412.393C318.709 413.246 317.944 414.025 317.142 414.768C316.314 415.532 315.385 416.153 314.276 416.434C312.587 416.862 311.419 415.957 311.323 414.225C311.246 412.803 311.689 411.51 312.222 410.232C312.75 408.962 313.33 407.712 313.833 406.431C314.313 405.212 314.095 404.787 312.864 404.314C311.449 403.768 311.475 403.779 310.843 405.156C309.22 408.698 307.198 411.979 304.381 414.716C303.956 415.129 303.497 415.506 302.965 415.783C301.272 416.659 299.653 415.832 299.387 413.944C299.313 413.413 299.282 412.877 299.216 412.183C298.835 412.648 298.554 413.017 298.251 413.364C297.216 414.554 296.111 415.651 294.714 416.423C292.496 417.649 290.245 416.63 289.927 414.236C289.908 414.081 289.922 413.87 289.727 413.818C289.531 413.767 289.443 413.967 289.343 414.085C288.681 414.868 287.941 415.569 287.105 416.164C286.714 416.441 286.296 416.667 285.842 416.811C284.64 417.187 283.458 416.567 283.073 415.366C282.785 414.472 282.892 413.582 283.099 412.695C283.49 411 284.141 409.393 284.714 407.757C284.98 406.996 285.205 406.22 285.435 405.448C285.486 405.275 285.587 405.064 285.417 404.913C285.221 404.739 285.006 404.876 284.821 404.969C283.82 405.464 283.073 406.284 282.312 407.052C279.476 409.907 277.003 413.062 274.825 416.445C274.633 416.741 274.448 417.051 274.219 417.32C273.864 417.737 273.395 417.9 272.874 417.686C272.316 417.46 272.182 416.955 272.308 416.441C272.511 415.614 272.803 414.809 273.055 413.992C273.117 413.793 273.232 413.601 273.158 413.339C272.837 413.354 272.696 413.627 272.515 413.812C270.707 415.64 268.837 417.39 266.671 418.79C264.93 419.917 263.041 420.689 260.952 420.789C255.954 421.029 252.205 418.063 251.229 413.143C250.527 409.615 251.089 406.191 252.172 402.833C253.869 397.577 256.442 392.797 260.116 388.623C261.757 386.758 263.658 385.192 265.772 383.885C267.181 383.235 268.622 382.71 270.193 382.629ZM301.197 403.975C301.175 402.39 300.229 401.784 298.905 402.397C298.34 402.66 297.849 403.029 297.401 403.465C295.731 405.094 294.495 407.029 293.482 409.112C292.909 410.291 292.466 411.521 292.325 412.836C292.27 413.383 292.241 413.984 292.732 414.343C293.235 414.708 293.778 414.472 294.273 414.21C295.079 413.778 295.778 413.206 296.373 412.522C297.767 410.923 298.925 409.153 299.971 407.313C300.584 406.235 301.061 405.101 301.197 403.975ZM349.011 403.121C349.014 401.932 348.408 401.496 347.384 401.84C347.018 401.965 346.685 402.153 346.404 402.408C345.029 403.653 344.061 405.19 343.222 406.822C342.941 407.369 343.351 407.366 343.698 407.358C345.04 407.314 346.257 406.908 347.317 406.073C348.315 405.29 348.959 404.314 349.011 403.121ZM333.906 385.945C333.589 385.775 333.311 385.96 333.049 386.13C332.221 386.669 331.581 387.405 330.997 388.188C327.833 392.421 325.714 397.182 323.899 402.099C323.556 403.037 323.304 404.001 323.115 404.983C323.086 405.12 323.038 405.286 323.178 405.367C323.322 405.46 323.445 405.323 323.556 405.245C324.14 404.828 324.635 404.314 325.097 403.771C328.387 399.904 330.863 395.534 332.896 390.906C333.477 389.584 333.999 388.228 334.198 386.813C334.165 386.474 334.239 386.123 333.906 385.945ZM288.969 388.229C288.61 388.003 288.274 388.217 287.985 388.428C287.35 388.893 286.806 389.462 286.352 390.101C284.071 393.325 282.2 396.78 280.562 400.366C280.115 401.349 279.654 402.328 279.317 403.458C279.513 403.41 279.568 403.409 279.598 403.384C279.742 403.262 279.886 403.137 280.016 403C282.685 400.189 285.054 397.142 287.099 393.851C287.989 392.417 288.695 390.884 289.176 389.263C289.283 388.901 289.364 388.48 288.969 388.229ZM338.942 393.585C339.955 393.031 341.039 393.504 341.327 394.627C341.59 395.657 341.279 396.551 340.532 397.275C340.022 397.77 339.379 397.999 338.691 397.659C337.923 397.271 337.668 396.577 337.697 395.75C337.738 394.816 338.096 394.047 338.942 393.585Z" fill="white"/>
</g>
<path d="M275.639 420.89C274.106 418.793 271.545 415.08 272.993 412.429C277.751 403.724 291.13 408.558 298.887 406.688C299.72 406.487 299.919 406.299 300.986 406.16L301.327 406.119C301.039 402.266 298.34 397.856 297.888 393.01C297.111 384.678 298.337 376.234 308.142 374.664C308.944 374.536 310.924 375.21 311.197 376.023C312.916 381.117 310.999 387.66 312.574 393.061C314.568 399.309 323.382 415.154 327.527 419.281L327.899 419.647C333.107 427.931 331.461 435.199 329.761 444.445C329.236 447.302 326.732 454.869 325.394 457.274C323.29 458.063 321.065 458.941 318.954 459.67C317.272 460.031 315.585 460.363 313.892 460.668C306.786 461.908 284.6 462.906 278.601 458.353C273.265 454.302 278.591 452.212 278.652 449.499C278.657 449.303 273.086 445.171 273.234 442.401C273.388 439.512 274.157 438.912 276.092 436.755L275.908 434.336C270.115 430.912 270.92 425.888 276.606 423.026L275.639 420.89Z" fill="#FEBC8A"/>
<path d="M275.908 434.336C277.847 434.339 279.929 434.094 281.471 435.186L281.579 435.875C280.13 436.896 279.689 436.723 277.924 436.735L276.092 436.755L275.908 434.336Z" fill="#F59C5F"/>
<path d="M275.639 420.891C277.719 420.784 279.622 420.458 281.436 421.412L281.646 422.065C280.234 423.205 278.535 422.972 276.605 423.027L275.639 420.891Z" fill="#F59C5F"/>
<path d="M275.904 284.944C297.788 295.111 314.195 294.017 336.014 284.41L335.504 289.328C335.565 292.336 335.557 294.462 335.324 297.455C339.138 298.23 351.62 302 354.348 302.114C352.582 306.931 351.165 312.388 347.619 316.225C330.105 335.172 298.385 338.923 276.093 326.639C265.627 320.872 258.643 314.103 257.782 301.922C261.434 300.264 271.245 298.129 275.523 297.116L275.62 292.871C275.577 290.355 275.782 287.486 275.904 284.944Z" fill="#D4B57A"/>
<path d="M275.904 284.944C297.788 295.111 314.196 294.017 336.014 284.41L335.505 289.328C335.565 292.336 335.557 294.462 335.325 297.455C335.124 300.329 335.001 306.704 333.605 308.804C315.971 318.835 295.185 319.419 277.448 309.333C274.496 306.3 275.329 301.075 275.524 297.116L275.621 292.871C275.578 290.355 275.783 287.486 275.904 284.944Z" fill="#FEBC8A"/>
<path d="M275.904 284.944C297.789 295.111 314.196 294.017 336.015 284.41L335.505 289.328C335.39 290.222 335.108 293.489 334.535 293.872C320.345 303.35 289.038 304.026 275.621 292.871C275.578 290.355 275.783 287.486 275.904 284.944Z" fill="#F59C5F"/>
<path d="M333.604 308.803C321.51 325.224 304 331.911 286.462 318.796C282.924 316.196 279.872 312.992 277.447 309.332C295.184 319.418 315.97 318.834 333.604 308.803Z" fill="white"/>
<path d="M235.062 530.63C235.675 523.594 235.044 517.361 235.163 510.387L236.632 371.141C236.669 369.191 236.628 366.256 237.514 364.622L238.309 364.201C241.537 365.866 240.701 375.598 240.728 379.101C240.765 384.276 240.65 389.539 240.631 394.721C240.776 421.56 240.688 448.4 240.367 475.237C240.28 483.496 240.112 491.754 239.864 500.01C239.626 506.365 239.175 513.266 239.5 519.575C239.854 526.441 254.026 527.493 259.444 528.128C292.843 532.041 327.316 531.446 360.652 527.253C364.12 526.811 367.574 526.479 370.968 525.755C373.012 525.319 374.525 523.914 376.198 524.105L376.225 525.553C368.356 533.44 315.236 534.543 302.822 534.535C284.036 534.525 257.45 532.821 239.407 528.365C239.385 535.333 239.455 541.858 238.629 548.81L236.321 548.606C232.425 549.718 210.304 549.671 206.948 547.472C204.962 544.507 205.543 539.619 205.595 535.95C205.599 534.859 205.548 533.889 205.489 532.798C204.725 531.471 202.668 530.827 201.223 529.941C208.478 531.602 227.66 531.172 235.062 530.63Z" fill="#C8A663"/>
<path d="M369.546 419.329C369.756 413.922 371.215 366.119 371.881 364.538L372.98 363.76C373.7 363.973 373.79 363.836 374.191 364.552C377.073 369.691 373.841 411.401 373.231 419.764C376.518 420.394 384.944 421.254 386.436 423.347L386.292 424.389C383.545 426.268 373.594 423.016 370.097 422.84C357.784 422.219 344.732 418.826 332.606 417.972C336.509 430.172 332.809 450.531 327.16 461.723C343.769 467.893 363.861 471.754 381.612 472.675C381.771 474.473 381.904 476.656 382.134 478.412L382.213 480.211C367.923 479.622 331.926 472.05 320.532 463.803L318.953 459.67C321.065 458.941 323.289 458.063 325.394 457.274C326.732 454.869 329.235 447.302 329.761 444.446C331.461 435.199 333.107 427.932 327.898 419.648C328.268 418.175 328.492 416.392 329.507 415.403C334.475 414.196 362.071 418.637 369.546 419.329Z" fill="#C8A663"/>
<path d="M255.529 302.742L257.783 301.922C258.644 314.103 265.627 320.872 276.094 326.639C298.385 338.922 330.105 335.172 347.619 316.224C351.166 312.388 352.583 306.93 354.348 302.114L356.231 303.132C355.813 309.22 353.09 316.118 348.644 320.43C326.569 341.835 286.838 342.8 263.777 322.388C257.575 316.899 255.692 310.608 255.529 302.742Z" fill="#C8A663"/>
<path d="M339.151 283.522L344.319 280.207L344.672 280.367C353.755 284.398 365.236 285.701 368.929 296.658C370.94 302.606 371.052 304.092 370.567 310.077C360.537 325.42 329.767 331.509 313.093 335.026C310.965 335.474 307.626 336.708 305.688 335.953C307.254 335.27 314.239 326.896 316.484 324.823C321.925 319.801 327.573 315.189 332.749 309.918C333.289 309.503 333.823 309.08 334.35 308.65C335.885 303.444 335.499 298.412 335.471 292.977C335.442 290.715 335.191 288.116 335.022 285.829L339.151 283.522Z" fill="#D4B57A"/>
<path d="M272.023 283.522L266.855 280.207L266.502 280.367C257.419 284.398 245.938 285.701 242.245 296.658C240.234 302.606 240.122 304.092 240.607 310.077C250.637 325.42 281.407 331.509 298.081 335.026C300.209 335.474 303.548 336.708 305.486 335.953C303.92 335.27 296.935 326.896 294.69 324.823C289.249 319.801 283.601 315.189 278.425 309.918C277.885 309.503 277.351 309.08 276.824 308.65C275.289 303.444 275.675 298.412 275.704 292.977C275.732 290.715 275.983 288.116 276.152 285.829L272.023 283.522Z" fill="#D4B57A"/>
<path d="M335.023 285.828L339.151 283.521C345.523 286.853 351.627 290.273 346.881 298.283C344.959 301.527 337.8 307.735 334.35 308.649C335.885 303.443 335.499 298.412 335.471 292.976C335.442 290.714 335.191 288.115 335.023 285.828Z" fill="#C8A663"/>
<path d="M276.152 285.828L272.023 283.521C265.652 286.853 259.548 290.273 264.293 298.283C266.215 301.527 273.375 307.735 276.824 308.649C275.289 303.443 275.675 298.412 275.704 292.976C275.732 290.714 275.983 288.115 276.152 285.828Z" fill="#C8A663"/>
<path d="M368.085 310.076L370.45 310.958C365.938 323.445 336.2 334.41 323.652 334.975C321.619 334.738 321.081 334.811 319.129 335.035C318.791 335.69 318.629 335.857 318.189 336.462C313.315 338.107 296.05 337.893 290.407 337.013C288.306 336.686 288.155 336.475 287.296 335.058C285.437 334.687 284.555 334.876 282.716 335.091L282.202 335.084C273.892 334.909 234.392 321.622 238.758 310.894C241.624 313.192 243.402 315.534 246.616 317.691C259.946 326.642 275.949 331.565 291.667 334.204C294.871 334.742 299.239 336.632 301.488 336.644L302.858 335.839L303.206 335.952C305.144 336.707 308.483 335.474 310.611 335.025C327.285 331.508 358.055 325.419 368.085 310.076Z" fill="#C8A663"/>
<path d="M278.849 310.693C280.461 311.416 282.086 312.107 283.726 312.767C301.879 319.938 317.205 316.233 334.091 309.379C328.749 314.657 322.921 319.274 317.307 324.303C314.99 326.379 307.783 334.764 306.167 335.448L305.807 335.334C299.002 327.041 286.822 318.513 278.849 310.693Z" fill="white"/>
<g filter="url(#filter0_d_1339_54427)">
<circle cx="510" cy="407" r="48" fill="white"/>
</g>
<path d="M514.741 403.075C518.275 403.075 520.45 397.91 520.45 394.647C520.45 391.929 519.09 388.666 516.372 388.666C512.838 388.666 510.663 393.832 510.663 397.094C510.663 399.813 512.022 403.075 514.741 403.075ZM504.41 403.075C507.129 403.075 508.488 399.813 508.488 397.094C508.488 393.56 506.313 388.395 502.779 388.395C500.06 388.395 498.701 391.657 498.701 394.375C498.429 397.91 500.604 403.075 504.41 403.075ZM524.528 400.356C520.993 400.356 518.547 405.25 518.547 408.784C518.547 411.231 519.634 413.677 522.081 413.677C525.615 413.677 528.062 408.784 528.062 405.25C528.062 402.803 526.702 400.356 524.528 400.356ZM500.876 408.784C500.876 405.25 498.157 400.356 494.895 400.356C492.448 400.356 491.361 402.803 491.361 405.25C491.361 408.784 494.079 413.677 497.342 413.677C499.788 413.677 500.876 411.231 500.876 408.784ZM509.575 408.24C504.138 408.24 496.798 416.94 496.798 422.921C496.798 425.639 498.701 426.455 500.876 426.455C504.138 426.455 506.585 424.28 509.575 424.28C512.294 424.28 514.741 426.455 517.731 426.455C519.906 426.455 522.353 425.911 522.353 422.921C522.353 416.94 515.013 408.24 509.575 408.24Z" fill="#A09060"/>
<g filter="url(#filter1_d_1339_54427)">
<circle cx="48" cy="48" r="48" transform="matrix(-1 0 0 1 150 359)" fill="white"/>
</g>
<g clip-path="url(#clip1_1339_54427)">
<path d="M124.451 425.248C124.451 425.953 123.88 426.523 123.176 426.523H81.824C81.1199 426.523 80.5491 425.953 80.5491 425.248V388.709C80.5491 388.004 81.1198 387.434 81.824 387.434H123.176C123.88 387.434 124.451 388.004 124.451 388.709V425.248H124.451Z" fill="#DCE2E2"/>
<path d="M124.451 404.888V388.572C124.451 387.943 123.88 387.434 123.176 387.434H81.8242C81.1201 387.434 80.5493 387.943 80.5493 388.572V404.888H124.451Z" fill="#0096D1"/>
<path d="M91.514 391.456C91.514 392.567 90.6136 393.467 89.503 393.467C88.3923 393.467 87.4919 392.567 87.4919 391.456C87.4919 390.346 88.3923 389.445 89.503 389.445C90.6136 389.445 91.514 390.346 91.514 391.456ZM114.376 389.445C113.265 389.445 112.365 390.346 112.365 391.456C112.365 392.567 113.265 393.467 114.376 393.467C115.486 393.467 116.387 392.567 116.387 391.456C116.387 390.346 115.486 389.445 114.376 389.445Z" fill="white"/>
<path d="M95.1568 387.434H93.2044C93.2044 385.754 91.8381 384.388 90.1587 384.388C88.4792 384.388 87.1128 385.754 87.1128 387.434C87.1128 389.113 88.4792 390.48 90.1587 390.48C90.6978 390.48 91.1349 390.917 91.1349 391.456C91.1349 391.995 90.6978 392.432 90.1587 392.432C87.4027 392.432 85.1604 390.19 85.1604 387.434C85.1604 384.678 87.4027 382.436 90.1587 382.436C92.9146 382.436 95.1568 384.678 95.1568 387.434ZM116.443 382.597C116.03 382.49 115.605 382.435 115.178 382.436C112.422 382.436 110.18 384.678 110.18 387.434C110.18 390.19 112.422 392.432 115.178 392.432C115.717 392.432 116.154 391.995 116.154 391.456C116.154 390.917 115.717 390.48 115.178 390.48C113.498 390.48 112.132 389.113 112.132 387.434C112.132 385.754 113.498 384.388 115.178 384.388C115.44 384.388 115.7 384.421 115.95 384.486C117.288 384.836 118.223 386.048 118.223 387.434H120.176C120.176 385.16 118.641 383.171 116.443 382.597Z" fill="#BFBFBB"/>
<path d="M86.0235 400.297H84.5399L84.2841 401.386H83.0417L84.5692 396.322H86.0235L87.551 401.386H86.2794L86.0235 400.297ZM85.8116 399.427L85.2781 397.191L84.7447 399.427H85.8116ZM91.731 399.705C91.731 400.728 91.0732 401.51 89.7504 401.51C88.4277 401.51 87.7771 400.772 87.7771 399.705V396.321H88.9757V399.654C88.9757 400.304 89.2095 400.619 89.7504 400.619C90.2984 400.619 90.5323 400.304 90.5323 399.654V396.321H91.7309V399.705H91.731ZM96.488 396.818L95.8667 397.469C95.5379 397.191 95.2601 397.067 94.8509 397.067C94.1421 397.067 93.6159 397.593 93.6159 398.85C93.6159 400.18 93.9666 400.633 94.6683 400.633C94.9167 400.633 95.1433 400.582 95.3552 400.465V399.318H94.6975L94.5805 398.47H96.5172V400.977C95.9982 401.313 95.3405 401.51 94.6756 401.51C93.1481 401.51 92.3734 400.582 92.3734 398.85C92.3734 397.133 93.4477 396.197 94.7925 396.197C95.5234 396.197 96.0715 396.453 96.488 396.818Z" fill="white"/>
<path d="M101.266 411.799C101.266 414.463 99.9466 416.467 94.5931 421.339H101.621L101.215 424.409H90.0515V421.567C95.8109 415.884 97.1556 414.336 97.1556 412.205C97.1556 410.81 96.293 409.972 94.9483 409.972C93.705 409.972 92.8424 410.53 91.8529 411.748L89.468 409.871C90.8381 408.069 92.7917 406.902 95.3543 406.902C99.1854 406.902 101.266 409.135 101.266 411.799ZM115.532 420.705H113.604V424.409H109.697L109.671 420.705H102.44V418.04L107.312 406.826L110.712 408.095L106.576 417.711H109.722L110.153 413.651H113.604V417.711H115.532V420.705Z" fill="#505A60"/>
</g>
<g filter="url(#filter2_d_1339_54427)">
<circle cx="482.5" cy="262.5" r="56.5" fill="white"/>
</g>
<path d="M468.504 286.123L462.904 285.35C462.904 285.35 462.869 292.501 462.835 293.17C462.8 293.84 463.187 294.327 463.75 294.369C464.737 294.438 466.602 294.438 467.272 294.403C467.942 294.369 468.397 293.875 468.435 293.239C468.474 292.604 468.435 288.803 468.435 288.803L468.504 286.123ZM495.485 288.515C495.485 288.515 495.451 292.6 495.451 293.412C495.451 294.223 495.91 294.644 496.438 294.61C496.966 294.575 499.505 294.61 500.067 294.61C500.63 294.61 501.265 294.082 501.265 293.308C501.265 292.535 501.373 285.629 501.373 285.629L495.485 288.515Z" fill="#4E433D"/>
<path d="M465.507 268.383L464.228 268.464C464.228 268.464 464.267 267.212 464.179 266.76C464.091 266.309 463.547 266.041 463.141 266.018C462.735 265.995 460.841 265.995 460.301 266.064C459.761 266.132 458.835 266.672 458.858 268.047C458.881 269.421 459.761 270.186 460.504 270.167C461.246 270.148 463.046 270.206 463.593 270.19C464.294 270.167 465.825 270.236 465.825 270.236L465.507 268.383ZM499.861 268.575L501.013 268.605C501.013 268.605 501.04 267.22 501.197 266.791C501.354 266.362 501.671 266.132 502.391 266.132C503.111 266.132 504.523 266.186 504.998 266.209C505.473 266.232 506.395 267.044 506.441 268.261C506.487 269.478 505.653 270.244 504.818 270.336C503.984 270.428 500.852 270.336 500.852 270.336L499.861 268.575ZM498 270.627L501.518 270.47C501.518 270.47 502.831 272.556 502.667 279.615C502.51 286.318 500.779 288.937 499.248 289.308C497.717 289.679 491.936 290.25 482.78 290.303C473.623 290.357 466.82 289.832 465.511 289.519C464.202 289.205 462.785 287.268 462.632 285.855C462.399 283.688 462.383 280.775 462.487 276.641C462.59 272.506 463.49 270.431 463.49 270.431L498 270.627Z" fill="#923D4F"/>
<path d="M468.263 282.291C466.28 281.962 463.402 280.714 463.183 281.632C462.965 282.551 463.842 283.646 465.943 284.347C468.045 285.047 472.861 285.572 482.975 285.353C493.089 285.135 496.503 284.871 498.517 284.305C500.531 283.734 502.85 282.203 502.108 281.326C501.365 280.45 499.394 281.721 497.598 282.069C495.803 282.417 489.058 282.605 482.845 282.727C476.103 282.857 470.365 282.639 468.263 282.291Z" fill="#858585"/>
<path d="M476.233 280.894C475.433 280.932 474.308 280.507 473.833 279.267C473.358 278.023 473.301 277.284 473.446 276.633C473.596 275.982 474.04 275.745 475.073 275.657C476.111 275.569 478.124 275.42 482.446 275.389C486.772 275.358 489.762 275.446 490.531 275.538C491.301 275.626 491.745 275.894 491.626 276.694C491.507 277.494 491.094 279.095 490.769 279.864C490.531 280.427 489.792 280.84 488.812 280.871C487.84 280.894 476.857 280.863 476.233 280.894Z" fill="#2F2F2F"/>
<path d="M501.962 276.163C501.591 275.945 493.349 276.274 493.085 276.512C492.817 276.749 491.389 279.697 492.108 279.976C492.79 280.244 501.698 280.102 501.993 279.953C502.452 279.723 502.314 276.37 501.962 276.163ZM471.999 276.542C471.345 276.37 463.221 276.182 462.865 276.565C462.708 276.734 462.747 279.172 462.777 279.616C462.808 280.06 463.149 280.213 463.738 280.244C464.332 280.275 471.911 280.332 472.413 280.275C472.914 280.217 473.033 279.712 472.945 279.268C472.857 278.82 472.562 276.692 471.999 276.542Z" fill="#FEA826"/>
<path d="M463.478 270.432C463.543 270.31 464.332 270.03 464.806 269.196C465.139 268.61 466.108 265.463 467.383 262.948C468.658 260.433 469.19 259.335 469.546 258.772C469.902 258.209 470.434 257.765 471.353 257.497C472.271 257.229 475.472 256.506 483.17 256.655C490.868 256.804 492.821 257.034 493.571 257.275C494.176 257.466 495.309 258.06 496.048 259.423C496.787 260.785 499.922 267.779 500.22 268.4C500.515 269.02 501.522 270.463 501.522 270.463C501.522 270.463 498.861 273.231 492.645 273.95C487.055 274.597 478.94 275.175 470.56 273.728C463.983 272.603 463.413 270.555 463.478 270.432Z" fill="#923D4F"/>
<path d="M470.311 259.81C469.63 260.491 468.095 263.86 467.333 265.797C466.571 267.734 466.123 269.326 467.161 269.361C468.198 269.395 478.063 269.257 482.427 269.223C486.791 269.188 497.208 269.43 497.969 269.43C498.731 269.43 499.179 268.771 498.835 267.94C498.49 267.11 495.925 261.433 495.339 260.499C494.75 259.565 493.919 259.251 492.465 259.182C491.01 259.113 485.574 258.803 481.838 258.803C478.101 258.803 470.935 259.189 470.311 259.81Z" fill="#2D2E35"/>
<path d="M467.995 267.753C468.145 267.978 477.512 267.569 483.155 267.672C488.797 267.775 496.343 267.948 496.725 267.913C497.104 267.879 497.143 267.324 497.104 267.151C497.07 266.979 496.412 265.628 496.412 265.628C496.412 265.628 492.985 261.75 492.706 261.75C492.43 261.75 482.737 262.374 482.737 262.374L471.835 262.064L468.547 266.122C468.547 266.122 467.926 267.649 467.995 267.753Z" fill="#96C8ED"/>
<path d="M468.546 266.121C468.546 266.121 470.074 262.466 470.69 261.539C470.931 261.179 471.107 260.846 471.938 260.743C472.769 260.64 477.06 260.016 482.806 260.119C488.552 260.222 491.875 260.452 492.568 260.498C493.387 260.552 493.954 260.842 494.264 261.363C494.574 261.884 496.756 266.347 496.756 266.347L493.234 266.026C493.234 266.026 493.211 264.403 493.157 263.844C493.111 263.361 492.886 262.963 492.147 262.921C491.488 262.887 490.034 262.852 489.551 262.887C489.065 262.921 488.736 263.323 488.64 264.012C488.545 264.705 488.445 265.942 488.445 265.942L477.539 266.007C477.539 266.007 477.539 264.299 477.439 263.683C477.366 263.239 477.087 262.948 476.517 262.952C475.854 262.956 474.599 262.887 473.699 262.99C473.282 263.04 472.972 263.545 472.937 264.272C472.91 264.797 472.868 265.968 472.868 265.968L468.546 266.121Z" fill="#AFE3FB"/>
<path d="M484.188 236.5H480.812V233.125H484.188C484.635 233.125 485.064 233.303 485.381 233.619C485.697 233.936 485.875 234.365 485.875 234.812C485.875 235.26 485.697 235.689 485.381 236.006C485.064 236.322 484.635 236.5 484.188 236.5Z" fill="#4498A6"/>
<path d="M470.688 224.688H494.312V248.312H470.688V224.688ZM484.188 229.75H477.438V243.25H480.812V239.875H484.188C484.852 239.875 485.511 239.744 486.125 239.49C486.739 239.235 487.297 238.862 487.767 238.392C488.237 237.922 488.61 237.364 488.865 236.75C489.119 236.136 489.25 235.477 489.25 234.812C489.25 234.148 489.119 233.489 488.865 232.875C488.61 232.261 488.237 231.703 487.767 231.233C487.297 230.763 486.739 230.39 486.125 230.135C485.511 229.881 484.852 229.75 484.188 229.75Z" fill="#4498A6"/>
<g filter="url(#filter3_d_1339_54427)">
<circle cx="56.5" cy="56.5" r="56.5" transform="matrix(-1 0 0 1 186 206)" fill="white"/>
</g>
<path d="M137.4 253.9C139.868 254.594 142.104 255.941 143.87 257.8C143.046 258.294 142.408 259.046 142.055 259.939C141.702 260.833 141.654 261.818 141.918 262.741C142.183 263.665 142.745 264.475 143.518 265.047C144.29 265.618 145.229 265.918 146.19 265.9C146.634 265.891 147.074 265.824 147.5 265.7L152 287.1H147L141.95 278.3L138 287.1H111.55L115.29 265.5C115.617 262.661 116.827 259.995 118.748 257.878C120.669 255.762 123.205 254.3 126 253.7C126.988 253.503 127.993 253.403 129 253.4H133.75C134.986 253.36 136.22 253.53 137.4 253.9Z" fill="#FEBE76"/>
<path d="M116.6 237.1C117.093 237.106 117.574 237.257 117.981 237.536C118.388 237.814 118.704 238.207 118.888 238.664C119.073 239.121 119.118 239.623 119.018 240.106C118.919 240.589 118.678 241.031 118.327 241.378C117.976 241.725 117.531 241.96 117.047 242.054C116.563 242.148 116.062 242.097 115.607 241.907C115.152 241.717 114.763 241.396 114.489 240.986C114.216 240.575 114.07 240.093 114.07 239.6C114.069 239.269 114.133 238.941 114.26 238.635C114.388 238.329 114.574 238.051 114.81 237.818C115.046 237.586 115.325 237.402 115.633 237.279C115.94 237.155 116.269 237.095 116.6 237.1Z" fill="#414A56"/>
<path d="M107.81 248.299C108.561 248.301 109.295 248.525 109.918 248.944C110.542 249.363 111.028 249.957 111.314 250.652C111.6 251.346 111.674 252.11 111.526 252.846C111.378 253.583 111.015 254.259 110.483 254.789C109.952 255.32 109.275 255.681 108.538 255.827C107.801 255.972 107.037 255.897 106.344 255.609C105.65 255.321 105.057 254.834 104.64 254.209C104.223 253.584 104 252.85 104 252.099C104.005 251.091 104.409 250.126 105.122 249.414C105.836 248.702 106.802 248.301 107.81 248.299Z" fill="#414A56"/>
<path d="M148.21 239.6C148.704 239.604 149.185 239.754 149.593 240.031C150.002 240.308 150.319 240.7 150.505 241.157C150.692 241.614 150.738 242.116 150.639 242.6C150.541 243.083 150.301 243.527 149.951 243.875C149.6 244.222 149.155 244.458 148.67 244.553C148.186 244.648 147.684 244.597 147.229 244.408C146.773 244.218 146.384 243.897 146.11 243.487C145.836 243.076 145.69 242.593 145.69 242.1C145.689 241.769 145.753 241.442 145.879 241.137C146.006 240.832 146.192 240.555 146.426 240.322C146.661 240.089 146.939 239.906 147.246 239.782C147.552 239.658 147.88 239.596 148.21 239.6Z" fill="#414A56"/>
<path d="M146.29 265.9C145.121 265.895 144.001 265.431 143.17 264.608C142.34 263.785 141.866 262.669 141.85 261.5C141.848 260.748 142.046 260.009 142.424 259.359C142.802 258.709 143.346 258.171 144 257.8C144.701 257.373 145.5 257.133 146.32 257.1C147.381 257.084 148.413 257.452 149.223 258.138C150.033 258.823 150.568 259.779 150.728 260.829C150.887 261.878 150.662 262.949 150.092 263.845C149.523 264.741 148.648 265.4 147.63 265.7C147.193 265.818 146.743 265.886 146.29 265.9Z" fill="#414A56"/>
<path d="M134.27 234.6H129.22V248.3H134.27V234.6Z" fill="#414A56"/>
<path d="M129.12 253.4C128.113 253.403 127.108 253.504 126.12 253.7V248.4H137.4V253.9C136.215 253.587 134.996 253.419 133.77 253.4H129.12Z" fill="#57606F"/>
<path d="M131.75 273.4C131.406 273.406 131.077 273.544 130.833 273.786C130.588 274.029 130.448 274.356 130.44 274.7V287.2H133.06V274.6C133.055 274.435 133.017 274.272 132.948 274.122C132.879 273.971 132.78 273.836 132.658 273.724C132.536 273.612 132.393 273.526 132.237 273.47C132.081 273.415 131.915 273.391 131.75 273.4Z" fill="#E8A664"/>
<path d="M126.7 278.399C126.356 278.404 126.027 278.542 125.783 278.785C125.538 279.027 125.398 279.355 125.39 279.699V287.199H128V279.699C128.005 279.527 127.976 279.355 127.912 279.195C127.849 279.035 127.753 278.889 127.632 278.767C127.51 278.646 127.364 278.55 127.204 278.487C127.044 278.423 126.872 278.394 126.7 278.399Z" fill="#E8A664"/>
<path d="M120.44 274.6C120.094 274.602 119.763 274.739 119.517 274.982C119.27 275.225 119.128 275.554 119.12 275.9V287.2H121.65V275.9C121.646 275.571 121.52 275.256 121.296 275.016C121.073 274.775 120.767 274.627 120.44 274.6Z" fill="#E8A664"/>
<g filter="url(#filter4_d_1339_54427)">
<circle cx="501" cy="124" r="48" fill="white"/>
</g>
<path d="M500.15 102.098C487.466 102.098 478.248 113.485 478.248 126.921C478.248 136.943 484.791 145.903 493.549 145.903C496.74 145.903 499.678 144.71 502.092 142.717C504.258 140.929 507.151 140.095 509.846 140.095C516.875 140.095 522.053 133.101 522.053 125.192C522.053 113.677 514.3 102.098 500.15 102.098Z" fill="#D9DBDD"/>
<path d="M500.15 111.832C494.505 111.832 489.929 116.408 489.929 122.053C489.929 127.698 494.505 132.275 500.15 132.275C505.795 132.275 510.371 127.698 510.371 122.053C510.371 116.408 505.795 111.832 500.15 111.832Z" fill="#CA8641"/>
<path fill-rule="evenodd" clip-rule="evenodd" d="M498.69 117.187C498.69 116.799 498.844 116.428 499.118 116.154C499.391 115.88 499.763 115.727 500.15 115.727C501.828 115.727 503.438 116.393 504.624 117.58C505.811 118.766 506.478 120.376 506.478 122.054C506.478 122.441 506.324 122.813 506.05 123.086C505.776 123.36 505.405 123.514 505.017 123.514C504.63 123.514 504.259 123.36 503.985 123.086C503.711 122.813 503.557 122.441 503.557 122.054C503.557 121.15 503.198 120.284 502.559 119.645C501.92 119.006 501.054 118.647 500.15 118.647C499.763 118.647 499.391 118.493 499.118 118.219C498.844 117.945 498.69 117.574 498.69 117.187Z" fill="#D9DBDD"/>
<g filter="url(#filter5_d_1339_54427)">
<circle cx="48" cy="48" r="48" transform="matrix(-1 0 0 1 159 76)" fill="white"/>
</g>
<g clip-path="url(#clip2_1339_54427)">
<path d="M134 141.111C134 142.408 133.485 143.651 132.568 144.568C131.651 145.485 130.408 146 129.111 146H94.8889C93.5923 146 92.3488 145.485 91.4319 144.568C90.5151 143.651 90 142.408 90 141.111V113C90 111.704 90.5151 110.46 91.4319 109.543C92.3488 108.626 93.5923 108.111 94.8889 108.111H129.111C130.408 108.111 131.651 108.626 132.568 109.543C133.485 110.46 134 111.704 134 113V141.111Z" fill="#E0E7EC"/>
<path d="M118.914 125.368H111.841C110.35 125.368 109.796 124.401 109.796 123.461C109.796 122.495 110.321 121.555 111.841 121.555H121.844C123.254 121.555 123.834 122.826 123.834 123.544C123.834 124.097 123.529 124.677 123.198 125.368L116.345 139.295C115.571 140.843 115.267 141.394 114.024 141.394C112.504 141.394 111.73 140.234 111.73 139.432C111.73 139.101 111.813 138.853 112.006 138.465L118.914 125.368ZM103.309 125.221H102.698C101.372 125.221 100.818 124.328 100.818 123.388C100.818 122.42 101.508 121.555 102.698 121.555H105.16C106.348 121.555 107.012 122.411 107.012 123.516V139.24C107.012 140.621 106.33 141.395 105.142 141.395C103.954 141.395 103.309 140.621 103.309 139.24V125.221Z" fill="#66757F"/>
<path d="M131.556 102H127.55C127.761 102.361 127.889 102.775 127.889 103.222C127.889 103.871 127.631 104.492 127.173 104.951C126.715 105.409 126.093 105.667 125.444 105.667C124.796 105.667 124.174 105.409 123.716 104.951C123.258 104.492 123 103.871 123 103.222C123 102.775 123.128 102.361 123.339 102H100.661C100.872 102.361 101 102.775 101 103.222C101 103.871 100.742 104.492 100.284 104.951C99.8256 105.409 99.2039 105.667 98.5556 105.667C97.9072 105.667 97.2855 105.409 96.8271 104.951C96.3686 104.492 96.1111 103.871 96.1111 103.222C96.1111 102.775 96.2394 102.361 96.4497 102H92.4444C91.7961 102 91.1744 102.258 90.716 102.716C90.2575 103.174 90 103.796 90 104.444V117.889H134V104.444C134 103.796 133.742 103.174 133.284 102.716C132.826 102.258 132.204 102 131.556 102Z" fill="#DD2F45"/>
<path d="M106.111 107.627C106.111 107.016 106.502 106.674 107.028 106.674C107.552 106.674 107.943 107.016 107.943 107.627V113.759H110.118C110.741 113.759 111.01 114.223 110.998 114.639C110.985 114.861 110.886 115.07 110.721 115.22C110.557 115.371 110.34 115.451 110.118 115.444H107.065C106.466 115.444 106.111 115.055 106.111 114.443V107.627ZM97.6657 107.627C97.6657 107.016 98.0568 106.674 98.5823 106.674C99.1079 106.674 99.499 107.016 99.499 107.627V111.89C99.499 113.015 100.219 113.906 101.38 113.906C102.491 113.906 103.249 112.966 103.249 111.89V107.627C103.249 107.016 103.639 106.674 104.164 106.674C104.69 106.674 105.081 107.016 105.081 107.627V111.988C105.081 114.04 103.394 115.592 101.38 115.592C99.3401 115.592 97.6657 114.065 97.6657 111.988V107.627ZM96.7099 113.001C96.7099 115.053 95.4033 115.591 94.2911 115.591C93.449 115.591 92.0435 115.261 92.0435 114.198C92.0435 113.869 92.3246 113.453 92.7279 113.453C93.2168 113.453 93.6446 113.906 94.1933 113.906C94.8778 113.906 94.8778 113.27 94.8778 112.879V107.627C94.8778 107.016 95.2689 106.674 95.7932 106.674C96.32 106.674 96.7099 107.016 96.7099 107.627V113.001Z" fill="#F5F8FA"/>
<path d="M129.111 114.223C129.111 114.547 129.24 114.858 129.469 115.087C129.698 115.316 130.009 115.445 130.333 115.445C130.657 115.445 130.968 115.316 131.198 115.087C131.427 114.858 131.556 114.547 131.556 114.223C131.556 113.899 131.427 113.588 131.198 113.359C130.968 113.129 130.657 113.001 130.333 113.001C130.009 113.001 129.698 113.129 129.469 113.359C129.24 113.588 129.111 113.899 129.111 114.223ZM129.111 110.556C129.111 110.88 129.24 111.191 129.469 111.42C129.698 111.65 130.009 111.778 130.333 111.778C130.657 111.778 130.968 111.65 131.198 111.42C131.427 111.191 131.556 110.88 131.556 110.556C131.556 110.232 131.427 109.921 131.198 109.692C130.968 109.463 130.657 109.334 130.333 109.334C130.009 109.334 129.698 109.463 129.469 109.692C129.24 109.921 129.111 110.232 129.111 110.556ZM125.444 114.223C125.444 114.547 125.573 114.858 125.802 115.087C126.032 115.316 126.342 115.445 126.667 115.445C126.991 115.445 127.302 115.316 127.531 115.087C127.76 114.858 127.889 114.547 127.889 114.223C127.889 113.899 127.76 113.588 127.531 113.359C127.302 113.129 126.991 113.001 126.667 113.001C126.342 113.001 126.032 113.129 125.802 113.359C125.573 113.588 125.444 113.899 125.444 114.223ZM125.444 110.556C125.444 110.88 125.573 111.191 125.802 111.42C126.032 111.65 126.342 111.778 126.667 111.778C126.991 111.778 127.302 111.65 127.531 111.42C127.76 111.191 127.889 110.88 127.889 110.556C127.889 110.232 127.76 109.921 127.531 109.692C127.302 109.463 126.991 109.334 126.667 109.334C126.342 109.334 126.032 109.463 125.802 109.692C125.573 109.921 125.444 110.232 125.444 110.556ZM121.778 114.223C121.778 114.547 121.907 114.858 122.136 115.087C122.365 115.316 122.676 115.445 123 115.445C123.324 115.445 123.635 115.316 123.864 115.087C124.093 114.858 124.222 114.547 124.222 114.223C124.222 113.899 124.093 113.588 123.864 113.359C123.635 113.129 123.324 113.001 123 113.001C122.676 113.001 122.365 113.129 122.136 113.359C121.907 113.588 121.778 113.899 121.778 114.223ZM121.778 110.556C121.778 110.88 121.907 111.191 122.136 111.42C122.365 111.65 122.676 111.778 123 111.778C123.324 111.778 123.635 111.65 123.864 111.42C124.093 111.191 124.222 110.88 124.222 110.556C124.222 110.232 124.093 109.921 123.864 109.692C123.635 109.463 123.324 109.334 123 109.334C122.676 109.334 122.365 109.463 122.136 109.692C121.907 109.921 121.778 110.232 121.778 110.556ZM118.111 110.556C118.111 110.88 118.24 111.191 118.469 111.42C118.698 111.65 119.009 111.778 119.333 111.778C119.657 111.778 119.968 111.65 120.198 111.42C120.427 111.191 120.556 110.88 120.556 110.556C120.556 110.232 120.427 109.921 120.198 109.692C119.968 109.463 119.657 109.334 119.333 109.334C119.009 109.334 118.698 109.463 118.469 109.692C118.24 109.921 118.111 110.232 118.111 110.556ZM118.111 114.223C118.111 114.547 118.24 114.858 118.469 115.087C118.698 115.316 119.009 115.445 119.333 115.445C119.657 115.445 119.968 115.316 120.198 115.087C120.427 114.858 120.556 114.547 120.556 114.223C120.556 113.899 120.427 113.588 120.198 113.359C119.968 113.129 119.657 113.001 119.333 113.001C119.009 113.001 118.698 113.129 118.469 113.359C118.24 113.588 118.111 113.899 118.111 114.223Z" fill="#F4ABBA"/>
</g>
</g>
<defs>
<filter id="filter0_d_1339_54427" x="442" y="341" width="136" height="136" filterUnits="userSpaceOnUse" color-interpolation-filters="sRGB">
<feFlood flood-opacity="0" result="BackgroundImageFix"/>
<feColorMatrix in="SourceAlpha" type="matrix" values="0 0 0 0 0 0 0 0 0 0 0 0 0 0 0 0 0 0 127 0" result="hardAlpha"/>
<feOffset dy="2"/>
<feGaussianBlur stdDeviation="10"/>
<feComposite in2="hardAlpha" operator="out"/>
<feColorMatrix type="matrix" values="0 0 0 0 0 0 0 0 0 0 0 0 0 0 0 0 0 0 0.15 0"/>
<feBlend mode="normal" in2="BackgroundImageFix" result="effect1_dropShadow_1339_54427"/>
<feBlend mode="normal" in="SourceGraphic" in2="effect1_dropShadow_1339_54427" result="shape"/>
</filter>
<filter id="filter1_d_1339_54427" x="34" y="341" width="136" height="136" filterUnits="userSpaceOnUse" color-interpolation-filters="sRGB">
<feFlood flood-opacity="0" result="BackgroundImageFix"/>
<feColorMatrix in="SourceAlpha" type="matrix" values="0 0 0 0 0 0 0 0 0 0 0 0 0 0 0 0 0 0 127 0" result="hardAlpha"/>
<feOffset dy="2"/>
<feGaussianBlur stdDeviation="10"/>
<feComposite in2="hardAlpha" operator="out"/>
<feColorMatrix type="matrix" values="0 0 0 0 0 0 0 0 0 0 0 0 0 0 0 0 0 0 0.15 0"/>
<feBlend mode="normal" in2="BackgroundImageFix" result="effect1_dropShadow_1339_54427"/>
<feBlend mode="normal" in="SourceGraphic" in2="effect1_dropShadow_1339_54427" result="shape"/>
</filter>
<filter id="filter2_d_1339_54427" x="406" y="188" width="153" height="153" filterUnits="userSpaceOnUse" color-interpolation-filters="sRGB">
<feFlood flood-opacity="0" result="BackgroundImageFix"/>
<feColorMatrix in="SourceAlpha" type="matrix" values="0 0 0 0 0 0 0 0 0 0 0 0 0 0 0 0 0 0 127 0" result="hardAlpha"/>
<feOffset dy="2"/>
<feGaussianBlur stdDeviation="10"/>
<feComposite in2="hardAlpha" operator="out"/>
<feColorMatrix type="matrix" values="0 0 0 0 0 0 0 0 0 0 0 0 0 0 0 0 0 0 0.15 0"/>
<feBlend mode="normal" in2="BackgroundImageFix" result="effect1_dropShadow_1339_54427"/>
<feBlend mode="normal" in="SourceGraphic" in2="effect1_dropShadow_1339_54427" result="shape"/>
</filter>
<filter id="filter3_d_1339_54427" x="53" y="188" width="153" height="153" filterUnits="userSpaceOnUse" color-interpolation-filters="sRGB">
<feFlood flood-opacity="0" result="BackgroundImageFix"/>
<feColorMatrix in="SourceAlpha" type="matrix" values="0 0 0 0 0 0 0 0 0 0 0 0 0 0 0 0 0 0 127 0" result="hardAlpha"/>
<feOffset dy="2"/>
<feGaussianBlur stdDeviation="10"/>
<feComposite in2="hardAlpha" operator="out"/>
<feColorMatrix type="matrix" values="0 0 0 0 0 0 0 0 0 0 0 0 0 0 0 0 0 0 0.15 0"/>
<feBlend mode="normal" in2="BackgroundImageFix" result="effect1_dropShadow_1339_54427"/>
<feBlend mode="normal" in="SourceGraphic" in2="effect1_dropShadow_1339_54427" result="shape"/>
</filter>
<filter id="filter4_d_1339_54427" x="433" y="58" width="136" height="136" filterUnits="userSpaceOnUse" color-interpolation-filters="sRGB">
<feFlood flood-opacity="0" result="BackgroundImageFix"/>
<feColorMatrix in="SourceAlpha" type="matrix" values="0 0 0 0 0 0 0 0 0 0 0 0 0 0 0 0 0 0 127 0" result="hardAlpha"/>
<feOffset dy="2"/>
<feGaussianBlur stdDeviation="10"/>
<feComposite in2="hardAlpha" operator="out"/>
<feColorMatrix type="matrix" values="0 0 0 0 0 0 0 0 0 0 0 0 0 0 0 0 0 0 0.15 0"/>
<feBlend mode="normal" in2="BackgroundImageFix" result="effect1_dropShadow_1339_54427"/>
<feBlend mode="normal" in="SourceGraphic" in2="effect1_dropShadow_1339_54427" result="shape"/>
</filter>
<filter id="filter5_d_1339_54427" x="43" y="58" width="136" height="136" filterUnits="userSpaceOnUse" color-interpolation-filters="sRGB">
<feFlood flood-opacity="0" result="BackgroundImageFix"/>
<feColorMatrix in="SourceAlpha" type="matrix" values="0 0 0 0 0 0 0 0 0 0 0 0 0 0 0 0 0 0 127 0" result="hardAlpha"/>
<feOffset dy="2"/>
<feGaussianBlur stdDeviation="10"/>
<feComposite in2="hardAlpha" operator="out"/>
<feColorMatrix type="matrix" values="0 0 0 0 0 0 0 0 0 0 0 0 0 0 0 0 0 0 0.15 0"/>
<feBlend mode="normal" in2="BackgroundImageFix" result="effect1_dropShadow_1339_54427"/>
<feBlend mode="normal" in="SourceGraphic" in2="effect1_dropShadow_1339_54427" result="shape"/>
</filter>
<clipPath id="clip0_1339_54427">
<rect width="608" height="512" fill="white"/>
</clipPath>
<clipPath id="clip1_1339_54427">
<rect width="45" height="45" fill="white" transform="translate(80 382)"/>
</clipPath>
<clipPath id="clip2_1339_54427">
<rect width="44" height="44" fill="white" transform="translate(90 102)"/>
</clipPath>
</defs>
</svg>
