<svg width="608" height="512" viewBox="0 0 608 512" fill="none" xmlns="http://www.w3.org/2000/svg">
<g clip-path="url(#clip0_1305_58220)">
<path fill-rule="evenodd" clip-rule="evenodd" d="M325.054 0.882459C371.844 9.42987 382.259 73.7604 418.118 104.927C446.712 129.78 487.3 135.749 512.622 163.909C544.472 199.329 589.44 239.198 580.953 286.012C572.402 333.179 508.276 344.438 473.832 377.873C443.286 407.525 432.058 462.28 390.342 471.041C348.253 479.882 317.598 424.803 274.896 419.657C218.166 412.821 157.549 465.108 107.844 436.999C60.2541 410.087 50.3282 343.779 44.7533 289.51C39.3123 236.544 45.5956 179.437 76.9585 136.347C106.513 95.7414 163.017 90.4861 207.151 66.3886C247.427 44.3967 279.885 -7.36867 325.054 0.882459Z" fill="#EBEBEB"/>
<path d="M321.163 295.936L326.147 292.738L326.487 292.893C335.248 296.78 346.32 298.037 349.882 308.605C351.822 314.342 351.93 315.775 351.463 321.547L353.744 322.397C408.435 339.653 397.702 407.379 386.842 450.684C384.825 458.718 379.24 469.311 371.757 473.227C369.039 474.636 366.111 475.61 363.094 476.114L363.034 477.785C363.789 485.322 363.352 493.412 363.723 501.025C364.286 512.349 364.657 518.126 358.682 528.029L358.587 529.575C359.383 533.201 359.377 546.861 357.192 550.292C353.588 553.019 342.04 553.849 337.289 554.339C301.908 558.216 266.19 557.809 230.907 553.127C228.364 552.771 220.963 551.754 219.892 549.656C217.946 545.843 218.748 534.845 218.833 530.385L218.65 527.598C211.348 520.993 213.717 505.438 213.798 496.481C213.841 491.719 213.528 483.192 214.309 478.686L214.38 475.683C202.896 475.536 193.492 467.405 190.507 456.818C183.752 432.865 182.159 392.811 186.114 368.408C187.09 362.33 188.888 356.413 191.456 350.82C198.741 335.272 210.661 327.043 226.282 321.395C224.769 303.176 237.211 296.609 253.086 293.51C254.687 294.591 256.244 295.703 257.944 296.614L260.65 297.994C277.975 305.931 294.415 306.76 312.378 300.105C313.996 299.502 315.598 298.853 317.18 298.16L321.163 295.936Z" fill="#D4B57A"/>
<path d="M212.582 485.5C230.792 484.311 250.354 479.673 268.082 475.36C274.761 473.735 281.772 471.108 288.455 469.379C312.247 481.286 334.692 484.599 361.015 485.798C360.991 482.703 361.003 480.298 361.237 477.184C361.991 484.721 361.554 492.811 361.925 500.424C362.488 511.748 362.859 517.526 356.885 527.428L356.789 528.974C357.585 532.6 357.579 546.261 355.394 549.691C351.79 552.418 340.242 553.248 335.491 553.738C300.111 557.615 264.392 557.208 229.11 552.527C226.566 552.17 219.165 551.153 218.095 549.055C216.148 545.243 216.951 534.245 217.036 529.785L216.852 526.997C209.55 520.392 211.92 504.837 212 495.88C212.043 491.119 211.73 482.592 212.511 478.086C212.725 480.03 212.598 483.439 212.582 485.5Z" fill="#D4B57A"/>
<path d="M220.266 421.558C220.05 416.09 215.645 376.46 219.138 374.186C224.011 378.573 221.692 417.203 225.173 422.059C236.494 414.35 246.375 410.184 260.121 414.93C264.853 411.572 270.398 412.545 275.844 413.497C289.76 415.931 303.901 417.731 317.821 420.002C318.075 420.044 318.327 420.092 318.579 420.144C332.712 421.82 346.714 424.967 360.033 426.491C362.859 427.174 367.792 427.849 369.282 430.153L369.145 431.243C368.348 431.852 367.804 432.241 366.654 431.896C346.067 425.699 326.301 424.372 304.858 421.259C297.32 420.165 271.732 415.31 264.089 416.518C259.467 417.249 256.751 432.316 254.84 437.543C258.206 443.075 262.599 444.86 268.079 447.939C287.015 458.663 307.304 466.799 328.402 472.13C340.422 475.063 349.108 475.769 361.296 475.517L361.237 477.187C361.003 480.301 360.991 482.707 361.015 485.801C334.692 484.602 312.247 481.289 288.455 469.382C281.772 471.111 274.761 473.738 268.082 475.363C250.354 479.676 230.792 484.314 212.582 485.503C212.598 483.442 212.725 480.033 212.511 478.089L212.582 475.085C237.316 475.193 262.53 470.039 286.175 463.069C276.542 458.057 267.144 452.257 257.881 446.482C255.974 445.293 252.591 440.156 251.269 439.363C243.718 434.83 232.798 429.007 224.694 425.836C220.891 424.348 215.29 424.852 211.382 424.625C210.63 424.581 210.763 424.406 210.24 423.62L210.479 422.714C212.703 421.131 217.385 421.555 220.266 421.558Z" fill="#C8A663"/>
<path d="M225.176 422.059C236.496 414.349 246.377 410.184 260.124 414.93C255.439 421.691 253.705 427.494 252.1 435.601C244.158 431.928 236.553 427.581 228.692 423.743C227.528 423.175 226.303 422.696 225.176 422.059Z" fill="#FEBC8A"/>
<path d="M258.852 297.395C276.177 305.331 292.617 306.16 310.58 299.505C312.198 298.902 313.8 298.254 315.382 297.56C315.545 299.766 315.787 302.273 315.815 304.455C315.842 309.697 316.215 314.55 314.734 319.571C314.225 319.986 313.711 320.394 313.19 320.794C308.198 325.878 302.75 330.326 297.503 335.169C295.337 337.169 288.6 345.245 287.09 345.904L286.754 345.795C280.393 337.806 269.009 329.592 261.557 322.06C260.856 321.368 260.149 320.681 259.436 320C257.664 315.809 258.324 309.495 258.459 304.764L258.852 297.395Z" fill="#FEBC8A"/>
<path d="M258.855 297.395C276.18 305.331 292.62 306.16 310.583 299.505C312.201 298.902 313.803 298.254 315.385 297.56C315.548 299.766 315.79 302.273 315.818 304.455C302.077 314.206 282.661 314.47 267.043 309.255C264.88 308.533 260.272 304.983 258.462 304.764L258.855 297.395Z" fill="#F59C5F"/>
<path d="M261.559 322.06C263.065 322.757 264.584 323.422 266.117 324.058C283.085 330.966 297.409 327.397 313.192 320.795C308.199 325.879 302.752 330.326 297.505 335.17C295.339 337.17 288.602 345.246 287.092 345.905L286.756 345.795C280.395 337.807 269.01 329.593 261.559 322.06Z" fill="white"/>
<path d="M319.367 295.338L324.352 292.141L324.692 292.295C333.453 296.183 344.525 297.44 348.087 308.008C350.027 313.744 350.134 315.177 349.667 320.95C339.993 335.747 310.316 341.62 294.235 345.012C292.182 345.445 288.962 346.635 287.093 345.906C288.603 345.247 295.34 337.171 297.506 335.172C302.753 330.328 308.2 325.88 313.193 320.796C313.714 320.396 314.228 319.988 314.737 319.573C316.217 314.552 315.845 309.699 315.817 304.457C315.79 302.275 315.548 299.769 315.385 297.563L319.367 295.338Z" fill="#D4B57A"/>
<path d="M315.384 297.564L319.367 295.34C325.512 298.553 331.399 301.852 326.821 309.577C324.968 312.706 318.063 318.693 314.736 319.575C316.217 314.554 315.844 309.701 315.817 304.459C315.789 302.277 315.547 299.77 315.384 297.564Z" fill="#C8A663"/>
<path d="M356.623 391.471C362.423 391.644 369.242 392.408 368.829 399.988L370.032 402.187C374.767 405.535 375.21 407.117 373.803 412.72C372.552 413.823 372.247 413.841 370.625 414.421C370.924 421.391 366.614 425.263 360.035 426.489C346.715 424.965 332.713 421.818 318.58 420.143C318.625 419.928 318.663 419.687 318.772 419.499C326.811 405.589 336.9 395.845 352.252 391.583L356.623 391.471Z" fill="#FEBC8A"/>
<path d="M339.891 419.956C345.956 412.026 354.941 409.09 364.717 409.289C367.938 409.354 371.589 410.301 373.804 412.72C372.553 413.823 372.248 413.841 370.626 414.421C361.329 409.515 347.757 413.905 339.891 419.956Z" fill="#F59C5F"/>
<path d="M370.034 402.189C363.371 400.356 355.02 400.999 348.668 403.697C345.807 404.913 342.873 406.676 339.826 407.247L339.802 406.686C345.669 400.452 360.88 397.64 368.83 399.99L370.034 402.189Z" fill="#F59C5F"/>
<path d="M349.669 320.947L351.949 321.797C347.597 333.841 318.916 344.416 306.814 344.961C304.852 344.733 304.334 344.804 302.451 345.019C302.125 345.651 301.969 345.812 301.544 346.395C296.843 347.982 280.192 347.776 274.75 346.928C272.723 346.612 272.578 346.409 271.749 345.041C269.957 344.684 269.106 344.866 267.332 345.074L266.836 345.067C258.821 344.898 220.724 332.083 224.936 321.736C227.7 323.952 229.415 326.211 232.514 328.292C245.371 336.925 260.805 341.673 275.965 344.218C279.055 344.737 283.268 346.559 285.437 346.571L286.758 345.794L287.094 345.904C288.963 346.633 292.183 345.442 294.236 345.01C310.317 341.618 339.995 335.745 349.669 320.947Z" fill="#C8A663"/>
<path d="M267.33 345.075C269.104 344.867 269.955 344.685 271.747 345.043C272.253 347.953 272.083 355.777 272.076 358.989L272.019 383.18C272.012 388.636 272.208 394.684 272.022 400.154C271.973 401.622 271.014 402.452 269.998 403.212C268.884 403.116 269.052 403.354 268.395 402.74C267.78 402.191 267.404 401.146 267.391 400.323C267.292 394.332 267.349 388.29 267.358 382.298L267.33 345.075Z" fill="white"/>
<path d="M302.45 345.023C304.332 344.808 304.851 344.737 306.812 344.965C306.615 359.166 307.473 387.368 306.228 402.42C306.178 403.03 305.123 403.165 304.608 403.282C303.104 402.755 301.901 401.356 302.025 399.735C303.357 382.235 300.758 362.263 302.45 345.023Z" fill="white"/>
<path d="M256.147 296.016L258.853 297.396L258.46 304.766C258.325 309.496 257.665 315.81 259.438 320.002C247.539 313.134 240.403 304.204 256.147 296.016Z" fill="#C8A663"/>
<path d="M352.254 391.581C352.858 386.982 352.834 378.143 354.666 374.616L355.528 373.996C356.001 374.207 356.809 374.472 356.863 375.127C357.24 379.747 356.851 386.987 356.624 391.468L352.254 391.581Z" fill="#C8A663"/>
<path d="M271.982 344.818H260.009C256.018 355.195 247.558 376.427 245.642 378.342C243.247 380.737 260.009 406.478 262.404 408.873C264.798 411.267 293.533 406.478 298.322 406.478H314.486V388.519V344.818H304.907C302.513 344.818 293.932 347.612 289.941 349.009L271.982 344.818Z" fill="#D4B57A"/>
<mask id="mask0_1305_58220" style="mask-type:alpha" maskUnits="userSpaceOnUse" x="232" y="373" width="107" height="47">
<path d="M244.146 412.467C241.353 413.465 235.526 415.64 234.568 416.358L232.772 399.896C234.967 392.413 239.477 376.968 239.956 375.052C240.435 373.136 258.713 374.254 267.793 375.052H315.385C316.582 375.052 325.861 381.038 330.351 384.031L338.432 395.705L332.446 403.487L323.167 410.671L318.976 419.651L285.153 413.964L264.201 412.467H244.146Z" fill="#D9D9D9"/>
</mask>
<g mask="url(#mask0_1305_58220)">
<path d="M302.946 418.61C304.683 418.275 306.348 418.422 307.563 419.957C308.373 420.976 308.547 422.205 308.654 423.441C308.947 426.783 308.654 430.11 308.408 433.438C308.283 435.123 308.205 436.815 308.123 438.504C308.109 438.785 308.031 439.095 308.252 439.401C308.644 439.148 308.812 438.75 309.019 438.383C310.106 436.448 311.14 434.482 312.284 432.583C314.256 429.309 316.131 425.977 318.271 422.807C318.923 421.841 319.622 420.901 320.346 419.989C321.401 418.661 322.759 418.308 324.117 418.952C324.994 419.369 325.184 419.74 324.831 420.645C324.093 422.543 323.262 424.406 322.566 426.319C320.944 430.78 319.494 435.291 319.009 440.043C318.941 440.702 318.944 441.371 318.99 442.03C319.072 443.181 319.867 443.569 320.869 442.968C321.183 442.779 321.468 442.544 321.75 442.312C322.01 442.099 322.281 441.885 322.605 442.12C322.933 442.355 322.792 442.7 322.695 443.003C322.218 444.517 320.121 445.882 318.595 445.683C316.573 445.415 315.483 444.211 315.404 442.12C315.347 440.603 315.578 439.109 315.878 437.624C316.666 433.734 317.982 429.996 319.208 426.23C319.261 426.067 319.397 425.907 319.255 425.661C318.103 427.229 317.108 428.863 316.103 430.491C313.514 434.684 311.361 439.113 308.919 443.385C308.684 443.798 308.448 444.229 308.07 444.542C307.069 445.368 305.792 444.941 305.557 443.666C305.296 442.241 305.282 440.795 305.417 439.355C305.741 435.975 305.617 432.586 305.613 429.202C305.62 429.152 305.57 429.095 305.471 428.889C304.968 430.189 304.515 431.372 304.048 432.551C302.654 436.099 301.068 439.551 298.633 442.525C297.214 444.257 295.63 445.871 293.345 446.384C290.15 447.1 286.799 445.963 285.825 442.597C285.13 440.192 286.311 437.232 288.364 436.288C289.102 435.95 289.858 435.85 290.632 436.146C290.924 436.26 291.138 436.463 291.174 436.794C291.206 437.075 291.088 437.314 290.842 437.421C289.263 438.112 289.142 439.558 289.01 440.979C288.931 441.806 289.188 442.532 289.705 443.213C290.636 444.445 292.849 444.204 293.951 443.566C295.852 442.462 297.125 440.769 298.337 439.002C300.986 435.13 302.683 430.805 304.376 426.477C304.768 425.475 305.175 424.478 305.507 423.455C305.888 422.287 305.346 421.183 304.305 420.809C303.681 420.584 303.111 420.833 302.572 421.047C300.087 422.041 296.615 426.074 297.1 429.337C297.16 429.736 297.231 430.1 297.52 430.392C297.819 430.691 297.973 431.026 297.748 431.442C297.502 431.898 297.074 431.874 296.664 431.813C294.917 431.56 293.683 429.693 294.008 427.787C294.322 425.96 295.117 424.346 296.283 422.925C298.037 420.78 300.162 419.148 302.946 418.61ZM279.953 420.647C282.363 420.334 284.784 420.113 287.205 420.565C288.367 420.783 289.458 421.196 290.396 421.934C291.191 422.561 291.683 423.37 291.604 424.421C291.565 424.973 291.365 425.46 290.745 425.606C290.153 425.742 289.801 425.436 289.526 424.951C288.664 423.434 287.147 423.174 285.625 423.063C283.301 422.893 281.012 423.294 278.73 423.683C272.698 424.709 266.922 426.654 261.139 428.589C258.529 429.462 255.904 430.274 253.145 430.53C252.735 430.569 252.325 430.591 251.915 430.619C250.664 430.594 249.44 430.431 248.324 429.825C247.814 429.551 247.369 429.184 247.091 428.66C246.816 428.147 246.856 427.631 247.23 427.182C247.551 426.797 247.982 426.661 248.467 426.854C250.652 427.719 252.885 427.516 255.103 427.074C258.957 426.308 262.629 424.912 266.376 423.786C270.833 422.447 275.325 421.25 279.953 420.647ZM256.449 382.542C258.389 382.442 260.208 382.709 261.584 384.273C262.575 385.399 262.935 386.764 262.885 388.221C262.781 391.281 261.812 394.007 259.58 396.19C259.085 396.675 258.514 397.063 257.805 397.174C257.01 397.299 256.436 397.013 256.161 396.368C255.89 395.738 256.033 395.175 256.682 394.684C257.883 393.779 258.61 392.567 259.06 391.163C259.673 389.67 259.937 388.149 259.416 386.571C259.338 386.336 259.245 386.101 259.053 385.923C258.721 385.242 258.115 385.018 257.423 384.965C256.353 384.883 255.387 385.235 254.488 385.77C251.9 387.312 249.903 389.479 248.178 391.897C244.905 396.482 242.519 401.466 241.528 407.049C241.204 408.876 241.296 410.704 241.885 412.475C243.043 415.959 246.003 417.433 249.504 416.318C251.689 415.624 253.526 414.344 255.233 412.873C257.159 411.213 258.956 409.418 260.632 407.501C261.088 406.977 261.452 406.404 261.694 405.752C262.275 404.188 262.871 402.628 263.463 401.067C264.069 399.735 264.668 398.402 265.281 397.073C266.643 394.117 268.201 391.27 270.048 388.588C270.793 387.505 271.645 386.511 272.754 385.791C273.567 385.264 274.447 384.865 275.467 385.061C276.397 385.239 276.904 385.763 277.101 386.686C277.297 387.622 277.061 388.502 276.769 389.375C276.059 391.477 274.929 393.358 273.685 395.175C271.036 399.037 268.097 402.663 264.61 405.798C263.484 406.813 263.088 408.061 262.571 409.45C262.985 409.361 263.103 409.101 263.271 408.908C265.028 406.895 266.604 404.719 268.611 402.924C269.642 402.001 270.754 401.27 272.219 401.345C273.413 401.911 273.742 402.56 273.567 404.01C273.393 405.435 272.829 406.742 272.312 408.061C271.784 409.4 271.26 410.743 270.975 412.161C270.907 412.496 270.804 412.859 271.149 413.108C271.492 413.354 271.813 413.162 272.112 412.998C273.189 412.41 273.909 411.459 274.633 410.515C275.863 408.915 276.879 407.181 277.82 405.399C278.152 404.772 278.516 404.167 278.865 403.551C279.618 402.692 280.227 401.709 281.083 400.936C281.978 400.131 282.926 399.425 284.099 399.079C285.685 398.609 286.976 399.219 287.632 400.726C287.71 400.907 287.697 401.196 287.946 401.21C288.192 401.224 288.224 400.942 288.313 400.768C288.495 400.419 288.72 400.105 289.03 399.859C289.38 399.582 289.775 399.496 290.188 399.688C290.623 399.895 290.727 400.298 290.709 400.729C290.688 401.238 290.499 401.708 290.303 402.175C289.436 404.223 288.374 406.18 287.439 408.192C287.044 409.047 286.719 409.931 286.684 410.886C286.669 411.203 286.691 411.534 286.773 411.837C286.966 412.553 287.422 412.699 288 412.25C288.456 411.897 288.784 411.416 289.115 410.953C290.577 408.901 292.036 406.843 293.27 404.645C294.075 403.209 294.763 401.708 294.812 399.998C294.83 399.346 295.035 398.726 295.548 398.271C296.043 397.836 296.617 397.722 297.198 398.05C297.762 398.367 297.84 398.905 297.712 399.489C297.698 399.553 297.683 399.621 297.665 399.688C297.344 400.861 297.373 400.929 298.578 401.253C299.195 401.417 299.823 401.531 300.379 401.891C301.22 402.436 301.556 403.198 301.452 404.174C301.377 404.868 301.134 405.506 300.824 406.126C300.211 407.355 299.591 408.58 298.988 409.816C298.653 410.5 298.435 411.231 298.378 411.99C298.31 412.906 298.86 413.276 299.684 412.863C300.457 412.475 301.02 411.83 301.591 411.203C302.532 410.17 303.38 409.058 304.179 407.911C304.82 406.988 304.871 405.88 305.113 404.844C306.058 400.786 307.481 396.902 309.292 393.158C309.431 392.873 309.531 392.567 309.648 392.271C310.729 390.415 311.663 388.466 312.914 386.71C313.809 385.456 314.758 384.253 316.173 383.529C316.476 383.376 316.793 383.233 317.121 383.141C319.25 382.535 320.651 383.732 320.455 385.951C320.291 387.786 319.635 389.475 318.887 391.121C316.434 396.525 313.267 401.449 308.899 405.535C308.6 405.816 308.275 406.072 307.969 406.347C306.429 407.725 305.937 410.604 306.928 412.438C307.398 413.308 308.186 413.628 309.277 413.351C310.372 413.073 311.278 412.446 312.08 411.68C314.504 409.368 316.348 406.61 318.077 403.768C318.697 402.752 319.25 401.695 319.846 400.665C320.085 400.252 320.327 399.831 320.772 399.585C321.143 399.378 321.521 399.347 321.881 399.574C322.234 399.795 322.309 400.163 322.245 400.544C322.092 401.488 321.631 402.315 321.196 403.145C320.023 405.371 318.769 407.559 317.952 409.956C317.717 410.654 317.518 411.359 317.589 412.107C317.653 412.795 318.098 413.07 318.74 412.799C318.947 412.713 319.154 412.588 319.321 412.438C320.737 411.181 321.864 409.689 322.848 408.082C323.457 407.391 323.953 406.629 324.316 405.788C325.111 403.946 326.224 402.318 327.539 400.814C328.099 400.177 328.802 399.7 329.447 399.158C330.31 398.791 331.162 398.403 332.139 398.435C333.818 398.488 334.913 399.582 334.952 401.267C334.988 402.863 334.413 404.256 333.361 405.399C331.568 407.352 329.408 408.591 326.634 408.324C326.046 408.267 325.807 408.452 325.718 409.019C325.614 409.678 325.525 410.334 325.575 411C325.679 412.4 326.53 413.222 327.928 413.272C329.318 413.322 330.523 412.781 331.657 412.058C333.016 411.192 334.225 410.145 335.27 408.912C335.637 408.478 336.007 408.032 336.488 407.711C336.831 407.483 337.223 407.387 337.576 407.672C337.908 407.946 337.872 408.328 337.719 408.691C337.612 408.944 337.494 409.201 337.319 409.407C335.412 411.662 333.269 413.64 330.566 414.926C329.237 415.56 327.853 415.703 326.416 415.343C325.799 415.186 325.3 414.826 324.776 414.502C323.978 413.551 323.436 412.485 323.357 411.221C323.35 411.107 323.346 410.968 323.211 410.939C323.051 410.904 322.976 411.042 322.887 411.146C322.291 411.844 321.71 412.55 321.104 413.237C320.448 413.982 319.681 414.594 318.758 414.989C317.364 415.584 315.987 414.936 315.549 413.486C315.299 412.656 315.425 411.816 315.514 410.989C315.175 410.904 315.1 411.149 314.979 411.288C313.88 412.556 312.686 413.721 311.257 414.619C310.376 415.171 309.452 415.621 308.383 415.656C306.728 415.71 305.52 414.915 304.917 413.376C304.671 412.749 304.547 412.104 304.482 411.438C304.468 411.27 304.503 411.028 304.271 410.981C304.094 410.946 303.998 411.128 303.901 411.249C303.242 412.072 302.503 412.824 301.729 413.54C300.931 414.277 300.036 414.876 298.967 415.146C297.337 415.56 296.211 414.686 296.118 413.016C296.043 411.644 296.471 410.398 296.984 409.165C297.494 407.94 298.054 406.735 298.539 405.499C299.002 404.323 298.792 403.914 297.604 403.458C296.239 402.931 296.264 402.941 295.654 404.27C294.089 407.686 292.139 410.85 289.422 413.49C289.012 413.889 288.57 414.252 288.057 414.52C286.424 415.364 284.862 414.566 284.605 412.745C284.534 412.232 284.506 411.716 284.441 411.046C284.074 411.495 283.803 411.851 283.511 412.186C282.512 413.333 281.446 414.391 280.099 415.136C277.959 416.318 275.788 415.335 275.481 413.026C275.464 412.877 275.478 412.674 275.289 412.624C275.1 412.574 275.014 412.767 274.918 412.881C274.28 413.636 273.566 414.313 272.761 414.887C272.383 415.154 271.98 415.371 271.542 415.51C270.383 415.873 269.242 415.275 268.871 414.117C268.593 413.255 268.697 412.396 268.896 411.541C269.274 409.906 269.902 408.356 270.454 406.778C270.711 406.045 270.928 405.296 271.149 404.552C271.199 404.384 271.296 404.181 271.132 404.035C270.943 403.868 270.736 403.999 270.558 404.088C269.591 404.565 268.871 405.357 268.137 406.098C265.402 408.851 263.017 411.894 260.917 415.157C260.732 415.442 260.553 415.741 260.332 416.001C259.99 416.404 259.537 416.561 259.034 416.354C258.496 416.137 258.368 415.648 258.489 415.153C258.685 414.356 258.967 413.579 259.209 412.792C259.27 412.6 259.38 412.414 259.309 412.161C258.999 412.176 258.863 412.439 258.688 412.617C256.945 414.381 255.141 416.069 253.052 417.419C251.372 418.506 249.551 419.25 247.536 419.347C242.716 419.578 239.101 416.718 238.159 411.973C237.482 408.57 238.024 405.268 239.068 402.029C240.705 396.96 243.187 392.35 246.73 388.324C248.313 386.525 250.146 385.014 252.186 383.753C253.544 383.126 254.934 382.62 256.449 382.542ZM286.353 403.13C286.331 401.602 285.418 401.017 284.142 401.608C283.596 401.861 283.122 402.218 282.69 402.639C281.079 404.21 279.888 406.077 278.911 408.086C278.359 409.222 277.931 410.409 277.796 411.677C277.742 412.204 277.714 412.784 278.188 413.13C278.672 413.483 279.197 413.255 279.675 413.002C280.452 412.585 281.125 412.033 281.699 411.374C283.043 409.831 284.16 408.125 285.169 406.351C285.761 405.31 286.221 404.216 286.353 403.13ZM332.467 402.307C332.47 401.16 331.886 400.74 330.898 401.071C330.546 401.192 330.224 401.373 329.953 401.619C328.627 402.82 327.693 404.302 326.884 405.877C326.613 406.404 327.009 406.401 327.344 406.394C328.638 406.351 329.811 405.958 330.834 405.153C331.797 404.398 332.417 403.457 332.467 402.307ZM317.898 385.741C317.592 385.578 317.324 385.755 317.071 385.919C316.273 386.439 315.656 387.148 315.093 387.903C312.041 391.986 309.998 396.579 308.247 401.32C307.916 402.225 307.673 403.155 307.491 404.103C307.463 404.234 307.417 404.394 307.552 404.473C307.691 404.562 307.809 404.43 307.916 404.355C308.479 403.953 308.957 403.457 309.402 402.934C312.575 399.204 314.965 394.989 316.926 390.525C317.485 389.25 317.988 387.942 318.181 386.578C318.149 386.25 318.219 385.912 317.898 385.741ZM274.558 387.942C274.212 387.726 273.887 387.932 273.609 388.135C272.996 388.584 272.473 389.133 272.034 389.749C269.834 392.859 268.03 396.19 266.45 399.649C266.019 400.597 265.573 401.541 265.249 402.631C265.438 402.585 265.491 402.584 265.52 402.56C265.659 402.442 265.798 402.321 265.923 402.189C268.497 399.478 270.782 396.539 272.754 393.365C273.613 391.983 274.294 390.504 274.758 388.94C274.861 388.591 274.939 388.185 274.558 387.942ZM322.756 393.11C323.733 392.576 324.778 393.032 325.056 394.115C325.309 395.109 325.009 395.972 324.289 396.67C323.797 397.147 323.177 397.368 322.514 397.04C321.772 396.666 321.525 395.996 321.554 395.198C321.593 394.297 321.939 393.556 322.756 393.11Z" fill="white"/>
</g>
<path d="M278.868 111.755C290.837 101.826 289.668 102.736 298.923 116.246C302.16 123.163 313.793 102.137 308.112 107.579C319.537 111.541 331.569 116.251 332.571 130.089C348.541 141.688 350.427 161.897 350.673 180.15C350.696 181.844 349.751 188.164 350.08 189.201C351.708 190.563 351.87 190.582 351.972 192.828C355.875 193.179 357.844 192.978 360.49 196.168C364.699 201.243 365.184 209.887 364.567 216.129C363.861 223.324 360.993 232.06 355.252 236.856C352.905 238.818 351.69 238.799 348.811 239.288C346.823 260.268 342.345 278.306 325.25 292.324C324.574 292.877 323.886 293.418 323.19 293.947L318.205 297.144L314.223 299.368C312.641 300.062 311.039 300.71 309.42 301.313C291.458 307.968 275.018 307.139 257.692 299.203L254.987 297.822C253.286 296.912 251.729 295.799 250.128 294.718C230.683 279.975 225.616 262.53 223.443 239.106C208.209 236.189 204.819 212.697 208.956 200.495C210.978 194.53 213.877 193.93 219.471 192.614C219.935 192.505 220.008 190.845 220.083 190.363L221.928 189.171C222.171 188.081 221.47 179.078 221.503 177.116C221.583 171.208 222.063 164.868 223.267 159.085C225.432 148.688 229.56 136.366 239.043 130.541C240.557 129.611 240.32 128.061 240.544 126.379C241.194 115.711 256.034 110.633 264.348 107.5C257.619 99.92 272.058 118.771 278.868 111.755Z" fill="#803C07"/>
<path d="M280.135 115.948C292.104 106.018 290.266 100.942 299.52 114.451C302.757 121.369 313.792 102.139 308.111 107.581C319.536 111.543 331.568 116.253 332.57 130.091C348.54 141.69 350.426 161.899 350.671 180.152C350.695 181.846 349.75 188.166 350.079 189.203C349.109 189.398 347.098 189.435 346.038 189.486C335.437 189.601 324.758 188.019 314.174 188.599C304.573 189.125 298.434 188.764 291.564 196.15C288.308 196.404 283.769 196.329 280.403 196.356L280.135 196.081C278.897 194.813 276.708 192.451 275.196 191.808C261.448 185.963 240.68 189.618 226.209 189.442C224.304 189.516 223.756 189.446 221.927 189.173C222.17 188.083 221.469 179.08 221.502 177.119C221.582 171.211 222.062 164.87 223.266 159.087C225.431 148.69 229.559 136.368 239.042 130.543C240.556 129.613 240.319 128.064 240.543 126.381C241.193 115.714 256.033 110.635 264.347 107.502C257.618 99.9221 273.325 122.963 280.135 115.948Z" fill="#FEBC8A"/>
<path d="M284.257 118.045C296.226 108.115 288.472 106.032 297.727 119.541C300.964 126.459 313.794 102.141 308.113 107.582C319.538 111.544 331.57 116.254 332.572 130.092C331.645 136.042 330.546 138.325 326.227 142.657C319.418 148.553 313.45 152.305 304.661 154.756C284.628 160.344 262.066 156.836 246.694 142.321C241.275 136.604 240.663 133.903 240.545 126.383C241.196 115.715 256.035 110.637 264.349 107.503C257.62 99.9234 277.447 125.06 284.257 118.045Z" fill="#FEBC8A"/>
<path d="M275.875 120.137C287.843 110.208 285.178 112.614 294.433 126.124C297.669 133.041 313.791 102.138 308.111 107.58C296.533 104.087 275.638 103.777 264.347 107.501C257.617 99.921 269.064 127.153 275.875 120.137Z" fill="#803C07"/>
<path d="M221.927 189.172C222.17 188.083 221.469 179.079 221.502 177.118C221.582 171.21 222.062 164.869 223.266 159.087C225.431 148.69 229.559 136.367 239.042 130.543C240.556 129.613 240.319 128.063 240.543 126.381C240.661 133.901 241.273 136.602 246.692 142.319C233.022 155.057 226.852 169.871 226.227 188.646C226.218 188.911 226.212 189.176 226.209 189.442C224.304 189.515 223.756 189.445 221.927 189.172Z" fill="#A06A48"/>
<path d="M332.57 130.092C348.541 141.691 350.426 161.9 350.672 180.153C350.696 181.847 349.75 188.167 350.079 189.204C349.109 189.399 347.098 189.436 346.038 189.487C345.476 169.91 340.926 156.337 326.225 142.657C330.544 138.324 331.643 136.041 332.57 130.092Z" fill="#A06A48"/>
<path d="M304.064 171.685C311.99 169.822 329.384 169.844 335.405 178.878C335.78 179.44 335.457 180.003 335.193 180.532C333.709 181.658 333.414 181.945 331.543 182.343C322.433 181.238 315.409 181.338 306.264 182.266C300.105 182.89 296.94 175.716 304.064 171.685Z" fill="#4E2606"/>
<path d="M262.894 170.523C271.138 171.498 276.477 177.937 268.371 181.327C265.682 182.451 251.348 181.385 245.797 182.09C245.024 182.224 244.249 182.342 243.471 182.445C241.022 182.759 237.414 182.873 237.14 179.75C240.203 171.676 255.512 169.99 262.894 170.523Z" fill="#4E2606"/>
<path d="M291.565 196.153C298.434 188.767 304.574 189.127 314.174 188.601C324.759 188.021 335.438 189.604 346.039 189.488C347.098 189.437 349.11 189.4 350.08 189.206C351.708 190.567 351.87 190.586 351.971 192.832C355.875 193.183 357.844 192.982 360.49 196.172C364.699 201.248 365.183 209.891 364.567 216.133C363.86 223.328 360.993 232.064 355.252 236.86C352.905 238.823 351.69 238.803 348.811 239.292L348.817 229.939C348.853 225.86 348.805 212.845 347.218 209.636C343.968 224.978 342.136 234.518 330.425 246.073C320.412 238.602 313.014 236.976 300.967 235.602C300.1 235.593 297.777 235.486 297.229 236.063C292.429 241.233 284.218 243.421 278.215 239.043C274.774 236.533 275.815 235.801 271.458 235.622C272.658 235.439 273.426 235.256 274.6 234.945C275.056 231.262 274.901 227.26 275.356 223.286C270.634 229.61 264.826 232.264 257.064 233.046C229.638 235.808 227.962 222.009 225.833 199.936C220.934 196.57 220.28 196.31 220.083 190.367L221.928 189.175C223.756 189.448 224.305 189.518 226.21 189.444C240.681 189.62 261.449 185.966 275.197 191.81C276.709 192.453 278.898 194.815 280.136 196.083L280.404 196.359C283.77 196.332 288.309 196.406 291.565 196.153Z" fill="#841D13"/>
<path d="M346.222 199.711C349.916 197.284 350.371 196.914 351.969 192.83C355.872 193.181 357.842 192.98 360.488 196.17C364.697 201.246 365.181 209.889 364.565 216.131C363.858 223.326 360.991 232.062 355.25 236.858C352.903 238.821 351.688 238.801 348.809 239.29L348.815 229.937C348.85 225.858 348.803 212.843 347.216 209.634C343.966 224.976 342.134 234.516 330.423 246.071C320.41 238.6 313.012 236.974 300.965 235.6C299.503 235.353 297.713 235.504 296.447 234.86C296.514 231.004 296.684 229.788 296.016 225.819C295.63 223.531 294.532 219.703 294.629 217.722C298.311 226.103 304.69 231.509 313.765 232.625C344.546 236.407 342.768 221.468 346.222 199.711Z" fill="#FEBC8A"/>
<path d="M347.219 209.634C348.344 206.979 349.224 204.132 352.145 203.027C355.809 201.641 357.347 206.131 357.671 208.868C358.413 215.216 356.036 221.609 352.277 226.643C350.966 228.414 349.601 229.046 348.817 229.937C348.853 225.859 348.805 212.843 347.219 209.634Z" fill="#F59C5F"/>
<path d="M275.357 223.285C275.755 222.055 277.181 219.597 277.76 217.856C279.253 213.362 280.173 209.073 281.186 204.479C282.813 202.597 286.776 201.517 288.778 202.861C292.52 205.374 293.156 213.229 294.632 217.723C294.535 219.704 295.633 223.532 296.019 225.82C296.687 229.789 296.517 231.005 296.45 234.861C297.716 235.505 299.506 235.354 300.968 235.601C300.101 235.592 297.778 235.485 297.23 236.062C292.43 241.232 284.219 243.42 278.216 239.042C274.775 236.533 275.816 235.8 271.459 235.621C272.659 235.438 273.427 235.255 274.601 234.944C275.057 231.261 274.902 227.259 275.357 223.285Z" fill="#F59C5F"/>
<path d="M239.51 192.72C248.031 191.991 258.586 192.462 267.094 193.294C277.951 194.355 278.152 202.663 276.075 211.301C274.425 218.168 271.92 222.933 265.764 226.75C258.387 229.846 246.225 231.028 238.436 226.643C230.774 222.33 228.234 203.695 231.629 196.026C232.631 193.763 237.074 193.114 239.51 192.72Z" fill="#FEBC8A"/>
<path d="M308.65 192.762C314.917 192.007 332.459 191.915 338.011 194.355C344.662 197.277 341.274 216.946 338.173 221.921C335.512 226.193 333.743 227.11 328.921 228.358L328.663 228.414C311.067 232.139 297.075 224.996 295.551 205.957C294.628 194.412 298.514 194.071 308.65 192.762Z" fill="#FEBC8A"/>
<path d="M223.443 239.11C208.209 236.193 204.819 212.701 208.956 200.499C210.978 194.534 213.877 193.934 219.471 192.618C219.935 192.509 220.008 190.849 220.083 190.367C220.28 196.309 220.934 196.57 225.833 199.935C227.962 222.008 229.638 235.808 257.064 233.045C264.826 232.264 270.634 229.609 275.356 223.286C274.901 227.26 275.056 231.262 274.6 234.944C273.426 235.256 272.658 235.439 271.459 235.621C260.239 236.434 250.609 238.903 241.677 246.128C228.698 235.427 228.404 222.809 224.802 209.097C223.598 214.834 223.187 224.187 223.142 230.13C223.241 232.649 223.53 236.707 223.443 239.11Z" fill="#FEBC8A"/>
<path d="M223.141 230.13C205.738 214.53 218.189 191.675 224.801 209.097C223.598 214.833 223.186 224.187 223.141 230.13Z" fill="#F59C5F"/>
<path d="M261.015 249.048C271.202 253.281 278.761 257.548 290.138 258.778C293.061 259.094 294.953 259.301 297.973 259.378C302.087 259.481 310.828 258.038 314.159 259.409C317.007 263.343 310.221 268.883 307.349 271.063C301.631 274.387 297.35 275.692 290.03 275.969C277.364 276.449 260.055 267.314 259.093 253.268C258.951 251.198 259.578 250.412 261.015 249.048Z" fill="white"/>
<path d="M221.996 189.173L227.084 189.472C227.722 186.707 233.708 160.87 240.254 149.663C245.756 152.718 251.261 153.778 257.538 154.27C264.365 155.151 271.258 155.421 278.133 155.078C292.326 154.336 306.319 151.414 319.619 146.416C322.635 145.29 333.104 140.494 333.399 141.522C308.799 135.295 345.289 168.249 344.418 189.472H350.105C355.72 165.933 352.474 166.358 351.542 158.699C350.947 151.427 348.499 144.428 344.432 138.365C349.973 135.551 357.966 129.189 357.574 122.118C357.574 121.897 357.574 121.971 357.574 122.118C357.353 119.817 353.332 122.827 352.302 123.365C352.695 122.044 353.479 118.129 350.929 119.059C350.929 118.349 351.101 116.416 350.169 116.098C349.238 115.78 347.889 117.175 347.276 117.615C346.102 118.48 344.855 119.241 343.549 119.891C342.225 119.255 340.877 118.594 339.528 118.031C336.831 116.906 334.11 115.853 331.339 114.924C328.518 113.787 325.822 112.36 323.297 110.666C312.288 104.084 300.372 98.2109 287.377 97.1832C274.035 96.0821 260.714 99.5329 249.594 106.971C244.658 110.22 240.382 114.372 236.991 119.206C235.226 121.824 229.636 131.954 235.765 132.982C216.175 147.027 221.554 186.604 221.996 189.173Z" fill="#663B13"/>
<path d="M266.463 213.608C266.463 213.608 263.755 205.669 255.935 206.02C253.956 205.902 252.01 206.56 250.509 207.857C249.007 209.153 248.068 210.985 247.888 212.966C247.888 212.966 254.186 204.61 266.463 213.608Z" fill="black"/>
<path d="M312.929 199.352C323.304 200.696 323.621 213.369 315.039 218.162C306.012 218.061 303.866 204.057 312.929 199.352Z" fill="#0D0D0C"/>
<path d="M313.489 202.791C314.223 202.239 315.197 202.127 316.037 202.497C316.877 202.867 317.451 203.662 317.538 204.576C317.626 205.49 317.213 206.379 316.458 206.903C315.323 207.69 313.767 207.423 312.957 206.303C312.149 205.183 312.385 203.621 313.489 202.791Z" fill="white"/>
<path d="M469.326 241.982C458.859 241.894 448.299 243.654 438.957 247.762C417.209 257.326 398.754 282.632 405.976 308.481C408.322 316.877 407.09 326.142 414.982 329.79C419.252 331.765 430.881 332.941 435.302 331.384C447.054 327.248 454.778 315.93 448.387 303.378C446.34 299.36 443.689 295.691 441.924 291.521C440.158 287.352 439.351 282.411 441.152 278.262C444.69 270.117 456.44 267.528 464.059 267.772C473.053 268.06 481.202 272.776 486.042 280.864C492.074 290.945 493.602 303.205 492.718 314.908C491.773 327.428 486.792 336.989 479.328 346.595C472.899 354.864 465.824 362.802 461.553 372.513C457.632 381.428 456.35 391.305 456.173 401.057C456.138 402.948 447.272 420.762 447.307 426.204C447.313 426.973 457.362 429.523 458.092 429.528L476.545 429.747C476.934 429.752 477.31 429.593 477.59 429.305C477.869 429.016 478.029 428.622 478.034 428.209C478.315 401.732 485.999 376.489 505.449 358.706C512.526 352.236 520.148 346.966 525.651 338.799C533.495 327.159 537.365 315.704 536.248 301.338C535.228 288.218 531.151 275.09 523.083 264.911C514.413 253.967 501.72 247.136 488.527 244.187C482.212 242.779 475.779 242.04 469.326 241.982Z" fill="#923D4F"/>
<path d="M488.632 459.428C488.632 471.602 482.265 482.374 470.778 482.374C468.297 482.374 459.857 482.399 457.65 481.554C449.643 478.488 449.614 471.967 449.614 462.423C449.614 450.247 453.493 438.273 464.98 438.273C476.467 438.273 488.632 447.251 488.632 459.428Z" fill="#923D4F"/>
<path d="M459.379 239.204C448.912 239.117 438.352 240.876 429.01 244.985C407.263 254.548 388.807 279.855 396.03 305.703C398.376 314.1 403.801 324.67 411.689 328.319C415.959 330.293 420.93 330.162 425.352 328.606C437.104 324.471 444.828 313.152 438.436 300.601C436.39 296.583 433.738 292.914 431.973 288.744C430.208 284.575 429.4 279.634 431.202 275.484C434.739 267.339 446.489 264.751 454.109 264.994C463.103 265.283 471.251 269.998 476.092 278.087C482.124 288.167 483.652 300.428 482.767 312.129C481.822 324.651 476.842 334.212 469.377 343.818C462.949 352.087 455.873 360.025 451.602 369.736C447.681 378.646 446.399 388.528 446.222 398.28C446.188 400.171 446.788 419.91 446.826 425.352C446.829 425.722 446.969 426.075 447.216 426.337C447.462 426.598 447.796 426.747 448.145 426.75L466.597 426.969C466.987 426.974 467.363 426.815 467.642 426.526C467.921 426.238 468.081 425.844 468.086 425.43C468.368 398.953 476.051 373.71 495.502 355.928C502.579 349.458 510.201 344.188 515.704 336.021C523.547 324.385 527.421 312.933 526.303 298.565C525.283 285.444 521.207 272.316 513.138 262.137C504.466 251.195 491.773 244.358 478.581 241.414C472.265 240.004 465.833 239.264 459.379 239.204Z" fill="#A44C5F"/>
<path d="M460.466 481.694C471.953 481.694 481.265 471.824 481.265 459.649C481.265 447.474 471.953 437.604 460.466 437.604C448.979 437.604 439.667 447.474 439.667 459.649C439.667 471.824 448.979 481.694 460.466 481.694Z" fill="#A44C5F"/>
<path opacity="0.63" d="M402.914 303.175C402.854 303.175 402.795 303.153 402.748 303.112C402.7 303.072 402.668 303.016 402.655 302.953C401.197 295.977 400.982 285.053 408.241 272.627C415.329 260.498 425.262 252.382 437.775 248.505C451.152 244.361 467.033 245.248 484.98 251.142C485.014 251.152 485.046 251.169 485.074 251.193C485.102 251.216 485.125 251.246 485.142 251.279C485.159 251.312 485.17 251.348 485.173 251.386C485.177 251.424 485.173 251.462 485.163 251.498C485.152 251.534 485.135 251.567 485.112 251.596C485.089 251.625 485.061 251.649 485.029 251.666C484.998 251.683 484.963 251.694 484.927 251.696C484.892 251.699 484.856 251.695 484.822 251.683C450.343 240.359 423.308 247.903 408.694 272.925C401.531 285.19 401.739 295.957 403.172 302.831C403.18 302.867 403.181 302.904 403.175 302.941C403.169 302.977 403.156 303.012 403.137 303.044C403.118 303.075 403.094 303.102 403.065 303.123C403.036 303.145 403.004 303.16 402.969 303.168C402.951 303.172 402.933 303.175 402.914 303.175Z" fill="white"/>
<path opacity="0.63" d="M407.29 314.399C407.248 314.399 407.207 314.388 407.169 314.368C407.132 314.348 407.099 314.319 407.074 314.283C407.012 314.195 405.508 311.997 404.119 308.13C404.103 308.063 404.111 307.993 404.141 307.932C404.171 307.87 404.221 307.823 404.282 307.798C404.343 307.773 404.41 307.773 404.471 307.797C404.532 307.821 404.583 307.868 404.613 307.928C405.98 311.718 407.486 313.927 407.498 313.949C407.527 313.991 407.545 314.041 407.549 314.093C407.553 314.145 407.544 314.198 407.521 314.244C407.499 314.291 407.465 314.33 407.423 314.358C407.381 314.385 407.332 314.399 407.283 314.399H407.29Z" fill="white"/>
<path opacity="0.63" d="M467.423 445.359C467.381 445.359 467.34 445.348 467.302 445.328C465.184 444.185 462.839 443.593 460.462 443.601C460.391 443.601 460.323 443.571 460.273 443.518C460.223 443.465 460.195 443.393 460.195 443.318C460.195 443.243 460.223 443.171 460.273 443.118C460.323 443.065 460.391 443.035 460.462 443.035C462.922 443.028 465.349 443.641 467.542 444.823C467.596 444.852 467.639 444.899 467.664 444.957C467.689 445.015 467.695 445.08 467.681 445.142C467.667 445.204 467.634 445.259 467.587 445.298C467.54 445.338 467.481 445.359 467.421 445.359H467.423Z" fill="white"/>
<path opacity="0.63" d="M451.851 473.471C451.798 473.471 451.746 473.454 451.702 473.423C449.464 471.822 447.653 469.636 446.446 467.076C445.239 464.516 444.676 461.668 444.812 458.81C444.948 455.952 445.779 453.179 447.223 450.761C448.667 448.342 450.676 446.36 453.055 445.007C453.086 444.987 453.12 444.974 453.156 444.969C453.191 444.964 453.228 444.967 453.262 444.977C453.297 444.987 453.33 445.005 453.358 445.029C453.386 445.052 453.409 445.082 453.426 445.116C453.443 445.149 453.454 445.186 453.457 445.224C453.46 445.262 453.456 445.301 453.445 445.337C453.434 445.373 453.416 445.407 453.393 445.436C453.369 445.464 453.34 445.488 453.308 445.504C451.009 446.812 449.069 448.726 447.674 451.062C446.279 453.398 445.477 456.077 445.345 458.838C445.214 461.599 445.757 464.35 446.923 466.823C448.089 469.296 449.838 471.408 452.001 472.954C452.048 472.988 452.083 473.037 452.102 473.094C452.121 473.151 452.123 473.213 452.106 473.27C452.089 473.328 452.056 473.379 452.01 473.415C451.964 473.451 451.908 473.471 451.851 473.471Z" fill="white"/>
<path d="M43.6035 321.791V237.291H177.395V321.791C177.395 329.537 171.058 335.874 163.312 335.874H57.6868C49.941 335.874 43.6035 329.537 43.6035 321.791Z" fill="#CFDEE9"/>
<path d="M177.395 223.208V244.333H43.6035V223.208C43.6035 215.462 49.941 209.125 57.6868 209.125H163.312C171.058 209.125 177.395 215.462 177.395 223.208Z" fill="#A44C5F"/>
<path d="M142.188 233.771C148.021 233.771 152.75 229.042 152.75 223.209C152.75 217.375 148.021 212.646 142.188 212.646C136.354 212.646 131.625 217.375 131.625 223.209C131.625 229.042 136.354 233.771 142.188 233.771Z" fill="#923D4F"/>
<path d="M78.8125 233.771C84.646 233.771 89.375 229.042 89.375 223.209C89.375 217.375 84.646 212.646 78.8125 212.646C72.979 212.646 68.25 217.375 68.25 223.209C68.25 229.042 72.979 233.771 78.8125 233.771Z" fill="#923D4F"/>
<path d="M142.188 198.562C138.315 198.562 135.146 201.731 135.146 205.604V223.208C135.146 227.081 138.315 230.25 142.188 230.25C146.061 230.25 149.23 227.081 149.23 223.208V205.604C149.23 201.731 146.061 198.562 142.188 198.562ZM78.8132 198.562C74.9402 198.562 71.7715 201.731 71.7715 205.604V223.208C71.7715 227.081 74.9402 230.25 78.8132 230.25C82.6861 230.25 85.8548 227.081 85.8548 223.208V205.604C85.8548 201.731 82.6861 198.562 78.8132 198.562Z" fill="#B0BEC5"/>
<path d="M71.7715 258.416H85.8548V272.499H71.7715V258.416ZM92.8965 258.416H106.98V272.499H92.8965V258.416ZM114.021 258.416H128.105V272.499H114.021V258.416ZM135.146 258.416H149.23V272.499H135.146V258.416ZM71.7715 279.541H85.8548V293.624H71.7715V279.541ZM92.8965 279.541H106.98V293.624H92.8965V279.541ZM114.021 279.541H128.105V293.624H114.021V279.541ZM135.146 279.541H149.23V293.624H135.146V279.541ZM71.7715 300.666H85.8548V314.749H71.7715V300.666ZM92.8965 300.666H106.98V314.749H92.8965V300.666ZM114.021 300.666H128.105V314.749H114.021V300.666ZM135.146 300.666H149.23V314.749H135.146V300.666Z" fill="#555555"/>
<path d="M137.906 287.936L139.893 289.5C140.02 289.6 140.179 289.644 140.336 289.624C140.494 289.604 140.638 289.521 140.738 289.392L145.899 282.777" stroke="white" stroke-width="2" stroke-linecap="round"/>
<path d="M419.688 192.979L398.336 214.819L423.949 207.978L419.688 192.979Z" fill="#2A9421"/>
<path d="M546.737 202.021L425.412 207.908C424.674 207.944 423.936 207.829 423.244 207.572C422.551 207.314 421.918 206.919 421.383 206.41C420.848 205.9 420.421 205.288 420.13 204.609C419.838 203.93 419.688 203.198 419.687 202.459V152.542C419.687 149.933 420.703 147.426 422.52 145.552C424.336 143.679 426.811 142.586 429.419 142.505L538.764 139.121C542.675 139.121 546.425 140.674 549.19 143.44C551.955 146.205 553.509 149.955 553.509 153.865V194.913C553.508 196.741 552.805 198.498 551.545 199.821C550.284 201.144 548.563 201.932 546.737 202.021Z" fill="#2A9421"/>
<path opacity="0.85" d="M429.043 205.9C427.055 205.897 425.15 205.106 423.746 203.699C422.342 202.292 421.553 200.385 421.554 198.398V153.412C421.554 148.11 425.804 143.829 431.23 143.664L537.101 140.467C545.126 140.467 551.648 146.835 551.648 154.662V193.446C551.648 197.182 548.657 200.244 544.841 200.424L429.409 205.891C429.287 205.897 429.164 205.9 429.043 205.9ZM537.109 140.99L431.246 144.187C426.109 144.343 422.079 148.39 422.079 153.408V198.394C422.079 199.338 422.271 200.272 422.642 201.14C423.014 202.007 423.558 202.791 424.241 203.442C424.924 204.093 425.732 204.599 426.616 204.929C427.501 205.259 428.443 205.406 429.386 205.362L544.816 199.895C548.352 199.728 551.122 196.894 551.122 193.443V154.662C551.122 147.124 544.836 140.993 537.112 140.993L537.109 140.99Z" fill="white"/>
<path d="M536.753 150.097L439.739 153.727C438.786 153.763 438.036 154.395 438.069 155.128L438.105 155.981C438.136 156.713 438.922 157.275 439.864 157.241L536.881 153.698C537.835 153.664 538.585 153.032 538.554 152.297L538.514 151.363C538.483 150.623 537.696 150.062 536.753 150.097Z" fill="url(#paint0_linear_1305_58220)"/>
<path d="M528.072 174.658L431.058 178.269C430.105 178.305 429.357 178.959 429.389 179.725L429.428 180.607C429.46 181.365 430.247 181.949 431.189 181.915L528.208 178.394C529.16 178.359 529.911 177.707 529.878 176.94L529.836 175.965C529.803 175.206 529.017 174.622 528.072 174.658Z" fill="url(#paint1_linear_1305_58220)"/>
<path d="M539.404 184.93L431.259 189.013C430.197 189.053 429.358 189.716 429.391 190.49L429.428 191.382C429.461 192.148 430.336 192.733 431.387 192.694L539.54 188.703C540.603 188.664 541.442 188.001 541.408 187.227L541.366 186.243C541.331 185.476 540.455 184.891 539.404 184.93Z" fill="url(#paint2_linear_1305_58220)"/>
<path d="M483.564 164.578L430.688 166.119C430.169 166.135 429.78 166.848 429.824 167.707L429.872 168.699C429.914 169.55 430.362 170.224 430.876 170.21L483.757 168.772C484.277 168.758 484.666 168.045 484.624 167.184L484.57 166.095C484.528 165.238 484.079 164.563 483.564 164.578Z" fill="url(#paint3_linear_1305_58220)"/>
<path d="M541.828 162.748L491.849 164.18C491.358 164.194 490.994 164.907 491.036 165.767L491.086 166.758C491.128 167.61 491.553 168.285 492.04 168.271L542.023 166.942C542.515 166.929 542.879 166.216 542.837 165.356L542.782 164.266C542.74 163.41 542.314 162.734 541.828 162.748Z" fill="url(#paint4_linear_1305_58220)"/>
</g>
<defs>
<linearGradient id="paint0_linear_1305_58220" x1="438.067" y1="153.671" x2="538.556" y2="153.671" gradientUnits="userSpaceOnUse">
<stop stop-color="#DAE3FE"/>
<stop offset="1" stop-color="#E9EFFD"/>
</linearGradient>
<linearGradient id="paint1_linear_1305_58220" x1="429.389" y1="178.286" x2="529.879" y2="178.286" gradientUnits="userSpaceOnUse">
<stop stop-color="#DAE3FE"/>
<stop offset="1" stop-color="#E9EFFD"/>
</linearGradient>
<linearGradient id="paint2_linear_1305_58220" x1="429.386" y1="188.812" x2="541.406" y2="188.812" gradientUnits="userSpaceOnUse">
<stop stop-color="#DAE3FE"/>
<stop offset="1" stop-color="#E9EFFD"/>
</linearGradient>
<linearGradient id="paint3_linear_1305_58220" x1="429.821" y1="167.394" x2="484.627" y2="167.394" gradientUnits="userSpaceOnUse">
<stop stop-color="#DAE3FE"/>
<stop offset="1" stop-color="#E9EFFD"/>
</linearGradient>
<linearGradient id="paint4_linear_1305_58220" x1="491.033" y1="165.51" x2="542.84" y2="165.51" gradientUnits="userSpaceOnUse">
<stop stop-color="#DAE3FE"/>
<stop offset="1" stop-color="#E9EFFD"/>
</linearGradient>
<clipPath id="clip0_1305_58220">
<rect width="608" height="512" fill="white"/>
</clipPath>
</defs>
</svg>
