<svg width="608" height="512" viewBox="0 0 608 512" fill="none" xmlns="http://www.w3.org/2000/svg">
<g clip-path="url(#clip0_1339_53613)">
<path fill-rule="evenodd" clip-rule="evenodd" d="M325.054 0.882459C371.844 9.42987 382.259 73.7604 418.118 104.927C446.712 129.78 487.3 135.749 512.622 163.909C544.472 199.329 589.44 239.198 580.953 286.012C572.402 333.179 508.276 344.438 473.832 377.873C443.286 407.525 432.058 462.28 390.342 471.041C348.253 479.882 317.598 424.803 274.896 419.657C218.166 412.821 157.549 465.108 107.844 436.999C60.2541 410.087 50.3282 343.779 44.7533 289.51C39.3123 236.544 45.5956 179.437 76.9585 136.347C106.513 95.7414 163.017 90.4861 207.151 66.3886C247.427 44.3967 279.885 -7.36867 325.054 0.882459Z" fill="#EBEBEB"/>
<mask id="mask0_1339_53613" style="mask-type:alpha" maskUnits="userSpaceOnUse" x="190" y="269" width="219" height="283">
<path d="M397.405 363.882L408.792 330.32L402.799 320.132C398.004 311.541 387.336 293.282 383.021 288.967C378.706 284.652 366.44 274.384 360.846 269.789H305.11L251.171 275.183C245.778 281.376 233.312 294.841 226.599 299.156C218.209 304.549 218.808 309.344 211.017 316.536C203.226 323.728 196.634 354.892 193.038 360.885C189.442 366.878 190.041 427.409 190.041 432.803C190.041 438.197 201.428 496.93 202.027 504.122C202.627 511.314 224.802 536.485 226.599 540.081C228.397 543.677 251.171 551.468 267.952 551.468C284.733 551.468 320.093 552.667 327.884 551.468C334.117 550.509 376.828 541.08 397.405 536.485L392.011 504.122L388.415 441.194L397.405 363.882Z" fill="#D9D9D9"/>
</mask>
<g mask="url(#mask0_1339_53613)">
<path d="M267.578 276.43C269.765 278.27 271.979 280.076 274.222 281.846C276.2 283.067 278.867 284.847 280.967 285.653C301.578 293.622 315.744 295.009 336.539 285.886C336.727 285.804 336.914 285.72 337.1 285.635C339.121 284.595 341.368 283.193 343.349 282.023C346.502 280.121 347.935 278.964 350.652 276.488L350.918 276.577C358.515 279.054 367.871 279.679 372.358 288.05C373.738 290.628 373.922 293.964 374.796 296.161C377.658 303.35 380.35 303.9 379.29 311.825C394.524 318.076 400.715 325.414 408.435 339.583C417.927 318.789 430.035 310.613 450.79 302.86L452.199 302.336L454.375 301.544C457.901 299.943 467.374 297.881 471.505 296.904L471.599 292.805C471.557 290.375 471.756 287.605 471.872 285.15C493.003 294.967 508.845 293.911 529.913 284.635L529.421 289.383C529.479 292.288 529.472 294.341 529.247 297.231C532.93 297.979 544.982 301.619 547.615 301.729L549.434 302.713C567.979 309.43 583.238 317.687 592.109 336.515C594.424 341.478 596.154 346.695 597.263 352.059C602.033 374.339 605.372 428.278 598.497 450.313C596.587 456.432 592.326 461.579 586.532 464.45C582.117 466.637 576.174 466.134 574.651 467.256C574.504 468.982 574.458 470.241 574.445 471.957L574.521 473.694C574.695 486.708 577.974 505.939 569.51 515.941C569.803 538.498 573.862 539.044 550.769 541.626C521.99 545.016 492.943 545.521 464.063 543.134C454.637 542.372 445.238 541.304 435.881 539.93L433.652 539.732C429.891 540.807 408.532 540.761 405.291 538.638C403.373 535.775 403.934 531.055 403.984 527.513C403.988 526.459 403.939 525.523 403.882 524.47C403.145 523.188 401.158 522.566 399.763 521.711C398.358 520.663 397.883 518.745 397.417 517.149C397.488 517.103 385.654 535.162 384.688 536.584C379.605 537.72 374.6 539.261 369.473 540.19C353.999 542.995 337.461 543.916 321.748 544.413C308.366 544.837 247.477 544.619 239.648 537.064C237.674 535.159 238.47 518.306 238.389 514.841C232.935 507.004 233.625 500.409 233.656 491.323C233.681 484.221 233.712 477.078 233.751 469.973C212.989 470.43 198.222 465.701 196.185 441.616C195.289 431.019 196.281 419.617 197.053 408.984C198.673 386.682 199.591 363.159 208.084 342.22C214.545 326.631 224.382 318.032 239.695 311.898C239.454 310.608 238.862 306.759 239.379 305.544C247.885 285.574 244.892 281.837 267.578 276.43Z" fill="#D4B57A"/>
</g>
<path d="M332.94 292.555L340.741 288.686L340.675 292.794C345.056 293.872 355.292 296.206 358.96 298.009L359.578 298.264C390.61 309.118 408.62 325.707 412.461 359.637C417.633 405.35 420.33 452.705 417.088 498.664C416.657 504.813 416.752 516.324 410.082 518.639C410.028 520.131 409.914 521.868 409.932 523.339C409.998 526.801 410.585 531.675 408.692 534.448C405.24 537.046 384.971 536.952 381.207 535.173L380.584 535.154C377.863 535.993 370.485 536.886 367.291 537.29C333.148 541.394 298.657 541.662 264.454 538.087C258.844 537.524 248.236 536.561 243.22 534.944L240.505 535.906C240.224 535.959 245.128 526.856 244.841 526.896C239.95 527.603 259.362 497.701 255.328 494.649C253.614 492.075 239.624 500.148 239.648 496.93C269.494 465.443 278.444 420.739 240.505 464.567C233.991 463.614 230.155 463.549 229.766 458.274C228.13 435.801 204.546 449.622 205.757 427.121C206.302 416.028 207.291 404.736 208.058 393.761C209.994 366.13 207.717 336.815 229.766 316.201C240.367 306.292 250.472 302.525 263.759 297.702L264.31 297.563C266.953 296.091 278.424 293.375 281.678 292.555C281.487 289.964 283.095 291.294 283.196 288.686L286.792 295.86C306.096 305.628 313.72 301.518 332.94 292.555Z" fill="#D4B57A"/>
<g clip-path="url(#clip1_1339_53613)">
<path d="M334.684 410.599C334.138 412.01 333.647 413.294 333.14 414.574C331.627 418.425 329.906 422.172 327.263 425.4C325.724 427.279 324.006 429.031 321.526 429.588C318.06 430.365 314.423 429.132 313.367 425.478C312.613 422.868 313.893 419.655 316.122 418.63C316.923 418.263 317.743 418.154 318.582 418.475C318.899 418.599 319.132 418.819 319.17 419.179C319.205 419.485 319.077 419.744 318.811 419.86C317.097 420.61 316.965 422.18 316.822 423.722C316.737 424.619 317.015 425.408 317.576 426.147C318.586 427.484 320.989 427.221 322.184 426.529C324.246 425.331 325.627 423.494 326.942 421.576C329.817 417.373 331.658 412.679 333.496 407.981C333.921 406.895 334.362 405.812 334.722 404.703C335.136 403.434 334.548 402.236 333.418 401.83C332.741 401.586 332.122 401.857 331.538 402.089C328.842 403.168 325.074 407.545 325.6 411.086C325.666 411.519 325.743 411.914 326.056 412.231C326.381 412.556 326.548 412.919 326.304 413.371C326.037 413.866 325.573 413.839 325.128 413.774C323.232 413.499 321.894 411.473 322.246 409.404C322.586 407.421 323.449 405.669 324.714 404.127C326.617 401.799 328.923 400.028 331.945 399.444C333.829 399.081 335.635 399.239 336.954 400.906C337.833 402.012 338.022 403.345 338.138 404.687C338.455 408.314 338.138 411.925 337.871 415.537C337.736 417.366 337.651 419.202 337.562 421.035C337.546 421.34 337.461 421.677 337.701 422.009C338.127 421.735 338.308 421.302 338.533 420.904C339.713 418.804 340.835 416.67 342.076 414.609C344.216 411.055 346.251 407.44 348.572 403.999C349.28 402.951 350.038 401.93 350.823 400.94C351.969 399.498 353.442 399.115 354.916 399.815C355.868 400.268 356.073 400.67 355.69 401.652C354.889 403.713 353.988 405.735 353.234 407.811C351.473 412.652 349.899 417.547 349.373 422.705C349.299 423.421 349.303 424.148 349.353 424.863C349.442 426.112 350.305 426.533 351.392 425.88C351.733 425.675 352.042 425.42 352.348 425.168C352.63 424.936 352.924 424.704 353.276 424.96C353.632 425.215 353.477 425.59 353.373 425.918C352.854 427.562 350.58 429.043 348.924 428.826C346.73 428.536 345.547 427.229 345.462 424.96C345.4 423.312 345.651 421.692 345.976 420.08C346.831 415.858 348.259 411.802 349.589 407.715C349.647 407.537 349.794 407.363 349.64 407.096C348.39 408.797 347.311 410.572 346.22 412.339C343.411 416.89 341.074 421.696 338.424 426.332C338.169 426.781 337.914 427.249 337.504 427.589C336.417 428.486 335.032 428.022 334.776 426.638C334.494 425.091 334.478 423.521 334.625 421.959C334.978 418.29 334.842 414.613 334.838 410.939C334.846 410.885 334.792 410.823 334.684 410.599Z" fill="white"/>
<path d="M276.571 412.474C275.213 412.446 273.886 412.269 272.675 411.611C272.122 411.314 271.638 410.915 271.337 410.347C271.039 409.79 271.081 409.23 271.487 408.742C271.836 408.325 272.304 408.178 272.83 408.387C275.201 409.326 277.623 409.106 280.029 408.626C284.211 407.795 288.196 406.279 292.262 405.057C297.098 403.604 301.972 402.304 306.994 401.651C309.609 401.311 312.236 401.071 314.862 401.562C316.124 401.798 317.307 402.246 318.325 403.047C319.188 403.727 319.721 404.605 319.636 405.746C319.594 406.345 319.377 406.875 318.704 407.033C318.062 407.18 317.679 406.848 317.381 406.322C316.445 404.675 314.801 404.392 313.149 404.273C310.626 404.087 308.143 404.524 305.667 404.945C299.121 406.059 292.854 408.17 286.579 410.27C283.747 411.217 280.9 412.098 277.905 412.377C277.461 412.419 277.016 412.443 276.571 412.474Z" fill="white"/>
<path d="M369.519 387.568C369.136 387.259 368.711 387.363 368.339 387.611C367.817 387.959 367.415 388.442 367.016 388.914C365.883 390.252 364.571 391.388 363.097 392.328C361.867 393.113 360.559 393.701 359.051 393.646C357.534 393.592 356.61 392.699 356.497 391.18C356.443 390.457 356.54 389.745 356.652 389.03C356.749 388.415 357.008 388.214 357.646 388.276C360.656 388.566 363.001 387.22 364.946 385.101C366.088 383.86 366.711 382.348 366.672 380.616C366.629 378.787 365.442 377.6 363.619 377.542C362.559 377.507 361.635 377.929 360.699 378.327C359.998 378.915 359.236 379.433 358.629 380.125C357.201 381.757 355.994 383.524 355.132 385.523C354.737 386.435 354.199 387.263 353.538 388.013C352.47 389.757 351.248 391.377 349.712 392.742C349.53 392.904 349.306 393.039 349.081 393.132C348.385 393.426 347.901 393.128 347.832 392.382C347.754 391.57 347.971 390.805 348.226 390.047C349.112 387.444 350.474 385.07 351.747 382.654C352.219 381.753 352.718 380.856 352.884 379.831C352.954 379.417 352.872 379.019 352.489 378.779C352.099 378.532 351.689 378.567 351.286 378.791C350.803 379.058 350.54 379.514 350.28 379.963C349.634 381.08 349.035 382.228 348.362 383.33C346.485 386.416 344.485 389.409 341.855 391.918C340.984 392.749 340.002 393.43 338.814 393.731C337.63 394.033 336.775 393.685 336.264 392.742C335.189 390.75 335.723 387.626 337.394 386.13C337.727 385.832 338.079 385.554 338.404 385.248C343.143 380.813 346.578 375.47 349.24 369.604C350.052 367.818 350.764 365.985 350.942 363.994C351.155 361.585 349.634 360.286 347.325 360.943C346.969 361.044 346.625 361.198 346.296 361.365C344.76 362.149 343.731 363.456 342.76 364.817C341.402 366.724 340.388 368.839 339.216 370.853C339.089 371.174 338.98 371.506 338.829 371.816C336.864 375.88 335.32 380.094 334.295 384.498C334.032 385.623 333.978 386.826 333.282 387.827C332.415 389.072 331.494 390.279 330.473 391.4C329.854 392.08 329.243 392.78 328.403 393.202C327.51 393.65 326.914 393.248 326.987 392.254C327.049 391.431 327.285 390.638 327.649 389.896C328.303 388.554 328.976 387.224 329.641 385.89C329.978 385.217 330.241 384.525 330.322 383.771C330.434 382.712 330.071 381.884 329.158 381.293C328.554 380.902 327.873 380.779 327.204 380.601C325.896 380.249 325.866 380.175 326.214 378.903C326.233 378.83 326.249 378.756 326.264 378.687C326.403 378.053 326.318 377.469 325.707 377.125C325.076 376.769 324.453 376.893 323.916 377.364C323.359 377.859 323.138 378.532 323.119 379.24C323.065 381.096 322.318 382.723 321.444 384.282C320.105 386.667 318.523 388.902 316.937 391.129C316.577 391.632 316.221 392.154 315.726 392.537C315.099 393.024 314.604 392.865 314.395 392.088C314.306 391.76 314.283 391.4 314.298 391.056C314.337 390.02 314.689 389.061 315.118 388.133C316.132 385.948 317.285 383.825 318.225 381.602C318.438 381.096 318.643 380.585 318.666 380.032C318.685 379.564 318.573 379.127 318.101 378.903C317.652 378.694 317.223 378.787 316.844 379.089C316.507 379.356 316.264 379.696 316.066 380.075C315.97 380.264 315.935 380.57 315.668 380.554C315.397 380.539 315.412 380.226 315.327 380.028C314.616 378.393 313.215 377.732 311.494 378.242C310.221 378.617 309.192 379.383 308.221 380.257C307.292 381.096 306.631 382.163 305.814 383.095C305.435 383.763 305.041 384.421 304.681 385.101C303.66 387.035 302.557 388.918 301.222 390.654C300.437 391.678 299.656 392.711 298.487 393.349C298.162 393.527 297.814 393.735 297.443 393.469C297.067 393.198 297.18 392.804 297.253 392.44C297.563 390.901 298.131 389.443 298.704 387.99C299.265 386.559 299.876 385.14 300.066 383.593C300.255 382.02 299.899 381.316 298.603 380.701C297.013 380.62 295.806 381.413 294.688 382.414C292.51 384.363 290.8 386.725 288.893 388.91C288.711 389.119 288.584 389.401 288.135 389.498C288.696 387.99 289.125 386.636 290.348 385.534C294.131 382.132 297.319 378.196 300.193 374.004C301.543 372.032 302.77 369.991 303.54 367.71C303.857 366.762 304.112 365.807 303.899 364.79C303.687 363.789 303.137 363.22 302.128 363.027C301.021 362.814 300.066 363.248 299.184 363.82C297.98 364.601 297.056 365.68 296.247 366.855C294.243 369.767 292.553 372.856 291.075 376.065C290.41 377.507 289.76 378.953 289.102 380.4C288.46 382.093 287.814 383.787 287.183 385.484C286.92 386.192 286.525 386.814 286.03 387.383C284.212 389.463 282.262 391.412 280.173 393.213C278.32 394.81 276.328 396.198 273.956 396.952C270.157 398.163 266.946 396.562 265.689 392.78C265.051 390.859 264.95 388.875 265.302 386.892C266.378 380.833 268.966 375.423 272.517 370.447C274.39 367.822 276.556 365.471 279.365 363.797C280.339 363.217 281.388 362.834 282.548 362.923C283.299 362.981 283.957 363.224 284.316 363.963C284.525 364.156 284.626 364.411 284.711 364.667C285.276 366.379 284.99 368.03 284.324 369.651C283.837 371.174 283.048 372.489 281.744 373.471C281.04 374.004 280.885 374.615 281.179 375.3C281.477 375.999 282.1 376.309 282.962 376.173C283.732 376.054 284.351 375.632 284.889 375.106C287.311 372.736 288.363 369.778 288.475 366.457C288.529 364.875 288.139 363.394 287.063 362.173C285.57 360.475 283.597 360.185 281.492 360.293C279.848 360.379 278.339 360.928 276.865 361.608C274.653 362.977 272.664 364.616 270.946 366.569C267.101 370.938 264.408 375.941 262.633 381.444C261.499 384.958 260.911 388.543 261.646 392.235C262.668 397.385 266.59 400.49 271.821 400.239C274.007 400.135 275.983 399.326 277.806 398.147C280.073 396.682 282.03 394.849 283.922 392.935C284.111 392.742 284.258 392.456 284.595 392.44C284.672 392.715 284.552 392.916 284.487 393.124C284.224 393.979 283.918 394.822 283.705 395.688C283.574 396.225 283.713 396.755 284.297 396.991C284.843 397.215 285.334 397.045 285.705 396.608C285.945 396.326 286.139 396.001 286.34 395.692C288.618 392.15 291.206 388.848 294.174 385.859C294.971 385.055 295.752 384.197 296.801 383.678C296.994 383.582 297.218 383.439 297.423 383.62C297.601 383.779 297.497 383.999 297.443 384.181C297.203 384.989 296.967 385.801 296.688 386.598C296.089 388.311 295.408 389.993 294.998 391.767C294.781 392.695 294.669 393.627 294.971 394.563C295.373 395.819 296.611 396.469 297.868 396.075C298.344 395.924 298.781 395.688 299.191 395.398C300.066 394.775 300.839 394.041 301.532 393.221C301.636 393.097 301.729 392.889 301.934 392.943C302.139 392.997 302.124 393.217 302.143 393.38C302.476 395.885 304.832 396.952 307.153 395.669C308.615 394.861 309.772 393.712 310.855 392.467C311.172 392.104 311.466 391.717 311.865 391.23C311.935 391.957 311.966 392.517 312.043 393.074C312.321 395.05 314.016 395.916 315.788 395C316.345 394.71 316.825 394.315 317.269 393.882C320.217 391.017 322.333 387.584 324.032 383.876C324.693 382.433 324.666 382.422 326.148 382.994C327.436 383.489 327.664 383.934 327.162 385.21C326.635 386.551 326.028 387.858 325.475 389.188C324.918 390.526 324.453 391.879 324.535 393.368C324.635 395.181 325.858 396.129 327.626 395.68C328.786 395.386 329.757 394.737 330.624 393.936C331.463 393.159 332.264 392.343 332.98 391.45C333.084 391.319 333.189 391.122 333.382 391.16C333.634 391.21 333.595 391.473 333.611 391.655C333.68 392.378 333.816 393.078 334.083 393.759C334.736 395.429 336.048 396.291 337.843 396.233C339.003 396.194 340.005 395.707 340.961 395.108C342.512 394.134 343.808 392.869 345 391.493C345.131 391.342 345.213 391.075 345.58 391.168C345.483 392.065 345.348 392.978 345.619 393.878C346.095 395.452 347.588 396.156 349.101 395.51C350.103 395.081 350.934 394.416 351.646 393.608C352.304 392.862 352.934 392.096 353.58 391.338C353.677 391.226 353.758 391.075 353.932 391.114C354.079 391.145 354.083 391.296 354.091 391.419C354.176 392.792 354.764 393.948 355.631 394.98C356.199 395.332 356.741 395.723 357.41 395.893C358.969 396.283 360.47 396.129 361.913 395.441C364.846 394.045 367.171 391.899 369.241 389.451C369.43 389.227 369.558 388.949 369.674 388.674C369.84 388.28 369.879 387.866 369.519 387.568ZM357.917 385.619C358.795 383.91 359.809 382.302 361.248 380.999C361.542 380.732 361.89 380.535 362.273 380.403C363.345 380.044 363.979 380.5 363.975 381.745C363.921 382.994 363.248 384.015 362.204 384.835C361.093 385.708 359.821 386.134 358.416 386.18C358.053 386.188 357.623 386.192 357.917 385.619ZM336.876 383.694C337.073 382.665 337.336 381.656 337.696 380.674C339.595 375.528 341.812 370.544 345.124 366.113C345.735 365.293 346.404 364.523 347.271 363.959C347.545 363.781 347.835 363.588 348.168 363.766C348.516 363.951 348.439 364.319 348.474 364.674C348.265 366.155 347.719 367.574 347.112 368.958C344.984 373.803 342.392 378.377 338.949 382.426C338.466 382.994 337.947 383.532 337.336 383.968C337.22 384.05 337.092 384.193 336.941 384.096C336.794 384.011 336.845 383.837 336.876 383.694ZM292.344 378.861C294.058 375.106 296.015 371.491 298.402 368.116C298.878 367.447 299.447 366.851 300.112 366.364C300.414 366.144 300.766 365.919 301.141 366.155C301.555 366.418 301.47 366.859 301.358 367.238C300.855 368.935 300.116 370.54 299.184 372.04C297.044 375.485 294.564 378.675 291.771 381.618C291.636 381.761 291.485 381.892 291.334 382.02C291.303 382.047 291.245 382.047 291.04 382.097C291.392 380.914 291.876 379.889 292.344 378.861ZM312.654 386.134C311.559 388.059 310.348 389.911 308.89 391.586C308.267 392.301 307.536 392.9 306.693 393.353C306.174 393.627 305.606 393.875 305.079 393.492C304.565 393.117 304.596 392.486 304.654 391.914C304.801 390.538 305.265 389.25 305.865 388.017C306.925 385.836 308.217 383.81 309.965 382.105C310.434 381.648 310.948 381.262 311.54 380.987C312.925 380.345 313.915 380.98 313.939 382.638C313.795 383.818 313.296 385.005 312.654 386.134Z" fill="white"/>
<path d="M352.135 374.028C352.177 373.05 352.553 372.246 353.438 371.763C354.498 371.183 355.632 371.678 355.934 372.853C356.208 373.932 355.883 374.867 355.102 375.625C354.568 376.143 353.895 376.383 353.175 376.027C352.371 375.621 352.104 374.895 352.135 374.028Z" fill="white"/>
</g>
<path d="M295.036 404.432C304.731 402.074 309.263 403.56 318.97 404.822C321.295 405.125 325.478 405.553 327.572 406.013C331.693 409.886 332.94 413.373 328.464 417.778L328.09 418.142C329.269 418.955 330.896 418.824 332.414 418.897C339.599 423.373 337.365 430.581 329.512 431.793C329.238 431.834 328.965 431.871 328.69 431.902L328.558 433.399C334.559 436.446 333.842 443.35 328.166 444.889C327.472 445.081 326.764 445.218 326.048 445.298L325.375 446.806C327.188 449.236 327.102 450.013 326.844 452.935C322.423 460.955 307.922 456.429 301.096 458.256C287.111 461.998 283.156 462.604 269.779 456.836C266.462 447.897 265.441 435.185 268.101 425.85C268.872 423.145 270.357 421.65 272.892 420.5C275.992 419.093 278.081 416.049 280.639 413.602C285.609 408.851 288.91 406.976 295.036 404.432Z" fill="#FEBC8A"/>
<path d="M328.558 433.399C325.386 434.341 298.942 434.732 297.214 432.924L297.769 432.082C299.543 431.192 325.637 431.537 328.69 431.902L328.558 433.399Z" fill="#F59C5F"/>
<path d="M332.413 418.899C327.169 419.313 298.316 421.272 296.738 418.18L297.373 417.542C300.293 416.949 326.022 417.007 328.089 418.144C329.268 418.957 330.894 418.826 332.413 418.899Z" fill="#F59C5F"/>
<path d="M325.375 446.807C321.654 447.506 300.945 448.127 297.824 446.313L297.887 445.751C300.683 444.43 323.337 444.182 326.048 445.299L325.375 446.807Z" fill="#F59C5F"/>
<path d="M337.099 285.633C337.896 287.536 337.71 290.744 337.695 292.925C337.805 297.346 338.445 304.571 336.456 308.455C335.947 308.827 335.318 309.259 334.838 309.644C332.314 310.777 329.318 312.114 326.704 312.983C312.676 317.616 297.376 316.415 284.243 309.65C283.361 308.858 282.899 308.552 281.907 307.892C280.233 303.512 280.575 300.731 280.606 296.056C280.493 293.327 280.834 288.528 280.966 285.65C301.576 293.62 315.743 295.006 336.538 285.883C336.726 285.801 336.913 285.717 337.099 285.633Z" fill="#FEBC8A"/>
<path d="M337.1 285.633C337.897 287.536 337.711 290.744 337.696 292.925C325.609 303.471 303.525 302.368 289.178 297.337C286.475 296.389 283.013 293.263 281.169 293.129C280.605 294.122 280.674 294.91 280.607 296.056C280.494 293.327 280.834 288.528 280.967 285.65C301.577 293.62 315.744 295.006 336.539 285.883C336.727 285.801 336.914 285.717 337.1 285.633Z" fill="#F59C5F"/>
<path d="M292.467 390.114C299.284 389.48 313.91 389.916 321.253 389.899C328.555 389.883 342.907 389.425 349.756 389.937C348.189 390.217 347.149 390.067 346.38 391.055C343.749 409.886 342.873 429.482 340.184 448.358C339.461 453.433 336.3 452.966 332.031 453.209C330.871 453.254 327.891 453.185 326.843 452.936C327.102 450.014 327.187 449.237 325.374 446.807L326.047 445.299C326.763 445.219 327.471 445.082 328.165 444.89C333.841 443.351 334.558 436.447 328.557 433.401L328.689 431.903C328.964 431.872 329.238 431.835 329.511 431.794C337.364 430.582 339.598 423.374 332.413 418.898C330.895 418.825 329.268 418.956 328.089 418.143L328.463 417.779C332.939 413.374 331.692 409.887 327.571 406.014C325.477 405.555 321.294 405.126 318.969 404.823C309.262 403.561 304.73 402.075 295.035 404.433C294.295 399.902 294.143 395.279 293.304 390.656L292.467 390.114Z" fill="#A2612B"/>
<path d="M294.416 374.059C298.628 371.791 330.066 373.833 337.062 373.196C345.807 372.4 344.91 373.954 346.594 379.624L346.996 379.854C350.8 382.056 349.845 385.989 349.756 389.938C342.907 389.426 328.555 389.884 321.254 389.9C313.911 389.917 299.285 389.48 292.468 390.115C291.674 389.94 291.099 389.644 290.36 389.316C290.421 387.135 290.187 383.319 291.069 381.602C294.491 379.287 293.517 377.74 294.416 374.059Z" fill="#5A2602"/>
<path d="M293.668 380.234C301.574 379.455 314.553 380.255 322.793 379.952C326.414 379.819 342.928 379.818 345.843 380.328C342.906 381.342 296.751 381.189 293.668 380.234Z" fill="#2C0D00"/>
<path d="M284.243 309.652C297.376 316.417 312.676 317.618 326.704 312.985C329.317 312.116 332.314 310.779 334.838 309.646C330.657 314.665 325.068 318.744 320.288 323.21C316.543 326.708 313.07 330.559 309.6 334.334C305.615 329.918 301.792 325.738 297.471 321.642C293.286 317.674 288.187 313.737 284.243 309.652Z" fill="white"/>
<path d="M337.098 285.634C339.119 284.594 341.365 283.192 343.347 282.021C365.052 288.511 347.607 303.077 336.455 308.457C338.444 304.573 337.804 297.347 337.695 292.926C337.71 290.745 337.895 287.537 337.098 285.634Z" fill="#C8A663"/>
<path d="M274.22 281.846C276.198 283.066 278.864 284.846 280.965 285.652C280.833 288.529 280.492 293.329 280.605 296.058C280.574 300.733 280.232 303.513 281.906 307.894C277.555 306.296 267.252 298.166 265.236 293.891C261.844 286.703 268.941 284.106 274.22 281.846Z" fill="#C8A663"/>
<path d="M239.694 311.896C241.954 312.546 244.769 314.622 246.893 315.824C253.823 319.745 261.403 322.824 268.981 325.24C275.112 327.129 281.324 328.746 287.599 330.086C293.273 331.29 304.063 332.785 308.733 335.207C305.079 335.42 297.455 336.102 294.434 334.088C294.378 333.878 293.989 333.245 293.864 333.025C292.169 332.542 291.383 332.803 289.687 333.114C281.102 333.766 241.138 321.818 239.694 311.896Z" fill="#C8A663"/>
<path d="M382.034 385.031C382.615 385.246 383.152 385.333 383.564 385.822C385.537 388.164 386.922 490.536 385.937 502.205C385.469 507.742 384.399 511.53 380.105 515.132C379.568 520.357 380.185 533.576 379.135 537.165L378.371 537.143C376.764 533.804 379.76 527.265 378.734 523.631C378.533 522.92 378.406 522.121 378.224 521.379C376.041 518.909 373.635 519.967 370.817 520.87C366.873 522.134 363.525 522.751 359.442 523.315C326.051 527.603 292.244 527.513 258.876 523.044C250.544 521.556 243.755 520.933 237.536 514.912C270.255 524.046 317.962 523.743 351.819 520.802C359.731 519.903 370.73 518.862 377.795 515.048C383.44 512 382.178 495.758 382.199 489.987C382.223 483.437 382.076 476.673 382.01 470.149C381.72 448.618 381.596 427.087 381.641 405.554C381.62 401.576 381.127 387.865 382.034 385.031Z" fill="#C8A663"/>
<path d="M324.642 333.059C323.587 334.65 323.072 334.612 321.056 334.92C318.278 335.345 309.446 336.23 307.275 334.557L307.376 334.36C313.855 335.498 312.427 333.38 317.378 332.489C337.776 328.82 358.815 323.676 376.401 312.301C377.15 311.816 377.592 311.907 378.401 312.118C380.271 320.717 336.532 332.764 329.034 332.956C326.97 332.724 326.693 332.73 324.642 333.059Z" fill="#C8A663"/>
<rect x="237.985" y="351.895" width="3.5959" height="77.9112" rx="1.79795" fill="#C8A663"/>
<path d="M266.641 422.815C267.636 422.704 268.532 423.42 268.644 424.414C268.754 425.398 268.054 426.288 267.073 426.414L240.407 429.833C239.254 429.981 238.213 429.131 238.126 427.971C238.045 426.883 238.839 425.925 239.924 425.804L266.641 422.815Z" fill="#C8A663"/>
<path d="M301.172 98.794C313.154 88.8531 311.984 89.7648 321.249 103.29C324.49 110.215 336.136 89.1652 330.449 94.613C341.886 98.5793 353.932 103.295 354.935 117.149C370.924 128.761 372.812 148.993 373.057 167.266C373.081 168.962 372.134 175.289 372.464 176.328C374.094 177.691 374.256 177.71 374.358 179.958C378.265 180.309 380.237 180.109 382.886 183.302C387.099 188.383 387.585 197.036 386.967 203.285C386.26 210.489 383.389 219.234 377.642 224.036C375.293 226.001 374.076 225.981 371.193 226.471C369.204 247.474 364.721 265.533 347.606 279.566C346.929 280.121 346.241 280.662 345.543 281.191L340.553 284.392L336.567 286.619C334.983 287.313 333.379 287.962 331.758 288.566C313.776 295.228 297.317 294.399 279.972 286.453L277.264 285.071C275.561 284.16 274.002 283.046 272.4 281.964C252.933 267.204 247.859 249.739 245.684 226.289C230.433 223.368 227.038 199.85 231.18 187.634C233.205 181.662 236.107 181.062 241.707 179.744C242.172 179.635 242.245 177.973 242.32 177.491L244.167 176.297C244.41 175.206 243.708 166.192 243.741 164.229C243.822 158.314 244.302 151.966 245.508 146.178C247.675 135.769 251.808 123.432 261.302 117.601C262.817 116.67 262.58 115.119 262.804 113.435C263.455 102.755 278.312 97.6707 286.635 94.5339C279.898 86.9454 294.353 105.817 301.172 98.794Z" fill="#803C07"/>
<path d="M302.442 102.988C314.424 93.0475 312.584 87.9655 321.849 101.49C325.089 108.415 336.136 89.1644 330.449 94.6122C341.887 98.5785 353.932 103.294 354.935 117.148C370.924 128.76 372.812 148.992 373.058 167.265C373.082 168.961 372.135 175.288 372.464 176.327C371.493 176.521 369.48 176.559 368.419 176.61C357.806 176.725 347.115 175.141 336.518 175.721C326.907 176.248 320.761 175.887 313.883 183.282C310.624 183.535 306.08 183.461 302.71 183.488L302.442 183.212C301.202 181.943 299.01 179.578 297.497 178.934C283.734 173.083 262.942 176.742 248.454 176.566C246.547 176.639 245.998 176.569 244.167 176.296C244.411 175.205 243.709 166.192 243.742 164.228C243.822 158.314 244.303 151.966 245.508 146.177C247.676 135.768 251.808 123.432 261.302 117.6C262.817 116.669 262.581 115.118 262.804 113.434C263.456 102.754 278.312 97.6699 286.635 94.5331C279.899 86.9445 295.623 110.012 302.442 102.988Z" fill="#FEBC8A"/>
<path d="M306.566 105.086C318.548 95.1449 310.786 93.0591 320.051 106.584C323.291 113.509 336.136 89.1636 330.449 94.6114C341.886 98.5777 353.932 103.293 354.935 117.147C354.008 123.103 352.907 125.389 348.583 129.726C341.766 135.628 335.791 139.385 326.992 141.839C306.937 147.432 284.35 143.92 268.96 129.389C263.535 123.666 262.923 120.962 262.804 113.433C263.456 102.753 278.312 97.6692 286.635 94.5323C279.898 86.9438 299.748 112.109 306.566 105.086Z" fill="#FEBC8A"/>
<path d="M298.176 107.184C310.159 97.243 307.49 99.6521 316.755 113.177C319.996 120.102 336.136 89.1646 330.449 94.6124C318.858 91.1153 297.939 90.8049 286.635 94.5333C279.899 86.9447 291.358 114.207 298.176 107.184Z" fill="#803C07"/>
<path d="M244.167 176.296C244.411 175.205 243.709 166.191 243.742 164.228C243.822 158.313 244.303 151.965 245.508 146.177C247.676 135.768 251.808 123.431 261.302 117.6C262.817 116.669 262.581 115.118 262.804 113.434C262.923 120.962 263.535 123.666 268.96 129.39C255.276 142.142 249.098 156.973 248.472 175.769C248.463 176.035 248.457 176.3 248.454 176.566C246.547 176.639 245.998 176.569 244.167 176.296Z" fill="#A06A48"/>
<path d="M354.936 117.146C370.925 128.759 372.813 148.991 373.059 167.264C373.082 168.96 372.136 175.287 372.465 176.325C371.494 176.52 369.481 176.557 368.42 176.608C367.856 157.009 363.302 143.422 348.584 129.726C352.908 125.388 354.009 123.102 354.936 117.146Z" fill="#A06A48"/>
<path d="M327.609 156.416C335.751 156.036 352.866 159.248 357.135 169.243C357.402 169.865 356.98 170.36 356.623 170.832C354.956 171.668 354.613 171.897 352.699 171.945C343.936 169.187 337.004 167.998 327.834 167.234C321.657 166.719 319.858 159.077 327.609 156.416Z" fill="#4E2606"/>
<path d="M284.133 156.528C292.439 156.276 298.676 161.863 291.151 166.416C288.654 167.927 274.303 168.988 268.911 170.505C268.165 170.752 267.415 170.984 266.661 171.201C264.282 171.873 260.726 172.518 259.994 169.466C261.834 161.02 276.744 157.089 284.133 156.528Z" fill="#4E2606"/>
<path d="M313.884 183.283C320.761 175.888 326.908 176.249 336.519 175.722C347.115 175.141 357.806 176.726 368.419 176.61C369.48 176.559 371.494 176.522 372.465 176.327C374.095 177.691 374.257 177.709 374.359 179.958C378.266 180.309 380.238 180.109 382.887 183.302C387.1 188.383 387.585 197.036 386.968 203.285C386.261 210.489 383.39 219.234 377.643 224.036C375.294 226.001 374.077 225.981 371.194 226.47L371.2 217.107C371.236 213.024 371.188 199.993 369.6 196.781C366.346 212.14 364.512 221.691 352.787 233.259C342.763 225.779 335.357 224.152 323.296 222.776C322.429 222.767 320.103 222.66 319.554 223.238C314.749 228.413 306.529 230.605 300.519 226.221C297.074 223.709 298.116 222.976 293.755 222.796C294.956 222.613 295.725 222.43 296.9 222.118C297.356 218.432 297.201 214.425 297.657 210.447C292.929 216.777 287.114 219.434 279.344 220.217C251.887 222.982 250.209 209.168 248.078 187.07C243.173 183.7 242.518 183.44 242.321 177.491L244.168 176.297C245.999 176.57 246.548 176.64 248.455 176.567C262.943 176.743 283.734 173.084 297.497 178.935C299.011 179.579 301.202 181.944 302.442 183.213L302.71 183.489C306.08 183.462 310.624 183.536 313.884 183.283Z" fill="#841D13"/>
<path d="M368.605 186.846C372.302 184.416 372.758 184.046 374.358 179.957C378.266 180.308 380.237 180.107 382.886 183.301C387.1 188.382 387.585 197.035 386.968 203.284C386.26 210.487 383.39 219.233 377.642 224.035C375.293 226 374.076 225.98 371.194 226.469L371.2 217.106C371.236 213.023 371.188 199.992 369.599 196.78C366.345 212.139 364.511 221.69 352.787 233.258C342.763 225.778 335.357 224.151 323.296 222.775C321.833 222.528 320.041 222.679 318.773 222.034C318.84 218.174 319.01 216.957 318.341 212.984C317.955 210.693 316.855 206.86 316.952 204.877C320.639 213.267 327.025 218.68 336.111 219.797C366.927 223.583 365.147 208.627 368.605 186.846Z" fill="#FEBC8A"/>
<path d="M369.601 196.781C370.727 194.123 371.608 191.272 374.533 190.166C378.201 188.778 379.741 193.273 380.065 196.013C380.808 202.369 378.429 208.769 374.665 213.808C373.352 215.581 371.986 216.215 371.201 217.106C371.237 213.023 371.189 199.993 369.601 196.781Z" fill="#F59C5F"/>
<path d="M297.657 210.448C298.055 209.216 299.483 206.755 300.063 205.012C301.557 200.513 302.478 196.22 303.492 191.62C305.121 189.736 309.088 188.655 311.093 190.001C314.839 192.516 315.476 200.38 316.953 204.879C316.856 206.863 317.956 210.695 318.342 212.986C319.011 216.959 318.841 218.176 318.773 222.037C320.041 222.681 321.833 222.53 323.296 222.777C322.429 222.768 320.103 222.661 319.554 223.239C314.749 228.415 306.529 230.606 300.519 226.222C297.074 223.71 298.117 222.977 293.755 222.797C294.956 222.614 295.725 222.431 296.9 222.119C297.356 218.433 297.201 214.426 297.657 210.448Z" fill="#F59C5F"/>
<path d="M261.769 179.847C270.3 179.117 280.866 179.589 289.384 180.422C300.254 181.485 300.454 189.801 298.375 198.449C296.723 205.324 294.216 210.094 288.053 213.916C280.667 217.016 268.491 218.198 260.694 213.809C253.023 209.491 250.48 190.835 253.879 183.157C254.882 180.891 259.331 180.242 261.769 179.847Z" fill="#FEBC8A"/>
<path d="M278.496 186.995C289.777 186.695 290.075 200.665 281.407 205.606C272.409 206.358 269.141 191.879 278.496 186.995Z" fill="#0D0D0C"/>
<path d="M281.785 197.66C282.67 197.409 283.621 197.661 284.266 198.316C284.911 198.971 285.148 199.926 284.884 200.807C284.621 201.688 283.897 202.355 282.998 202.547C281.67 202.832 280.354 202.01 280.027 200.69C279.7 199.371 280.478 198.03 281.785 197.66Z" fill="white"/>
<path d="M330.989 179.892C337.263 179.135 354.825 179.044 360.383 181.487C367.042 184.411 363.65 204.103 360.545 209.083C357.881 213.361 356.11 214.278 351.283 215.527L351.025 215.584C333.409 219.313 319.401 212.161 317.875 193.101C316.951 181.543 320.842 181.202 330.989 179.892Z" fill="#FEBC8A"/>
<path d="M335.273 186.871C345.66 188.217 345.977 200.905 337.386 205.703C328.348 205.602 326.199 191.582 335.273 186.871Z" fill="#0D0D0C"/>
<path d="M337.032 198.102C337.767 197.549 338.742 197.437 339.583 197.807C340.424 198.178 340.999 198.974 341.086 199.89C341.174 200.804 340.76 201.695 340.005 202.218C338.869 203.007 337.31 202.74 336.5 201.619C335.69 200.497 335.927 198.933 337.032 198.102Z" fill="white"/>
<path d="M245.684 226.288C230.433 223.368 227.038 199.849 231.18 187.634C233.205 181.661 236.107 181.062 241.707 179.744C242.172 179.634 242.245 177.973 242.32 177.49C242.518 183.439 243.172 183.7 248.077 187.069C250.208 209.167 251.886 222.982 279.343 220.217C287.113 219.434 292.929 216.777 297.656 210.446C297.2 214.424 297.355 218.431 296.899 222.118C295.724 222.429 294.955 222.613 293.754 222.796C282.521 223.609 272.881 226.08 263.939 233.314C250.945 222.601 250.65 209.969 247.044 196.242C245.84 201.984 245.427 211.349 245.382 217.298C245.482 219.82 245.771 223.882 245.684 226.288Z" fill="#FEBC8A"/>
<path d="M245.383 217.299C227.96 201.682 240.425 178.801 247.044 196.243C245.84 201.985 245.428 211.35 245.383 217.299Z" fill="#F59C5F"/>
<path d="M281.245 239.223C292.09 240.821 300.341 242.763 311.823 242.199C314.773 242.055 316.683 241.963 319.686 241.645C323.777 241.212 332.17 239.175 335.713 239.689C339.241 241.983 333.521 246.532 331.071 248.348C326.009 251.278 322.007 252.678 314.811 253.758C302.361 255.628 283.583 251.607 280.102 242.292C279.588 240.919 280.068 240.314 281.245 239.223Z" fill="white"/>
<path d="M244.237 176.295L249.331 176.594C249.97 173.826 255.962 147.96 262.516 136.74C268.024 139.799 273.536 140.86 279.819 141.353C286.655 142.234 293.555 142.505 300.438 142.161C314.647 141.418 328.656 138.493 341.971 133.489C344.99 132.362 355.471 127.561 355.766 128.59C331.138 122.356 367.67 155.347 366.797 176.594H372.491C378.112 153.028 374.863 153.454 373.93 145.787C373.334 138.507 370.884 131.499 366.812 125.43C372.359 122.612 380.361 116.243 379.969 109.164C379.969 108.943 379.969 109.017 379.969 109.164C379.748 106.861 375.722 109.874 374.691 110.413C375.084 109.09 375.869 105.171 373.317 106.101C373.317 105.391 373.488 103.456 372.556 103.137C371.623 102.819 370.273 104.215 369.659 104.656C368.484 105.522 367.235 106.284 365.928 106.934C364.603 106.297 363.253 105.636 361.902 105.073C359.202 103.946 356.478 102.892 353.704 101.961C350.879 100.823 348.181 99.3947 345.653 97.6989C334.631 91.1092 322.702 85.2299 309.692 84.201C296.336 83.0986 283 86.5533 271.866 93.9999C266.925 97.253 262.644 101.409 259.25 106.248C257.482 108.87 251.886 119.011 258.022 120.04C238.41 134.102 243.795 173.723 244.237 176.295Z" fill="#663B13"/>
<g clip-path="url(#clip2_1339_53613)">
<path d="M424.814 219.486C424.812 226.711 426.693 233.767 430.268 239.985L424.472 261.233L446.131 255.531C452.122 258.805 458.834 260.521 465.654 260.521H465.672C488.189 260.521 506.518 242.127 506.528 219.518C506.532 208.562 502.286 198.26 494.572 190.51C486.859 182.76 476.6 178.489 465.671 178.484C443.151 178.484 424.824 196.878 424.814 219.486" fill="url(#paint0_linear_1339_53613)"/>
<path d="M423.355 219.472C423.353 226.958 425.301 234.265 429.004 240.707L423 262.716L445.436 256.81C451.617 260.194 458.577 261.978 465.66 261.98H465.678C489.003 261.98 507.99 242.924 508 219.506C508.004 208.157 503.605 197.484 495.615 189.456C487.624 181.429 476.999 177.005 465.678 177C442.349 177 423.365 196.053 423.355 219.472ZM436.717 239.597L435.879 238.262C432.357 232.641 430.499 226.145 430.501 219.475C430.509 200.01 446.288 184.173 465.691 184.173C475.088 184.177 483.918 187.855 490.56 194.527C497.202 201.199 500.857 210.069 500.854 219.503C500.846 238.968 485.066 254.807 465.678 254.807H465.664C459.351 254.803 453.16 253.101 447.76 249.885L446.475 249.12L433.161 252.624L436.717 239.597Z" fill="url(#paint1_linear_1339_53613)"/>
<path d="M455.1 201.716C454.308 199.949 453.474 199.913 452.721 199.882C452.104 199.855 451.399 199.857 450.694 199.857C449.989 199.857 448.843 200.124 447.874 201.185C446.905 202.248 444.173 204.816 444.173 210.039C444.173 215.262 447.962 220.31 448.491 221.019C449.02 221.727 455.806 232.788 466.555 237.043C475.488 240.58 477.306 239.876 479.244 239.699C481.183 239.522 485.501 237.132 486.382 234.653C487.264 232.174 487.264 230.049 486.999 229.605C486.735 229.163 486.03 228.897 484.972 228.367C483.915 227.836 478.716 225.267 477.746 224.913C476.777 224.559 476.072 224.382 475.367 225.445C474.661 226.507 472.636 228.897 472.019 229.605C471.403 230.315 470.785 230.403 469.728 229.872C468.67 229.34 465.264 228.22 461.224 224.604C458.08 221.79 455.958 218.315 455.341 217.252C454.724 216.19 455.275 215.615 455.805 215.086C456.28 214.61 456.863 213.846 457.392 213.227C457.919 212.607 458.095 212.164 458.448 211.456C458.801 210.748 458.624 210.128 458.36 209.597C458.095 209.066 456.04 203.815 455.1 201.716Z" fill="white"/>
</g>
<path d="M483.327 166L491.54 149.733V149.604H481.935V145.637H496.631V149.634L488.388 166H483.327Z" fill="#555555"/>
<path d="M480.69 144.682L474.127 169.062H469.981L476.544 144.682H480.69Z" fill="#555555"/>
<path d="M451.671 162.62V158.782L460.013 145.637H463.424V150.847H461.445L456.563 158.583V158.742H468.644V162.62H451.671ZM461.505 166V161.446L461.604 159.766V145.637H466.208V166H461.505Z" fill="#555555"/>
<path d="M434.501 165.999V162.46L441.929 155.957C442.486 155.453 442.96 154.992 443.351 154.575C443.742 154.151 444.04 153.726 444.246 153.302C444.451 152.871 444.554 152.404 444.554 151.9C444.554 151.337 444.431 150.856 444.186 150.458C443.941 150.054 443.603 149.742 443.172 149.524C442.741 149.305 442.247 149.195 441.69 149.195C441.127 149.195 440.633 149.311 440.209 149.544C439.785 149.769 439.453 150.097 439.214 150.528C438.982 150.959 438.866 151.482 438.866 152.099H434.203C434.203 150.713 434.515 149.517 435.138 148.509C435.761 147.502 436.636 146.726 437.763 146.183C438.896 145.633 440.212 145.357 441.71 145.357C443.255 145.357 444.597 145.616 445.737 146.133C446.877 146.65 447.759 147.373 448.382 148.301C449.012 149.222 449.327 150.293 449.327 151.512C449.327 152.288 449.171 153.057 448.859 153.819C448.548 154.581 447.988 155.423 447.179 156.345C446.377 157.266 445.237 158.37 443.759 159.656L441.322 161.903V162.032H449.575V165.999H434.501Z" fill="#555555"/>
<path d="M552.34 395.829C554.569 394.112 556.204 391.74 557.016 389.046C557.828 386.352 557.776 383.471 556.867 380.808C555.958 378.145 554.238 375.834 551.948 374.198C549.658 372.563 546.914 371.686 544.1 371.689H499.1C498.068 371.687 497.047 371.898 496.1 372.31C495.797 372.443 495.503 372.597 495.22 372.769L461.15 390.769L519.2 427.829L553.59 409.609H553.64L554.12 409.349C555.326 408.579 556.287 407.481 556.891 406.184C557.495 404.888 557.718 403.446 557.532 402.027C557.346 400.608 556.76 399.272 555.843 398.175C554.925 397.077 553.714 396.264 552.35 395.829H552.34Z" fill="#923D4F"/>
<g style="mix-blend-mode:multiply" opacity="0.5">
<path d="M514.15 424.608L519.15 427.808L553.59 409.608H553.64L554.12 409.348C555.326 408.578 556.287 407.48 556.891 406.183C557.495 404.886 557.718 403.444 557.532 402.026C557.346 400.607 556.76 399.271 555.843 398.173C554.925 397.076 553.714 396.262 552.35 395.828L517.85 414.078L514.15 424.608Z" fill="#923D4F"/>
</g>
<path d="M517.841 414.079C520.071 412.362 521.706 409.988 522.518 407.293C523.33 404.598 523.276 401.717 522.366 399.053C521.456 396.39 519.734 394.079 517.443 392.444C515.152 390.809 512.406 389.934 509.591 389.939H464.591C462.813 389.963 461.1 390.615 459.757 391.781C458.413 392.947 457.526 394.55 457.251 396.307C456.977 398.065 457.334 399.863 458.258 401.382C459.182 402.902 460.615 404.045 462.301 404.609C460.053 406.325 458.401 408.704 457.58 411.411C456.759 414.117 456.811 417.013 457.728 419.689C458.645 422.364 460.381 424.683 462.69 426.316C464.999 427.95 467.763 428.815 470.591 428.789H515.591C517.391 428.795 519.134 428.155 520.502 426.986C521.871 425.817 522.776 424.196 523.053 422.418C523.33 420.639 522.96 418.82 522.012 417.291C521.063 415.761 519.598 414.622 517.881 414.079H517.841Z" fill="#923D4F"/>
<g style="mix-blend-mode:multiply" opacity="0.8">
<path d="M517.841 414.079C520.071 412.362 521.706 409.988 522.518 407.293C523.33 404.598 523.276 401.717 522.366 399.053C521.456 396.39 519.734 394.079 517.443 392.444C515.152 390.809 512.406 389.934 509.591 389.939H464.591C462.813 389.963 461.1 390.615 459.757 391.781C458.413 392.947 457.526 394.55 457.251 396.307C456.977 398.065 457.334 399.863 458.258 401.382C459.182 402.902 460.615 404.045 462.301 404.609C460.053 406.325 458.401 408.704 457.58 411.411C456.759 414.117 456.811 417.013 457.728 419.689C458.645 422.364 460.381 424.683 462.69 426.316C464.999 427.95 467.763 428.815 470.591 428.789H515.591C517.391 428.795 519.134 428.155 520.502 426.986C521.871 425.817 522.776 424.196 523.053 422.418C523.33 420.639 522.96 418.82 522.012 417.291C521.063 415.761 519.598 414.622 517.881 414.079H517.841Z" fill="#923D4F"/>
</g>
<path d="M527.452 423.468C527.931 421.99 528.161 420.442 528.132 418.888C528.136 417.334 527.687 415.812 526.84 414.508C525.993 413.205 524.784 412.176 523.362 411.548C525.485 409.668 526.987 407.188 527.669 404.435C528.35 401.682 528.18 398.788 527.181 396.134C526.181 393.48 524.4 391.192 522.071 389.573C519.743 387.955 516.978 387.081 514.142 387.068H468.142L466.252 388.068H514.122C516.825 388.08 519.456 388.934 521.651 390.511C523.846 392.088 525.495 394.309 526.368 396.867C527.242 399.425 527.296 402.191 526.525 404.781C525.753 407.371 524.193 409.656 522.062 411.318L521.312 411.898L522.212 412.188C523.637 412.636 524.881 413.528 525.762 414.734C526.644 415.939 527.117 417.395 527.112 418.888C527.188 420.729 526.807 422.561 526.002 424.218L527.452 423.468Z" fill="white"/>
<path d="M553.401 409.759C553.861 408.308 554.081 406.792 554.051 405.269C554.056 403.717 553.61 402.197 552.767 400.893C551.923 399.59 550.719 398.56 549.301 397.929C551.428 396.049 552.933 393.567 553.617 390.812C554.301 388.057 554.131 385.158 553.13 382.502C552.128 379.846 550.343 377.556 548.011 375.938C545.679 374.319 542.909 373.448 540.071 373.439H493.951L492.061 374.439H540.061C542.763 374.451 545.395 375.305 547.59 376.882C549.785 378.459 551.434 380.68 552.307 383.238C553.18 385.796 553.235 388.562 552.463 391.152C551.691 393.742 550.131 396.027 548.001 397.689L547.251 398.269L548.151 398.559C549.575 399.01 550.818 399.904 551.698 401.111C552.578 402.319 553.048 403.776 553.041 405.269C553.13 407.064 552.787 408.855 552.041 410.489L553.401 409.759Z" fill="white"/>
<path d="M470.591 408.829C468.867 408.829 467.213 409.514 465.994 410.733C464.775 411.952 464.091 413.606 464.091 415.329C464.091 417.053 464.775 418.707 465.994 419.926C467.213 421.145 468.867 421.829 470.591 421.829H515.591C515.731 421.829 515.866 421.774 515.965 421.674C516.065 421.575 516.121 421.44 516.121 421.299C516.121 421.159 516.065 421.024 515.965 420.925C515.866 420.825 515.731 420.769 515.591 420.769H470.591C469.195 420.709 467.876 420.113 466.909 419.104C465.943 418.095 465.403 416.752 465.403 415.354C465.403 413.957 465.943 412.614 466.909 411.605C467.876 410.596 469.195 409.999 470.591 409.939H509.591C511.314 409.939 512.968 409.255 514.187 408.036C515.406 406.817 516.091 405.163 516.091 403.439C516.091 401.716 515.406 400.062 514.187 398.843C512.968 397.624 511.314 396.939 509.591 396.939H464.591C464.45 396.939 464.315 396.995 464.216 397.095C464.116 397.194 464.061 397.329 464.061 397.469C464.061 397.61 464.116 397.745 464.216 397.844C464.315 397.944 464.45 397.999 464.591 397.999H509.591C510.321 397.968 511.051 398.085 511.735 398.343C512.419 398.601 513.044 398.995 513.573 399.501C514.101 400.006 514.521 400.614 514.808 401.287C515.095 401.959 515.243 402.683 515.243 403.414C515.243 404.146 515.095 404.87 514.808 405.542C514.521 406.215 514.101 406.822 513.573 407.328C513.044 407.834 512.419 408.228 511.735 408.486C511.051 408.744 510.321 408.861 509.591 408.829H470.591Z" fill="#923D4F"/>
<path d="M552.34 355.14C554.569 353.423 556.204 351.05 557.016 348.356C557.828 345.662 557.776 342.782 556.867 340.119C555.958 337.456 554.238 335.144 551.948 333.509C549.658 331.873 546.914 330.996 544.1 331H499.1C498.068 330.998 497.047 331.209 496.1 331.62C495.797 331.753 495.503 331.907 495.22 332.08L461.15 350.08L519.2 387.14L553.59 368.96H553.64L554.12 368.71C555.326 367.94 556.287 366.842 556.891 365.545C557.495 364.248 557.718 362.806 557.532 361.388C557.346 359.969 556.76 358.633 555.843 357.535C554.925 356.438 553.714 355.624 552.35 355.19L552.34 355.14Z" fill="#D3C393"/>
<g style="mix-blend-mode:multiply" opacity="0.5">
<path d="M514.15 383.959L519.15 387.159L553.59 368.959H553.64L554.12 368.709C555.326 367.939 556.287 366.841 556.891 365.544C557.495 364.248 557.718 362.806 557.532 361.387C557.346 359.968 556.76 358.632 555.843 357.535C554.925 356.437 553.714 355.624 552.35 355.189L517.85 373.439L514.15 383.959Z" fill="#D3C393"/>
</g>
<path d="M517.84 373.39C520.07 371.672 521.705 369.299 522.517 366.604C523.328 363.909 523.275 361.027 522.365 358.364C521.455 355.701 519.733 353.389 517.442 351.755C515.151 350.12 512.405 349.244 509.59 349.25H464.59C462.79 349.245 461.048 349.885 459.679 351.054C458.31 352.223 457.406 353.843 457.129 355.622C456.852 357.4 457.221 359.219 458.17 360.749C459.119 362.278 460.584 363.418 462.3 363.96C460.07 365.682 458.435 368.059 457.626 370.758C456.817 373.457 456.873 376.342 457.788 379.007C458.703 381.672 460.43 383.983 462.726 385.616C465.022 387.249 467.773 388.121 470.59 388.11H515.59C517.387 388.107 519.124 387.463 520.487 386.293C521.851 385.123 522.752 383.505 523.029 381.729C523.305 379.954 522.938 378.138 521.994 376.609C521.05 375.08 519.591 373.939 517.88 373.39H517.84Z" fill="#923D4F"/>
<path d="M517.84 373.39C520.07 371.672 521.705 369.299 522.517 366.604C523.328 363.909 523.275 361.027 522.365 358.364C521.455 355.701 519.733 353.389 517.442 351.755C515.151 350.12 512.405 349.244 509.59 349.25H464.59C462.79 349.245 461.048 349.885 459.679 351.054C458.31 352.223 457.406 353.843 457.129 355.622C456.852 357.4 457.221 359.219 458.17 360.749C459.119 362.278 460.584 363.418 462.3 363.96C460.07 365.682 458.435 368.059 457.626 370.758C456.817 373.457 456.873 376.342 457.788 379.007C458.703 381.672 460.43 383.983 462.726 385.616C465.022 387.249 467.773 388.121 470.59 388.11H515.59C517.387 388.107 519.124 387.463 520.487 386.293C521.851 385.123 522.752 383.505 523.029 381.729C523.305 379.954 522.938 378.138 521.994 376.609C521.05 375.08 519.591 373.939 517.88 373.39H517.84Z" fill="#D3C393"/>
<g style="mix-blend-mode:multiply" opacity="0.8">
<path d="M517.84 373.39C520.07 371.672 521.705 369.299 522.517 366.604C523.328 363.909 523.275 361.027 522.365 358.364C521.455 355.701 519.733 353.389 517.442 351.755C515.151 350.12 512.405 349.244 509.59 349.25H464.59C462.79 349.245 461.048 349.885 459.679 351.054C458.31 352.223 457.406 353.843 457.129 355.622C456.852 357.4 457.221 359.219 458.17 360.749C459.119 362.278 460.584 363.418 462.3 363.96C460.07 365.682 458.435 368.059 457.626 370.758C456.817 373.457 456.873 376.342 457.788 379.007C458.703 381.672 460.43 383.983 462.726 385.616C465.022 387.249 467.773 388.121 470.59 388.11H515.59C517.387 388.107 519.124 387.463 520.487 386.293C521.851 385.123 522.752 383.505 523.029 381.729C523.305 379.954 522.938 378.138 521.994 376.609C521.05 375.08 519.591 373.939 517.88 373.39H517.84Z" fill="#D3C393"/>
</g>
<path d="M527.452 382.779C527.931 381.301 528.161 379.753 528.132 378.199C528.136 376.644 527.687 375.122 526.84 373.819C525.993 372.515 524.784 371.487 523.362 370.859C525.485 368.979 526.987 366.498 527.669 363.745C528.35 360.993 528.18 358.098 527.181 355.444C526.181 352.79 524.4 350.503 522.071 348.884C519.743 347.265 516.978 346.392 514.142 346.379H468.142L466.252 347.379H514.122C516.821 347.392 519.45 348.244 521.642 349.819C523.835 351.393 525.483 353.611 526.359 356.165C527.234 358.718 527.292 361.481 526.526 364.069C525.759 366.658 524.206 368.943 522.082 370.609L521.332 371.189L522.232 371.479C523.657 371.927 524.901 372.819 525.782 374.024C526.664 375.23 527.137 376.686 527.132 378.179C527.208 380.02 526.827 381.851 526.022 383.509L527.452 382.779Z" fill="white"/>
<path d="M553.401 369.07C553.861 367.619 554.081 366.102 554.051 364.58C554.056 363.028 553.61 361.507 552.767 360.204C551.923 358.9 550.719 357.871 549.301 357.24C551.428 355.36 552.933 352.878 553.617 350.122C554.301 347.367 554.131 344.469 553.13 341.812C552.128 339.156 550.343 336.867 548.011 335.248C545.679 333.63 542.909 332.758 540.071 332.75H493.951L492.061 333.75H540.061C542.763 333.762 545.395 334.615 547.59 336.192C549.785 337.769 551.434 339.991 552.307 342.549C553.18 345.106 553.235 347.872 552.463 350.462C551.691 353.053 550.131 355.338 548.001 357L547.251 357.58L548.151 357.87C549.575 358.32 550.818 359.214 551.698 360.422C552.578 361.629 553.048 363.086 553.041 364.58C553.13 366.375 552.787 368.165 552.041 369.8L553.401 369.07Z" fill="white"/>
<path d="M470.592 368.138C468.868 368.138 467.215 368.823 465.996 370.042C464.777 371.261 464.092 372.914 464.092 374.638C464.092 376.362 464.777 378.015 465.996 379.234C467.215 380.453 468.868 381.138 470.592 381.138H515.592C515.733 381.136 515.868 381.078 515.967 380.977C516.066 380.876 516.122 380.74 516.122 380.598C516.122 380.458 516.066 380.323 515.967 380.224C515.867 380.124 515.732 380.068 515.592 380.068H470.592C469.196 380.008 467.877 379.412 466.911 378.403C465.944 377.394 465.405 376.05 465.405 374.653C465.405 373.256 465.944 371.913 466.911 370.904C467.877 369.895 469.196 369.298 470.592 369.238H509.592C511.316 369.238 512.969 368.553 514.188 367.334C515.407 366.115 516.092 364.462 516.092 362.738C516.092 361.014 515.407 359.361 514.188 358.142C512.969 356.923 511.316 356.238 509.592 356.238H464.592C464.462 356.256 464.344 356.32 464.258 356.418C464.172 356.517 464.125 356.643 464.125 356.773C464.125 356.904 464.172 357.03 464.258 357.128C464.344 357.227 464.462 357.291 464.592 357.308H509.592C511.027 357.308 512.403 357.878 513.417 358.893C514.432 359.907 515.002 361.283 515.002 362.718C515.002 364.153 514.432 365.529 513.417 366.544C512.403 367.558 511.027 368.128 509.592 368.128L470.592 368.138Z" fill="#D3C393"/>
<path d="M166.512 202.154C166.505 201.228 166.132 200.341 165.475 199.689C164.817 199.036 163.928 198.67 163.002 198.67H52.1546C51.2305 198.67 50.3443 199.037 49.6909 199.69C49.0375 200.344 48.6704 201.23 48.6704 202.154V220.013H166.512V202.154Z" fill="#BFBFBF"/>
<path d="M167.158 220.686H48.0002V202.155C48.0002 201.609 48.1077 201.069 48.3165 200.565C48.5253 200.061 48.8314 199.603 49.2172 199.217C49.6031 198.831 50.0611 198.525 50.5653 198.316C51.0694 198.107 51.6097 198 52.1554 198H163.132C164.234 198 165.29 198.438 166.07 199.217C166.849 199.996 167.287 201.053 167.287 202.155L167.158 220.686ZM49.3422 219.369H165.841V202.155C165.841 201.784 165.768 201.416 165.625 201.073C165.482 200.73 165.272 200.418 165.008 200.157C164.744 199.895 164.431 199.689 164.087 199.549C163.743 199.409 163.374 199.339 163.003 199.342H52.1554C51.7859 199.342 51.4201 199.415 51.0788 199.556C50.7375 199.698 50.4274 199.905 50.1662 200.166C49.905 200.427 49.6978 200.737 49.5564 201.079C49.415 201.42 49.3422 201.786 49.3422 202.155V219.369Z" fill="#C8C8C8"/>
<path d="M48.6704 220.018V331.845C48.6704 332.77 49.0375 333.656 49.6909 334.309C50.3443 334.963 51.2305 335.33 52.1546 335.33H163.131C164.057 335.33 164.946 334.963 165.604 334.311C166.261 333.658 166.634 332.772 166.641 331.845V220.018H48.6704Z" fill="#F0ECEC"/>
<path d="M163.002 336.001H52.1552C51.0552 335.995 50.0023 335.555 49.2245 334.777C48.4467 333.999 48.0068 332.946 48 331.846V219.373H167.157V331.846C167.151 332.946 166.711 333.999 165.933 334.777C165.155 335.555 164.102 335.995 163.002 336.001ZM49.4453 220.689V331.846C49.4453 332.216 49.518 332.581 49.6594 332.923C49.8008 333.264 50.008 333.574 50.2692 333.835C50.5304 334.097 50.8405 334.304 51.1819 334.445C51.5232 334.587 51.889 334.659 52.2584 334.659H163.235C163.606 334.663 163.975 334.592 164.319 334.453C164.663 334.313 164.977 334.106 165.24 333.845C165.504 333.583 165.714 333.272 165.857 332.929C166 332.586 166.074 332.218 166.074 331.846V220.689H49.4453Z" fill="#C8C8C8"/>
<path d="M150.278 275.146C150.278 283.492 147.803 291.65 143.166 298.589C138.53 305.528 131.939 310.937 124.229 314.131C116.519 317.325 108.034 318.16 99.8488 316.532C91.6634 314.904 84.1447 310.885 78.2434 304.984C72.342 299.082 68.3232 291.564 66.695 283.378C65.0668 275.193 65.9025 266.708 69.0962 258.998C72.29 251.288 77.6985 244.697 84.6377 240.061C91.5769 235.424 99.7353 232.949 108.081 232.949C119.272 232.949 130.005 237.395 137.919 245.308C145.832 253.222 150.278 263.955 150.278 275.146Z" fill="#C8C8C8"/>
<path d="M148.629 275.376C148.629 283.38 146.256 291.204 141.809 297.858C137.362 304.513 131.042 309.7 123.648 312.763C116.253 315.826 108.117 316.627 100.267 315.066C92.4167 313.504 85.2061 309.65 79.5466 303.991C73.8871 298.331 70.0329 291.121 68.4715 283.271C66.91 275.421 67.7114 267.284 70.7743 259.89C73.8372 252.495 79.024 246.175 85.6789 241.728C92.3338 237.282 100.158 234.908 108.162 234.908C113.476 234.908 118.738 235.955 123.648 237.989C128.558 240.022 133.019 243.003 136.776 246.761C140.534 250.519 143.515 254.98 145.549 259.89C147.582 264.799 148.629 270.062 148.629 275.376Z" fill="#D6D6D6"/>
<path d="M81.862 204.891H54.6341V215.137H81.862V204.891Z" fill="#D6D6D6"/>
<path d="M102.355 210.03C102.355 210.652 102.171 211.261 101.825 211.779C101.479 212.297 100.987 212.7 100.412 212.939C99.8363 213.177 99.2032 213.239 98.5924 213.118C97.9817 212.996 97.4206 212.696 96.9803 212.256C96.5399 211.816 96.2401 211.255 96.1186 210.644C95.9971 210.033 96.0594 209.4 96.2977 208.825C96.5361 208.249 96.9396 207.758 97.4574 207.412C97.9752 207.066 98.584 206.881 99.2067 206.881C99.6211 206.878 100.032 206.957 100.416 207.114C100.799 207.271 101.148 207.502 101.441 207.796C101.734 208.089 101.966 208.437 102.123 208.821C102.28 209.204 102.359 209.615 102.355 210.03Z" fill="#66BECC"/>
<path d="M118.405 210.029C118.405 210.652 118.22 211.261 117.874 211.779C117.528 212.297 117.037 212.7 116.461 212.938C115.886 213.177 115.253 213.239 114.642 213.118C114.031 212.996 113.47 212.696 113.03 212.256C112.59 211.816 112.29 211.255 112.168 210.644C112.047 210.033 112.109 209.4 112.347 208.825C112.586 208.249 112.989 207.757 113.507 207.412C114.025 207.066 114.634 206.881 115.256 206.881C116.091 206.881 116.892 207.213 117.483 207.803C118.073 208.394 118.405 209.194 118.405 210.029Z" fill="#48BF4F"/>
<path d="M134.59 210.029C134.59 210.652 134.406 211.261 134.06 211.779C133.714 212.297 133.222 212.7 132.647 212.938C132.071 213.177 131.438 213.239 130.827 213.118C130.217 212.996 129.656 212.696 129.215 212.256C128.775 211.816 128.475 211.255 128.354 210.644C128.232 210.033 128.294 209.4 128.533 208.825C128.771 208.249 129.175 207.757 129.692 207.412C130.21 207.066 130.819 206.881 131.442 206.881C132.277 206.881 133.078 207.213 133.668 207.803C134.259 208.394 134.59 209.194 134.59 210.029Z" fill="#D14F60"/>
<path d="M150.771 210.029C150.771 210.652 150.587 211.261 150.241 211.779C149.895 212.297 149.403 212.7 148.828 212.938C148.252 213.177 147.619 213.239 147.008 213.118C146.398 212.996 145.837 212.696 145.396 212.256C144.956 211.816 144.656 211.255 144.535 210.644C144.413 210.033 144.475 209.4 144.714 208.825C144.952 208.249 145.356 207.757 145.873 207.412C146.391 207.066 147 206.881 147.623 206.881C148.458 206.881 149.259 207.213 149.849 207.803C150.44 208.394 150.771 209.194 150.771 210.029Z" fill="#485665"/>
<path d="M116.731 285.697C124.861 285.697 127.287 289.13 132.009 291.169C134.038 288.026 135.44 284.52 136.139 280.845C127.932 279.581 126.745 274.109 116.473 274.109C104.885 274.109 104.885 281.103 93.2452 281.103C85.5027 281.103 82.9219 277.903 78.457 275.942C78.555 280.596 79.758 285.161 81.9669 289.259C85.3628 291.622 89.4188 292.85 93.5549 292.769C105.169 292.769 105.169 285.697 116.731 285.697Z" fill="#6DCCCC"/>
<path d="M107.516 304.462C112.372 304.463 117.151 303.247 121.416 300.925C125.681 298.603 129.296 295.25 131.931 291.171C127.208 289.132 124.782 285.699 116.652 285.699C105.09 285.699 105.09 292.693 93.4248 292.693C89.3118 292.779 85.2761 291.569 81.8884 289.235C84.3912 293.847 88.0942 297.697 92.6055 300.378C97.1168 303.058 102.269 304.469 107.516 304.462Z" fill="#66BECC"/>
<path d="M107.516 246.314C103.695 246.311 99.9116 247.061 96.3812 248.522C92.8507 249.982 89.643 252.124 86.9414 254.826C84.2398 257.528 82.0975 260.735 80.637 264.266C79.1765 267.796 78.4265 271.58 78.4299 275.401V275.943C82.8431 278.007 85.3981 281.104 93.2181 281.104C104.806 281.104 104.806 274.11 116.446 274.11C126.769 274.11 127.905 279.582 136.112 280.846C136.462 279.017 136.643 277.16 136.654 275.297C136.626 267.592 133.543 260.213 128.08 254.779C122.617 249.345 115.221 246.301 107.516 246.314Z" fill="#485665"/>
</g>
<defs>
<linearGradient id="paint0_linear_1339_53613" x1="4527.27" y1="8453.32" x2="4527.27" y2="178.484" gradientUnits="userSpaceOnUse">
<stop stop-color="#1FAF38"/>
<stop offset="1" stop-color="#60D669"/>
</linearGradient>
<linearGradient id="paint1_linear_1339_53613" x1="4673" y1="8748.57" x2="4673" y2="177" gradientUnits="userSpaceOnUse">
<stop stop-color="#F9F9F9"/>
<stop offset="1" stop-color="white"/>
</linearGradient>
<clipPath id="clip0_1339_53613">
<rect width="608" height="512" fill="white"/>
</clipPath>
<clipPath id="clip1_1339_53613">
<rect width="108.476" height="69.5208" fill="white" transform="translate(261.321 360.285)"/>
</clipPath>
<clipPath id="clip2_1339_53613">
<rect width="85" height="86" fill="white" transform="translate(423 177)"/>
</clipPath>
</defs>
</svg>
