<svg width="23" height="23" viewBox="0 0 23 23" fill="none" xmlns="http://www.w3.org/2000/svg">
<g clip-path="url(#clip0_1151_40531)">
<path d="M2.875 20.1221C2.875 20.4052 2.93077 20.6856 3.03913 20.9472C3.1475 21.2088 3.30632 21.4465 3.50655 21.6468C3.70678 21.847 3.94448 22.0058 4.20609 22.1142C4.4677 22.2225 4.74809 22.2783 5.03125 22.2783C5.31441 22.2783 5.5948 22.2225 5.85641 22.1142C6.11802 22.0058 6.35572 21.847 6.55595 21.6468C6.75618 21.4465 6.915 21.2088 7.02337 20.9472C7.13173 20.6856 7.1875 20.4052 7.1875 20.1221C7.1875 19.5502 6.96032 19.0017 6.55595 18.5974C6.15157 18.193 5.60312 17.9658 5.03125 17.9658C4.45938 17.9658 3.91093 18.193 3.50655 18.5974C3.10218 19.0017 2.875 19.5502 2.875 20.1221Z" stroke="black" stroke-width="1.5" stroke-linecap="round" stroke-linejoin="round"/>
<path d="M7.06196 20.8408L14.375 22.2783L18.6875 5.02832H4.3125M4.3125 5.02832V18.0885M4.3125 5.02832V2.15332C4.3125 1.77207 4.46395 1.40644 4.73353 1.13685C5.00312 0.867271 5.36875 0.71582 5.75 0.71582H15.8125C16.9562 0.71582 18.0531 1.17017 18.8619 1.97892C19.6706 2.78767 20.125 3.88457 20.125 5.02832H4.3125Z" stroke="black" stroke-width="1.5" stroke-linecap="round" stroke-linejoin="round"/>
</g>
<defs>
<clipPath id="clip0_1151_40531">
<rect width="23" height="23" fill="white"/>
</clipPath>
</defs>
</svg>
