<svg width="90" height="162" viewBox="0 0 90 162" fill="none" xmlns="http://www.w3.org/2000/svg">
<mask id="mask0_1305_48992" style="mask-type:alpha" maskUnits="userSpaceOnUse" x="0" y="73" width="87" height="112">
<path d="M81.6922 110.241L86.1773 97.0214L83.8167 93.0084C81.9282 89.6248 77.7263 82.4328 76.0267 80.7332C74.327 79.0335 69.4956 74.989 67.2924 73.1792H45.3386L24.0931 75.3038C21.9685 77.7431 17.0584 83.0466 14.4145 84.7462C11.1097 86.8708 11.3457 88.7593 8.27692 91.592C5.20812 94.4248 2.61143 106.7 1.19506 109.061C-0.221308 111.421 0.0147539 135.263 0.0147539 137.388C0.0147539 139.513 4.49993 162.647 4.73599 165.479C4.97205 168.312 13.7063 178.227 14.4145 179.643C15.1227 181.059 24.0931 184.128 30.7028 184.128C37.3125 184.128 51.2402 184.6 54.309 184.128C56.764 183.751 73.5874 180.037 81.6922 178.227L79.5676 165.479L78.1512 140.693L81.6922 110.241Z" fill="#D9D9D9"/>
</mask>
<g mask="url(#mask0_1305_48992)">
<path d="M30.5557 75.7944C31.4168 76.5194 32.2891 77.2306 33.1727 77.928C33.9517 78.4086 35.0019 79.1097 35.8293 79.4272C43.9475 82.5663 49.5275 83.1124 57.7184 79.519C57.7923 79.4867 57.8659 79.4536 57.9393 79.4203C58.7353 79.0108 59.6201 78.4584 60.4005 77.9974C61.6427 77.2483 62.2071 76.7927 63.2772 75.8176L63.3817 75.8525C66.3743 76.8281 70.0594 77.0741 71.8266 80.3717C72.3705 81.3867 72.4427 82.7009 72.7871 83.5663C73.9143 86.3979 74.9745 86.6146 74.5571 89.736C80.5576 92.1981 82.9961 95.0885 86.0368 100.669C89.7756 92.4791 94.545 89.2587 102.72 86.2048L103.275 85.9984L104.132 85.6866C105.521 85.0558 109.252 84.2438 110.879 83.8588L110.916 82.2444C110.9 81.2874 110.978 80.196 111.024 79.2294C119.347 83.0961 125.587 82.6801 133.885 79.0264L133.691 80.8967C133.714 82.0406 133.711 82.8494 133.623 83.9877C135.073 84.2825 139.821 85.7161 140.858 85.7596L141.574 86.1469C148.879 88.7927 154.889 92.0449 158.383 99.4613C159.295 101.416 159.977 103.471 160.414 105.584C162.292 114.359 163.607 135.605 160.899 144.284C160.147 146.694 158.469 148.722 156.187 149.853C154.448 150.714 152.107 150.516 151.507 150.958C151.449 151.638 151.431 152.134 151.426 152.81L151.456 153.494C151.524 158.62 152.816 166.195 149.482 170.134C149.597 179.019 151.196 179.234 142.1 180.251C130.764 181.587 119.323 181.785 107.948 180.845C104.235 180.545 100.533 180.125 96.8475 179.583L95.9696 179.505C94.4881 179.929 86.0751 179.911 84.7984 179.074C84.043 177.946 84.264 176.087 84.2838 174.692C84.2855 174.277 84.2661 173.908 84.2437 173.494C83.9531 172.989 83.1708 172.744 82.6212 172.407C82.0677 171.994 81.8805 171.239 81.6973 170.61C81.7252 170.592 77.0639 177.705 76.6833 178.265C74.6813 178.713 72.71 179.32 70.6902 179.686C64.5956 180.791 58.0814 181.153 51.8924 181.349C46.6211 181.516 22.6382 181.43 19.5545 178.454C18.7769 177.704 19.0902 171.066 19.0585 169.701C16.9101 166.614 17.1818 164.016 17.1943 160.438C17.204 157.64 17.2161 154.827 17.2314 152.028C9.0536 152.208 3.23739 150.346 2.43504 140.859C2.08201 136.685 2.47258 132.194 2.77679 128.005C3.41486 119.221 3.77665 109.956 7.12188 101.708C9.66647 95.5682 13.5411 92.1811 19.5727 89.7648C19.4778 89.2568 19.2445 87.7408 19.4485 87.2621C22.7987 79.3963 21.6198 77.9244 30.5557 75.7944Z" fill="#D4B57A"/>
</g>
<path d="M56.3006 82.1463L59.3735 80.6222L59.3475 82.2404C61.0731 82.6651 65.105 83.5843 66.5497 84.2944L66.7929 84.3947C79.0162 88.67 86.1098 95.2042 87.623 108.569C89.6602 126.574 90.7225 145.227 89.4454 163.329C89.2754 165.752 89.3132 170.286 86.6858 171.197C86.6646 171.785 86.6197 172.469 86.6268 173.049C86.6528 174.412 86.8841 176.332 86.1382 177.424C84.7784 178.448 76.7948 178.41 75.3124 177.71L75.0669 177.702C73.9951 178.033 71.0892 178.384 69.831 178.543C56.3826 180.16 42.7972 180.266 29.3252 178.858C27.1156 178.636 22.9373 178.256 20.9615 177.62L19.8921 177.998C19.7812 178.019 21.7131 174.434 21.5998 174.449C19.6735 174.728 27.3194 162.95 25.7307 161.748C25.0556 160.734 19.5451 163.914 19.5545 162.646C31.3104 150.244 34.8357 132.636 19.8921 149.899C17.3261 149.524 15.8154 149.498 15.662 147.42C15.0176 138.569 5.72839 144.012 6.20524 135.15C6.42006 130.78 6.80958 126.333 7.11174 122.01C7.87422 111.126 6.97717 99.5796 15.6619 91.46C19.8378 87.557 23.8178 86.0733 29.0513 84.1735L29.2685 84.1187C30.3095 83.539 34.8278 82.4691 36.1096 82.1462C36.034 81.1255 36.6674 81.6494 36.7075 80.6221L38.1239 83.4478C45.7274 87.2954 48.7301 85.6764 56.3006 82.1463Z" fill="#D4B57A"/>
<g clip-path="url(#clip0_1305_48992)">
<path d="M56.9878 128.642C56.7729 129.198 56.5794 129.703 56.3798 130.207C55.784 131.724 55.1059 133.2 54.0651 134.472C53.4587 135.212 52.7821 135.902 51.8054 136.121C50.44 136.427 49.0077 135.941 48.5917 134.502C48.2945 133.474 48.7989 132.209 49.6766 131.805C49.992 131.66 50.3151 131.618 50.6457 131.744C50.7707 131.793 50.8621 131.88 50.8774 132.021C50.8911 132.142 50.8408 132.244 50.7357 132.289C50.0606 132.585 50.0088 133.203 49.9524 133.811C49.9189 134.164 50.0286 134.475 50.2496 134.766C50.6473 135.293 51.5935 135.189 52.0644 134.916C52.8766 134.444 53.4206 133.721 53.9387 132.965C55.0708 131.31 55.7962 129.461 56.52 127.611C56.6876 127.183 56.8613 126.756 57.003 126.319C57.1661 125.82 56.9344 125.348 56.4895 125.188C56.2228 125.092 55.979 125.198 55.7489 125.29C54.6869 125.715 53.2027 127.439 53.4099 128.834C53.4358 129.004 53.4663 129.16 53.5897 129.284C53.7177 129.412 53.7832 129.556 53.6872 129.734C53.5821 129.929 53.3992 129.918 53.224 129.892C52.4773 129.784 51.9501 128.986 52.0888 128.171C52.2229 127.39 52.5627 126.7 53.061 126.092C53.8107 125.175 54.7189 124.478 55.9089 124.248C56.651 124.105 57.3626 124.167 57.8822 124.824C58.2282 125.259 58.3028 125.785 58.3485 126.313C58.4735 127.742 58.3485 129.164 58.2434 130.587C58.1901 131.307 58.1565 132.03 58.1215 132.752C58.1154 132.873 58.0819 133.005 58.1763 133.136C58.344 133.028 58.4156 132.857 58.504 132.7C58.9687 131.874 59.4106 131.033 59.8998 130.221C60.7424 128.821 61.5439 127.397 62.4582 126.042C62.7371 125.629 63.0357 125.227 63.3451 124.837C63.7961 124.269 64.3767 124.119 64.9572 124.394C65.3321 124.572 65.4128 124.731 65.262 125.118C64.9466 125.929 64.5915 126.726 64.2944 127.544C63.601 129.45 62.9809 131.379 62.7736 133.41C62.7447 133.692 62.7462 133.978 62.766 134.26C62.8011 134.752 63.1409 134.918 63.5691 134.661C63.7031 134.58 63.825 134.479 63.9454 134.38C64.0567 134.289 64.1725 134.198 64.3111 134.298C64.4513 134.399 64.3904 134.546 64.3492 134.676C64.145 135.323 63.2491 135.906 62.5969 135.821C61.7329 135.707 61.2666 135.192 61.2331 134.298C61.2087 133.649 61.3077 133.011 61.4357 132.376C61.7725 130.713 62.3348 129.115 62.859 127.506C62.8818 127.436 62.9397 127.367 62.8788 127.262C62.3866 127.932 61.9614 128.631 61.5317 129.327C60.4255 131.12 59.5051 133.013 58.4613 134.839C58.3607 135.015 58.2601 135.2 58.0986 135.334C57.6704 135.687 57.1249 135.504 57.0244 134.959C56.9131 134.35 56.907 133.732 56.9649 133.116C57.1036 131.671 57.0503 130.223 57.0487 128.776C57.0518 128.754 57.0304 128.73 56.9878 128.642Z" fill="white"/>
<path d="M34.098 129.38C33.5632 129.369 33.0405 129.299 32.5636 129.04C32.3457 128.923 32.1552 128.766 32.0363 128.542C31.919 128.323 31.9358 128.102 32.0958 127.91C32.2329 127.746 32.4173 127.688 32.6245 127.77C33.5586 128.14 34.5125 128.053 35.4603 127.865C37.1075 127.537 38.677 126.94 40.2785 126.459C42.1833 125.886 44.1033 125.374 46.0811 125.117C47.1112 124.983 48.1459 124.889 49.1805 125.082C49.6773 125.175 50.1436 125.352 50.5443 125.667C50.8841 125.935 51.0944 126.281 51.0609 126.73C51.0441 126.966 50.9588 127.175 50.6937 127.237C50.4407 127.295 50.2899 127.164 50.1725 126.957C49.8038 126.308 49.1562 126.197 48.5055 126.15C47.512 126.077 46.5337 126.249 45.5585 126.415C42.9802 126.853 40.5117 127.685 38.0401 128.512C36.9247 128.885 35.8032 129.232 34.6237 129.342C34.4485 129.359 34.2733 129.368 34.098 129.38Z" fill="white"/>
<path d="M70.709 119.571C70.5581 119.449 70.3905 119.49 70.2442 119.588C70.0385 119.725 69.88 119.915 69.7231 120.101C69.2766 120.628 68.76 121.076 68.1795 121.446C67.6949 121.755 67.1799 121.986 66.5856 121.965C65.9883 121.944 65.6241 121.592 65.5799 120.993C65.5586 120.708 65.5966 120.428 65.6408 120.147C65.6789 119.904 65.781 119.825 66.0325 119.85C67.218 119.964 68.1414 119.434 68.9078 118.599C69.3574 118.11 69.6027 117.515 69.5875 116.832C69.5707 116.112 69.1029 115.645 68.3852 115.622C67.9677 115.608 67.6035 115.774 67.2347 115.931C66.9589 116.162 66.6587 116.366 66.4195 116.639C65.8572 117.282 65.3818 117.978 65.042 118.765C64.8866 119.125 64.6747 119.45 64.4142 119.746C63.9936 120.433 63.5121 121.071 62.9071 121.609C62.8355 121.673 62.7472 121.726 62.6588 121.762C62.3845 121.878 62.194 121.761 62.1666 121.467C62.1361 121.147 62.2214 120.846 62.322 120.547C62.671 119.522 63.2073 118.587 63.7087 117.635C63.8946 117.28 64.0911 116.927 64.1567 116.523C64.1841 116.36 64.1521 116.204 64.0012 116.109C63.8473 116.012 63.6858 116.025 63.5273 116.114C63.3369 116.219 63.2332 116.398 63.1311 116.575C62.8767 117.015 62.6405 117.468 62.3753 117.902C61.6363 119.117 60.8485 120.296 59.8123 121.284C59.4695 121.612 59.0824 121.88 58.6146 121.998C58.1483 122.117 57.8116 121.98 57.6104 121.609C57.1868 120.824 57.3971 119.594 58.0554 119.004C58.1864 118.887 58.3251 118.777 58.4531 118.657C60.3197 116.91 61.6729 114.805 62.7212 112.495C63.0412 111.791 63.3216 111.07 63.3917 110.285C63.4755 109.336 62.8767 108.825 61.967 109.084C61.8268 109.123 61.6912 109.184 61.5616 109.25C60.9567 109.559 60.5514 110.074 60.1689 110.61C59.634 111.36 59.2348 112.193 58.7731 112.987C58.7228 113.113 58.6801 113.244 58.6207 113.366C57.8466 114.967 57.2386 116.627 56.8348 118.362C56.7312 118.805 56.7099 119.278 56.4356 119.673C56.0943 120.163 55.7316 120.638 55.3293 121.08C55.0855 121.348 54.8447 121.624 54.5141 121.79C54.1621 121.966 53.9274 121.808 53.9564 121.417C53.9808 121.092 54.0737 120.78 54.2169 120.488C54.4745 119.959 54.7396 119.435 55.0017 118.91C55.1343 118.645 55.2379 118.372 55.2699 118.075C55.3141 117.658 55.1708 117.332 54.8112 117.099C54.5735 116.945 54.3053 116.896 54.0417 116.826C53.5267 116.688 53.5145 116.659 53.6516 116.158C53.6592 116.129 53.6653 116.1 53.6714 116.073C53.7263 115.823 53.6928 115.593 53.452 115.457C53.2036 115.317 52.9583 115.366 52.7465 115.552C52.5271 115.747 52.4402 116.012 52.4326 116.29C52.4112 117.021 52.1172 117.663 51.7728 118.276C51.2455 119.216 50.6223 120.096 49.9976 120.973C49.8558 121.171 49.7157 121.377 49.5206 121.528C49.2738 121.72 49.0787 121.657 48.9964 121.351C48.9614 121.222 48.9522 121.08 48.9583 120.945C48.9736 120.536 49.1122 120.159 49.2814 119.793C49.6806 118.933 50.1347 118.097 50.505 117.221C50.5888 117.021 50.6695 116.82 50.6787 116.603C50.6863 116.418 50.6421 116.246 50.4562 116.158C50.2795 116.076 50.1103 116.112 49.961 116.231C49.8284 116.336 49.7324 116.47 49.6547 116.619C49.6166 116.694 49.6029 116.814 49.4977 116.808C49.3911 116.802 49.3972 116.679 49.3637 116.601C49.0833 115.957 48.5317 115.696 47.8536 115.897C47.3522 116.045 46.9469 116.347 46.5644 116.691C46.1987 117.021 45.9382 117.442 45.6166 117.809C45.4673 118.072 45.3119 118.331 45.1702 118.599C44.7679 119.361 44.3336 120.102 43.8079 120.786C43.4986 121.19 43.1908 121.596 42.7306 121.848C42.6026 121.918 42.4654 122 42.3191 121.895C42.1713 121.788 42.2155 121.633 42.2445 121.49C42.3664 120.884 42.5904 120.309 42.8159 119.737C43.0369 119.173 43.2776 118.614 43.3523 118.005C43.4269 117.385 43.2868 117.108 42.7763 116.866C42.15 116.834 41.6746 117.146 41.2342 117.541C40.3763 118.308 39.7028 119.239 38.9516 120.099C38.8799 120.182 38.8297 120.293 38.6529 120.331C38.8738 119.737 39.043 119.204 39.5245 118.77C41.0148 117.43 42.2704 115.879 43.4026 114.228C43.9344 113.451 44.4174 112.647 44.7206 111.749C44.8456 111.376 44.9462 110.999 44.8624 110.599C44.7786 110.204 44.5622 109.981 44.1645 109.904C43.7287 109.821 43.3523 109.991 43.0049 110.217C42.531 110.524 42.1668 110.949 41.8483 111.412C41.059 112.559 40.3931 113.776 39.811 115.04C39.5489 115.608 39.2929 116.178 39.0338 116.747C38.7809 117.414 38.5264 118.081 38.278 118.75C38.1744 119.029 38.019 119.274 37.824 119.498C37.1078 120.317 36.3398 121.085 35.5169 121.794C34.787 122.423 34.0023 122.97 33.0682 123.267C31.5718 123.744 30.3071 123.113 29.8118 121.624C29.5604 120.867 29.5208 120.086 29.6595 119.304C30.0831 116.918 31.1025 114.787 32.5013 112.827C33.2389 111.793 34.0922 110.867 35.1985 110.208C35.5825 109.979 35.9954 109.828 36.4525 109.863C36.7482 109.886 37.0072 109.982 37.1489 110.273C37.2312 110.349 37.2708 110.45 37.3043 110.55C37.5268 111.225 37.4141 111.875 37.152 112.513C36.96 113.113 36.6491 113.631 36.1356 114.018C35.8583 114.228 35.7973 114.469 35.9131 114.738C36.0304 115.014 36.2758 115.136 36.6156 115.083C36.9188 115.035 37.1626 114.869 37.3744 114.662C38.3283 113.729 38.7428 112.564 38.787 111.255C38.8083 110.632 38.6544 110.049 38.2308 109.568C37.6426 108.899 36.8655 108.785 36.0365 108.828C35.3889 108.861 34.7946 109.077 34.2141 109.346C33.3425 109.885 32.5592 110.53 31.8827 111.3C30.368 113.02 29.3075 114.991 28.608 117.158C28.1616 118.543 27.93 119.955 28.2195 121.409C28.6218 123.438 30.1669 124.661 32.2271 124.562C33.088 124.52 33.8667 124.202 34.5844 123.738C35.4773 123.16 36.2484 122.439 36.9935 121.685C37.0682 121.609 37.1261 121.496 37.2586 121.49C37.2891 121.598 37.2419 121.677 37.216 121.759C37.1123 122.096 36.992 122.428 36.9082 122.769C36.8563 122.981 36.9112 123.189 37.1413 123.282C37.3561 123.371 37.5497 123.304 37.696 123.132C37.7904 123.02 37.8666 122.892 37.9459 122.771C38.8434 121.376 39.8628 120.075 41.0315 118.898C41.3454 118.581 41.6533 118.243 42.0662 118.039C42.1424 118.001 42.2308 117.944 42.3115 118.016C42.3816 118.078 42.3405 118.165 42.3191 118.237C42.2247 118.555 42.1317 118.875 42.022 119.189C41.7858 119.863 41.5176 120.526 41.3561 121.225C41.2708 121.59 41.2266 121.957 41.3454 122.326C41.5039 122.821 41.9915 123.077 42.4868 122.921C42.6742 122.862 42.8464 122.769 43.0079 122.655C43.3523 122.41 43.657 122.12 43.9298 121.797C43.9709 121.749 44.0075 121.666 44.0883 121.688C44.169 121.709 44.1629 121.796 44.1706 121.86C44.3016 122.847 45.2296 123.267 46.1439 122.761C46.7199 122.443 47.1755 121.991 47.6021 121.5C47.7271 121.357 47.8429 121.205 47.9999 121.013C48.0273 121.299 48.0395 121.52 48.07 121.74C48.1797 122.518 48.8471 122.859 49.545 122.498C49.7644 122.384 49.9534 122.228 50.1286 122.058C51.2897 120.929 52.1232 119.577 52.7922 118.116C53.0528 117.548 53.0421 117.544 53.6257 117.769C54.1331 117.964 54.223 118.139 54.0249 118.642C53.8177 119.17 53.5785 119.685 53.3606 120.209C53.1411 120.736 52.9583 121.269 52.9903 121.855C53.0299 122.57 53.5114 122.943 54.2078 122.766C54.6649 122.65 55.0474 122.394 55.3887 122.079C55.7194 121.773 56.0348 121.452 56.3167 121.1C56.3579 121.048 56.399 120.97 56.4752 120.986C56.5743 121.005 56.559 121.109 56.5651 121.181C56.5925 121.465 56.6459 121.741 56.751 122.009C57.0085 122.667 57.5251 123.007 58.2321 122.984C58.6893 122.969 59.0839 122.777 59.4603 122.541C60.0714 122.157 60.5818 121.659 61.0512 121.117C61.103 121.057 61.135 120.952 61.2797 120.989C61.2416 121.342 61.1883 121.701 61.295 122.056C61.4824 122.676 62.0706 122.953 62.6664 122.699C63.0611 122.53 63.3887 122.268 63.669 121.95C63.9281 121.656 64.1765 121.354 64.4309 121.056C64.469 121.012 64.501 120.952 64.5696 120.967C64.6275 120.98 64.629 121.039 64.6321 121.088C64.6656 121.628 64.8972 122.084 65.2386 122.49C65.4626 122.629 65.6759 122.783 65.9395 122.85C66.5536 123.004 67.1448 122.943 67.7132 122.672C68.8682 122.122 69.784 121.277 70.5993 120.313C70.6739 120.224 70.7242 120.115 70.7699 120.006C70.8354 119.851 70.8507 119.688 70.709 119.571ZM66.1391 118.803C66.485 118.13 66.8843 117.497 67.4511 116.983C67.5669 116.878 67.7041 116.801 67.8549 116.749C68.277 116.607 68.5269 116.787 68.5254 117.277C68.504 117.769 68.2389 118.171 67.8275 118.494C67.3902 118.838 66.8888 119.006 66.3357 119.024C66.1924 119.027 66.0233 119.029 66.1391 118.803ZM57.8512 118.045C57.9289 117.64 58.0325 117.242 58.1742 116.855C58.9224 114.828 59.7956 112.865 61.0999 111.12C61.3407 110.797 61.6043 110.494 61.9456 110.271C62.0538 110.201 62.1681 110.125 62.2992 110.195C62.4363 110.268 62.4058 110.413 62.4195 110.553C62.3372 111.137 62.1224 111.695 61.8832 112.241C61.0451 114.149 60.0241 115.951 58.6679 117.545C58.4775 117.769 58.2733 117.981 58.0325 118.153C57.9868 118.185 57.9365 118.241 57.8771 118.203C57.8192 118.17 57.839 118.101 57.8512 118.045ZM40.3108 116.141C40.9858 114.662 41.7569 113.238 42.6971 111.909C42.8845 111.645 43.1085 111.411 43.3706 111.219C43.4894 111.132 43.6281 111.044 43.7759 111.137C43.9389 111.24 43.9054 111.414 43.8612 111.563C43.6631 112.232 43.3721 112.864 43.0049 113.455C42.1622 114.812 41.1854 116.068 40.0853 117.227C40.0319 117.283 39.9725 117.335 39.9131 117.385C39.9009 117.396 39.878 117.396 39.7973 117.416C39.9359 116.95 40.1264 116.546 40.3108 116.141ZM48.3107 119.006C47.8795 119.764 47.4025 120.494 46.8281 121.153C46.5827 121.435 46.2947 121.671 45.9625 121.849C45.7584 121.957 45.5344 122.055 45.3271 121.904C45.1245 121.756 45.1366 121.508 45.1595 121.283C45.2174 120.74 45.4003 120.233 45.6365 119.747C46.054 118.889 46.5629 118.09 47.2517 117.419C47.4361 117.239 47.6387 117.087 47.8719 116.979C48.4174 116.726 48.8075 116.976 48.8166 117.629C48.7602 118.094 48.5637 118.561 48.3107 119.006Z" fill="white"/>
<path d="M63.8615 114.237C63.8783 113.852 64.0261 113.535 64.3751 113.345C64.7926 113.116 65.239 113.311 65.3579 113.774C65.4661 114.199 65.3381 114.568 65.0303 114.866C64.82 115.07 64.5549 115.165 64.2714 115.025C63.9545 114.865 63.8493 114.578 63.8615 114.237Z" fill="white"/>
</g>
<path d="M41.3711 126.213C45.1899 125.285 46.9747 125.87 50.7982 126.367C51.7141 126.487 53.3619 126.655 54.1864 126.836C55.8096 128.362 56.3008 129.735 54.5377 131.47L54.3906 131.614C54.8549 131.934 55.4956 131.882 56.0938 131.911C58.9237 133.674 58.0439 136.513 54.9508 136.991C54.8429 137.007 54.735 137.021 54.6269 137.034L54.575 137.623C56.9384 138.823 56.6563 141.543 54.4206 142.149C54.1472 142.225 53.8682 142.279 53.5863 142.31L53.3213 142.904C54.0351 143.861 54.0016 144.167 53.8998 145.318C52.1584 148.477 46.4467 146.695 43.7581 147.414C38.2496 148.888 36.6919 149.127 31.4227 146.855C30.1161 143.334 29.7141 138.327 30.7618 134.65C31.0653 133.584 31.6505 132.996 32.6491 132.542C33.8698 131.988 34.6929 130.789 35.7004 129.826C37.6581 127.954 38.9581 127.216 41.3711 126.213Z" fill="#FEBC8A"/>
<path d="M54.5748 137.623C53.3253 137.994 42.9096 138.148 42.2288 137.436L42.4474 137.104C43.1463 136.754 53.4242 136.89 54.6267 137.033L54.5748 137.623Z" fill="#F59C5F"/>
<path d="M56.0937 131.911C54.0281 132.074 42.6634 132.846 42.0416 131.628L42.2921 131.376C43.4422 131.143 53.5763 131.166 54.3905 131.614C54.8548 131.934 55.4955 131.882 56.0937 131.911Z" fill="#F59C5F"/>
<path d="M53.321 142.904C51.8553 143.18 43.6984 143.424 42.469 142.71L42.4938 142.488C43.5952 141.968 52.5181 141.87 53.5861 142.31L53.321 142.904Z" fill="#F59C5F"/>
<path d="M57.9392 79.4204C58.253 80.1699 58.18 81.4335 58.1741 82.2926C58.2173 84.034 58.4694 86.88 57.6857 88.4099C57.4855 88.5562 57.2377 88.7264 57.0486 88.8782C56.0545 89.3244 54.8742 89.8508 53.8447 90.1933C48.3195 92.0181 42.2931 91.545 37.12 88.8806C36.7725 88.5683 36.5908 88.4481 36.1998 88.188C35.5405 86.4626 35.6751 85.3675 35.6873 83.526C35.643 82.4512 35.777 80.5606 35.8292 79.4273C43.9474 82.5664 49.5274 83.1124 57.7183 79.5191C57.7922 79.4867 57.8658 79.4537 57.9392 79.4204Z" fill="#FEBC8A"/>
<path d="M57.9392 79.4204C58.253 80.1699 58.18 81.4335 58.1741 82.2926C53.4132 86.4466 44.7143 86.0122 39.0635 84.0307C37.9986 83.6572 36.6351 82.4257 35.909 82.3731C35.6866 82.7642 35.714 83.0744 35.6873 83.526C35.6429 82.4512 35.777 80.5606 35.8292 79.4273C43.9474 82.5664 49.5274 83.1124 57.7183 79.5191C57.7922 79.4867 57.8658 79.4537 57.9392 79.4204Z" fill="#F59C5F"/>
<path d="M40.3593 120.573C43.0445 120.323 48.8053 120.495 51.6978 120.489C54.5737 120.482 60.2267 120.302 62.9244 120.503C62.3073 120.614 61.8975 120.555 61.5947 120.944C60.5586 128.361 60.2132 136.079 59.1543 143.514C58.8696 145.514 57.6246 145.33 55.9429 145.425C55.4861 145.443 54.3124 145.416 53.8995 145.318C54.0013 144.167 54.0348 143.861 53.3209 142.904L53.586 142.31C53.8679 142.278 54.1469 142.224 54.4203 142.149C56.656 141.542 56.9381 138.823 54.5747 137.623L54.6266 137.033C54.7347 137.021 54.8426 137.006 54.9505 136.99C58.0436 136.513 58.9234 133.674 56.0935 131.911C55.4953 131.882 54.8546 131.933 54.3903 131.613L54.5374 131.47C56.3005 129.735 55.8093 128.361 54.1861 126.836C53.3615 126.655 51.7138 126.486 50.7979 126.367C46.9744 125.87 45.1896 125.284 41.3708 126.213C41.0792 124.429 41.0195 122.607 40.689 120.787L40.3593 120.573Z" fill="#A2612B"/>
<path d="M41.1267 114.25C42.7858 113.356 55.1686 114.16 57.9244 113.91C61.369 113.596 61.0154 114.208 61.6787 116.441L61.8371 116.532C63.3357 117.399 62.9594 118.949 62.9244 120.504C60.2267 120.302 54.5738 120.483 51.6978 120.489C48.8053 120.496 43.0445 120.324 40.3593 120.574C40.0465 120.505 39.8201 120.388 39.5293 120.259C39.5531 119.4 39.4611 117.897 39.8086 117.22C41.1562 116.309 40.7726 115.699 41.1267 114.25Z" fill="#5A2602"/>
<path d="M40.8326 116.682C43.9468 116.375 49.0589 116.69 52.3045 116.571C53.7306 116.519 60.2355 116.518 61.3837 116.719C60.2265 117.119 42.0469 117.058 40.8326 116.682Z" fill="#2C0D00"/>
<path d="M37.1199 88.8808C42.2929 91.5452 48.3194 92.0183 53.8446 90.1935C54.8741 89.851 56.0544 89.3246 57.0485 88.8784C55.4017 90.8552 53.2004 92.4618 51.3178 94.2207C49.8427 95.5989 48.4744 97.1156 47.1077 98.6023C45.5383 96.863 44.0325 95.2167 42.3305 93.6032C40.6818 92.0402 38.6736 90.4898 37.1199 88.8808Z" fill="white"/>
<path d="M57.9393 79.4205C58.7353 79.011 59.6201 78.4586 60.4005 77.9976C68.95 80.5536 62.0784 86.2909 57.6858 88.41C58.4695 86.8801 58.2174 84.0341 58.1742 82.2927C58.1801 81.4337 58.253 80.17 57.9393 79.4205Z" fill="#C8A663"/>
<path d="M33.1724 77.9277C33.9514 78.4084 35.0017 79.1095 35.8291 79.427C35.7769 80.5603 35.6428 82.4509 35.6872 83.5257C35.6749 85.3672 35.5403 86.4623 36.1997 88.1877C34.4861 87.5583 30.4277 84.3559 29.6336 82.6723C28.2977 79.8408 31.0932 78.8179 33.1724 77.9277Z" fill="#C8A663"/>
<path d="M19.5724 89.7651C20.4626 90.021 21.5714 90.8385 22.408 91.3121C25.1375 92.8566 28.1235 94.0695 31.108 95.0208C33.5232 95.7651 35.97 96.402 38.4415 96.9299C40.6766 97.4041 44.9266 97.9928 46.7658 98.9468C45.3267 99.0308 42.3236 99.2992 41.1336 98.506C41.1119 98.4234 40.9586 98.1741 40.9091 98.0873C40.2417 97.8972 39.932 97.9999 39.264 98.1224C35.8824 98.3793 20.1413 93.6729 19.5724 89.7651Z" fill="#C8A663"/>
<path d="M75.6388 118.571C75.8676 118.656 76.0791 118.69 76.2413 118.883C77.0184 119.805 77.5642 160.128 77.1758 164.724C76.9915 166.905 76.5703 168.397 74.8787 169.816C74.6674 171.874 74.9104 177.081 74.4968 178.495L74.196 178.486C73.5629 177.171 74.743 174.595 74.3389 173.164C74.2598 172.884 74.2095 172.569 74.138 172.277C73.2782 171.304 72.3304 171.72 71.2205 172.076C69.667 172.574 68.3481 172.817 66.74 173.039C53.5878 174.728 40.2716 174.693 27.1286 172.933C23.8466 172.346 21.1728 172.101 18.7231 169.729C31.6107 173.327 50.4017 173.208 63.7373 172.049C66.8538 171.695 71.186 171.285 73.9689 169.783C76.1926 168.582 75.6953 162.185 75.7035 159.912C75.713 157.332 75.6554 154.668 75.6294 152.098C75.5149 143.617 75.4663 135.136 75.4838 126.655C75.4757 125.088 75.2814 119.687 75.6388 118.571Z" fill="#C8A663"/>
<path d="M53.0329 98.1008C52.6171 98.7276 52.4141 98.7125 51.6203 98.8338C50.5259 99.0012 47.047 99.3498 46.192 98.6907L46.2317 98.6131C48.7837 99.0614 48.2212 98.2271 50.1715 97.8763C58.2062 96.4312 66.4929 94.4048 73.4199 89.9244C73.7149 89.7334 73.8889 89.7693 74.2076 89.8526C74.9441 93.2394 57.7161 97.9847 54.7627 98.0602C53.9497 97.9686 53.8407 97.971 53.0329 98.1008Z" fill="#C8A663"/>
<rect x="18.8997" y="105.52" width="1.41637" height="30.688" rx="0.708186" fill="#C8A663"/>
<path d="M30.1865 133.454C30.5784 133.41 30.9315 133.692 30.9754 134.084C31.0187 134.471 30.7433 134.822 30.3567 134.871L19.8535 136.218C19.3993 136.276 18.9891 135.942 18.955 135.485C18.923 135.056 19.2358 134.679 19.6631 134.631L30.1865 133.454Z" fill="#C8A663"/>
<path d="M43.7895 5.827C48.5091 1.91144 48.0483 2.27055 51.6975 7.59776C52.9739 10.3255 57.5612 2.03439 55.3212 4.18019C59.8262 5.74245 64.5708 7.59979 64.966 13.0566C71.2636 17.6305 72.0072 25.5995 72.104 32.797C72.1135 33.4651 71.7405 35.9572 71.8703 36.3663C72.5124 36.9033 72.5761 36.9106 72.6162 37.7964C74.1554 37.9347 74.932 37.8556 75.9754 39.1136C77.6349 41.1149 77.8261 44.5232 77.583 46.9846C77.3044 49.8218 76.1737 53.2667 73.9099 55.158C72.9845 55.9318 72.5053 55.924 71.3699 56.1169C70.5861 64.3899 68.8204 71.5031 62.0792 77.0305C61.8124 77.2489 61.5414 77.4621 61.2666 77.6705L59.3012 78.9313L57.7309 79.8085C57.107 80.0819 56.4753 80.3375 55.837 80.5752C48.7539 83.1995 42.271 82.8728 35.4391 79.7431L34.3723 79.1988C33.7017 78.8397 33.0877 78.4011 32.4565 77.9748C24.7887 72.161 22.7904 65.282 21.9335 56.0453C15.9265 54.895 14.5894 45.6312 16.2208 40.8198C17.0183 38.4675 18.1613 38.2312 20.3673 37.7121C20.5502 37.6689 20.579 37.0145 20.6085 36.8245L21.3361 36.3542C21.4319 35.9246 21.1555 32.3742 21.1685 31.6009C21.2001 29.2712 21.3894 26.7708 21.8641 24.4907C22.718 20.3908 24.3456 15.5317 28.0853 13.2348C28.6821 12.8682 28.5888 12.257 28.6769 11.5937C28.9335 7.38709 34.7852 5.38458 38.0636 4.14903C35.4101 1.16002 41.1038 8.59341 43.7895 5.827Z" fill="#803C07"/>
<path d="M44.2896 7.47909C49.0092 3.56353 48.2843 1.5618 51.9336 6.889C53.21 9.6167 57.5612 2.03402 55.3213 4.17982C59.8263 5.74208 64.5709 7.59941 64.966 13.0562C71.2637 17.6302 72.0073 25.5991 72.1041 32.7967C72.1135 33.4647 71.7405 35.9568 71.8704 36.3659C71.4879 36.4426 70.6948 36.4573 70.277 36.4773C66.0965 36.5229 61.8857 35.8987 57.7119 36.1275C53.9261 36.335 51.5051 36.1929 48.7963 39.1054C47.5123 39.2053 45.7225 39.176 44.3951 39.1866L44.2896 39.078C43.8012 38.578 42.9379 37.6465 42.3419 37.393C36.9207 35.0883 28.7313 36.5295 23.0247 36.4601C22.2735 36.4891 22.0573 36.4615 21.3361 36.3539C21.432 35.9242 21.1556 32.3739 21.1685 31.6005C21.2002 29.2708 21.3895 26.7705 21.8642 24.4903C22.7181 20.3904 24.3457 15.5313 28.0854 13.2344C28.6822 12.8678 28.5889 12.2567 28.677 11.5933C28.9336 7.38672 34.7853 5.38421 38.0637 4.14866C35.4101 1.15965 41.6039 10.2455 44.2896 7.47909Z" fill="#FEBC8A"/>
<path d="M45.914 8.30558C50.6336 4.39002 47.5761 3.56844 51.2254 8.89565C52.5018 11.6233 57.5612 2.03409 55.3212 4.1799C59.8262 5.74215 64.5708 7.59949 64.966 13.0563C64.6005 15.4023 64.1671 16.3026 62.4637 18.011C59.7787 20.3357 57.4254 21.8154 53.9596 22.782C46.0602 24.9852 37.1633 23.6019 31.1017 17.8783C28.9649 15.6239 28.7236 14.5588 28.6769 11.5934C28.9335 7.3868 34.7852 5.38429 38.0636 4.14874C35.4101 1.15972 43.2283 11.072 45.914 8.30558Z" fill="#FEBC8A"/>
<path d="M42.6092 9.13152C47.3288 5.21596 46.2779 6.16486 49.9272 11.4921C51.2035 14.2198 57.5609 2.03398 55.3209 4.17978C50.7553 2.80236 42.5158 2.68008 38.0634 4.14862C35.4098 1.15961 39.9236 11.8979 42.6092 9.13152Z" fill="#803C07"/>
<path d="M21.3361 36.3538C21.432 35.9242 21.1556 32.3738 21.1685 31.6005C21.2002 29.2708 21.3895 26.7704 21.8642 24.4903C22.7181 20.3903 24.3457 15.5312 28.0854 13.2344C28.6822 12.8678 28.5889 12.2566 28.677 11.5933C28.7237 14.5587 28.9649 15.6238 31.1018 17.8782C25.7115 22.9011 23.2782 28.7427 23.0318 36.1463C23.0282 36.2509 23.0259 36.3554 23.0247 36.46C22.2735 36.4891 22.0573 36.4614 21.3361 36.3538Z" fill="#A06A48"/>
<path d="M64.966 13.0562C71.2637 17.6301 72.0073 25.5991 72.104 32.7966C72.1135 33.4646 71.7405 35.9567 71.8703 36.3658C71.4879 36.4426 70.6947 36.4572 70.2769 36.4773C70.055 28.7576 68.261 23.4056 62.4637 18.0109C64.1672 16.3025 64.6006 15.4021 64.966 13.0562Z" fill="#A06A48"/>
<path d="M54.2022 28.5239C57.4091 28.374 64.1505 29.6391 65.8322 33.5761C65.937 33.8212 65.7711 34.0162 65.6304 34.2019C64.9737 34.5312 64.8386 34.6214 64.0847 34.6405C60.633 33.5539 57.9029 33.0856 54.2907 32.7846C51.8578 32.5818 51.1492 29.5721 54.2022 28.5239Z" fill="#4E2606"/>
<path d="M37.0778 28.5677C40.3496 28.4685 42.8063 30.6691 39.8421 32.4627C38.8589 33.0576 33.2062 33.4754 31.0821 34.0731C30.7884 34.1704 30.4931 34.2617 30.1959 34.3472C29.259 34.612 27.8582 34.8661 27.5699 33.664C28.2947 30.3372 34.1674 28.7889 37.0778 28.5677Z" fill="#4E2606"/>
<path d="M48.7961 39.1056C51.5049 36.1931 53.9259 36.3352 57.7117 36.1277C61.8855 35.899 66.0963 36.5231 70.2768 36.4776C70.6946 36.4575 71.4878 36.4429 71.8702 36.3661C72.5123 36.9032 72.576 36.9105 72.6161 37.7962C74.1552 37.9345 74.9319 37.8554 75.9753 39.1134C77.6348 41.1148 77.826 44.523 77.5829 46.9844C77.3043 49.8217 76.1736 53.2665 73.9098 55.1578C72.9844 55.9317 72.5052 55.9239 71.3697 56.1167L71.3721 52.4285C71.3863 50.8202 71.3674 45.6877 70.7418 44.4225C69.46 50.4722 68.7376 54.2341 64.1196 58.7906C60.1712 55.8445 57.2542 55.2036 52.5034 54.6616C52.1619 54.6581 51.2457 54.6158 51.0295 54.8434C49.1367 56.882 45.8991 57.7451 43.5317 56.0185C42.1748 55.0289 42.5855 54.7402 40.8675 54.6694C41.3405 54.5974 41.6434 54.5252 42.1063 54.4024C42.286 52.9504 42.2251 51.3721 42.4045 49.8051C40.5424 52.2987 38.2519 53.3454 35.1914 53.6537C24.3764 54.7428 23.7154 49.3014 22.876 40.5973C20.9441 39.2702 20.6863 39.1675 20.6084 36.8243L21.3359 36.3541C22.0571 36.4617 22.2734 36.4894 23.0245 36.4603C28.7311 36.5297 36.9205 35.0886 42.3417 37.3932C42.9377 37.6468 43.801 38.5783 44.2894 39.0782L44.3949 39.1868C45.7223 39.1762 47.5121 39.2055 48.7961 39.1056Z" fill="#841D13"/>
<path d="M70.3501 40.5099C71.8066 39.5527 71.986 39.4068 72.6162 37.7964C74.1554 37.9347 74.932 37.8556 75.9754 39.1136C77.6349 41.1149 77.8261 44.5232 77.583 46.9846C77.3044 49.8219 76.1737 53.2667 73.9099 55.158C72.9845 55.9318 72.5053 55.9241 71.3698 56.1169L71.3722 52.4287C71.3864 50.8204 71.3675 45.6879 70.7419 44.4226C69.4601 50.4724 68.7378 54.2343 64.1197 58.7908C60.1713 55.8447 57.2543 55.2038 52.5036 54.6618C51.9273 54.5646 51.2215 54.6241 50.722 54.3701C50.7487 52.8493 50.8155 52.3701 50.552 50.805C50.4 49.9028 49.9668 48.3932 50.0051 47.6118C51.4573 50.9167 53.9726 53.0488 57.5513 53.4886C69.6891 54.98 68.988 49.0891 70.3501 40.5099Z" fill="#FEBC8A"/>
<path d="M70.7421 44.4225C71.1859 43.3756 71.5329 42.2529 72.6849 41.8171C74.1295 41.2706 74.7362 43.0411 74.8637 44.1204C75.1564 46.6238 74.2192 49.1445 72.7368 51.1295C72.2198 51.8278 71.6816 52.0773 71.3723 52.4286C71.3865 50.8203 71.3676 45.6878 70.7421 44.4225Z" fill="#F59C5F"/>
<path d="M42.4043 49.8053C42.5613 49.3202 43.1236 48.3509 43.3519 47.6642C43.9406 45.8924 44.3034 44.2012 44.7028 42.3894C45.3442 41.6475 46.907 41.2214 47.6966 41.7516C49.172 42.7424 49.4229 45.84 50.0048 47.6118C49.9665 48.3932 50.3997 49.9028 50.5517 50.805C50.8152 52.3701 50.7484 52.8493 50.7217 54.37C51.2212 54.6241 51.927 54.5646 52.5033 54.6618C52.1617 54.6583 51.2455 54.616 51.0293 54.8436C49.1366 56.8822 45.899 57.7453 43.5315 56.0187C42.1746 55.0291 42.5854 54.7404 40.8673 54.6696C41.3404 54.5976 41.6432 54.5254 42.1062 54.4026C42.2858 52.9506 42.2249 51.3723 42.4043 49.8053Z" fill="#F59C5F"/>
<path d="M28.269 37.752C31.6291 37.4645 35.7911 37.6503 39.1463 37.9784C43.4275 38.397 43.5066 41.6728 42.6877 45.0789C42.0368 47.7868 41.0492 49.6658 38.6217 51.1712C35.7128 52.3921 30.9167 52.8579 27.8455 51.129C24.8239 49.4281 23.8223 42.0798 25.161 39.0558C25.5562 38.1633 27.3085 37.9074 28.269 37.752Z" fill="#FEBC8A"/>
<path d="M34.8571 40.5683C39.3005 40.45 39.418 45.9526 36.0039 47.8989C32.4594 48.195 31.1724 42.492 34.8571 40.5683Z" fill="#0D0D0C"/>
<path d="M36.1534 44.7695C36.5018 44.6708 36.8765 44.7699 37.1305 45.028C37.3847 45.286 37.4779 45.662 37.3741 46.009C37.2702 46.356 36.9853 46.6188 36.6312 46.6946C36.1078 46.8067 35.5897 46.483 35.4608 45.9632C35.3319 45.4437 35.6383 44.9154 36.1534 44.7695Z" fill="white"/>
<path d="M55.5334 37.7703C58.0047 37.4724 64.9218 37.4363 67.1113 38.3985C69.7339 39.5505 68.3978 47.3068 67.175 49.2684C66.1257 50.9532 65.4282 51.3146 63.5269 51.8066L63.4252 51.829C56.4864 53.2978 50.9689 50.4809 50.3681 42.9734C50.0039 38.4207 51.5364 38.2864 55.5334 37.7703Z" fill="#FEBC8A"/>
<path d="M57.2203 40.5186C61.3115 41.0487 61.4363 46.0462 58.0524 47.9361C54.4928 47.8964 53.6463 42.3742 57.2203 40.5186Z" fill="#0D0D0C"/>
<path d="M57.9136 44.9431C58.203 44.7254 58.5871 44.6813 58.9183 44.8271C59.2495 44.9733 59.4759 45.2868 59.5104 45.6472C59.5448 46.0075 59.3819 46.3582 59.0845 46.5646C58.6369 46.875 58.0232 46.7699 57.704 46.3283C57.3851 45.8863 57.4783 45.2705 57.9136 44.9431Z" fill="white"/>
<path d="M21.9335 56.0451C15.9265 54.8948 14.5894 45.631 16.2208 40.8196C17.0183 38.4672 18.1613 38.2309 20.3673 37.7118C20.5502 37.6686 20.579 37.0142 20.6085 36.8242C20.6864 39.1674 20.9442 39.2701 22.8761 40.5972C23.7156 49.3013 24.3765 54.7427 35.1915 53.6535C38.252 53.3452 40.5425 52.2986 42.4046 49.805C42.2252 51.372 42.2861 52.9503 42.1064 54.4023C41.6435 54.5251 41.3407 54.5973 40.8676 54.6693C36.4433 54.9899 32.646 55.9632 29.124 58.8122C24.0057 54.5926 23.8898 49.6171 22.4694 44.2101C21.9949 46.4721 21.8325 50.1605 21.8148 52.5039C21.854 53.4973 21.968 55.0973 21.9335 56.0451Z" fill="#FEBC8A"/>
<path d="M21.8149 52.5037C14.9526 46.3521 19.8622 37.3397 22.4695 44.2099C21.995 46.4718 21.8326 50.1603 21.8149 52.5037Z" fill="#F59C5F"/>
<path d="M35.9401 61.1396C40.212 61.7692 43.4618 62.5342 47.9843 62.3121C49.1465 62.2551 49.8987 62.2189 51.0815 62.0938C52.693 61.9232 55.9987 61.1208 57.3943 61.3233C58.7838 62.2269 56.5308 64.0189 55.566 64.7339C53.5722 65.8882 51.9958 66.4394 49.1614 66.8649C44.2575 67.6013 36.861 66.0177 35.4898 62.3484C35.2877 61.8076 35.4765 61.5694 35.9401 61.1396Z" fill="white"/>
<path d="M21.3638 36.3535L23.3703 36.4716C23.6217 35.3812 25.9822 25.1927 28.5637 20.7734C30.733 21.9782 32.9041 22.3963 35.3791 22.5904C38.0714 22.9375 40.7893 23.0441 43.5006 22.9088C49.0971 22.6161 54.6149 21.4639 59.8596 19.493C61.0488 19.0492 65.1772 17.158 65.2933 17.5632C55.5928 15.108 69.9822 28.1024 69.6384 36.4716H71.881C74.0951 27.1892 72.8153 27.357 72.4479 24.3368C72.213 21.4693 71.2479 18.7092 69.6441 16.3185C71.8291 15.2089 74.9811 12.7001 74.8264 9.91154C74.8264 9.8247 74.8264 9.85364 74.8264 9.91154C74.7394 9.00453 73.1537 10.1914 72.7476 10.4036C72.9023 9.88259 73.2117 8.33875 72.2062 8.70541C72.2062 8.42559 72.2739 7.66332 71.9065 7.53788C71.5391 7.41244 71.0073 7.96243 70.7656 8.13612C70.3026 8.477 69.8109 8.77725 69.296 9.03348C68.7739 8.7826 68.2421 8.52208 67.7104 8.30015C66.6469 7.85629 65.5737 7.44139 64.4811 7.07473C63.3685 6.62643 62.3057 6.06375 61.3099 5.39579C56.9687 2.8002 52.2699 0.484439 47.1456 0.0791798C41.8846 -0.355042 36.6317 1.00572 32.2465 3.93879C30.3002 5.22015 28.6141 6.85705 27.2769 8.76331C26.5808 9.79575 24.3764 13.7904 26.7935 14.1957C19.0684 19.7342 21.1898 35.3404 21.3638 36.3535Z" fill="#663B13"/>
<defs>
<clipPath id="clip0_1305_48992">
<rect width="42.7272" height="27.3832" fill="white" transform="translate(28.0913 108.824)"/>
</clipPath>
</defs>
</svg>
