<svg width="34" height="34" viewBox="0 0 34 34" fill="none" xmlns="http://www.w3.org/2000/svg">
<path d="M26.6173 3H7.38146C6.81461 3 6.27097 3.22518 5.87015 3.62601C5.46932 4.02683 5.24414 4.57047 5.24414 5.13732V28.6478C5.24414 29.2147 5.46932 29.7583 5.87015 30.1592C6.27097 30.56 6.81461 30.7852 7.38146 30.7852H26.6173C27.1842 30.7852 27.7278 30.56 28.1287 30.1592C28.5295 29.7583 28.7547 29.2147 28.7547 28.6478V5.13732C28.7547 4.57047 28.5295 4.02683 28.1287 3.62601C27.7278 3.22518 27.1842 3 26.6173 3Z" stroke="black" stroke-width="2" stroke-linecap="round" stroke-linejoin="round"/>
<path d="M23.3237 21.1654H21.5262C19.9553 21.1654 18.4058 20.7999 16.9994 20.0968C15.5948 19.3913 14.0443 19.0253 12.4726 19.0281H10.6772M5.24414 9.41016H28.7547M23.4114 20.0968C23.4114 20.9388 23.2455 21.7726 22.9233 22.5505C22.601 23.3284 22.1287 24.0353 21.5333 24.6307C20.9379 25.2261 20.2311 25.6984 19.4532 26.0206C18.6752 26.3429 17.8414 26.5087 16.9994 26.5087C16.1574 26.5087 15.3236 26.3429 14.5456 26.0206C13.7677 25.6984 13.0609 25.2261 12.4655 24.6307C11.8701 24.0353 11.3978 23.3284 11.0755 22.5505C10.7533 21.7726 10.5874 20.9388 10.5874 20.0968C10.5874 18.3962 11.263 16.7653 12.4655 15.5628C13.6679 14.3603 15.2988 13.6848 16.9994 13.6848C18.7 13.6848 20.3309 14.3603 21.5333 15.5628C22.7358 16.7653 23.4114 18.3962 23.4114 20.0968Z" stroke="black" stroke-width="2" stroke-linecap="round" stroke-linejoin="round"/>
</svg>
