<svg width="135" height="16" viewBox="0 0 135 16" fill="none" xmlns="http://www.w3.org/2000/svg">
<path d="M60.2565 1.86724C74.8249 0.429632 89.2711 -0.541768 103.715 0.331013C111.334 0.791578 118.551 1.52569 125.291 4.12883L125.875 4.36188C128.763 5.5513 131.237 7.14035 133.168 9.33325C134.794 11.1859 135.354 12.985 134.782 14.9914L134.78 15.001C134.611 15.602 134.432 15.8585 134.352 15.9415C134.336 15.9571 134.328 15.9636 134.326 15.9649C134.326 15.9649 134.324 15.966 134.322 15.967C134.318 15.9684 134.304 15.9748 134.273 15.9815C134.243 15.9882 134.19 15.9959 134.112 15.9994C134.06 16.0008 134.021 15.9995 133.992 15.9974C133.973 15.9712 133.946 15.9325 133.914 15.8767C133.836 15.7421 133.745 15.5418 133.648 15.2534L133.646 15.2492L133.538 14.9431C131.212 8.57592 125.332 6.62536 120.732 5.41132C114.171 3.67373 107.45 3.36843 101.036 3.21247L98.3073 3.15111C78.7399 2.71734 59.4364 5.25495 40.3942 7.71428C31.788 8.82522 23.4691 9.69922 15.1477 8.8961L15.1405 8.89541L14.2158 8.80025C13.3404 8.70253 12.4645 8.58753 11.5076 8.47205C7.8871 7.70502 4.78455 6.62267 2.26532 4.58942L2.26101 4.58597L2.25743 4.58253L2.0517 4.4136C1.04768 3.56721 0.398995 2.68872 0.0975807 1.70796L0.0947134 1.699C-0.0363683 1.27714 -0.00598558 1.02414 0.0359322 0.884689C0.07557 0.753043 0.176089 0.550103 0.493278 0.298606C0.686828 0.145158 0.796614 0.115043 0.820876 0.11037C0.813124 0.110874 0.815169 0.108648 0.837363 0.114507C0.863265 0.121379 0.935661 0.145065 1.05313 0.218623L1.05457 0.219312C8.02164 4.57942 15.7732 5.26521 23.0609 5.22653L23.0617 5.22722L23.0624 5.22653C35.6433 5.16493 48.2571 3.04991 60.2565 1.86724Z" fill="#D3C393"/>
</svg>
