<svg width="854" height="521" viewBox="0 0 854 521" fill="none" xmlns="http://www.w3.org/2000/svg">
<path d="M6.10352e-05 502.37H1024V521.088H6.10352e-05V502.37Z" fill="#76665B"/>
<path d="M416.857 426.611V423.52H419.135V414.9H416.614V411.565H479.476V409.287H482.974V407.172H490.851C490.797 407.049 490.737 406.944 490.666 406.895C490.21 406.585 489.299 403.887 488.459 403.23C487.619 402.574 486.507 401.899 486.344 401.772C486.179 401.645 486.288 404.454 486.288 404.454L486.853 405.33C486.853 405.33 486.38 406.661 485.85 406.679C485.321 406.696 485.12 406.04 485.285 405.129C485.448 404.217 484.921 401.899 484.993 400.787C485.066 399.675 486.105 400.003 486.105 400.003C486.105 400.003 485.96 399.71 485.649 398.58C485.339 397.45 486.592 395.675 486.592 395.675C486.592 395.675 486.677 394.944 486.822 393.973C486.967 392.999 486.534 392.215 486.534 392.215C486.534 392.215 486.579 393.073 486.288 393.245C485.996 393.419 485.741 393.1 485.741 393.1C485.741 393.1 485.176 393.227 485.129 392.981C485.084 392.736 484.49 392.079 484.591 391.932C484.691 391.786 484.828 390.945 484.816 390.444C484.805 389.946 484.452 389.629 484.414 389.361C484.379 389.093 484.859 388.711 484.859 388.711C484.834 388.675 484.816 388.079 484.816 388.079C484.336 387.86 484.262 387.235 484.262 387.235L485.12 387.271L485.522 387.087L485.649 386.54C485.649 386.54 485.886 386.851 486.398 387.014C486.909 387.179 488.028 388.012 488.928 389.033C489.828 390.053 490.241 393.265 490.436 393.774C490.63 394.286 491.213 395.331 491.724 396.133C492.236 396.934 493.207 397.616 494.739 398.784C496.271 399.952 495.784 403.355 495.128 404.789C494.471 406.223 495.054 406.953 495.054 406.953L495.07 407.17H499.809C499.831 406.658 499.84 405.98 499.778 405.245C499.65 403.731 499.195 402.216 498.976 401.252C498.757 400.284 498.739 397.951 498.703 397.001C498.668 396.052 500.271 394.319 500.363 393.464C500.454 392.608 500.874 390.509 500.892 389.616C500.91 388.722 500.946 387.938 500.966 387.554C500.984 387.17 501.404 386.971 501.294 386.715C501.185 386.46 500.93 386.478 500.948 386.221C500.966 385.966 501.368 385.29 501.368 385.29L501.879 385.964C501.879 385.964 502.433 385.441 502.98 386C502.98 386 503.369 385.477 503.612 385.526C503.612 385.526 503.711 385.989 503.648 386.342C503.588 386.694 503.112 386.719 503.539 387.119C503.965 387.521 504.11 388.019 504.075 388.224C504.039 388.43 503.867 388.807 503.93 389.453C503.99 390.096 503.157 390.614 503.668 392.456C503.854 393.129 503.988 393.642 504.081 394.024V394.087C504.262 393.095 504.51 391.923 504.713 391.677C505.078 391.239 505.395 391.166 506.172 391.288C506.949 391.409 506.634 392.7 506.634 392.7C506.634 392.7 507.534 392.311 508.142 391.849C508.749 391.387 507.364 389.466 507.364 389.127C507.364 388.787 507.876 388.128 508.314 387.958C508.751 387.789 509.772 387.983 509.772 387.983V387.157H510.038V385.377C508.579 385.165 507.456 383.921 507.456 382.404C507.456 380.888 508.579 379.644 510.038 379.431V377.325C509.893 377.399 509.716 377.413 509.716 377.413C509.716 377.413 509.948 377.026 509.625 376.91C509.301 376.796 509.118 377.457 509.118 377.457C508.789 377.06 509.41 376.403 509.41 376.403C509.41 376.403 508.399 376.439 508.07 376.385C507.742 376.332 508.005 375.327 508.005 375.327C507.239 375.581 506.464 374.167 506.464 374.167C505.953 374.031 506.091 373.712 506.091 373.712C505.681 373.567 505.672 373.037 505.672 373.037C505.234 372.792 505.399 372.336 505.399 372.336C505.035 372.081 505.189 371.653 505.189 371.653C504.935 371.407 505.015 370.733 505.145 370.878C505.272 371.023 508.564 372.912 508.564 372.912C508.564 372.912 509.312 373.35 508.984 373.806C508.655 374.261 509.803 374.489 509.803 374.489C509.803 374.489 509.886 373.459 509.85 373.22C509.819 373.017 510.301 372.664 510.44 372.638V372.631C510.44 372.631 510.451 372.633 510.46 372.635C510.469 372.633 510.48 372.631 510.48 372.631V372.638C510.619 372.664 511.101 373.017 511.07 373.22C511.034 373.457 511.114 374.489 511.114 374.489C511.114 374.489 512.264 374.261 511.936 373.806C511.608 373.35 512.356 372.912 512.356 372.912C512.356 372.912 515.648 371.025 515.775 370.878C515.903 370.733 515.985 371.407 515.728 371.653C515.728 371.653 515.885 372.081 515.519 372.336C515.519 372.336 515.682 372.792 515.244 373.037C515.244 373.037 515.235 373.567 514.824 373.712C514.824 373.712 514.96 374.031 514.451 374.167C514.451 374.167 513.676 375.581 512.91 375.327C512.91 375.327 513.173 376.329 512.845 376.385C512.517 376.441 511.505 376.403 511.505 376.403C511.505 376.403 512.126 377.06 511.798 377.457C511.798 377.457 511.615 376.796 511.291 376.91C510.967 377.024 511.199 377.413 511.199 377.413C511.199 377.413 511.023 377.399 510.878 377.325V379.429C512.349 379.628 513.488 380.876 513.488 382.404C513.488 383.932 512.349 385.18 510.878 385.379V387.206C511.657 387.572 512.917 389.788 513.258 390.129C513.622 390.493 513.441 391.279 513.441 391.279C514.974 391.371 514.864 394.909 514.864 394.909C514.864 394.909 514.974 394.252 515.485 392.41C515.996 390.567 515.163 390.051 515.224 389.406C515.284 388.76 515.114 388.385 515.079 388.177C515.043 387.97 515.188 387.472 515.615 387.072C516.041 386.67 515.565 386.645 515.505 386.295C515.445 385.942 515.541 385.479 515.541 385.479C515.784 385.43 516.173 385.953 516.173 385.953C516.72 385.392 517.274 385.917 517.274 385.917L517.785 385.243C517.785 385.243 518.187 385.917 518.205 386.172C518.223 386.426 517.969 386.409 517.859 386.665C517.75 386.92 518.17 387.121 518.187 387.505C518.205 387.889 518.243 388.673 518.261 389.567C518.279 390.46 518.699 392.557 518.79 393.415C518.882 394.272 520.486 396.005 520.45 396.952C520.414 397.901 520.394 400.235 520.177 401.202C519.958 402.169 519.503 403.684 519.376 405.196C519.311 405.951 519.32 406.654 519.347 407.168H522.996L523.011 406.951C523.011 406.951 523.594 406.221 522.938 404.787C522.281 403.353 521.794 399.947 523.326 398.781C524.858 397.613 525.832 396.932 526.341 396.13C526.853 395.329 527.436 394.281 527.63 393.772C527.824 393.261 528.238 390.051 529.138 389.031C530.038 388.01 531.157 387.177 531.666 387.012C532.177 386.848 532.414 386.538 532.414 386.538L532.541 387.085L532.943 387.268L533.801 387.233C533.801 387.233 533.727 387.858 533.247 388.077C533.247 388.077 533.229 388.673 533.205 388.709C533.205 388.709 533.685 389.091 533.649 389.359C533.613 389.627 533.26 389.942 533.247 390.442C533.236 390.94 533.372 391.782 533.473 391.929C533.573 392.075 532.979 392.731 532.934 392.979C532.89 393.225 532.322 393.097 532.322 393.097C532.322 393.097 532.068 393.417 531.775 393.243C531.483 393.071 531.53 392.213 531.53 392.213C531.53 392.213 531.094 392.997 531.241 393.971C531.387 394.944 531.474 395.673 531.474 395.673C531.474 395.673 532.727 397.448 532.416 398.578C532.106 399.708 531.961 400.001 531.961 400.001C531.961 400.001 532.999 399.673 533.073 400.785C533.147 401.897 532.617 404.213 532.78 405.126C532.946 406.038 532.744 406.694 532.215 406.676C531.686 406.659 531.212 405.327 531.212 405.327L531.777 404.452C531.777 404.452 531.887 401.642 531.722 401.77C531.556 401.897 530.444 402.571 529.607 403.228C528.767 403.885 527.856 406.585 527.4 406.893C527.329 406.942 527.268 407.047 527.215 407.17H535.521V409.285H539.018V411.563H601.881V414.897H599.359V423.518H601.637V426.609H609.852L607.006 430.27V436.289H602.126V446.129L602.124 449.164H599.844V504.598H584.157V449.164H581.874V446.129H569.026V449.164H566.745V504.598H551.058V449.164H548.778V446.129H535.929V449.164H533.647V504.598H517.96V449.164H515.677V446.129H502.828V449.164H500.548V504.598H484.861V449.164H482.581V446.129H469.732V449.164H467.45V504.598H451.762V449.164H449.482V446.129H436.634V449.164H434.353V504.598H418.666V449.164H416.384V446.129L416.381 436.289H411.502V430.27L408.656 426.609H416.857V426.611ZM510.022 381.582C509.848 381.129 509.584 380.682 509.35 380.329C508.939 380.55 508.606 380.885 508.385 381.294C508.74 381.529 509.187 381.792 509.638 381.966L510.266 382.21L510.022 381.582ZM509.638 382.855C509.185 383.029 508.738 383.293 508.385 383.527C508.606 383.938 508.939 384.271 509.35 384.492C509.584 384.139 509.848 383.691 510.022 383.239L510.263 382.612L509.638 382.855ZM511.586 380.329C511.351 380.684 511.088 381.131 510.913 381.582L510.67 382.21L511.297 381.966C511.751 381.792 512.198 381.529 512.55 381.294C512.329 380.883 511.994 380.548 511.586 380.329ZM510.911 383.242C511.085 383.695 511.349 384.142 511.583 384.495C511.994 384.273 512.327 383.938 512.548 383.53C512.195 383.295 511.746 383.032 511.295 382.857L510.668 382.616L510.911 383.242ZM492.778 406.205L492.62 407.174H493.053L492.778 406.205ZM525.269 406.205L524.995 407.174H525.428L525.269 406.205Z" fill="#76665B"/>
<path d="M829.475 485.736H835.523V492.083H829.475V485.736Z" fill="#76665B"/>
<path d="M829.739 484.166H835.258V485.734H829.739V484.166Z" fill="#76665B"/>
<path d="M830.283 449.725H834.719V485.734H830.283V449.725Z" fill="#76665B"/>
<path d="M816.757 485.736H822.805V492.083H816.757V485.736Z" fill="#76665B"/>
<path d="M817.028 484.166H822.547V485.734H817.028V484.166Z" fill="#76665B"/>
<path d="M817.565 449.725H822V485.734H817.565V449.725Z" fill="#76665B"/>
<path d="M804.054 485.736H810.102V492.083H804.054V485.736Z" fill="#76665B"/>
<path d="M804.325 484.166H809.844V485.734H804.325V484.166Z" fill="#76665B"/>
<path d="M804.861 449.725H809.297V485.734H804.861V449.725Z" fill="#76665B"/>
<path d="M791.35 485.736H797.398V492.083H791.35V485.736Z" fill="#76665B"/>
<path d="M791.622 484.166H797.141V485.734H791.622V484.166Z" fill="#76665B"/>
<path d="M792.158 449.725H796.594V485.734H792.158V449.725Z" fill="#76665B"/>
<path d="M778.655 485.736H784.703V492.083H778.655V485.736Z" fill="#76665B"/>
<path d="M778.919 484.166H784.438V485.734H778.919V484.166Z" fill="#76665B"/>
<path d="M779.455 449.725H783.891V485.734H779.455V449.725Z" fill="#76665B"/>
<path d="M765.952 485.736H772V492.083H765.952V485.736Z" fill="#76665B"/>
<path d="M766.216 484.166H771.734V485.734H766.216V484.166Z" fill="#76665B"/>
<path d="M766.752 449.725H771.188V485.734H766.752V449.725Z" fill="#76665B"/>
<path d="M765.142 490.066H837.133V496.838H765.142V490.066Z" fill="#76665B"/>
<path d="M758.046 494.975H844.234V503.082H758.046V494.975Z" fill="#76665B"/>
<path d="M836.483 410.409H837.18V412.203H836.483V410.409Z" fill="#76665B"/>
<path d="M832.74 442.356L854.835 441.842V436.695H858.52V441.842H867.306V436.695H870.991V441.842H879.853V436.695H883.538V441.842H892.773V436.695H896.458V441.842H906.615V425.662L903.627 419.587H908.605V416.4H925.831V416.402H941.771V419.58H946.742L943.754 425.662V503.077H925.831H924.54H832.633L832.74 442.356ZM927.272 425.628C927.272 424.172 926.09 422.991 924.634 422.991C923.178 422.991 921.996 424.172 921.996 425.628V431.319H927.272V425.628ZM934.291 425.628C934.291 424.172 933.11 422.991 931.654 422.991C930.197 422.991 929.016 424.172 929.016 425.628V431.319H934.291V425.628ZM917.565 488.571H934.691V462.783C934.691 458.054 930.856 454.22 926.128 454.22C921.398 454.22 917.565 458.054 917.565 462.783V488.571ZM914.729 433.57H914.778V431.317H920.004V425.626C920.004 424.17 918.823 422.988 917.367 422.988C915.911 422.988 914.729 424.17 914.729 425.626V433.57ZM896.755 489.17H904.022V473.985C904.022 471.977 902.394 470.351 900.389 470.351C898.383 470.351 896.755 471.98 896.755 473.985V489.17ZM896.755 458.457V466.765H904.022V458.457H904.945L900.277 454.524L895.828 458.457H896.755ZM884.308 489.17H891.578V473.985C891.578 471.977 889.95 470.351 887.944 470.351C885.936 470.351 884.311 471.98 884.311 473.985L884.308 489.17ZM884.308 458.457V466.765H891.578V458.457H892.5L887.833 454.524L883.384 458.457H884.308ZM871.862 489.17H879.131V473.985C879.131 471.977 877.503 470.351 875.498 470.351C873.49 470.351 871.864 471.98 871.864 473.985L871.862 489.17ZM871.862 458.457V466.765H879.131V458.457H880.054L875.386 454.524L870.937 458.457H871.862ZM859.415 489.17H866.685V473.985C866.685 471.977 865.057 470.351 863.051 470.351C861.043 470.351 859.417 471.98 859.417 473.985L859.415 489.17ZM859.415 458.457V466.765H866.685V458.457H867.607L862.939 454.524L858.491 458.457H859.415ZM846.969 489.17H854.238V473.985C854.238 471.977 852.61 470.351 850.605 470.351C848.597 470.351 846.971 471.98 846.971 473.985L846.969 489.17ZM846.969 458.457V466.765H854.238V458.457H855.161L850.493 454.524L846.044 458.457H846.969Z" fill="#76665B"/>
<path d="M771.125 503.081H679.217H677.926H660.004V425.666L657.015 419.584H661.987V416.406H677.926L695.152 416.404V419.591H700.131L697.142 425.666V441.846H707.3V436.698H710.985V441.846H720.22V436.698H723.905V441.846H732.767V436.698H736.452V441.846H745.238V436.698H748.923V441.846L771.018 442.36L771.125 503.081ZM676.484 431.32H681.759V425.63C681.759 424.174 680.577 422.992 679.121 422.992C677.665 422.992 676.484 424.174 676.484 425.63V431.32ZM669.462 431.32H674.737V425.63C674.737 424.174 673.556 422.992 672.1 422.992C670.643 422.992 669.462 424.174 669.462 425.63V431.32ZM686.19 462.784C686.19 458.056 682.355 454.221 677.627 454.221C672.897 454.221 669.064 458.056 669.064 462.784V488.573H686.19V462.784ZM689.026 425.63C689.026 424.174 687.845 422.992 686.389 422.992C684.933 422.992 683.751 424.174 683.751 425.63V431.32H688.977V433.574H689.026V425.63ZM707 473.987C707 471.979 705.372 470.353 703.367 470.353C701.359 470.353 699.733 471.981 699.733 473.987V489.171H707.003V473.987H707ZM707.923 458.458L703.474 454.525L698.806 458.458H699.729V466.766H706.998V458.458H707.923ZM719.447 473.987C719.447 471.979 717.819 470.353 715.813 470.353C713.806 470.353 712.18 471.981 712.18 473.987V489.171H719.449V473.987H719.447ZM720.369 458.458L715.921 454.525L711.255 458.458H712.177V466.766H719.447V458.458H720.369ZM731.894 473.987C731.894 471.979 730.265 470.353 728.26 470.353C726.252 470.353 724.626 471.981 724.626 473.987V489.171H731.896V473.987H731.894ZM732.816 458.458L728.367 454.525L723.699 458.458H724.622V466.766H731.891V458.458H732.816ZM744.34 473.987C744.34 471.979 742.712 470.353 740.707 470.353C738.699 470.353 737.073 471.981 737.073 473.987V489.171H744.342L744.34 473.987ZM745.263 458.458L740.814 454.525L736.148 458.458H737.071V466.766H744.34V458.458H745.263ZM756.787 473.987C756.787 471.979 755.159 470.353 753.153 470.353C751.145 470.353 749.519 471.981 749.519 473.987V489.171H756.789L756.787 473.987ZM757.709 458.458L753.26 454.525L748.595 458.458H749.517V466.766H756.787V458.458H757.709Z" fill="#76665B"/>
<path d="M770.827 431.467C771.348 415.159 784.701 402.089 801.136 402.089C817.572 402.089 830.923 415.159 831.445 431.467H770.827Z" fill="#76665B"/>
<path d="M679.358 399.554H681.453V416.432H679.358V399.554Z" fill="#76665B"/>
<path d="M665.696 400.595C670.276 396.977 674.857 404.213 679.438 400.595C679.438 403.61 679.438 406.628 679.438 409.643C674.857 413.261 670.276 406.025 665.696 409.643C665.696 406.628 665.696 403.61 665.696 400.595Z" fill="#76665B"/>
<path d="M762.109 430.174V427.112L763.527 424.796V418.448L762.033 417.18L764.423 415.911V413.745H765.245V413.229C765.245 412.336 765.968 411.61 766.864 411.61C767.759 411.61 768.483 412.333 768.483 413.229V413.745H769.305V415.911L771.695 417.18L770.2 418.448V424.796L771.619 427.112V430.174H792.53V428.606L790.14 427V425.046H801.691H802.062H813.613V427L811.223 428.606V430.174H832.134V427.112L833.552 424.796V418.448L832.058 417.18L834.448 415.911V413.745H835.27V413.229C835.27 412.336 835.996 411.61 836.889 411.61C837.782 411.61 838.508 412.333 838.508 413.229V413.745H839.33V415.911L841.72 417.18L840.226 418.448V424.796L841.644 427.112V430.174H848.141V445.856H838.332V448.096H835.719V452.353H801.722H801.666H767.668V448.096H765.055V445.856H755.617V430.174H762.109ZM772.081 445.629V447.547H831.299V445.629L831.962 444.603L801.689 431.82L771.415 444.603L772.081 445.629Z" fill="#76665B"/>
<path d="M612.343 229.03C606.571 216.536 612.02 201.728 624.514 195.956C637.008 190.184 651.815 195.633 657.588 208.127C663.36 220.621 657.911 235.429 645.417 241.201C632.923 246.973 618.115 241.524 612.343 229.03Z" fill="#76665B"/>
<path d="M619.42 507.844H650.484L643.487 236.642H626.418L619.42 507.844Z" fill="#76665B"/>
<path d="M625.41 250.477H644.49C645.799 250.477 646.859 251.537 646.859 252.846C646.859 254.155 645.799 255.216 644.49 255.216H625.41C624.101 255.216 623.041 254.155 623.041 252.846C623.041 251.537 624.101 250.477 625.41 250.477Z" fill="#76665B"/>
<path d="M625.41 260.441H644.49C645.799 260.441 646.859 261.502 646.859 262.813C646.859 264.122 645.799 265.183 644.49 265.183H625.41C624.101 265.183 623.041 264.122 623.041 262.813C623.041 261.504 624.101 260.441 625.41 260.441Z" fill="#76665B"/>
<path d="M623.476 175.298H646.443L649.773 206.715H620.143L623.476 175.298Z" fill="#76665B"/>
<path d="M634.955 0C636.056 0 636.954 0.884414 636.97 1.98547L639.531 179.873H630.379L632.941 1.98547C632.956 0.882181 633.854 0 634.955 0Z" fill="#76665B"/>
<path d="M631.501 118.272H638.893C640.644 118.272 642.062 119.691 642.062 121.442C642.062 123.19 640.644 124.611 638.893 124.611H631.501C629.752 124.611 628.332 123.193 628.332 121.442C628.334 119.691 629.752 118.272 631.501 118.272Z" fill="#76665B"/>
<path d="M631.501 42.7666H638.893C640.644 42.7666 642.062 44.1848 642.062 45.9335C642.062 47.6822 640.644 49.1027 638.893 49.1027H631.501C629.752 49.1027 628.332 47.6845 628.332 45.9335C628.334 44.1848 629.752 42.7666 631.501 42.7666Z" fill="#76665B"/>
<path d="M215.87 420.474H270.827V374.817L270.878 374.806H270.827V367.11C270.827 353.013 280.229 341.129 293.1 337.341V334.663H288.989V329.131H293.223V320.968L292.363 319.822L293.652 317.147L291.503 316.048V314.806H292.913C292.913 314.806 293.654 312.658 295.874 311.724C298.094 310.817 298.668 307.425 298.668 307.425L297.044 306.087V304.01H299.959C299.959 304.01 297.714 301.073 301.105 298.612V292.647C301.105 292.647 300.006 291.751 298.328 290.556C296.649 289.362 297.06 285.743 297.433 286.639C297.806 287.535 300.569 288.243 300.942 287.981C301.315 287.72 301.241 285.817 301.241 285.817L300.419 286.228L297.844 285.482C297.844 285.482 296.986 284.475 297.098 284.401C297.21 284.325 299.673 284.962 300.008 284.924C300.343 284.886 300.942 284.252 300.942 284.252C300.942 284.252 300.754 281.677 302.025 281.453C303.293 281.23 303.144 283.805 303.144 283.805C303.144 283.805 304.861 282.983 305.346 283.582C305.83 284.178 304.039 285.411 304.039 285.411C304.039 285.411 304.001 286.306 304.227 287.986C304.45 289.665 302.771 293.433 302.771 294.031C302.771 294.628 305.719 296.645 305.719 296.645L304.638 298.92C304.638 298.92 304.227 298.398 304.339 297.576C304.45 296.754 302.659 296.084 302.659 296.084V298.621C306.054 301.084 303.816 304.012 303.816 304.012H306.726V306.092L305.096 307.421C305.096 307.421 305.658 310.811 307.887 311.729C310.116 312.647 310.855 314.804 310.855 314.804H312.249V316.048L310.11 317.142L311.403 319.829L310.532 320.973V329.133H314.764V334.665H310.652V337.343C323.523 341.131 332.926 353.015 332.926 367.112V374.808H332.859L332.926 374.819V420.476H388.123L401.258 431.828V504.471H396.371V487.354H388.809V504.471H379.833V487.354H372.271V504.471H362.551V487.354H354.989V504.471H345.039V487.354H337.477V504.471H332.93V505.864H325.466V489.934C325.466 486.637 323.7 483.964 321.502 483.964C319.329 483.964 317.562 486.64 317.562 489.934V505.864H307.557V493.876H295.615V505.864H286.206V489.934C286.206 486.637 284.439 483.964 282.266 483.964C280.068 483.964 278.302 486.64 278.302 489.934V505.864H270.838V504.471H266.532V487.354H258.97V504.471H249.02V487.354H241.458V504.471H231.736V487.354H224.174V504.471H215.198V487.354H207.636V504.471H202.749V431.828L215.87 420.474ZM396.365 434.852H393.53V440.058H396.365V434.852ZM388.802 480.933H396.365V462.722H388.802V480.933ZM387.925 440.058H390.759V434.852H387.925V440.058ZM382.317 440.058H385.151V434.852H382.317V440.058ZM379.545 434.852H376.711V440.058H379.545V434.852ZM372.262 480.933H379.824V462.722H372.262V480.933ZM371.105 440.058H373.939V434.852H371.105V440.058ZM365.499 440.058H368.333V434.852H365.499V440.058ZM362.726 440.058V434.852H359.891V440.058H362.726ZM354.978 480.933H362.54V462.722H354.978V480.933ZM354.286 440.058H357.12V434.852H354.286V440.058ZM348.68 440.058H351.514V434.852H348.68V440.058ZM345.906 440.058V434.852H343.072V440.058H345.906ZM337.466 480.933H345.028V462.722H337.466V480.933ZM337.466 440.058H340.3V434.852H337.466V440.058ZM278.288 398.986V417.296H286.199V398.986C286.199 395.688 284.428 393.017 282.244 393.017C280.06 393.017 278.288 395.69 278.288 398.986ZM295.604 398.986V417.296H307.546V398.986C307.546 395.688 304.872 393.017 301.576 393.017C298.277 393.017 295.604 395.69 295.604 398.986ZM317.544 398.986V417.296H325.455V398.986C325.455 395.688 323.684 393.017 321.5 393.017C319.315 393.017 317.544 395.69 317.544 398.986ZM317.544 476.605H325.455V458.296C325.455 454.997 323.684 452.326 321.5 452.326C319.315 452.326 317.544 454.999 317.544 458.296V476.605ZM295.604 489.59H307.546V489.141C307.546 485.844 304.872 483.171 301.576 483.171C298.277 483.171 295.606 485.844 295.606 489.141V489.59H295.604ZM295.604 476.556H307.546V462.973H295.604V476.556ZM295.604 458.693H307.546V458.244C307.546 454.946 304.872 452.275 301.576 452.275C298.277 452.275 295.606 454.948 295.606 458.244V458.693H295.604ZM278.288 476.605H286.199V458.296C286.199 454.997 284.428 452.326 282.244 452.326C280.06 452.326 278.288 454.999 278.288 458.296V476.605ZM275.999 439.75H327.744V435.607H275.999V439.75ZM227.276 434.852H224.442V440.058H227.276V434.852ZM266.521 434.852H263.687V440.058H266.521V434.852ZM258.959 480.933H266.521V462.722H258.959V480.933ZM258.081 440.058H260.915V434.852H258.081V440.058ZM252.473 440.058H255.307V434.852H252.473V440.058ZM249.701 440.058V434.852H246.867V440.058H249.701ZM241.445 480.933H249.007V462.722H241.445V480.933ZM241.261 440.058H244.096V434.852H241.261V440.058ZM235.656 440.058H238.49V434.852H235.656V440.058ZM232.882 440.058V434.852H230.048V440.058H232.882ZM224.161 480.933H231.723V462.722H224.161V480.933ZM218.836 440.058H221.67V434.852H218.836V440.058ZM216.062 440.058V434.852H213.228V440.058H216.062ZM207.622 480.933H215.185V462.722H207.622V480.933ZM207.622 440.058H210.457V434.852H207.622V440.058Z" fill="#76665B"/>
<path d="M192.019 462.616H190.279V502.318H183.005V462.616H181.265V460.644H173.596V462.616H171.856V502.318H164.582V462.616H162.842V460.644H155.173V462.616H153.433V502.318H146.159V462.616H144.419V460.644H136.75V462.616H135.01V502.318H127.736V462.616H125.996V460.644H118.327V462.616H116.587V502.318H109.313V462.616H107.573V460.644H99.9037V462.616H98.1639V502.318H90.8898V462.616H89.15V460.644H85.255V454.486H89.7598V443.074H115.437V440.032L121.293 435.639V431.246L126.664 426.735H126.441V390.701H125.045V387.773H126.441V353.009H125.045V350.081H126.441V311.868H125.045V308.94H126.441V274.928H125.045V272H127.021L123.881 260.4V250.414L135.894 247.786V241.635C133.936 241.427 132.118 241.075 131.664 240.463C130.577 238.995 129.016 240.605 127.785 238.901C126.555 237.2 133.413 227.17 133.603 226.272C133.793 225.374 132.444 225.159 132.089 224.452C131.783 223.842 133.947 220.391 134.463 218.176C133.034 219.007 131.477 219.782 131.166 219.413C130.785 218.964 132.133 216.179 133.176 214.189C132.069 212.507 130.706 210.935 130.706 210.935L129.748 210.58L128.614 209.446H127.6C127.055 209.446 126.639 208.954 126.733 208.416L125.389 207.98C124.859 207.808 124.571 207.239 124.748 206.712L122.959 206.205C122.488 206.071 122.199 205.595 122.3 205.115L121.427 204.686C120.888 204.423 120.623 203.804 120.801 203.232L120.846 203.092L119.479 202.462C119.202 202.334 119.055 202.026 119.126 201.729C119.213 201.372 119.582 201.16 119.935 201.269L121.025 201.602C121.043 201.108 121.489 200.742 121.976 200.827C124.384 201.253 130.342 201.53 130.342 201.53C130.342 201.53 131.667 201.341 133.418 202.004C134.729 202.5 135.43 204.59 135.698 205.606V191.73C134.662 191.407 133.9 190.35 133.9 189.091C133.9 187.829 134.664 186.77 135.705 186.449L135.245 185.354L135.988 183.9L136.359 183.17L136.732 183.896L137.478 185.352L137.016 186.446C138.056 186.766 138.82 187.826 138.82 189.088C138.82 190.348 138.059 191.407 137.022 191.728V207.194C137.578 207.65 138.157 208.079 138.336 208.056C138.713 208.009 137.804 206.022 137.804 206.022C137.804 206.022 137.786 203.71 137.804 203.018C137.822 202.326 139.472 201.291 139.472 201.291C139.519 199.02 137.154 197.365 137.154 197.365C137.154 197.365 139.709 198.453 140.229 198.973C140.448 199.192 140.547 199.527 140.589 199.842C140.634 199.527 140.732 199.192 140.951 198.973C141.471 198.453 144.026 197.365 144.026 197.365C144.026 197.365 141.661 199.02 141.708 201.291C141.708 201.291 143.358 202.326 143.376 203.018C143.394 203.71 143.376 206.022 143.376 206.022C143.376 206.022 142.465 208.009 142.845 208.056C143.222 208.103 145.353 206.165 145.353 206.165C145.353 206.165 146.016 202.665 147.765 202.002C149.516 201.341 150.84 201.528 150.84 201.528L151.142 197.649C149.942 197.184 149.091 196.025 149.091 194.663C149.091 192.89 150.53 191.451 152.303 191.451C154.076 191.451 155.515 192.89 155.515 194.663C155.515 196.144 154.505 197.379 153.141 197.749L153.114 201.848C153.114 201.848 157.252 201.367 159.22 200.883C159.689 200.767 160.147 201.115 160.162 201.6L161.252 201.267C161.605 201.16 161.973 201.37 162.061 201.727C162.132 202.024 161.985 202.33 161.708 202.46L160.886 202.839C160.573 202.984 160.417 203.337 160.52 203.666C160.62 203.989 160.47 204.336 160.167 204.485L159.24 204.941C159.03 205.044 158.918 205.274 158.965 205.501C159.019 205.763 158.862 206.022 158.606 206.095L156.931 206.571C156.66 206.647 156.511 206.933 156.598 207.199C156.685 207.458 156.542 207.737 156.283 207.822L154.869 208.28C154.628 208.358 154.483 208.601 154.525 208.849C154.579 209.16 154.34 209.443 154.025 209.443H152.571L151.436 210.578L150.478 210.933C150.478 210.933 146.753 215.225 146.612 217.213C146.469 219.201 149.451 223.741 149.096 224.452C148.741 225.162 147.392 225.374 147.582 226.272C147.771 227.17 154.63 237.2 153.4 238.901C152.169 240.605 150.608 238.995 149.52 240.463C149.06 241.083 147.235 241.439 145.29 241.646V247.786L157.304 250.414V260.4L154.163 272H156.14V274.928H154.744V308.94H156.14V311.868H154.744V350.085H156.14V353.013H154.744V387.778H156.14V390.706H154.744V426.739H154.523L159.894 431.25V435.643L165.75 440.036V443.078H191.409V454.491H195.914V460.648H192.019V462.616ZM135.722 190.652H135.961C135.952 190.185 135.798 189.388 134.856 189.479C134.965 190.004 135.291 190.435 135.722 190.652ZM134.854 188.706C135.865 188.807 135.968 187.878 135.959 187.436C135.41 187.596 134.981 188.086 134.854 188.706ZM136.736 187.436C136.728 187.878 136.83 188.807 137.842 188.706C137.715 188.086 137.286 187.596 136.736 187.436ZM137.842 189.479C136.902 189.388 136.748 190.183 136.736 190.652H136.975C137.406 190.435 137.73 190.004 137.842 189.479ZM152.019 195.543C152.602 195.451 153.091 195.889 153.12 196.443C153.788 196.128 154.255 195.453 154.255 194.665C154.255 193.577 153.373 192.695 152.285 192.695C151.198 192.695 150.315 193.577 150.315 194.665C150.315 195.371 150.691 195.985 151.247 196.333C151.325 195.938 151.617 195.608 152.019 195.543Z" fill="#76665B"/>
</svg>
