<svg width="854" height="521" viewBox="0 0 854 521" fill="none" xmlns="http://www.w3.org/2000/svg">
<g clip-path="url(#clip0_6_429)">
<path d="M6.10352e-05 502.37H1024V521.088H6.10352e-05V502.37Z" fill="#DCDCDC"/>
<path d="M416.857 426.611V423.52H419.135V414.9H416.614V411.565H479.476V409.287H482.974V407.172H490.851C490.797 407.049 490.737 406.944 490.666 406.895C490.21 406.585 489.299 403.887 488.459 403.23C487.619 402.574 486.507 401.899 486.344 401.772C486.179 401.645 486.288 404.454 486.288 404.454L486.853 405.33C486.853 405.33 486.38 406.661 485.85 406.679C485.321 406.696 485.12 406.04 485.285 405.129C485.448 404.217 484.921 401.899 484.993 400.787C485.066 399.675 486.105 400.003 486.105 400.003C486.105 400.003 485.96 399.71 485.649 398.58C485.339 397.45 486.592 395.675 486.592 395.675C486.592 395.675 486.677 394.944 486.822 393.973C486.967 392.999 486.534 392.215 486.534 392.215C486.534 392.215 486.579 393.073 486.288 393.245C485.996 393.419 485.741 393.1 485.741 393.1C485.741 393.1 485.176 393.227 485.129 392.981C485.084 392.736 484.49 392.079 484.591 391.932C484.691 391.786 484.828 390.945 484.816 390.444C484.805 389.946 484.452 389.629 484.414 389.361C484.379 389.093 484.859 388.711 484.859 388.711C484.834 388.675 484.816 388.079 484.816 388.079C484.336 387.86 484.262 387.235 484.262 387.235L485.12 387.271L485.522 387.087L485.649 386.54C485.649 386.54 485.886 386.851 486.398 387.014C486.909 387.179 488.028 388.012 488.928 389.033C489.828 390.053 490.241 393.265 490.436 393.774C490.63 394.286 491.213 395.331 491.724 396.133C492.236 396.934 493.207 397.616 494.739 398.784C496.271 399.952 495.784 403.355 495.128 404.789C494.471 406.223 495.054 406.953 495.054 406.953L495.07 407.17H499.809C499.831 406.658 499.84 405.98 499.778 405.245C499.65 403.731 499.195 402.216 498.976 401.252C498.757 400.284 498.739 397.951 498.703 397.001C498.668 396.052 500.271 394.319 500.363 393.464C500.454 392.608 500.874 390.509 500.892 389.616C500.91 388.722 500.946 387.938 500.966 387.554C500.984 387.17 501.404 386.971 501.294 386.715C501.185 386.46 500.93 386.478 500.948 386.221C500.966 385.966 501.368 385.29 501.368 385.29L501.879 385.964C501.879 385.964 502.433 385.441 502.98 386C502.98 386 503.369 385.477 503.612 385.526C503.612 385.526 503.711 385.989 503.648 386.342C503.588 386.694 503.112 386.719 503.539 387.119C503.965 387.521 504.11 388.019 504.075 388.224C504.039 388.43 503.867 388.807 503.93 389.453C503.99 390.096 503.157 390.614 503.668 392.456C503.854 393.129 503.988 393.642 504.081 394.024V394.087C504.262 393.095 504.51 391.923 504.713 391.677C505.078 391.239 505.395 391.166 506.172 391.288C506.949 391.409 506.634 392.7 506.634 392.7C506.634 392.7 507.534 392.311 508.142 391.849C508.749 391.387 507.364 389.466 507.364 389.127C507.364 388.787 507.876 388.128 508.314 387.958C508.751 387.789 509.772 387.983 509.772 387.983V387.157H510.038V385.377C508.579 385.165 507.456 383.921 507.456 382.404C507.456 380.888 508.579 379.644 510.038 379.431V377.325C509.893 377.399 509.716 377.413 509.716 377.413C509.716 377.413 509.948 377.026 509.625 376.91C509.301 376.796 509.118 377.457 509.118 377.457C508.789 377.06 509.41 376.403 509.41 376.403C509.41 376.403 508.399 376.439 508.07 376.385C507.742 376.332 508.005 375.327 508.005 375.327C507.239 375.581 506.464 374.167 506.464 374.167C505.953 374.031 506.091 373.712 506.091 373.712C505.681 373.567 505.672 373.037 505.672 373.037C505.234 372.792 505.399 372.336 505.399 372.336C505.035 372.081 505.189 371.653 505.189 371.653C504.935 371.407 505.015 370.733 505.145 370.878C505.272 371.023 508.564 372.912 508.564 372.912C508.564 372.912 509.312 373.35 508.984 373.806C508.655 374.261 509.803 374.489 509.803 374.489C509.803 374.489 509.886 373.459 509.85 373.22C509.819 373.017 510.301 372.664 510.44 372.638V372.631C510.44 372.631 510.451 372.633 510.46 372.635C510.469 372.633 510.48 372.631 510.48 372.631V372.638C510.619 372.664 511.101 373.017 511.07 373.22C511.034 373.457 511.114 374.489 511.114 374.489C511.114 374.489 512.264 374.261 511.936 373.806C511.608 373.35 512.356 372.912 512.356 372.912C512.356 372.912 515.648 371.025 515.775 370.878C515.903 370.733 515.985 371.407 515.728 371.653C515.728 371.653 515.885 372.081 515.519 372.336C515.519 372.336 515.682 372.792 515.244 373.037C515.244 373.037 515.235 373.567 514.824 373.712C514.824 373.712 514.96 374.031 514.451 374.167C514.451 374.167 513.676 375.581 512.91 375.327C512.91 375.327 513.173 376.329 512.845 376.385C512.517 376.441 511.505 376.403 511.505 376.403C511.505 376.403 512.126 377.06 511.798 377.457C511.798 377.457 511.615 376.796 511.291 376.91C510.967 377.024 511.199 377.413 511.199 377.413C511.199 377.413 511.023 377.399 510.878 377.325V379.429C512.349 379.628 513.488 380.876 513.488 382.404C513.488 383.932 512.349 385.18 510.878 385.379V387.206C511.657 387.572 512.917 389.788 513.258 390.129C513.622 390.493 513.441 391.279 513.441 391.279C514.974 391.371 514.864 394.909 514.864 394.909C514.864 394.909 514.974 394.252 515.485 392.41C515.996 390.567 515.163 390.051 515.224 389.406C515.284 388.76 515.114 388.385 515.079 388.177C515.043 387.97 515.188 387.472 515.615 387.072C516.041 386.67 515.565 386.645 515.505 386.295C515.445 385.942 515.541 385.479 515.541 385.479C515.784 385.43 516.173 385.953 516.173 385.953C516.72 385.392 517.274 385.917 517.274 385.917L517.785 385.243C517.785 385.243 518.187 385.917 518.205 386.172C518.223 386.426 517.969 386.409 517.859 386.665C517.75 386.92 518.17 387.121 518.187 387.505C518.205 387.889 518.243 388.673 518.261 389.567C518.279 390.46 518.699 392.557 518.79 393.415C518.882 394.272 520.486 396.005 520.45 396.952C520.414 397.901 520.394 400.235 520.177 401.202C519.958 402.169 519.503 403.684 519.376 405.196C519.311 405.951 519.32 406.654 519.347 407.168H522.996L523.011 406.951C523.011 406.951 523.594 406.221 522.938 404.787C522.281 403.353 521.794 399.947 523.326 398.781C524.858 397.613 525.832 396.932 526.341 396.13C526.853 395.329 527.436 394.281 527.63 393.772C527.824 393.261 528.238 390.051 529.138 389.031C530.038 388.01 531.157 387.177 531.666 387.012C532.177 386.848 532.414 386.538 532.414 386.538L532.541 387.085L532.943 387.268L533.801 387.233C533.801 387.233 533.727 387.858 533.247 388.077C533.247 388.077 533.229 388.673 533.205 388.709C533.205 388.709 533.685 389.091 533.649 389.359C533.613 389.627 533.26 389.942 533.247 390.442C533.236 390.94 533.372 391.782 533.473 391.929C533.573 392.075 532.979 392.731 532.934 392.979C532.89 393.225 532.322 393.097 532.322 393.097C532.322 393.097 532.068 393.417 531.775 393.243C531.483 393.071 531.53 392.213 531.53 392.213C531.53 392.213 531.094 392.997 531.241 393.971C531.387 394.944 531.474 395.673 531.474 395.673C531.474 395.673 532.727 397.448 532.416 398.578C532.106 399.708 531.961 400.001 531.961 400.001C531.961 400.001 532.999 399.673 533.073 400.785C533.147 401.897 532.617 404.213 532.78 405.126C532.946 406.038 532.744 406.694 532.215 406.676C531.686 406.659 531.212 405.327 531.212 405.327L531.777 404.452C531.777 404.452 531.887 401.642 531.722 401.77C531.556 401.897 530.444 402.571 529.607 403.228C528.767 403.885 527.856 406.585 527.4 406.893C527.329 406.942 527.268 407.047 527.215 407.17H535.521V409.285H539.018V411.563H601.881V414.897H599.359V423.518H601.637V426.609H609.852L607.006 430.27V436.289H602.126V446.129L602.124 449.164H599.844V504.598H584.157V449.164H581.874V446.129H569.026V449.164H566.745V504.598H551.058V449.164H548.778V446.129H535.929V449.164H533.647V504.598H517.96V449.164H515.677V446.129H502.828V449.164H500.548V504.598H484.861V449.164H482.581V446.129H469.732V449.164H467.45V504.598H451.762V449.164H449.482V446.129H436.634V449.164H434.353V504.598H418.666V449.164H416.384V446.129L416.381 436.289H411.502V430.27L408.656 426.609H416.857V426.611ZM510.022 381.582C509.848 381.129 509.584 380.682 509.35 380.329C508.939 380.55 508.606 380.885 508.385 381.294C508.74 381.529 509.187 381.792 509.638 381.966L510.266 382.21L510.022 381.582ZM509.638 382.855C509.185 383.029 508.738 383.293 508.385 383.527C508.606 383.938 508.939 384.271 509.35 384.492C509.584 384.139 509.848 383.691 510.022 383.239L510.263 382.612L509.638 382.855ZM511.586 380.329C511.351 380.684 511.088 381.131 510.913 381.582L510.67 382.21L511.297 381.966C511.751 381.792 512.198 381.529 512.55 381.294C512.329 380.883 511.994 380.548 511.586 380.329ZM510.911 383.242C511.085 383.695 511.349 384.142 511.583 384.495C511.994 384.273 512.327 383.938 512.548 383.53C512.195 383.295 511.746 383.032 511.295 382.857L510.668 382.616L510.911 383.242ZM492.778 406.205L492.62 407.174H493.053L492.778 406.205ZM525.269 406.205L524.995 407.174H525.428L525.269 406.205Z" fill="#DCDCDC"/>
<path d="M829.475 485.736H835.523V492.083H829.475V485.736Z" fill="#DCDCDC"/>
<path d="M829.739 484.166H835.258V485.734H829.739V484.166Z" fill="#DCDCDC"/>
<path d="M830.283 449.725H834.719V485.734H830.283V449.725Z" fill="#DCDCDC"/>
<path d="M816.757 485.736H822.805V492.083H816.757V485.736Z" fill="#DCDCDC"/>
<path d="M817.028 484.166H822.547V485.734H817.028V484.166Z" fill="#DCDCDC"/>
<path d="M817.565 449.725H822V485.734H817.565V449.725Z" fill="#DCDCDC"/>
<path d="M804.054 485.736H810.102V492.083H804.054V485.736Z" fill="#DCDCDC"/>
<path d="M804.325 484.166H809.844V485.734H804.325V484.166Z" fill="#DCDCDC"/>
<path d="M804.861 449.725H809.297V485.734H804.861V449.725Z" fill="#DCDCDC"/>
<path d="M791.35 485.736H797.398V492.083H791.35V485.736Z" fill="#DCDCDC"/>
<path d="M791.622 484.166H797.141V485.734H791.622V484.166Z" fill="#DCDCDC"/>
<path d="M792.158 449.725H796.594V485.734H792.158V449.725Z" fill="#DCDCDC"/>
<path d="M778.655 485.736H784.703V492.083H778.655V485.736Z" fill="#DCDCDC"/>
<path d="M778.919 484.166H784.438V485.734H778.919V484.166Z" fill="#DCDCDC"/>
<path d="M779.455 449.725H783.891V485.734H779.455V449.725Z" fill="#DCDCDC"/>
<path d="M765.952 485.736H772V492.083H765.952V485.736Z" fill="#DCDCDC"/>
<path d="M766.216 484.166H771.734V485.734H766.216V484.166Z" fill="#DCDCDC"/>
<path d="M766.752 449.725H771.188V485.734H766.752V449.725Z" fill="#DCDCDC"/>
<path d="M765.142 490.066H837.133V496.838H765.142V490.066Z" fill="#DCDCDC"/>
<path d="M758.046 494.975H844.234V503.082H758.046V494.975Z" fill="#DCDCDC"/>
<path d="M836.483 410.409H837.18V412.203H836.483V410.409Z" fill="#DCDCDC"/>
<path d="M832.74 442.356L854.835 441.842V436.695H858.52V441.842H867.306V436.695H870.991V441.842H879.853V436.695H883.538V441.842H892.773V436.695H896.458V441.842H906.615V425.662L903.627 419.587H908.605V416.4H925.831V416.402H941.771V419.58H946.742L943.754 425.662V503.077H925.831H924.54H832.633L832.74 442.356ZM927.272 425.628C927.272 424.172 926.09 422.991 924.634 422.991C923.178 422.991 921.996 424.172 921.996 425.628V431.319H927.272V425.628ZM934.291 425.628C934.291 424.172 933.11 422.991 931.654 422.991C930.197 422.991 929.016 424.172 929.016 425.628V431.319H934.291V425.628ZM917.565 488.571H934.691V462.783C934.691 458.054 930.856 454.22 926.128 454.22C921.398 454.22 917.565 458.054 917.565 462.783V488.571ZM914.729 433.57H914.778V431.317H920.004V425.626C920.004 424.17 918.823 422.988 917.367 422.988C915.911 422.988 914.729 424.17 914.729 425.626V433.57ZM896.755 489.17H904.022V473.985C904.022 471.977 902.394 470.351 900.389 470.351C898.383 470.351 896.755 471.98 896.755 473.985V489.17ZM896.755 458.457V466.765H904.022V458.457H904.945L900.277 454.524L895.828 458.457H896.755ZM884.308 489.17H891.578V473.985C891.578 471.977 889.95 470.351 887.944 470.351C885.936 470.351 884.311 471.98 884.311 473.985L884.308 489.17ZM884.308 458.457V466.765H891.578V458.457H892.5L887.833 454.524L883.384 458.457H884.308ZM871.862 489.17H879.131V473.985C879.131 471.977 877.503 470.351 875.498 470.351C873.49 470.351 871.864 471.98 871.864 473.985L871.862 489.17ZM871.862 458.457V466.765H879.131V458.457H880.054L875.386 454.524L870.937 458.457H871.862ZM859.415 489.17H866.685V473.985C866.685 471.977 865.057 470.351 863.051 470.351C861.043 470.351 859.417 471.98 859.417 473.985L859.415 489.17ZM859.415 458.457V466.765H866.685V458.457H867.607L862.939 454.524L858.491 458.457H859.415ZM846.969 489.17H854.238V473.985C854.238 471.977 852.61 470.351 850.605 470.351C848.597 470.351 846.971 471.98 846.971 473.985L846.969 489.17ZM846.969 458.457V466.765H854.238V458.457H855.161L850.493 454.524L846.044 458.457H846.969Z" fill="#DCDCDC"/>
<path d="M771.125 503.081H679.217H677.926H660.004V425.666L657.015 419.584H661.987V416.406H677.926L695.152 416.404V419.591H700.131L697.142 425.666V441.846H707.3V436.698H710.985V441.846H720.22V436.698H723.905V441.846H732.767V436.698H736.452V441.846H745.238V436.698H748.923V441.846L771.018 442.36L771.125 503.081ZM676.484 431.32H681.759V425.63C681.759 424.174 680.577 422.992 679.121 422.992C677.665 422.992 676.484 424.174 676.484 425.63V431.32ZM669.462 431.32H674.737V425.63C674.737 424.174 673.556 422.992 672.1 422.992C670.643 422.992 669.462 424.174 669.462 425.63V431.32ZM686.19 462.784C686.19 458.056 682.355 454.221 677.627 454.221C672.897 454.221 669.064 458.056 669.064 462.784V488.573H686.19V462.784ZM689.026 425.63C689.026 424.174 687.845 422.992 686.389 422.992C684.933 422.992 683.751 424.174 683.751 425.63V431.32H688.977V433.574H689.026V425.63ZM707 473.987C707 471.979 705.372 470.353 703.367 470.353C701.359 470.353 699.733 471.981 699.733 473.987V489.171H707.003V473.987H707ZM707.923 458.458L703.474 454.525L698.806 458.458H699.729V466.766H706.998V458.458H707.923ZM719.447 473.987C719.447 471.979 717.819 470.353 715.813 470.353C713.806 470.353 712.18 471.981 712.18 473.987V489.171H719.449V473.987H719.447ZM720.369 458.458L715.921 454.525L711.255 458.458H712.177V466.766H719.447V458.458H720.369ZM731.894 473.987C731.894 471.979 730.265 470.353 728.26 470.353C726.252 470.353 724.626 471.981 724.626 473.987V489.171H731.896V473.987H731.894ZM732.816 458.458L728.367 454.525L723.699 458.458H724.622V466.766H731.891V458.458H732.816ZM744.34 473.987C744.34 471.979 742.712 470.353 740.707 470.353C738.699 470.353 737.073 471.981 737.073 473.987V489.171H744.342L744.34 473.987ZM745.263 458.458L740.814 454.525L736.148 458.458H737.071V466.766H744.34V458.458H745.263ZM756.787 473.987C756.787 471.979 755.159 470.353 753.153 470.353C751.145 470.353 749.519 471.981 749.519 473.987V489.171H756.789L756.787 473.987ZM757.709 458.458L753.26 454.525L748.595 458.458H749.517V466.766H756.787V458.458H757.709Z" fill="#DCDCDC"/>
<path d="M770.827 431.467C771.348 415.159 784.701 402.089 801.136 402.089C817.572 402.089 830.923 415.159 831.445 431.467H770.827Z" fill="#DCDCDC"/>
<path d="M679.358 399.554H681.453V416.432H679.358V399.554Z" fill="#DCDCDC"/>
<path d="M665.696 400.595C670.276 396.977 674.857 404.213 679.438 400.595C679.438 403.61 679.438 406.628 679.438 409.643C674.857 413.261 670.276 406.025 665.696 409.643C665.696 406.628 665.696 403.61 665.696 400.595Z" fill="#DCDCDC"/>
<path d="M762.109 430.174V427.112L763.527 424.796V418.448L762.033 417.18L764.423 415.911V413.745H765.245V413.229C765.245 412.336 765.968 411.61 766.864 411.61C767.759 411.61 768.483 412.333 768.483 413.229V413.745H769.305V415.911L771.695 417.18L770.2 418.448V424.796L771.619 427.112V430.174H792.53V428.606L790.14 427V425.046H801.691H802.062H813.613V427L811.223 428.606V430.174H832.134V427.112L833.552 424.796V418.448L832.058 417.18L834.448 415.911V413.745H835.27V413.229C835.27 412.336 835.996 411.61 836.889 411.61C837.782 411.61 838.508 412.333 838.508 413.229V413.745H839.33V415.911L841.72 417.18L840.226 418.448V424.796L841.644 427.112V430.174H848.141V445.856H838.332V448.096H835.719V452.353H801.722H801.666H767.668V448.096H765.055V445.856H755.617V430.174H762.109ZM772.081 445.629V447.547H831.299V445.629L831.962 444.603L801.689 431.82L771.415 444.603L772.081 445.629Z" fill="#DCDCDC"/>
<path d="M612.343 229.03C606.571 216.536 612.02 201.728 624.514 195.956C637.008 190.184 651.816 195.633 657.588 208.127C663.36 220.621 657.911 235.429 645.417 241.201C632.923 246.973 618.116 241.524 612.343 229.03Z" fill="#DCDCDC"/>
<path d="M619.421 507.844H650.485L643.487 236.642H626.418L619.421 507.844Z" fill="#DCDCDC"/>
<path d="M625.41 250.477H644.49C645.799 250.477 646.86 251.537 646.86 252.846C646.86 254.155 645.799 255.216 644.49 255.216H625.41C624.102 255.216 623.041 254.155 623.041 252.846C623.041 251.537 624.102 250.477 625.41 250.477Z" fill="#DCDCDC"/>
<path d="M625.41 260.441H644.49C645.799 260.441 646.86 261.502 646.86 262.813C646.86 264.122 645.799 265.183 644.49 265.183H625.41C624.102 265.183 623.041 264.122 623.041 262.813C623.041 261.504 624.102 260.441 625.41 260.441Z" fill="#DCDCDC"/>
<path d="M623.476 175.298H646.444L649.774 206.715H620.144L623.476 175.298Z" fill="#DCDCDC"/>
<path d="M634.955 0C636.056 0 636.954 0.884414 636.97 1.98547L639.531 179.873H630.379L632.941 1.98547C632.956 0.882181 633.854 0 634.955 0Z" fill="#DCDCDC"/>
<path d="M631.501 118.273H638.893C640.644 118.273 642.063 119.691 642.063 121.442C642.063 123.19 640.644 124.611 638.893 124.611H631.501C629.752 124.611 628.332 123.193 628.332 121.442C628.334 119.691 629.752 118.273 631.501 118.273Z" fill="#DCDCDC"/>
<path d="M631.501 42.7667H638.893C640.644 42.7667 642.063 44.1849 642.063 45.9336C642.063 47.6824 640.644 49.1028 638.893 49.1028H631.501C629.752 49.1028 628.332 47.6846 628.332 45.9336C628.334 44.1849 629.752 42.7667 631.501 42.7667Z" fill="#DCDCDC"/>
<path d="M215.87 420.474H270.827V374.817L270.878 374.806H270.827V367.11C270.827 353.013 280.229 341.129 293.1 337.341V334.663H288.989V329.131H293.223V320.968L292.363 319.822L293.652 317.147L291.503 316.048V314.806H292.913C292.913 314.806 293.654 312.658 295.874 311.724C298.094 310.817 298.668 307.425 298.668 307.425L297.044 306.087V304.01H299.959C299.959 304.01 297.714 301.073 301.105 298.612V292.647C301.105 292.647 300.006 291.751 298.328 290.556C296.649 289.362 297.06 285.743 297.433 286.639C297.806 287.535 300.569 288.243 300.942 287.981C301.315 287.72 301.241 285.817 301.241 285.817L300.419 286.228L297.844 285.482C297.844 285.482 296.986 284.475 297.098 284.401C297.21 284.325 299.673 284.962 300.008 284.924C300.343 284.886 300.942 284.252 300.942 284.252C300.942 284.252 300.754 281.677 302.025 281.453C303.293 281.23 303.144 283.805 303.144 283.805C303.144 283.805 304.861 282.983 305.346 283.582C305.83 284.178 304.039 285.411 304.039 285.411C304.039 285.411 304.001 286.306 304.227 287.986C304.45 289.665 302.771 293.433 302.771 294.031C302.771 294.628 305.719 296.645 305.719 296.645L304.638 298.92C304.638 298.92 304.227 298.398 304.339 297.576C304.45 296.754 302.659 296.084 302.659 296.084V298.621C306.054 301.084 303.816 304.012 303.816 304.012H306.726V306.092L305.096 307.421C305.096 307.421 305.658 310.811 307.887 311.729C310.116 312.647 310.855 314.804 310.855 314.804H312.249V316.048L310.11 317.142L311.403 319.829L310.532 320.973V329.133H314.764V334.665H310.652V337.343C323.523 341.131 332.926 353.015 332.926 367.112V374.808H332.859L332.926 374.819V420.476H388.123L401.258 431.828V504.471H396.371V487.354H388.809V504.471H379.833V487.354H372.271V504.471H362.551V487.354H354.989V504.471H345.039V487.354H337.477V504.471H332.93V505.864H325.466V489.934C325.466 486.637 323.7 483.964 321.502 483.964C319.329 483.964 317.562 486.64 317.562 489.934V505.864H307.557V493.876H295.615V505.864H286.206V489.934C286.206 486.637 284.439 483.964 282.266 483.964C280.068 483.964 278.302 486.64 278.302 489.934V505.864H270.838V504.471H266.532V487.354H258.97V504.471H249.02V487.354H241.458V504.471H231.736V487.354H224.174V504.471H215.198V487.354H207.636V504.471H202.749V431.828L215.87 420.474ZM396.365 434.852H393.53V440.058H396.365V434.852ZM388.802 480.933H396.365V462.722H388.802V480.933ZM387.925 440.058H390.759V434.852H387.925V440.058ZM382.317 440.058H385.151V434.852H382.317V440.058ZM379.545 434.852H376.711V440.058H379.545V434.852ZM372.262 480.933H379.824V462.722H372.262V480.933ZM371.105 440.058H373.939V434.852H371.105V440.058ZM365.499 440.058H368.333V434.852H365.499V440.058ZM362.726 440.058V434.852H359.891V440.058H362.726ZM354.978 480.933H362.54V462.722H354.978V480.933ZM354.286 440.058H357.12V434.852H354.286V440.058ZM348.68 440.058H351.514V434.852H348.68V440.058ZM345.906 440.058V434.852H343.072V440.058H345.906ZM337.466 480.933H345.028V462.722H337.466V480.933ZM337.466 440.058H340.3V434.852H337.466V440.058ZM278.288 398.986V417.296H286.199V398.986C286.199 395.688 284.428 393.017 282.244 393.017C280.06 393.017 278.288 395.69 278.288 398.986ZM295.604 398.986V417.296H307.546V398.986C307.546 395.688 304.872 393.017 301.576 393.017C298.277 393.017 295.604 395.69 295.604 398.986ZM317.544 398.986V417.296H325.455V398.986C325.455 395.688 323.684 393.017 321.5 393.017C319.315 393.017 317.544 395.69 317.544 398.986ZM317.544 476.605H325.455V458.296C325.455 454.997 323.684 452.326 321.5 452.326C319.315 452.326 317.544 454.999 317.544 458.296V476.605ZM295.604 489.59H307.546V489.141C307.546 485.844 304.872 483.171 301.576 483.171C298.277 483.171 295.606 485.844 295.606 489.141V489.59H295.604ZM295.604 476.556H307.546V462.973H295.604V476.556ZM295.604 458.693H307.546V458.244C307.546 454.946 304.872 452.275 301.576 452.275C298.277 452.275 295.606 454.948 295.606 458.244V458.693H295.604ZM278.288 476.605H286.199V458.296C286.199 454.997 284.428 452.326 282.244 452.326C280.06 452.326 278.288 454.999 278.288 458.296V476.605ZM275.999 439.75H327.744V435.607H275.999V439.75ZM227.276 434.852H224.442V440.058H227.276V434.852ZM266.521 434.852H263.687V440.058H266.521V434.852ZM258.959 480.933H266.521V462.722H258.959V480.933ZM258.081 440.058H260.915V434.852H258.081V440.058ZM252.473 440.058H255.307V434.852H252.473V440.058ZM249.701 440.058V434.852H246.867V440.058H249.701ZM241.445 480.933H249.007V462.722H241.445V480.933ZM241.261 440.058H244.096V434.852H241.261V440.058ZM235.656 440.058H238.49V434.852H235.656V440.058ZM232.882 440.058V434.852H230.048V440.058H232.882ZM224.161 480.933H231.723V462.722H224.161V480.933ZM218.836 440.058H221.67V434.852H218.836V440.058ZM216.062 440.058V434.852H213.228V440.058H216.062ZM207.622 480.933H215.185V462.722H207.622V480.933ZM207.622 440.058H210.457V434.852H207.622V440.058Z" fill="#DCDCDC"/>
<path d="M192.019 462.616H190.279V502.318H183.005V462.616H181.265V460.644H173.596V462.616H171.856V502.318H164.582V462.616H162.842V460.644H155.173V462.616H153.433V502.318H146.159V462.616H144.419V460.644H136.75V462.616H135.01V502.318H127.736V462.616H125.996V460.644H118.327V462.616H116.587V502.318H109.313V462.616H107.573V460.644H99.9037V462.616H98.1639V502.318H90.8898V462.616H89.15V460.644H85.255V454.486H89.7597V443.074H115.437V440.032L121.293 435.639V431.246L126.664 426.735H126.441V390.701H125.045V387.773H126.441V353.009H125.045V350.081H126.441V311.868H125.045V308.94H126.441V274.928H125.045V272H127.021L123.881 260.4V250.414L135.894 247.786V241.635C133.936 241.427 132.118 241.075 131.664 240.463C130.577 238.995 129.016 240.605 127.785 238.901C126.555 237.2 133.413 227.17 133.603 226.272C133.793 225.374 132.444 225.159 132.089 224.452C131.783 223.842 133.947 220.391 134.463 218.176C133.034 219.007 131.477 219.782 131.166 219.413C130.785 218.964 132.133 216.179 133.176 214.189C132.069 212.507 130.706 210.935 130.706 210.935L129.748 210.58L128.614 209.446H127.6C127.055 209.446 126.639 208.954 126.733 208.416L125.389 207.98C124.859 207.808 124.571 207.239 124.748 206.712L122.959 206.205C122.488 206.071 122.199 205.595 122.3 205.115L121.427 204.686C120.888 204.423 120.623 203.804 120.801 203.232L120.846 203.092L119.479 202.462C119.202 202.334 119.055 202.026 119.126 201.729C119.213 201.372 119.582 201.16 119.935 201.269L121.025 201.602C121.043 201.108 121.489 200.742 121.976 200.827C124.384 201.253 130.342 201.53 130.342 201.53C130.342 201.53 131.667 201.341 133.418 202.004C134.729 202.5 135.43 204.59 135.698 205.606V191.73C134.662 191.407 133.9 190.35 133.9 189.091C133.9 187.829 134.664 186.77 135.705 186.449L135.245 185.354L135.988 183.9L136.359 183.17L136.732 183.896L137.478 185.352L137.016 186.446C138.056 186.766 138.82 187.826 138.82 189.088C138.82 190.348 138.059 191.407 137.022 191.728V207.194C137.578 207.65 138.157 208.079 138.336 208.056C138.713 208.009 137.804 206.022 137.804 206.022C137.804 206.022 137.786 203.71 137.804 203.018C137.822 202.326 139.472 201.291 139.472 201.291C139.519 199.02 137.154 197.365 137.154 197.365C137.154 197.365 139.709 198.453 140.229 198.973C140.448 199.192 140.547 199.527 140.589 199.842C140.634 199.527 140.732 199.192 140.951 198.973C141.471 198.453 144.026 197.365 144.026 197.365C144.026 197.365 141.661 199.02 141.708 201.291C141.708 201.291 143.358 202.326 143.376 203.018C143.394 203.71 143.376 206.022 143.376 206.022C143.376 206.022 142.465 208.009 142.845 208.056C143.222 208.103 145.353 206.165 145.353 206.165C145.353 206.165 146.016 202.665 147.765 202.002C149.516 201.341 150.84 201.528 150.84 201.528L151.142 197.649C149.942 197.184 149.091 196.025 149.091 194.663C149.091 192.89 150.53 191.451 152.303 191.451C154.076 191.451 155.515 192.89 155.515 194.663C155.515 196.144 154.505 197.379 153.141 197.749L153.114 201.848C153.114 201.848 157.252 201.367 159.22 200.883C159.689 200.767 160.147 201.115 160.162 201.6L161.252 201.267C161.605 201.16 161.973 201.37 162.061 201.727C162.132 202.024 161.985 202.33 161.708 202.46L160.886 202.839C160.573 202.984 160.417 203.337 160.52 203.666C160.62 203.989 160.47 204.336 160.167 204.485L159.24 204.941C159.03 205.044 158.918 205.274 158.965 205.501C159.019 205.763 158.862 206.022 158.606 206.095L156.931 206.571C156.66 206.647 156.511 206.933 156.598 207.199C156.685 207.458 156.542 207.737 156.283 207.822L154.869 208.28C154.628 208.358 154.483 208.601 154.525 208.849C154.579 209.16 154.34 209.443 154.025 209.443H152.571L151.436 210.578L150.478 210.933C150.478 210.933 146.753 215.225 146.612 217.213C146.469 219.201 149.451 223.741 149.096 224.452C148.741 225.162 147.392 225.374 147.582 226.272C147.771 227.17 154.63 237.2 153.4 238.901C152.169 240.605 150.608 238.995 149.52 240.463C149.06 241.083 147.235 241.439 145.29 241.646V247.786L157.304 250.414V260.4L154.163 272H156.14V274.928H154.744V308.94H156.14V311.868H154.744V350.085H156.14V353.013H154.744V387.778H156.14V390.706H154.744V426.739H154.523L159.894 431.25V435.643L165.75 440.036V443.078H191.409V454.491H195.914V460.648H192.019V462.616ZM135.722 190.652H135.961C135.952 190.185 135.798 189.388 134.856 189.479C134.965 190.004 135.291 190.435 135.722 190.652ZM134.854 188.706C135.865 188.807 135.968 187.878 135.959 187.436C135.41 187.596 134.981 188.086 134.854 188.706ZM136.736 187.436C136.728 187.878 136.83 188.807 137.842 188.706C137.715 188.086 137.286 187.596 136.736 187.436ZM137.842 189.479C136.902 189.388 136.748 190.183 136.736 190.652H136.975C137.406 190.435 137.73 190.004 137.842 189.479ZM152.019 195.543C152.602 195.451 153.091 195.889 153.12 196.443C153.788 196.128 154.255 195.453 154.255 194.665C154.255 193.577 153.373 192.695 152.285 192.695C151.198 192.695 150.315 193.577 150.315 194.665C150.315 195.371 150.691 195.985 151.247 196.333C151.325 195.938 151.617 195.608 152.019 195.543Z" fill="#DCDCDC"/>
</g>
<path d="M516.289 226.388L520.883 223.44L521.196 223.583C529.272 227.166 539.478 228.325 542.761 238.066C544.549 243.354 544.649 244.674 544.218 249.996L546.321 250.779C596.733 266.684 586.84 329.112 576.83 369.029C574.97 376.434 569.822 386.198 562.924 389.808C560.419 391.107 557.721 392.005 554.94 392.47L554.885 394.009C555.58 400.957 555.177 408.413 555.519 415.431C556.038 425.869 556.38 431.195 550.873 440.322L550.785 441.747C551.519 445.09 551.513 457.681 549.499 460.844C546.177 463.357 535.533 464.122 531.153 464.574C498.541 468.147 465.617 467.773 433.095 463.457C430.75 463.129 423.929 462.191 422.942 460.257C421.148 456.743 421.887 446.605 421.966 442.495L421.797 439.925C415.066 433.837 417.25 419.499 417.324 411.243C417.364 406.854 417.075 398.994 417.795 394.84L417.861 392.072C407.275 391.936 398.607 384.441 395.855 374.683C389.629 352.604 388.161 315.683 391.806 293.19C392.706 287.588 394.363 282.134 396.73 276.978C403.445 262.646 414.433 255.061 428.832 249.855C427.437 233.061 438.905 227.008 453.538 224.152C455.014 225.148 456.449 226.174 458.017 227.013L460.51 228.285C476.48 235.601 491.634 236.365 508.191 230.23C509.683 229.675 511.16 229.077 512.618 228.438L516.289 226.388Z" fill="#D4B57A"/>
<path d="M416.206 401.122C432.99 400.026 451.022 395.751 467.363 391.775C473.52 390.278 479.982 387.856 486.142 386.262C508.073 397.238 528.762 400.292 553.025 401.397C553.003 398.544 553.014 396.327 553.23 393.457C553.925 400.405 553.522 407.861 553.864 414.879C554.383 425.317 554.725 430.642 549.218 439.77L549.13 441.195C549.864 444.537 549.858 457.129 547.844 460.291C544.522 462.805 533.878 463.57 529.498 464.022C496.886 467.595 463.962 467.22 431.44 462.905C429.095 462.576 422.274 461.639 421.287 459.705C419.493 456.191 420.232 446.053 420.311 441.942L420.142 439.373C413.411 433.284 415.595 418.946 415.669 410.69C415.709 406.301 415.42 398.441 416.14 394.288C416.337 396.08 416.221 399.223 416.206 401.122Z" fill="#D4B57A"/>
<path d="M420.141 439.373C448.673 447.786 485.578 446.428 515.109 445.253C523.38 444.924 542.21 443.71 549.218 439.77L549.129 441.195C549.863 444.537 549.858 457.129 547.844 460.291C544.522 462.805 533.877 463.57 529.498 464.022C496.886 467.595 463.962 467.22 431.439 462.905C429.095 462.576 422.273 461.639 421.286 459.705C419.492 456.191 420.232 446.053 420.31 441.942L420.141 439.373Z" fill="#D4B57A"/>
<path d="M420.142 439.373C448.674 447.786 485.579 446.428 515.11 445.253C523.381 444.924 542.21 443.71 549.218 439.77L549.13 441.195C547.679 442.062 545.334 444.278 543.982 444.677C535.859 447.078 527.152 447.583 518.739 448.265C489.058 450.533 457.597 450.427 428.329 444.637C425.669 444.111 422.679 443.183 420.311 441.942L420.142 439.373Z" fill="#C8A663"/>
<path d="M423.288 342.181C423.089 337.141 419.029 300.611 422.248 298.515C426.741 302.559 424.603 338.167 427.812 342.643C438.246 335.537 447.354 331.697 460.025 336.072C464.386 332.977 469.498 333.873 474.517 334.75C487.345 336.994 500.379 338.653 513.211 340.747C513.444 340.786 513.677 340.829 513.909 340.878C526.937 342.423 539.843 345.323 552.12 346.728C554.725 347.357 559.272 347.98 560.646 350.104L560.519 351.108C559.785 351.67 559.283 352.028 558.223 351.71C539.247 345.998 521.027 344.775 501.262 341.905C494.314 340.897 470.728 336.422 463.682 337.536C459.422 338.209 456.918 352.097 455.157 356.915C458.26 362.014 462.309 363.66 467.361 366.498C484.815 376.383 503.516 383.882 522.964 388.796C534.043 391.5 542.05 392.151 553.285 391.918L553.23 393.458C553.014 396.328 553.003 398.545 553.025 401.398C528.761 400.293 508.073 397.239 486.142 386.263C479.982 387.857 473.52 390.279 467.363 391.776C451.022 395.752 432.99 400.027 416.206 401.123C416.22 399.224 416.337 396.081 416.14 394.289L416.206 391.52C439.004 391.62 462.246 386.869 484.041 380.445C475.161 375.825 466.498 370.478 457.961 365.155C456.203 364.059 453.084 359.324 451.866 358.593C444.905 354.414 434.84 349.047 427.37 346.125C423.865 344.753 418.701 345.217 415.099 345.008C414.406 344.967 414.529 344.806 414.046 344.081L414.267 343.247C416.316 341.787 420.633 342.178 423.288 342.181Z" fill="#C8A663"/>
<path d="M427.811 342.643C438.246 335.536 447.354 331.697 460.025 336.071C455.706 342.303 454.108 347.652 452.629 355.126C445.308 351.74 438.297 347.733 431.052 344.195C429.979 343.671 428.849 343.23 427.811 342.643Z" fill="#FEBC8A"/>
<path d="M458.854 227.733C474.824 235.049 489.978 235.812 506.535 229.678C508.027 229.122 509.503 228.525 510.962 227.886C511.112 229.919 511.335 232.229 511.36 234.241C511.386 239.073 511.729 243.546 510.364 248.174C509.895 248.557 509.421 248.933 508.941 249.302C504.339 253.988 499.318 258.088 494.481 262.552C492.485 264.395 486.275 271.84 484.883 272.447L484.573 272.346C478.71 264.983 468.216 257.412 461.348 250.468C460.701 249.83 460.05 249.197 459.393 248.57C457.759 244.706 458.367 238.886 458.492 234.526L458.854 227.733Z" fill="#FEBC8A"/>
<path d="M458.855 227.733C474.825 235.049 489.979 235.812 506.536 229.678C508.028 229.122 509.505 228.525 510.963 227.886C511.113 229.919 511.336 232.229 511.361 234.241C498.696 243.229 480.799 243.472 466.403 238.666C464.409 238 460.162 234.727 458.493 234.526L458.855 227.733Z" fill="#F59C5F"/>
<path d="M461.348 250.468C462.736 251.11 464.137 251.723 465.55 252.309C481.19 258.677 494.394 255.387 508.942 249.301C504.34 253.987 499.318 258.087 494.482 262.552C492.485 264.395 486.276 271.839 484.884 272.447L484.574 272.346C478.711 264.983 468.217 257.411 461.348 250.468Z" fill="white"/>
<path d="M514.634 225.836L519.228 222.889L519.541 223.031C527.617 226.614 537.823 227.773 541.106 237.514C542.894 242.802 542.994 244.123 542.563 249.444C533.646 263.084 506.291 268.497 491.467 271.623C489.576 272.022 486.608 273.119 484.884 272.448C486.276 271.84 492.486 264.396 494.482 262.553C499.319 258.088 504.34 253.988 508.942 249.302C509.422 248.933 509.896 248.557 510.365 248.174C511.73 243.546 511.387 239.074 511.361 234.241C511.336 232.23 511.113 229.92 510.963 227.886L514.634 225.836Z" fill="#D4B57A"/>
<path d="M510.963 227.887L514.633 225.836C520.298 228.798 525.724 231.839 521.505 238.96C519.797 241.844 513.432 247.362 510.365 248.175C511.73 243.547 511.387 239.074 511.361 234.242C511.336 232.231 511.113 229.92 510.963 227.887Z" fill="#C8A663"/>
<path d="M548.974 314.449C554.321 314.609 560.606 315.312 560.226 322.3L561.335 324.327C565.699 327.412 566.108 328.871 564.811 334.036C563.658 335.053 563.376 335.069 561.881 335.603C562.157 342.029 558.184 345.598 552.12 346.727C539.842 345.323 526.936 342.422 513.908 340.878C513.95 340.679 513.985 340.458 514.085 340.284C521.495 327.463 530.795 318.481 544.946 314.553L548.974 314.449Z" fill="#FEBC8A"/>
<path d="M533.551 340.705C539.141 333.396 547.423 330.689 556.434 330.872C559.403 330.933 562.769 331.806 564.811 334.035C563.657 335.052 563.376 335.069 561.88 335.603C553.311 331.081 540.802 335.128 533.551 340.705Z" fill="#F59C5F"/>
<path d="M561.336 324.327C555.194 322.637 547.497 323.23 541.642 325.717C539.004 326.838 536.3 328.463 533.492 328.989L533.47 328.473C538.877 322.726 552.899 320.134 560.227 322.3L561.336 324.327Z" fill="#F59C5F"/>
<path d="M542.562 249.443L544.665 250.226C540.653 261.328 514.216 271.076 503.06 271.578C501.253 271.368 500.775 271.433 499.039 271.632C498.739 272.214 498.595 272.362 498.203 272.9C493.87 274.362 478.522 274.173 473.505 273.391C471.637 273.099 471.503 272.912 470.739 271.652C469.087 271.323 468.303 271.49 466.667 271.682L466.21 271.676C458.823 271.52 423.707 259.707 427.589 250.17C430.136 252.213 431.717 254.295 434.574 256.213C446.425 264.171 460.652 268.547 474.625 270.893C477.474 271.371 481.357 273.051 483.356 273.062L484.574 272.346L484.883 272.447C486.607 273.119 489.575 272.022 491.466 271.623C506.29 268.496 533.645 263.083 542.562 249.443Z" fill="#C8A663"/>
<path d="M466.667 271.682C468.303 271.491 469.087 271.323 470.739 271.652C471.205 274.335 471.048 281.547 471.042 284.508L470.99 306.806C470.983 311.835 471.164 317.41 470.992 322.452C470.947 323.805 470.063 324.57 469.127 325.27C468.099 325.182 468.254 325.401 467.649 324.836C467.082 324.33 466.736 323.366 466.724 322.608C466.633 317.085 466.684 311.516 466.693 305.993L466.667 271.682Z" fill="white"/>
<path d="M499.04 271.631C500.775 271.433 501.253 271.368 503.061 271.578C502.878 284.668 503.67 310.664 502.523 324.538C502.476 325.1 501.504 325.225 501.029 325.332C499.643 324.847 498.534 323.557 498.648 322.062C499.876 305.932 497.48 287.523 499.04 271.631Z" fill="white"/>
<path d="M456.361 226.461L458.855 227.733L458.493 234.526C458.368 238.887 457.76 244.707 459.394 248.57C448.426 242.239 441.849 234.008 456.361 226.461Z" fill="#C8A663"/>
<path d="M544.946 314.552C545.504 310.313 545.482 302.166 547.17 298.914L547.965 298.343C548.401 298.538 549.146 298.782 549.195 299.386C549.543 303.644 549.184 310.317 548.974 314.448L544.946 314.552Z" fill="#C8A663"/>
<path d="M470.956 271.447H459.92C456.241 281.012 448.442 300.583 446.676 302.348C444.469 304.556 459.92 328.283 462.127 330.49C464.334 332.698 490.821 328.283 495.235 328.283H510.134V311.729V271.447H501.305C499.098 271.447 491.189 274.022 487.51 275.31L470.956 271.447Z" fill="#D4B57A"/>
<mask id="mask0_6_429" style="mask-type:alpha" maskUnits="userSpaceOnUse" x="434" y="298" width="99" height="43">
<path d="M445.298 333.801C442.722 334.72 437.352 336.725 436.469 337.387L434.813 322.213C436.837 315.316 440.993 301.079 441.435 299.313C441.876 297.547 458.725 298.577 467.094 299.313H510.962C512.066 299.313 520.619 304.831 524.757 307.59L532.207 318.35L526.689 325.524L518.136 332.145L514.273 340.422L483.096 335.18L463.783 333.801H445.298Z" fill="#D9D9D9"/>
</mask>
<g mask="url(#mask0_6_429)">
<path d="M499.498 339.467C501.099 339.159 502.634 339.293 503.754 340.709C504.5 341.648 504.662 342.781 504.76 343.92C505.03 347.001 504.759 350.067 504.533 353.134C504.418 354.688 504.346 356.248 504.27 357.804C504.257 358.064 504.185 358.349 504.388 358.631C504.75 358.398 504.905 358.031 505.095 357.693C506.098 355.91 507.051 354.097 508.106 352.346C509.923 349.329 511.652 346.258 513.623 343.336C514.225 342.446 514.869 341.578 515.537 340.738C516.509 339.513 517.761 339.188 519.013 339.783C519.821 340.167 519.996 340.508 519.67 341.342C518.99 343.093 518.224 344.81 517.583 346.574C516.088 350.685 514.751 354.843 514.304 359.223C514.242 359.831 514.245 360.448 514.288 361.055C514.363 362.116 515.096 362.473 516.019 361.919C516.308 361.744 516.571 361.527 516.831 361.314C517.07 361.117 517.321 360.921 517.62 361.137C517.922 361.354 517.79 361.673 517.702 361.952C517.261 363.347 515.329 364.605 513.922 364.421C512.059 364.175 511.053 363.065 510.981 361.137C510.928 359.738 511.142 358.362 511.418 356.993C512.145 353.407 513.357 349.963 514.488 346.492C514.537 346.341 514.662 346.193 514.531 345.966C513.469 347.411 512.552 348.918 511.625 350.419C509.239 354.284 507.255 358.366 505.003 362.303C504.786 362.684 504.569 363.082 504.221 363.371C503.298 364.132 502.121 363.738 501.904 362.562C501.664 361.249 501.651 359.916 501.776 358.589C502.075 355.473 501.96 352.35 501.956 349.23C501.963 349.184 501.917 349.131 501.825 348.941C501.361 350.14 500.945 351.23 500.514 352.317C499.229 355.588 497.766 358.769 495.522 361.511C494.214 363.107 492.754 364.595 490.648 365.068C487.703 365.728 484.615 364.68 483.717 361.578C483.076 359.361 484.164 356.632 486.057 355.761C486.737 355.449 487.434 355.358 488.147 355.63C488.416 355.736 488.614 355.923 488.647 356.228C488.676 356.487 488.568 356.708 488.341 356.806C486.885 357.443 486.773 358.776 486.652 360.086C486.58 360.848 486.816 361.518 487.292 362.145C488.15 363.281 490.191 363.058 491.206 362.47C492.958 361.452 494.132 359.893 495.249 358.264C497.691 354.695 499.255 350.708 500.816 346.718C501.177 345.796 501.552 344.876 501.858 343.933C502.209 342.856 501.71 341.839 500.75 341.494C500.175 341.287 499.65 341.516 499.154 341.713C496.863 342.63 493.662 346.347 494.109 349.355C494.165 349.723 494.23 350.058 494.497 350.327C494.773 350.603 494.914 350.911 494.706 351.295C494.48 351.716 494.085 351.693 493.707 351.637C492.097 351.404 490.96 349.683 491.259 347.926C491.548 346.242 492.281 344.754 493.356 343.444C494.973 341.467 496.932 339.963 499.498 339.467ZM478.302 341.341C480.524 341.052 482.755 340.849 484.987 341.266C486.058 341.467 487.064 341.847 487.928 342.527C488.661 343.105 489.114 343.85 489.041 344.819C489.005 345.328 488.821 345.778 488.249 345.913C487.704 346.037 487.379 345.754 487.126 345.308C486.331 343.909 484.934 343.67 483.531 343.568C481.388 343.41 479.278 343.781 477.174 344.139C471.614 345.085 466.29 346.878 460.959 348.661C458.554 349.465 456.135 350.214 453.591 350.451C453.213 350.487 452.835 350.507 452.457 350.533C451.304 350.51 450.177 350.359 449.148 349.8C448.678 349.548 448.267 349.209 448.011 348.726C447.758 348.253 447.794 347.778 448.139 347.364C448.435 347.009 448.833 346.885 449.28 347.062C451.294 347.86 453.352 347.672 455.396 347.265C458.948 346.559 462.334 345.272 465.788 344.234C469.895 342.999 474.037 341.896 478.302 341.341ZM456.639 306.218C458.427 306.126 460.103 306.372 461.372 307.814C462.285 308.852 462.617 310.11 462.571 311.453C462.475 314.273 461.582 316.785 459.525 318.798C459.068 319.245 458.542 319.603 457.888 319.705C457.155 319.82 456.627 319.557 456.373 318.962C456.124 318.381 456.255 317.863 456.853 317.41C457.96 316.576 458.631 315.458 459.045 314.165C459.61 312.789 459.853 311.387 459.373 309.932C459.301 309.716 459.216 309.499 459.039 309.335C458.733 308.707 458.174 308.5 457.537 308.451C456.551 308.375 455.66 308.7 454.831 309.193C452.446 310.615 450.606 312.612 449.015 314.841C445.998 319.068 443.799 323.662 442.885 328.807C442.586 330.492 442.672 332.177 443.214 333.809C444.282 337.02 447.011 338.38 450.238 337.352C452.252 336.712 453.945 335.532 455.519 334.176C457.294 332.646 458.95 330.991 460.495 329.224C460.915 328.742 461.25 328.213 461.473 327.612C462.009 326.17 462.558 324.732 463.104 323.294C463.663 322.066 464.215 320.838 464.78 319.613C466.035 316.887 467.471 314.263 469.173 311.791C469.86 310.792 470.646 309.876 471.668 309.212C472.418 308.727 473.23 308.359 474.169 308.54C475.027 308.704 475.493 309.187 475.674 310.037C475.855 310.9 475.638 311.712 475.369 312.516C474.715 314.454 473.673 316.188 472.526 317.863C470.084 321.422 467.376 324.765 464.162 327.655C463.123 328.591 462.758 329.74 462.282 331.021C462.663 330.939 462.772 330.699 462.926 330.522C464.546 328.667 465.999 326.659 467.849 325.004C468.799 324.154 469.825 323.481 471.175 323.55C472.276 324.072 472.578 324.67 472.417 326.006C472.256 327.32 471.737 328.525 471.26 329.74C470.774 330.975 470.291 332.213 470.028 333.52C469.965 333.829 469.87 334.163 470.189 334.393C470.504 334.62 470.801 334.443 471.077 334.292C472.069 333.75 472.733 332.873 473.4 332.003C474.534 330.528 475.471 328.929 476.338 327.287C476.644 326.709 476.979 326.151 477.301 325.583C477.995 324.791 478.556 323.885 479.345 323.172C480.17 322.43 481.044 321.78 482.125 321.461C483.588 321.028 484.778 321.59 485.382 322.979C485.454 323.147 485.442 323.412 485.671 323.425C485.898 323.438 485.928 323.179 486.01 323.018C486.178 322.696 486.384 322.407 486.67 322.18C486.992 321.924 487.358 321.846 487.739 322.023C488.14 322.213 488.235 322.585 488.218 322.982C488.198 323.451 488.025 323.885 487.844 324.315C487.046 326.203 486.066 328.007 485.205 329.862C484.84 330.65 484.541 331.464 484.508 332.344C484.495 332.636 484.515 332.942 484.59 333.221C484.768 333.881 485.189 334.016 485.721 333.602C486.142 333.277 486.444 332.834 486.749 332.407C488.097 330.515 489.441 328.617 490.579 326.59C491.321 325.267 491.955 323.885 492.001 322.309C492.018 321.708 492.205 321.137 492.678 320.716C493.135 320.316 493.664 320.21 494.2 320.512C494.719 320.805 494.792 321.301 494.673 321.839C494.66 321.898 494.647 321.961 494.63 322.023C494.335 323.103 494.361 323.166 495.471 323.464C496.04 323.615 496.619 323.721 497.131 324.052C497.907 324.555 498.216 325.258 498.121 326.158C498.051 326.798 497.828 327.385 497.542 327.957C496.977 329.09 496.404 330.219 495.849 331.359C495.54 331.989 495.34 332.663 495.288 333.362C495.225 334.206 495.731 334.547 496.491 334.167C497.204 333.809 497.723 333.214 498.248 332.636C499.116 331.684 499.898 330.659 500.634 329.602C501.226 328.752 501.272 327.73 501.496 326.775C502.366 323.035 503.678 319.455 505.347 316.003C505.475 315.741 505.568 315.459 505.676 315.186C506.672 313.475 507.533 311.679 508.686 310.06C509.511 308.904 510.385 307.794 511.69 307.128C511.969 306.986 512.262 306.855 512.564 306.77C514.526 306.212 515.818 307.315 515.637 309.361C515.486 311.052 514.881 312.609 514.191 314.126C511.93 319.107 509.012 323.645 504.986 327.412C504.71 327.671 504.411 327.908 504.128 328.161C502.709 329.432 502.255 332.085 503.168 333.776C503.602 334.577 504.329 334.873 505.334 334.617C506.343 334.361 507.178 333.783 507.917 333.077C510.152 330.946 511.851 328.403 513.445 325.783C514.017 324.847 514.526 323.871 515.075 322.922C515.295 322.542 515.519 322.155 515.929 321.928C516.271 321.738 516.62 321.708 516.952 321.918C517.277 322.121 517.346 322.46 517.287 322.811C517.145 323.681 516.722 324.443 516.321 325.209C515.24 327.261 514.083 329.277 513.331 331.487C513.114 332.13 512.929 332.781 512.995 333.47C513.054 334.104 513.465 334.357 514.056 334.108C514.247 334.029 514.438 333.914 514.592 333.776C515.897 332.617 516.935 331.24 517.842 329.759C518.404 329.122 518.862 328.42 519.197 327.645C519.93 325.947 520.955 324.447 522.167 323.061C522.683 322.473 523.33 322.033 523.925 321.534C524.721 321.196 525.506 320.837 526.407 320.867C527.955 320.916 528.963 321.925 528.999 323.478C529.032 324.949 528.503 326.233 527.534 327.287C525.881 329.086 523.889 330.229 521.332 329.983C520.79 329.93 520.57 330.101 520.488 330.624C520.392 331.231 520.311 331.835 520.357 332.449C520.452 333.739 521.238 334.499 522.526 334.544C523.807 334.59 524.918 334.091 525.963 333.424C527.215 332.626 528.33 331.661 529.292 330.525C529.631 330.124 529.973 329.714 530.416 329.419C530.732 329.208 531.093 329.12 531.418 329.382C531.724 329.635 531.691 329.986 531.55 330.321C531.452 330.554 531.343 330.791 531.182 330.981C529.424 333.06 527.449 334.882 524.957 336.068C523.732 336.652 522.457 336.783 521.132 336.452C520.564 336.307 520.104 335.976 519.621 335.677C518.884 334.801 518.384 333.819 518.312 332.653C518.305 332.548 518.302 332.419 518.177 332.393C518.03 332.361 517.96 332.488 517.878 332.584C517.33 333.227 516.793 333.878 516.235 334.511C515.63 335.198 514.924 335.763 514.073 336.128C512.788 336.676 511.519 336.077 511.115 334.741C510.885 333.976 511 333.201 511.082 332.439C510.77 332.36 510.701 332.587 510.589 332.715C509.577 333.884 508.475 334.958 507.158 335.786C506.346 336.295 505.495 336.708 504.509 336.741C502.984 336.79 501.87 336.058 501.315 334.639C501.088 334.061 500.973 333.467 500.914 332.853C500.9 332.699 500.934 332.476 500.72 332.433C500.556 332.4 500.467 332.568 500.378 332.679C499.77 333.438 499.09 334.131 498.376 334.791C497.64 335.47 496.815 336.022 495.83 336.271C494.328 336.652 493.289 335.848 493.204 334.308C493.135 333.044 493.529 331.894 494.002 330.758C494.472 329.629 494.988 328.518 495.435 327.378C495.862 326.295 495.669 325.918 494.575 325.498C493.316 325.012 493.339 325.021 492.777 326.246C491.334 329.395 489.536 332.311 487.032 334.745C486.654 335.112 486.246 335.448 485.773 335.694C484.268 336.472 482.829 335.736 482.592 334.058C482.527 333.585 482.5 333.109 482.441 332.492C482.102 332.905 481.853 333.234 481.583 333.543C480.663 334.6 479.68 335.575 478.438 336.261C476.466 337.351 474.465 336.446 474.182 334.318C474.166 334.18 474.179 333.993 474.004 333.947C473.83 333.901 473.751 334.078 473.663 334.183C473.074 334.879 472.417 335.503 471.674 336.032C471.326 336.278 470.954 336.478 470.55 336.606C469.482 336.941 468.431 336.39 468.089 335.323C467.833 334.528 467.928 333.736 468.112 332.948C468.46 331.441 469.039 330.013 469.548 328.558C469.785 327.882 469.985 327.192 470.189 326.505C470.235 326.351 470.323 326.164 470.172 326.029C469.998 325.875 469.808 325.997 469.644 326.079C468.754 326.519 468.089 327.247 467.413 327.93C464.892 330.469 462.693 333.274 460.757 336.282C460.586 336.544 460.422 336.82 460.218 337.06C459.903 337.431 459.485 337.575 459.022 337.384C458.526 337.184 458.407 336.734 458.519 336.278C458.7 335.542 458.96 334.827 459.183 334.101C459.239 333.924 459.34 333.753 459.275 333.52C458.989 333.533 458.864 333.776 458.704 333.94C457.096 335.565 455.433 337.122 453.507 338.367C451.959 339.368 450.28 340.054 448.423 340.143C443.98 340.357 440.647 337.719 439.78 333.345C439.155 330.209 439.655 327.165 440.618 324.18C442.126 319.507 444.413 315.258 447.68 311.547C449.139 309.889 450.829 308.497 452.708 307.335C453.961 306.757 455.242 306.291 456.639 306.218ZM484.203 325.195C484.183 323.786 483.341 323.247 482.164 323.793C481.662 324.026 481.225 324.354 480.828 324.742C479.342 326.19 478.245 327.911 477.344 329.763C476.835 330.811 476.44 331.904 476.315 333.073C476.266 333.559 476.239 334.094 476.676 334.413C477.123 334.738 477.607 334.528 478.047 334.294C478.764 333.91 479.384 333.401 479.914 332.794C481.152 331.372 482.182 329.799 483.112 328.164C483.657 327.205 484.081 326.196 484.203 325.195ZM526.709 324.437C526.713 323.38 526.173 322.992 525.263 323.297C524.938 323.409 524.642 323.577 524.392 323.803C523.17 324.91 522.309 326.276 521.563 327.727C521.313 328.213 521.678 328.21 521.987 328.204C523.18 328.164 524.26 327.802 525.204 327.06C526.091 326.364 526.663 325.498 526.709 324.437ZM513.281 309.167C512.998 309.016 512.751 309.18 512.518 309.331C511.782 309.81 511.214 310.464 510.695 311.16C507.882 314.923 505.998 319.156 504.384 323.527C504.079 324.361 503.856 325.218 503.688 326.091C503.662 326.213 503.619 326.361 503.744 326.433C503.872 326.515 503.98 326.394 504.079 326.325C504.598 325.954 505.039 325.497 505.45 325.014C508.374 321.576 510.576 317.691 512.383 313.577C512.899 312.401 513.363 311.197 513.54 309.939C513.511 309.637 513.576 309.324 513.281 309.167ZM473.331 311.196C473.012 310.996 472.713 311.187 472.456 311.374C471.891 311.787 471.408 312.293 471.004 312.861C468.977 315.728 467.314 318.798 465.858 321.987C465.46 322.86 465.049 323.731 464.75 324.736C464.924 324.693 464.973 324.692 464.999 324.669C465.128 324.561 465.257 324.45 465.372 324.329C467.744 321.83 469.851 319.12 471.668 316.194C472.46 314.92 473.088 313.557 473.515 312.116C473.61 311.794 473.682 311.419 473.331 311.196ZM517.757 315.958C518.658 315.465 519.621 315.885 519.877 316.883C520.111 317.799 519.835 318.594 519.171 319.238C518.718 319.678 518.146 319.882 517.535 319.58C516.851 319.235 516.624 318.618 516.65 317.882C516.686 317.052 517.005 316.368 517.757 315.958Z" fill="white"/>
</g>
<path d="M477.301 56.621C488.334 47.4683 487.256 48.3077 495.787 60.7603C498.77 67.1364 509.493 47.7556 504.257 52.7715C514.788 56.4234 525.878 60.765 526.802 73.5205C541.523 84.2122 543.261 102.84 543.488 119.665C543.51 121.226 542.638 127.052 542.941 128.008C544.442 129.263 544.591 129.28 544.685 131.351C548.283 131.674 550.098 131.489 552.537 134.43C556.416 139.108 556.863 147.075 556.295 152.829C555.644 159.461 553.001 167.513 547.709 171.934C545.546 173.743 544.426 173.725 541.772 174.176C539.94 193.514 535.812 210.142 520.054 223.062C519.431 223.573 518.797 224.071 518.155 224.558L513.561 227.505L509.89 229.556C508.432 230.195 506.955 230.792 505.463 231.348C488.906 237.482 473.752 236.719 457.782 229.403L455.288 228.13C453.721 227.291 452.285 226.266 450.81 225.269C432.886 211.68 428.215 195.599 426.212 174.008C412.17 171.319 409.045 149.665 412.859 138.418C414.723 132.919 417.394 132.367 422.551 131.154C422.979 131.053 423.046 129.523 423.115 129.079L424.816 127.98C425.04 126.975 424.393 118.676 424.424 116.869C424.498 111.423 424.94 105.578 426.05 100.248C428.046 90.6645 431.851 79.3062 440.592 73.9371C441.987 73.0802 441.769 71.6515 441.975 70.101C442.575 60.2678 456.253 55.5869 463.917 52.6987C457.714 45.7118 471.023 63.0876 477.301 56.621Z" fill="#803C07"/>
<path d="M478.471 60.4829C489.503 51.3301 487.809 46.651 496.339 59.1035C499.323 65.4796 509.494 47.7548 504.258 52.7707C514.789 56.4225 525.879 60.7641 526.803 73.5196C541.524 84.2114 543.262 102.839 543.488 119.664C543.511 121.225 542.639 127.051 542.942 128.007C542.048 128.186 540.194 128.22 539.217 128.267C529.446 128.374 519.602 126.915 509.846 127.45C500.997 127.935 495.337 127.602 489.006 134.411C486.004 134.644 481.82 134.576 478.718 134.6L478.471 134.347C477.329 133.178 475.311 131 473.918 130.408C461.246 125.021 442.103 128.389 428.763 128.227C427.008 128.295 426.502 128.23 424.816 127.979C425.04 126.975 424.394 118.675 424.425 116.868C424.499 111.422 424.941 105.577 426.051 100.247C428.047 90.6636 431.851 79.3053 440.593 73.9362C441.988 73.0793 441.77 71.6507 441.976 70.1001C442.576 60.267 456.254 55.586 463.918 52.6979C457.715 45.7109 472.193 66.9495 478.471 60.4829Z" fill="#FEBC8A"/>
<path d="M482.268 62.4151C493.3 53.2624 486.153 51.3419 494.684 63.7945C497.667 70.1705 509.494 47.7553 504.258 52.7712C514.788 56.423 525.879 60.7646 526.803 73.5201C525.948 79.004 524.935 81.1086 520.954 85.102C514.677 90.5361 509.176 93.9948 501.075 96.2545C482.61 101.404 461.813 98.1709 447.644 84.7918C442.649 79.5221 442.085 77.0324 441.976 70.1006C442.575 60.2675 456.254 55.5865 463.917 52.6984C457.715 45.7114 475.99 68.8817 482.268 62.4151Z" fill="#FEBC8A"/>
<path d="M474.543 64.3456C485.575 55.1928 483.119 57.4109 491.649 69.8635C494.632 76.2396 509.493 47.7548 504.257 52.7707C493.585 49.5509 474.324 49.2651 463.917 52.6979C457.714 45.711 468.265 70.8122 474.543 64.3456Z" fill="#803C07"/>
<path d="M424.816 127.979C425.04 126.975 424.394 118.676 424.425 116.868C424.499 111.422 424.941 105.577 426.051 100.248C428.047 90.6639 431.851 79.3055 440.593 73.9365C441.988 73.0795 441.77 71.6509 441.976 70.1003C442.085 77.0321 442.649 79.5218 447.644 84.7916C435.044 96.5329 429.356 110.188 428.78 127.494C428.772 127.738 428.766 127.983 428.763 128.227C427.008 128.295 426.502 128.231 424.816 127.979Z" fill="#A06A48"/>
<path d="M526.803 73.5203C541.524 84.212 543.262 102.84 543.488 119.664C543.51 121.226 542.638 127.051 542.942 128.008C542.048 128.187 540.194 128.221 539.217 128.268C538.698 110.223 534.505 97.7125 520.953 85.1021C524.935 81.1087 525.948 79.0041 526.803 73.5203Z" fill="#A06A48"/>
<path d="M500.525 111.86C507.831 110.143 523.864 110.163 529.414 118.491C529.76 119.009 529.462 119.528 529.219 120.015C527.85 121.053 527.579 121.318 525.854 121.685C517.457 120.666 510.983 120.758 502.553 121.613C496.876 122.189 493.958 115.576 500.525 111.86Z" fill="#4E2606"/>
<path d="M462.578 110.787C470.176 111.686 475.097 117.621 467.626 120.746C465.148 121.782 451.934 120.799 446.818 121.449C446.105 121.572 445.391 121.682 444.674 121.777C442.417 122.066 439.091 122.17 438.839 119.292C441.661 111.85 455.773 110.295 462.578 110.787Z" fill="#4E2606"/>
<path d="M489.006 134.412C495.338 127.604 500.997 127.936 509.846 127.451C519.603 126.916 529.446 128.375 539.218 128.269C540.194 128.222 542.048 128.187 542.942 128.008C544.443 129.264 544.592 129.281 544.686 131.351C548.284 131.674 550.099 131.489 552.538 134.43C556.417 139.108 556.864 147.075 556.296 152.829C555.645 159.461 553.002 167.513 547.71 171.935C545.547 173.743 544.427 173.725 541.772 174.176L541.778 165.555C541.811 161.795 541.767 149.798 540.305 146.84C537.308 160.982 535.62 169.775 524.825 180.426C515.595 173.54 508.777 172.042 497.672 170.775C496.873 170.766 494.732 170.668 494.226 171.2C489.802 175.965 482.234 177.982 476.7 173.946C473.528 171.633 474.488 170.958 470.472 170.793C471.578 170.625 472.286 170.456 473.368 170.169C473.788 166.775 473.646 163.085 474.065 159.422C469.712 165.251 464.358 167.698 457.204 168.418C431.924 170.964 430.379 158.245 428.416 137.899C423.901 134.796 423.298 134.556 423.116 129.079L424.817 127.98C426.502 128.232 427.008 128.296 428.764 128.228C442.103 128.391 461.246 125.022 473.918 130.409C475.312 131.002 477.329 133.179 478.471 134.348L478.718 134.602C481.821 134.577 486.004 134.645 489.006 134.412Z" fill="#841D13"/>
<path d="M539.388 137.693C542.793 135.456 543.212 135.115 544.685 131.35C548.283 131.674 550.099 131.489 552.538 134.429C556.417 139.107 556.864 147.074 556.295 152.828C555.644 159.46 553.001 167.513 547.709 171.934C545.546 173.743 544.426 173.724 541.772 174.175L541.777 165.554C541.81 161.794 541.766 149.797 540.304 146.839C537.308 160.981 535.619 169.775 524.824 180.425C515.595 173.539 508.776 172.041 497.671 170.774C496.324 170.547 494.674 170.686 493.507 170.092C493.569 166.537 493.725 165.417 493.109 161.758C492.754 159.649 491.741 156.121 491.831 154.294C495.226 162.019 501.105 167.003 509.47 168.031C537.843 171.518 536.204 157.747 539.388 137.693Z" fill="#FEBC8A"/>
<path d="M540.304 146.84C541.341 144.392 542.152 141.768 544.845 140.749C548.222 139.472 549.64 143.61 549.938 146.133C550.622 151.985 548.432 157.877 544.966 162.517C543.758 164.15 542.5 164.733 541.777 165.554C541.81 161.795 541.766 149.797 540.304 146.84Z" fill="#F59C5F"/>
<path d="M474.064 159.422C474.431 158.288 475.745 156.023 476.279 154.417C477.655 150.276 478.503 146.322 479.437 142.087C480.936 140.353 484.589 139.357 486.435 140.596C489.884 142.912 490.47 150.153 491.83 154.295C491.741 156.121 492.754 159.65 493.109 161.759C493.725 165.418 493.569 166.538 493.506 170.093C494.674 170.686 496.324 170.547 497.671 170.775C496.872 170.766 494.731 170.667 494.225 171.199C489.801 175.965 482.233 177.982 476.699 173.946C473.527 171.633 474.487 170.958 470.471 170.793C471.577 170.624 472.285 170.456 473.367 170.169C473.787 166.775 473.645 163.085 474.064 159.422Z" fill="#F59C5F"/>
<path d="M441.022 131.247C448.877 130.575 458.606 131.009 466.448 131.776C476.456 132.755 476.641 140.412 474.727 148.374C473.205 154.704 470.896 159.096 465.222 162.615C458.422 165.469 447.211 166.558 440.032 162.516C432.969 158.541 430.628 141.363 433.757 134.295C434.681 132.208 438.777 131.61 441.022 131.247Z" fill="#FEBC8A"/>
<path d="M504.753 131.29C510.53 130.594 526.699 130.51 531.817 132.759C537.947 135.452 534.824 153.582 531.966 158.168C529.513 162.106 527.882 162.951 523.438 164.101L523.2 164.153C506.981 167.586 494.083 161.002 492.679 143.453C491.828 132.811 495.41 132.497 504.753 131.29Z" fill="#FEBC8A"/>
<path d="M426.212 174.008C412.17 171.319 409.045 149.665 412.859 138.418C414.723 132.919 417.394 132.367 422.551 131.154C422.979 131.053 423.046 129.523 423.115 129.079C423.297 134.556 423.9 134.796 428.416 137.898C430.378 158.244 431.923 170.964 457.203 168.418C464.357 167.697 469.711 165.251 474.064 159.422C473.645 163.085 473.787 166.774 473.367 170.168C472.285 170.455 471.577 170.624 470.471 170.792C460.129 171.542 451.253 173.817 443.02 180.477C431.056 170.613 430.785 158.983 427.465 146.344C426.356 151.631 425.976 160.253 425.935 165.731C426.026 168.053 426.293 171.793 426.212 174.008Z" fill="#FEBC8A"/>
<path d="M425.936 165.73C409.895 151.351 421.371 130.284 427.466 146.343C426.357 151.631 425.977 160.253 425.936 165.73Z" fill="#F59C5F"/>
<path d="M460.845 183.169C470.235 187.071 477.203 191.004 487.689 192.137C490.383 192.429 492.127 192.62 494.911 192.69C498.703 192.786 506.761 191.455 509.83 192.719C512.456 196.346 506.2 201.452 503.554 203.462C498.282 206.525 494.337 207.728 487.589 207.983C475.915 208.426 459.959 200.005 459.072 187.059C458.942 185.15 459.52 184.426 460.845 183.169Z" fill="white"/>
<path d="M424.88 127.978L429.571 128.254C430.158 125.705 435.676 101.889 441.71 91.5588C446.781 94.3749 451.856 95.3524 457.642 95.8059C463.935 96.6174 470.288 96.8665 476.626 96.5502C489.708 95.8659 502.606 93.1728 514.866 88.5657C517.646 87.5282 527.296 83.1074 527.567 84.0547C504.892 78.3155 538.528 108.69 537.724 128.254H542.966C548.142 106.556 545.15 106.948 544.292 99.8883C543.743 93.1854 541.486 86.7336 537.737 81.1451C542.845 78.5513 550.213 72.687 549.851 66.1686C549.851 66.0333 549.851 65.9656 549.851 66.1686C549.648 64.0484 545.941 66.8227 544.992 67.3189C545.354 66.1009 546.077 62.4922 543.727 63.3492C543.727 62.6951 543.885 60.9133 543.026 60.6201C542.167 60.3269 540.924 61.6125 540.359 62.0185C539.277 62.8153 538.127 63.5172 536.924 64.1161C535.703 63.5297 534.46 62.9207 533.217 62.4019C530.731 61.3644 528.223 60.3945 525.669 59.5375C523.068 58.4895 520.584 57.1743 518.256 55.6129C508.108 49.5456 497.125 44.1324 485.146 43.1851C472.849 42.1701 460.57 45.3509 450.319 52.2071C445.77 55.2023 441.828 59.0286 438.703 63.4846C437.075 65.898 431.923 75.2357 437.573 76.183C419.515 89.1296 424.474 125.61 424.88 127.978Z" fill="#663B13"/>
<path d="M465.867 150.5C465.867 150.5 463.371 143.183 456.162 143.506C454.338 143.397 452.545 144.004 451.161 145.199C449.777 146.394 448.911 148.083 448.745 149.909C448.745 149.909 454.55 142.207 465.867 150.5Z" fill="black"/>
<path d="M508.697 137.358C518.26 138.597 518.552 150.279 510.642 154.697C502.321 154.604 500.343 141.696 508.697 137.358Z" fill="#0D0D0C"/>
<path d="M509.214 140.528C509.89 140.019 510.788 139.916 511.562 140.257C512.336 140.598 512.865 141.331 512.946 142.174C513.026 143.016 512.646 143.836 511.95 144.318C510.904 145.044 509.47 144.798 508.724 143.766C507.978 142.733 508.196 141.293 509.214 140.528Z" fill="white"/>
<defs>
<clipPath id="clip0_6_429">
<rect width="854" height="521" fill="white"/>
</clipPath>
</defs>
</svg>
