<svg width="22" height="22" viewBox="0 0 22 22" fill="none" xmlns="http://www.w3.org/2000/svg">
<path d="M0.75 14.75C0.75 11.922 0.75 10.507 1.629 9.629C2.507 8.75 3.922 8.75 6.75 8.75H14.75C17.578 8.75 18.993 8.75 19.871 9.629C20.75 10.507 20.75 11.922 20.75 14.75C20.75 17.578 20.75 18.993 19.871 19.871C18.993 20.75 17.578 20.75 14.75 20.75H6.75C3.922 20.75 2.507 20.75 1.629 19.871C0.75 18.993 0.75 17.578 0.75 14.75Z" stroke="black" stroke-width="1.5"/>
<path d="M4.75 8.75V6.75C4.75 5.1587 5.38214 3.63258 6.50736 2.50736C7.63258 1.38214 9.1587 0.75 10.75 0.75C12.3413 0.75 13.8674 1.38214 14.9926 2.50736C16.1179 3.63258 16.75 5.1587 16.75 6.75V8.75" stroke="black" stroke-width="1.5" stroke-linecap="round"/>
<path d="M6.75 14.75H6.759M10.741 14.75H10.75M14.741 14.75H14.75" stroke="black" stroke-width="2" stroke-linecap="round" stroke-linejoin="round"/>
</svg>
