<svg width="106" height="68" viewBox="0 0 106 68" fill="none" xmlns="http://www.w3.org/2000/svg">
<g clip-path="url(#clip0_2231_8477)">
<path d="M71.6863 49.1885C71.1533 50.5684 70.6732 51.8234 70.178 53.0747C68.6999 56.8399 67.0177 60.503 64.4357 63.6596C62.9311 65.4968 61.2527 67.2093 58.8295 67.7537C55.4423 68.5135 51.8888 67.3076 50.8568 63.7352C50.1197 61.1835 51.3709 58.042 53.5484 57.0403C54.3309 56.6811 55.1324 56.5753 55.9527 56.889C56.2627 57.01 56.4895 57.2255 56.5273 57.5771C56.5613 57.8757 56.4366 58.129 56.1757 58.2424C54.501 58.9758 54.3725 60.5106 54.2326 62.0189C54.1495 62.896 54.4217 63.6671 54.9698 64.3892C55.9565 65.6972 58.304 65.4401 59.4722 64.7634C61.4871 63.5915 62.8366 61.7959 64.1219 59.9209C66.9307 55.8116 68.7301 51.2223 70.5258 46.6293C70.9416 45.567 71.3726 44.5085 71.7241 43.4236C72.1286 42.1836 71.554 41.0117 70.4502 40.6148C69.7886 40.3766 69.1838 40.6413 68.613 40.8681C65.9781 41.9228 62.296 46.2021 62.8102 49.6649C62.8744 50.0883 62.95 50.4738 63.2562 50.7838C63.5738 51.1014 63.7363 51.4567 63.4982 51.899C63.2373 52.3829 62.7837 52.3564 62.349 52.2922C60.4966 52.0238 59.1886 50.0429 59.5326 48.0204C59.8653 46.0811 60.7083 44.3686 61.9445 42.8603C63.8044 40.5845 66.0575 38.8532 69.0099 38.2823C70.8509 37.927 72.6163 38.082 73.9054 39.7113C74.7635 40.7925 74.9488 42.0967 75.0622 43.4084C75.3722 46.9544 75.0622 50.4852 74.8013 54.016C74.669 55.8041 74.5859 57.5997 74.4989 59.3916C74.4838 59.6903 74.4006 60.0191 74.635 60.3442C75.0508 60.0758 75.2285 59.6525 75.4478 59.2631C76.6008 57.2104 77.697 55.1236 78.9105 53.1087C81.001 49.6346 82.9895 46.1 85.2577 42.7355C85.9495 41.7111 86.6904 40.7131 87.4578 39.7453C88.5768 38.3353 90.0171 37.961 91.4574 38.6452C92.3873 39.0875 92.5877 39.4807 92.2134 40.4409C91.4309 42.4558 90.5501 44.4329 89.813 46.4629C88.0929 51.1959 86.5543 55.9818 86.0402 61.0247C85.9684 61.7241 85.9722 62.4348 86.0213 63.1341C86.1082 64.3552 86.9513 64.7672 88.0135 64.1283C88.3462 63.928 88.6486 63.6785 88.9473 63.4328C89.2232 63.2059 89.5105 62.9791 89.8545 63.2286C90.2023 63.4781 90.0511 63.8448 89.949 64.1661C89.4425 65.7728 87.2197 67.2206 85.6017 67.0089C83.4582 66.7254 82.3015 65.4477 82.2183 63.2286C82.1578 61.6182 82.4035 60.0343 82.7211 58.4579C83.5565 54.3298 84.9515 50.3642 86.2519 46.3684C86.3086 46.1945 86.4523 46.0244 86.301 45.7636C85.08 47.4269 84.0253 49.1621 82.9592 50.8897C80.2147 55.3391 77.9314 60.038 75.3419 64.5706C75.0924 65.0092 74.8429 65.4666 74.4422 65.7992C73.3799 66.6763 72.0266 66.2226 71.7771 64.8693C71.5011 63.3572 71.486 61.8224 71.6296 60.2951C71.9736 56.7076 71.8413 53.1125 71.8376 49.5212C71.8451 49.4683 71.7922 49.4078 71.6863 49.1885Z" fill="white"/>
<path d="M14.9055 51.0228C13.5786 50.9963 12.282 50.8224 11.0987 50.1798C10.5581 49.8887 10.0856 49.4993 9.79073 48.9436C9.49964 48.3992 9.54123 47.8511 9.93816 47.3748C10.2784 46.9665 10.7358 46.8228 11.2499 47.027C13.5673 47.9456 15.9337 47.7301 18.2851 47.2614C22.3716 46.4486 26.2653 44.9667 30.2384 43.7721C34.9638 42.3507 39.727 41.0805 44.6339 40.4417C47.1894 40.109 49.7562 39.8746 52.323 40.3547C53.5554 40.5853 54.7122 41.0238 55.7064 41.8064C56.5494 42.4717 57.0711 43.3298 56.9879 44.445C56.9464 45.031 56.7347 45.5489 56.0769 45.7039C55.4494 45.8475 55.0751 45.5224 54.784 45.0083C53.8692 43.3979 52.2626 43.1219 50.6484 43.0047C48.1836 42.8233 45.7566 43.2504 43.3372 43.6625C36.9409 44.7512 30.8168 46.8153 24.6852 48.868C21.918 49.7942 19.1357 50.6561 16.2097 50.9283C15.775 50.9698 15.3402 50.9925 14.9055 51.0228Z" fill="white"/>
<path d="M105.728 26.6742C105.354 26.3718 104.938 26.4738 104.575 26.7158C104.065 27.056 103.672 27.5286 103.282 27.9897C102.175 29.2977 100.893 30.4092 99.4529 31.3278C98.2508 32.0952 96.973 32.6698 95.4987 32.6169C94.0168 32.5639 93.1133 31.6907 93.0037 30.205C92.9508 29.4981 93.0453 28.8025 93.1549 28.1032C93.2494 27.5021 93.5027 27.3055 94.1265 27.366C97.0675 27.6495 99.3584 26.334 101.26 24.2624C102.375 23.0489 102.984 21.5708 102.946 19.8772C102.904 18.0891 101.744 16.9286 99.9633 16.8718C98.9275 16.8378 98.024 17.2499 97.1091 17.6392C96.4249 18.2139 95.6802 18.7204 95.0867 19.3971C93.6917 20.9924 92.5123 22.72 91.6693 24.6744C91.2837 25.5666 90.7582 26.3756 90.1118 27.1089C89.0684 28.8139 87.8738 30.3978 86.373 31.7323C86.1954 31.891 85.9761 32.0233 85.7568 32.1141C85.0764 32.4014 84.6038 32.1103 84.5358 31.3807C84.4602 30.5868 84.6719 29.8383 84.9214 29.0974C85.7871 26.5532 87.1178 24.2321 88.3615 21.8694C88.8227 20.9886 89.3103 20.1116 89.4729 19.1098C89.5409 18.7053 89.4615 18.3159 89.0873 18.0815C88.7055 17.8396 88.3048 17.8736 87.9116 18.0929C87.4391 18.3537 87.182 18.7998 86.9287 19.2383C86.2974 20.3308 85.7115 21.4536 85.0537 22.531C83.2203 25.5477 81.2658 28.4736 78.6952 30.9271C77.8446 31.7398 76.8844 32.4052 75.7239 32.7C74.5671 32.9949 73.7317 32.6547 73.2327 31.7323C72.1817 29.7854 72.7034 26.7309 74.3365 25.2679C74.6616 24.9768 75.0056 24.7047 75.3232 24.406C79.9541 20.07 83.311 14.8456 85.9118 9.11086C86.7057 7.36436 87.4013 5.57249 87.5752 3.62563C87.7831 1.27049 86.2974 0.000305184 84.0406 0.642959C83.6928 0.741247 83.3563 0.892459 83.035 1.05501C81.5342 1.82242 80.5287 3.10016 79.5798 4.43083C78.2529 6.29453 77.2625 8.36236 76.117 10.3319C75.9923 10.6457 75.8864 10.9708 75.739 11.2732C73.8186 15.2463 72.3103 19.3669 71.3085 23.6726C71.0514 24.7727 70.9985 25.9484 70.318 26.9275C69.4712 28.1447 68.5715 29.3242 67.5735 30.4205C66.9687 31.0858 66.3714 31.7701 65.5511 32.1821C64.6778 32.6206 64.0956 32.2275 64.1675 31.2559C64.228 30.4507 64.4585 29.6758 64.8139 28.95C65.4528 27.6382 66.1105 26.3378 66.7608 25.0335C67.0897 24.3758 67.3467 23.6991 67.4261 22.9619C67.5357 21.9261 67.1804 21.1171 66.2882 20.5388C65.6985 20.1569 65.0332 20.036 64.3792 19.8621C63.1014 19.5181 63.0712 19.4462 63.4114 18.2025C63.4303 18.1307 63.4454 18.0589 63.4605 17.9908C63.5966 17.3708 63.5135 16.8 62.9162 16.4636C62.3 16.1158 61.6914 16.2368 61.1659 16.698C60.6215 17.1818 60.4061 17.8396 60.3872 18.5314C60.3342 20.346 59.6046 21.9375 58.7503 23.4609C57.4423 25.7934 55.8961 27.9784 54.3462 30.1559C53.9946 30.6473 53.6469 31.1577 53.163 31.5319C52.5506 32.0082 52.0667 31.8532 51.8625 31.0934C51.7756 30.7721 51.7529 30.4205 51.768 30.084C51.8058 29.0709 52.1498 28.1334 52.5695 27.2261C53.5599 25.0902 54.6864 23.0149 55.6051 20.8412C55.813 20.346 56.0133 19.847 56.036 19.3064C56.0549 18.849 55.9453 18.4218 55.4841 18.2025C55.0456 17.9984 54.626 18.0891 54.2555 18.384C53.9266 18.6448 53.6884 18.9775 53.4956 19.348C53.4011 19.5332 53.3671 19.8318 53.1063 19.8167C52.8416 19.8016 52.8568 19.4954 52.7736 19.3026C52.078 17.7035 50.7095 17.0571 49.0273 17.5561C47.7836 17.9228 46.778 18.6713 45.8292 19.5256C44.9219 20.346 44.2755 21.3893 43.4778 22.3004C43.1073 22.9544 42.7217 23.597 42.3702 24.2624C41.3722 26.1525 40.2948 27.9935 38.9906 29.6909C38.2232 30.6927 37.4595 31.702 36.3179 32.3258C36.0003 32.4997 35.6601 32.7038 35.2972 32.443C34.9305 32.1783 35.0401 31.7927 35.112 31.4374C35.4144 29.9328 35.9701 28.5077 36.5296 27.0863C37.0777 25.6875 37.675 24.3002 37.8603 22.788C38.0455 21.2495 37.6977 20.5614 36.4313 19.9604C34.8776 19.881 33.6981 20.6559 32.6056 21.635C30.4773 23.5403 28.8064 25.8501 26.9427 27.986C26.765 28.1901 26.6403 28.4661 26.2018 28.5606C26.7499 27.0863 27.1695 25.7631 28.3641 24.6858C32.0613 21.3591 35.1762 17.5107 37.985 13.4129C39.3043 11.4849 40.5027 9.48889 41.255 7.25851C41.565 6.33233 41.8145 5.39859 41.6065 4.40437C41.3986 3.42527 40.8618 2.86956 39.8752 2.68055C38.794 2.47263 37.8603 2.89603 36.9983 3.45551C35.8227 4.21914 34.9192 5.27384 34.1291 6.42306C32.1709 9.26964 30.5189 12.2901 29.0748 15.4278C28.4246 16.8378 27.7895 18.2517 27.1468 19.6655C26.5193 21.3213 25.888 22.9771 25.2718 24.6366C25.0147 25.3284 24.6292 25.937 24.1453 26.4927C22.3685 28.5266 20.4633 30.4318 18.4219 32.1935C16.6111 33.7547 14.6643 35.1119 12.3469 35.849C8.63465 37.0323 5.49699 35.4672 4.26839 31.7701C3.64464 29.8912 3.54635 27.9519 3.89036 26.0126C4.94128 20.0889 7.47031 14.8002 10.9406 9.93497C12.7703 7.36814 14.8873 5.06971 17.6318 3.43283C18.5844 2.86578 19.6089 2.49153 20.743 2.57848C21.4764 2.63518 22.119 2.87334 22.4706 3.59538C22.6747 3.7844 22.773 4.0339 22.8562 4.2834C23.4081 5.95808 23.1284 7.57227 22.4782 9.15623C22.0018 10.6457 21.2307 11.931 19.9567 12.8912C19.2687 13.4129 19.1175 14.0101 19.4048 14.6793C19.6958 15.3635 20.3045 15.6659 21.1475 15.5336C21.8998 15.4164 22.5046 15.0044 23.0301 14.4902C25.3966 12.1729 26.4248 9.28098 26.5344 6.03369C26.5874 4.48754 26.2055 3.03968 25.1546 1.8451C23.6954 0.185541 21.7675 -0.097983 19.711 0.00786581C18.1043 0.0910327 16.63 0.627837 15.1897 1.29317C13.0274 2.6314 11.0843 4.23426 9.40583 6.14332C5.6482 10.4151 3.0171 15.3068 1.28194 20.6862C0.174308 24.1225 -0.4003 27.6268 0.317959 31.237C1.31596 36.2724 5.1492 39.308 10.2602 39.0623C12.3961 38.9602 14.3278 38.1701 16.1083 37.0171C18.3236 35.5844 20.2364 33.7925 22.085 31.9213C22.2702 31.7323 22.4139 31.4525 22.7428 31.4374C22.8184 31.7058 22.7012 31.9024 22.6369 32.1065C22.3799 32.942 22.0812 33.7661 21.8733 34.6129C21.7448 35.1383 21.8809 35.6562 22.4517 35.8868C22.9847 36.1061 23.4648 35.9398 23.8277 35.5126C24.0621 35.2366 24.2511 34.9191 24.4477 34.6166C26.6743 31.1539 29.2033 27.9255 32.1028 25.0033C32.8816 24.217 33.6452 23.3778 34.6697 22.8712C34.8587 22.7767 35.0779 22.6368 35.2783 22.8145C35.4522 22.9695 35.3501 23.185 35.2972 23.3626C35.0628 24.1527 34.8322 24.9466 34.56 25.7253C33.9741 27.4 33.3088 29.0445 32.908 30.7796C32.6964 31.6869 32.5867 32.598 32.8816 33.5128C33.2747 34.7414 34.4844 35.3765 35.713 34.9909C36.178 34.8435 36.6052 34.6129 37.0059 34.3293C37.8603 33.7207 38.6163 33.0024 39.293 32.201C39.3951 32.0801 39.4858 31.8759 39.6861 31.9288C39.8865 31.9818 39.8714 32.1972 39.8903 32.356C40.2154 34.8057 42.5176 35.849 44.7858 34.594C46.2148 33.8039 47.3451 32.6811 48.4036 31.4639C48.7135 31.1085 49.0008 30.7305 49.3902 30.2542C49.4583 30.9649 49.4885 31.513 49.5641 32.0574C49.8363 33.9891 51.4921 34.8359 53.2235 33.94C53.7678 33.6564 54.2366 33.2708 54.6713 32.8475C57.5519 30.0462 59.6198 26.6893 61.2793 23.064C61.9257 21.6539 61.8993 21.6426 63.3471 22.2021C64.606 22.686 64.829 23.1207 64.3376 24.3682C63.8235 25.68 63.2299 26.9577 62.6894 28.2582C62.145 29.5661 61.6914 30.8892 61.7707 32.3447C61.869 34.1176 63.0636 35.0438 64.7912 34.6053C65.9253 34.318 66.8742 33.6829 67.721 32.9004C68.5413 32.1405 69.3238 31.3429 70.0232 30.4696C70.1252 30.3411 70.2273 30.1483 70.4163 30.1861C70.662 30.2353 70.6242 30.4923 70.6394 30.67C70.7074 31.3769 70.8397 32.0611 71.1006 32.7265C71.7394 34.3596 73.021 35.2026 74.775 35.1459C75.9091 35.1081 76.8882 34.6318 77.822 34.0458C79.3379 33.0932 80.6043 31.857 81.7686 30.5112C81.8971 30.3638 81.9765 30.1029 82.3357 30.1937C82.2411 31.0707 82.1088 31.9629 82.3735 32.8437C82.8384 34.3823 84.2976 35.0703 85.7757 34.439C86.7548 34.0194 87.5676 33.3691 88.2632 32.5791C88.9058 31.8495 89.522 31.1009 90.1533 30.36C90.2478 30.2504 90.3272 30.1029 90.4974 30.1408C90.641 30.171 90.6448 30.3184 90.6523 30.4394C90.7355 31.7814 91.3101 32.9117 92.1569 33.9211C92.7126 34.2651 93.2419 34.6469 93.8959 34.8132C95.4193 35.195 96.8861 35.0438 98.2961 34.3709C101.162 33.0062 103.434 30.9082 105.456 28.5152C105.641 28.296 105.766 28.0238 105.879 27.7554C106.042 27.3698 106.08 26.9653 105.728 26.6742ZM94.3911 24.7689C95.2492 23.098 96.2396 21.5254 97.6459 20.2514C97.9332 19.9906 98.2735 19.7978 98.6477 19.6693C99.6949 19.3177 100.315 19.7638 100.311 20.981C100.258 22.2021 99.6003 23.2001 98.5797 24.0015C97.4947 24.8559 96.251 25.2717 94.8787 25.3171C94.5234 25.3246 94.1038 25.3284 94.3911 24.7689ZM73.8299 22.8863C74.0227 21.8808 74.2798 20.8941 74.6314 19.9339C76.4875 14.9023 78.6536 10.0295 81.8896 5.69724C82.4869 4.89581 83.1409 4.14353 83.9876 3.5916C84.2561 3.41771 84.5396 3.22869 84.8647 3.40259C85.2049 3.58404 85.1293 3.94317 85.1633 4.29096C84.9592 5.73882 84.4262 7.1262 83.8327 8.47955C81.7535 13.2163 79.2207 17.6884 75.8562 21.6464C75.3837 22.2021 74.8771 22.7276 74.2798 23.1547C74.1664 23.2341 74.0416 23.374 73.8942 23.2795C73.7506 23.1963 73.7997 23.0262 73.8299 22.8863ZM30.3148 18.1609C31.9894 14.4902 33.9023 10.9557 36.2347 7.65544C36.6997 7.00145 37.2554 6.41928 37.9056 5.94296C38.2005 5.72748 38.5445 5.50822 38.9112 5.73882C39.3157 5.99588 39.2325 6.42684 39.1229 6.79731C38.6314 8.45687 37.9094 10.0257 36.9983 11.4925C34.9078 14.8607 32.4846 17.9795 29.7553 20.8563C29.623 20.9962 29.4755 21.1247 29.3281 21.2495C29.2978 21.2759 29.2411 21.2759 29.0408 21.3251C29.3848 20.1683 29.8573 19.1665 30.3148 18.1609ZM50.1614 25.2717C49.0916 27.1543 47.9083 28.9651 46.4832 30.6019C45.8745 31.3013 45.16 31.8873 44.3359 32.3295C43.8294 32.5979 43.2737 32.8399 42.7595 32.4656C42.2568 32.0989 42.287 31.4828 42.3437 30.9233C42.4874 29.5775 42.941 28.3186 43.5269 27.1127C44.5628 24.9806 45.8254 22.9997 47.5341 21.3326C47.9915 20.8865 48.4943 20.5085 49.0727 20.2401C50.426 19.6126 51.3938 20.2325 51.4165 21.8543C51.2766 23.0073 50.7889 24.1679 50.1614 25.2717Z" fill="white"/>
<path d="M88.7406 13.4354C88.7822 12.4789 89.1489 11.6926 90.0146 11.2201C91.0504 10.653 92.158 11.1369 92.4529 12.2861C92.7213 13.3408 92.4037 14.2557 91.6401 14.9966C91.1184 15.5032 90.4606 15.7376 89.7575 15.3898C88.9712 14.9928 88.7104 14.2821 88.7406 13.4354Z" fill="white"/>
</g>
<defs>
<clipPath id="clip0_2231_8477">
<rect width="106" height="67.97" fill="white"/>
</clipPath>
</defs>
</svg>
