<svg width="69" height="69" viewBox="0 0 69 69" fill="none" xmlns="http://www.w3.org/2000/svg">
<circle cx="34.5" cy="34.5" r="32" fill="#A09060" stroke="white" stroke-width="5"/>
<g clip-path="url(#clip0_4_176)">
<path d="M42.4322 41.1322C42.206 41.718 42.0021 42.2508 41.7919 42.782C41.1644 44.3804 40.4502 45.9355 39.3541 47.2756C38.7154 48.0555 38.0028 48.7825 36.9741 49.0136C35.5362 49.3362 34.0276 48.8243 33.5895 47.3077C33.2766 46.2244 33.8078 44.8908 34.7322 44.4655C35.0644 44.313 35.4046 44.2681 35.7528 44.4013C35.8844 44.4526 35.9807 44.5441 35.9968 44.6934C36.0112 44.8202 35.9583 44.9277 35.8475 44.9758C35.1366 45.2872 35.082 45.9387 35.0226 46.5791C34.9873 46.9514 35.1029 47.2788 35.3356 47.5853C35.7545 48.1406 36.7511 48.0315 37.247 47.7442C38.1024 47.2467 38.6753 46.4844 39.2209 45.6884C40.4133 43.9439 41.1772 41.9956 41.9395 40.0457C42.1161 39.5948 42.299 39.1454 42.4483 38.6848C42.62 38.1584 42.3761 37.6609 41.9074 37.4924C41.6266 37.3913 41.3698 37.5036 41.1275 37.5999C40.0089 38.0477 38.4458 39.8644 38.664 41.3344C38.6913 41.5142 38.7234 41.6779 38.8534 41.8095C38.9882 41.9443 39.0572 42.0951 38.9561 42.2829C38.8454 42.4883 38.6528 42.4771 38.4683 42.4498C37.6819 42.3358 37.1266 41.4949 37.2726 40.6363C37.4139 39.813 37.7718 39.086 38.2965 38.4457C39.0861 37.4796 40.0426 36.7446 41.296 36.5022C42.0776 36.3514 42.827 36.4172 43.3743 37.1089C43.7386 37.5678 43.8172 38.1215 43.8654 38.6784C43.997 40.1837 43.8654 41.6827 43.7546 43.1816C43.6985 43.9407 43.6632 44.703 43.6262 45.4637C43.6198 45.5905 43.5845 45.7301 43.684 45.8681C43.8606 45.7542 43.936 45.5744 44.0291 45.4091C44.5185 44.5377 44.9839 43.6518 45.4991 42.7964C46.3866 41.3216 47.2307 39.821 48.1936 38.3927C48.4873 37.9578 48.8019 37.5341 49.1277 37.1233C49.6027 36.5247 50.2142 36.3658 50.8256 36.6563C51.2204 36.8441 51.3055 37.011 51.1466 37.4186C50.8144 38.274 50.4404 39.1133 50.1275 39.9751C49.3973 41.9844 48.7441 44.0161 48.5259 46.157C48.4954 46.4539 48.497 46.7556 48.5178 47.0525C48.5547 47.5709 48.9126 47.7458 49.3636 47.4746C49.5048 47.3895 49.6332 47.2836 49.76 47.1793C49.8771 47.083 49.9991 46.9867 50.1451 47.0926C50.2928 47.1985 50.2286 47.3542 50.1853 47.4906C49.9702 48.1727 49.0266 48.7873 48.3397 48.6975C47.4297 48.5771 46.9387 48.0347 46.9033 47.0926C46.8777 46.409 46.982 45.7365 47.1168 45.0673C47.4715 43.3148 48.0637 41.6313 48.6157 39.935C48.6398 39.8612 48.7008 39.789 48.6366 39.6782C48.1182 40.3844 47.6705 41.121 47.2179 41.8544C46.0528 43.7433 45.0834 45.7381 43.9841 47.6623C43.8782 47.8485 43.7723 48.0427 43.6022 48.1839C43.1512 48.5562 42.5767 48.3637 42.4708 47.7891C42.3536 47.1472 42.3472 46.4956 42.4082 45.8473C42.5542 44.3243 42.498 42.798 42.4964 41.2734C42.4996 41.251 42.4772 41.2253 42.4322 41.1322Z" fill="white"/>
<path d="M18.3267 41.9106C17.7634 41.8994 17.213 41.8256 16.7107 41.5528C16.4812 41.4292 16.2806 41.2639 16.1554 41.028C16.0318 40.7969 16.0495 40.5642 16.218 40.362C16.3624 40.1886 16.5566 40.1277 16.7749 40.2143C17.7586 40.6043 18.7633 40.5128 19.7615 40.3138C21.4963 39.9688 23.1493 39.3397 24.836 38.8325C26.8421 38.2291 28.8642 37.6899 30.9473 37.4187C32.0322 37.2774 33.1219 37.1779 34.2115 37.3818C34.7347 37.4797 35.2258 37.6658 35.6479 37.998C36.0058 38.2805 36.2272 38.6448 36.1919 39.1182C36.1743 39.367 36.0844 39.5868 35.8052 39.6526C35.5388 39.7136 35.3799 39.5756 35.2563 39.3573C34.8679 38.6737 34.1859 38.5565 33.5006 38.5068C32.4542 38.4297 31.4239 38.6111 30.3968 38.786C27.6814 39.2482 25.0816 40.1244 22.4785 40.9959C21.3037 41.3891 20.1226 41.755 18.8804 41.8705C18.6959 41.8882 18.5113 41.8978 18.3267 41.9106Z" fill="white"/>
<path d="M56.8836 31.5739C56.7247 31.4455 56.5482 31.4888 56.3941 31.5915C56.1775 31.7359 56.0105 31.9366 55.8452 32.1323C55.375 32.6876 54.831 33.1595 54.2195 33.5494C53.7092 33.8752 53.1668 34.1192 52.5409 34.0967C51.9118 34.0742 51.5282 33.7035 51.4817 33.0728C51.4592 32.7727 51.4993 32.4774 51.5459 32.1805C51.586 31.9253 51.6935 31.8419 51.9583 31.8675C53.2069 31.9879 54.1794 31.4294 54.9867 30.55C55.4601 30.0348 55.7185 29.4073 55.7024 28.6883C55.6848 27.9292 55.1921 27.4366 54.4362 27.4125C53.9965 27.398 53.6129 27.573 53.2245 27.7383C52.9341 27.9822 52.6179 28.1973 52.3659 28.4845C51.7737 29.1618 51.273 29.8952 50.9152 30.7249C50.7515 31.1036 50.5284 31.4471 50.254 31.7584C49.811 32.4822 49.3039 33.1546 48.6668 33.7211C48.5913 33.7886 48.4982 33.8447 48.4052 33.8832C48.1163 34.0052 47.9157 33.8816 47.8868 33.5719C47.8547 33.2349 47.9446 32.9171 48.0505 32.6026C48.418 31.5225 48.9829 30.5371 49.5109 29.5341C49.7067 29.1602 49.9137 28.7878 49.9827 28.3626C50.0116 28.1908 49.9779 28.0255 49.819 27.926C49.6569 27.8233 49.4868 27.8378 49.3199 27.9309C49.1193 28.0416 49.0102 28.231 48.9027 28.4171C48.6347 28.8809 48.3859 29.3576 48.1067 29.8149C47.3283 31.0956 46.4986 32.3378 45.4073 33.3793C45.0462 33.7244 44.6386 34.0068 44.1459 34.132C43.6548 34.2572 43.3001 34.1127 43.0883 33.7211C42.6421 32.8947 42.8636 31.5979 43.5569 30.9769C43.6949 30.8533 43.841 30.7377 43.9758 30.6109C45.9417 28.7702 47.3668 26.5523 48.471 24.1177C48.808 23.3763 49.1033 22.6156 49.1771 21.7891C49.2654 20.7893 48.6347 20.25 47.6766 20.5229C47.5289 20.5646 47.3861 20.6288 47.2497 20.6978C46.6125 21.0236 46.1857 21.566 45.7828 22.1309C45.2195 22.9221 44.7991 23.8 44.3128 24.6361C44.2598 24.7693 44.2149 24.9073 44.1523 25.0357C43.337 26.7224 42.6967 28.4717 42.2714 30.2996C42.1623 30.7666 42.1398 31.2657 41.851 31.6814C41.4915 32.1981 41.1095 32.6989 40.6858 33.1643C40.4291 33.4467 40.1755 33.7372 39.8272 33.9121C39.4565 34.0983 39.2094 33.9314 39.2399 33.5189C39.2655 33.1771 39.3634 32.8481 39.5143 32.54C39.7855 31.9831 40.0648 31.431 40.3408 30.8774C40.4804 30.5981 40.5895 30.3108 40.6232 29.9979C40.6698 29.5582 40.5189 29.2147 40.1402 28.9692C39.8898 28.8071 39.6074 28.7557 39.3297 28.6819C38.7873 28.5359 38.7745 28.5054 38.9189 27.9774C38.9269 27.9469 38.9333 27.9164 38.9398 27.8875C38.9975 27.6243 38.9622 27.382 38.7087 27.2392C38.4471 27.0915 38.1887 27.1429 37.9656 27.3387C37.7345 27.5441 37.643 27.8233 37.635 28.117C37.6125 28.8873 37.3028 29.563 36.9401 30.2097C36.3848 31.1999 35.7285 32.1275 35.0705 33.0519C34.9212 33.2606 34.7736 33.4772 34.5681 33.6361C34.3082 33.8383 34.1027 33.7725 34.0161 33.4499C33.9792 33.3135 33.9695 33.1643 33.976 33.0214C33.992 32.5913 34.138 32.1933 34.3162 31.8082C34.7367 30.9014 35.2149 30.0204 35.6049 29.0976C35.6931 28.8873 35.7782 28.6755 35.7878 28.446C35.7959 28.2518 35.7493 28.0705 35.5535 27.9774C35.3674 27.8907 35.1892 27.9292 35.0319 28.0544C34.8923 28.1652 34.7912 28.3064 34.7094 28.4637C34.6693 28.5423 34.6548 28.6691 34.5441 28.6627C34.4317 28.6562 34.4382 28.5263 34.4028 28.4444C34.1076 27.7656 33.5266 27.4911 32.8124 27.703C32.2844 27.8586 31.8576 28.1764 31.4547 28.5391C31.0696 28.8873 30.7951 29.3303 30.4565 29.717C30.2992 29.9947 30.1355 30.2675 29.9863 30.55C29.5626 31.3524 29.1052 32.134 28.5516 32.8545C28.2258 33.2798 27.9016 33.7083 27.4169 33.9731C27.2821 34.0469 27.1377 34.1336 26.9836 34.0229C26.828 33.9105 26.8745 33.7468 26.905 33.596C27.0334 32.9572 27.2693 32.3522 27.5068 31.7488C27.7395 31.155 27.9931 30.566 28.0717 29.9241C28.1503 29.2709 28.0027 28.9788 27.4651 28.7236C26.8055 28.6899 26.3048 29.0189 25.841 29.4346C24.9374 30.2434 24.2281 31.224 23.4369 32.1307C23.3615 32.2174 23.3085 32.3346 23.1224 32.3747C23.3551 31.7488 23.5332 31.1871 24.0403 30.7297C25.6099 29.3174 26.9323 27.6837 28.1247 25.944C28.6848 25.1256 29.1935 24.2782 29.5129 23.3314C29.6445 22.9382 29.7504 22.5418 29.6621 22.1197C29.5739 21.704 29.346 21.4681 28.9271 21.3879C28.4681 21.2996 28.0717 21.4794 27.7058 21.7169C27.2067 22.0411 26.8231 22.4888 26.4877 22.9767C25.6564 24.1851 24.9551 25.4674 24.342 26.7994C24.066 27.398 23.7964 27.9983 23.5236 28.5985C23.2572 29.3014 22.9892 30.0043 22.7276 30.7088C22.6184 31.0025 22.4547 31.2609 22.2493 31.4968C21.495 32.3602 20.6862 33.1691 19.8196 33.9169C19.0508 34.5797 18.2244 35.1559 17.2406 35.4688C15.6646 35.9711 14.3326 35.3067 13.811 33.7372C13.5462 32.9396 13.5045 32.1163 13.6505 31.293C14.0967 28.7782 15.1703 26.533 16.6436 24.4676C17.4203 23.3779 18.319 22.4021 19.4842 21.7072C19.8886 21.4665 20.3235 21.3076 20.805 21.3445C21.1163 21.3686 21.3891 21.4697 21.5384 21.7763C21.625 21.8565 21.6668 21.9624 21.7021 22.0683C21.9364 22.7793 21.8176 23.4646 21.5416 24.137C21.3394 24.7693 21.012 25.3149 20.4711 25.7226C20.1791 25.944 20.1149 26.1976 20.2368 26.4817C20.3604 26.7721 20.6188 26.9005 20.9767 26.8444C21.296 26.7946 21.5528 26.6197 21.7759 26.4014C22.7805 25.4177 23.217 24.1899 23.2636 22.8114C23.286 22.155 23.124 21.5403 22.6778 21.0332C22.0583 20.3287 21.2399 20.2083 20.3668 20.2532C19.6848 20.2886 19.0589 20.5164 18.4474 20.7989C17.5295 21.367 16.7046 22.0475 15.992 22.8579C14.3968 24.6714 13.2798 26.7481 12.5432 29.0318C12.073 30.4906 11.829 31.9783 12.1339 33.5109C12.5576 35.6486 14.1849 36.9373 16.3547 36.833C17.2614 36.7896 18.0815 36.4542 18.8374 35.9647C19.7778 35.3565 20.5899 34.5958 21.3747 33.8014C21.4533 33.7211 21.5143 33.6024 21.6539 33.596C21.686 33.7099 21.6363 33.7934 21.609 33.88C21.4999 34.2347 21.3731 34.5846 21.2848 34.944C21.2302 35.1671 21.288 35.387 21.5303 35.4849C21.7566 35.578 21.9604 35.5073 22.1145 35.326C22.214 35.2088 22.2943 35.074 22.3777 34.9456C23.323 33.4756 24.3966 32.1051 25.6275 30.8645C25.9581 30.5307 26.2823 30.1744 26.7172 29.9594C26.7975 29.9193 26.8905 29.8599 26.9756 29.9353C27.0494 30.0011 27.0061 30.0926 26.9836 30.168C26.8841 30.5034 26.7862 30.8404 26.6707 31.171C26.4219 31.882 26.1395 32.5801 25.9694 33.3167C25.8795 33.7019 25.8329 34.0887 25.9581 34.477C26.125 34.9986 26.6386 35.2682 27.1602 35.1045C27.3576 35.0419 27.5389 34.944 27.709 34.8237C28.0717 34.5653 28.3927 34.2604 28.68 33.9202C28.7233 33.8688 28.7618 33.7821 28.8469 33.8046C28.9319 33.8271 28.9255 33.9185 28.9335 33.9859C29.0715 35.0259 30.0489 35.4688 31.0118 34.936C31.6184 34.6006 32.0983 34.124 32.5476 33.6072C32.6792 33.4563 32.8012 33.2959 32.9665 33.0937C32.9954 33.3954 33.0082 33.6281 33.0403 33.8592C33.1559 34.6792 33.8588 35.0387 34.5938 34.6584C34.8249 34.538 35.0239 34.3743 35.2085 34.1946C36.4314 33.0054 37.3092 31.5803 38.0138 30.0412C38.2882 29.4426 38.277 29.4378 38.8916 29.6753C39.426 29.8807 39.5207 30.0653 39.3121 30.5949C39.0938 31.1518 38.8419 31.6942 38.6124 32.2463C38.3813 32.8016 38.1887 33.3633 38.2224 33.9811C38.2641 34.7338 38.7712 35.127 39.5047 34.9408C39.9861 34.8189 40.3889 34.5493 40.7484 34.217C41.0967 33.8945 41.4289 33.5558 41.7258 33.1851C41.7691 33.1306 41.8124 33.0487 41.8927 33.0648C41.997 33.0856 41.9809 33.1948 41.9874 33.2702C42.0163 33.5703 42.0724 33.8608 42.1832 34.1432C42.4544 34.8365 42.9984 35.1944 43.7431 35.1703C44.2245 35.1543 44.6402 34.9521 45.0366 34.7033C45.6801 34.2989 46.2178 33.7741 46.712 33.2028C46.7666 33.1402 46.8003 33.0295 46.9528 33.068C46.9127 33.4403 46.8565 33.819 46.9688 34.193C47.1662 34.8461 47.7857 35.1382 48.4132 34.8702C48.8288 34.6921 49.1739 34.416 49.4692 34.0806C49.742 33.7709 50.0036 33.4531 50.2716 33.1386C50.3117 33.092 50.3454 33.0295 50.4176 33.0455C50.4786 33.0583 50.4802 33.1209 50.4834 33.1723C50.5188 33.742 50.7627 34.2219 51.1222 34.6504C51.3581 34.7964 51.5828 34.9585 51.8604 35.0291C52.5072 35.1912 53.1298 35.127 53.7285 34.8413C54.9449 34.262 55.9094 33.3713 56.768 32.3554C56.8467 32.2623 56.8996 32.1468 56.9478 32.0328C57.0168 31.8692 57.0328 31.6974 56.8836 31.5739ZM52.0706 30.765C52.4349 30.0557 52.8554 29.3881 53.4524 28.8472C53.5744 28.7365 53.7188 28.6546 53.8777 28.6001C54.3222 28.4508 54.5854 28.6402 54.5838 29.157C54.5614 29.6753 54.2821 30.099 53.8488 30.4392C53.3882 30.8019 52.8602 30.9785 52.2777 30.9977C52.1268 31.0009 51.9487 31.0025 52.0706 30.765ZM43.3419 29.9658C43.4237 29.5389 43.5328 29.12 43.6821 28.7124C44.4701 26.5764 45.3896 24.5077 46.7634 22.6685C47.017 22.3283 47.2946 22.009 47.6541 21.7746C47.768 21.7008 47.8884 21.6206 48.0264 21.6944C48.1709 21.7714 48.1388 21.9239 48.1532 22.0715C48.0665 22.6862 47.8403 23.2752 47.5883 23.8497C46.7056 25.8606 45.6304 27.7591 44.2021 29.4394C44.0015 29.6753 43.7864 29.8984 43.5328 30.0797C43.4847 30.1134 43.4317 30.1728 43.3691 30.1327C43.3082 30.0974 43.329 30.0252 43.3419 29.9658ZM24.8684 27.9597C25.5794 26.4014 26.3914 24.9009 27.3816 23.4999C27.579 23.2222 27.8149 22.9751 28.091 22.7729C28.2161 22.6814 28.3622 22.5883 28.5179 22.6862C28.6896 22.7953 28.6543 22.9783 28.6077 23.1356C28.3991 23.8401 28.0926 24.5061 27.7058 25.1288C26.8183 26.5587 25.7896 27.8827 24.6309 29.104C24.5747 29.1634 24.5122 29.2179 24.4496 29.2709C24.4367 29.2821 24.4127 29.2821 24.3276 29.303C24.4736 28.8119 24.6742 28.3866 24.8684 27.9597ZM33.2939 30.9785C32.8397 31.7777 32.3374 32.5464 31.7324 33.2413C31.474 33.5382 31.1707 33.7869 30.8208 33.9747C30.6058 34.0887 30.3699 34.1914 30.1516 34.0325C29.9382 33.8768 29.951 33.6152 29.9751 33.3777C30.036 32.8064 30.2286 32.272 30.4774 31.76C30.9171 30.8549 31.4531 30.0139 32.1785 29.3062C32.3727 29.1168 32.5862 28.9563 32.8317 28.8424C33.4062 28.576 33.8171 28.8392 33.8267 29.5277C33.7673 30.0172 33.5603 30.5098 33.2939 30.9785Z" fill="white"/>
<path d="M49.6718 25.9539C49.6894 25.5478 49.8451 25.214 50.2126 25.0134C50.6523 24.7727 51.1225 24.9781 51.2477 25.466C51.3617 25.9138 51.2269 26.3021 50.9027 26.6167C50.6812 26.8317 50.402 26.9312 50.1035 26.7836C49.7697 26.6151 49.6589 26.3134 49.6718 25.9539Z" fill="white"/>
</g>
<defs>
<clipPath id="clip0_4_176">
<rect width="45" height="28.8552" fill="white" transform="translate(11.9991 20.25)"/>
</clipPath>
</defs>
</svg>
