<svg width="299" height="229" viewBox="0 0 299 229" fill="none" xmlns="http://www.w3.org/2000/svg">
<path d="M275.787 207.023C263.022 210.124 247.659 208.17 235.716 208.17C220.51 208.17 205.306 208.17 190.101 208.17C147.715 208.17 105.329 208.17 62.9432 208.17C49.6582 208.17 35.1602 210.405 22.8436 204.745C11.8002 199.67 3.41073 189.092 0.872956 177.22C-2.23751 162.672 3.16426 146.823 13.8916 136.515C18.9994 131.607 25.137 127.912 30.5776 123.375C36.0182 118.838 40.9373 113.093 42.2617 106.134C43.5037 99.6075 41.4425 92.9749 40.3216 86.4262C39.1318 79.4746 39.3562 72.2248 41.8107 65.6133C54.6887 30.9251 88.9458 40.7622 94.9028 39.6158C105.851 37.5091 111.707 25.9662 119.178 17.6902C128.552 7.30439 142.253 1.21027 156.205 0.171229C184.984 -1.9723 222.293 16.1766 231.274 45.2211C234.433 55.4402 235.493 66.2386 238.956 76.359C242.419 86.4794 249.012 96.3687 259.108 99.9046C263.838 101.561 268.956 101.694 273.841 102.817C280.287 104.3 286.465 107.681 290.367 113.022C294.269 118.363 295.562 125.788 292.763 131.782C290.86 135.857 287.352 138.919 284.675 142.533C281.998 146.146 280.135 151.048 282.106 155.09C283.803 158.569 287.714 160.24 290.783 162.6C298.503 168.534 300.953 179.945 297.409 189.015C293.245 199.673 285.227 204.73 275.787 207.023Z" fill="#E3E3E3" fill-opacity="0.5"/>
<path d="M0.37793 174.397C0.508321 175.343 0.672969 176.285 0.872902 177.221C3.41067 189.092 11.8002 199.67 22.8435 204.745C35.1601 210.405 49.6576 208.171 62.9432 208.171H235.715C247.66 208.171 263.022 210.125 275.787 207.024C285.227 204.731 293.246 199.673 297.409 189.016C299.211 184.406 299.462 179.191 298.261 174.397H0.37793Z" fill="#F1F1F1"/>
<path d="M101.716 220.59C131.553 222.501 166.611 220.055 196.506 221.062C195.715 218.86 181.796 203.847 181.379 203.63C181.049 203.458 132.666 202.204 127.001 202.738C127.001 202.738 106.359 216.841 101.716 220.59Z" fill="#BABABA"/>
<path d="M211.745 28.4678H139.066V204.26H211.745V28.4678Z" fill="#3B2A1F"/>
<path d="M132.807 20.9502V204.26H139.067V28.4678H211.745V204.26H217.516V20.9502H132.807Z" fill="#8B7B70"/>
<path d="M146.39 98.7803L147.633 100.831L148.238 101.885C149.514 101.495 152.468 100.536 153.672 100.438L153.868 100.409C163.393 98.4628 170.481 99.9464 176.598 107.981C184.839 118.806 192.7 130.423 198.842 142.586C199.664 144.213 201.433 147.121 200.09 148.72C200.302 149.107 200.536 149.566 200.764 149.936C201.305 150.806 202.193 151.954 202.132 152.946C201.649 154.128 196.488 157.176 195.262 157.295L195.101 157.384C194.537 158.01 192.799 159.354 192.049 159.941C184.001 166.158 175.282 171.452 166.055 175.728C164.545 176.435 161.705 177.798 160.186 178.147L159.642 178.803C159.579 178.859 159.513 178.915 159.446 178.969C158.311 179.889 173.471 178.967 171.985 178.803C171.159 178.409 164.161 177.648 163.679 176.827C163.386 176.29 159.555 176.97 159.191 176.481C157.393 177.226 153.469 168.235 150.564 164.085C146.743 158.626 148.399 161.155 145.297 155.258C143.754 152.358 139.772 146.442 138.303 143.539C134.608 136.229 121.145 133.213 123.62 124.637C124.811 120.513 126.806 118.026 129.449 114.787L129.568 114.668C130.016 113.894 132.518 111.466 133.22 110.765C132.779 110.136 132.53 109.695 132.161 109.017L131.519 107.848C137.902 107.404 142.867 103.969 146.39 98.7803Z" fill="#D4B57A"/>
<path d="M156.762 174.285C155.584 172.216 154.763 172.228 153.39 169.903L133.123 135.175C132.755 134.535 132.482 134.157 132.662 133.486L132.958 133.382C133.882 133.784 139.802 144.055 140.806 145.747L151.565 163.967C152.873 166.218 154.01 168.607 155.477 170.761C155.694 171.079 155.929 171.272 156.272 171.447C157.401 172.021 159.409 171.394 160.545 170.921C169.919 167.006 178.905 161.784 186.875 155.484C187.948 154.635 191.382 151.943 190.473 150.382C190.009 149.584 189.227 148.416 188.704 147.595C187.473 145.667 186.265 143.725 185.077 141.77C181.029 135.037 177.022 128.281 173.056 121.499L170.102 116.537C169.603 115.703 167.895 113.286 168.252 112.402L168.522 112.432C169.759 113.28 172.777 118.86 173.758 120.508L182.519 135.186C183.88 137.456 185.25 139.78 186.661 142.017C188.335 144.665 190.07 147.165 191.593 149.914C192.147 150.863 192.655 151.752 193.273 152.663C194.648 151.958 195.746 151.377 197.052 150.578C197.623 150.228 199.648 148.892 200.09 148.72C200.302 149.107 200.537 149.566 200.764 149.937C201.305 150.806 202.193 151.954 202.132 152.946C201.65 154.129 196.488 157.176 195.263 157.295L195.101 157.384C194.538 158.01 192.799 159.355 192.049 159.941C184.001 166.158 175.282 171.453 166.055 175.728C164.545 176.435 161.705 177.798 160.186 178.148L159.642 178.803C159.579 178.86 159.513 178.915 159.446 178.969C158.311 179.89 168.205 179.133 166.718 178.969C165.892 178.575 185.407 173.082 167.731 173.082C182.94 170.902 164.651 176.217 164.287 175.728C164.757 175.188 155.27 175.966 156.762 174.285Z" fill="#C8A663"/>
<path d="M157.458 173.248C159.748 172.198 162.211 171.425 164.633 170.305C174.483 165.859 183.604 159.949 191.688 152.774C192.375 153.742 194.121 156.972 194.74 157.397L195.101 157.384C194.538 158.01 192.799 159.355 192.049 159.941C184.001 166.158 175.282 171.452 166.055 175.728C164.545 176.435 161.705 177.798 160.186 178.148C159.347 176.513 158.37 174.848 157.458 173.248Z" fill="#D4B57A"/>
<path d="M193.89 154.022C195.851 153.148 198.87 151.127 200.764 149.937C201.305 150.806 202.193 151.954 202.133 152.946C201.65 154.129 196.488 157.176 195.263 157.295L195.467 157.081C195.419 156.301 194.338 154.742 193.89 154.022Z" fill="#D4B57A"/>
<path d="M146.391 98.7806L147.634 100.832L148.24 101.885C149.515 101.495 152.469 100.536 153.673 100.438C153.339 100.94 153.758 101.396 153.831 101.951C155.156 112.075 141.711 120.801 132.67 116.797C131.623 116.333 130.226 114.787 129.569 114.669C130.017 113.894 132.519 111.466 133.221 110.765C132.78 110.136 132.531 109.695 132.162 109.018L131.52 107.849C137.903 107.404 142.868 103.969 146.391 98.7806Z" fill="#D4B57A"/>
<path d="M146.39 98.78L147.633 100.831L148.239 101.884C148.557 102.6 149.474 104.279 149.392 104.927C148.965 105.402 148.634 106.333 148.226 106.846C144.763 111.195 140.64 113.257 135.056 113.224C134.449 113.028 133.614 111.413 133.22 110.764C132.779 110.135 132.531 109.695 132.161 109.017L131.519 107.848C137.902 107.403 142.868 103.969 146.39 98.78Z" fill="#FEBC8A"/>
<path d="M146.391 98.7804L147.634 100.832C146.754 102.623 145.505 104.21 143.973 105.488C141.346 107.716 136.911 109.91 133.351 109.7C132.596 109.655 132.581 109.522 132.162 109.017L131.52 107.849C137.903 107.404 142.868 103.969 146.391 98.7804Z" fill="#F59C5F"/>
<path d="M129.569 114.668C130.226 114.786 131.623 116.332 132.67 116.797C141.712 120.801 155.156 112.074 153.831 101.95C153.758 101.396 153.339 100.94 153.673 100.438L153.869 100.409C153.971 100.556 154.068 100.705 154.162 100.856C157.243 105.818 151.282 113.51 146.881 116.006C142.605 118.431 136.663 120.047 132.024 117.588C130.737 116.905 130.156 115.995 129.45 114.787L129.569 114.668Z" fill="#C8A663"/>
<g clip-path="url(#clip0_1305_52522)">
<path d="M162.338 132.59C162.408 132.996 162.472 133.366 162.532 133.737C162.716 134.85 162.836 135.968 162.669 137.094C162.571 137.75 162.413 138.4 161.91 138.877C161.206 139.544 160.182 139.764 159.423 139.055C158.882 138.549 158.733 137.618 159.112 137.066C159.248 136.868 159.425 136.728 159.667 136.686C159.758 136.671 159.843 136.69 159.903 136.769C159.954 136.835 159.96 136.914 159.913 136.978C159.617 137.394 159.805 137.78 159.988 138.161C160.093 138.383 160.268 138.529 160.503 138.623C160.927 138.796 161.453 138.398 161.636 138.069C161.952 137.5 162.019 136.877 162.059 136.243C162.145 134.857 161.92 133.5 161.694 132.142C161.642 131.828 161.594 131.513 161.523 131.203C161.443 130.848 161.137 130.649 160.816 130.712C160.623 130.75 160.516 130.9 160.412 131.036C159.931 131.666 159.66 133.218 160.278 133.974C160.354 134.066 160.427 134.148 160.545 134.178C160.666 134.209 160.756 134.271 160.762 134.411C160.769 134.564 160.656 134.622 160.543 134.669C160.06 134.87 159.464 134.583 159.257 134.049C159.059 133.537 159.017 133.006 159.097 132.467C159.218 131.656 159.511 130.919 160.137 130.36C160.528 130.011 160.973 129.796 161.515 130.001C161.876 130.138 162.106 130.424 162.321 130.722C162.903 131.527 163.333 132.417 163.775 133.301C163.999 133.748 164.236 134.19 164.471 134.632C164.51 134.705 164.538 134.796 164.64 134.841C164.702 134.717 164.684 134.59 164.681 134.465C164.663 133.808 164.628 133.152 164.631 132.495C164.635 131.364 164.607 130.232 164.67 129.102C164.689 128.757 164.724 128.412 164.77 128.07C164.836 127.572 165.128 127.277 165.571 127.235C165.858 127.207 165.962 127.273 166.01 127.557C166.11 128.151 166.181 128.751 166.295 129.343C166.559 130.723 166.875 132.09 167.472 133.372C167.555 133.549 167.658 133.719 167.769 133.88C167.965 134.16 168.226 134.138 168.389 133.833C168.44 133.737 168.477 133.634 168.514 133.533C168.547 133.439 168.584 133.343 168.702 133.354C168.821 133.364 168.837 133.473 168.859 133.565C168.967 134.022 168.641 134.687 168.223 134.868C167.668 135.107 167.208 134.966 166.871 134.447C166.626 134.069 166.459 133.655 166.309 133.232C165.92 132.123 165.687 130.973 165.428 129.83C165.416 129.78 165.426 129.719 165.353 129.678C165.298 130.251 165.293 130.818 165.284 131.384C165.263 132.843 165.387 134.295 165.414 135.752C165.417 135.893 165.422 136.038 165.374 136.175C165.245 136.537 164.855 136.622 164.602 136.334C164.32 136.011 164.096 135.645 163.913 135.259C163.482 134.35 162.936 133.508 162.422 132.648C162.416 132.634 162.395 132.627 162.338 132.59Z" fill="white"/>
<path d="M148.983 141.154C148.662 141.337 148.326 141.481 147.95 141.497C147.779 141.504 147.61 141.479 147.46 141.388C147.312 141.299 147.244 141.162 147.271 140.991C147.294 140.844 147.383 140.744 147.536 140.72C148.223 140.608 148.759 140.218 149.256 139.769C150.12 138.99 150.842 138.077 151.623 137.223C152.553 136.206 153.514 135.22 154.599 134.365C155.164 133.92 155.746 133.496 156.43 133.244C156.759 133.123 157.099 133.062 157.449 133.108C157.746 133.146 157.994 133.277 158.134 133.556C158.207 133.703 158.231 133.857 158.095 133.988C157.965 134.113 157.829 134.088 157.686 134.007C157.236 133.752 156.811 133.916 156.408 134.118C155.791 134.428 155.27 134.877 154.749 135.322C153.371 136.498 152.197 137.869 151.02 139.238C150.489 139.856 149.945 140.461 149.283 140.945C149.184 141.017 149.083 141.084 148.983 141.154Z" fill="white"/>
<path d="M167.28 122.324C167.147 122.305 167.062 122.389 167.01 122.499C166.936 122.653 166.909 122.823 166.882 122.989C166.803 123.461 166.655 123.911 166.441 124.337C166.262 124.693 166.038 125.013 165.677 125.211C165.314 125.411 164.973 125.331 164.734 124.991C164.62 124.829 164.544 124.649 164.47 124.465C164.407 124.308 164.439 124.224 164.597 124.15C165.343 123.797 165.704 123.154 165.864 122.385C165.958 121.935 165.893 121.494 165.641 121.093C165.376 120.671 164.932 120.559 164.497 120.8C164.243 120.94 164.086 121.168 163.922 121.392C163.84 121.628 163.734 121.856 163.688 122.103C163.582 122.685 163.546 123.268 163.623 123.856C163.658 124.125 163.648 124.394 163.598 124.663C163.592 125.22 163.532 125.771 163.363 126.305C163.343 126.369 163.309 126.432 163.269 126.485C163.147 126.651 162.992 126.649 162.872 126.484C162.74 126.305 162.684 126.095 162.638 125.882C162.482 125.148 162.469 124.402 162.429 123.658C162.414 123.381 162.405 123.101 162.301 122.837C162.26 122.731 162.185 122.649 162.062 122.646C161.936 122.643 161.844 122.708 161.781 122.817C161.705 122.947 161.708 123.091 161.709 123.232C161.714 123.584 161.734 123.937 161.731 124.289C161.722 125.275 161.672 126.255 161.406 127.211C161.319 127.527 161.184 127.824 160.947 128.061C160.712 128.297 160.463 128.335 160.212 128.185C159.681 127.869 159.37 127.063 159.552 126.479C159.589 126.362 159.632 126.248 159.666 126.131C160.156 124.43 160.214 122.697 160.018 120.951C159.958 120.419 159.869 119.89 159.632 119.399C159.345 118.805 158.808 118.713 158.358 119.19C158.289 119.264 158.23 119.348 158.176 119.433C157.926 119.831 157.868 120.281 157.83 120.736C157.779 121.372 157.837 122.01 157.844 122.645C157.859 122.738 157.88 122.831 157.888 122.925C157.995 124.152 158.223 125.355 158.598 126.53C158.694 126.83 158.849 127.119 158.826 127.451C158.797 127.864 158.75 128.275 158.667 128.681C158.617 128.927 158.572 129.176 158.434 129.392C158.287 129.622 158.092 129.612 157.97 129.368C157.869 129.167 157.814 128.948 157.795 128.723C157.761 128.318 157.733 127.912 157.702 127.507C157.687 127.302 157.652 127.103 157.565 126.915C157.444 126.651 157.243 126.508 156.946 126.497C156.75 126.49 156.573 126.556 156.392 126.608C156.036 126.709 156.019 126.696 155.922 126.349C155.917 126.329 155.91 126.31 155.904 126.291C155.848 126.123 155.746 125.999 155.555 126.003C155.358 126.008 155.229 126.124 155.169 126.31C155.107 126.504 155.15 126.692 155.244 126.861C155.491 127.303 155.544 127.789 155.557 128.276C155.576 129.022 155.518 129.767 155.458 130.51C155.444 130.678 155.433 130.85 155.371 131.009C155.292 131.211 155.154 131.243 154.996 131.09C154.929 131.026 154.874 130.945 154.829 130.862C154.693 130.614 154.642 130.34 154.613 130.063C154.545 129.409 154.518 128.751 154.428 128.098C154.407 127.95 154.384 127.802 154.312 127.669C154.251 127.557 154.163 127.47 154.022 127.483C153.887 127.497 153.8 127.579 153.753 127.703C153.711 127.812 153.702 127.926 153.709 128.042C153.712 128.1 153.747 128.177 153.682 128.21C153.617 128.245 153.576 128.169 153.529 128.135C153.133 127.851 152.713 127.892 152.381 128.252C152.135 128.518 152.001 128.842 151.896 129.182C151.795 129.508 151.79 129.851 151.729 130.183C151.733 130.393 151.733 130.602 151.743 130.812C151.774 131.407 151.779 132.003 151.709 132.596C151.668 132.946 151.63 133.297 151.445 133.61C151.394 133.697 151.341 133.794 151.217 133.784C151.091 133.773 151.062 133.665 151.029 133.569C150.886 133.166 150.816 132.745 150.747 132.324C150.678 131.911 150.623 131.493 150.451 131.104C150.276 130.709 150.094 130.594 149.704 130.631C149.32 130.834 149.148 131.189 149.026 131.58C148.789 132.341 148.718 133.133 148.577 133.911C148.563 133.986 148.573 134.07 148.481 134.155C148.402 133.723 148.313 133.346 148.446 132.917C148.856 131.591 149.053 130.224 149.141 128.84C149.181 128.189 149.183 127.539 149.045 126.897C148.987 126.631 148.913 126.372 148.721 126.163C148.531 125.958 148.323 125.902 148.06 125.998C147.771 126.103 147.607 126.338 147.481 126.595C147.308 126.946 147.242 127.328 147.217 127.717C147.154 128.679 147.19 129.639 147.292 130.598C147.338 131.028 147.388 131.458 147.436 131.889C147.522 132.375 147.608 132.862 147.697 133.348C147.734 133.551 147.729 133.752 147.692 133.954C147.557 134.695 147.373 135.425 147.135 136.139C146.924 136.772 146.651 137.376 146.201 137.884C145.48 138.699 144.504 138.773 143.681 138.062C143.263 137.702 142.962 137.251 142.767 136.737C142.172 135.167 142.022 133.539 142.159 131.876C142.231 130.999 142.409 130.146 142.834 129.361C142.981 129.089 143.173 128.853 143.457 128.711C143.641 128.62 143.83 128.585 144.017 128.708C144.093 128.724 144.152 128.769 144.208 128.817C144.58 129.139 144.743 129.566 144.814 130.039C144.913 130.464 144.912 130.882 144.743 131.294C144.653 131.518 144.702 131.683 144.867 131.802C145.034 131.924 145.223 131.91 145.407 131.757C145.57 131.621 145.656 131.436 145.709 131.238C145.945 130.344 145.778 129.504 145.34 128.71C145.132 128.332 144.833 128.04 144.41 127.904C143.823 127.715 143.32 127.923 142.842 128.243C142.469 128.493 142.192 128.832 141.942 129.198C141.615 129.828 141.378 130.49 141.249 131.187C140.958 132.749 141.027 134.297 141.38 135.834C141.606 136.816 141.969 137.738 142.657 138.5C143.617 139.564 144.97 139.742 146.16 138.952C146.658 138.622 147.008 138.157 147.27 137.625C147.596 136.965 147.799 136.262 147.974 135.549C147.992 135.478 147.986 135.39 148.063 135.339C148.12 135.393 148.12 135.457 148.133 135.515C148.191 135.752 148.237 135.992 148.309 136.225C148.353 136.369 148.46 136.473 148.629 136.447C148.789 136.423 148.88 136.315 148.906 136.16C148.923 136.061 148.922 135.958 148.926 135.857C148.965 134.709 149.11 133.573 149.387 132.458C149.462 132.159 149.525 131.848 149.698 131.58C149.73 131.531 149.763 131.466 149.836 131.48C149.9 131.492 149.906 131.558 149.919 131.608C149.976 131.831 150.034 132.054 150.08 132.28C150.179 132.765 150.254 133.254 150.406 133.727C150.485 133.975 150.589 134.209 150.791 134.386C151.061 134.624 151.442 134.603 151.681 134.335C151.772 134.233 151.841 134.117 151.897 133.991C152.014 133.723 152.093 133.443 152.141 133.154C152.148 133.111 152.14 133.049 152.196 133.033C152.252 133.017 152.279 133.07 152.306 133.106C152.734 133.646 153.435 133.567 153.8 132.942C154.03 132.548 154.14 132.117 154.22 131.674C154.243 131.544 154.258 131.413 154.283 131.243C154.401 131.403 154.487 131.53 154.583 131.65C154.924 132.074 155.442 132.04 155.73 131.578C155.82 131.432 155.877 131.272 155.92 131.109C156.211 130.025 156.227 128.925 156.106 127.819C156.06 127.389 156.052 127.39 156.479 127.317C156.85 127.252 156.965 127.325 157.026 127.694C157.09 128.082 157.131 128.473 157.187 128.862C157.243 129.253 157.324 129.635 157.551 129.972C157.828 130.383 158.247 130.434 158.598 130.082C158.829 129.851 158.966 129.563 159.057 129.254C159.145 128.955 159.219 128.651 159.262 128.342C159.268 128.297 159.265 128.236 159.315 128.218C159.381 128.195 159.409 128.262 159.438 128.302C159.555 128.462 159.685 128.607 159.843 128.729C160.229 129.029 160.657 129.047 161.07 128.783C161.336 128.611 161.503 128.357 161.643 128.083C161.87 127.638 161.997 127.161 162.084 126.672C162.094 126.618 162.075 126.544 162.174 126.514C162.277 126.738 162.373 126.971 162.562 127.144C162.894 127.446 163.342 127.402 163.606 127.039C163.781 126.799 163.883 126.527 163.937 126.238C163.987 125.971 164.027 125.703 164.073 125.436C164.08 125.396 164.078 125.349 164.124 125.334C164.163 125.32 164.185 125.355 164.204 125.383C164.416 125.693 164.715 125.881 165.062 126.002C165.245 126.005 165.426 126.021 165.607 125.967C166.027 125.84 166.357 125.594 166.599 125.231C167.091 124.494 167.336 123.667 167.478 122.804C167.491 122.725 167.482 122.642 167.471 122.561C167.455 122.446 167.406 122.343 167.28 122.324ZM164.29 123.49C164.256 122.966 164.269 122.448 164.424 121.942C164.456 121.838 164.51 121.743 164.581 121.659C164.782 121.425 164.994 121.443 165.167 121.735C165.329 122.035 165.314 122.368 165.184 122.706C165.046 123.066 164.807 123.344 164.485 123.551C164.401 123.604 164.301 123.665 164.29 123.49ZM159.09 125.981C158.993 125.712 158.913 125.439 158.86 125.159C158.586 123.687 158.409 122.21 158.565 120.709C158.594 120.432 158.643 120.158 158.767 119.904C158.807 119.824 158.848 119.738 158.95 119.734C159.058 119.728 159.091 119.825 159.149 119.904C159.307 120.28 159.378 120.688 159.429 121.098C159.608 122.53 159.64 123.964 159.399 125.394C159.365 125.594 159.319 125.793 159.236 125.981C159.221 126.016 159.211 126.067 159.162 126.066C159.115 126.066 159.103 126.018 159.09 125.981ZM147.98 131.075C147.857 129.956 147.81 128.835 147.898 127.711C147.916 127.488 147.966 127.269 148.054 127.061C148.094 126.968 148.145 126.866 148.266 126.869C148.399 126.872 148.441 126.988 148.468 127.092C148.587 127.56 148.638 128.039 148.63 128.521C148.61 129.627 148.475 130.721 148.232 131.801C148.22 131.853 148.203 131.905 148.185 131.956C148.182 131.967 148.168 131.975 148.127 132.015C148.044 131.689 148.015 131.381 147.98 131.075ZM153.756 129.939C153.769 130.543 153.744 131.146 153.636 131.742C153.59 131.997 153.503 132.239 153.368 132.463C153.285 132.6 153.186 132.738 153.01 132.722C152.837 132.706 152.756 132.554 152.689 132.411C152.531 132.068 152.46 131.702 152.428 131.329C152.372 130.67 152.391 130.015 152.563 129.371C152.609 129.199 152.675 129.036 152.776 128.889C153.01 128.545 153.331 128.555 153.568 128.94C153.7 129.237 153.749 129.585 153.756 129.939Z" fill="white"/>
<path d="M161.315 121.583C161.188 121.348 161.164 121.107 161.304 120.87C161.471 120.586 161.806 120.543 162.041 120.776C162.256 120.991 162.311 121.255 162.234 121.542C162.181 121.738 162.057 121.888 161.838 121.906C161.593 121.923 161.429 121.79 161.315 121.583Z" fill="white"/>
</g>
<path d="M146.882 97.6239L147.664 96.0548L147.774 96.0425C150.591 95.7017 153.597 94.3415 156.106 96.4878C157.469 97.652 157.714 97.9999 158.471 99.5384C158.257 104.768 151.602 110.764 148.028 114.066C147.572 114.487 146.934 115.278 146.348 115.377C146.632 114.98 147.12 111.905 147.367 111.068C147.966 109.04 148.676 107.083 149.175 105.033C149.246 104.852 149.315 104.671 149.381 104.488C148.996 102.987 148.165 101.81 147.363 100.481C147.025 99.9303 146.583 99.3298 146.207 98.7936L146.882 97.6239Z" fill="#D4B57A"/>
<path d="M130.118 107.628L128.365 107.571L128.302 107.662C126.665 109.98 124.04 111.979 124.738 115.206C125.115 116.959 125.305 117.339 126.3 118.736C131.004 121.031 139.44 118.021 144.044 116.444C144.631 116.243 145.63 116.057 145.995 115.588C145.511 115.649 142.573 114.618 141.719 114.438C139.65 114.003 137.59 113.699 135.55 113.164C135.357 113.141 135.164 113.115 134.972 113.087C133.833 112.035 133.192 110.745 132.404 109.408C132.08 108.849 131.761 108.175 131.467 107.589L130.118 107.628Z" fill="#D4B57A"/>
<path d="M146.208 98.7939L146.883 97.6242C148.933 97.5087 150.93 97.4543 150.939 100.113C150.942 101.189 150.095 103.759 149.383 104.488C148.997 102.987 148.167 101.81 147.364 100.481C147.026 99.9306 146.584 99.33 146.208 98.7939Z" fill="#C8A663"/>
<path d="M131.468 107.59L130.118 107.628C129.043 109.377 128.047 111.109 130.382 112.379C131.328 112.893 133.992 113.368 134.972 113.087C133.834 112.035 133.192 110.745 132.404 109.408C132.08 108.849 131.761 108.175 131.468 107.59Z" fill="#C8A663"/>
<path d="M157.558 100.083L158.267 99.9534C158.987 103.676 153.3 110.716 150.306 112.69C149.772 112.93 149.651 113.026 149.205 113.367C149.218 113.577 149.203 113.641 149.184 113.854C148.229 114.971 143.965 117.445 142.452 118.055C141.889 118.282 141.821 118.252 141.403 118.03C140.893 118.211 140.705 118.387 140.285 118.709L140.158 118.782C138.095 119.955 126.465 122.477 125.966 119.207C127.005 119.352 127.783 119.666 128.887 119.725C133.465 119.969 138.11 118.834 142.35 117.181C143.214 116.844 144.562 116.669 145.115 116.343L145.333 115.945L145.435 115.922C146.021 115.823 146.659 115.032 147.115 114.611C150.689 111.309 157.343 105.313 157.558 100.083Z" fill="#C8A663"/>
<path d="M135.858 113.444C136.359 113.386 136.859 113.317 137.357 113.239C142.858 112.341 146.074 109.19 149.212 105.039C148.674 107.115 147.921 109.1 147.28 111.154C147.015 112.002 146.475 115.113 146.179 115.517L146.074 115.542C143.192 114.504 138.958 114.195 135.858 113.444Z" fill="white"/>
<path d="M108.644 56.9453C110.181 52.605 110.022 53.0138 114.424 55.0444C116.297 56.312 116.064 49.2016 115.446 51.4469C118.951 50.7208 122.725 50.0929 125.079 53.459C130.899 53.9851 134.445 58.8368 137.276 63.4401C137.539 63.8672 138.258 65.6174 138.499 65.8312C139.119 65.9304 139.163 65.9106 139.53 66.4662C140.575 65.9632 141.046 65.6134 142.202 66.0231C144.042 66.6749 145.477 68.7988 146.267 70.4793C147.179 72.4157 147.776 75.0717 147.044 77.1621C146.745 78.017 146.433 78.1964 145.775 78.7576C148.453 84.393 150.051 89.6585 147.831 95.8158C147.743 96.0592 147.651 96.3009 147.554 96.541L146.771 98.1101L146.097 99.2798C145.799 99.6961 145.491 100.104 145.17 100.503C141.613 104.92 137.308 107.204 131.699 107.814L130.802 107.874C130.231 107.9 129.667 107.854 129.096 107.822C121.915 107.023 117.98 103.357 113.874 97.7316C109.559 99.301 105.132 93.8428 104.333 90.1131C103.942 88.2896 104.588 87.6975 105.811 86.5141C105.912 86.4159 105.679 85.9829 105.625 85.849L105.913 85.2659C105.81 84.9521 104.265 82.7694 103.976 82.2658C103.1 80.7516 102.26 79.0667 101.689 77.414C100.662 74.4421 99.8421 70.6831 101.37 67.7634C101.613 67.2974 101.318 66.9393 101.12 66.4777C99.6665 63.6668 102.669 60.1244 104.307 58.0664C101.446 57.1602 107.977 59.7622 108.644 56.9453Z" fill="#803C07"/>
<path d="M109.604 57.8176C111.14 53.4773 109.902 52.4657 114.305 54.4963C116.177 55.7638 116.065 49.2009 115.447 51.4462C118.952 50.7202 122.726 50.0922 125.08 53.4584C130.9 53.9844 134.446 58.8361 137.277 63.4394C137.54 63.8665 138.259 65.6167 138.5 65.8305C138.283 66.0271 137.777 66.3417 137.515 66.5154C134.837 68.1532 131.882 69.3708 129.279 71.1241C126.918 72.7144 125.303 73.5543 124.677 76.4743C123.888 77.0326 122.722 77.7024 121.871 78.2199L121.761 78.1905C121.254 78.0561 120.339 77.7876 119.857 77.8535C115.475 78.4533 110.749 82.5333 107.043 84.6841C106.57 84.9918 106.42 85.0572 105.914 85.2653C105.81 84.9514 104.266 82.7687 103.977 82.2651C103.101 80.7509 102.261 79.066 101.69 77.4133C100.663 74.4414 99.843 70.6824 101.37 67.7627C101.614 67.2967 101.319 66.9386 101.12 66.477C99.6674 63.6662 102.67 60.1237 104.308 58.0658C101.447 57.1596 108.936 60.6345 109.604 57.8176Z" fill="#FEBC8A"/>
<path d="M110.968 57.7256C112.505 53.3853 110.217 54.0319 114.62 56.0625C116.492 57.3301 116.065 49.2011 115.446 51.4463C118.952 50.7203 122.725 50.0924 125.08 53.4585C125.747 55.1116 125.814 55.8589 125.373 57.6157C124.536 60.1475 123.588 62.0069 121.725 63.9636C117.48 68.4233 111.212 70.9544 105.101 69.5964C102.856 68.965 102.291 68.3711 101.12 66.4772C99.667 63.6663 102.669 60.1238 104.308 58.0659C101.447 57.1597 110.301 60.5425 110.968 57.7256Z" fill="#FEBC8A"/>
<path d="M109.156 59.5295C110.692 55.1892 110.38 56.2053 114.782 58.2359C116.655 59.5035 116.065 49.2009 115.447 51.4462C111.973 52.3147 106.614 55.406 104.308 58.0658C101.447 57.1596 108.489 62.3463 109.156 59.5295Z" fill="#803C07"/>
<path d="M105.913 85.265C105.81 84.9511 104.265 82.7684 103.976 82.2648C103.1 80.7506 102.26 79.0657 101.689 77.413C100.662 74.4412 99.8421 70.6821 101.37 67.7624C101.613 67.2965 101.318 66.9383 101.12 66.4768C102.291 68.3707 102.856 68.9646 105.101 69.5959C103.558 74.9082 104.237 79.6107 106.926 84.4788C106.964 84.5476 107.003 84.6159 107.043 84.6838C106.569 84.9915 106.419 85.0569 105.913 85.265Z" fill="#A06A48"/>
<path d="M125.08 53.4587C130.9 53.9847 134.446 58.8364 137.277 63.4397C137.54 63.8668 138.259 65.617 138.5 65.8308C138.283 66.0274 137.777 66.342 137.515 66.5157C134.402 61.6239 131.186 58.8636 125.373 57.6158C125.814 55.859 125.747 55.1118 125.08 53.4587Z" fill="#A06A48"/>
<path d="M124.091 67.5722C126.1 66.2418 130.934 64.4637 133.533 66.355C133.694 66.4727 133.662 66.6622 133.643 66.8361C133.346 67.3011 133.294 67.4112 132.815 67.7136C130.172 68.3411 128.232 69.0895 125.787 70.2852C124.14 71.0905 122.525 69.4226 124.091 67.5722Z" fill="#4E2606"/>
<path d="M113.067 74.1893C115.138 72.8665 117.569 73.3401 116.348 75.637C115.943 76.3988 112.459 78.843 111.319 80.0456C111.167 80.2213 111.012 80.3938 110.853 80.5632C110.351 81.0945 109.546 81.7972 108.898 81.1331C108.085 78.7093 111.275 75.4516 113.067 74.1893Z" fill="#4E2606"/>
<path d="M124.676 76.4748C125.302 73.5549 126.917 72.715 129.278 71.1247C131.881 69.3714 134.836 68.1537 137.514 66.516C137.775 66.3423 138.281 66.0277 138.498 65.8311C139.119 65.9303 139.163 65.9105 139.529 66.4661C140.575 65.9631 141.045 65.6133 142.202 66.023C144.042 66.6748 145.476 68.7987 146.267 70.4792C147.179 72.4156 147.775 75.0716 147.043 77.162C146.744 78.0169 146.432 78.1963 145.774 78.7575L144.357 76.3787C143.747 75.3363 141.76 72.0345 140.87 71.4594C142.371 75.8531 143.353 78.5564 142.129 83.2708C138.45 82.8905 136.322 83.5996 133.051 85.0779C132.829 85.2071 132.222 85.5323 132.17 85.7622C131.735 87.8048 129.979 89.6069 127.789 89.4046C126.533 89.2886 126.687 88.9444 125.552 89.5598C125.829 89.3314 125.997 89.1683 126.248 88.911C125.805 87.9057 125.158 86.9116 124.671 85.8323C124.43 88.1563 123.356 89.7124 121.501 91.0887C114.948 95.9519 112.428 92.6979 108.538 87.409C106.782 87.2967 106.576 87.3297 105.624 85.8489L105.913 85.2658C106.419 85.0578 106.569 84.9924 107.042 84.6847C110.748 82.5339 115.474 78.4539 119.855 77.8541C120.337 77.7882 121.252 78.0566 121.759 78.1911L121.869 78.2205C122.721 77.7029 123.886 77.0332 124.676 76.4748Z" fill="#841D13"/>
<path d="M139.113 69.0871C139.684 67.9096 139.743 67.7465 139.53 66.4657C140.575 65.9627 141.046 65.6129 142.202 66.0225C144.042 66.6744 145.477 68.7982 146.267 70.4787C147.179 72.4152 147.776 75.0712 147.044 77.1616C146.745 78.0165 146.433 78.1959 145.775 78.7571L144.357 76.3782C143.748 75.3359 141.761 72.0341 140.871 71.459C142.372 75.8526 143.354 78.556 142.129 83.2704C138.45 82.8901 136.323 83.5992 133.051 85.0775C132.642 85.2365 132.21 85.5464 131.79 85.5749C131.223 84.5841 131.081 84.2495 130.309 83.3418C129.864 82.8186 129.004 82.0119 128.728 81.4934C130.936 83.0655 133.378 83.4724 135.854 82.3791C144.254 78.6707 141.535 75.1424 139.113 69.0871Z" fill="#FEBC8A"/>
<path d="M140.872 71.4586C140.755 70.6129 140.547 69.7555 141.122 69.0314C141.843 68.1232 142.916 69.0313 143.413 69.6781C144.565 71.1795 144.93 73.1652 144.738 75.0154C144.674 75.6645 144.423 76.0324 144.358 76.3779C143.749 75.3355 141.762 72.0337 140.872 71.4586Z" fill="#F59C5F"/>
<path d="M124.672 85.8322C124.586 85.4591 124.576 84.6178 124.459 84.0872C124.157 82.7183 123.74 81.4884 123.3 80.1666C123.429 79.4415 124.272 78.5655 124.985 78.6036C126.318 78.6747 127.671 80.5753 128.728 81.4938C129.004 82.0123 129.864 82.8189 130.309 83.3421C131.081 84.2498 131.223 84.5845 131.79 85.5752C132.21 85.5468 132.642 85.2369 133.051 85.0779C132.83 85.207 132.223 85.5323 132.171 85.7622C131.735 87.8048 129.98 89.6068 127.789 89.4045C126.533 89.2886 126.687 88.9444 125.552 89.5597C125.83 89.3313 125.997 89.1682 126.248 88.911C125.805 87.9057 125.159 86.9115 124.672 85.8322Z" fill="#F59C5F"/>
<path d="M110.921 83.4996C112.977 82.0215 115.732 80.54 118.021 79.4607C120.942 78.0833 122.254 80.165 123.036 82.6761C123.658 84.6723 123.745 86.2638 122.759 88.1683C121.353 90.0746 118.44 92.2202 115.795 92.2871C113.192 92.353 109.719 88.0006 109.419 85.5359C109.33 84.8085 110.362 83.9693 110.921 83.4996Z" fill="#FEBC8A"/>
<path d="M116.252 82.7797C119.071 80.9939 121.264 84.4964 119.811 87.0648C117.64 88.6194 114.616 85.4376 116.252 82.7797Z" fill="#0D0D0C"/>
<path d="M117.372 83.1029C117.558 82.9052 117.838 82.825 118.101 82.8936C118.364 82.9621 118.569 83.1687 118.635 83.4324C118.702 83.6961 118.619 83.9751 118.42 84.1602C118.126 84.4339 117.667 84.4245 117.384 84.139C117.101 83.8536 117.096 83.3951 117.372 83.1029Z" fill="white"/>
<path d="M128.507 73.0213C129.985 71.8784 134.431 69.1938 136.213 68.9718C138.347 68.7055 140.47 74.2203 140.436 75.9555C140.408 77.4454 140.097 77.9468 139.061 78.9955L139.004 79.0491C135.095 82.6657 130.454 82.9723 127.178 78.3631C125.192 75.568 126.128 74.8918 128.507 73.0213Z" fill="#FEBC8A"/>
<path d="M130.651 74.1446C133.493 72.9124 135.496 76.0863 134.041 78.6068C131.731 79.9507 129.061 76.716 130.651 74.1446Z" fill="#0D0D0C"/>
<path d="M131.316 74.9335C131.419 74.6818 131.649 74.5056 131.919 74.4722C132.189 74.439 132.455 74.5541 132.616 74.7732C132.777 74.9922 132.807 75.281 132.695 75.5285C132.526 75.9008 132.089 76.0692 131.714 75.9073C131.338 75.745 131.161 75.3121 131.316 74.9335Z" fill="white"/>
<path d="M113.874 97.7311C109.559 99.3006 105.132 93.8424 104.333 90.1126C103.942 88.2892 104.588 87.6971 105.811 86.5136C105.912 86.4154 105.679 85.9824 105.625 85.8486C106.577 87.3293 106.782 87.2963 108.538 87.4087C112.428 92.6975 114.948 95.9515 121.502 91.0883C123.356 89.7121 124.431 88.156 124.672 85.8319C125.159 86.9112 125.805 87.9054 126.248 88.9107C125.997 89.1679 125.83 89.331 125.552 89.5594C122.823 91.4683 120.749 93.5568 119.575 96.7487C114.651 95.9974 112.662 92.8341 109.666 89.8945C110.231 91.5355 111.545 93.976 112.435 95.4937C112.843 96.119 113.532 97.1068 113.874 97.7311Z" fill="#FEBC8A"/>
<path d="M112.436 95.4934C105.644 94.1675 105.342 86.468 109.667 89.8943C110.231 91.5352 111.545 93.9758 112.436 95.4934Z" fill="#F59C5F"/>
<path d="M124.337 94.6235C127.433 93.5832 129.949 93.0624 132.725 91.1209C133.439 90.6221 133.901 90.2999 134.589 89.7288C135.527 88.9505 137.195 86.9262 138.205 86.5833C139.606 86.9058 139.172 89.4628 138.956 90.5082C138.328 92.3631 137.628 93.4877 136.05 94.9753C133.319 97.5491 127.68 98.8834 124.73 95.9388C124.295 95.5048 124.282 95.2073 124.337 94.6235Z" fill="white"/>
<path d="M105.932 85.2539L107.271 84.558C107.014 83.7583 104.616 76.2813 104.58 72.4388C106.442 72.3809 108.003 71.8152 109.673 70.9881C111.542 70.1761 113.336 69.1991 115.032 68.0687C118.527 65.7268 121.642 62.8611 124.265 59.5725C124.861 58.8288 126.795 56.0211 127.025 56.2378C119.827 58.3869 134.103 61.2287 137.102 66.7569L138.548 65.894C136.404 59.0576 135.643 59.6581 134.244 57.8523C132.99 56.0939 131.306 54.6857 129.352 53.7614C130.334 52.2052 131.4 49.3751 130.228 47.6367C130.194 47.5808 130.206 47.5994 130.228 47.6367C129.823 47.0854 129.257 48.4607 129.077 48.7538C128.976 48.3583 128.582 47.2439 128.075 47.8672C127.967 47.6868 127.717 47.1693 127.432 47.2298C127.147 47.2902 127.016 47.8494 126.927 48.0544C126.759 48.4523 126.558 48.8351 126.324 49.1984C125.891 49.2375 125.448 49.2741 125.02 49.3356C124.164 49.4586 123.312 49.604 122.467 49.788C121.577 49.927 120.675 49.9731 119.776 49.9256C115.978 49.9224 112.058 50.2371 108.598 51.9474C105.039 53.6915 102.176 56.5899 100.477 60.168C99.7155 61.743 99.2581 63.4471 99.1294 65.1906C99.0778 66.124 99.1935 69.5477 100.908 68.879C98.0581 75.422 105.43 84.6676 105.932 85.2539Z" fill="#663B13"/>
<path d="M94.8176 144.648C94.2058 143.079 93.4461 141.571 92.5485 140.146C91.24 138.174 89.5947 135.822 88.7657 134.617C87.7627 133.176 86.519 134.148 87.7884 136.22C88.4385 137.216 88.983 138.277 89.4132 139.385C89.4132 139.385 81.8234 132.191 80.2926 131.909C77.4313 131.423 81.6868 134.871 84.4531 138.2C84.4531 138.2 76.8196 132.994 75.3732 133.627C73.4878 134.445 82.7433 140.711 82.7433 140.711C82.7433 140.711 75.2275 137.103 74.9219 138.064C74.6163 139.025 81.8419 143.804 81.8419 143.804C81.8419 143.804 76.4608 141.785 76.4795 142.497C76.5234 143.897 87.9161 151.497 93.4837 150.884C93.45 150.827 95.0267 145.993 94.8176 144.648Z" fill="#FFAF82"/>
<path d="M94.0743 142.688C94.0743 142.688 108.223 148.193 115.564 150.018C118.927 150.855 121.453 151.324 121.453 151.324C124.181 147.186 123.532 131.282 123.37 126.238C128.621 131.243 141.104 135 142.649 141.771C142.096 147.225 134.182 163.671 129.718 165.174C124.012 167.11 90.7536 150.755 90.7536 150.755C91.4866 150.083 92.0642 149.26 92.446 148.343C92.8278 147.427 94.1148 143.679 94.0743 142.688Z" fill="#D4B57A"/>
<path d="M211.741 204.887L161.267 229.008V13.0269L211.741 28.6128V204.887Z" fill="#847469"/>
<path d="M161.269 13.0269H156.28V229.008H161.269V13.0269Z" fill="#75655A"/>
<path d="M259.229 125.419H247.561C246.261 125.419 245.207 124.365 245.207 123.065V121.25C245.207 119.95 246.261 118.896 247.561 118.896H259.229C260.529 118.896 261.583 119.95 261.583 121.25V123.065C261.583 124.365 260.529 125.419 259.229 125.419Z" fill="#D3C393"/>
<path d="M249.026 133.468H237.358C236.058 133.468 235.004 132.414 235.004 131.114V129.299C235.004 127.999 236.058 126.945 237.358 126.945H249.026C250.326 126.945 251.38 127.999 251.38 129.299V131.114C251.379 132.414 250.326 133.468 249.026 133.468Z" fill="#D3C393"/>
<path d="M267.561 133.468H255.893C254.593 133.468 253.539 132.414 253.539 131.114V129.299C253.539 127.999 254.593 126.945 255.893 126.945H267.561C268.861 126.945 269.915 127.999 269.915 129.299V131.114C269.915 132.414 268.861 133.468 267.561 133.468Z" fill="#D3C393"/>
<path d="M256.943 141.517H245.275C243.975 141.517 242.921 140.463 242.921 139.164V137.348C242.921 136.048 243.975 134.995 245.275 134.995H256.943C258.243 134.995 259.297 136.048 259.297 137.348V139.164C259.297 140.463 258.243 141.517 256.943 141.517Z" fill="#D3C393"/>
<path d="M274.914 141.656H263.245C261.945 141.656 260.892 140.602 260.892 139.302V137.487C260.892 136.187 261.945 135.133 263.245 135.133H274.914C276.213 135.133 277.267 136.187 277.267 137.487V139.302C277.267 140.602 276.213 141.656 274.914 141.656Z" fill="#D3C393"/>
<path d="M239.315 141.656H227.647C226.347 141.656 225.293 140.602 225.293 139.302V137.487C225.293 136.187 226.347 135.133 227.647 135.133H239.315C240.615 135.133 241.669 136.187 241.669 137.487V139.302C241.669 140.602 240.615 141.656 239.315 141.656Z" fill="#D3C393"/>
<path d="M38.5698 186.811H26.9015C25.6017 186.811 24.5479 185.757 24.5479 184.457V182.642C24.5479 181.342 25.6017 180.288 26.9015 180.288H38.5698C39.8696 180.288 40.9234 181.342 40.9234 182.642V184.457C40.9229 185.757 39.8696 186.811 38.5698 186.811Z" fill="#D3C393"/>
<path d="M30.4164 178.41H18.7482C17.4484 178.41 16.3945 177.356 16.3945 176.056V174.241C16.3945 172.941 17.4484 171.887 18.7482 171.887H30.4164C31.7163 171.887 32.7701 172.941 32.7701 174.241V176.056C32.7701 177.356 31.7163 178.41 30.4164 178.41Z" fill="#D3C393"/>
<path d="M42.5229 170.009H30.8547C29.5548 170.009 28.501 168.955 28.501 167.655V165.84C28.501 164.54 29.5548 163.486 30.8547 163.486H42.5229C43.8227 163.486 44.8766 164.54 44.8766 165.84V167.655C44.8766 168.955 43.8227 170.009 42.5229 170.009Z" fill="#D3C393"/>
<path d="M241.605 125.419H229.937C228.637 125.419 227.583 124.365 227.583 123.065V121.25C227.583 119.95 228.637 118.896 229.937 118.896H241.605C242.905 118.896 243.959 119.95 243.959 121.25V123.065C243.959 124.365 242.905 125.419 241.605 125.419Z" fill="#D3C393"/>
<path d="M250.14 117.253H238.472C237.172 117.253 236.118 116.199 236.118 114.899V113.084C236.118 111.784 237.172 110.73 238.472 110.73H250.14C251.44 110.73 252.494 111.784 252.494 113.084V114.899C252.493 116.199 251.44 117.253 250.14 117.253Z" fill="#D3C393"/>
<path d="M290.653 166.565C291.447 167.3 292.434 167.855 293.019 168.765C293.833 170.031 293.608 171.865 292.512 172.896C291.679 173.68 290.438 174.027 289.834 174.997C288.998 176.339 289.819 178.104 290.862 179.292C291.904 180.481 293.23 181.572 293.554 183.119C293.839 184.481 293.238 185.916 292.284 186.928C291.33 187.941 290.061 188.597 288.785 189.152C288.366 189.334 287.919 189.527 287.665 189.906C287.299 190.452 287.453 191.175 287.545 191.827C287.75 193.301 287.523 194.874 286.695 196.112C285.867 197.35 284.386 198.189 282.904 198.039C280.977 197.845 279.501 196.046 279.141 194.143C278.781 192.241 279.319 190.281 280.052 188.489C280.784 186.696 281.718 184.975 282.207 183.101C282.34 182.592 282.438 182.046 282.278 181.545C281.951 180.517 280.745 180.113 279.921 179.417C278.59 178.291 278.311 176.117 279.315 174.691C280.089 173.591 281.403 173.033 282.488 172.238C283.573 171.443 284.516 170.075 284.024 168.823C283.851 168.381 283.516 168.014 283.372 167.562C283.214 167.065 283.307 166.519 283.496 166.034C284.091 164.511 285.762 163.549 287.364 163.554C289.625 163.562 289.279 165.293 290.653 166.565Z" fill="#8BAF7C"/>
<path d="M285.195 194.514C285.216 195.218 285.057 195.921 284.737 196.548L284.571 196.464C284.877 195.865 285.028 195.192 285.009 194.519L285.195 194.514Z" fill="#8B7B70"/>
<path d="M283.405 192.626C283.559 193.377 283.385 194.198 282.942 194.823L282.79 194.715C283.204 194.131 283.366 193.364 283.223 192.663L283.405 192.626Z" fill="#8B7B70"/>
<path d="M281.433 192.539L281.584 192.647C281.132 193.271 280.984 194.118 281.198 194.857L281.019 194.909C280.79 194.116 280.949 193.207 281.433 192.539Z" fill="#8B7B70"/>
<path d="M282.172 189.483L282.268 189.642C281.752 189.954 281.543 190.605 281.372 191.244L281.192 191.197C281.372 190.52 281.596 189.83 282.172 189.483Z" fill="#8B7B70"/>
<path d="M285.987 190.29C286.076 191.016 285.951 191.778 285.634 192.436L285.466 192.355C285.768 191.728 285.887 191.003 285.802 190.313L285.987 190.29Z" fill="#8B7B70"/>
<path d="M285.427 187.951L285.515 188.115C284.924 188.434 284.548 189.126 284.602 189.796L284.417 189.811C284.357 189.069 284.772 188.305 285.427 187.951Z" fill="#8B7B70"/>
<path d="M289.045 185.468C289.102 185.882 289.181 186.45 288.937 186.908C288.763 187.234 288.462 187.45 288.17 187.658C287.907 187.845 287.659 188.023 287.497 188.274L287.341 188.173C287.522 187.892 287.796 187.696 288.062 187.506C288.349 187.302 288.62 187.109 288.773 186.821C288.972 186.446 288.931 185.998 288.862 185.493L289.045 185.468Z" fill="#8B7B70"/>
<path d="M287.927 183.208C288.261 183.868 288.267 184.69 287.944 185.355L287.777 185.273C288.075 184.66 288.069 183.901 287.761 183.292L287.927 183.208Z" fill="#8B7B70"/>
<path d="M285.225 183.635C285.311 184.274 285.263 184.939 285.086 185.559L284.907 185.508C285.077 184.913 285.123 184.274 285.041 183.66L285.225 183.635Z" fill="#8B7B70"/>
<path d="M283.635 184.307L283.778 184.424C283.312 184.993 283.082 185.769 283.162 186.5L282.978 186.521C282.89 185.73 283.13 184.922 283.635 184.307Z" fill="#8B7B70"/>
<path d="M292.227 182.838C292.418 183.88 292.262 184.975 291.789 185.922L291.623 185.838C292.078 184.927 292.228 183.874 292.045 182.872L292.227 182.838Z" fill="#8B7B70"/>
<path d="M290.241 180.557C290.506 181.23 290.664 181.937 290.712 182.658L290.527 182.67C290.48 181.968 290.325 181.28 290.067 180.625L290.241 180.557Z" fill="#8B7B70"/>
<path d="M287.676 178.766C288.013 178.988 288.11 179.419 288.173 179.806L288.339 180.815L288.156 180.845L287.99 179.836C287.93 179.472 287.849 179.102 287.574 178.922L287.676 178.766Z" fill="#8B7B70"/>
<path d="M286.644 177.613L286.811 177.696C286.365 178.594 286.298 179.653 286.626 180.6L286.45 180.661C286.105 179.667 286.176 178.556 286.644 177.613Z" fill="#8B7B70"/>
<path d="M288.698 174.482L288.855 174.581C288.471 175.194 288.267 175.93 288.282 176.653L288.097 176.657C288.081 175.897 288.294 175.125 288.698 174.482Z" fill="#8B7B70"/>
<path d="M286.856 173.513L287.024 173.594C286.73 174.205 286.613 174.911 286.697 175.584L286.512 175.607C286.424 174.899 286.546 174.155 286.856 173.513Z" fill="#8B7B70"/>
<path d="M286.312 172.55L286.402 172.712C285.747 173.076 285.318 173.823 285.335 174.572L285.149 174.576C285.131 173.76 285.598 172.946 286.312 172.55Z" fill="#8B7B70"/>
<path d="M290.649 170.172C290.635 171.146 289.947 171.954 289.243 172.699L289.108 172.571C289.815 171.823 290.45 171.077 290.463 170.17L290.649 170.172Z" fill="#8B7B70"/>
<path d="M289.134 167.899C289.268 168.666 289.162 169.479 288.837 170.187L288.668 170.109C288.978 169.435 289.078 168.662 288.951 167.931L289.134 167.899Z" fill="#8B7B70"/>
<path d="M291.2 169.79C291.657 170.251 291.701 171.069 291.296 171.577L291.151 171.461C291.5 171.023 291.463 170.318 291.068 169.92L291.2 169.79Z" fill="#8B7B70"/>
<path d="M283.378 177.411C283.848 178.172 283.881 179.174 283.463 179.964L283.298 179.877C283.687 179.144 283.656 178.214 283.22 177.509L283.378 177.411Z" fill="#8B7B70"/>
<path d="M274.081 188.811C273.169 188.23 272.097 187.861 271.359 187.07C270.331 185.971 270.224 184.126 271.118 182.915C271.797 181.995 272.956 181.431 273.377 180.368C273.959 178.898 272.834 177.309 271.596 176.326C270.358 175.344 268.858 174.507 268.262 173.043C267.738 171.754 268.072 170.236 268.829 169.068C269.587 167.901 270.717 167.029 271.874 166.254C272.253 166 272.659 165.73 272.841 165.311C273.103 164.709 272.821 164.025 272.615 163.401C272.149 161.986 272.091 160.398 272.684 159.032C273.277 157.666 274.584 156.575 276.067 156.457C277.998 156.303 279.772 157.809 280.467 159.616C281.163 161.423 280.984 163.448 280.584 165.342C280.185 167.237 279.574 169.098 279.428 171.029C279.389 171.554 279.39 172.108 279.637 172.572C280.143 173.525 281.402 173.706 282.337 174.244C283.848 175.112 284.513 177.202 283.78 178.784C283.215 180.005 282.023 180.789 281.098 181.766C280.173 182.742 279.49 184.258 280.198 185.402C280.448 185.805 280.843 186.107 281.066 186.526C281.31 186.986 281.317 187.54 281.217 188.052C280.905 189.656 279.433 190.902 277.856 191.184C275.63 191.581 275.66 189.817 274.081 188.811Z" fill="#5F824D"/>
<path d="M278.705 178.817L278.88 178.755C278.594 177.936 278.837 176.949 279.471 176.355L279.343 176.22C278.658 176.861 278.396 177.93 278.705 178.817Z" fill="#8B7B70"/>
<path d="M278.096 166.354C278.578 165.602 278.81 164.697 278.752 163.806L278.566 163.818C278.622 164.67 278.4 165.535 277.939 166.253L278.096 166.354Z" fill="#8B7B70"/>
<path d="M276.949 165.835C277.149 165.268 277.3 164.68 277.395 164.087L277.212 164.058C277.118 164.64 276.97 165.217 276.773 165.773L276.949 165.835Z" fill="#8B7B70"/>
<path d="M276.404 168.859L276.589 168.881C276.659 168.296 276.795 167.718 276.994 167.163L276.82 167.101C276.615 167.669 276.476 168.26 276.404 168.859Z" fill="#8B7B70"/>
<path d="M275.238 167.626L275.424 167.636C275.471 166.803 275.732 165.989 276.177 165.283L276.019 165.184C275.558 165.916 275.288 166.761 275.238 167.626Z" fill="#8B7B70"/>
<path d="M274.477 166.761L274.615 166.637C274.407 166.407 274.386 166.03 274.551 165.516C274.666 165.16 274.815 164.813 274.992 164.484L274.829 164.396C274.645 164.735 274.492 165.092 274.374 165.459C274.186 166.04 274.221 166.479 274.477 166.761Z" fill="#8B7B70"/>
<path d="M278.714 168.89L278.899 168.874C278.829 168.054 279.083 167.215 279.596 166.571L279.451 166.455C278.909 167.136 278.64 168.023 278.714 168.89Z" fill="#8B7B70"/>
<path d="M278.225 160.691L278.003 162.929L278.188 162.947L278.41 160.71L278.225 160.691Z" fill="#8B7B70"/>
<path d="M279.797 163.533C280.213 162.696 280.267 161.672 279.944 160.795L279.77 160.859C280.076 161.689 280.024 162.658 279.631 163.451L279.797 163.533Z" fill="#8B7B70"/>
<path d="M276.449 162.568C276.734 161.698 276.836 160.757 276.747 159.847L276.562 159.865C276.649 160.75 276.549 161.664 276.272 162.51L276.449 162.568Z" fill="#8B7B70"/>
<path d="M274.698 162.158C274.88 161.445 274.987 160.71 275.019 159.974L274.833 159.966C274.803 160.689 274.697 161.411 274.518 162.112L274.698 162.158Z" fill="#8B7B70"/>
<path d="M273.711 161.269L273.813 161.114C273.484 160.898 273.422 160.421 273.507 160.045C273.559 159.81 273.654 159.591 273.754 159.359C273.826 159.192 273.902 159.018 273.958 158.84L273.781 158.784C273.727 158.953 273.654 159.122 273.583 159.285C273.484 159.515 273.381 159.752 273.325 160.004C273.227 160.443 273.307 161.004 273.711 161.269Z" fill="#8B7B70"/>
<path d="M275.912 159.348L276.095 159.382C276.2 158.813 276.237 158.232 276.205 157.654L276.019 157.665C276.051 158.227 276.015 158.794 275.912 159.348Z" fill="#8B7B70"/>
<path d="M277.828 157.747L277.643 157.766L277.807 159.363L277.992 159.344L277.828 157.747Z" fill="#8B7B70"/>
<path d="M279.567 160.684L279.751 160.657C279.658 160.027 279.553 159.39 279.437 158.764C279.396 158.542 279.336 158.295 279.137 158.161L279.033 158.315C279.173 158.409 279.219 158.604 279.255 158.797C279.369 159.421 279.474 160.056 279.567 160.684Z" fill="#8B7B70"/>
<path d="M277.395 170.428C277.764 169.801 278 169.089 278.078 168.366L277.893 168.346C277.818 169.042 277.591 169.729 277.235 170.333L277.395 170.428Z" fill="#8B7B70"/>
<path d="M275.181 170.424C275.516 169.966 275.763 169.457 275.916 168.911L275.737 168.861C275.59 169.385 275.353 169.875 275.031 170.315L275.181 170.424Z" fill="#8B7B70"/>
<path d="M273.636 170.007C274.001 169.359 274.322 168.679 274.589 167.985L274.416 167.919C274.152 168.604 273.835 169.276 273.474 169.916L273.636 170.007Z" fill="#8B7B70"/>
<path d="M272.13 169.377L272.316 169.378C272.319 168.74 272.64 168.108 273.153 167.729L273.042 167.58C272.483 167.993 272.133 168.682 272.13 169.377Z" fill="#8B7B70"/>
<path d="M273.619 164.618L273.805 164.616C273.799 164.096 273.842 163.572 273.933 163.061L273.75 163.028C273.657 163.551 273.613 164.086 273.619 164.618Z" fill="#8B7B70"/>
<path d="M278.53 173.584L278.7 173.509C278.367 172.749 278.4 171.821 278.786 171.087L278.622 171C278.204 171.795 278.17 172.761 278.53 173.584Z" fill="#8B7B70"/>
<path d="M276.683 174.234L276.85 174.151C276.558 173.564 276.494 172.865 276.673 172.234L276.494 172.183C276.303 172.859 276.372 173.606 276.683 174.234Z" fill="#8B7B70"/>
<path d="M274.802 173.391L274.98 173.337C274.771 172.66 274.831 171.907 275.143 171.271L274.977 171.189C274.643 171.867 274.579 172.67 274.802 173.391Z" fill="#8B7B70"/>
<path d="M272.86 173.102L273.044 173.072C272.944 172.467 273.009 171.846 273.233 171.276L273.06 171.208C272.824 171.809 272.755 172.464 272.86 173.102Z" fill="#8B7B70"/>
<path d="M270.903 172.874L271.088 172.855C271.015 172.157 271.085 171.435 271.293 170.764L271.116 170.709C270.9 171.403 270.827 172.151 270.903 172.874Z" fill="#8B7B70"/>
<path d="M269.81 171.969L269.976 171.886C269.687 171.315 269.771 170.573 270.18 170.082L270.2 170.058L270.201 170.026C270.228 169.34 270.752 168.438 271.323 168.098L271.228 167.938C270.608 168.307 270.06 169.239 270.017 169.987C269.579 170.534 269.494 171.344 269.81 171.969Z" fill="#8B7B70"/>
<path d="M275.628 174.156L275.441 174.159L275.478 176.553L275.664 176.55L275.628 174.156Z" fill="#8B7B70"/>
<path d="M273.821 176.721L273.985 176.634C273.648 175.996 273.62 175.189 273.911 174.529L273.741 174.454C273.427 175.165 273.458 176.034 273.821 176.721Z" fill="#8B7B70"/>
<path d="M271.726 175.075L271.907 175.032C271.809 174.614 271.748 174.184 271.726 173.755L271.54 173.765C271.563 174.205 271.626 174.646 271.726 175.075Z" fill="#8B7B70"/>
<path d="M270.275 173.807L270.403 173.672C270.085 173.372 269.842 172.994 269.702 172.579L269.526 172.638C269.676 173.082 269.935 173.486 270.275 173.807Z" fill="#8B7B70"/>
<path d="M277.631 174.103L277.452 174.156L277.68 174.925L277.859 174.872L277.631 174.103Z" fill="#8B7B70"/>
<path d="M280.035 174.284C280.124 174.089 280.114 173.852 280.01 173.665L279.848 173.756C279.923 173.892 279.93 174.065 279.866 174.208L280.035 174.284Z" fill="#8B7B70"/>
<path d="M274.934 180.493C275.31 179.726 275.334 178.8 274.997 178.015L274.826 178.088C275.142 178.824 275.12 179.692 274.768 180.411L274.934 180.493Z" fill="#8B7B70"/>
<path d="M273.758 180.489L273.94 180.527C274.061 179.949 274.08 179.36 273.997 178.775L273.813 178.801C273.893 179.364 273.875 179.932 273.758 180.489Z" fill="#8B7B70"/>
<path d="M275.364 183.246C275.91 182.7 276.168 181.889 276.037 181.128L275.854 181.16C275.975 181.862 275.737 182.611 275.233 183.115L275.364 183.246Z" fill="#8B7B70"/>
<path d="M273.372 183.979C273.786 183.43 274.158 182.844 274.477 182.236L274.312 182.149C273.998 182.749 273.632 183.327 273.224 183.867L273.372 183.979Z" fill="#8B7B70"/>
<path d="M272.303 184.902L272.479 184.842C272.133 183.829 272.5 182.626 273.354 181.981L273.242 181.833C272.325 182.525 271.931 183.816 272.303 184.902Z" fill="#8B7B70"/>
<path d="M274.627 186.333L274.77 186.213C274.43 185.805 274.362 185.19 274.606 184.718L274.441 184.633C274.164 185.169 274.24 185.868 274.627 186.333Z" fill="#8B7B70"/>
<path d="M276.375 184.594L276.56 184.617C276.613 184.184 276.647 183.744 276.659 183.309L276.473 183.304C276.461 183.733 276.428 184.167 276.375 184.594Z" fill="#8B7B70"/>
<path d="M277.123 183.164C277.267 182.742 277.333 182.302 277.318 181.856L277.133 181.863C277.147 182.285 277.084 182.703 276.947 183.104L277.123 183.164Z" fill="#8B7B70"/>
<path d="M266.744 199.373C265.663 199.347 264.555 199.584 263.514 199.289C262.066 198.879 261.021 197.355 261.16 195.856C261.266 194.718 261.967 193.637 261.778 192.509C261.517 190.95 259.733 190.171 258.165 189.969C256.598 189.767 254.881 189.826 253.615 188.881C252.499 188.048 252.001 186.575 252.046 185.184C252.091 183.793 252.608 182.462 253.198 181.201C253.392 180.788 253.6 180.347 253.539 179.894C253.452 179.242 252.858 178.803 252.359 178.375C251.229 177.405 250.359 176.076 250.16 174.599C249.962 173.124 250.517 171.515 251.727 170.646C253.3 169.517 255.598 169.889 257.127 171.077C258.656 172.265 259.549 174.091 260.186 175.919C260.822 177.748 261.262 179.657 262.135 181.385C262.373 181.855 262.66 182.328 263.112 182.599C264.037 183.153 265.208 182.658 266.287 182.635C268.03 182.598 269.678 184.043 269.868 185.776C270.016 187.113 269.4 188.401 269.112 189.715C268.825 191.029 269.023 192.679 270.22 193.293C270.642 193.509 271.137 193.563 271.544 193.807C271.991 194.075 272.282 194.545 272.461 195.035C273.023 196.57 272.407 198.398 271.202 199.453C269.501 200.945 268.616 199.418 266.744 199.373Z" fill="#5F824D"/>
<path d="M265.543 188.426L265.662 188.283C264.993 187.729 264.692 186.758 264.927 185.923L264.748 185.872C264.493 186.776 264.82 187.826 265.543 188.426Z" fill="#8B7B70"/>
<path d="M258.585 178.071C258.608 177.178 258.34 176.283 257.83 175.551L257.678 175.657C258.166 176.357 258.422 177.213 258.399 178.066L258.585 178.071Z" fill="#8B7B70"/>
<path d="M257.332 178.219C257.211 177.631 257.036 177.05 256.811 176.493L256.639 176.562C256.859 177.109 257.031 177.68 257.149 178.257L257.332 178.219Z" fill="#8B7B70"/>
<path d="M258.426 181.089L258.595 181.013C258.353 180.476 258.171 179.911 258.055 179.334L257.873 179.371C257.992 179.962 258.178 180.54 258.426 181.089Z" fill="#8B7B70"/>
<path d="M256.792 180.635L256.957 180.548C256.567 179.811 256.369 178.979 256.385 178.145L256.199 178.141C256.182 179.007 256.388 179.87 256.792 180.635Z" fill="#8B7B70"/>
<path d="M255.689 180.293L255.743 180.115C255.447 180.025 255.233 179.713 255.11 179.188C255.024 178.824 254.972 178.45 254.954 178.076L254.769 178.085C254.786 178.47 254.841 178.855 254.929 179.231C255.069 179.825 255.324 180.183 255.689 180.293Z" fill="#8B7B70"/>
<path d="M260.421 179.925L260.571 179.815C260.087 179.149 259.871 178.299 259.977 177.484L259.793 177.459C259.68 178.322 259.909 179.221 260.421 179.925Z" fill="#8B7B70"/>
<path d="M255.947 173.063L255.779 173.143L256.746 175.173L256.914 175.093L255.947 173.063Z" fill="#8B7B70"/>
<path d="M258.578 174.778C258.501 173.846 258.019 172.941 257.289 172.357L257.173 172.503C257.864 173.055 258.32 173.911 258.392 174.793L258.578 174.778Z" fill="#8B7B70"/>
<path d="M255.213 175.682C255.007 174.791 254.61 173.932 254.062 173.199L253.913 173.31C254.445 174.022 254.832 174.858 255.032 175.724L255.213 175.682Z" fill="#8B7B70"/>
<path d="M253.505 176.236C253.293 175.531 253.005 174.846 252.651 174.2L252.488 174.289C252.836 174.924 253.118 175.597 253.327 176.29L253.505 176.236Z" fill="#8B7B70"/>
<path d="M252.203 175.985L252.21 175.799C251.817 175.784 251.517 175.408 251.395 175.042C251.319 174.813 251.287 174.577 251.253 174.327C251.229 174.147 251.203 173.959 251.16 173.777L250.979 173.821C251.02 173.994 251.045 174.176 251.069 174.352C251.102 174.6 251.137 174.856 251.219 175.101C251.362 175.527 251.721 175.966 252.203 175.985Z" fill="#8B7B70"/>
<path d="M253.087 173.205L253.261 173.139C253.057 172.598 252.788 172.081 252.462 171.603L252.309 171.707C252.627 172.173 252.888 172.677 253.087 173.205Z" fill="#8B7B70"/>
<path d="M253.891 170.85L253.742 170.962L254.708 172.245L254.857 172.133L253.891 170.85Z" fill="#8B7B70"/>
<path d="M256.904 172.459L257.048 172.341C256.643 171.849 256.224 171.358 255.801 170.882C255.652 170.714 255.473 170.533 255.232 170.521L255.224 170.707C255.392 170.715 255.532 170.859 255.662 171.005C256.083 171.48 256.501 171.969 256.904 172.459Z" fill="#8B7B70"/>
<path d="M260.084 181.921C260.076 181.195 259.91 180.462 259.602 179.803L259.434 179.881C259.73 180.517 259.89 181.223 259.897 181.923L260.084 181.921Z" fill="#8B7B70"/>
<path d="M258.188 183.064C258.238 182.499 258.187 181.936 258.035 181.389L257.856 181.438C258.002 181.963 258.051 182.505 258.003 183.048L258.188 183.064Z" fill="#8B7B70"/>
<path d="M256.651 183.505C256.629 182.762 256.553 182.013 256.423 181.281L256.24 181.314C256.369 182.037 256.444 182.776 256.465 183.51L256.651 183.505Z" fill="#8B7B70"/>
<path d="M255.036 183.743L255.195 183.648C254.869 183.1 254.817 182.393 255.059 181.804L254.888 181.732C254.623 182.375 254.68 183.146 255.036 183.743Z" fill="#8B7B70"/>
<path d="M253.85 178.9L254.008 178.802C253.734 178.36 253.501 177.89 253.314 177.405L253.141 177.471C253.331 177.968 253.57 178.448 253.85 178.9Z" fill="#8B7B70"/>
<path d="M262.688 184.037L262.795 183.886C262.117 183.407 261.666 182.595 261.617 181.767L261.432 181.778C261.484 182.675 261.954 183.519 262.688 184.037Z" fill="#8B7B70"/>
<path d="M261.445 185.549L261.544 185.392C260.991 185.039 260.575 184.474 260.402 183.842L260.223 183.891C260.408 184.567 260.854 185.172 261.445 185.549Z" fill="#8B7B70"/>
<path d="M259.396 185.8L259.519 185.662C258.991 185.19 258.653 184.515 258.592 183.809L258.407 183.825C258.472 184.577 258.832 185.297 259.396 185.8Z" fill="#8B7B70"/>
<path d="M257.587 186.556L257.729 186.435C257.331 185.969 257.066 185.403 256.963 184.799L256.779 184.83C256.888 185.468 257.168 186.064 257.587 186.556Z" fill="#8B7B70"/>
<path d="M255.79 187.37L255.939 187.257C255.515 186.698 255.202 186.043 255.034 185.362L254.854 185.406C255.028 186.112 255.352 186.791 255.79 187.37Z" fill="#8B7B70"/>
<path d="M254.389 187.162L254.488 187.005C253.946 186.666 253.634 185.987 253.73 185.355L253.735 185.324L253.72 185.296C253.387 184.695 253.37 183.652 253.683 183.065L253.519 182.978C253.18 183.615 253.191 184.696 253.542 185.359C253.45 186.052 253.795 186.791 254.389 187.162Z" fill="#8B7B70"/>
<path d="M260.511 186.022L260.354 186.12L261.621 188.152L261.779 188.053L260.511 186.022Z" fill="#8B7B70"/>
<path d="M260.279 189.156L260.375 188.997C259.756 188.625 259.315 187.949 259.224 187.233L259.039 187.256C259.137 188.028 259.612 188.756 260.279 189.156Z" fill="#8B7B70"/>
<path d="M257.632 188.83L257.765 188.7C257.465 188.393 257.191 188.057 256.95 187.701L256.796 187.805C257.043 188.17 257.325 188.515 257.632 188.83Z" fill="#8B7B70"/>
<path d="M255.738 188.494L255.778 188.312C255.35 188.219 254.947 188.021 254.613 187.738L254.493 187.879C254.85 188.182 255.281 188.394 255.738 188.494Z" fill="#8B7B70"/>
<path d="M262.197 184.961L262.071 185.098L262.664 185.639L262.789 185.501L262.197 184.961Z" fill="#8B7B70"/>
<path d="M264.333 183.86C264.308 183.648 264.177 183.449 263.991 183.343L263.898 183.504C264.034 183.582 264.13 183.726 264.148 183.882L264.333 183.86Z" fill="#8B7B70"/>
<path d="M263.177 191.811C263.102 190.96 262.644 190.155 261.95 189.657L261.842 189.808C262.492 190.275 262.922 191.03 262.992 191.827L263.177 191.811Z" fill="#8B7B70"/>
<path d="M262.171 192.416L262.346 192.354C262.152 191.797 261.863 191.282 261.49 190.824L261.346 190.942C261.706 191.383 261.983 191.878 262.171 192.416Z" fill="#8B7B70"/>
<path d="M264.97 193.947C265.155 193.197 264.956 192.369 264.451 191.785L264.311 191.907C264.777 192.446 264.96 193.21 264.789 193.902L264.97 193.947Z" fill="#8B7B70"/>
<path d="M263.639 195.604C263.71 194.921 263.725 194.226 263.684 193.541L263.499 193.552C263.539 194.227 263.524 194.911 263.454 195.584L263.639 195.604Z" fill="#8B7B70"/>
<path d="M263.205 196.947L263.324 196.804C262.504 196.117 262.197 194.897 262.594 193.903L262.422 193.834C261.995 194.901 262.325 196.21 263.205 196.947Z" fill="#8B7B70"/>
<path d="M265.938 196.969L265.999 196.794C265.497 196.62 265.122 196.128 265.086 195.598L264.9 195.61C264.941 196.212 265.368 196.771 265.938 196.969Z" fill="#8B7B70"/>
<path d="M266.53 194.579L266.7 194.503C266.523 194.106 266.324 193.711 266.109 193.333L265.947 193.424C266.159 193.798 266.355 194.186 266.53 194.579Z" fill="#8B7B70"/>
<path d="M266.433 192.966C266.338 192.53 266.167 192.119 265.925 191.746L265.769 191.847C265.999 192.202 266.161 192.592 266.251 193.006L266.433 192.966Z" fill="#8B7B70"/>
<path d="M281.088 194.142C280.277 193.713 279.346 193.474 278.667 192.856C277.723 191.996 277.506 190.443 278.18 189.357C278.691 188.533 279.633 187.977 279.916 187.049C280.308 185.766 279.248 184.498 278.134 183.752C277.02 183.006 275.694 182.401 275.09 181.203C274.558 180.149 274.737 178.841 275.298 177.802C275.859 176.763 276.756 175.948 277.681 175.214C277.985 174.973 278.309 174.717 278.434 174.351C278.616 173.823 278.33 173.264 278.113 172.75C277.622 171.585 277.465 170.246 277.873 169.05C278.281 167.854 279.312 166.842 280.559 166.641C282.181 166.379 283.785 167.532 284.497 169.012C285.209 170.493 285.195 172.218 284.987 173.848C284.778 175.478 284.389 177.094 284.398 178.736C284.4 179.183 284.439 179.652 284.68 180.028C285.173 180.799 286.25 180.866 287.078 181.257C288.416 181.889 289.12 183.611 288.609 185C288.214 186.071 287.259 186.816 286.543 187.705C285.827 188.594 285.353 189.922 286.03 190.842C286.269 191.166 286.624 191.394 286.841 191.733C287.079 192.106 287.123 192.574 287.073 193.014C286.919 194.392 285.759 195.547 284.444 195.892C282.588 196.38 282.493 194.885 281.088 194.142Z" fill="#7FA56D"/>
<path d="M280.743 173.011L280.557 173.009C280.567 172.337 280.407 171.667 280.094 171.072L280.258 170.985C280.586 171.608 280.753 172.308 280.743 173.011Z" fill="#8B7B70"/>
<path d="M281.866 173.25L281.682 173.224C281.788 172.468 281.659 171.676 281.319 170.993L281.486 170.91C281.842 171.627 281.977 172.457 281.866 173.25Z" fill="#8B7B70"/>
<path d="M281.08 176.729L280.92 176.636C281.231 176.102 281.336 175.449 281.207 174.845L281.389 174.806C281.527 175.455 281.415 176.156 281.08 176.729Z" fill="#8B7B70"/>
<path d="M279.296 176.119L279.139 176.02C279.635 175.227 279.745 174.188 279.427 173.308L279.601 173.245C279.938 174.177 279.822 175.278 279.296 176.119Z" fill="#8B7B70"/>
<path d="M277.362 179.432C277.091 179.009 277.046 178.432 277.241 177.849C277.411 177.338 277.723 176.9 278.025 176.477L278.176 176.584C277.882 176.997 277.579 177.424 277.417 177.908C277.241 178.437 277.277 178.956 277.518 179.332L277.362 179.432Z" fill="#8B7B70"/>
<path d="M279.15 181.117C278.553 180.556 278.277 179.675 278.447 178.874L278.629 178.912C278.472 179.651 278.727 180.464 279.277 180.982L279.15 181.117Z" fill="#8B7B70"/>
<path d="M281.405 180.66C280.836 180.184 280.529 179.431 280.605 178.692L280.79 178.711C280.722 179.379 281.01 180.087 281.525 180.517L281.405 180.66Z" fill="#8B7B70"/>
<path d="M282.944 179.073C282.83 178.592 282.772 178.099 282.774 177.605L282.96 177.606C282.959 178.085 283.014 178.564 283.124 179.03L282.944 179.073Z" fill="#8B7B70"/>
<path d="M283.432 174.179L283.247 174.183C283.235 173.647 283.16 173.112 283.024 172.593L283.204 172.546C283.343 173.08 283.42 173.629 283.432 174.179Z" fill="#8B7B70"/>
<path d="M283.326 169.949C283.222 169.422 282.957 168.922 282.579 168.539L282.712 168.409C283.114 168.817 283.397 169.352 283.508 169.914L283.326 169.949Z" fill="#8B7B70"/>
<path d="M279.589 167.855L279.551 169.643L279.737 169.647L279.775 167.859L279.589 167.855Z" fill="#8B7B70"/>
<path d="M278.854 171.736C278.58 171.291 278.4 170.783 278.334 170.265L278.519 170.241C278.581 170.733 278.752 171.216 279.013 171.638L278.854 171.736Z" fill="#8B7B70"/>
<path d="M281.325 167.884L281.141 167.912L281.383 169.519L281.567 169.492L281.325 167.884Z" fill="#8B7B70"/>
<path d="M279.712 183.702C279.293 183.21 278.861 182.717 278.427 182.238L278.565 182.113C279 182.594 279.434 183.088 279.853 183.581L279.712 183.702Z" fill="#8B7B70"/>
<path d="M281.556 184.703C281.444 183.912 281.082 183.156 280.535 182.573L280.671 182.446C281.243 183.056 281.623 183.848 281.74 184.677L281.556 184.703Z" fill="#8B7B70"/>
<path d="M283.042 184.522C283.002 183.742 282.677 182.964 282.15 182.387L282.288 182.262C282.851 182.879 283.185 183.678 283.227 184.513L283.042 184.522Z" fill="#8B7B70"/>
<path d="M284.916 184.056L284.73 184.058C284.724 183.318 284.274 182.603 283.608 182.279L283.69 182.111C284.417 182.466 284.91 183.248 284.916 184.056Z" fill="#8B7B70"/>
<path d="M282.513 187.273L282.35 187.184C282.608 186.709 282.527 186.121 282.411 185.511L282.594 185.477C282.716 186.121 282.801 186.744 282.513 187.273Z" fill="#8B7B70"/>
<path d="M283.923 188.044L283.762 187.951C284.112 187.344 284.283 186.624 284.242 185.924L284.428 185.913C284.471 186.649 284.291 187.406 283.923 188.044Z" fill="#8B7B70"/>
<path d="M285.147 188.85L284.992 188.747C285.313 188.264 285.521 187.706 285.595 187.131L285.78 187.154C285.702 187.757 285.484 188.344 285.147 188.85Z" fill="#8B7B70"/>
<path d="M279.875 190.427C279.7 190.053 279.829 189.649 279.921 189.442C280.012 189.238 280.137 189.053 280.258 188.873C280.31 188.795 280.365 188.713 280.416 188.632C280.64 188.273 280.806 187.882 280.91 187.471L281.091 187.517C280.982 187.946 280.808 188.355 280.574 188.731C280.522 188.814 280.466 188.897 280.413 188.977C280.291 189.158 280.176 189.328 280.092 189.518C279.956 189.821 279.939 190.124 280.043 190.348L279.875 190.427Z" fill="#8B7B70"/>
<path d="M281.417 191.97C281.141 191.642 281.023 191.178 281.093 190.696C281.15 190.306 281.327 189.903 281.621 189.498L281.772 189.607C281.496 189.987 281.33 190.363 281.278 190.722C281.216 191.146 281.322 191.567 281.56 191.85L281.417 191.97Z" fill="#8B7B70"/>
<path d="M283.375 192.243C282.863 191.738 282.632 190.957 282.788 190.255L282.97 190.295C282.828 190.937 283.038 191.649 283.505 192.111L283.375 192.243Z" fill="#8B7B70"/>
<path d="M284.814 192.944L284.58 192.484C284.463 192.253 284.245 191.824 284.413 191.455L284.583 191.533C284.461 191.798 284.603 192.119 284.746 192.4L284.979 192.86L284.814 192.944Z" fill="#8B7B70"/>
<path d="M279.964 192.657C279.431 192.307 279.043 191.723 278.926 191.096C278.863 190.758 278.904 190.489 279.049 190.295L279.198 190.406C279.085 190.556 279.056 190.777 279.108 191.061C279.216 191.64 279.574 192.178 280.066 192.501L279.964 192.657Z" fill="#8B7B70"/>
<path d="M281.425 193.931C280.885 193.617 280.514 193.011 280.479 192.387L280.665 192.377C280.696 192.94 281.031 193.487 281.519 193.771L281.425 193.931Z" fill="#8B7B70"/>
<path d="M283.033 193.778L282.9 193.908L283.731 194.754L283.864 194.624L283.033 193.778Z" fill="#8B7B70"/>
<path d="M285.089 194.043L284.903 194.041C284.905 193.904 284.845 193.768 284.741 193.678L284.863 193.538C285.008 193.664 285.091 193.853 285.089 194.043Z" fill="#8B7B70"/>
<path d="M272.581 192.976C273.256 192.131 274.149 191.435 274.592 190.448C275.209 189.075 274.712 187.295 273.474 186.438C272.534 185.788 271.256 185.629 270.513 184.76C269.487 183.558 270.036 181.69 270.889 180.36C271.742 179.029 272.89 177.752 272.98 176.175C273.06 174.785 272.252 173.456 271.157 172.597C270.062 171.738 268.71 171.278 267.365 170.921C266.924 170.803 266.453 170.679 266.145 170.342C265.702 169.856 265.747 169.118 265.739 168.461C265.723 166.971 265.263 165.45 264.26 164.35C263.257 163.249 261.668 162.64 260.225 163.009C258.349 163.489 257.157 165.488 257.085 167.423C257.012 169.358 257.837 171.215 258.828 172.878C259.82 174.542 261 176.105 261.763 177.884C261.97 178.369 262.148 178.893 262.065 179.413C261.894 180.478 260.763 181.057 260.052 181.868C258.903 183.18 258.951 185.372 260.156 186.632C261.086 187.604 262.468 187.96 263.66 188.584C264.852 189.209 265.988 190.421 265.689 191.733C265.583 192.195 265.307 192.609 265.232 193.077C265.15 193.592 265.323 194.118 265.583 194.57C266.398 195.987 268.194 196.689 269.777 196.445C272.012 196.098 271.411 194.439 272.581 192.976Z" fill="#7FA56D"/>
<path d="M263.021 166.153C262.936 165.454 262.675 164.782 262.265 164.209L262.113 164.317C262.505 164.865 262.755 165.507 262.836 166.175L263.021 166.153Z" fill="#8B7B70"/>
<path d="M261.532 168.287C261.572 167.522 261.278 166.736 260.746 166.184L260.612 166.313C261.109 166.828 261.383 167.563 261.346 168.277L261.532 168.287Z" fill="#8B7B70"/>
<path d="M259.592 168.668L259.724 168.538C259.185 167.989 258.912 167.174 259.014 166.41L258.829 166.386C258.721 167.205 259.013 168.079 259.592 168.668Z" fill="#8B7B70"/>
<path d="M260.781 171.579L260.852 171.407C260.295 171.176 259.991 170.564 259.727 169.956L259.557 170.03C259.836 170.672 260.16 171.321 260.781 171.579Z" fill="#8B7B70"/>
<path d="M264.434 170.212C264.413 169.481 264.175 168.746 263.764 168.143L263.61 168.247C264.002 168.822 264.229 169.522 264.248 170.217L264.434 170.212Z" fill="#8B7B70"/>
<path d="M264.226 172.609L264.289 172.434C263.656 172.207 263.182 171.579 263.135 170.908L262.949 170.92C263.001 171.663 263.526 172.357 264.226 172.609Z" fill="#8B7B70"/>
<path d="M268.176 174.523C268.171 174.105 268.163 173.531 267.854 173.115C267.633 172.819 267.303 172.651 266.984 172.489C266.696 172.343 266.424 172.204 266.227 171.979L266.087 172.102C266.308 172.353 266.609 172.506 266.899 172.654C267.213 172.813 267.51 172.964 267.704 173.226C267.957 173.566 267.983 174.016 267.99 174.525L268.176 174.523Z" fill="#8B7B70"/>
<path d="M267.405 176.925C267.636 176.224 267.52 175.409 267.102 174.801L266.948 174.906C267.335 175.468 267.442 176.219 267.228 176.867L267.405 176.925Z" fill="#8B7B70"/>
<path d="M264.671 176.906C264.66 176.262 264.513 175.611 264.246 175.024L264.077 175.102C264.334 175.665 264.474 176.29 264.485 176.909L264.671 176.906Z" fill="#8B7B70"/>
<path d="M262.996 176.479L263.121 176.341C262.575 175.848 262.232 175.115 262.202 174.38L262.017 174.388C262.048 175.183 262.406 175.946 262.996 176.479Z" fill="#8B7B70"/>
<path d="M271.717 176.649C271.75 175.591 271.433 174.531 270.824 173.665L270.672 173.772C271.258 174.605 271.563 175.624 271.531 176.643L271.717 176.649Z" fill="#8B7B70"/>
<path d="M270.092 179.202C270.254 178.497 270.305 177.775 270.245 177.054L270.06 177.07C270.118 177.771 270.068 178.474 269.911 179.16L270.092 179.202Z" fill="#8B7B70"/>
<path d="M267.823 181.355C268.124 181.086 268.155 180.645 268.16 180.253L268.174 179.23L267.988 179.228L267.974 180.25C267.969 180.619 267.944 180.997 267.699 181.216L267.823 181.355Z" fill="#8B7B70"/>
<path d="M266.973 182.65L267.125 182.543C266.551 181.722 266.326 180.685 266.509 179.699L266.326 179.665C266.134 180.699 266.37 181.788 266.973 182.65Z" fill="#8B7B70"/>
<path d="M269.466 185.44L269.607 185.319C269.136 184.77 268.825 184.073 268.731 183.355L268.547 183.38C268.645 184.132 268.971 184.864 269.466 185.44Z" fill="#8B7B70"/>
<path d="M267.79 186.672L267.944 186.567C267.562 186.008 267.342 185.326 267.324 184.648L267.139 184.653C267.157 185.367 267.388 186.084 267.79 186.672Z" fill="#8B7B70"/>
<path d="M267.395 187.706L267.46 187.531C266.758 187.269 266.222 186.595 266.127 185.852L265.942 185.876C266.047 186.686 266.63 187.421 267.395 187.706Z" fill="#8B7B70"/>
<path d="M272.039 189.409C271.88 188.449 271.08 187.752 270.273 187.12L270.158 187.266C270.968 187.9 271.708 188.544 271.856 189.439L272.039 189.409Z" fill="#8B7B70"/>
<path d="M270.885 191.883C270.903 191.104 270.678 190.316 270.25 189.665L270.095 189.767C270.502 190.387 270.716 191.137 270.699 191.878L270.885 191.883Z" fill="#8B7B70"/>
<path d="M272.644 189.706C273.027 189.182 272.949 188.366 272.472 187.924L272.346 188.061C272.756 188.441 272.824 189.144 272.493 189.596L272.644 189.706Z" fill="#8B7B70"/>
<path d="M263.773 183.337C264.124 182.514 264.008 181.518 263.475 180.799L263.326 180.91C263.82 181.577 263.928 182.501 263.602 183.263L263.773 183.337Z" fill="#8B7B70"/>
<path d="M268.79 176.225C268.102 176.832 267.253 177.283 266.738 178.043C266.022 179.1 266.175 180.661 267.084 181.558C267.775 182.24 268.82 182.56 269.313 183.395C269.995 184.55 269.262 186.031 268.354 187.018C267.446 188.005 266.298 188.904 265.993 190.21C265.723 191.36 266.203 192.589 266.992 193.467C267.781 194.346 268.844 194.928 269.916 195.424C270.267 195.588 270.643 195.76 270.851 196.087C271.15 196.558 271.004 197.168 270.914 197.719C270.709 198.966 270.87 200.305 271.548 201.372C272.225 202.439 273.464 203.181 274.724 203.084C276.363 202.958 277.652 201.462 277.996 199.856C278.34 198.249 277.923 196.576 277.338 195.04C276.753 193.505 275.996 192.026 275.62 190.426C275.517 189.991 275.445 189.527 275.591 189.104C275.89 188.239 276.92 187.922 277.634 187.347C278.786 186.419 279.068 184.581 278.245 183.35C277.61 182.401 276.507 181.902 275.603 181.205C274.698 180.508 273.926 179.328 274.369 178.276C274.525 177.905 274.817 177.6 274.948 177.219C275.092 176.801 275.024 176.336 274.874 175.92C274.4 174.617 273.002 173.766 271.642 173.738C269.723 173.698 269.982 175.173 268.79 176.225Z" fill="#8BAF7C"/>
<path d="M273.412 196.848L273.232 196.894C273.399 197.545 273.401 198.234 273.237 198.886L273.417 198.931C273.589 198.249 273.587 197.529 273.412 196.848Z" fill="#8B7B70"/>
<path d="M274.448 196.353L274.275 196.421C274.555 197.13 274.615 197.931 274.446 198.675L274.627 198.716C274.805 197.936 274.741 197.097 274.448 196.353Z" fill="#8B7B70"/>
<path d="M272.862 193.154L272.728 193.283C273.156 193.729 273.41 194.34 273.427 194.957L273.613 194.952C273.595 194.288 273.321 193.633 272.862 193.154Z" fill="#8B7B70"/>
<path d="M271.275 194.165L271.146 194.298C271.814 194.953 272.165 195.937 272.061 196.867L272.246 196.888C272.355 195.903 271.983 194.859 271.275 194.165Z" fill="#8B7B70"/>
<path d="M268.618 191.398C268.453 191.873 268.546 192.445 268.872 192.965C269.157 193.422 269.563 193.775 269.956 194.116L270.077 193.975C269.695 193.643 269.3 193.3 269.029 192.867C268.734 192.394 268.648 191.88 268.793 191.458L268.618 191.398Z" fill="#8B7B70"/>
<path d="M269.962 189.341C269.513 190.027 269.452 190.947 269.805 191.687L269.973 191.607C269.647 190.924 269.704 190.075 270.118 189.443L269.962 189.341Z" fill="#8B7B70"/>
<path d="M272.263 189.256C271.821 189.852 271.699 190.657 271.946 191.356L272.122 191.295C271.899 190.662 272.013 189.906 272.413 189.367L272.263 189.256Z" fill="#8B7B70"/>
<path d="M274.131 190.439C274.132 190.932 274.193 191.425 274.31 191.905L274.491 191.86C274.377 191.395 274.319 190.917 274.317 190.438L274.131 190.439Z" fill="#8B7B70"/>
<path d="M275.751 195.082L275.569 195.121C275.683 195.645 275.736 196.182 275.726 196.718L275.912 196.722C275.922 196.172 275.868 195.619 275.751 195.082Z" fill="#8B7B70"/>
<path d="M276.638 199.218C276.66 199.755 276.52 200.304 276.243 200.764L276.402 200.861C276.698 200.369 276.848 199.784 276.824 199.21L276.638 199.218Z" fill="#8B7B70"/>
<path d="M273.213 200.371L273.033 200.418L273.489 202.148L273.669 202.1L273.213 200.371Z" fill="#8B7B70"/>
<path d="M271.871 198.53C271.709 199.026 271.653 199.563 271.71 200.082L271.895 200.061C271.84 199.568 271.893 199.059 272.047 198.587L271.871 198.53Z" fill="#8B7B70"/>
<path d="M275.034 200.066L274.849 200.083L274.99 201.702L275.175 201.686L275.034 200.066Z" fill="#8B7B70"/>
<path d="M269.898 186.698C269.606 187.274 269.302 187.854 268.992 188.422L269.155 188.511C269.466 187.942 269.771 187.36 270.064 186.782L269.898 186.698Z" fill="#8B7B70"/>
<path d="M271.461 185.29C271.537 186.085 271.363 186.906 270.968 187.601L271.129 187.693C271.543 186.965 271.726 186.105 271.646 185.272L271.461 185.29Z" fill="#8B7B70"/>
<path d="M272.95 185.117C273.094 185.885 272.96 186.717 272.584 187.401L272.747 187.491C273.15 186.759 273.287 185.904 273.133 185.083L272.95 185.117Z" fill="#8B7B70"/>
<path d="M274.88 185.132L274.699 185.174C274.867 185.895 274.597 186.695 274.026 187.167L274.145 187.31C274.768 186.795 275.064 185.92 274.88 185.132Z" fill="#8B7B70"/>
<path d="M271.785 182.57L271.646 182.695C272.01 183.095 272.068 183.686 272.099 184.306L272.285 184.297C272.252 183.642 272.188 183.016 271.785 182.57Z" fill="#8B7B70"/>
<path d="M272.976 181.487L272.842 181.615C273.325 182.123 273.659 182.783 273.784 183.473L273.967 183.44C273.836 182.715 273.484 182.021 272.976 181.487Z" fill="#8B7B70"/>
<path d="M273.978 180.418L273.852 180.554C274.276 180.948 274.61 181.443 274.816 181.985L274.99 181.918C274.774 181.35 274.424 180.831 273.978 180.418Z" fill="#8B7B70"/>
<path d="M268.48 180.122C268.398 180.526 268.617 180.888 268.756 181.068C268.893 181.244 269.057 181.396 269.217 181.542C269.286 181.606 269.358 181.672 269.426 181.739C269.729 182.036 269.982 182.377 270.18 182.752L270.344 182.665C270.138 182.273 269.873 181.917 269.557 181.607C269.487 181.537 269.413 181.47 269.342 181.405C269.182 181.258 269.03 181.119 268.903 180.954C268.7 180.691 268.612 180.401 268.662 180.159L268.48 180.122Z" fill="#8B7B70"/>
<path d="M269.628 178.258C269.436 178.642 269.43 179.121 269.611 179.573C269.757 179.939 270.025 180.289 270.405 180.614L270.525 180.473C270.169 180.168 269.919 179.842 269.784 179.505C269.625 179.108 269.628 178.674 269.793 178.342L269.628 178.258Z" fill="#8B7B70"/>
<path d="M271.461 177.534C271.082 178.146 271.041 178.958 271.357 179.605L271.525 179.523C271.236 178.933 271.273 178.191 271.62 177.632L271.461 177.534Z" fill="#8B7B70"/>
<path d="M272.699 176.516L272.58 177.017C272.52 177.269 272.409 177.738 272.659 178.056L272.805 177.941C272.625 177.712 272.688 177.366 272.761 177.06L272.88 176.558L272.699 176.516Z" fill="#8B7B70"/>
<path d="M268.052 177.932C267.615 178.397 267.375 179.056 267.408 179.693C267.426 180.036 267.53 180.288 267.716 180.442L267.834 180.299C267.69 180.179 267.609 179.972 267.594 179.682C267.562 179.095 267.784 178.487 268.187 178.058L268.052 177.932Z" fill="#8B7B70"/>
<path d="M269.172 176.35C268.72 176.782 268.502 177.459 268.614 178.073L268.797 178.04C268.695 177.485 268.893 176.875 269.3 176.485L269.172 176.35Z" fill="#8B7B70"/>
<path d="M271.213 175.004L270.604 176.021L270.763 176.117L271.373 175.1L271.213 175.004Z" fill="#8B7B70"/>
<path d="M272.709 175.382L272.529 175.428C272.562 175.56 272.535 175.707 272.456 175.818L272.608 175.925C272.718 175.77 272.756 175.566 272.709 175.382Z" fill="#8B7B70"/>
<path d="M284.514 220.658H264.625L257.924 192.554H289.559L284.514 220.658Z" fill="#B14A00"/>
<path d="M266.499 215.28C266.513 210.902 268.208 206.366 271.062 203.041C273.738 199.922 277.9 198.304 281.873 197.696C284.101 197.355 286.406 197.283 288.661 197.557L289.559 192.554H257.924L264.625 220.658H267.314C266.78 218.921 266.493 217.111 266.499 215.28Z" fill="#993F02"/>
<path d="M292.872 189.888H253.382V195.004H292.872V189.888Z" fill="#B14A00"/>
<path d="M281.502 160.588C280.79 165.171 278.796 169.442 276.824 173.64C273.726 180.238 270.627 186.835 267.529 193.433C266.107 196.46 264.667 199.519 262.587 202.138C261.668 203.295 258.96 206.805 257.209 205.994C255.166 205.048 256.421 201.837 256.915 200.441C258.689 195.424 260.879 190.474 263.189 185.683C265.482 180.928 268.059 176.297 271.118 171.989C272.655 169.826 274.309 167.744 276.098 165.783C277.027 164.764 281.322 161.75 281.502 160.588Z" fill="#FFDC97"/>
<path d="M241.669 199.474C236.626 192.037 233.17 183.662 229.75 175.354C241.367 181.696 248.183 195.176 246.844 208.257C245.697 205.002 243.588 202.305 241.669 199.474Z" fill="#F9BB5A"/>
<path d="M241.67 194.67C240.115 193.338 238.494 192.108 236.713 191.021C238.204 193.931 239.829 196.765 241.667 199.474C243.586 202.305 245.695 205.002 246.841 208.256C247.127 205.467 247.04 202.66 246.617 199.908C245.163 197.992 243.492 196.233 241.67 194.67Z" fill="#FFDC97"/>
<path d="M249.189 162.739C248.303 165.065 249.886 169.417 250.077 171.891C250.321 175.058 250.5 178.228 250.615 181.4C250.848 187.856 250.811 194.318 250.504 200.773C250.438 202.179 251.288 208.06 248.602 208.249C246.382 208.406 246.462 202.789 246.255 201.388C245.36 195.335 244.897 189.232 245.155 183.139C245.448 176.242 246.668 169.355 249.189 162.739Z" fill="#FFDC97"/>
<path d="M240.154 197.728C236.666 196.246 232.533 196.215 229.132 197.886C225.932 199.457 223.56 202.385 221.998 205.589C220.436 208.793 219.6 212.294 218.775 215.762C221.783 211.764 225.506 208.164 230.082 206.142C232.675 204.996 235.556 204.407 238.394 204.563C241.198 204.717 244.451 207.427 246.903 207.263C252.243 206.906 241.912 198.475 240.154 197.728Z" fill="#FFEABB"/>
<path d="M255.004 198.829C254.998 195.182 253.996 191.594 253.952 187.947C253.906 184.246 254.845 180.61 255.806 177.035C257.57 170.477 259.431 163.946 261.389 157.445C262.39 169.047 263.148 180.863 261.187 192.408C260.428 196.878 259.352 205.346 256.03 208.725C254.06 210.729 253.391 209.606 253.505 207.471C253.66 204.583 255.009 201.839 255.004 198.829Z" fill="#F9BB5A"/>
<path d="M253.952 187.947C253.997 191.594 254.998 195.182 255.004 198.83C255.01 201.839 253.66 204.584 253.505 207.471C253.391 209.607 254.06 210.73 256.03 208.726C257.973 206.75 259.147 203.033 259.94 199.394C259.949 196.986 259.802 194.57 259.523 192.163C259.429 191.352 259.378 190.971 259.246 190.133C259.12 189.336 258.977 188.542 258.81 187.752C258.482 186.198 258.07 184.66 257.527 183.167C257.043 181.84 256.433 180.519 255.585 179.22C255.492 179.077 255.409 178.952 255.33 178.837C254.558 181.83 253.914 184.866 253.952 187.947Z" fill="#EFAD45"/>
<path d="M247.179 176.921C252.927 181.58 255.271 189.187 256.836 196.418C257.323 198.674 256.262 208.623 259.777 207.41C261.932 206.667 264.119 200.752 265.229 198.865C266.969 195.906 268.709 192.947 270.45 189.989C270.97 189.105 271.719 188.097 272.739 188.205C274.495 191.227 276.251 194.249 278.007 197.271C277.591 191.598 276.528 185.973 274.847 180.539C274.64 179.871 274.379 179.147 273.775 178.793C272.592 178.101 271.215 179.288 270.386 180.38C265.503 186.82 261.851 193.935 259.065 201.502C258.156 203.974 257.249 207.615 253.875 206.818C251.395 206.232 250.086 203.136 249.228 201.026C247.733 197.35 247.073 193.215 246.763 189.279C246.644 187.773 247.777 177.405 247.179 176.921Z" fill="#FFEABB"/>
<path d="M260.627 223.252L246.696 223.268L241.976 206.047L264.133 206.021L260.627 223.252Z" fill="#E56000"/>
<path d="M248.003 219.97C248.009 217.286 249.192 214.505 251.187 212.464C253.059 210.55 255.972 209.555 258.755 209.179C260.315 208.968 261.93 208.922 263.509 209.088L264.133 206.021L241.976 206.047L246.696 223.268L248.58 223.266C248.204 222.202 248.001 221.092 248.003 219.97Z" fill="#C65202"/>
<path d="M266.458 204.381L238.799 204.414L238.803 207.55L266.462 207.517L266.458 204.381Z" fill="#E56000"/>
<defs>
<clipPath id="clip0_1305_52522">
<rect width="29.5984" height="18.9642" fill="white" transform="translate(138.115 131.062) rotate(-30.8263)"/>
</clipPath>
</defs>
</svg>
