<svg width="106" height="68" viewBox="0 0 106 68" fill="none" xmlns="http://www.w3.org/2000/svg">
<g clip-path="url(#clip0_1307_17184)">
<path d="M71.6863 49.1895C71.1533 50.5693 70.6732 51.8244 70.178 53.0757C68.6999 56.8409 67.0177 60.504 64.4357 63.6606C62.9311 65.4978 61.2527 67.2103 58.8295 67.7546C55.4423 68.5145 51.8888 67.3086 50.8568 63.7362C50.1197 61.1845 51.3709 58.043 53.5484 57.0412C54.3309 56.6821 55.1324 56.5763 55.9527 56.89C56.2627 57.011 56.4895 57.2265 56.5273 57.578C56.5613 57.8767 56.4366 58.13 56.1757 58.2434C54.501 58.9768 54.3725 60.5116 54.2326 62.0199C54.1495 62.8969 54.4217 63.6681 54.9698 64.3902C55.9565 65.6981 58.304 65.4411 59.4722 64.7644C61.4871 63.5925 62.8366 61.7969 64.1219 59.9218C66.9307 55.8126 68.7301 51.2233 70.5258 46.6302C70.9416 45.568 71.3726 44.5095 71.7241 43.4245C72.1286 42.1846 71.554 41.0127 70.4502 40.6158C69.7886 40.3776 69.1838 40.6422 68.613 40.869C65.9781 41.9238 62.296 46.2031 62.8102 49.6658C62.8744 50.0892 62.95 50.4748 63.2562 50.7848C63.5738 51.1024 63.7363 51.4577 63.4982 51.9C63.2373 52.3839 62.7837 52.3574 62.349 52.2932C60.4966 52.0248 59.1886 50.0439 59.5326 48.0214C59.8653 46.0821 60.7083 44.3696 61.9445 42.8613C63.8044 40.5855 66.0575 38.8541 69.0099 38.2833C70.8509 37.928 72.6163 38.083 73.9054 39.7123C74.7635 40.7934 74.9488 42.0976 75.0622 43.4094C75.3722 46.9554 75.0622 50.4862 74.8013 54.017C74.669 55.8051 74.5859 57.6007 74.4989 59.3926C74.4838 59.6912 74.4006 60.0201 74.635 60.3452C75.0508 60.0768 75.2285 59.6534 75.4478 59.2641C76.6008 57.2113 77.697 55.1246 78.9105 53.1097C81.001 49.6356 82.9895 46.101 85.2577 42.7365C85.9495 41.7121 86.6904 40.7141 87.4578 39.7463C88.5768 38.3362 90.0171 37.962 91.4574 38.6462C92.3873 39.0885 92.5877 39.4817 92.2134 40.4419C91.4309 42.4568 90.5501 44.4339 89.813 46.4639C88.0929 51.1969 86.5543 55.9827 86.0402 61.0257C85.9684 61.725 85.9722 62.4357 86.0213 63.1351C86.1082 64.3561 86.9513 64.7682 88.0135 64.1293C88.3462 63.929 88.6486 63.6795 88.9473 63.4337C89.2232 63.2069 89.5105 62.9801 89.8545 63.2296C90.2023 63.4791 90.0511 63.8458 89.949 64.1671C89.4425 65.7738 87.2197 67.2216 85.6017 67.0099C83.4582 66.7264 82.3015 65.4486 82.2183 63.2296C82.1578 61.6192 82.4035 60.0352 82.7211 58.4588C83.5565 54.3307 84.9515 50.3652 86.2519 46.3694C86.3086 46.1955 86.4523 46.0254 86.301 45.7646C85.08 47.4279 84.0253 49.1631 82.9592 50.8907C80.2147 55.3401 77.9314 60.039 75.3419 64.5716C75.0924 65.0101 74.8429 65.4675 74.4422 65.8002C73.3799 66.6772 72.0266 66.2236 71.7771 64.8703C71.5011 63.3581 71.486 61.8233 71.6296 60.2961C71.9736 56.7086 71.8413 53.1135 71.8376 49.5222C71.8451 49.4693 71.7922 49.4088 71.6863 49.1895Z" fill="#BFAF7F"/>
<path d="M14.9055 51.0228C13.5786 50.9963 12.282 50.8224 11.0987 50.1798C10.5581 49.8887 10.0856 49.4993 9.79073 48.9436C9.49964 48.3992 9.54123 47.8511 9.93816 47.3748C10.2784 46.9665 10.7358 46.8228 11.2499 47.027C13.5673 47.9456 15.9337 47.7301 18.2851 47.2614C22.3716 46.4486 26.2653 44.9667 30.2384 43.7721C34.9638 42.3507 39.727 41.0805 44.6339 40.4417C47.1894 40.109 49.7562 39.8746 52.323 40.3547C53.5554 40.5853 54.7122 41.0238 55.7064 41.8064C56.5494 42.4717 57.0711 43.3298 56.9879 44.445C56.9464 45.031 56.7347 45.5489 56.0769 45.7039C55.4494 45.8475 55.0751 45.5224 54.784 45.0083C53.8692 43.3979 52.2626 43.1219 50.6484 43.0047C48.1836 42.8233 45.7566 43.2504 43.3372 43.6625C36.9409 44.7512 30.8168 46.8153 24.6852 48.868C21.918 49.7942 19.1357 50.6561 16.2097 50.9283C15.775 50.9698 15.3402 50.9925 14.9055 51.0228Z" fill="#BFAF7F"/>
<path d="M105.728 26.6737C105.354 26.3713 104.938 26.4734 104.575 26.7153C104.065 27.0555 103.672 27.5281 103.282 27.9893C102.175 29.2973 100.893 30.4087 99.4529 31.3273C98.2508 32.0947 96.973 32.6693 95.4987 32.6164C94.0168 32.5634 93.1133 31.6902 93.0037 30.2045C92.9508 29.4976 93.0453 28.802 93.1549 28.1027C93.2494 27.5016 93.5027 27.305 94.1265 27.3655C97.0675 27.649 99.3584 26.3335 101.26 24.2619C102.375 23.0484 102.984 21.5703 102.946 19.8767C102.904 18.0886 101.744 16.9281 99.9633 16.8714C98.9275 16.8373 98.024 17.2494 97.1091 17.6388C96.4249 18.2134 95.6802 18.7199 95.0867 19.3966C93.6917 20.9919 92.5123 22.7195 91.6693 24.6739C91.2837 25.5661 90.7582 26.3751 90.1118 27.1084C89.0684 28.8134 87.8738 30.3973 86.373 31.7318C86.1954 31.8905 85.9761 32.0229 85.7568 32.1136C85.0764 32.4009 84.6038 32.1098 84.5358 31.3802C84.4602 30.5863 84.6719 29.8378 84.9214 29.0969C85.7871 26.5527 87.1178 24.2316 88.3615 21.8689C88.8227 20.9881 89.3103 20.1111 89.4729 19.1093C89.5409 18.7048 89.4615 18.3154 89.0873 18.0811C88.7055 17.8391 88.3048 17.8731 87.9116 18.0924C87.4391 18.3532 87.182 18.7993 86.9287 19.2378C86.2974 20.3303 85.7115 21.4531 85.0537 22.5305C83.2203 25.5472 81.2658 28.4731 78.6952 30.9266C77.8446 31.7393 76.8844 32.4047 75.7239 32.6995C74.5671 32.9944 73.7317 32.6542 73.2327 31.7318C72.1817 29.7849 72.7034 26.7304 74.3365 25.2674C74.6616 24.9764 75.0056 24.7042 75.3232 24.4055C79.9541 20.0695 83.311 14.8451 85.9118 9.11037C86.7057 7.36387 87.4013 5.572 87.5752 3.62514C87.7831 1.27 86.2974 -0.000183097 84.0406 0.64247C83.6928 0.740758 83.3563 0.891971 83.035 1.05452C81.5342 1.82193 80.5287 3.09967 79.5798 4.43035C78.2529 6.29404 77.2625 8.36187 76.117 10.3314C75.9923 10.6452 75.8864 10.9703 75.739 11.2727C73.8186 15.2458 72.3103 19.3664 71.3085 23.6721C71.0514 24.7722 70.9985 25.9479 70.318 26.927C69.4712 28.1443 68.5715 29.3237 67.5735 30.42C66.9687 31.0853 66.3714 31.7696 65.5511 32.1816C64.6778 32.6201 64.0956 32.227 64.1675 31.2555C64.228 30.4502 64.4585 29.6753 64.8139 28.9495C65.4528 27.6377 66.1105 26.3373 66.7608 25.0331C67.0897 24.3753 67.3467 23.6986 67.4261 22.9614C67.5357 21.9256 67.1804 21.1167 66.2882 20.5383C65.6985 20.1565 65.0332 20.0355 64.3792 19.8616C63.1014 19.5176 63.0712 19.4458 63.4114 18.202C63.4303 18.1302 63.4454 18.0584 63.4605 17.9903C63.5966 17.3704 63.5135 16.7995 62.9162 16.4631C62.3 16.1153 61.6914 16.2363 61.1659 16.6975C60.6215 17.1813 60.4061 17.8391 60.3872 18.5309C60.3342 20.3455 59.6046 21.937 58.7503 23.4604C57.4423 25.7929 55.8961 27.9779 54.3462 30.1554C53.9946 30.6468 53.6469 31.1572 53.163 31.5314C52.5506 32.0077 52.0667 31.8527 51.8625 31.0929C51.7756 30.7716 51.7529 30.42 51.768 30.0836C51.8058 29.0704 52.1498 28.1329 52.5695 27.2256C53.5599 25.0898 54.6864 23.0144 55.6051 20.8407C55.813 20.3455 56.0133 19.8465 56.036 19.3059C56.0549 18.8485 55.9453 18.4213 55.4841 18.202C55.0456 17.9979 54.626 18.0886 54.2555 18.3835C53.9266 18.6443 53.6884 18.977 53.4956 19.3475C53.4011 19.5327 53.3671 19.8313 53.1063 19.8162C52.8416 19.8011 52.8568 19.4949 52.7736 19.3021C52.078 17.703 50.7095 17.0566 49.0273 17.5556C47.7836 17.9223 46.778 18.6708 45.8292 19.5251C44.9219 20.3455 44.2755 21.3888 43.4778 22.2999C43.1073 22.9539 42.7217 23.5965 42.3702 24.2619C41.3722 26.152 40.2948 27.993 38.9906 29.6904C38.2232 30.6922 37.4595 31.7015 36.3179 32.3253C36.0003 32.4992 35.6601 32.7033 35.2972 32.4425C34.9305 32.1778 35.0401 31.7923 35.112 31.4369C35.4144 29.9323 35.9701 28.5072 36.5296 27.0858C37.0777 25.6871 37.675 24.2997 37.8603 22.7875C38.0455 21.249 37.6977 20.5609 36.4313 19.9599C34.8776 19.8805 33.6981 20.6555 32.6056 21.6346C30.4773 23.5398 28.8064 25.8496 26.9427 27.9855C26.765 28.1896 26.6403 28.4656 26.2018 28.5601C26.7499 27.0858 27.1695 25.7627 28.3641 24.6853C32.0613 21.3586 35.1762 17.5102 37.985 13.4124C39.3043 11.4844 40.5027 9.48841 41.255 7.25802C41.565 6.33184 41.8145 5.39811 41.6065 4.40388C41.3986 3.42478 40.8618 2.86908 39.8752 2.68006C38.794 2.47214 37.8603 2.89554 36.9983 3.45502C35.8227 4.21865 34.9192 5.27336 34.1291 6.42257C32.1709 9.26915 30.5189 12.2896 29.0748 15.4273C28.4246 16.8373 27.7895 18.2512 27.1468 19.665C26.5193 21.3208 25.888 22.9766 25.2718 24.6361C25.0147 25.3279 24.6292 25.9366 24.1453 26.4923C22.3685 28.5261 20.4633 30.4313 18.4219 32.193C16.6111 33.7542 14.6643 35.1114 12.3469 35.8485C8.63465 37.0318 5.49699 35.4667 4.26839 31.7696C3.64464 29.8908 3.54635 27.9515 3.89036 26.0122C4.94128 20.0884 7.47031 14.7997 10.9406 9.93448C12.7703 7.36765 14.8873 5.06922 17.6318 3.43234C18.5844 2.86529 19.6089 2.49104 20.743 2.57799C21.4764 2.6347 22.119 2.87286 22.4706 3.5949C22.6747 3.78391 22.773 4.03341 22.8562 4.28291C23.4081 5.95759 23.1284 7.57179 22.4782 9.15574C22.0018 10.6452 21.2307 11.9305 19.9567 12.8907C19.2687 13.4124 19.1175 14.0097 19.4048 14.6788C19.6958 15.363 20.3045 15.6654 21.1475 15.5331C21.8998 15.4159 22.5046 15.0039 23.0301 14.4898C25.3966 12.1724 26.4248 9.28049 26.5344 6.0332C26.5874 4.48705 26.2055 3.03919 25.1546 1.84461C23.6954 0.185052 21.7675 -0.0984713 19.711 0.00737753C18.1043 0.0905444 16.63 0.627349 15.1897 1.29268C13.0274 2.63092 11.0843 4.23377 9.40583 6.14283C5.6482 10.4146 3.0171 15.3063 1.28194 20.6857C0.174308 24.122 -0.4003 27.6264 0.317959 31.2366C1.31596 36.2719 5.1492 39.3075 10.2602 39.0618C12.3961 38.9597 14.3278 38.1696 16.1083 37.0167C18.3236 35.5839 20.2364 33.792 22.085 31.9208C22.2702 31.7318 22.4139 31.452 22.7428 31.4369C22.8184 31.7053 22.7012 31.9019 22.6369 32.106C22.3799 32.9415 22.0812 33.7656 21.8733 34.6124C21.7448 35.1378 21.8809 35.6557 22.4517 35.8863C22.9847 36.1056 23.4648 35.9393 23.8277 35.5121C24.0621 35.2361 24.2511 34.9186 24.4477 34.6162C26.6743 31.1534 29.2033 27.925 32.1028 25.0028C32.8816 24.2165 33.6452 23.3773 34.6697 22.8707C34.8587 22.7762 35.0779 22.6363 35.2783 22.814C35.4522 22.969 35.3501 23.1845 35.2972 23.3622C35.0628 24.1522 34.8322 24.9461 34.56 25.7249C33.9741 27.3995 33.3088 29.044 32.908 30.7791C32.6964 31.6864 32.5867 32.5975 32.8816 33.5123C33.2747 34.7409 34.4844 35.376 35.713 34.9904C36.178 34.843 36.6052 34.6124 37.0059 34.3288C37.8603 33.7202 38.6163 33.002 39.293 32.2005C39.3951 32.0796 39.4858 31.8754 39.6861 31.9283C39.8865 31.9813 39.8714 32.1968 39.8903 32.3555C40.2154 34.8052 42.5176 35.8485 44.7858 34.5935C46.2148 33.8034 47.3451 32.6806 48.4036 31.4634C48.7135 31.108 49.0008 30.73 49.3902 30.2537C49.4583 30.9644 49.4885 31.5125 49.5641 32.0569C49.8363 33.9886 51.4921 34.8354 53.2235 33.9395C53.7678 33.656 54.2366 33.2704 54.6713 32.847C57.5519 30.0458 59.6198 26.6888 61.2793 23.0635C61.9257 21.6535 61.8993 21.6421 63.3471 22.2016C64.606 22.6855 64.829 23.1202 64.3376 24.3677C63.8235 25.6795 63.2299 26.9572 62.6894 28.2577C62.145 29.5657 61.6914 30.8888 61.7707 32.3442C61.869 34.1171 63.0636 35.0433 64.7912 34.6048C65.9253 34.3175 66.8742 33.6824 67.721 32.8999C68.5413 32.14 69.3238 31.3424 70.0232 30.4691C70.1252 30.3406 70.2273 30.1478 70.4163 30.1856C70.662 30.2348 70.6242 30.4918 70.6394 30.6695C70.7074 31.3764 70.8397 32.0607 71.1006 32.726C71.7394 34.3591 73.021 35.2021 74.775 35.1454C75.9091 35.1076 76.8882 34.6313 77.822 34.0453C79.3379 33.0927 80.6043 31.8565 81.7686 30.5107C81.8971 30.3633 81.9765 30.1025 82.3357 30.1932C82.2411 31.0702 82.1088 31.9624 82.3735 32.8432C82.8384 34.3818 84.2976 35.0698 85.7757 34.4385C86.7548 34.0189 87.5676 33.3686 88.2632 32.5786C88.9058 31.849 89.522 31.1005 90.1533 30.3595C90.2478 30.2499 90.3272 30.1025 90.4974 30.1403C90.641 30.1705 90.6448 30.3179 90.6523 30.4389C90.7355 31.7809 91.3101 32.9112 92.1569 33.9206C92.7126 34.2646 93.2419 34.6464 93.8959 34.8127C95.4193 35.1945 96.8861 35.0433 98.2961 34.3704C101.162 33.0057 103.434 30.9077 105.456 28.5147C105.641 28.2955 105.766 28.0233 105.879 27.7549C106.042 27.3693 106.08 26.9648 105.728 26.6737ZM94.3911 24.7684C95.2492 23.0975 96.2396 21.5249 97.6459 20.251C97.9332 19.9901 98.2735 19.7973 98.6477 19.6688C99.6949 19.3172 100.315 19.7633 100.311 20.9806C100.258 22.2016 99.6003 23.1996 98.5797 24.001C97.4947 24.8554 96.251 25.2712 94.8787 25.3166C94.5234 25.3241 94.1038 25.3279 94.3911 24.7684ZM73.8299 22.8858C74.0227 21.8803 74.2798 20.8936 74.6314 19.9334C76.4875 14.9018 78.6536 10.029 81.8896 5.69675C82.4869 4.89532 83.1409 4.14304 83.9876 3.59112C84.2561 3.41722 84.5396 3.22821 84.8647 3.4021C85.2049 3.58355 85.1293 3.94268 85.1633 4.29047C84.9592 5.73833 84.4262 7.12571 83.8327 8.47906C81.7535 13.2158 79.2207 17.6879 75.8562 21.6459C75.3837 22.2016 74.8771 22.7271 74.2798 23.1542C74.1664 23.2336 74.0416 23.3735 73.8942 23.279C73.7506 23.1958 73.7997 23.0257 73.8299 22.8858ZM30.3148 18.1604C31.9894 14.4898 33.9023 10.9552 36.2347 7.65495C36.6997 7.00096 37.2554 6.41879 37.9056 5.94247C38.2005 5.72699 38.5445 5.50773 38.9112 5.73833C39.3157 5.9954 39.2325 6.42635 39.1229 6.79682C38.6314 8.45638 37.9094 10.0252 36.9983 11.492C34.9078 14.8602 32.4846 17.979 29.7553 20.8558C29.623 20.9957 29.4755 21.1242 29.3281 21.249C29.2978 21.2754 29.2411 21.2754 29.0408 21.3246C29.3848 20.1678 29.8573 19.166 30.3148 18.1604ZM50.1614 25.2712C49.0916 27.1538 47.9083 28.9646 46.4832 30.6015C45.8745 31.3008 45.16 31.8868 44.3359 32.3291C43.8294 32.5975 43.2737 32.8394 42.7595 32.4652C42.2568 32.0985 42.287 31.4823 42.3437 30.9228C42.4874 29.577 42.941 28.3181 43.5269 27.1122C44.5628 24.9801 45.8254 22.9992 47.5341 21.3321C47.9915 20.8861 48.4943 20.508 49.0727 20.2396C50.426 19.6121 51.3938 20.2321 51.4165 21.8538C51.2766 23.0068 50.7889 24.1674 50.1614 25.2712Z" fill="#BFAF7F"/>
<path d="M88.7406 13.4354C88.7822 12.4789 89.1489 11.6926 90.0146 11.2201C91.0504 10.653 92.158 11.1369 92.4529 12.2861C92.7213 13.3408 92.4037 14.2557 91.6401 14.9966C91.1184 15.5032 90.4606 15.7376 89.7575 15.3898C88.9712 14.9928 88.7104 14.2821 88.7406 13.4354Z" fill="#BFAF7F"/>
</g>
<defs>
<clipPath id="clip0_1307_17184">
<rect width="106" height="67.97" fill="white"/>
</clipPath>
</defs>
</svg>
