<svg width="23" height="23" viewBox="0 0 23 23" fill="none" xmlns="http://www.w3.org/2000/svg">
<g clip-path="url(#clip0_1151_40511)">
<path d="M7.39296 6.57164V5.75021C7.39296 4.66093 7.82568 3.61626 8.59592 2.84602C9.36616 2.07578 10.4108 1.64307 11.5001 1.64307C12.5894 1.64307 13.6341 2.07578 14.4043 2.84602C15.1745 3.61626 15.6072 4.66093 15.6072 5.75021V6.57164M18.893 6.57164H4.10725C3.23582 6.57164 2.40009 6.91781 1.7839 7.534C1.16771 8.15019 0.821533 8.98593 0.821533 9.85735V18.8931C0.821533 19.7645 1.16771 20.6002 1.7839 21.2164C2.40009 21.8326 3.23582 22.1788 4.10725 22.1788H18.893C19.7644 22.1788 20.6001 21.8326 21.2163 21.2164C21.8325 20.6002 22.1787 19.7645 22.1787 18.8931V9.85735C22.1787 8.98593 21.8325 8.15019 21.2163 7.534C20.6001 6.91781 19.7644 6.57164 18.893 6.57164Z" stroke="black" stroke-width="2" stroke-linecap="round" stroke-linejoin="round"/>
<path d="M9.03589 12.3217C9.03589 11.8343 9.18042 11.3579 9.4512 10.9526C9.72198 10.5474 10.1068 10.2315 10.5571 10.045C11.0074 9.85849 11.5029 9.80969 11.9809 9.90477C12.459 9.99986 12.8981 10.2346 13.2427 10.5792C13.5873 10.9238 13.822 11.3629 13.9171 11.841C14.0122 12.319 13.9634 12.8145 13.7769 13.2648C13.5904 13.715 13.2745 14.0999 12.8693 14.3707C12.464 14.6415 11.9876 14.786 11.5002 14.786V15.6074M11.5035 18.8931C11.3945 18.8931 11.2901 18.8499 11.213 18.7728C11.136 18.6958 11.0927 18.5914 11.0927 18.4824C11.0927 18.3735 11.136 18.269 11.213 18.192C11.2901 18.115 11.3945 18.0717 11.5035 18.0717C11.6124 18.0717 11.7169 18.115 11.7939 18.192C11.8709 18.269 11.9142 18.3735 11.9142 18.4824C11.9142 18.5914 11.8709 18.6958 11.7939 18.7728C11.7169 18.8499 11.6124 18.8931 11.5035 18.8931Z" stroke="black" stroke-width="2" stroke-linecap="round" stroke-linejoin="round"/>
</g>
<defs>
<clipPath id="clip0_1151_40511">
<rect width="23" height="23" fill="white"/>
</clipPath>
</defs>
</svg>
