<svg width="34" height="34" viewBox="0 0 34 34" fill="none" xmlns="http://www.w3.org/2000/svg">
<path d="M12.3945 2.83203C12.1127 2.83203 11.8425 2.94397 11.6432 3.14323C11.444 3.34249 11.332 3.61274 11.332 3.89453C11.332 4.17632 11.444 4.44658 11.6432 4.64583C11.8425 4.84509 12.1127 4.95703 12.3945 4.95703H12.7487V7.08203H11.6862C10.4651 7.08203 9.29401 7.56711 8.43056 8.43056C7.56711 9.29401 7.08203 10.4651 7.08203 11.6862V24.4362C7.08203 25.3452 7.35109 26.2338 7.8553 26.9901C8.35951 27.7464 9.07631 28.3366 9.91536 28.6862V30.1029C9.91536 30.3847 10.0273 30.6549 10.2266 30.8542C10.4258 31.0534 10.6961 31.1654 10.9779 31.1654C11.2597 31.1654 11.5299 31.0534 11.7292 30.8542C11.9284 30.6549 12.0404 30.3847 12.0404 30.1029V29.0404H21.957V30.1029C21.957 30.3847 22.069 30.6549 22.2682 30.8542C22.4675 31.0534 22.7377 31.1654 23.0195 31.1654C23.3013 31.1654 23.5716 31.0534 23.7708 30.8542C23.9701 30.6549 24.082 30.3847 24.082 30.1029V28.6862C24.9211 28.3366 25.6379 27.7464 26.1421 26.9901C26.6463 26.2338 26.9154 25.3452 26.9154 24.4362V11.6862C26.9154 10.4651 26.4303 9.29401 25.5668 8.43056C24.7034 7.56711 23.5323 7.08203 22.3112 7.08203H21.2487V4.95703H21.6029C21.8847 4.95703 22.1549 4.84509 22.3542 4.64583C22.5534 4.44658 22.6654 4.17632 22.6654 3.89453C22.6654 3.61274 22.5534 3.34249 22.3542 3.14323C22.1549 2.94397 21.8847 2.83203 21.6029 2.83203H12.3945ZM19.1237 4.95703V7.08203H14.8737V4.95703H19.1237ZM11.6862 9.20703H22.3112C23.6797 9.20703 24.7904 10.3177 24.7904 11.6862V24.4362C24.7904 25.0937 24.5292 25.7243 24.0642 26.1892C23.5993 26.6542 22.9687 26.9154 22.3112 26.9154H11.6862C11.0287 26.9154 10.3981 26.6542 9.93316 26.1892C9.46823 25.7243 9.20703 25.0937 9.20703 24.4362V11.6862C9.20703 10.3177 10.3177 9.20703 11.6862 9.20703ZM11.332 13.8112C11.332 13.5294 11.444 13.2592 11.6432 13.0599C11.8425 12.8606 12.1127 12.7487 12.3945 12.7487H21.6029C21.8847 12.7487 22.1549 12.8606 22.3542 13.0599C22.5534 13.2592 22.6654 13.5294 22.6654 13.8112C22.6654 14.093 22.5534 14.3632 22.3542 14.5625C22.1549 14.7618 21.8847 14.8737 21.6029 14.8737H12.3945C12.1127 14.8737 11.8425 14.7618 11.6432 14.5625C11.444 14.3632 11.332 14.093 11.332 13.8112Z" fill="black"/>
</svg>
