<svg width="853" height="672" viewBox="0 0 853 672" fill="none" xmlns="http://www.w3.org/2000/svg">
<path d="M330.621 564.742L318.562 554.236V546.106L297.46 560.448L287.412 567.208L281.109 573.146L277.82 568.396L259.184 543.731L260.463 542.726L260.92 541.356L260.098 540.168L251.785 548.573L243.015 557.708L237.808 562.549L232.419 565.655L227.212 566.66H224.106L220.817 566.112L216.889 564.011L214.057 563.189H209.946L202.821 566.751L202.73 565.473C202.73 565.473 202.638 562.823 202.638 562.458C202.638 562.093 201.634 559.626 201.634 559.626L201.451 556.337C201.451 556.337 201.085 551.587 201.085 551.313C201.085 551.039 199.807 546.015 199.807 546.015L198.345 541.356L198.162 537.976L196.244 534.048L189.849 535.144C189.849 535.144 183.729 535.327 183.455 535.327C183.181 535.327 180.714 536.332 180.714 536.332L170.118 535.51L165.185 538.159L159.795 540.899L151.939 545.467L143.261 548.025L138.51 549.212L135.496 549.395L130.837 552.775L90.8253 576.8V580.637L90.4599 584.839L89.2723 590.868L90.6426 590.685L96.6717 589.406L100.6 588.493L106.264 586.757L106.812 590.959L102.884 593.974L97.4025 594.613L90.1858 595.618L84.9788 593.974L81.0508 593.517L75.6611 593.243L71.4589 591.599L70.9108 590.229L66.8914 593.06L62.5979 597.354L58.4872 602.104L56.7515 604.753C56.7515 604.753 58.5785 606.763 59.0353 606.946C59.492 607.128 60.4969 608.955 60.4969 608.955L60.0401 611.056L57.4823 611.239L53.7369 608.955C53.7369 608.955 51.7272 607.311 51.7272 607.037C51.7272 606.763 52.3667 602.652 52.3667 602.652L53.3715 601.647L57.1169 601.282L59.218 598.998C59.218 598.998 62.5066 595.71 62.5979 595.436C62.6893 595.161 65.6125 592.238 65.6125 592.238L62.4152 592.421L62.0498 591.69L61.2277 590.229L65.1558 588.767L59.218 586.483L58.3958 587.031L57.2996 588.767L55.4726 590.594L52.9148 591.69L50.4483 592.786C50.4483 592.786 48.2559 591.507 47.9818 591.416C47.7078 591.325 45.424 589.68 45.424 589.68L43.0489 586.209L40.1257 582.738L38.9381 581.642L36.8371 580.728L33.183 579.632L30.7166 577.257L30.3512 575.338L28.4328 573.055L27.1539 572.05L27.428 571.502L28.7069 570.131L27.428 569.218H24.9615L25.3269 567.756L26.2404 566.203L27.5193 564.559L28.6155 562.184L28.5242 560.722L24.8701 559.352L24.3418 561.01L24.8899 564.573L24.0677 566.491L21.6013 566.217H17.7647V563.476L17.2166 560.188L16.1204 559.64L12.0098 561.558L12.5579 563.476L15.0244 565.669V567.313L12.284 568.409L10.6397 566.765L7.07724 565.943C7.07724 565.943 4.88483 565.395 4.06267 564.573C3.24052 563.75 4.33672 561.01 4.33672 561.01L3.24052 557.722L2.69241 553.611L0.5 548.952L2.14431 548.404L7.07706 544.568L11.1877 541.279L14.2022 536.347C14.2022 536.347 15.5725 537.169 16.3945 537.169C17.2164 537.169 20.505 537.991 20.505 537.991L22.1494 534.976L26.8081 530.318L30.3705 527.029L29.2743 521.549L29.8224 519.904L33.3849 515.52L38.3177 511.409L42.7023 509.491V507.025L43.7985 504.832L40.2359 501.818L36.3993 495.789L34.7552 494.967L32.2887 494.419L30.0965 491.678L31.1927 490.034L28.1783 487.02L24.3418 484.279L24.8899 482.087L26.2404 478.05L26.6972 472.021L26.2404 467.91L23.5912 465.718L24.5047 461.059L23.8653 457.131L23.1345 454.482L27.1539 446.625C27.1539 446.625 29.1636 441.418 29.3463 441.144C29.529 440.87 30.9906 436.485 30.9906 436.211C30.9906 435.937 30.9906 433.562 30.9906 433.562L30.8993 429.817L41.496 426.437L49.5348 415.109L58.3045 402.503L68.6271 387.522L76.3919 377.382L84.0653 367.881C84.0653 367.881 86.4404 365.597 86.4404 365.323C86.4404 365.049 88.7242 362.126 88.7242 362.126L90.0945 361.669L78.5843 355.732L75.113 354.27L68.7184 350.342L62.2325 347.053L59.9488 346.871L58.9439 344.13L56.8428 342.486L53.4629 343.125L45.2413 345.774C45.2413 345.774 37.9333 347.967 37.5679 347.967C37.2025 347.967 31.9955 348.698 31.9955 348.698L25.5096 349.246L26.2404 343.034L26.3318 338.284V329.788L26.6972 322.115L27.2453 317.547L29.8031 310.513L30.7166 306.311L31.2647 299.094L31.9955 295.075L33.0004 286.945L35.4668 276.257L36.9284 269.04L39.3949 270.867C39.3949 270.867 41.4046 273.425 41.6787 273.516C41.9527 273.607 45.424 274.886 45.424 274.886L49.7175 275.708C49.7175 275.708 53.0061 275.982 53.2802 275.982C53.5542 275.982 54.6504 275.434 54.6504 275.434L55.838 275.069L56.3861 273.516V272.237L57.5737 270.593V268.583L56.7515 262.554L55.1072 258.535L56.9342 255.977L57.2996 249.217L59.492 245.197L60.7709 239.716L62.5979 237.341V233.322L63.3287 231.86L63.146 223.821C63.146 223.821 60.9536 217.609 60.2228 216.513C59.492 215.417 58.3958 212.859 58.3958 212.859L57.4823 211.763L50.1743 215.6L44.8759 217.975H42.3181C42.3181 217.975 37.9333 220.167 37.2025 220.167C36.4717 220.167 35.1928 217.609 35.1928 217.609L33.9139 213.773L31.7214 213.59L32.4522 208.109L30.9906 207.378L31.1733 205.551L32.2695 204.638L35.1928 206.099L40.6738 204.09L42.5008 200.984L49.6262 199.522L55.4726 195.685L60.7709 187.464C60.7709 187.464 63.3287 182.714 64.0595 182.348C64.7904 181.983 69.906 180.156 69.906 180.156L74.6562 179.425L78.1275 182.531L79.7719 183.079H82.147L85.2529 185.454L87.4453 186.368L90.7339 186.733L93.6571 187.281L95.8495 188.012H99.3209L101.513 190.57L104.619 191.483L107.542 193.858L111.196 195.685L116.495 196.051L122.524 198.609L127.822 201.166L128.918 197.695L136.044 197.512L140.611 198.974L142.256 192.762V189.473L139.698 185.819L135.678 182.714L130.745 179.06L123.742 170.655L119.601 165.052L119.113 160.911L121.793 158.719L125.082 156.283L128.005 149.34L130.806 143.128L132.755 138.5L134.46 134.48L137.018 131.557L138.967 125.467L140.307 120.595L140.429 115.723L147.128 114.992L147.371 116.088L152.609 116.21L157.115 115.48H160.648C160.648 115.48 164.18 114.749 164.667 114.749C165.154 114.749 166.981 113.653 167.468 113.653C167.956 113.653 170.392 115.236 170.757 115.236C171.122 115.236 173.071 115.601 173.071 115.601L175.02 114.871L180.379 114.992L185.13 114.262C185.13 114.262 189.149 113.531 190.123 113.774C191.098 114.018 194.995 115.236 194.63 115.114C194.265 114.992 194.386 103.787 194.386 103.787L193.899 98.4275L192.559 94.6516L190.489 90.6322L190.245 87.1C190.245 87.1 196.822 88.6835 197.31 88.6835C197.797 88.6835 201.085 88.3181 201.085 88.3181L204.009 87.2219L208.15 87.4654C208.15 87.4654 213.265 86.0038 213.753 86.0038C214.24 86.0038 216.676 85.1511 216.676 85.1511L217.163 61.8872H212.778L213.631 44.7133L220.939 46.5403L226.176 47.0276L233.241 46.7841L237.991 46.0532L243.837 45.4443L247.37 49.4637L236.042 58.3553L246.761 77.3562L247.857 77.5997C247.857 77.5997 246.883 83.9334 246.883 84.2988C246.883 84.6642 245.543 86.4912 245.543 86.4912L245.786 89.5363L245.421 93.3122L248.831 100.377L249.806 104.153L250.171 105.98L241.889 110.973L249.562 109.877L254.069 109.024C254.069 109.024 260.037 111.46 260.768 111.46C261.499 111.46 266.736 111.704 266.736 111.704L277.333 114.871L284.641 118.281L288.295 116.82L293.654 115.602L302.424 114.749L303.155 116.819L307.661 114.871L310.584 115.358L313.507 113.531L316.431 111.826L322.155 109.755L323.861 109.268L326.053 106.223L327.515 105.857L331.047 103.787L333.605 100.62L332.021 97.6968L335.553 91.2415L336.041 92.2158L337.746 90.5107L339.695 89.4145L339.208 88.4401L337.989 87.9528L340.426 86.3694L343.105 86.4912L346.028 85.0296L347.246 83.3245L347.977 79.4269L347.734 75.1639L350.413 71.6318L351.875 65.2981L352.362 63.5929H355.163L355.529 62.4967L356.381 61.157L363.568 67.7342L368.074 70.292L370.267 72.4844C370.267 72.4844 375.26 69.8048 375.626 70.292C375.991 70.7793 377.087 72.119 377.087 72.119H378.914V75.2858C378.914 75.2858 383.056 79.6706 383.421 79.9142C383.787 80.1577 391.704 84.9079 391.704 84.9079L396.576 80.7667L401.082 81.2539L403.275 79.0615L402.057 73.5805L402.179 66.2724L409.73 63.8365L410.096 56.2849L413.628 55.0668C413.628 55.0668 417.647 54.2141 418.013 54.2141C418.378 54.2141 423.737 53.9706 423.737 53.9706L423.981 55.7976C423.981 55.7976 433.116 56.772 433.36 56.4066C433.604 56.0412 436.527 55.5539 436.527 55.0668C436.527 54.5795 437.258 52.0217 437.258 52.0217L439.937 50.5601L441.886 49.2204L445.54 48.6114L447.123 45.6882L450.168 44.1047L449.681 40.0853L448.098 39.111L435.552 38.2583C435.552 38.2583 425.443 29.8541 424.468 29.8541C423.494 29.8541 419.109 27.9052 419.109 27.9052L430.315 14.6288L438.232 17.1866L442.739 9.8786L444.078 10.244L449.072 2.32701L450.899 3.54508L454.431 0.5L455.528 1.96161C455.528 1.96161 450.168 12.5583 450.29 12.9237C450.412 13.2891 451.63 16.6996 451.63 16.6996L466.003 8.66071L463.323 33.3857L471.24 41.4245L486.587 49.7069L489.997 50.8031L499.376 58.5984L507.171 54.9444L509.242 58.842L511.678 58.9638L510.825 73.7018L507.415 89.9013L493.286 99.1583L493.408 111.217L491.702 112.313L485.856 129.487L484.394 142.154L487.318 141.301L500.716 167.123L518.742 164.565L523.127 165.296L529.583 166.758L538.23 169.437L549.07 172.36L548.949 173.578L556.013 177.232L562.469 182.348L568.437 186.977L572.335 191.727L575.623 196.599L578.059 201.836L585.489 198.913L588.047 200.74L589.387 204.516L593.406 204.272L596.329 211.581L596.573 216.209L598.156 219.985L598.522 223.761L599.131 227.415L601.567 231.312L604.003 234.966L603.394 239.229V243.127L602.785 247.268L637.985 255.672L648.46 256.89L655.646 257.134L666.365 258.717L667.095 261.032L663.076 267.731L660.153 267.365C660.153 267.365 659.665 268.462 659.178 268.462C658.691 268.462 657.351 267.853 657.351 267.853C657.351 267.853 656.012 268.462 655.646 268.462C655.281 268.462 651.87 268.096 651.87 268.096L653.576 275.404L652.723 276.5L654.306 283.687L658.813 283.199L668.07 281.981L677.57 283.443L683.904 283.077L692.795 281.981L695.231 289.777L689.629 295.136L685 298.912L680.493 302.687L675.621 307.438L670.384 313.649L665.512 321.932L663.32 328.387L661.614 334.356L660.153 342.151L658.935 348.972L658.082 354.696L656.62 356.889L663.441 359.081L658.813 367.12L647.364 384.903L646.511 395.378L649.556 397.083C649.556 397.083 644.075 405.365 644.44 405.365C644.806 405.365 649.069 406.705 649.069 406.705L651.505 404.025L656.742 405.731L656.864 409.629L657.473 409.75L657.351 413.526L658.935 413.648L659.3 412.795L658.569 409.019L661.127 408.532L660.883 399.032L664.781 398.91C664.781 398.91 667.583 395.865 667.948 395.621C668.313 395.378 673.429 393.307 673.429 393.307L677.692 390.628C677.692 390.628 682.199 385.877 682.686 385.877C683.173 385.877 688.045 386.486 688.045 386.486L694.257 389.409L697.424 389.653L702.174 392.942L706.315 395.256C706.315 395.256 708.386 395.378 709.117 395.378C709.847 395.378 713.258 394.16 713.258 394.16L716.79 396.352L722.636 400.494L728.361 403.538L730.675 407.436C730.675 407.436 733.842 409.507 734.207 409.629C734.573 409.75 737.983 410.603 737.983 410.603L745.778 411.456L749.311 412.064C749.311 412.064 751.747 418.155 751.747 418.52C751.747 418.885 752.112 422.905 752.112 422.905L754.061 426.193L753.939 428.873V430.7L762.1 431.065L762.952 427.777L762.831 424.001L762.1 420.712L759.177 420.103L757.715 411.456L755.157 407.558L753.696 403.904L755.888 404.025L760.273 407.923L765.997 411.577C765.997 411.577 770.017 413.891 770.382 413.891C770.748 413.891 773.549 413.891 773.549 413.891L777.812 419.251L781.101 425.828C781.101 425.828 785.242 429.969 785.608 429.969C785.973 429.969 789.627 434.111 789.627 434.111C789.627 434.111 791.941 436.912 792.55 437.034C793.159 437.155 798.518 437.277 798.518 437.277L799.493 436.425L800.711 436.668L801.076 437.765C801.076 437.765 810.089 439.592 810.577 439.592C811.064 439.592 812.282 438.495 812.282 438.495C812.282 438.495 820.077 441.175 820.443 441.175C820.808 441.175 825.436 443.733 825.436 443.733L826.167 445.194L827.385 444.464L825.315 450.188L829.09 450.797L827.629 459.445L834.45 460.297L832.501 463.83L825.558 463.708L827.142 453.355L820.564 454.573L813.013 461.394L812.16 471.503L807.166 471.869L806.314 472.234H801.198L796.57 470.529L791.576 467.484L787.435 464.561L786.216 463.464L786.338 465.901L790.114 468.945L794.255 471.26L797.422 472.112L800.833 472.843L804.608 473.087L808.262 473.939L808.019 480.395L811.186 481.856L810.455 484.779L805.826 485.51L799.127 498.543L799.493 500.979L798.762 503.293L797.909 506.704L799.371 509.505L801.442 512.307L803.878 515.595L803.512 517.057L807.532 519.127L809.115 521.563L809.724 524.73L806.679 527.044L805.583 531.795L805.461 534.84L800.711 539.833L799.371 539.468L798.275 539.712H797.179L794.986 540.93L792.916 543L789.627 543.609L788.165 542.757L785.729 542.878L784.268 541.417L781.345 543.366L779.152 545.68L777.203 546.898L776.716 548.603L775.133 549.943L772.94 551.405L770.991 552.501L769.286 554.328L767.703 554.45L763.805 560.661L763.44 558.591L761.978 558.347L761.491 561.879L758.933 564.925L756.984 567.848L754.792 570.162L752.843 572.233H750.651L749.433 572.841L748.458 575.399L750.285 577.348L752.234 576.739L759.177 580.759L764.901 579.784L762.709 587.336L765.998 587.457L766.85 588.067L766.728 590.137L765.267 593.304L763.683 597.202L761.247 601.952L758.568 605.362L759.299 607.555C759.299 607.555 757.106 607.92 757.471 608.042C757.837 608.164 758.202 609.138 758.202 609.138L756.253 608.407L754.426 609.138L752.599 609.26L748.458 606.58L745.657 605.362L741.637 606.824L736.278 610.478L732.624 611.452L731.163 615.106L730.554 616.324L729.092 617.177L727.509 620.587L726.9 627.652L727.143 630.697C727.143 630.697 724.342 631.062 724.342 631.428C724.342 631.793 723.611 633.864 723.611 633.864L723.002 636.787L721.906 639.223L719.104 640.563L718.982 642.999L716.546 644.095L716.425 647.627L715.694 650.55L715.938 652.987L714.476 654.692L713.136 656.762L711.065 660.66L710.944 663.827C710.944 663.827 711.187 667.968 711.187 668.455C711.187 668.942 709.726 670.769 709.726 670.769L707.046 671.5L704.123 670.891L701.808 669.308L700.347 669.186C700.347 669.186 696.815 664.679 696.206 664.557C695.597 664.436 691.577 657.493 691.577 657.493L690.846 650.916L690.725 639.101C690.725 639.101 690.968 632.159 690.968 631.793C690.968 631.428 693.283 626.921 693.283 626.921L698.885 620.1C698.885 620.1 702.052 616.568 702.174 615.959C702.296 615.35 702.174 612.183 702.174 612.183L700.712 607.555L695.11 606.458L695.962 601.099L694.379 592.208L683.173 595.496L676.109 585.63L649.8 602.804L650.409 598.42L649.8 596.105L649.069 594.766L648.46 594.157L649.678 592.086L648.582 588.554L645.902 586.727C645.902 586.727 644.928 584.169 644.562 584.047C644.197 583.925 642.37 582.707 642.37 582.707L640.177 579.906L636.401 579.175L634.574 576.008L634.696 574.425L634.331 572.72L632.991 572.233L632.26 570.406L632.991 568.091L633.113 566.264L632.26 564.559L630.799 563.219L621.177 568.213L615.208 569.918C615.208 569.918 610.093 571.867 609.606 571.867C609.118 571.867 605.952 572.963 605.952 572.963C605.952 572.963 601.932 575.278 601.567 575.278C601.201 575.278 595.842 577.105 595.842 577.105H589.996C589.996 577.105 584.271 576.983 583.662 576.983C583.053 576.983 578.303 577.226 578.303 577.226L573.187 577.47C573.187 577.47 569.289 577.47 568.924 577.47C568.559 577.47 559.545 577.714 559.545 577.714L559.18 573.938V569.553L559.545 565.899L560.764 560.296L561.494 556.277L562.347 554.206C562.347 554.206 558.084 557.007 557.597 557.007C557.11 557.007 552.481 560.418 552.481 560.418C552.481 560.418 545.051 557.617 544.32 557.251C543.59 556.886 537.865 553.963 537.865 553.963C537.865 553.963 535.307 553.11 534.82 553.11C534.333 553.11 531.653 554.693 531.044 554.815C530.435 554.937 523.736 557.007 523.736 557.007L516.306 558.713L508.511 560.661L498.158 564.559L490.119 567.239L487.683 555.79L483.907 547.142C483.907 547.142 473.432 519.858 472.214 519.736C470.997 519.615 468.073 518.031 467.099 518.031C466.125 518.031 461.009 519.371 461.009 519.371C461.009 519.371 445.662 528.262 445.175 528.384C444.688 528.506 436.162 533.013 436.162 533.013C436.162 533.013 428.366 538.007 427.392 537.885C426.418 537.763 412.41 543.244 412.41 543.244L412.167 548.847L426.052 590.99L425.078 595.618L418.622 612.549C418.622 612.549 401.448 611.818 399.987 612.061C398.525 612.305 378.672 611.452 378.672 611.452L375.992 589.894L355.042 590.624C355.042 590.624 356.26 580.271 355.895 580.149C355.529 580.028 343.228 573.572 343.228 573.572L330.621 564.742Z" fill="url(#paint0_radial_2309_10848)"/>
<path d="M330.621 564.742L318.562 554.236V546.106L297.46 560.448L287.412 567.208L281.109 573.146L277.82 568.396L259.184 543.731L260.463 542.726L260.92 541.356L260.098 540.168L251.785 548.573L243.015 557.708L237.808 562.549L232.419 565.655L227.212 566.66H224.106L220.817 566.112L216.889 564.011L214.057 563.189H209.946L202.821 566.751L202.73 565.473C202.73 565.473 202.638 562.823 202.638 562.458C202.638 562.093 201.634 559.626 201.634 559.626L201.451 556.337C201.451 556.337 201.085 551.587 201.085 551.313C201.085 551.039 199.807 546.015 199.807 546.015L198.345 541.356L198.162 537.976L196.244 534.048L189.849 535.144C189.849 535.144 183.729 535.327 183.455 535.327C183.181 535.327 180.714 536.332 180.714 536.332L170.118 535.51L165.185 538.159L159.795 540.899L151.939 545.467L143.26 548.025L138.51 549.212L135.496 549.395L130.837 552.775L90.8253 576.8V580.637L90.4599 584.839L89.2723 590.868L90.6426 590.685L96.6717 589.406L100.6 588.493L106.264 586.757L106.812 590.959L102.884 593.974L97.4025 594.613L90.1858 595.618L84.9788 593.974L81.0508 593.517L75.6611 593.243L71.4589 591.599L70.9108 590.229L66.8914 593.06L62.5979 597.354L58.4872 602.104L56.7515 604.753C56.7515 604.753 58.5785 606.763 59.0353 606.946C59.492 607.128 60.4969 608.955 60.4969 608.955L60.0401 611.056L57.4823 611.239L53.7369 608.955C53.7369 608.955 51.7272 607.311 51.7272 607.037C51.7272 606.763 52.3667 602.652 52.3667 602.652L53.3715 601.647L57.1169 601.282L59.218 598.998C59.218 598.998 62.5066 595.71 62.5979 595.436C62.6893 595.161 65.6125 592.238 65.6125 592.238L62.4152 592.421L62.0498 591.69L61.2277 590.229L65.1558 588.767L59.218 586.483L58.3958 587.031L57.2996 588.767L55.4726 590.594L52.9148 591.69L50.4483 592.786C50.4483 592.786 48.2559 591.507 47.9818 591.416C47.7078 591.325 45.424 589.68 45.424 589.68L43.0489 586.209L40.1257 582.738L38.9381 581.642L36.8371 580.728L33.183 579.632L30.7166 577.257L30.3512 575.338L28.4328 573.055L27.1539 572.05L27.428 571.502L28.7069 570.131L27.428 569.218H24.9615L25.3269 567.756L26.2404 566.203L27.5193 564.559L28.6155 562.184L28.5242 560.722L24.8701 559.352L24.3418 561.01L24.8899 564.573L24.0677 566.491L21.6013 566.217H17.7647V563.476L17.2166 560.188L16.1204 559.64L12.0098 561.558L12.5579 563.476L15.0244 565.669V567.313L12.284 568.409L10.6397 566.765L7.07724 565.943C7.07724 565.943 4.88483 565.395 4.06267 564.573C3.24052 563.75 4.33672 561.01 4.33672 561.01L3.24052 557.722L2.69241 553.611L0.5 548.952L2.14431 548.404L7.07706 544.568L11.1877 541.279L14.2022 536.347C14.2022 536.347 15.5725 537.169 16.3945 537.169C17.2164 537.169 20.505 537.991 20.505 537.991L22.1494 534.976L26.8081 530.318L30.3705 527.029L29.2743 521.549L29.8224 519.904L33.3849 515.52L38.3177 511.409L42.7023 509.491V507.025L43.7985 504.832L40.2359 501.818L36.3993 495.789L34.7552 494.967L32.2887 494.419L30.0965 491.678L31.1927 490.034L28.1783 487.02L24.3418 484.279L24.8899 482.087L26.2404 478.05L26.6972 472.021L26.2404 467.91L23.5912 465.718L24.5047 461.059L23.8653 457.131L23.1345 454.482L27.1539 446.625C27.1539 446.625 29.1636 441.418 29.3463 441.144C29.529 440.87 30.9906 436.485 30.9906 436.211C30.9906 435.937 30.9906 433.562 30.9906 433.562L30.8993 429.817L41.496 426.437L49.5348 415.109L58.3045 402.503L68.6271 387.522L76.3919 377.382L84.0653 367.881C84.0653 367.881 86.4404 365.597 86.4404 365.323C86.4404 365.049 88.7242 362.126 88.7242 362.126L90.0945 361.669L78.5843 355.732L75.113 354.27L68.7184 350.342L62.2325 347.053L59.9488 346.871L58.9439 344.13L56.8428 342.486L53.4629 343.125L45.2413 345.774C45.2413 345.774 37.9333 347.967 37.5679 347.967C37.2025 347.967 31.9955 348.698 31.9955 348.698L25.5096 349.246L26.2404 343.034L26.3318 338.284V329.788L26.6972 322.115L27.2453 317.547L29.8031 310.513L30.7166 306.311L31.2647 299.094L31.9955 295.075L33.0003 286.945L35.4668 276.257L36.9284 269.04L39.3949 270.867C39.3949 270.867 41.4046 273.425 41.6787 273.516C41.9527 273.607 45.424 274.886 45.424 274.886L49.7175 275.708C49.7175 275.708 53.0061 275.983 53.2802 275.983C53.5542 275.983 54.6504 275.434 54.6504 275.434L55.838 275.069L56.3861 273.516V272.237L57.5737 270.593V268.583L56.7515 262.554L55.1072 258.535L56.9342 255.977L57.2996 249.217L59.492 245.197L60.7709 239.716L62.5979 237.341V233.322L63.3287 231.86L63.146 223.821C63.146 223.821 60.9536 217.609 60.2228 216.513C59.492 215.417 58.3958 212.859 58.3958 212.859L57.4823 211.763L50.1743 215.6L44.8759 217.975H42.3181C42.3181 217.975 37.9333 220.167 37.2025 220.167C36.4717 220.167 35.1928 217.609 35.1928 217.609L33.9139 213.773L31.7214 213.59L32.4522 208.109L30.9906 207.378L31.1733 205.551L32.2695 204.638L35.1928 206.099L40.6738 204.09L42.5008 200.984L49.6262 199.522L55.4726 195.685L60.7709 187.464C60.7709 187.464 63.3287 182.714 64.0595 182.348C64.7904 181.983 69.906 180.156 69.906 180.156L74.6562 179.425L78.1275 182.531L79.7718 183.079H82.147L85.2529 185.454L87.4453 186.368L90.7339 186.733L93.6571 187.281L95.8495 188.012H99.3209L101.513 190.57L104.619 191.483L107.542 193.858L111.196 195.685L116.495 196.051L122.524 198.609L127.822 201.166L128.918 197.695L136.044 197.512L140.611 198.974L142.256 192.762V189.474L139.698 185.819L135.678 182.714L130.745 179.06L123.742 170.655L119.601 165.052L119.113 160.911L121.793 158.719L125.082 156.283L128.005 149.34L130.806 143.128L132.755 138.5L134.46 134.48L137.018 131.557L138.967 125.467L140.307 120.595L140.429 115.723L147.128 114.992L147.371 116.088L152.609 116.21L157.115 115.48H160.648C160.648 115.48 164.18 114.749 164.667 114.749C165.154 114.749 166.981 113.652 167.468 113.652C167.956 113.652 170.392 115.236 170.757 115.236C171.122 115.236 173.071 115.601 173.071 115.601L175.02 114.871L180.379 114.992L185.13 114.262C185.13 114.262 189.149 113.531 190.123 113.774C191.098 114.018 194.995 115.236 194.63 115.114C194.265 114.992 194.386 103.787 194.386 103.787L193.899 98.4275L192.559 94.6516L190.489 90.6322L190.245 87.1C190.245 87.1 196.822 88.6835 197.31 88.6835C197.797 88.6835 201.085 88.3181 201.085 88.3181L204.009 87.2219L208.15 87.4654C208.15 87.4654 213.265 86.0038 213.753 86.0038C214.24 86.0038 216.676 85.1511 216.676 85.1511L217.163 61.8872H212.778L213.631 44.7133L220.939 46.5403L226.176 47.0276L233.241 46.7841L237.991 46.0532L243.837 45.4443L247.37 49.4637L236.042 58.3553L246.761 77.3562L247.857 77.5997C247.857 77.5997 246.883 83.9334 246.883 84.2988C246.883 84.6642 245.543 86.4912 245.543 86.4912L245.786 89.5363L245.421 93.3122L248.831 100.377L249.806 104.153L250.171 105.98L241.889 110.973L249.562 109.877L254.069 109.024C254.069 109.024 260.037 111.46 260.768 111.46C261.499 111.46 266.736 111.704 266.736 111.704L277.333 114.871L284.641 118.281L288.295 116.82L293.654 115.602L302.424 114.749L303.155 116.819L307.661 114.871L310.584 115.358L313.507 113.531L316.431 111.826L322.155 109.755L323.861 109.268L326.053 106.223L327.515 105.857L331.047 103.787L333.605 100.62L332.021 97.6968L335.553 91.2415L336.041 92.2158L337.746 90.5107L339.695 89.4145L339.208 88.4401L337.989 87.9528L340.426 86.3694L343.105 86.4912L346.028 85.0296L347.246 83.3245L347.977 79.4269L347.734 75.1639L350.413 71.6318L351.875 65.2981L352.362 63.5929H355.163L355.529 62.4967L356.381 61.157L363.568 67.7342L368.074 70.292L370.267 72.4844C370.267 72.4844 375.26 69.8048 375.626 70.292C375.991 70.7793 377.087 72.119 377.087 72.119H378.915V75.2858C378.915 75.2858 383.056 79.6706 383.421 79.9142C383.787 80.1577 391.704 84.9079 391.704 84.9079L396.576 80.7667L401.082 81.2539L403.275 79.0615L402.057 73.5805L402.179 66.2724L409.73 63.8365L410.096 56.2849L413.628 55.0668C413.628 55.0668 417.647 54.2141 418.013 54.2141C418.378 54.2141 423.737 53.9706 423.737 53.9706L423.981 55.7976C423.981 55.7976 433.116 56.772 433.36 56.4066C433.604 56.0412 436.527 55.5539 436.527 55.0668C436.527 54.5795 437.258 52.0217 437.258 52.0217L439.937 50.5601L441.886 49.2204L445.54 48.6114L447.123 45.6882L450.168 44.1047L449.681 40.0853L448.098 39.111L435.552 38.2583C435.552 38.2583 425.443 29.854 424.468 29.854C423.494 29.854 419.109 27.9052 419.109 27.9052L430.315 14.6288L438.232 17.1866L442.739 9.8786L444.078 10.244L449.072 2.32701L450.899 3.54508L454.431 0.5L455.528 1.96161C455.528 1.96161 450.168 12.5583 450.29 12.9237C450.412 13.2891 451.63 16.6996 451.63 16.6996L466.002 8.66071L463.323 33.3857L471.24 41.4245L486.587 49.7069L489.997 50.8031L499.376 58.5984L507.171 54.9444L509.242 58.842L511.678 58.9638L510.825 73.7018L507.415 89.9013L493.286 99.1583L493.408 111.217L491.702 112.313L485.856 129.487L484.394 142.154L487.317 141.301L500.716 167.123L518.742 164.565L523.127 165.296L529.582 166.758L538.23 169.437L549.07 172.36L548.949 173.578L556.013 177.232L562.469 182.348L568.437 186.977L572.335 191.727L575.623 196.599L578.059 201.836L585.489 198.913L588.047 200.74L589.387 204.516L593.406 204.272L596.329 211.581L596.573 216.209L598.156 219.985L598.522 223.761L599.131 227.415L601.567 231.312L604.003 234.966L603.394 239.229V243.127L602.785 247.268L637.985 255.672L648.46 256.89L655.646 257.134L666.365 258.717L667.095 261.032L663.076 267.731L660.153 267.365C660.153 267.365 659.665 268.462 659.178 268.462C658.691 268.462 657.351 267.853 657.351 267.853C657.351 267.853 656.012 268.462 655.646 268.462C655.281 268.462 651.87 268.096 651.87 268.096L653.576 275.404L652.723 276.5L654.306 283.687L658.813 283.199L668.07 281.981L677.57 283.443L683.904 283.078L692.795 281.981L695.231 289.777L689.629 295.136L685 298.912L680.493 302.687L675.621 307.438L670.384 313.649L665.512 321.932L663.32 328.387L661.614 334.356L660.153 342.151L658.935 348.972L658.082 354.696L656.62 356.889L663.441 359.081L658.813 367.12L647.364 384.903L646.511 395.378L649.556 397.083C649.556 397.083 644.075 405.365 644.44 405.365C644.806 405.365 649.069 406.705 649.069 406.705L651.505 404.025L656.742 405.731L656.864 409.629L657.473 409.75L657.351 413.526L658.935 413.648L659.3 412.795L658.569 409.019L661.127 408.532L660.883 399.032L664.781 398.91C664.781 398.91 667.583 395.865 667.948 395.621C668.313 395.378 673.429 393.307 673.429 393.307L677.692 390.628C677.692 390.628 682.199 385.877 682.686 385.877C683.173 385.877 688.045 386.486 688.045 386.486L694.257 389.409L697.424 389.653L702.174 392.942L706.315 395.256C706.315 395.256 708.386 395.378 709.117 395.378C709.847 395.378 713.258 394.16 713.258 394.16L716.79 396.352L722.636 400.494L728.361 403.538L730.675 407.436C730.675 407.436 733.842 409.507 734.207 409.629C734.573 409.75 737.983 410.603 737.983 410.603L745.778 411.456L749.311 412.064C749.311 412.064 751.747 418.155 751.747 418.52C751.747 418.885 752.112 422.905 752.112 422.905L754.061 426.193L753.939 428.873V430.7L762.1 431.065L762.952 427.777L762.831 424.001L762.1 420.712L759.177 420.103L757.715 411.456L755.157 407.558L753.696 403.904L755.888 404.025L760.273 407.923L765.997 411.577C765.997 411.577 770.017 413.891 770.382 413.891C770.748 413.891 773.549 413.891 773.549 413.891L777.812 419.251L781.101 425.828C781.101 425.828 785.242 429.969 785.608 429.969C785.973 429.969 789.627 434.111 789.627 434.111C789.627 434.111 791.941 436.912 792.55 437.034C793.159 437.155 798.518 437.277 798.518 437.277L799.493 436.425L800.711 436.668L801.076 437.765C801.076 437.765 810.089 439.592 810.577 439.592C811.064 439.592 812.282 438.495 812.282 438.495C812.282 438.495 820.077 441.175 820.443 441.175C820.808 441.175 825.436 443.733 825.436 443.733L826.167 445.194L827.385 444.464L825.315 450.188L829.09 450.797L827.629 459.445L834.45 460.297L832.501 463.83L825.558 463.708L827.142 453.355L820.564 454.573L813.013 461.394L812.16 471.503L807.166 471.869L806.314 472.234H801.198L796.57 470.529L791.576 467.484L787.435 464.561L786.216 463.464L786.338 465.901L790.114 468.945L794.255 471.26L797.422 472.112L800.833 472.843L804.608 473.087L808.262 473.939L808.019 480.395L811.186 481.856L810.455 484.779L805.826 485.51L799.127 498.543L799.493 500.979L798.762 503.293L797.909 506.704L799.371 509.505L801.442 512.307L803.878 515.595L803.512 517.057L807.532 519.127L809.115 521.563L809.724 524.73L806.679 527.044L805.583 531.795L805.461 534.84L800.711 539.834L799.371 539.468L798.275 539.712H797.179L794.986 540.93L792.916 543L789.627 543.609L788.165 542.757L785.729 542.878L784.268 541.417L781.345 543.366L779.152 545.68L777.203 546.898L776.716 548.603L775.133 549.943L772.94 551.405L770.991 552.501L769.286 554.328L767.703 554.45L763.805 560.661L763.44 558.591L761.978 558.347L761.491 561.879L758.933 564.925L756.984 567.848L754.792 570.162L752.843 572.233H750.651L749.433 572.841L748.458 575.399L750.285 577.348L752.234 576.739L759.177 580.759L764.901 579.784L762.709 587.336L765.998 587.457L766.85 588.067L766.728 590.137L765.267 593.304L763.683 597.202L761.247 601.952L758.568 605.362L759.298 607.555C759.298 607.555 757.106 607.92 757.472 608.042C757.837 608.164 758.202 609.138 758.202 609.138L756.253 608.407L754.426 609.138L752.599 609.26L748.458 606.58L745.657 605.362L741.637 606.824L736.278 610.478L732.624 611.452L731.163 615.106L730.554 616.324L729.092 617.177L727.509 620.587L726.9 627.652L727.143 630.697C727.143 630.697 724.342 631.062 724.342 631.428C724.342 631.793 723.611 633.864 723.611 633.864L723.002 636.787L721.906 639.223L719.104 640.563L718.982 642.999L716.546 644.095L716.425 647.627L715.694 650.55L715.938 652.987L714.476 654.692L713.136 656.762L711.065 660.66L710.944 663.827C710.944 663.827 711.187 667.968 711.187 668.455C711.187 668.942 709.726 670.769 709.726 670.769L707.046 671.5L704.123 670.891L701.808 669.308L700.347 669.186C700.347 669.186 696.815 664.679 696.206 664.557C695.597 664.436 691.577 657.493 691.577 657.493L690.846 650.916L690.725 639.101C690.725 639.101 690.968 632.159 690.968 631.793C690.968 631.428 693.283 626.921 693.283 626.921L698.885 620.1C698.885 620.1 702.052 616.568 702.174 615.959C702.296 615.35 702.174 612.183 702.174 612.183L700.712 607.555L695.11 606.458L695.962 601.099L694.379 592.208L683.173 595.496L676.109 585.63L649.8 602.804L650.409 598.42L649.8 596.105L649.069 594.766L648.46 594.157L649.678 592.086L648.582 588.554L645.902 586.727C645.902 586.727 644.928 584.169 644.562 584.047C644.197 583.926 642.37 582.707 642.37 582.707L640.177 579.906L636.401 579.175L634.574 576.008L634.696 574.425L634.331 572.72L632.991 572.233L632.26 570.406L632.991 568.091L633.113 566.264L632.26 564.559L630.799 563.219L621.177 568.213L615.209 569.918C615.209 569.918 610.093 571.867 609.606 571.867C609.118 571.867 605.952 572.963 605.952 572.963C605.952 572.963 601.932 575.278 601.567 575.278C601.201 575.278 595.842 577.105 595.842 577.105H589.996C589.996 577.105 584.271 576.983 583.662 576.983C583.053 576.983 578.303 577.226 578.303 577.226L573.187 577.47C573.187 577.47 569.289 577.47 568.924 577.47C568.559 577.47 559.545 577.714 559.545 577.714L559.18 573.938V569.553L559.545 565.899L560.764 560.296L561.494 556.277L562.347 554.206C562.347 554.206 558.084 557.007 557.597 557.007C557.11 557.007 552.481 560.418 552.481 560.418C552.481 560.418 545.051 557.617 544.32 557.251C543.59 556.886 537.865 553.963 537.865 553.963C537.865 553.963 535.307 553.11 534.82 553.11C534.333 553.11 531.653 554.693 531.044 554.815C530.435 554.937 523.736 557.007 523.736 557.007L516.306 558.713L508.511 560.661L498.158 564.559L490.119 567.239L487.683 555.79L483.907 547.142C483.907 547.142 473.432 519.858 472.214 519.736C470.997 519.615 468.073 518.031 467.099 518.031C466.125 518.031 461.009 519.371 461.009 519.371C461.009 519.371 445.662 528.262 445.175 528.384C444.688 528.506 436.162 533.013 436.162 533.013C436.162 533.013 428.366 538.007 427.392 537.885C426.418 537.763 412.41 543.244 412.41 543.244L412.167 548.847L426.052 590.99L425.078 595.618L418.622 612.549C418.622 612.549 401.448 611.818 399.987 612.061C398.525 612.305 378.672 611.452 378.672 611.452L375.992 589.894L355.042 590.624C355.042 590.624 356.26 580.271 355.895 580.149C355.529 580.028 343.227 573.572 343.227 573.572L330.621 564.742Z" stroke="#E0E0E0" stroke-linecap="round" stroke-linejoin="round"/>
<path d="M42.285 503.103L47.0353 501.824L49.1363 502.007L52.699 500.91L54.8001 499.266L64.0265 497.348L73.8923 495.521L80.6523 488.761L86.042 480.539L89.696 477.251L98.7397 469.303L107.875 469.12L111.894 461.447L116.553 455.144L119.294 434.864M119.294 434.864L127.028 436.204C127.028 436.204 128.611 434.864 129.586 435.351C130.56 435.838 131.413 435.96 131.413 437.056C131.413 438.153 131.656 439.492 132.022 439.736C132.387 439.98 133.118 441.076 133.727 440.832C134.336 440.588 135.797 438.274 136.65 437.787C137.503 437.3 138.233 436.204 139.695 436.569C141.157 436.934 148.708 438.274 148.708 438.274C148.708 438.274 154.555 436.326 156.26 436.447C157.965 436.569 161.01 437.3 161.01 437.3C161.01 437.3 171.85 434.255 172.459 434.377C173.069 434.499 181.96 436.569 182.447 436.934C182.934 437.3 200.717 440.954 200.717 440.954L208.634 441.076L211.07 438.761C211.07 438.761 211.679 439.858 212.41 440.101C213.141 440.345 218.256 438.396 218.256 438.396L231.898 435.473L245.174 430.844L266.246 435.595L267.342 434.986C267.342 434.986 272.092 435.717 272.58 435.717C273.067 435.717 283.176 435.595 283.542 435.595M119.294 434.864C119.294 434.864 119.354 431.088 119.354 430.236C119.354 429.383 118.38 424.389 118.136 422.562C117.892 420.735 118.623 420.492 119.841 416.229C121.059 411.966 120.206 410.139 120.206 410.139C120.206 410.139 116.309 402.952 115.822 400.882C115.334 398.811 118.379 393.33 118.745 392.356C119.11 391.381 118.379 382.49 118.379 382.49L124.713 378.227L128.976 377.983L141.887 370.188C141.887 370.188 140.913 367.143 140.913 366.412C140.913 365.681 144.323 357.642 144.323 357.642L147.612 357.399L152.362 348.386C152.362 348.386 154.311 348.751 154.676 348.751C155.042 348.751 154.554 347.898 154.554 347.898C154.554 347.898 153.336 344.001 153.215 343.148C153.093 342.295 151.997 331.455 151.997 330.481C151.997 329.507 153.093 327.558 153.458 326.827C153.824 326.096 154.554 322.686 154.554 322.686C154.554 322.686 165.882 322.929 166.247 322.929C166.613 322.929 173.312 321.468 174.773 321.224C176.235 320.98 183.908 323.904 183.908 323.904C183.908 323.904 185.248 324.878 186.588 324.147C187.928 323.416 185.005 316.839 185.005 316.839C185.005 316.839 187.806 318.301 188.415 318.666C189.024 319.032 200.717 317.813 201.935 317.448C203.153 317.083 207.538 314.647 208.878 313.794C210.218 312.941 219.231 313.672 219.231 313.672C219.231 313.672 222.763 310.871 223.981 310.018C225.199 309.166 227.148 309.896 227.148 309.896L228.244 301.37L220.692 298.691C220.692 298.691 219.718 296.376 218.743 294.915C217.769 293.453 215.333 293.331 215.333 292.844C215.333 292.357 216.429 286.51 216.429 286.51L211.557 273.721L211.435 271.894C211.435 271.894 193.774 271.773 191.704 271.285C189.633 270.798 163.324 252.163 163.324 252.163C163.324 252.163 157.356 245.707 157.112 244.976C156.869 244.246 157.721 242.784 157.965 240.713C158.208 238.643 156.016 237.912 155.772 237.547C155.529 237.181 155.163 234.745 155.163 233.771C155.163 232.796 153.336 231.7 152.728 230.969C152.119 230.239 152.606 227.559 152.484 226.585C152.362 225.61 144.323 218.789 143.349 217.45C142.375 216.11 142.984 212.212 142.74 210.994C142.496 209.776 139.573 203.564 139.573 203.564L140.612 198.976M283.542 435.595C283.907 435.595 293.773 440.101 293.773 440.101C293.773 440.101 294.747 437.3 295.478 437.665C296.209 438.031 296.453 438.396 296.453 438.396L297.305 437.178L304.613 435.107L306.562 434.499V436.569L318.864 449.724L320.082 450.089L320.569 454.108L322.64 454.352L324.589 453.012L326.05 454.108L326.903 456.057L329.095 456.179L351.994 508.31L346.634 512.695L342.25 524.144L317.402 540.831L317.768 546.434M283.542 435.595L282.568 414.402L297.184 413.427L302.421 411.844L301.325 386.509C301.325 386.509 301.081 374.938 301.203 373.72C301.325 372.502 302.787 368.726 302.665 367.995C302.543 367.265 302.177 366.534 302.177 366.534C302.177 366.534 299.863 365.316 300.229 365.316C300.594 365.316 304.735 357.399 304.735 357.399M304.735 357.399L301.934 356.668L301.081 354.841C301.081 354.841 298.645 355.693 297.671 355.085C296.696 354.476 294.991 353.988 295.235 353.501C295.478 353.014 296.696 349.725 296.696 349.725C296.696 349.725 289.876 347.046 290.363 347.046C290.85 347.046 293.042 346.315 293.773 345.462C294.504 344.61 295.113 343.514 295.113 343.514L291.154 342.052L298.158 340.286L297.549 338.337C297.549 338.337 295.783 336.449 295.356 335.536C294.93 334.622 294.93 333.952 294.93 333.952C294.93 333.952 293.164 334.683 291.702 333.83C290.241 332.978 289.266 332.795 288.84 330.968C288.414 329.141 288.17 327.497 288.353 326.522C288.536 325.548 288.657 324.573 287.987 323.538C287.317 322.503 285.125 319.823 283.724 319.214C282.324 318.605 280.862 317.753 279.4 318.301C277.939 318.849 276.66 319.093 276.295 319.945C275.929 320.798 275.138 323.051 275.32 323.903C275.503 324.756 275.442 325.243 275.381 325.426C275.32 325.609 274.528 327.192 274.285 327.192C274.041 327.192 272.641 325.852 272.641 325.852L270.022 316.413L267.403 307.338L271.727 305.329C271.727 305.329 272.336 304.294 272.153 303.989C271.971 303.684 271.788 302.832 271.362 302.832C270.936 302.832 267.282 303.867 267.282 303.867L265.028 296.864L283.907 291.078L283.177 283.892L270.448 270.311L219.779 271.803L211.558 271.621M304.735 357.399L323.919 363.519L333.511 366.99L340.088 368.087C340.088 368.087 341.915 365.437 342.28 364.615C342.646 363.793 342.828 361.601 342.828 361.601L344.655 357.855L345.934 359.682L349.223 347.99C349.223 347.99 350.411 349.36 351.324 350.182C352.238 351.004 376.171 346.711 376.171 346.711C376.171 346.711 376.72 345.34 376.628 345.066C376.537 344.792 380.008 344.518 380.008 344.518L382.657 345.98L383.388 344.975L387.225 349.634C387.225 349.634 389.417 348.081 389.874 347.898C390.331 347.715 391.975 351.826 391.975 351.826L395.081 352.922L395.812 351.552L399.649 352.74C399.649 352.74 401.019 350.091 400.745 350.091C400.471 350.091 403.485 351.004 404.125 351.187C404.764 351.369 406.134 351.278 408.053 350.821C409.971 350.365 411.067 348.629 411.067 348.629L413.625 342.783C413.625 342.783 405.769 336.662 404.673 335.749C403.577 334.835 409.423 323.599 409.423 323.599L407.687 322.503C407.687 322.503 408.692 321.132 408.692 320.676C408.692 320.219 409.971 321.224 410.428 321.224C410.885 321.224 411.25 316.291 411.25 316.291L406.865 314.19C406.865 314.19 407.505 313.094 407.87 312.728C408.235 312.363 399.374 308.709 399.374 308.709M415.087 542.292C415.087 542.292 411.25 541.561 410.337 541.013C409.423 540.465 402.937 536.811 401.658 536.811C400.379 536.811 393.437 538.273 392.706 538.73C391.975 539.186 391.975 539.186 391.975 539.186L387.59 528.864L388.321 526.945C388.321 526.945 393.985 524.387 393.985 523.931C393.985 523.474 394.442 521.19 394.442 521.19L390.788 519.911L394.898 508.949C394.898 508.949 394.807 504.199 395.172 504.199C395.538 504.199 397.456 498.627 397.456 497.713C397.456 496.8 397.913 493.876 397.913 493.876L399.1 491.41C399.1 491.41 399.1 489.035 399.1 488.761C399.1 488.487 401.658 474.236 401.658 474.236L405.221 458.25L405.952 458.432L409.88 448.932L416.548 448.567L414.173 446.557L408.692 443.725C408.692 443.725 409.24 440.893 409.88 440.893C410.519 440.893 411.615 441.167 411.615 441.167V439.523L410.245 438.792C410.245 438.792 410.337 430.296 409.423 430.57C408.51 430.844 403.668 431.667 403.668 431.667C403.668 431.667 397.822 405.175 397.456 405.175C397.091 405.175 394.35 407.185 394.35 407.185L389.6 406.271L388.047 401.704L388.595 391.472C388.595 391.472 390.422 388.184 390.696 388.184C390.97 388.184 389.6 384.53 389.6 384.53C389.6 384.53 405.586 387.179 405.86 387.27C406.134 387.362 408.327 388.823 408.418 388.458C408.51 388.092 410.154 384.987 410.154 384.987L402.846 368.817L428.607 380.145M428.607 380.145L435.732 369.914L437.924 370.188C437.924 370.188 440.939 364.067 443.223 363.61C445.507 363.154 445.872 363.336 445.872 363.336L457.473 366.899L457.017 368.726C457.017 368.726 461.127 371.741 462.041 371.832C462.954 371.923 464.233 371.923 464.416 372.289C464.599 372.654 467.339 374.39 467.705 374.39C468.07 374.39 471.176 374.755 471.176 374.755L476.2 379.414C476.2 379.414 476.657 382.52 476.931 382.155C477.205 381.789 477.936 380.602 477.936 380.602C477.936 380.602 480.859 380.693 481.133 381.15C481.407 381.607 482.686 384.164 482.686 384.164L486.158 381.332C486.158 381.332 487.528 379.505 489.172 379.962C490.816 380.419 492.278 380.602 492.278 380.602L492.826 378.957C492.826 378.957 489.994 377.678 489.629 377.404C489.263 377.13 488.807 375.76 488.807 375.76L484.513 372.837H483.234L482.778 371.923C482.778 371.923 481.407 374.207 481.133 374.024C480.859 373.842 478.849 372.563 478.849 372.563L476.931 369.731C476.931 369.731 471.359 367.082 471.633 366.625C471.907 366.168 472.546 363.976 472.546 363.976L463.503 358.312L465.786 345.432L467.705 342.143L471.085 335.2L469.988 326.705C469.988 326.705 471.633 327.253 471.633 326.979C471.633 326.705 468.07 318.575 468.07 318.575L464.599 314.19M428.607 380.145L435.062 384.682L437.985 381.272L449.069 389.189L451.505 386.022L468.679 403.927C468.679 403.927 468.07 408.799 468.07 410.504C468.07 412.209 472.942 418.299 472.942 418.299C472.942 418.299 479.519 426.947 480.007 428.774C480.494 430.601 479.154 432.55 477.692 434.62C476.231 436.691 475.987 440.711 475.987 440.711H454.307C454.307 440.711 462.102 456.301 463.685 458.372C465.269 460.442 482.565 471.77 482.565 471.77L506.316 488.091C506.316 488.091 516.79 495.521 517.765 496.252C518.74 496.982 529.701 501.124 529.701 501.124L535.548 501.611L536.279 504.412C536.279 504.412 535.304 508.554 535.304 510.137C535.304 511.72 537.618 513.304 537.618 513.669C537.618 514.035 538.349 515.862 538.349 515.862L540.542 518.419L540.663 520.977L541.882 524.022L540.785 526.336L543.343 527.92L542.369 530.234C542.369 530.234 542.978 531.452 542.978 532.427C542.978 533.401 541.882 538.395 541.882 538.395L539.202 545.094C539.202 545.094 536.279 548.261 535.913 548.626C535.548 548.991 535.913 550.209 535.913 550.209L534.33 552.889M464.599 314.19C464.599 314.19 454.276 316.748 453.545 316.839C452.815 316.93 444.41 315.651 444.41 314.647C444.41 313.642 444.958 312.728 444.958 312.728C444.958 312.728 439.934 301.766 439.66 301.766C439.386 301.766 432.717 304.963 432.717 304.963L426.597 296.742C426.597 296.742 422.486 301.127 422.212 300.67C421.938 300.213 421.116 299.482 421.116 299.482L405.769 303.045C405.769 303.045 405.678 304.324 404.947 304.141C404.216 303.959 402.846 303.593 402.846 303.593L399.374 308.709M464.599 314.19C464.599 314.19 462.68 311.632 462.041 310.901C461.402 310.17 458.204 308.526 457.199 308.252C456.195 307.978 455.281 308.161 453.728 307.887C452.175 307.613 447.79 305.511 447.79 305.511L444.593 300.487L450.348 297.747C450.348 297.747 454.55 286.237 454.642 285.597C454.733 284.958 455.372 281.76 455.372 281.76L459.849 275L454.733 258.557C454.733 258.557 455.19 258.557 455.738 258.466C456.286 258.375 458.204 259.653 458.752 259.745C459.3 259.836 470.811 259.562 470.811 259.562L471.724 257.826C471.724 257.826 470.445 255.817 470.171 255.634C469.897 255.451 471.085 254.903 471.085 254.903C471.085 254.903 472.546 255.634 472.912 255.634C473.277 255.634 478.301 248.874 478.301 248.874L488.624 251.158C488.624 251.158 489.812 244.489 489.72 243.302C489.629 242.114 488.076 239.739 488.076 239.739C488.076 239.739 484.696 234.989 484.148 234.167C483.6 233.345 480.22 231.609 479.306 231.061C478.393 230.513 476.566 230.878 476.566 230.878C476.566 230.878 476.748 226.036 476.748 225.58C476.748 225.123 474.008 224.758 474.008 224.758V222.017L477.936 215.988L472.546 211.238L472.455 208.497L467.705 208.314L467.613 198.357L468.436 197.9C468.436 197.9 467.339 194.703 467.339 193.79C467.339 192.876 467.887 186.573 467.887 186.573L469.623 186.847L470.537 185.477L472.912 181.092C472.912 181.092 473.551 179.174 473.551 178.534C473.551 177.895 475.926 174.149 476.566 173.419C477.205 172.688 496.48 158.437 496.48 158.437M399.374 308.709C399.374 308.709 395.538 306.608 392.98 305.146C390.422 303.684 381.287 301.309 381.287 301.309C381.287 301.309 382.566 299.117 382.383 298.386C382.201 297.655 382.201 296.376 382.201 296.376C382.201 296.376 384.941 292.357 384.393 291.809C383.845 291.261 382.749 290.165 382.749 290.165C382.749 290.165 380.008 281.03 379.46 280.847C378.912 280.664 377.268 279.568 377.268 279.568C377.268 279.568 373.065 270.067 373.065 268.971C373.065 267.875 371.238 261.663 371.238 261.663L370.873 259.045C370.873 259.045 368.985 259.593 368.985 259.227C368.985 258.862 369.472 254.66 369.472 254.66L368.133 248.874C368.133 248.874 368.193 242.419 367.645 241.079C367.097 239.739 363.261 232.066 362.773 231.639C362.286 231.213 355.892 225.732 355.892 225.732M250.564 270.616C250.564 270.616 259.973 250.427 260.339 250.427C260.704 250.427 277.97 244.581 278.518 243.941C279.066 243.302 279.34 241.201 280.071 241.292C280.801 241.383 286.191 241.475 286.191 241.475L292.768 236.45C292.768 236.45 307.841 240.47 308.298 240.47C308.755 240.47 320.722 239.739 320.722 240.013C320.722 240.287 321.087 242.206 321.361 242.114C321.635 242.023 328.304 240.287 328.304 240.287L329.035 246.59L335.703 241.657L343.011 240.653L344.29 229.142C344.29 229.142 346.848 228.594 347.67 227.863C348.492 227.133 350.502 225.854 350.502 225.854L355.343 226.402L356.622 224.484L354.795 222.748L355.252 221.926L348.492 216.719C348.492 216.719 348.218 217.358 347.761 217.358C347.305 217.358 346.3 217.358 345.112 216.719C343.925 216.079 343.285 214.709 343.285 214.709L340.088 212.699C340.088 212.699 338.809 210.964 337.621 210.141C336.434 209.319 332.597 207.31 332.597 207.31L324.376 199.636L323.645 200.184L302.269 183.102C302.269 183.102 306.562 181.366 307.658 181.366C308.755 181.366 315.149 180.818 316.885 180.361C318.621 179.904 319.169 179.722 319.169 179.722C319.169 179.722 328.121 166.202 328.578 165.197C329.035 164.192 335.429 146.379 335.429 145.739C335.429 145.1 335.064 136.513 334.607 135.508C334.15 134.503 322.549 109.564 322.549 109.564M492.004 380.602C492.004 380.602 494.014 382.703 494.288 383.159C494.562 383.616 496.663 388.641 496.663 388.641L502.692 388.732L505.707 390.011L506.894 389.097L508.538 392.934L510.183 398.05C510.183 398.05 516.029 404.627 516.486 404.718C516.943 404.81 520.779 402.526 522.606 402.891C524.433 403.257 530.828 405.997 530.828 405.997L532.107 403.257L544.257 417.233C544.257 417.233 553.818 401.612 554.183 401.856C554.549 402.1 558.446 404.536 558.446 404.536L565.633 405.145C565.633 405.145 564.536 403.927 565.024 403.927C565.511 403.927 569.896 403.927 569.896 403.927M569.896 403.927C569.896 403.927 568.921 398.446 568.069 397.349C567.216 396.253 565.389 391.868 564.658 391.868C563.927 391.868 563.927 391.868 563.927 391.868L563.684 386.996C563.684 386.996 566.242 382.855 565.876 381.028C565.511 379.201 564.902 378.227 564.902 378.227L558.69 364.95C558.69 364.95 558.203 362.149 558.203 361.296C558.203 360.444 558.446 360.809 557.837 359.713C557.228 358.617 555.036 354.963 555.036 354.963L551.626 354.354L545.414 340.834C545.414 340.834 546.388 338.398 546.388 338.032C546.388 337.667 545.779 332.064 546.266 332.064C546.753 332.064 548.215 331.942 548.215 331.942C548.215 331.942 548.459 328.654 546.875 326.827C545.292 325 543.465 324.147 543.465 324.147L523.855 324.634C523.855 324.634 523.611 305.633 523.246 302.223C522.881 298.812 521.297 286.876 520.566 284.684C519.836 282.491 518.496 281.151 518.496 281.151L524.951 279.69C524.951 279.69 531.285 275.548 532.625 275.183C533.964 274.818 537.74 272.869 537.74 272.869L527.753 239.983C527.753 239.983 544.318 217.815 545.048 217.571C545.779 217.327 548.337 216.475 548.824 215.622C549.311 214.77 550.529 212.943 550.529 212.943L575.62 202.102L576.838 198.692M569.896 403.927C569.896 403.927 578.056 404.261 580.34 404.17C582.624 404.079 586.186 402.343 586.186 402.343L586.734 403.074C586.734 403.074 588.196 402.8 588.562 402.709C588.927 402.617 589.11 401.156 589.292 400.882C589.475 400.607 596.418 395.857 597.148 394.761C597.879 393.665 597.879 390.559 597.879 390.559L603.452 386.996L606.01 388.915C606.01 388.915 610.577 386.357 611.308 386.265C612.039 386.174 633.049 402.343 633.049 402.343L639.535 401.795L640.083 405.084L643.372 405.632L644.011 404.718M389.143 390.468L385.855 393.208L382.566 392.843C382.566 392.843 381.47 395.766 380.922 395.766C380.374 395.766 373.979 396.679 373.431 396.131C372.883 395.583 373.431 392.112 372.7 392.112C371.969 392.112 363.2 392.295 363.2 392.295C363.2 392.295 363.2 394.67 362.652 394.67C362.103 394.67 347.67 395.4 347.67 395.4L348.218 390.102L347.305 389.554C347.305 389.554 348.035 385.717 348.584 385.717C349.132 385.717 349.132 385.717 349.132 385.717L349.314 383.159L350.228 381.332L340.727 378.044L339.083 370.37L340.179 367.63" stroke="#E0E0E0" stroke-linejoin="round"/>
<path d="M259.643 250.5C256.976 256.5 250.543 269.8 250.143 271L270.143 270L282.143 283.5L284.143 291L264.143 297L266.143 301.5L267.143 304H272.143L267.143 308L273.643 329.5L276.143 323.5V320L279.643 318.5L284.143 320L288.143 325V329.5L290.143 332.5L294.143 335L297.143 339.5L290.143 340.5L294.143 342.5L290.143 346.5L297.143 351L295.643 353.5L298.143 355.5L300.643 353.5L302.643 356.5L334.643 367.5L341.143 369L343.643 362L346.143 360L349.643 348L351.143 351L362.643 348L393.643 353.5L410.143 351L413.643 342.5L404.143 335L408.143 325V323.5V321.5L410.143 320V316.5L408.143 314V312L399.143 308L382.143 300.5L382.643 296L385.143 292L382.643 288.5L380.143 281L377.143 279L370.143 258.5H368.643L370.143 254.5L368.643 241.5L362.643 231L356.643 225.5H350.143L343.643 229L342.643 240L334.643 241.5L329.143 246L328.143 240L320.643 241.5V239.5L307.643 240L292.143 236.5L285.643 241.5H279.643L278.143 244L259.643 250.5Z" fill="#F8F4EC" stroke="#C1C1C1" stroke-width="2"/>
<g filter="url(#filter0_d_2309_10848)">
<circle cx="357.318" cy="335.176" r="28.1757" fill="#A09060"/>
</g>
<g clip-path="url(#clip0_2309_10848)">
<path d="M363.797 340.592C363.612 341.07 363.445 341.505 363.274 341.939C362.761 343.244 362.178 344.514 361.283 345.609C360.761 346.246 360.179 346.84 359.339 347.028C358.165 347.292 356.933 346.874 356.575 345.635C356.319 344.75 356.753 343.661 357.508 343.314C357.779 343.189 358.057 343.153 358.342 343.261C358.449 343.303 358.528 343.378 358.541 343.5C358.553 343.604 358.509 343.691 358.419 343.731C357.838 343.985 357.794 344.517 357.745 345.04C357.716 345.344 357.811 345.611 358.001 345.862C358.343 346.315 359.157 346.226 359.562 345.992C360.26 345.585 360.728 344.963 361.174 344.313C362.148 342.888 362.772 341.297 363.394 339.704C363.538 339.336 363.688 338.969 363.81 338.593C363.95 338.163 363.751 337.757 363.368 337.619C363.139 337.537 362.929 337.628 362.731 337.707C361.817 338.073 360.541 339.556 360.719 340.757C360.741 340.904 360.768 341.037 360.874 341.145C360.984 341.255 361.04 341.378 360.958 341.531C360.867 341.699 360.71 341.69 360.559 341.668C359.917 341.575 359.464 340.888 359.583 340.187C359.698 339.514 359.99 338.921 360.419 338.398C361.064 337.609 361.845 337.008 362.869 336.81C363.507 336.687 364.119 336.741 364.566 337.306C364.863 337.681 364.928 338.133 364.967 338.588C365.074 339.817 364.967 341.041 364.877 342.265C364.831 342.885 364.802 343.508 364.772 344.129C364.766 344.233 364.738 344.347 364.819 344.459C364.963 344.366 365.025 344.22 365.101 344.085C365.5 343.373 365.881 342.649 366.301 341.951C367.026 340.746 367.715 339.521 368.502 338.354C368.742 337.999 368.999 337.653 369.265 337.318C369.653 336.829 370.152 336.699 370.651 336.936C370.974 337.09 371.043 337.226 370.913 337.559C370.642 338.257 370.337 338.943 370.081 339.647C369.485 341.288 368.951 342.947 368.773 344.695C368.748 344.938 368.75 345.184 368.767 345.427C368.797 345.85 369.089 345.993 369.457 345.771C369.573 345.702 369.678 345.615 369.781 345.53C369.877 345.452 369.976 345.373 370.096 345.459C370.216 345.546 370.164 345.673 370.128 345.784C369.953 346.342 369.182 346.843 368.621 346.77C367.878 346.672 367.477 346.229 367.448 345.459C367.427 344.901 367.512 344.352 367.622 343.805C367.912 342.374 368.396 340.999 368.847 339.614C368.866 339.554 368.916 339.495 368.864 339.404C368.44 339.981 368.075 340.582 367.705 341.181C366.753 342.724 365.962 344.353 365.064 345.925C364.977 346.077 364.891 346.235 364.752 346.351C364.384 346.655 363.915 346.497 363.828 346.028C363.732 345.504 363.727 344.972 363.777 344.442C363.896 343.199 363.85 341.952 363.849 340.707C363.852 340.689 363.833 340.668 363.797 340.592Z" fill="white"/>
<path d="M344.111 341.227C343.651 341.218 343.201 341.157 342.791 340.935C342.603 340.834 342.44 340.699 342.337 340.506C342.236 340.317 342.251 340.127 342.388 339.962C342.506 339.82 342.665 339.771 342.843 339.841C343.647 340.16 344.467 340.085 345.282 339.923C346.699 339.641 348.049 339.127 349.427 338.713C351.065 338.22 352.716 337.78 354.418 337.558C355.304 337.443 356.194 337.362 357.084 337.528C357.511 337.608 357.912 337.76 358.257 338.031C358.549 338.262 358.73 338.56 358.701 338.946C358.686 339.149 358.613 339.329 358.385 339.383C358.167 339.433 358.038 339.32 357.937 339.142C357.62 338.583 357.063 338.488 356.503 338.447C355.648 338.384 354.807 338.532 353.968 338.675C351.75 339.052 349.627 339.768 347.501 340.48C346.542 340.801 345.577 341.1 344.563 341.194C344.412 341.208 344.261 341.216 344.111 341.227Z" fill="white"/>
<path d="M375.599 332.785C375.47 332.681 375.325 332.716 375.2 332.8C375.023 332.918 374.886 333.082 374.751 333.241C374.367 333.695 373.923 334.08 373.424 334.399C373.007 334.665 372.564 334.864 372.053 334.846C371.539 334.827 371.226 334.525 371.188 334.01C371.169 333.764 371.202 333.523 371.24 333.281C371.273 333.072 371.361 333.004 371.577 333.025C372.597 333.124 373.391 332.667 374.05 331.949C374.437 331.528 374.648 331.016 374.635 330.429C374.62 329.809 374.218 329.406 373.601 329.387C373.241 329.375 372.928 329.518 372.611 329.653C372.374 329.852 372.116 330.028 371.91 330.262C371.426 330.815 371.017 331.414 370.725 332.092C370.591 332.401 370.409 332.682 370.185 332.936C369.823 333.527 369.409 334.076 368.889 334.539C368.827 334.594 368.751 334.64 368.675 334.671C368.439 334.771 368.275 334.67 368.252 334.417C368.226 334.142 368.299 333.882 368.385 333.626C368.686 332.743 369.147 331.939 369.578 331.12C369.738 330.814 369.907 330.51 369.963 330.163C369.987 330.023 369.96 329.888 369.83 329.806C369.697 329.722 369.558 329.734 369.422 329.81C369.258 329.901 369.169 330.055 369.081 330.207C368.863 330.586 368.659 330.975 368.431 331.349C367.796 332.395 367.118 333.409 366.227 334.26C365.932 334.542 365.599 334.772 365.197 334.875C364.796 334.977 364.506 334.859 364.333 334.539C363.969 333.864 364.149 332.805 364.716 332.298C364.828 332.197 364.948 332.103 365.058 331.999C366.663 330.496 367.827 328.684 368.729 326.696C369.004 326.091 369.245 325.469 369.306 324.794C369.378 323.978 368.863 323.537 368.08 323.76C367.959 323.794 367.843 323.847 367.731 323.903C367.211 324.169 366.862 324.612 366.533 325.073C366.073 325.72 365.73 326.437 365.333 327.119C365.29 327.228 365.253 327.341 365.202 327.446C364.536 328.823 364.013 330.252 363.666 331.745C363.577 332.126 363.558 332.534 363.322 332.873C363.029 333.295 362.717 333.704 362.371 334.084C362.161 334.315 361.954 334.552 361.67 334.695C361.367 334.847 361.165 334.711 361.19 334.374C361.211 334.095 361.291 333.826 361.414 333.574C361.636 333.12 361.864 332.669 362.089 332.217C362.203 331.988 362.292 331.754 362.32 331.498C362.358 331.139 362.235 330.859 361.925 330.658C361.721 330.526 361.49 330.484 361.263 330.424C360.82 330.304 360.81 330.279 360.928 329.848C360.934 329.823 360.94 329.798 360.945 329.775C360.992 329.56 360.963 329.362 360.756 329.245C360.542 329.125 360.331 329.167 360.149 329.327C359.961 329.494 359.886 329.722 359.879 329.962C359.861 330.591 359.608 331.143 359.312 331.671C358.858 332.48 358.322 333.238 357.785 333.992C357.663 334.163 357.542 334.34 357.375 334.47C357.162 334.635 356.994 334.581 356.924 334.318C356.894 334.206 356.886 334.084 356.891 333.968C356.904 333.616 357.023 333.291 357.169 332.977C357.512 332.236 357.903 331.517 358.221 330.763C358.293 330.591 358.363 330.418 358.371 330.231C358.377 330.072 358.339 329.924 358.179 329.848C358.027 329.777 357.882 329.809 357.753 329.911C357.639 330.002 357.557 330.117 357.49 330.245C357.457 330.31 357.445 330.413 357.355 330.408C357.263 330.403 357.268 330.296 357.24 330.23C356.998 329.675 356.524 329.451 355.941 329.624C355.51 329.751 355.161 330.011 354.832 330.307C354.517 330.591 354.293 330.953 354.017 331.269C353.888 331.496 353.755 331.719 353.633 331.949C353.287 332.605 352.913 333.243 352.461 333.831C352.195 334.179 351.93 334.529 351.534 334.745C351.424 334.805 351.306 334.876 351.18 334.785C351.053 334.694 351.091 334.56 351.116 334.437C351.221 333.915 351.414 333.421 351.608 332.928C351.798 332.443 352.005 331.962 352.069 331.438C352.133 330.905 352.013 330.666 351.574 330.458C351.035 330.43 350.626 330.699 350.247 331.038C349.509 331.699 348.93 332.5 348.284 333.24C348.222 333.311 348.179 333.407 348.027 333.439C348.217 332.928 348.363 332.47 348.777 332.096C350.058 330.943 351.138 329.608 352.112 328.188C352.57 327.519 352.985 326.827 353.246 326.054C353.353 325.733 353.44 325.409 353.368 325.064C353.296 324.725 353.11 324.532 352.768 324.467C352.393 324.395 352.069 324.541 351.77 324.735C351.363 325 351.049 325.366 350.775 325.764C350.097 326.751 349.524 327.798 349.023 328.886C348.798 329.375 348.577 329.865 348.355 330.355C348.137 330.929 347.918 331.504 347.705 332.079C347.615 332.319 347.482 332.53 347.314 332.722C346.698 333.428 346.037 334.088 345.33 334.699C344.702 335.24 344.027 335.711 343.223 335.966C341.936 336.377 340.848 335.834 340.423 334.552C340.206 333.901 340.172 333.228 340.291 332.556C340.656 330.502 341.533 328.669 342.736 326.982C343.37 326.092 344.104 325.295 345.056 324.727C345.386 324.531 345.741 324.401 346.134 324.431C346.389 324.451 346.611 324.533 346.733 324.784C346.804 324.849 346.838 324.936 346.867 325.022C347.058 325.603 346.961 326.163 346.736 326.712C346.571 327.228 346.303 327.674 345.862 328.007C345.623 328.188 345.571 328.395 345.67 328.627C345.771 328.864 345.982 328.969 346.275 328.923C346.535 328.882 346.745 328.739 346.927 328.561C347.748 327.758 348.104 326.755 348.142 325.629C348.161 325.093 348.028 324.591 347.664 324.177C347.158 323.602 346.49 323.503 345.777 323.54C345.22 323.569 344.708 323.755 344.209 323.986C343.459 324.45 342.786 325.005 342.204 325.667C340.901 327.148 339.989 328.844 339.387 330.709C339.003 331.901 338.804 333.116 339.053 334.367C339.399 336.113 340.728 337.166 342.5 337.08C343.24 337.045 343.91 336.771 344.528 336.371C345.296 335.875 345.959 335.253 346.6 334.605C346.664 334.539 346.714 334.442 346.828 334.437C346.854 334.53 346.813 334.598 346.791 334.669C346.702 334.958 346.598 335.244 346.526 335.538C346.482 335.72 346.529 335.899 346.727 335.979C346.912 336.055 347.078 335.998 347.204 335.85C347.285 335.754 347.351 335.644 347.419 335.539C348.191 334.339 349.068 333.219 350.073 332.206C350.343 331.933 350.608 331.642 350.963 331.467C351.028 331.434 351.104 331.386 351.174 331.447C351.234 331.501 351.199 331.576 351.18 331.637C351.099 331.911 351.019 332.186 350.925 332.456C350.722 333.037 350.491 333.607 350.352 334.209C350.279 334.523 350.241 334.839 350.343 335.156C350.479 335.582 350.899 335.803 351.325 335.669C351.486 335.618 351.634 335.538 351.773 335.439C352.069 335.228 352.331 334.979 352.566 334.702C352.601 334.66 352.633 334.589 352.702 334.607C352.772 334.626 352.766 334.7 352.773 334.755C352.886 335.605 353.684 335.966 354.47 335.531C354.966 335.257 355.357 334.868 355.724 334.446C355.832 334.323 355.932 334.192 356.067 334.027C356.09 334.273 356.101 334.463 356.127 334.652C356.221 335.321 356.795 335.615 357.396 335.304C357.584 335.206 357.747 335.072 357.898 334.926C358.896 333.954 359.613 332.791 360.189 331.534C360.413 331.045 360.404 331.041 360.906 331.235C361.342 331.403 361.419 331.553 361.249 331.986C361.071 332.441 360.865 332.884 360.677 333.335C360.489 333.788 360.331 334.247 360.359 334.751C360.393 335.366 360.807 335.687 361.406 335.535C361.799 335.436 362.128 335.215 362.422 334.944C362.706 334.681 362.978 334.404 363.22 334.101C363.256 334.057 363.291 333.99 363.356 334.003C363.442 334.02 363.429 334.109 363.434 334.171C363.457 334.416 363.503 334.653 363.594 334.884C363.815 335.45 364.259 335.742 364.868 335.723C365.261 335.709 365.6 335.544 365.924 335.341C366.45 335.011 366.889 334.582 367.292 334.116C367.337 334.065 367.364 333.974 367.489 334.006C367.456 334.31 367.41 334.619 367.502 334.924C367.663 335.458 368.169 335.696 368.682 335.477C369.021 335.332 369.303 335.107 369.544 334.833C369.767 334.58 369.981 334.32 370.199 334.063C370.232 334.025 370.26 333.974 370.319 333.987C370.368 333.998 370.37 334.049 370.372 334.091C370.401 334.556 370.6 334.948 370.894 335.298C371.087 335.417 371.27 335.55 371.497 335.607C372.025 335.74 372.534 335.687 373.023 335.454C374.016 334.981 374.804 334.253 375.505 333.424C375.569 333.348 375.612 333.253 375.652 333.16C375.708 333.027 375.721 332.886 375.599 332.785ZM371.669 332.125C371.966 331.545 372.31 331 372.797 330.559C372.897 330.468 373.015 330.401 373.144 330.357C373.507 330.235 373.722 330.389 373.721 330.812C373.703 331.235 373.475 331.581 373.121 331.859C372.745 332.155 372.313 332.299 371.838 332.315C371.715 332.317 371.569 332.319 371.669 332.125ZM364.54 331.472C364.607 331.123 364.696 330.781 364.818 330.448C365.461 328.704 366.212 327.015 367.334 325.513C367.541 325.235 367.768 324.974 368.062 324.782C368.155 324.722 368.253 324.657 368.366 324.717C368.484 324.78 368.458 324.904 368.469 325.025C368.399 325.527 368.214 326.008 368.008 326.477C367.287 328.119 366.409 329.67 365.242 331.042C365.079 331.235 364.903 331.417 364.696 331.565C364.657 331.593 364.613 331.641 364.562 331.608C364.512 331.58 364.529 331.521 364.54 331.472ZM349.453 329.834C350.034 328.561 350.697 327.336 351.505 326.191C351.667 325.965 351.859 325.763 352.085 325.598C352.187 325.523 352.306 325.447 352.433 325.527C352.574 325.616 352.545 325.765 352.507 325.894C352.336 326.469 352.086 327.013 351.77 327.522C351.045 328.69 350.205 329.771 349.259 330.768C349.213 330.817 349.162 330.861 349.111 330.905C349.1 330.914 349.081 330.914 349.011 330.931C349.131 330.53 349.294 330.182 349.453 329.834ZM356.334 332.299C355.963 332.952 355.553 333.58 355.059 334.147C354.848 334.39 354.6 334.593 354.314 334.746C354.139 334.839 353.946 334.923 353.768 334.793C353.593 334.666 353.604 334.453 353.623 334.259C353.673 333.792 353.831 333.356 354.034 332.937C354.393 332.198 354.831 331.511 355.423 330.933C355.582 330.779 355.756 330.648 355.956 330.555C356.426 330.337 356.761 330.552 356.769 331.114C356.721 331.514 356.551 331.916 356.334 332.299Z" fill="white"/>
<path d="M369.71 328.194C369.724 327.863 369.852 327.59 370.152 327.426C370.511 327.23 370.895 327.397 370.997 327.796C371.09 328.161 370.98 328.479 370.715 328.735C370.534 328.911 370.306 328.992 370.063 328.872C369.79 328.734 369.7 328.488 369.71 328.194Z" fill="white"/>
</g>
<circle cx="353.643" cy="295.004" r="9" fill="white" stroke="#A09060" stroke-width="3"/>
<circle cx="453.428" cy="346.005" r="9" fill="white" stroke="#DDDDDD" stroke-width="3"/>
<circle cx="420.428" cy="303.004" r="9" fill="white" stroke="#DDDDDD" stroke-width="3"/>
<circle cx="395.428" cy="254.999" r="9" fill="white" stroke="#DDDDDD" stroke-width="3"/>
<circle cx="474.428" cy="248.002" r="9" fill="white" stroke="#DDDDDD" stroke-width="3"/>
<circle cx="464.428" cy="282.005" r="9" fill="white" stroke="#DDDDDD" stroke-width="3"/>
<circle cx="520.428" cy="280.997" r="9" fill="white" stroke="#DDDDDD" stroke-width="3"/>
<circle cx="344.428" cy="259" r="9" fill="white" stroke="#DDDDDD" stroke-width="3"/>
<circle cx="387.428" cy="172.997" r="9" fill="white" stroke="#DDDDDD" stroke-width="3"/>
<circle cx="353.428" cy="147.01" r="9" fill="white" stroke="#DDDDDD" stroke-width="3"/>
<circle cx="362.428" cy="273.994" r="9" fill="white" stroke="#DDDDDD" stroke-width="3"/>
<circle cx="614.428" cy="370" r="9" fill="white" stroke="#DDDDDD" stroke-width="3"/>
<circle cx="304.643" cy="292" r="9" fill="white" stroke="#DDDDDD" stroke-width="3"/>
<circle cx="240.428" cy="377.997" r="9" fill="white" stroke="#DDDDDD" stroke-width="3"/>
<circle cx="186.428" cy="367.014" r="9" fill="white" stroke="#DDDDDD" stroke-width="3"/>
<circle cx="842.428" cy="413.027" r="9" stroke="#DDDDDD" stroke-width="3"/>
<defs>
<filter id="filter0_d_2309_10848" x="309.143" y="289" width="96.3513" height="96.3516" filterUnits="userSpaceOnUse" color-interpolation-filters="sRGB">
<feFlood flood-opacity="0" result="BackgroundImageFix"/>
<feColorMatrix in="SourceAlpha" type="matrix" values="0 0 0 0 0 0 0 0 0 0 0 0 0 0 0 0 0 0 127 0" result="hardAlpha"/>
<feOffset dy="2"/>
<feGaussianBlur stdDeviation="10"/>
<feComposite in2="hardAlpha" operator="out"/>
<feColorMatrix type="matrix" values="0 0 0 0 0 0 0 0 0 0 0 0 0 0 0 0 0 0 0.15 0"/>
<feBlend mode="normal" in2="BackgroundImageFix" result="effect1_dropShadow_2309_10848"/>
<feBlend mode="normal" in="SourceGraphic" in2="effect1_dropShadow_2309_10848" result="shape"/>
</filter>
<radialGradient id="paint0_radial_2309_10848" cx="0" cy="0" r="1" gradientUnits="userSpaceOnUse" gradientTransform="translate(361.5 336.5) rotate(80.5141) scale(339.644 422.125)">
<stop offset="0.289755" stop-color="#F7F7F7"/>
<stop offset="1" stop-color="white"/>
</radialGradient>
<clipPath id="clip0_2309_10848">
<rect width="36.7509" height="23.5656" fill="white" transform="translate(338.943 323.537)"/>
</clipPath>
</defs>
</svg>
