<svg width="34" height="40" viewBox="0 0 34 40" fill="none" xmlns="http://www.w3.org/2000/svg">
<path d="M33.75 32.3438C33.75 36.5625 26.1956 39.375 16.875 39.375C7.55438 39.375 0 36.5625 0 32.3438C0 28.125 7.55438 25.3125 16.875 25.3125C26.1956 25.3125 33.75 28.125 33.75 32.3438Z" fill="black" fill-opacity="0.3"/>
<path d="M16.875 0C13.1454 0 9.56854 1.48158 6.93131 4.11881C4.29408 6.75604 2.8125 10.3329 2.8125 14.0625C2.8125 17.28 4.64063 20.6719 6.73031 23.5462C8.85938 26.4797 11.4469 29.1319 13.3284 30.915C14.2832 31.8285 15.5536 32.3384 16.875 32.3384C18.1964 32.3384 19.4668 31.8285 20.4216 30.915C22.3031 29.1319 24.8906 26.4797 27.0197 23.5462C29.1066 20.6719 30.9375 17.28 30.9375 14.0625C30.9375 12.2158 30.5738 10.3872 29.8671 8.68101C29.1604 6.97487 28.1245 5.42463 26.8187 4.11881C25.5129 2.81299 23.9626 1.77715 22.2565 1.07044C20.5503 0.363737 18.7217 0 16.875 0Z" fill="#923D4F"/>
<path d="M21.0938 14.0625C21.0938 15.1814 20.6493 16.2544 19.8581 17.0456C19.0669 17.8368 17.9939 18.2812 16.875 18.2812C15.7561 18.2812 14.6831 17.8368 13.8919 17.0456C13.1007 16.2544 12.6562 15.1814 12.6562 14.0625C12.6562 12.9436 13.1007 11.8706 13.8919 11.0794C14.6831 10.2882 15.7561 9.84375 16.875 9.84375C17.9939 9.84375 19.0669 10.2882 19.8581 11.0794C20.6493 11.8706 21.0938 12.9436 21.0938 14.0625Z" fill="url(#paint0_linear_1356_17958)"/>
<defs>
<linearGradient id="paint0_linear_1356_17958" x1="13.1456" y1="14.4366" x2="17.5388" y2="19.0041" gradientUnits="userSpaceOnUse">
<stop stop-color="#FDFDFD"/>
<stop offset="1" stop-color="#FECBE6"/>
</linearGradient>
</defs>
</svg>
