<svg width="166" height="252" viewBox="0 0 166 252" fill="none" xmlns="http://www.w3.org/2000/svg">
<path d="M72.9502 7.81081C79.2777 2.56123 78.66 3.04269 83.5525 10.1849C85.2638 13.8419 91.4139 2.72606 88.4108 5.60294C94.4506 7.69746 100.812 10.1876 101.341 17.5035C109.785 23.6358 110.782 34.3198 110.911 43.9695C110.924 44.8652 110.424 48.2063 110.598 48.7548C111.459 49.4748 111.544 49.4846 111.598 50.6721C113.662 50.8576 114.703 50.7515 116.102 52.4381C118.327 55.1213 118.583 59.6908 118.257 62.9908C117.884 66.7946 116.368 71.4131 113.333 73.9488C112.092 74.9863 111.449 74.9758 109.927 75.2344C108.876 86.326 106.509 95.8628 97.4712 103.273C97.1135 103.566 96.7502 103.852 96.3818 104.131L93.7467 105.822L91.6415 106.998C90.805 107.364 89.9581 107.707 89.1023 108.026C79.6061 111.544 70.9143 111.106 61.7549 106.91L60.3247 106.18C59.4255 105.699 58.6023 105.111 57.756 104.539C47.4759 96.7448 44.7968 87.522 43.648 75.1385C35.5943 73.5963 33.8017 61.1763 35.9889 54.7257C37.058 51.5719 38.5905 51.2551 41.5481 50.5591C41.7933 50.5012 41.8319 49.6239 41.8715 49.3691L42.8469 48.7387C42.9754 48.1627 42.6048 43.4027 42.6222 42.3659C42.6646 39.2425 42.9185 35.8902 43.5549 32.8333C44.6996 27.3365 46.8818 20.8219 51.8956 17.7425C52.6957 17.251 52.5707 16.4316 52.6888 15.5422C53.0328 9.90243 60.8782 7.21766 65.2736 5.56117C61.7159 1.55379 69.3495 11.5197 72.9502 7.81081Z" fill="#803C07"/>
<path d="M73.6206 10.0262C79.9481 4.77663 78.9763 2.09291 83.8689 9.23509C85.5801 12.8921 91.4139 2.72602 88.4107 5.60289C94.4506 7.69741 100.812 10.1875 101.341 17.5035C109.785 23.6357 110.782 34.3197 110.911 43.9695C110.924 44.8651 110.424 48.2063 110.598 48.7547C110.085 48.8576 109.022 48.8772 108.462 48.9041C102.857 48.9652 97.2116 48.1284 91.6158 48.4351C86.5403 48.7133 83.2944 48.5228 79.6627 52.4276C77.9413 52.5615 75.5417 52.5222 73.7621 52.5365L73.6206 52.3909C72.9658 51.7206 71.8084 50.4717 71.0093 50.1318C63.7411 47.0419 52.7615 48.9741 45.1107 48.881C44.1037 48.92 43.8138 48.8829 42.8469 48.7386C42.9754 48.1626 42.6048 43.4026 42.6222 42.3658C42.6646 39.2424 42.9184 35.8902 43.5549 32.8332C44.6996 27.3364 46.8818 20.8218 51.8956 17.7424C52.6957 17.2509 52.5707 16.4315 52.6887 15.5422C53.0327 9.90238 60.8782 7.21762 65.2735 5.56112C61.7159 1.55375 70.0199 13.7351 73.6206 10.0262Z" fill="#FEBC8A"/>
<path d="M75.7983 11.1341C82.1258 5.88455 78.0267 4.78306 82.9193 11.9252C84.6305 15.5823 91.4136 2.72596 88.4105 5.60284C94.4503 7.69736 100.811 10.1875 101.341 17.5034C100.851 20.6487 100.27 21.8558 97.9865 24.1462C94.3867 27.263 91.2316 29.2467 86.585 30.5427C75.9943 33.4965 64.0662 31.6419 55.9394 23.9683C53.0746 20.9459 52.7511 19.5179 52.6885 15.5421C53.0325 9.90233 60.8779 7.21756 65.2733 5.56107C61.7157 1.55369 72.1976 14.8431 75.7983 11.1341Z" fill="#FEBC8A"/>
<path d="M71.368 12.2415C77.6956 6.99188 76.2866 8.26406 81.1791 15.4062C82.8904 19.0633 91.4138 2.72579 88.4106 5.60267C82.2894 3.75596 71.2427 3.59202 65.2734 5.5609C61.7158 1.55353 67.7673 15.9504 71.368 12.2415Z" fill="#803C07"/>
<path d="M42.8469 48.7384C42.9754 48.1624 42.6048 43.4024 42.6222 42.3656C42.6646 39.2422 42.9184 35.89 43.5549 32.833C44.6996 27.3362 46.8818 20.8216 51.8956 17.7422C52.6957 17.2507 52.5707 16.4313 52.6887 15.542C52.7514 19.5177 53.0748 20.9457 55.9397 23.9682C48.713 30.7024 45.4506 38.5342 45.1202 48.4602C45.1155 48.6004 45.1123 48.7406 45.1107 48.8808C44.1037 48.9198 43.8138 48.8827 42.8469 48.7384Z" fill="#A06A48"/>
<path d="M101.342 17.5034C109.785 23.6357 110.782 34.3197 110.912 43.9694C110.924 44.8651 110.424 48.2062 110.598 48.7547C110.086 48.8576 109.022 48.8772 108.462 48.9041C108.164 38.5543 105.759 31.3789 97.9868 24.1462C100.271 21.8558 100.852 20.6487 101.342 17.5034Z" fill="#A06A48"/>
<path d="M86.9104 38.2413C91.2099 38.0403 100.248 39.7364 102.503 45.0148C102.643 45.3433 102.421 45.6047 102.232 45.8538C101.352 46.2953 101.171 46.4162 100.16 46.4418C95.5322 44.985 91.872 44.3571 87.0291 43.9536C83.7674 43.6817 82.8173 39.6465 86.9104 38.2413Z" fill="#4E2606"/>
<path d="M63.9518 38.2997C68.3383 38.1668 71.632 41.1171 67.6579 43.5218C66.3397 44.3193 58.7611 44.8795 55.9133 45.6809C55.5196 45.8113 55.1236 45.9337 54.7252 46.0483C53.469 46.4034 51.591 46.744 51.2046 45.1324C52.1762 40.6721 60.0498 38.5963 63.9518 38.2997Z" fill="#4E2606"/>
<path d="M79.6623 52.428C83.294 48.5231 86.5399 48.7137 91.6154 48.4355C97.2112 48.1288 102.857 48.9656 108.461 48.9045C109.022 48.8776 110.085 48.858 110.598 48.7551C111.459 49.4751 111.544 49.4849 111.598 50.6724C113.661 50.8579 114.703 50.7518 116.101 52.4384C118.326 55.1216 118.583 59.691 118.257 62.9911C117.883 66.7949 116.367 71.4134 113.332 73.9491C112.092 74.9866 111.449 74.9762 109.927 75.2347L109.93 70.2899C109.949 68.1337 109.924 61.2526 109.085 59.5562C107.366 67.6672 106.398 72.7107 100.206 78.8196C94.9129 74.8698 91.0021 74.0105 84.6327 73.2839C84.1748 73.2791 82.9465 73.2225 82.6566 73.5276C80.119 76.2608 75.7784 77.4179 72.6043 75.1031C70.7851 73.7763 71.3358 73.3893 69.0324 73.2943C69.6667 73.1978 70.0727 73.101 70.6933 72.9364C70.9342 70.9897 70.8525 68.8736 71.0931 66.7728C68.5966 70.1158 65.5257 71.5191 61.4225 71.9325C46.9229 73.3928 46.0367 66.0974 44.9113 54.4278C42.3211 52.6486 41.9755 52.5109 41.8711 49.3694L42.8465 48.739C43.8134 48.8833 44.1033 48.9203 45.1104 48.8814C52.7611 48.9744 63.7407 47.0423 71.0089 50.1322C71.808 50.4721 72.9654 51.7209 73.6202 52.3912L73.7617 52.5368C75.5413 52.5226 77.9409 52.5618 79.6623 52.428Z" fill="#841D13"/>
<path d="M108.56 54.3104C110.513 53.027 110.753 52.8314 111.598 50.6724C113.662 50.8578 114.703 50.7518 116.102 52.4384C118.327 55.1215 118.583 59.691 118.257 62.991C117.884 66.7949 116.368 71.4134 113.333 73.9491C112.092 74.9866 111.45 74.9761 109.927 75.2347L109.93 70.2899C109.949 68.1336 109.924 61.2526 109.085 59.5562C107.367 67.6671 106.398 72.7107 100.207 78.8195C94.9134 74.8698 91.0025 74.0105 84.6332 73.2838C83.8606 73.1535 82.9143 73.2332 82.2447 72.8927C82.2804 70.8538 82.37 70.2114 82.0168 68.1131C81.813 66.9034 81.2322 64.8795 81.2835 63.8319C83.2305 68.2628 86.6027 71.1213 91.4006 71.7109C107.674 73.7105 106.734 65.8125 108.56 54.3104Z" fill="#FEBC8A"/>
<path d="M109.085 59.556C109.68 58.1524 110.146 56.6471 111.69 56.0629C113.627 55.3302 114.44 57.7039 114.611 59.1509C115.004 62.5072 113.747 65.8867 111.76 68.548C111.067 69.4842 110.345 69.8187 109.93 70.2897C109.949 68.1334 109.924 61.2524 109.085 59.556Z" fill="#F59C5F"/>
<path d="M71.0929 66.7729C71.3033 66.1225 72.0572 64.823 72.3633 63.9023C73.1526 61.5267 73.639 59.2594 74.1745 56.8304C75.0344 55.8357 77.1296 55.2644 78.1882 55.9752C80.1663 57.3035 80.5027 61.4565 81.2828 63.832C81.2316 64.8796 81.8123 66.9036 82.0161 68.1132C82.3693 70.2115 82.2798 70.854 82.244 72.8928C82.9137 73.2333 83.86 73.1536 84.6326 73.284C84.1746 73.2792 82.9463 73.2226 82.6564 73.5277C80.1188 76.2608 75.7782 77.4179 72.6041 75.1031C70.7849 73.7764 71.3356 73.3893 69.0322 73.2944C69.6665 73.1979 70.0725 73.101 70.6932 72.9364C70.934 70.9897 70.8523 68.8737 71.0929 66.7729Z" fill="#F59C5F"/>
<path d="M52.142 50.6135C56.6469 50.228 62.2269 50.4771 66.7252 50.917C72.465 51.4781 72.571 55.87 71.4731 60.4366C70.6006 64.0671 69.2764 66.5863 66.0219 68.6045C62.1219 70.2414 55.6918 70.8659 51.5743 68.5479C47.5232 66.2676 46.1804 56.4156 47.9752 52.3614C48.505 51.1648 50.8543 50.8217 52.142 50.6135Z" fill="#FEBC8A"/>
<path d="M60.9745 54.3887C66.9318 54.2302 67.0894 61.6075 62.512 64.217C57.76 64.6138 56.0345 56.9678 60.9745 54.3887Z" fill="#0D0D0C"/>
<path d="M62.3669 60.4986C62.834 60.3663 63.3363 60.4992 63.6769 60.8451C64.0177 61.1911 64.1427 61.6952 64.0035 62.1604C63.8642 62.6257 63.4822 62.9779 63.0075 63.0795C62.3058 63.2299 61.6112 62.796 61.4383 62.099C61.2655 61.4025 61.6763 60.6942 62.3669 60.4986Z" fill="white"/>
<path d="M88.6954 50.6379C92.0087 50.2385 101.282 50.19 104.218 51.48C107.734 53.0245 105.943 63.4234 104.303 66.0534C102.897 68.3121 101.961 68.7967 99.4123 69.4563L99.2759 69.4863C89.9731 71.4555 82.5758 67.6789 81.7704 57.6136C81.282 51.5098 83.3367 51.3297 88.6954 50.6379Z" fill="#FEBC8A"/>
<path d="M90.9568 54.3223C96.4418 55.0331 96.6093 61.7331 92.0724 64.267C87.3001 64.2138 86.1651 56.8102 90.9568 54.3223Z" fill="#0D0D0C"/>
<path d="M91.3669 60.7175C91.755 60.4257 92.2699 60.3666 92.7139 60.5621C93.158 60.758 93.4615 61.1783 93.5077 61.6616C93.5539 62.1446 93.3355 62.6149 92.9367 62.8915C92.3367 63.3077 91.5138 63.1668 91.0859 62.5747C90.6583 61.9822 90.7833 61.1565 91.3669 60.7175Z" fill="white"/>
<path d="M43.648 75.1385C35.5943 73.5963 33.8017 61.1764 35.9889 54.7257C37.058 51.5719 38.5905 51.2551 41.5481 50.5591C41.7933 50.5012 41.8319 49.6239 41.8715 49.3691C41.9759 52.5106 42.3216 52.6483 44.9117 54.4276C46.0371 66.0971 46.9233 73.3925 61.4229 71.9322C65.5261 71.5189 68.597 70.1156 71.0935 66.7725C70.853 68.8734 70.9346 70.9894 70.6938 72.9361C70.0731 73.1007 69.6671 73.1975 69.0328 73.2941C63.1012 73.7238 58.0102 75.0287 53.2882 78.8484C46.4261 73.1912 46.2707 66.5206 44.3664 59.2714C43.7302 62.304 43.5125 67.2491 43.4888 70.3909C43.5413 71.7227 43.6942 73.8678 43.648 75.1385Z" fill="#FEBC8A"/>
<path d="M43.4884 70.3909C34.2881 62.1436 40.8704 50.0607 44.366 59.2715C43.7299 62.304 43.5121 67.2492 43.4884 70.3909Z" fill="#F59C5F"/>
<path d="M62.5352 79.9473C68.2346 81.1851 72.5701 82.6893 78.6037 82.2526C80.1541 82.1405 81.1577 82.0693 82.7357 81.8234C84.8856 81.4879 89.2959 79.9102 91.1578 80.3084C93.0115 82.0851 90.0058 85.6086 88.7186 87.0144C86.0585 89.2843 83.9555 90.368 80.1741 91.2047C73.6316 92.6527 63.7638 89.5388 61.9345 82.3241C61.6649 81.2607 61.9168 80.7923 62.5352 79.9473Z" fill="white"/>
<path d="M42.751 96.2631C44.4482 95.6029 46.7232 95.019 48.4976 94.6294C49.6561 96.425 51.0037 98.0911 52.5174 99.5997C55.662 102.422 57.0783 103.425 60.9292 105.256C71.0335 109.348 81.98 110.077 92.1662 105.76C92.5205 105.612 92.8706 105.455 93.2174 105.289C93.4832 105.125 93.9476 104.918 94.2478 104.769C97.0033 103.402 99.1823 101.723 101.399 99.6058C102.075 98.8976 105.234 94.8284 105.605 94.7164C106.648 94.9799 109.981 95.7935 110.775 96.2052C113.891 97.286 118.075 99.2303 119.585 102.339C120.248 103.704 120.576 105.938 121.074 107.442C122.392 111.423 125.742 115.005 121.996 118.744C122.592 118.996 123.261 119.263 123.837 119.542C126.696 121.001 129.203 122.482 131.754 124.44C142.457 132.655 159.931 153.145 164.046 165.84C164.641 167.626 164.994 169.483 165.097 171.362C165.551 179.767 164.145 190.821 163.152 199.188C162.952 200.876 162.549 203.605 161.953 205.193C161.623 206.072 160.049 207.128 159.674 207.878C159.118 208.991 159.152 210.5 158.789 211.822C158.662 210.984 158.892 208.349 159.295 207.631C153.448 204.149 142.428 203.568 135.962 205.013C135.898 205.883 135.894 206.981 135.522 207.742C135.413 206.585 135.512 206.082 135.651 204.944C134.412 203.894 133.876 203.383 133.731 201.713C133.258 196.289 135.202 176.076 133.867 173.279C132.364 170.125 123.922 160.837 121.155 157.78C121.385 159.669 121.316 162.541 121.316 164.501L121.317 174.936L121.334 208.247C121.325 210.83 121.256 214.64 121.273 217.322C121.335 217.38 121.397 217.439 121.46 217.497L121.571 217.515C123.342 218.03 125.098 218.594 126.837 219.209C127.371 221.666 127.157 224.556 128.471 227.281C125.957 229.395 114.834 231.478 111.117 232.063C96.337 234.39 81.0949 235.141 66.1338 235.14C52.3226 235.14 38.3778 234.466 24.689 232.59C18.2294 231.658 11.755 230.586 5.61861 228.281C3.83387 227.611 -1.18242 225.331 0.25577 222.724C1.59421 220.299 5.97184 218.965 8.52233 218.087C8.32532 216.271 8.42507 212.869 8.45265 210.97C8.49264 206.883 8.59019 202.796 8.74527 198.712C9.0667 188.829 9.57949 178.954 10.2834 169.091C10.7816 162.183 11.3896 154.551 12.4975 147.726C13.0337 144.398 13.8836 141.129 15.0358 137.962C17.498 131.252 22.638 123.686 29.2983 120.588C29.8451 120.221 31.4576 119.698 32.1399 119.486C27.8776 116.361 31.1748 111.047 32.6947 107.574C33.264 106.273 33.264 104.34 33.9063 102.925C35.4445 99.5357 39.5057 97.5994 42.751 96.2631Z" fill="#D4B57A"/>
<path d="M121.571 217.516C123.342 218.03 125.098 218.595 126.837 219.209C127.371 221.666 127.157 224.556 128.471 227.282C125.957 229.395 114.834 231.478 111.117 232.063C96.337 234.39 81.0949 235.141 66.1338 235.141C52.3226 235.14 38.3778 234.466 24.689 232.59C18.2294 231.658 11.755 230.586 5.61861 228.281C3.83387 227.611 -1.18242 225.331 0.25577 222.724C1.59421 220.299 5.97184 218.965 8.52233 218.087C8.69893 218.821 8.7224 220.609 8.75657 221.437C15.1472 221.262 21.72 221.389 28.1243 221.385L62.7341 221.337L94.6883 221.246C99.3611 221.235 104.317 221.146 108.968 221.233L111.764 221.279C114.851 221.225 117.939 221.238 121.026 221.317C121.032 220.38 121.041 218.592 121.238 217.7L121.571 217.516Z" fill="#D3D2D1"/>
<path d="M60.9299 105.256C71.0342 109.348 81.9807 110.077 92.1669 105.761C92.5212 105.612 92.8713 105.455 93.2181 105.29C93.2543 107.058 93.3512 109.261 93.2976 110.994C93.3216 112.129 93.2981 115.443 93.6745 116.292L94.0429 116.422L94.0533 116.642L93.627 117.035C93.2327 117.072 88.9898 119.746 87.9805 120.195C86.0156 121.071 84.0031 122.159 81.8118 122.642C79.9094 123.061 78.1896 123.011 76.3367 123.016C70.718 123.032 67.5089 121.511 62.845 118.684C62.0775 118.219 60.9657 117.301 60.1432 117.032C60.0853 117.027 60.0279 117.022 59.97 117.016L59.9644 116.904L60.3102 116.683C60.4655 114.437 60.5888 112.188 60.6796 109.938C60.7229 109.01 60.7017 105.926 60.9299 105.256Z" fill="#F8C097"/>
<path d="M60.9295 105.256C71.0338 109.348 81.9804 110.077 92.1665 105.761C92.5208 105.612 92.8709 105.455 93.2177 105.29C93.2539 107.058 93.3509 109.261 93.2972 110.994C93.2441 110.525 93.2003 110.285 93.0864 109.828C92.934 109.843 88.6799 112.495 88.1303 112.798C81.3922 116.508 73.8966 116.673 66.9194 113.537C65.489 112.894 61.09 110.041 60.6792 109.938C60.7225 109.01 60.7013 105.926 60.9295 105.256Z" fill="#E99B72"/>
<path d="M49.2087 200.202C58.6138 199.974 68.0532 200.166 77.463 200.163C85.2856 200.159 93.24 199.893 101.047 200.33C101.626 200.363 103.216 200.412 103.618 200.819C104.939 202.156 110.739 218.289 111.764 221.279L108.968 221.233C108.7 220.79 106.581 215.241 106.347 214.551C105.163 211.048 103.024 206.575 102.013 203.199L73.031 203.071C65.8581 203.073 58.1442 203.206 51.0137 203.021C49.171 207.194 47.3788 211.39 45.6378 215.606C44.9461 217.288 43.9406 219.557 43.3731 221.244L40.2412 221.25C41.4204 217.428 43.8676 212.432 45.4157 208.68C46.1737 206.842 48.294 201.67 49.2087 200.202Z" fill="#C8A663"/>
<path d="M52.5187 99.5996C55.6633 102.422 57.0796 103.425 60.9305 105.256C60.7023 105.926 60.7234 109.01 60.6801 109.938C60.5893 112.188 60.4661 114.436 60.3108 116.682C58.5651 116.416 49.8456 109.571 48.426 107.963C46.725 106.036 45.8423 103.637 48.1145 101.611C49.4635 100.792 51.0473 100.199 52.5187 99.5996Z" fill="#A7794F"/>
<path d="M59.9692 117.016C60.0271 117.021 60.0845 117.026 60.1424 117.031C60.9649 117.3 62.0768 118.218 62.8442 118.684C67.5082 121.511 70.7172 123.031 76.3359 123.016C78.1889 123.011 79.9087 123.061 81.811 122.642C84.0023 122.159 86.0148 121.07 87.9798 120.195C88.9891 119.745 93.2319 117.072 93.6262 117.034C93.2884 117.53 89.3537 121.313 88.5242 122.057C85.2982 124.914 82.2524 128.211 78.7949 130.769C77.1476 131.988 75.3548 131.302 73.9682 130.102C70.8141 127.372 67.7124 124.527 64.716 121.624C63.2799 120.232 61.2251 118.506 59.9692 117.016Z" fill="#D3D2D1"/>
<path d="M93.2178 105.29C93.4836 105.126 93.948 104.918 94.2482 104.77C97.0037 103.403 99.1828 101.723 101.399 99.6064C103.042 100.295 104.159 100.663 105.742 101.586C108.047 104.778 105.935 107.16 103.405 109.284C101.761 110.664 95.5441 115.794 93.6742 116.293C93.2978 115.444 93.3213 112.13 93.2973 110.994C93.3509 109.261 93.254 107.058 93.2178 105.29Z" fill="#A7794F"/>
<path d="M32.1404 119.486C40.2299 124.949 57.7427 129.543 67.48 130.88C67.3271 131.115 67.3365 131.005 67.3374 131.232L67.2212 131.883C63.9336 131.424 60.6695 131.157 57.3908 130.543C51.2639 129.396 33.2429 124.786 29.2988 120.588C29.8456 120.22 31.4581 119.698 32.1404 119.486Z" fill="#C8A663"/>
<path d="M84.4581 132.023C83.9001 132.056 83.7368 132.081 83.3999 131.786C83.7161 131.41 88.3946 130.644 89.1795 130.476C96.9363 128.816 104.566 126.722 111.969 123.856C113.525 123.254 121.383 120.016 121.997 118.743C122.592 118.995 123.261 119.262 123.837 119.542C122.5 122.058 106.929 127.517 103.332 128.578C98.9483 129.872 92.6676 131.656 88.1594 132.332C87.7985 132.071 87.9086 132.067 87.7909 131.471C86.9106 131.604 85.2769 131.814 84.4581 132.023Z" fill="#C8A663"/>
<path d="M42.7515 96.2627C44.4487 95.6026 46.3393 94.5439 48.1137 94.1543C49.2722 95.9499 51.0042 98.0908 52.5179 99.5993C51.0465 100.198 49.4627 100.792 48.1137 101.611C47.589 101.018 43.1891 96.5422 42.7515 96.2627Z" fill="#C8A663"/>
<path d="M101.399 99.6047C102.075 98.8966 104.388 94.425 104.758 94.313C105.801 94.5765 109.981 95.7925 110.775 96.2042C110.267 96.6747 110.224 96.9434 109.888 97.3132C108.801 98.5065 107.02 100.74 105.742 101.584C104.159 100.662 103.042 100.293 101.399 99.6047Z" fill="#C8A663"/>
<path d="M66.1919 130.709C67.4608 130.888 69.658 130.756 70.4645 132.172C69.3629 132.464 67.8188 132.171 66.7233 131.842L66.6666 131.72L66.1919 130.709Z" fill="#C8A663"/>
<path d="M88.5351 132.246C86.4772 132.64 84.0528 133.601 82.2026 132.144C83.8026 131.215 86.3379 130.832 88.1871 130.721L88.3263 130.852L88.5351 132.246Z" fill="#C8A663"/>
<path d="M31.9551 152.418C32.3489 152.913 32.0826 158.76 32.0624 159.81C31.9706 164.635 31.7024 169.462 31.5528 174.288C31.2055 185.354 30.9288 196.423 30.7223 207.493C30.6381 212.207 30.4625 216.524 30.5152 221.268L27.1966 221.258C27.1249 221.241 26.9655 221.144 26.8918 221.103C26.7284 217.353 27.1614 211.678 27.2995 207.807C27.5876 197.291 28.1182 186.783 28.891 176.291C29.2429 171.013 30.0499 156.664 31.9551 152.418Z" fill="#C8A663"/>
<path d="M135.962 205.012C142.429 203.567 153.449 204.148 159.295 207.63C158.892 208.348 158.663 210.983 158.79 211.821C159.488 217.502 159.964 227.294 154.581 230.831C153.225 231.257 152.387 231.359 150.952 231.242C149.922 232.156 149.303 232.598 148.021 233.104L147.85 233.115C146.654 233.184 146.047 232.662 145.483 232.851L145.208 233.307C144.799 234.222 144.443 234.514 143.601 235.065C141.965 235.587 141.377 235.497 139.691 235.408C139.646 237.387 139.385 245.278 139.076 246.963C138.925 248.712 139.01 249.275 138.115 250.78C135.379 253.175 132.134 251.898 132.132 248.197C131.928 246.776 132.004 244.387 132.018 242.899C132.033 240.333 132.065 237.767 132.113 235.202C132.131 234.358 132.259 231.714 132.107 231.012C131.072 230.592 130.52 230.389 129.83 229.491C129.087 228.719 128.907 228.249 128.472 227.28C127.157 224.555 127.371 221.665 126.837 219.208C126.532 214.432 128.891 210.558 133.302 208.669C134.039 208.354 134.783 208.056 135.522 207.741C135.894 206.98 135.898 205.882 135.962 205.012Z" fill="#F8C097"/>
<path d="M132.729 247.21C134.179 244.228 137.088 245.18 139.076 246.964C138.925 248.712 139.01 249.276 138.115 250.781C137.451 249.591 138.049 248.68 136.995 247.168C135.704 245.314 134.106 245.222 133.233 247.596C133.166 247.778 133.288 247.68 133.128 247.969L133.021 247.91C132.981 247.571 132.91 247.485 132.729 247.21Z" fill="#EFA77C"/>
<path d="M132.256 222.237C132.499 223.265 132.134 229.62 132.107 231.013C131.072 230.594 130.52 230.39 129.83 229.492C131.771 227.017 131.428 224.978 132.256 222.237Z" fill="#EFA77C"/>
<path d="M139.691 235.409C139.849 233.853 139.692 231.911 139.987 230.405C140.094 231.307 140.16 232.109 140.217 233.016C141.582 234.48 141.9 234.304 143.601 235.066C141.965 235.589 141.377 235.498 139.691 235.409Z" fill="#E99B72"/>
<path d="M150.937 228.63C152.634 230.423 152.476 230.002 154.581 230.833C153.225 231.259 152.387 231.361 150.952 231.244L150.937 228.63Z" fill="#E99B72"/>
<path d="M145.497 230.135C146.011 231.166 146.918 232.656 148.021 233.106L147.85 233.117C146.654 233.186 146.046 232.664 145.483 232.853L145.208 233.309C145.293 231.96 145.29 231.52 145.497 230.135Z" fill="#E99B72"/>
<g clip-path="url(#clip0_1305_48879)">
<path d="M82.7892 173.89C82.5234 174.577 82.284 175.203 82.0371 175.826C81.3001 177.702 80.4613 179.527 79.1739 181.1C78.4237 182.015 77.5868 182.868 76.3785 183.14C74.6896 183.518 72.9178 182.917 72.4032 181.138C72.0357 179.866 72.6596 178.301 73.7453 177.802C74.1355 177.623 74.5351 177.57 74.9441 177.727C75.0987 177.787 75.2118 177.894 75.2306 178.069C75.2476 178.218 75.1854 178.344 75.0553 178.401C74.2203 178.766 74.1562 179.531 74.0865 180.282C74.045 180.719 74.1807 181.104 74.454 181.463C74.946 182.115 76.1165 181.987 76.699 181.65C77.7036 181.066 78.3766 180.171 79.0174 179.237C80.4179 177.19 81.3152 174.903 82.2105 172.615C82.4179 172.086 82.6327 171.558 82.808 171.018C83.0097 170.4 82.7232 169.816 82.1728 169.618C81.843 169.5 81.5414 169.632 81.2567 169.745C79.9429 170.27 78.107 172.402 78.3634 174.127C78.3954 174.338 78.4331 174.53 78.5858 174.685C78.7441 174.843 78.8252 175.02 78.7064 175.24C78.5764 175.482 78.3502 175.468 78.1334 175.436C77.2098 175.303 76.5576 174.316 76.7291 173.308C76.895 172.342 77.3153 171.489 77.9317 170.737C78.8591 169.603 79.9825 168.741 81.4547 168.456C82.3726 168.279 83.2529 168.356 83.8956 169.168C84.3235 169.707 84.4159 170.357 84.4724 171.01C84.627 172.777 84.4724 174.536 84.3424 176.295C84.2764 177.186 84.2349 178.081 84.1916 178.973C84.184 179.122 84.1426 179.286 84.2594 179.448C84.4668 179.314 84.5554 179.103 84.6647 178.909C85.2396 177.887 85.7862 176.847 86.3913 175.843C87.4337 174.112 88.4251 172.351 89.5561 170.675C89.901 170.165 90.2705 169.667 90.6531 169.185C91.2111 168.483 91.9292 168.296 92.6474 168.637C93.1111 168.857 93.211 169.053 93.0244 169.532C92.6342 170.536 92.195 171.521 91.8274 172.532C90.9698 174.89 90.2026 177.275 89.9463 179.787C89.9105 180.136 89.9123 180.49 89.9368 180.838C89.9802 181.446 90.4005 181.652 90.9302 181.333C91.0961 181.234 91.2469 181.109 91.3958 180.987C91.5334 180.874 91.6766 180.761 91.8482 180.885C92.0216 181.009 91.9462 181.192 91.8953 181.352C91.6427 182.153 90.5344 182.874 89.7276 182.769C88.6589 182.627 88.0821 181.991 88.0406 180.885C88.0105 180.083 88.133 179.294 88.2913 178.508C88.7079 176.452 89.4034 174.476 90.0518 172.485C90.0801 172.398 90.1517 172.314 90.0763 172.184C89.4675 173.012 88.9416 173.877 88.4101 174.738C87.0416 176.954 85.9031 179.296 84.6119 181.554C84.4875 181.772 84.3631 182 84.1633 182.166C83.6336 182.603 82.9588 182.377 82.8344 181.703C82.6968 180.949 82.6893 180.184 82.7609 179.424C82.9324 177.636 82.8665 175.845 82.8646 174.056C82.8684 174.029 82.842 173.999 82.7892 173.89Z" fill="white"/>
<path d="M54.4747 174.803C53.8131 174.79 53.1666 174.703 52.5766 174.383C52.307 174.238 52.0714 174.044 51.9244 173.767C51.7793 173.496 51.8 173.223 51.9979 172.985C52.1676 172.782 52.3956 172.71 52.652 172.812C53.8074 173.27 54.9874 173.162 56.1598 172.929C58.1975 172.524 60.1389 171.786 62.12 171.191C64.4762 170.482 66.8512 169.85 69.2978 169.531C70.572 169.365 71.8519 169.249 73.1318 169.488C73.7463 169.603 74.323 169.821 74.8188 170.211C75.2391 170.543 75.4992 170.97 75.4578 171.526C75.437 171.818 75.3315 172.076 75.0035 172.153C74.6906 172.225 74.504 172.063 74.3589 171.806C73.9027 171.004 73.1016 170.867 72.2967 170.808C71.0678 170.718 69.8576 170.931 68.6513 171.136C65.462 171.678 62.4084 172.707 59.351 173.729C57.9713 174.191 56.584 174.62 55.125 174.756C54.9082 174.777 54.6915 174.788 54.4747 174.803Z" fill="white"/>
<path d="M99.7624 162.672C99.5758 162.521 99.3685 162.572 99.1875 162.693C98.9331 162.862 98.737 163.098 98.5429 163.327C97.9906 163.979 97.3516 164.533 96.6334 164.991C96.034 165.373 95.3969 165.659 94.6618 165.633C93.9229 165.606 93.4724 165.171 93.4178 164.431C93.3914 164.079 93.4385 163.732 93.4932 163.384C93.5403 163.084 93.6666 162.987 93.9776 163.017C95.4441 163.158 96.5863 162.502 97.5344 161.47C98.0905 160.866 98.394 160.129 98.3751 159.286C98.3544 158.395 97.7757 157.816 96.8879 157.788C96.3714 157.771 95.9209 157.977 95.4648 158.171C95.1236 158.457 94.7523 158.709 94.4564 159.046C93.7608 159.841 93.1727 160.702 92.7524 161.676C92.5601 162.12 92.2981 162.523 91.9758 162.889C91.4555 163.738 90.8599 164.527 90.1116 165.192C90.023 165.271 89.9137 165.337 89.8043 165.382C89.465 165.525 89.2294 165.38 89.1955 165.017C89.1578 164.621 89.2634 164.248 89.3878 163.879C89.8194 162.612 90.4829 161.455 91.1031 160.278C91.333 159.839 91.5762 159.402 91.6572 158.903C91.6912 158.702 91.6516 158.508 91.465 158.391C91.2746 158.27 91.0748 158.287 90.8787 158.397C90.6431 158.527 90.515 158.749 90.3887 158.967C90.0739 159.512 89.7817 160.071 89.4537 160.608C88.5396 162.111 87.565 163.569 86.2833 164.791C85.8592 165.196 85.3804 165.527 84.8017 165.674C84.2249 165.821 83.8084 165.652 83.5596 165.192C83.0355 164.222 83.2957 162.7 84.11 161.971C84.2721 161.826 84.4436 161.691 84.6019 161.542C86.911 159.382 88.5848 156.779 89.8816 153.922C90.2775 153.051 90.6243 152.159 90.711 151.189C90.8147 150.015 90.0739 149.382 88.9486 149.703C88.7752 149.752 88.6074 149.827 88.4472 149.908C87.6989 150.29 87.1975 150.927 86.7244 151.59C86.0627 152.518 85.5689 153.549 84.9978 154.53C84.9356 154.686 84.8828 154.848 84.8093 154.999C83.8517 156.978 83.0996 159.031 82.6001 161.177C82.472 161.725 82.4456 162.31 82.1063 162.798C81.684 163.405 81.2354 163.992 80.7378 164.538C80.4362 164.87 80.1384 165.211 79.7294 165.416C79.294 165.635 79.0037 165.439 79.0395 164.955C79.0696 164.554 79.1846 164.167 79.3618 163.806C79.6804 163.152 80.0083 162.504 80.3326 161.855C80.4965 161.527 80.6247 161.19 80.6643 160.822C80.719 160.306 80.5418 159.903 80.0969 159.615C79.8029 159.425 79.4711 159.365 79.145 159.278C78.5079 159.107 78.4929 159.071 78.6625 158.451C78.6719 158.415 78.6795 158.38 78.687 158.346C78.7549 158.037 78.7134 157.752 78.4156 157.585C78.1083 157.412 77.8049 157.472 77.5429 157.702C77.2714 157.943 77.164 158.27 77.1546 158.615C77.1282 159.519 76.7644 160.312 76.3384 161.071C75.6862 162.233 74.9153 163.322 74.1424 164.407C73.9671 164.651 73.7937 164.906 73.5525 165.092C73.2471 165.33 73.0058 165.252 72.904 164.874C72.8607 164.714 72.8494 164.538 72.8569 164.371C72.8758 163.866 73.0473 163.399 73.2565 162.947C73.7504 161.883 74.3121 160.849 74.7701 159.766C74.8738 159.519 74.9737 159.271 74.985 159.001C74.9944 158.773 74.9398 158.56 74.7098 158.451C74.4911 158.35 74.2819 158.395 74.0972 158.542C73.9332 158.672 73.8145 158.837 73.7183 159.022C73.6712 159.114 73.6542 159.263 73.5242 159.255C73.3922 159.248 73.3998 159.095 73.3583 158.999C73.0115 158.203 72.3291 157.881 71.4903 158.129C70.8702 158.312 70.3688 158.685 69.8957 159.11C69.4433 159.519 69.121 160.039 68.7232 160.493C68.5385 160.819 68.3463 161.139 68.171 161.47C67.6733 162.412 67.1361 163.329 66.4858 164.175C66.1032 164.674 65.7224 165.177 65.1532 165.488C64.9949 165.574 64.8252 165.676 64.6443 165.546C64.4614 165.414 64.5161 165.222 64.5519 165.045C64.7027 164.296 64.9798 163.585 65.2587 162.877C65.5321 162.18 65.8299 161.489 65.9222 160.736C66.0146 159.969 65.8412 159.626 65.2097 159.327C64.435 159.287 63.8469 159.674 63.3022 160.161C62.241 161.111 61.4078 162.261 60.4786 163.326C60.39 163.427 60.3278 163.565 60.1091 163.612C60.3824 162.877 60.5917 162.218 61.1873 161.681C63.0308 160.024 64.5839 158.107 65.9844 156.065C66.6423 155.104 67.2398 154.11 67.6149 152.999C67.7695 152.537 67.8939 152.072 67.7902 151.577C67.6865 151.089 67.4189 150.812 66.9269 150.718C66.3878 150.614 65.9222 150.825 65.4925 151.104C64.9063 151.484 64.4558 152.01 64.0618 152.582C63.0854 154.001 62.2617 155.506 61.5417 157.069C61.2174 157.771 60.9008 158.476 60.5803 159.18C60.2674 160.005 59.9527 160.83 59.6454 161.657C59.5172 162.001 59.325 162.305 59.0837 162.582C58.1978 163.595 57.2478 164.544 56.2299 165.422C55.327 166.2 54.3563 166.876 53.2008 167.243C51.3498 167.833 49.7853 167.053 49.1727 165.211C48.8617 164.275 48.8127 163.309 48.9842 162.342C49.5082 159.391 50.7693 156.756 52.4996 154.332C53.4119 153.053 54.4675 151.908 55.836 151.093C56.311 150.81 56.8218 150.624 57.3873 150.667C57.7529 150.695 58.0734 150.814 58.2487 151.174C58.3505 151.268 58.3995 151.392 58.4409 151.516C58.7161 152.351 58.5767 153.155 58.2524 153.944C58.0149 154.686 57.6304 155.327 56.9952 155.805C56.6521 156.065 56.5767 156.362 56.72 156.696C56.8651 157.037 57.1686 157.187 57.589 157.122C57.9641 157.063 58.2656 156.858 58.5276 156.602C59.7076 155.447 60.2203 154.006 60.275 152.388C60.3014 151.618 60.111 150.897 59.587 150.302C58.8594 149.475 57.8981 149.333 56.8727 149.386C56.0716 149.428 55.3365 149.695 54.6183 150.027C53.5401 150.693 52.5713 151.492 51.7344 152.443C49.8607 154.571 48.5488 157.008 47.6836 159.689C47.1313 161.401 46.8448 163.147 47.203 164.945C47.7006 167.454 49.6119 168.966 52.1603 168.844C53.2253 168.793 54.1885 168.4 55.0763 167.825C56.1809 167.111 57.1347 166.219 58.0564 165.286C58.1488 165.192 58.2204 165.053 58.3844 165.045C58.4221 165.179 58.3637 165.277 58.3316 165.378C58.2034 165.795 58.0545 166.205 57.9509 166.627C57.8868 166.889 57.9546 167.147 58.2393 167.262C58.505 167.371 58.7444 167.288 58.9254 167.075C59.0422 166.938 59.1365 166.78 59.2345 166.629C60.3447 164.904 61.6057 163.295 63.0515 161.84C63.4398 161.448 63.8205 161.03 64.3314 160.777C64.4256 160.73 64.5349 160.66 64.6348 160.749C64.7215 160.826 64.6706 160.934 64.6443 161.022C64.5274 161.416 64.4124 161.811 64.2767 162.199C63.9845 163.034 63.6528 163.853 63.453 164.717C63.3474 165.169 63.2928 165.623 63.4398 166.079C63.6358 166.691 64.239 167.008 64.8516 166.816C65.0834 166.742 65.2964 166.627 65.4962 166.486C65.9222 166.183 66.2992 165.825 66.6366 165.426C66.6875 165.365 66.7328 165.264 66.8327 165.29C66.9326 165.316 66.925 165.424 66.9344 165.503C67.0966 166.723 68.2445 167.243 69.3754 166.618C70.0879 166.224 70.6515 165.665 71.1793 165.058C71.3339 164.881 71.4771 164.693 71.6713 164.456C71.7052 164.81 71.7203 165.083 71.758 165.354C71.8937 166.316 72.7193 166.738 73.5826 166.292C73.854 166.151 74.0878 165.959 74.3045 165.748C75.7409 164.352 76.7719 162.68 77.5994 160.873C77.9217 160.171 77.9085 160.165 78.6305 160.444C79.2581 160.685 79.3694 160.902 79.1243 161.523C78.868 162.177 78.572 162.813 78.3025 163.461C78.031 164.113 77.8049 164.772 77.8444 165.497C77.8934 166.38 78.4891 166.842 79.3505 166.623C79.916 166.48 80.3891 166.164 80.8113 165.774C81.2204 165.395 81.6105 164.998 81.9592 164.563C82.0101 164.499 82.061 164.403 82.1553 164.422C82.2778 164.446 82.259 164.574 82.2665 164.663C82.3004 165.015 82.3664 165.356 82.4965 165.687C82.815 166.501 83.454 166.921 84.3286 166.893C84.8941 166.874 85.3823 166.637 85.8479 166.345C86.6037 165.87 87.2352 165.254 87.8157 164.584C87.8798 164.51 87.9194 164.38 88.0985 164.425C88.0513 164.862 87.9854 165.307 88.1173 165.746C88.3492 166.512 89.0768 166.855 89.8138 166.541C90.302 166.332 90.7072 166.008 91.054 165.614C91.3745 165.25 91.6817 164.878 91.9965 164.508C92.0436 164.454 92.0832 164.38 92.168 164.399C92.2397 164.414 92.2416 164.488 92.2453 164.548C92.2868 165.217 92.5733 165.78 92.9955 166.283C93.2726 166.454 93.5365 166.644 93.8626 166.727C94.6222 166.917 95.3536 166.842 96.0567 166.507C97.4854 165.827 98.6183 164.781 99.6267 163.589C99.7191 163.48 99.7813 163.344 99.8378 163.211C99.9189 163.019 99.9377 162.817 99.7624 162.672ZM94.1095 161.723C94.5374 160.89 95.0313 160.107 95.7324 159.472C95.8757 159.342 96.0454 159.246 96.232 159.182C96.7541 159.007 97.0632 159.229 97.0613 159.836C97.0349 160.444 96.707 160.941 96.198 161.34C95.6571 161.766 95.0369 161.973 94.3527 161.996C94.1755 162 93.9663 162.001 94.1095 161.723ZM83.8574 160.785C83.9535 160.284 84.0817 159.792 84.257 159.314C85.1825 156.807 86.2626 154.379 87.8761 152.221C88.1739 151.822 88.5 151.447 88.9222 151.172C89.056 151.085 89.1974 150.991 89.3595 151.078C89.5291 151.168 89.4914 151.347 89.5084 151.52C89.4066 152.242 89.1408 152.933 88.8449 153.607C87.8082 155.967 86.5453 158.195 84.8677 160.167C84.6321 160.444 84.3795 160.706 84.0817 160.919C84.0251 160.958 83.9629 161.028 83.8894 160.981C83.8178 160.939 83.8423 160.854 83.8574 160.785ZM62.1599 158.43C62.9949 156.602 63.9487 154.841 65.1117 153.196C65.3436 152.871 65.6206 152.581 65.9449 152.343C66.0919 152.236 66.2634 152.127 66.4463 152.242C66.6479 152.37 66.6065 152.584 66.5518 152.769C66.3068 153.596 65.9467 154.377 65.4925 155.108C64.4501 156.786 63.2419 158.34 61.8809 159.773C61.815 159.843 61.7415 159.907 61.6679 159.969C61.6529 159.982 61.6246 159.982 61.5247 160.007C61.6962 159.431 61.9318 158.931 62.1599 158.43ZM72.0558 161.973C71.5224 162.911 70.9324 163.813 70.2218 164.629C69.9183 164.977 69.562 165.269 69.1511 165.49C68.8985 165.623 68.6215 165.744 68.3651 165.557C68.1144 165.375 68.1295 165.068 68.1578 164.789C68.2294 164.118 68.4556 163.491 68.7478 162.89C69.2642 161.828 69.8938 160.841 70.7458 160.011C70.9739 159.788 71.2246 159.6 71.513 159.466C72.1878 159.154 72.6703 159.463 72.6816 160.271C72.6119 160.845 72.3687 161.423 72.0558 161.973Z" fill="white"/>
<path d="M91.2922 156.076C91.3129 155.6 91.4957 155.208 91.9274 154.972C92.4439 154.69 92.9962 154.931 93.1432 155.504C93.277 156.029 93.1187 156.485 92.7379 156.854C92.4778 157.106 92.1498 157.223 91.7992 157.05C91.4072 156.852 91.2771 156.498 91.2922 156.076Z" fill="white"/>
</g>
<path d="M42.8838 48.7392L45.574 48.8974C45.911 47.4356 49.0757 33.7758 52.5367 27.8509C55.4451 29.4661 58.3559 30.0268 61.6741 30.2869C65.2836 30.7523 68.9276 30.8952 72.5626 30.7138C80.0658 30.3213 87.4636 28.7767 94.4951 26.1343C96.0895 25.5392 101.624 23.0037 101.78 23.547C88.7746 20.2552 108.066 37.6768 107.606 48.8974H110.612C113.581 36.4525 111.865 36.6775 111.372 32.6284C111.057 28.7839 109.763 25.0835 107.613 21.8782C110.543 20.3905 114.768 17.027 114.561 13.2884C114.561 13.172 114.561 13.2108 114.561 13.2884C114.444 12.0724 112.319 13.6635 111.774 13.9481C111.981 13.2496 112.396 11.1798 111.048 11.6713C111.048 11.2962 111.139 10.2742 110.646 10.106C110.154 9.93785 109.441 10.6752 109.117 10.9081C108.496 11.3651 107.837 11.7676 107.147 12.1112C106.447 11.7748 105.734 11.4255 105.021 11.128C103.595 10.5329 102.156 9.97666 100.691 9.48508C99.1995 8.88405 97.7746 8.12967 96.4395 7.23414C90.6193 3.75423 84.3196 0.649487 77.4495 0.106156C70.3961 -0.476004 63.3535 1.34837 57.4743 5.28073C54.8649 6.99866 52.6043 9.19324 50.8116 11.749C49.8783 13.1332 46.9228 18.4888 50.1634 19.0322C39.8064 26.4577 42.6505 47.3808 42.8838 48.7392Z" fill="#663B13"/>
<defs>
<clipPath id="clip0_1305_48879">
<rect width="52.8535" height="33.8642" fill="white" transform="translate(47.0444 149.382)"/>
</clipPath>
</defs>
</svg>
