<svg width="119" height="241" viewBox="0 0 119 241" fill="none" xmlns="http://www.w3.org/2000/svg">
<path d="M91.5559 240.16V205.954L24.0625 219.767V240.16H91.5559Z" fill="#9EC2DD"/>
<path d="M119 240.16V174.389C119 147.997 94.2395 126.602 60.7104 126.602C27.1813 126.602 0 147.997 0 174.389V240.16H119Z" fill="#9EC2DD"/>
<path d="M3.4692 240.16V174.389C3.4692 148.455 29.7192 127.361 62.4431 126.636C61.8658 126.624 61.2929 126.602 60.7104 126.602C27.1813 126.602 0 147.997 0 174.389V240.16H3.4692Z" fill="#8FB3CE"/>
<path d="M60.7125 126.602C48.2938 126.602 36.7513 129.543 27.1328 134.58C32.0886 143.379 40.8908 149.739 56.5069 150.375C74.606 151.112 84.615 143.46 90.1386 132.864C81.6272 128.887 71.641 126.602 60.7125 126.602Z" fill="#8FB3CE"/>
<path d="M59.7925 126.602C55.5085 126.602 51.4041 127.196 47.5898 128.271V138.666C50.1967 139.88 53.3757 140.647 57.2801 140.806C62.4403 141.016 66.489 140.075 69.682 138.357V127.718C66.574 126.999 63.266 126.602 59.7925 126.602Z" fill="#C6C6C6"/>
<path d="M89.808 53.2923C90.1685 53.2659 90.5312 53.2601 90.8975 53.2821C97.1757 53.6572 101.835 61.1773 101.303 70.0785C100.771 78.9797 95.2503 85.8917 88.9713 85.5165C88.605 85.4946 88.2452 85.4462 87.8906 85.3766L89.808 53.2923Z" fill="#F8BC91"/>
<path d="M58.5581 121.078C48.6238 121.078 40.5703 128.346 40.5703 137.312V141.904C40.5703 143.335 42.0891 144.254 43.3567 143.592L58.5573 135.65L73.758 143.592C75.0262 144.254 76.5443 143.335 76.5443 141.904V137.312C76.5458 128.346 68.4923 121.078 58.5581 121.078Z" fill="#D9D9D8"/>
<path d="M25.6339 240.16V176.754C25.6339 175.89 24.9269 175.183 24.063 175.183C23.1992 175.183 22.4922 175.89 22.4922 176.754V240.16H25.6339Z" fill="#8FB3CE"/>
<path d="M93.13 221.253V176.754C93.13 175.89 92.4229 175.183 91.5591 175.183C90.6953 175.183 89.9883 175.89 89.9883 176.754V221.253H93.13Z" fill="#8FB3CE"/>
<path d="M93.13 184.556H89.9883V240.161H93.13V184.556Z" fill="#8FB3CE"/>
<path d="M47.1992 109.61V129.269C47.1992 131.079 52.851 132.546 59.8224 132.546C66.7937 132.546 72.4455 131.079 72.4455 129.269V109.61H47.1992Z" fill="#F8BC91"/>
<path d="M60.4759 125.401C65.0895 125.28 69.0481 124.543 72.4455 123.311V109.61H47.1992V123.625C51.0325 124.883 55.4227 125.534 60.4759 125.401Z" fill="#D19066"/>
<path d="M47.1992 117.682C50.5446 119.083 54.0797 119.924 57.7284 120.073C62.9538 120.286 67.9191 119.061 72.4455 116.763V109.61H47.1992V117.682Z" fill="#D19066"/>
<path d="M22.9732 57.7791C22.6128 57.801 22.2523 57.8443 21.8925 57.9146C15.7205 59.1257 12.1085 67.2012 13.8259 75.9514C15.5425 84.7017 21.938 90.8136 28.11 89.6032C28.4697 89.5322 28.8199 89.4362 29.1621 89.3204L22.9732 57.7791Z" fill="#F8BC91"/>
<path d="M28.112 89.6032C28.4717 89.5329 28.8219 89.4362 29.1641 89.3204L22.9752 57.7798C22.6148 57.8018 22.2543 57.845 21.8946 57.9153C20.5296 58.1835 19.2914 58.7872 18.207 59.6591C18.3133 60.0503 18.4232 60.4474 18.5375 60.8519C21.359 70.8015 22.0228 76.616 22.5246 79.7481C22.9569 83.3338 23.516 86.5465 24.1929 89.4252C25.4788 89.7842 26.8005 89.8604 28.112 89.6032Z" fill="#D19066"/>
<path d="M22.529 62.4857C20.0094 24.1539 36.1911 18.6428 55.768 18.1277C75.3456 17.6127 90.7207 19.4715 93.4249 60.6203C94.8192 81.8355 97.892 118.941 62.444 119.874C26.9961 120.807 23.924 83.7008 22.529 62.4857Z" fill="#F8BC91"/>
<path d="M84.0947 26.7124C77.2215 18.3146 67.2133 17.8266 55.7653 18.1277C44.5709 18.4223 34.4872 20.2972 28.3672 28.7653C29.4618 35.0619 38.7 39.9488 47.0634 40.321C56.8848 40.7577 71.4407 39.3399 84.0947 26.7124Z" fill="#D19066"/>
<path d="M93.6804 64.5569C93.6042 62.6754 93.4995 60.8532 93.3837 59.1249C90.716 19.393 75.3432 17.6119 55.7656 18.1269C36.1879 18.642 20.0026 23.9788 22.487 60.9902C22.8175 65.913 23.0717 71.5656 23.7575 77.2994C26.4698 97.483 34.379 120.611 62.4417 119.873C95.7854 118.996 95.0461 86.1149 93.6804 64.5569ZM91.9704 71.23C90.3307 88.3495 81.9255 87.8205 79.8286 87.4139C79.4425 87.3392 79.0534 87.3055 78.66 87.315L49.6939 87.9759C48.7305 87.9979 47.7927 88.2858 46.964 88.7789C39.304 93.3375 32.962 88.266 29.1558 83.5689C23.5728 75.1249 27.2567 56.8016 27.2567 56.8016C30.4643 45.8892 38.131 34.124 55.9919 30.8578C88.0872 24.9884 91.7997 57.3503 91.996 70.5948C91.9997 70.8087 91.9909 71.019 91.9704 71.23Z" fill="#AA551B"/>
<path d="M63.3324 118.182C35.2705 118.92 27.3613 95.7914 24.6483 75.6078C23.9625 69.8739 23.7082 64.2214 23.3778 59.2986C22.5067 46.3238 23.9324 37.246 26.9921 30.8997C23.3251 37.2907 21.5351 46.8161 22.4869 60.9911C22.8173 65.9139 23.0716 71.5664 23.7573 77.3003C26.4697 97.4838 34.3796 120.612 62.4415 119.874C76.9102 119.493 84.9593 113.085 89.326 104.191C84.7849 112.196 76.867 117.826 63.3324 118.182Z" fill="#632B0B"/>
<path d="M52.2633 69.0503C52.3446 72.1495 50.54 74.7109 48.2321 74.7717C45.9242 74.8325 43.987 72.3693 43.905 69.2701C43.8237 66.1709 45.6282 63.6095 47.9369 63.5487C50.244 63.4879 52.1812 65.9511 52.2633 69.0503Z" fill="#D19066"/>
<path d="M52.2281 67.7388C52.3094 70.838 50.5049 73.3994 48.1962 73.461C45.8883 73.5218 43.9512 71.0585 43.8698 67.9594C43.7885 64.8602 45.5931 62.2988 47.901 62.2379C50.2089 62.1764 52.146 64.6404 52.2281 67.7388Z" fill="#1E1C3C"/>
<path d="M50.7368 65.5417C50.761 66.4678 50.0305 67.2378 49.1044 67.2627C48.1783 67.2869 47.4076 66.5564 47.3834 65.6296C47.3592 64.7035 48.0897 63.9327 49.0165 63.9085C49.9419 63.8844 50.7126 64.6156 50.7368 65.5417Z" fill="white"/>
<path d="M81.5921 65.387C81.6734 68.4862 79.8689 71.0476 77.5603 71.1084C75.2524 71.1692 73.3152 68.706 73.2331 65.6068C73.1518 62.5076 74.9563 59.9462 77.265 59.8854C79.5736 59.8246 81.5108 62.2878 81.5921 65.387Z" fill="#D19066"/>
<path d="M81.5555 64.0755C81.6369 67.1747 79.8323 69.7368 77.5244 69.7969C75.2165 69.8577 73.2793 67.3944 73.198 64.2953C73.1166 61.1961 74.9212 58.6347 77.2291 58.5739C79.537 58.513 81.4742 60.9763 81.5555 64.0755Z" fill="#1E1C3C"/>
<path d="M80.0618 61.8781C80.086 62.8042 79.3555 63.5742 78.4287 63.5991C77.5026 63.6233 76.7318 62.8928 76.7076 61.966C76.6834 61.0399 77.4139 60.2691 78.3407 60.245C79.2668 60.2208 80.0369 60.952 80.0618 61.8781Z" fill="white"/>
<path d="M66.349 68.7258C64.1634 68.5045 62.4937 59.9697 61.9881 55.7385L58.7109 55.9583C58.804 60.9896 59.8011 77.7662 62.0138 79.5554C68.525 84.8218 77.1046 69.8167 66.349 68.7258Z" fill="#EC6E24"/>
<path d="M34.7617 52.7371C34.7617 52.7371 37.9818 57.6313 44.4051 56.4422C51.4629 55.1358 50.8189 45.4558 50.8189 45.4558C50.8189 45.4558 49.1696 58.5933 34.7617 52.7371Z" fill="#D19066"/>
<path d="M33.6907 50.1602C33.9815 50.0554 34.3178 50.092 34.5867 50.2876C38.0031 52.7773 41.0093 53.5861 43.5201 52.693C43.5275 52.6901 43.5355 52.6871 43.5428 52.6849C47.8817 51.1214 49.5515 44.9458 49.5676 44.8835C49.7031 44.3684 50.2292 44.06 50.745 44.1955C51.2601 44.3303 51.5685 44.8564 51.4344 45.3714C51.3575 45.666 49.4973 52.5897 44.1979 54.4998C44.1905 54.5027 44.1832 54.5049 44.1759 54.5078C41.0261 55.6325 37.4177 54.7379 33.4511 51.8475C33.021 51.5339 32.9257 50.9309 33.2401 50.5001C33.3573 50.3375 33.5156 50.2232 33.6907 50.1602Z" fill="#964D15"/>
<path d="M82.9633 47.9203C82.9633 47.9203 80.725 53.3348 74.1925 53.3794C67.0146 53.4285 65.8203 43.8013 65.8203 43.8013C65.8203 43.8013 69.9203 56.3907 82.9633 47.9203Z" fill="#D19066"/>
<path d="M83.5277 45.1866C83.2221 45.1383 82.8991 45.2379 82.6719 45.4812C79.7867 48.5708 76.9879 49.9329 74.3532 49.5292C74.3452 49.5277 74.3371 49.5262 74.3297 49.5255C69.7733 48.809 66.9679 43.0597 66.9401 43.0018C66.71 42.5219 66.1348 42.3182 65.6542 42.5483C65.1743 42.7776 64.9707 43.3528 65.1992 43.8327C65.3304 44.1074 68.464 50.5556 74.0294 51.4312C74.0374 51.4326 74.044 51.4334 74.0521 51.4348C77.3579 51.9448 80.7318 50.3849 84.0816 46.7978C84.445 46.4087 84.4245 45.7984 84.0347 45.435C83.8889 45.298 83.7116 45.2159 83.5277 45.1866Z" fill="#964D15"/>
<path d="M35.3984 93.8154C35.3984 93.8154 48.7872 100.115 66.0496 92.3193C66.0496 92.3193 80.8048 98.0722 90.0606 91.3434C90.0606 91.3434 81.8657 77.6073 65.4657 84.3552C65.4657 84.3552 47.8384 77.4549 35.3984 93.8154Z" fill="#632B0B"/>
<path d="M66.8706 96.2192C71.9443 96.2192 75.7777 97.8509 76.04 97.9652C76.4627 98.1498 76.6554 98.6414 76.4707 99.0642C76.2868 99.4869 75.7945 99.6789 75.3717 99.4972C75.2736 99.4532 65.3657 95.2624 56.644 100.747C56.2535 100.994 55.7384 100.875 55.4915 100.486C55.2461 100.094 55.3633 99.5785 55.7546 99.3331C59.5491 96.9453 63.4857 96.2192 66.8706 96.2192Z" fill="#632B0B"/>
<path d="M18.1663 151.653C17.6065 151.653 17.06 151.372 16.7435 150.861C15.2437 148.438 14.0092 147.523 13.9967 147.514C13.2567 146.975 13.0808 145.935 13.612 145.189C14.1439 144.442 15.1682 144.258 15.9192 144.78C16.0973 144.904 17.7121 146.075 19.5855 149.102C20.0712 149.887 19.8287 150.917 19.044 151.403C18.7707 151.572 18.4667 151.653 18.1663 151.653Z" fill="#8FB3CE"/>
<path d="M23.1282 166.456C22.3208 166.456 21.6101 165.869 21.4797 165.046C21.0555 162.379 20.4781 159.89 19.763 157.646C19.4824 156.766 19.9689 155.826 20.8481 155.546C21.7273 155.267 22.6673 155.752 22.9479 156.631C23.7136 159.035 24.3305 161.689 24.7803 164.522C24.9254 165.433 24.3034 166.29 23.3919 166.435C23.3033 166.449 23.2154 166.456 23.1282 166.456Z" fill="#8FB3CE"/>
<path d="M24.0606 179.287C23.1374 179.287 22.3894 178.539 22.3894 177.616C22.3894 175.937 22.3476 174.279 22.2641 172.69C22.2157 171.768 22.9242 170.982 23.8459 170.934C24.7617 170.887 25.5545 171.594 25.6021 172.516C25.6885 174.163 25.7325 175.879 25.7325 177.616C25.7318 178.538 24.9837 179.287 24.0606 179.287Z" fill="#8FB3CE"/>
<path d="M99.2477 149.02C98.8967 149.02 98.5436 148.911 98.2417 148.683C97.5054 148.126 97.3596 147.078 97.9164 146.342C100.008 143.574 101.718 142.495 101.905 142.382C102.696 141.903 103.724 142.157 104.201 142.946C104.676 143.732 104.428 144.753 103.647 145.235C103.598 145.266 102.261 146.137 100.583 148.357C100.254 148.792 99.7547 149.02 99.2477 149.02Z" fill="#8FB3CE"/>
<path d="M92.7196 165.427C92.62 165.427 92.5181 165.418 92.4163 165.399C91.5085 165.232 90.9077 164.36 91.0748 163.453C91.6624 160.251 92.4771 157.266 93.4933 154.582C93.8208 153.718 94.7886 153.286 95.6488 153.611C96.5111 153.938 96.9463 154.903 96.6188 155.766C95.673 158.262 94.9139 161.052 94.3615 164.056C94.2142 164.862 93.5109 165.427 92.7196 165.427Z" fill="#8FB3CE"/>
<path d="M91.5579 179.287C90.6348 179.287 89.8867 178.539 89.8867 177.616C89.8867 175.879 89.9329 174.161 90.0245 172.511C90.0758 171.59 90.8715 170.881 91.7858 170.935C92.7075 170.986 93.4138 171.774 93.3625 172.696C93.2746 174.285 93.2292 175.94 93.2292 177.616C93.2292 178.538 92.4811 179.287 91.5579 179.287Z" fill="#8FB3CE"/>
<path d="M32.7782 22.7033C32.7782 22.7033 38.8014 8.8771 58.4963 7.97005C71.8111 7.35681 81.7109 10.4296 85.287 2.20688C88.8632 -6.01586 101.718 10.4282 88.8917 23.7678C76.0657 37.1075 61.1222 38.5824 51.1036 38.1362C41.0859 37.6907 29.8021 30.7685 32.7782 22.7033Z" fill="#723710"/>
<path d="M84.0947 26.7124C77.2215 18.3146 67.2133 17.8266 55.7653 18.1277C44.5709 18.4223 34.4872 20.2972 28.3672 28.7653C29.0962 32.9606 33.438 36.5294 38.7315 38.5545C43.0279 34.9864 48.646 32.203 55.9925 30.86C64.5244 29.2995 71.0444 30.4475 76.0317 33.2141C78.7623 31.4755 81.4688 29.3332 84.0947 26.7124Z" fill="#723710"/>
<path d="M89.6751 0.47915C88.5886 -0.125301 87.4896 -0.17732 86.5781 0.47915C87.6486 0.495269 88.6787 0.497467 89.6751 0.47915Z" fill="#632B0B"/>
<path d="M39.3612 18.6748C39.3612 18.6748 40.8712 15.2247 44.7324 11.3181C35.8429 15.6819 32.7782 22.703 32.7782 22.703C29.8021 30.7683 41.0859 37.6905 51.1036 38.1367C54.0834 38.2693 57.5013 38.2283 61.1668 37.7594C48.9833 36.8362 35.7609 28.4318 39.3612 18.6748Z" fill="#632B0B"/>
<g clip-path="url(#clip0_107_13493)">
<path d="M65.9234 171.728C65.7529 172.169 65.5994 172.571 65.4411 172.971C64.9685 174.175 64.4306 175.346 63.605 176.355C63.1239 176.943 62.5872 177.49 61.8124 177.664C60.7294 177.907 59.5932 177.522 59.2632 176.379C59.0275 175.564 59.4276 174.559 60.1238 174.239C60.374 174.124 60.6303 174.09 60.8926 174.19C60.9917 174.229 61.0642 174.298 61.0763 174.41C61.0872 174.506 61.0473 174.587 60.9639 174.623C60.4284 174.858 60.3873 175.348 60.3426 175.831C60.316 176.111 60.403 176.358 60.5783 176.589C60.8938 177.007 61.6444 176.925 62.0179 176.708C62.6622 176.334 63.0937 175.759 63.5047 175.16C64.4028 173.846 64.9781 172.379 65.5523 170.91C65.6853 170.57 65.8231 170.232 65.9355 169.885C66.0648 169.488 65.8811 169.114 65.5281 168.987C65.3166 168.911 65.1232 168.995 64.9407 169.068C64.0982 169.405 62.9209 170.773 63.0852 171.881C63.1058 172.016 63.13 172.139 63.2279 172.238C63.3294 172.34 63.3814 172.453 63.3052 172.595C63.2218 172.75 63.0768 172.741 62.9378 172.721C62.3455 172.635 61.9273 172.001 62.0373 171.355C62.1436 170.735 62.4132 170.187 62.8084 169.705C63.4031 168.977 64.1236 168.424 65.0676 168.241C65.6562 168.127 66.2207 168.177 66.6329 168.698C66.9073 169.044 66.9665 169.461 67.0028 169.88C67.1019 171.014 67.0028 172.143 66.9194 173.272C66.8771 173.844 66.8505 174.418 66.8227 174.991C66.8179 175.086 66.7913 175.191 66.8662 175.295C66.9992 175.209 67.056 175.074 67.1261 174.95C67.4947 174.293 67.8453 173.626 68.2333 172.982C68.9017 171.871 69.5375 170.741 70.2628 169.665C70.484 169.337 70.7209 169.018 70.9663 168.709C71.3241 168.258 71.7846 168.138 72.2451 168.357C72.5425 168.498 72.6065 168.624 72.4869 168.931C72.2367 169.575 71.955 170.208 71.7193 170.857C71.1693 172.37 70.6774 173.9 70.513 175.513C70.49 175.736 70.4912 175.964 70.5069 176.187C70.5347 176.578 70.8043 176.709 71.1439 176.505C71.2503 176.441 71.347 176.361 71.4425 176.283C71.5307 176.21 71.6226 176.138 71.7326 176.217C71.8438 176.297 71.7955 176.415 71.7628 176.517C71.6009 177.031 70.8901 177.494 70.3728 177.426C69.6874 177.336 69.3175 176.927 69.2909 176.217C69.2716 175.703 69.3502 175.196 69.4517 174.692C69.7188 173.372 70.1649 172.104 70.5807 170.826C70.5988 170.771 70.6447 170.716 70.5964 170.633C70.206 171.165 69.8687 171.72 69.5279 172.272C68.6503 173.695 67.9202 175.197 67.0922 176.647C67.0125 176.787 66.9327 176.933 66.8046 177.039C66.4649 177.32 66.0322 177.175 65.9524 176.742C65.8641 176.259 65.8593 175.768 65.9052 175.28C66.0152 174.132 65.9729 172.983 65.9717 171.835C65.9741 171.818 65.9572 171.798 65.9234 171.728Z" fill="white"/>
<path d="M47.7662 172.314C47.342 172.306 46.9274 172.25 46.549 172.045C46.3762 171.952 46.2251 171.827 46.1308 171.65C46.0377 171.476 46.051 171.3 46.1779 171.148C46.2867 171.017 46.433 170.972 46.5974 171.037C47.3383 171.331 48.095 171.262 48.8468 171.112C50.1535 170.852 51.3985 170.378 52.6689 169.996C54.1798 169.542 55.7029 169.135 57.2718 168.931C58.0889 168.825 58.9097 168.75 59.7304 168.903C60.1244 168.977 60.4943 169.117 60.8122 169.368C61.0818 169.58 61.2486 169.855 61.222 170.211C61.2087 170.399 61.141 170.564 60.9307 170.614C60.73 170.66 60.6104 170.556 60.5173 170.391C60.2248 169.876 59.7111 169.788 59.1949 169.751C58.4068 169.693 57.6308 169.829 56.8572 169.961C54.812 170.309 52.8538 170.969 50.8933 171.625C50.0085 171.922 49.1188 172.197 48.1832 172.284C48.0442 172.298 47.9052 172.305 47.7662 172.314Z" fill="white"/>
<path d="M76.8063 164.529C76.6867 164.432 76.5537 164.465 76.4377 164.542C76.2745 164.651 76.1488 164.802 76.0243 164.949C75.6701 165.368 75.2603 165.723 74.7998 166.017C74.4154 166.262 74.0069 166.446 73.5355 166.429C73.0616 166.412 72.7727 166.133 72.7377 165.658C72.7208 165.432 72.751 165.209 72.786 164.986C72.8163 164.794 72.8972 164.731 73.0967 164.75C74.0371 164.841 74.7696 164.42 75.3776 163.758C75.7342 163.37 75.9288 162.897 75.9167 162.356C75.9034 161.784 75.5323 161.413 74.963 161.395C74.6318 161.384 74.3429 161.515 74.0504 161.64C73.8316 161.824 73.5935 161.986 73.4037 162.202C72.9577 162.712 72.5806 163.264 72.311 163.889C72.1877 164.175 72.0197 164.433 71.813 164.668C71.4794 165.213 71.0974 165.719 70.6175 166.146C70.5607 166.197 70.4906 166.239 70.4205 166.268C70.2029 166.36 70.0519 166.267 70.0301 166.034C70.0059 165.78 70.0736 165.541 70.1534 165.304C70.4302 164.49 70.8557 163.748 71.2533 162.993C71.4008 162.711 71.5567 162.43 71.6087 162.11C71.6305 161.981 71.6051 161.856 71.4854 161.781C71.3633 161.704 71.2352 161.715 71.1095 161.785C70.9584 161.868 70.8762 162.011 70.7952 162.151C70.5934 162.501 70.406 162.86 70.1957 163.204C69.6095 164.169 68.9845 165.104 68.1626 165.889C67.8906 166.149 67.5836 166.361 67.2125 166.456C66.8426 166.55 66.5755 166.441 66.4159 166.146C66.0799 165.524 66.2467 164.547 66.7689 164.079C66.8729 163.986 66.9829 163.899 67.0844 163.804C68.5651 162.417 69.6385 160.747 70.4701 158.913C70.7239 158.355 70.9463 157.782 71.0019 157.159C71.0684 156.406 70.5934 156 69.8718 156.205C69.7605 156.237 69.653 156.285 69.5502 156.337C69.0704 156.583 68.7488 156.991 68.4454 157.417C68.0212 158.012 67.7045 158.674 67.3382 159.303C67.2983 159.404 67.2645 159.508 67.2173 159.604C66.6033 160.875 66.121 162.192 65.8007 163.569C65.7185 163.921 65.7016 164.297 65.484 164.61C65.2132 164.999 64.9256 165.376 64.6065 165.727C64.4131 165.939 64.2221 166.158 63.9598 166.29C63.6806 166.43 63.4944 166.304 63.5174 165.994C63.5367 165.736 63.6105 165.489 63.7241 165.257C63.9284 164.837 64.1387 164.421 64.3466 164.004C64.4517 163.794 64.5339 163.578 64.5593 163.342C64.5944 163.011 64.4807 162.752 64.1955 162.567C64.0069 162.445 63.7942 162.406 63.5851 162.351C63.1765 162.241 63.1668 162.218 63.2756 161.82C63.2817 161.797 63.2865 161.774 63.2913 161.752C63.3349 161.554 63.3083 161.372 63.1173 161.264C62.9203 161.153 62.7256 161.191 62.5576 161.339C62.3836 161.494 62.3147 161.704 62.3086 161.925C62.2917 162.505 62.0584 163.014 61.7852 163.501C61.367 164.247 60.8726 164.946 60.3771 165.642C60.2646 165.799 60.1534 165.962 59.9987 166.082C59.8029 166.234 59.6482 166.185 59.5829 165.942C59.5551 165.839 59.5479 165.727 59.5527 165.619C59.5648 165.295 59.6748 164.995 59.8089 164.705C60.1256 164.022 60.4858 163.359 60.7796 162.664C60.846 162.505 60.9101 162.346 60.9174 162.173C60.9234 162.027 60.8884 161.89 60.7409 161.82C60.6007 161.755 60.4665 161.784 60.348 161.878C60.2429 161.961 60.1667 162.068 60.1051 162.186C60.0749 162.246 60.064 162.341 59.9806 162.336C59.896 162.331 59.9008 162.233 59.8742 162.172C59.6518 161.66 59.2142 161.454 58.6764 161.613C58.2787 161.731 57.9571 161.97 57.6538 162.243C57.3637 162.505 57.157 162.839 56.9019 163.13C56.7835 163.339 56.6602 163.545 56.5478 163.758C56.2286 164.362 55.8841 164.951 55.4671 165.493C55.2218 165.814 54.9776 166.136 54.6125 166.336C54.511 166.392 54.4022 166.457 54.2862 166.373C54.1689 166.289 54.204 166.165 54.227 166.052C54.3237 165.571 54.5013 165.115 54.6802 164.661C54.8555 164.213 55.0465 163.77 55.1057 163.286C55.1649 162.794 55.0537 162.574 54.6488 162.382C54.152 162.357 53.7749 162.605 53.4256 162.918C52.745 163.527 52.2108 164.265 51.6149 164.948C51.558 165.014 51.5182 165.102 51.3779 165.132C51.5532 164.661 51.6874 164.238 52.0693 163.893C53.2515 162.829 54.2475 161.599 55.1456 160.289C55.5675 159.672 55.9506 159.034 56.1912 158.321C56.2903 158.025 56.3701 157.726 56.3036 157.408C56.2371 157.095 56.0655 156.917 55.75 156.857C55.4043 156.79 55.1057 156.926 54.8301 157.105C54.4542 157.349 54.1653 157.686 53.9127 158.054C53.2866 158.964 52.7583 159.93 52.2966 160.933C52.0887 161.384 51.8856 161.836 51.6801 162.288C51.4795 162.817 51.2776 163.347 51.0806 163.877C50.9984 164.099 50.8751 164.293 50.7204 164.471C50.1523 165.121 49.5431 165.73 48.8903 166.294C48.3114 166.793 47.6889 167.227 46.9479 167.462C45.7609 167.841 44.7576 167.34 44.3648 166.158C44.1654 165.557 44.1339 164.937 44.2439 164.317C44.58 162.423 45.3886 160.732 46.4982 159.177C47.0833 158.356 47.7602 157.621 48.6377 157.097C48.9423 156.916 49.2699 156.797 49.6325 156.824C49.867 156.842 50.0725 156.919 50.1849 157.149C50.2502 157.21 50.2816 157.29 50.3082 157.369C50.4847 157.905 50.3952 158.421 50.1873 158.928C50.035 159.404 49.7884 159.815 49.3811 160.122C49.1611 160.289 49.1128 160.48 49.2046 160.693C49.2977 160.912 49.4923 161.009 49.7619 160.967C50.0024 160.929 50.1958 160.797 50.3638 160.633C51.1205 159.892 51.4493 158.967 51.4843 157.929C51.5012 157.435 51.3792 156.972 51.0431 156.59C50.5765 156.059 49.9601 155.969 49.3025 156.002C48.7888 156.029 48.3174 156.201 47.8569 156.413C47.1655 156.841 46.5442 157.354 46.0075 157.964C44.806 159.33 43.9647 160.894 43.4099 162.614C43.0557 163.713 42.872 164.833 43.1017 165.988C43.4208 167.598 44.6464 168.568 46.2807 168.49C46.9636 168.457 47.5813 168.205 48.1506 167.836C48.8589 167.378 49.4705 166.805 50.0616 166.207C50.1209 166.146 50.1668 166.057 50.2719 166.052C50.2961 166.138 50.2586 166.201 50.2381 166.266C50.1559 166.533 50.0604 166.796 49.9939 167.067C49.9528 167.235 49.9964 167.401 50.1789 167.475C50.3493 167.545 50.5028 167.491 50.6189 167.355C50.6938 167.267 50.7542 167.165 50.8171 167.068C51.529 165.961 52.3377 164.929 53.2648 163.995C53.5138 163.743 53.758 163.475 54.0855 163.313C54.146 163.283 54.2161 163.238 54.2801 163.295C54.3357 163.344 54.3031 163.413 54.2862 163.47C54.2112 163.723 54.1375 163.976 54.0505 164.225C53.8631 164.761 53.6504 165.287 53.5223 165.842C53.4546 166.132 53.4195 166.423 53.5138 166.715C53.6395 167.108 54.0263 167.311 54.4191 167.188C54.5678 167.141 54.7044 167.067 54.8325 166.977C55.1057 166.782 55.3475 166.552 55.5638 166.296C55.5965 166.257 55.6255 166.192 55.6895 166.209C55.7536 166.226 55.7488 166.295 55.7548 166.346C55.8588 167.129 56.5949 167.462 57.3201 167.061C57.777 166.809 58.1385 166.45 58.4769 166.06C58.576 165.947 58.6679 165.826 58.7924 165.674C58.8141 165.901 58.8238 166.076 58.848 166.25C58.935 166.868 59.4645 167.139 60.0181 166.852C60.1921 166.761 60.342 166.638 60.481 166.503C61.4021 165.607 62.0633 164.534 62.5939 163.374C62.8006 162.924 62.7921 162.92 63.2551 163.099C63.6576 163.254 63.7289 163.393 63.5718 163.792C63.4074 164.211 63.2176 164.62 63.0448 165.035C62.8707 165.454 62.7256 165.877 62.751 166.342C62.7825 166.909 63.1644 167.205 63.7168 167.065C64.0794 166.973 64.3828 166.77 64.6536 166.52C64.9159 166.277 65.1661 166.022 65.3897 165.742C65.4224 165.701 65.455 165.64 65.5154 165.652C65.594 165.667 65.5819 165.75 65.5868 165.806C65.6085 166.033 65.6508 166.251 65.7342 166.464C65.9385 166.986 66.3483 167.256 66.9091 167.238C67.2717 167.226 67.5848 167.073 67.8834 166.886C68.3681 166.581 68.773 166.186 69.1453 165.756C69.1864 165.709 69.2118 165.625 69.3266 165.654C69.2964 165.935 69.2541 166.22 69.3387 166.502C69.4874 166.993 69.9539 167.213 70.4266 167.012C70.7396 166.877 70.9995 166.67 71.2219 166.417C71.4274 166.184 71.6244 165.944 71.8263 165.707C71.8565 165.672 71.8819 165.625 71.9363 165.637C71.9822 165.647 71.9834 165.694 71.9858 165.733C72.0124 166.162 72.1962 166.523 72.4669 166.846C72.6446 166.956 72.8138 167.078 73.023 167.131C73.5101 167.253 73.9791 167.205 74.4299 166.99C75.3462 166.553 76.0726 165.883 76.7193 165.118C76.7785 165.047 76.8184 164.96 76.8547 164.875C76.9066 164.751 76.9187 164.622 76.8063 164.529ZM73.1813 163.92C73.4557 163.385 73.7724 162.883 74.222 162.475C74.3139 162.392 74.4227 162.33 74.5423 162.289C74.8772 162.177 75.0754 162.319 75.0742 162.708C75.0573 163.099 74.8469 163.418 74.5206 163.674C74.1737 163.947 73.776 164.08 73.3372 164.095C73.2236 164.097 73.0894 164.099 73.1813 163.92ZM66.6069 163.318C66.6686 162.996 66.7508 162.681 66.8632 162.374C67.4567 160.765 68.1493 159.207 69.184 157.822C69.375 157.565 69.5841 157.325 69.8548 157.148C69.9406 157.093 70.0313 157.032 70.1353 157.088C70.244 157.146 70.2199 157.261 70.2307 157.372C70.1655 157.835 69.995 158.278 69.8053 158.711C69.1405 160.226 68.3306 161.656 67.2548 162.921C67.1037 163.099 66.9418 163.267 66.7508 163.404C66.7145 163.429 66.6746 163.474 66.6275 163.443C66.5815 163.417 66.5973 163.362 66.6069 163.318ZM52.6931 161.807C53.2285 160.633 53.8402 159.503 54.586 158.448C54.7346 158.239 54.9123 158.052 55.1202 157.9C55.2145 157.831 55.3245 157.761 55.4417 157.835C55.5711 157.917 55.5445 158.055 55.5094 158.173C55.3523 158.704 55.1214 159.206 54.8301 159.675C54.1617 160.752 53.3869 161.749 52.5142 162.669C52.4719 162.713 52.4247 162.754 52.3776 162.794C52.3679 162.803 52.3498 162.803 52.2857 162.818C52.3957 162.449 52.5468 162.128 52.6931 161.807ZM59.039 164.08C58.6969 164.682 58.3186 165.261 57.8629 165.785C57.6683 166.008 57.4398 166.196 57.1763 166.337C57.0143 166.423 56.8366 166.5 56.6723 166.381C56.5115 166.263 56.5212 166.066 56.5393 165.887C56.5852 165.457 56.7303 165.055 56.9176 164.669C57.2488 163.987 57.6525 163.354 58.1989 162.821C58.3452 162.678 58.5059 162.557 58.6909 162.472C59.1236 162.271 59.433 162.469 59.4403 162.988C59.3956 163.356 59.2396 163.727 59.039 164.08Z" fill="white"/>
<path d="M71.3757 160.296C71.389 159.99 71.5063 159.739 71.7831 159.587C72.1143 159.406 72.4684 159.561 72.5627 159.928C72.6486 160.266 72.547 160.558 72.3029 160.795C72.136 160.957 71.9257 161.032 71.7009 160.921C71.4495 160.794 71.3661 160.567 71.3757 160.296Z" fill="white"/>
</g>
<defs>
<clipPath id="clip0_107_13493">
<rect width="33.8932" height="21.7332" fill="white" transform="translate(43 156)"/>
</clipPath>
</defs>
</svg>
