<svg width="333" height="264" viewBox="0 0 333 264" fill="none" xmlns="http://www.w3.org/2000/svg">
<g clip-path="url(#clip0_1305_51834)">
<path fill-rule="evenodd" clip-rule="evenodd" d="M179.464 10.4898C205.42 15.2344 211.198 50.9432 231.09 68.2435C246.951 82.0387 269.467 85.3523 283.514 100.984C301.182 120.644 326.127 142.775 321.419 168.761C316.676 194.942 281.103 201.192 261.996 219.751C245.051 236.211 238.823 266.604 215.682 271.468C192.333 276.375 175.328 245.802 151.64 242.945C120.17 239.151 86.5438 268.174 58.9707 252.571C32.5714 237.633 27.0652 200.827 23.9726 170.702C20.9543 141.302 24.4398 109.603 41.8378 85.6842C58.2327 63.1446 89.5774 60.2275 114.059 46.8513C136.402 34.6439 154.408 5.90976 179.464 10.4898Z" fill="#EBEBEB"/>
<path d="M42.8027 101.34C43.3557 101.34 43.8754 101.41 44.3691 101.545V101.546C44.8379 101.675 45.2478 101.886 45.6025 102.174V102.175C45.9422 102.453 46.2224 102.822 46.4336 103.296V103.297C46.6372 103.757 46.749 104.343 46.749 105.077C46.749 105.773 46.6387 106.34 46.4355 106.791C46.2234 107.262 45.9442 107.639 45.5957 107.936C45.2397 108.239 44.8194 108.464 44.3643 108.595L44.3594 108.596C43.872 108.741 43.3562 108.812 42.8027 108.812C42.2137 108.812 41.67 108.74 41.166 108.595L41.1631 108.594C40.6727 108.455 40.2565 108.235 39.9092 107.937C39.5646 107.641 39.2894 107.266 39.084 106.798H39.085C38.889 106.344 38.7812 105.774 38.7812 105.077C38.7813 104.342 38.8895 103.753 39.0859 103.29L39.085 103.289C39.2865 102.818 39.559 102.452 39.8984 102.176L39.9004 102.175C40.2468 101.891 40.664 101.681 41.1582 101.547L41.1572 101.546C41.6635 101.411 42.2107 101.34 42.8027 101.34ZM43.7217 72.1914C45.4183 72.1914 46.9351 72.392 48.2764 72.7832H48.2773C49.4536 73.1256 50.4583 73.6037 51.3027 74.208L51.6543 74.4746C52.5651 75.2078 53.2588 76.0941 53.748 77.1357V77.1367C54.2309 78.1719 54.4795 79.3697 54.4795 80.7373C54.4795 81.7481 54.365 82.6345 54.1416 83.3994C53.9163 84.1708 53.5832 84.8901 53.1455 85.5557C52.7004 86.2241 52.1394 86.8774 51.459 87.5107C50.7677 88.1542 49.9569 88.8356 49.0312 89.5586C48.3093 90.1114 47.7182 90.5976 47.2529 91.0156C46.7795 91.441 46.4001 91.8562 46.1172 92.2598L46.1162 92.2617C45.8294 92.6745 45.627 93.105 45.5156 93.5625C45.4084 94.003 45.3604 94.5062 45.3604 95.0645V96.0605H39.624V94.7119C39.624 93.8987 39.7083 93.1763 39.873 92.5322L39.874 92.5332C40.0428 91.8892 40.296 91.2735 40.6377 90.6875L40.6387 90.6885C40.9789 90.1081 41.4244 89.5353 41.9805 88.9678C42.5388 88.4011 43.22 87.8044 44.0225 87.1846C44.7436 86.6324 45.3559 86.1355 45.8613 85.6943L45.8623 85.6934C46.3758 85.2422 46.8034 84.7857 47.1348 84.3301V84.3291C47.4741 83.8604 47.7211 83.3678 47.876 82.8457L47.877 82.8428C48.0273 82.3236 48.0996 81.7339 48.0996 81.083C48.0996 80.008 47.7199 79.0919 46.957 78.377C46.1714 77.6407 45.0272 77.3193 43.6162 77.3193C42.3734 77.3193 41.0529 77.5734 39.6553 78.0723H39.6543C38.4273 78.5113 37.1619 79.035 35.8633 79.6465L33.6768 75.0186C34.2778 74.6936 34.921 74.3811 35.6094 74.0811C36.4513 73.714 37.3272 73.3901 38.2402 73.1035C39.143 72.8202 40.0644 72.5963 40.998 72.4336C41.9261 72.2717 42.8333 72.1914 43.7217 72.1914Z" stroke="#9F9F9F"/>
<path d="M45.9727 248.579C46.4398 248.579 46.8785 248.641 47.2949 248.757V248.756C47.6858 248.867 48.027 249.048 48.3232 249.293V249.294C48.5705 249.502 48.7811 249.77 48.9492 250.109L49.0186 250.258C49.189 250.653 49.2842 251.16 49.2842 251.799C49.2842 252.405 49.1898 252.895 49.0195 253.283C48.8406 253.69 48.6068 254.013 48.3164 254.266C48.0188 254.526 47.6681 254.718 47.2891 254.83L47.2842 254.832C46.8745 254.956 46.4399 255.018 45.9727 255.018C45.475 255.018 45.0173 254.956 44.5938 254.831L44.5908 254.83L44.4395 254.782C44.0946 254.663 43.7973 254.49 43.5439 254.267C43.2926 254.046 43.084 253.772 42.9199 253.436L42.8525 253.288C42.6887 252.898 42.5977 252.406 42.5977 251.799C42.5977 251.159 42.6897 250.649 42.8545 250.25C43.0244 249.843 43.2525 249.53 43.5342 249.295L43.5352 249.294C43.8237 249.052 44.1713 248.871 44.585 248.756C45.0113 248.64 45.4725 248.579 45.9727 248.579ZM46.7607 222.985C48.2085 222.985 49.5005 223.161 50.6416 223.501H50.6426C51.7857 223.842 52.7365 224.337 53.5107 224.972V224.971C54.2841 225.609 54.873 226.381 55.2891 227.289C55.6989 228.189 55.9101 229.233 55.9102 230.427C55.9102 231.311 55.813 232.085 55.623 232.751C55.4311 233.425 55.147 234.051 54.7744 234.631C54.396 235.213 53.9191 235.782 53.3398 236.334C52.8963 236.757 52.3947 237.199 51.8369 237.662L51.2637 238.128C50.6441 238.614 50.1358 239.042 49.7354 239.411C49.3267 239.787 48.9986 240.156 48.7529 240.515L48.751 240.516C48.5015 240.884 48.3256 241.269 48.2285 241.677C48.1354 242.069 48.0947 242.515 48.0947 243.007V243.821H43.3203V242.699C43.3203 241.987 43.3929 241.356 43.5332 240.794L43.5322 240.793C43.6757 240.234 43.892 239.7 44.1816 239.191L44.1826 239.192C44.4716 238.687 44.8496 238.187 45.3232 237.692L45.3242 237.693C45.8005 237.198 46.3811 236.674 47.0674 236.131C47.6858 235.646 48.2122 235.21 48.6465 234.822L48.6475 234.821C49.0905 234.422 49.4599 234.018 49.7471 233.614L49.748 233.613C50.0426 233.196 50.2561 232.758 50.3906 232.293L50.3916 232.291C50.5221 231.829 50.585 231.306 50.585 230.731C50.5849 229.775 50.2552 228.956 49.5879 228.315C48.8962 227.651 47.8923 227.365 46.6709 227.365C45.5943 227.365 44.4526 227.59 43.248 228.031L43.2471 228.032C42.2154 228.41 41.1536 228.862 40.0635 229.385L38.2383 225.43C38.7374 225.156 39.2712 224.892 39.8408 224.637C40.5595 224.316 41.3071 224.033 42.0869 223.782C42.8574 223.534 43.6446 223.339 44.4414 223.197C45.2324 223.055 46.0045 222.985 46.7607 222.985Z" stroke="#9F9F9F"/>
<path d="M257.859 247.339C258.382 247.339 258.873 247.409 259.34 247.543C259.78 247.671 260.166 247.88 260.502 248.166V248.167C260.823 248.443 261.09 248.812 261.292 249.288V249.289C261.487 249.751 261.594 250.34 261.594 251.077C261.594 251.775 261.488 252.345 261.294 252.798C261.091 253.271 260.825 253.648 260.495 253.943C260.158 254.245 259.762 254.467 259.334 254.596L259.329 254.597C258.869 254.741 258.382 254.812 257.859 254.812C257.302 254.812 256.789 254.74 256.313 254.596L256.312 254.595L256.142 254.541C255.753 254.403 255.417 254.203 255.129 253.944C254.843 253.686 254.606 253.366 254.42 252.975L254.343 252.803C254.156 252.347 254.053 251.775 254.053 251.077C254.053 250.34 254.157 249.748 254.345 249.283C254.538 248.808 254.797 248.442 255.118 248.167L255.12 248.167C255.447 247.886 255.839 247.677 256.303 247.544L256.304 247.545C256.782 247.411 257.299 247.339 257.859 247.339ZM258.734 218.191C260.347 218.191 261.787 218.391 263.06 218.781H263.061C264.177 219.122 265.13 219.598 265.932 220.201L266.266 220.466C267.131 221.198 267.792 222.084 268.259 223.128C268.719 224.166 268.956 225.366 268.956 226.737C268.956 227.749 268.847 228.638 268.634 229.405C268.419 230.178 268.101 230.899 267.684 231.565C267.26 232.233 266.726 232.886 266.079 233.519C265.585 234.002 265.026 234.506 264.405 235.034L263.768 235.566C263.08 236.119 262.516 236.605 262.072 237.023C261.621 237.449 261.26 237.865 260.99 238.269L260.989 238.271C260.716 238.684 260.524 239.113 260.419 239.568C260.317 240.006 260.271 240.507 260.271 241.064V242.06H254.856V240.711C254.856 239.896 254.936 239.172 255.094 238.526L255.095 238.527C255.256 237.881 255.498 237.265 255.823 236.678L255.824 236.679C256.149 236.098 256.572 235.525 257.102 234.958L257.103 234.958C257.634 234.392 258.281 233.795 259.044 233.176L259.045 233.177C259.732 232.625 260.315 232.127 260.797 231.686L260.799 231.684C261.288 231.232 261.695 230.776 262.011 230.321L262.012 230.32C262.335 229.851 262.569 229.359 262.716 228.839L262.717 228.836C262.859 228.319 262.928 227.732 262.928 227.083C262.928 226.015 262.57 225.101 261.842 224.384C261.088 223.642 259.987 223.319 258.635 223.319C257.444 223.319 256.181 223.574 254.847 224.074L254.846 224.075C253.687 224.51 252.493 225.032 251.268 225.636L249.188 221.014C249.76 220.69 250.371 220.376 251.026 220.077C251.827 219.71 252.66 219.387 253.528 219.101C254.172 218.889 254.825 218.71 255.486 218.566L256.149 218.432C257.031 218.271 257.891 218.191 258.734 218.191Z" stroke="#9F9F9F"/>
<path d="M253.615 90.8174C254.011 90.8174 254.383 90.8699 254.735 90.9688V90.9678C254.981 91.0373 255.203 91.1406 255.403 91.2744L255.597 91.4189C255.83 91.6148 256.025 91.8771 256.174 92.2197V92.2207C256.316 92.5501 256.397 92.9769 256.397 93.5215C256.397 94.0363 256.317 94.4481 256.176 94.7705C256.025 95.1125 255.829 95.3822 255.588 95.5928V95.5938C255.339 95.8108 255.046 95.9713 254.729 96.0645L254.725 96.0654C254.379 96.1708 254.011 96.2236 253.615 96.2236C253.192 96.2236 252.805 96.1703 252.447 96.0645L252.444 96.0635C252.101 95.9638 251.811 95.8065 251.57 95.5947C251.331 95.3846 251.138 95.1156 250.992 94.7754C250.856 94.4505 250.778 94.0366 250.778 93.5215C250.778 92.9763 250.857 92.5468 250.994 92.2148C251.137 91.8727 251.327 91.6128 251.56 91.4189L251.562 91.417C251.801 91.2159 252.091 91.0644 252.438 90.9678C252.799 90.8691 253.19 90.8174 253.615 90.8174ZM254.294 68.7783C255.535 68.7783 256.641 68.9284 257.616 69.2197C258.593 69.5108 259.403 69.9324 260.062 70.4727V70.4736C260.719 71.0157 261.22 71.6711 261.574 72.4434C261.922 73.2084 262.104 74.0976 262.104 75.1182C262.103 75.8743 262.02 76.5337 261.858 77.0996C261.695 77.6719 261.454 78.2051 261.138 78.6982C260.815 79.1948 260.407 79.6814 259.911 80.1543C259.405 80.6373 258.81 81.1497 258.129 81.6943C257.594 82.1138 257.155 82.4837 256.809 82.8027C256.454 83.1291 256.167 83.4502 255.952 83.7646L255.95 83.7666C255.731 84.0894 255.576 84.4283 255.49 84.7891C255.408 85.1332 255.373 85.5234 255.373 85.9512V86.582H251.4V85.6846C251.4 85.0764 251.463 84.5385 251.582 84.0615L251.581 84.0605C251.703 83.5848 251.888 83.1311 252.135 82.6982L252.134 82.6973C252.379 82.2686 252.702 81.8442 253.106 81.4219C253.514 80.9982 254.012 80.55 254.601 80.084C255.134 79.6656 255.589 79.2897 255.964 78.9541L255.965 78.9521C256.349 78.6061 256.671 78.2547 256.922 77.9014L256.923 77.9004C257.181 77.5357 257.368 77.1517 257.486 76.7441L257.487 76.7412C257.602 76.3363 257.656 75.8789 257.656 75.3789C257.656 74.5385 257.366 73.814 256.776 73.248C256.163 72.659 255.277 72.4111 254.216 72.4111C253.279 72.4112 252.288 72.6078 251.245 72.9893H251.244C250.373 73.3084 249.478 73.6884 248.56 74.127L247.045 70.8438C247.457 70.6195 247.896 70.404 248.363 70.1953C248.98 69.92 249.622 69.6772 250.291 69.4619C250.952 69.2495 251.626 69.0809 252.309 68.959C252.986 68.8379 253.647 68.7783 254.294 68.7783Z" stroke="#9F9F9F"/>
<path d="M184.732 134.185L187.592 132.35L187.788 132.438C192.816 134.669 199.171 135.391 201.215 141.456C202.328 144.749 202.39 145.571 202.122 148.884L203.431 149.372C234.82 159.275 228.66 198.145 222.427 222.999C221.269 227.61 218.064 233.689 213.769 235.937C212.209 236.746 210.529 237.305 208.798 237.594L208.763 238.553C209.196 242.879 208.945 247.522 209.158 251.891C209.481 258.39 209.694 261.706 206.265 267.389L206.21 268.277C206.667 270.358 206.664 278.198 205.41 280.167C203.342 281.732 196.714 282.208 193.987 282.489C173.681 284.714 153.181 284.481 132.932 281.794C131.472 281.59 127.225 281.006 126.61 279.802C125.493 277.614 125.953 271.301 126.002 268.742L125.897 267.142C121.706 263.351 123.066 254.424 123.112 249.283C123.137 246.55 122.957 241.656 123.405 239.07L123.446 237.347C116.855 237.262 111.458 232.596 109.745 226.52C105.868 212.772 104.954 189.784 107.224 175.778C107.784 172.29 108.815 168.894 110.29 165.684C114.47 156.761 121.312 152.038 130.277 148.797C129.409 138.34 136.55 134.571 145.661 132.792C146.579 133.413 147.473 134.051 148.449 134.574L150.002 135.366C159.945 139.921 169.381 140.397 179.69 136.577C180.619 136.231 181.538 135.859 182.446 135.461L184.732 134.185Z" fill="#D4B57A"/>
<path d="M122.416 242.982C132.867 242.299 144.094 239.638 154.269 237.162C158.102 236.23 162.126 234.722 165.961 233.729C179.616 240.563 192.498 242.465 207.605 243.153C207.592 241.377 207.599 239.996 207.733 238.209C208.166 242.535 207.915 247.178 208.128 251.547C208.451 258.046 208.664 261.362 205.235 267.045L205.18 267.933C205.637 270.014 205.633 277.854 204.379 279.823C202.311 281.388 195.683 281.864 192.956 282.146C172.651 284.371 152.151 284.137 131.901 281.45C130.441 281.246 126.194 280.662 125.579 279.458C124.462 277.27 124.923 270.958 124.972 268.398L124.866 266.798C120.676 263.007 122.035 254.08 122.082 248.939C122.107 246.206 121.927 241.313 122.375 238.726C122.498 239.842 122.425 241.799 122.416 242.982Z" fill="#D4B57A"/>
<path d="M126.825 206.282C126.702 203.144 124.174 180.399 126.178 179.094C128.975 181.612 127.644 203.783 129.642 206.57C136.139 202.145 141.81 199.754 149.7 202.478C152.415 200.551 155.598 201.109 158.723 201.655C166.71 203.052 174.826 204.085 182.815 205.389C182.961 205.413 183.106 205.441 183.25 205.471C191.361 206.432 199.397 208.239 207.042 209.113C208.664 209.505 211.495 209.893 212.35 211.215L212.271 211.841C211.814 212.19 211.502 212.413 210.842 212.215C199.026 208.659 187.682 207.897 175.375 206.111C171.049 205.482 156.363 202.696 151.977 203.39C149.324 203.809 147.765 212.456 146.668 215.456C148.6 218.631 151.122 219.656 154.267 221.423C165.135 227.578 176.779 232.247 188.888 235.307C195.786 236.99 200.772 237.395 207.767 237.251L207.733 238.209C207.599 239.996 207.592 241.377 207.605 243.153C192.498 242.465 179.616 240.563 165.961 233.73C162.126 234.722 158.102 236.23 154.269 237.162C144.094 239.638 132.867 242.299 122.416 242.982C122.425 241.799 122.497 239.843 122.375 238.727L122.416 237.003C136.611 237.065 151.082 234.107 164.653 230.107C159.124 227.23 153.73 223.901 148.414 220.587C147.319 219.904 145.378 216.956 144.619 216.501C140.285 213.899 134.018 210.557 129.367 208.738C127.185 207.883 123.97 208.172 121.727 208.042C121.295 208.017 121.372 207.917 121.071 207.465L121.209 206.946C122.485 206.037 125.172 206.28 126.825 206.282Z" fill="#C8A663"/>
<path d="M129.642 206.57C136.139 202.145 141.81 199.754 149.699 202.478C147.01 206.359 146.015 209.689 145.094 214.342C140.536 212.234 136.171 209.739 131.659 207.536C130.992 207.21 130.288 206.936 129.642 206.57Z" fill="#FEBC8A"/>
<path d="M148.971 135.022C158.914 139.578 168.35 140.053 178.659 136.234C179.588 135.888 180.507 135.515 181.415 135.118C181.509 136.384 181.648 137.822 181.663 139.075C181.679 142.083 181.893 144.868 181.043 147.75C180.751 147.988 180.456 148.222 180.157 148.452C177.292 151.37 174.165 153.923 171.154 156.702C169.911 157.85 166.044 162.485 165.178 162.863L164.985 162.801C161.334 158.216 154.8 153.502 150.523 149.179C150.121 148.781 149.715 148.387 149.306 147.997C148.289 145.591 148.668 141.967 148.745 139.252L148.971 135.022Z" fill="#FEBC8A"/>
<path d="M148.971 135.022C158.915 139.578 168.351 140.053 178.66 136.234C179.589 135.888 180.508 135.515 181.416 135.118C181.51 136.384 181.648 137.822 181.664 139.075C173.778 144.671 162.634 144.823 153.671 141.83C152.43 141.415 149.785 139.378 148.746 139.252L148.971 135.022Z" fill="#F59C5F"/>
<path d="M150.523 149.178C151.388 149.578 152.26 149.96 153.139 150.324C162.878 154.289 171.099 152.241 180.157 148.452C177.292 151.369 174.165 153.922 171.154 156.702C169.911 157.85 166.045 162.485 165.178 162.863L164.985 162.8C161.334 158.215 154.8 153.501 150.523 149.178Z" fill="white"/>
<path d="M183.701 133.841L186.562 132.006L186.757 132.095C191.785 134.326 198.14 135.047 200.184 141.112C201.297 144.405 201.359 145.227 201.091 148.54C195.539 157.033 178.506 160.403 169.277 162.35C168.099 162.599 166.251 163.282 165.178 162.863C166.045 162.485 169.911 157.85 171.154 156.702C174.165 153.923 177.292 151.37 180.157 148.452C180.456 148.222 180.751 147.988 181.043 147.75C181.893 144.868 181.679 142.083 181.664 139.075C181.648 137.822 181.509 136.384 181.415 135.118L183.701 133.841Z" fill="#D4B57A"/>
<path d="M181.415 135.118L183.701 133.841C187.227 135.685 190.606 137.579 187.979 142.013C186.915 143.808 182.952 147.244 181.043 147.75C181.893 144.869 181.679 142.084 181.663 139.075C181.647 137.823 181.509 136.384 181.415 135.118Z" fill="#C8A663"/>
<path d="M205.084 189.015C208.413 189.115 212.326 189.553 212.089 193.904L212.78 195.165C215.497 197.087 215.752 197.995 214.944 201.211C214.226 201.844 214.051 201.854 213.12 202.187C213.292 206.187 210.818 208.41 207.042 209.113C199.397 208.239 191.361 206.432 183.25 205.471C183.276 205.347 183.298 205.209 183.36 205.101C187.974 197.118 193.764 191.526 202.575 189.08L205.084 189.015Z" fill="#FEBC8A"/>
<path d="M195.48 205.364C198.961 200.813 204.118 199.128 209.729 199.242C211.577 199.279 213.673 199.823 214.944 201.211C214.226 201.844 214.051 201.855 213.12 202.187C207.784 199.372 199.995 201.891 195.48 205.364Z" fill="#F59C5F"/>
<path d="M212.78 195.166C208.956 194.114 204.163 194.483 200.518 196.031C198.876 196.729 197.192 197.741 195.443 198.068L195.43 197.747C198.797 194.169 207.527 192.555 212.09 193.904L212.78 195.166Z" fill="#F59C5F"/>
<path d="M201.091 148.54L202.4 149.028C199.902 155.94 183.441 162.01 176.495 162.322C175.37 162.191 175.072 162.232 173.992 162.356C173.804 162.718 173.715 162.81 173.471 163.145C170.773 164.056 161.216 163.938 158.093 163.451C156.93 163.269 156.847 163.153 156.371 162.368C155.342 162.163 154.854 162.268 153.835 162.387L153.551 162.383C148.951 162.286 127.086 154.931 129.503 148.993C131.09 150.265 132.074 151.561 133.853 152.755C141.232 157.71 150.09 160.435 158.79 161.896C160.564 162.193 162.982 163.24 164.227 163.246L164.985 162.801L165.178 162.863C166.251 163.282 168.099 162.598 169.276 162.35C178.506 160.403 195.539 157.033 201.091 148.54Z" fill="#C8A663"/>
<path d="M153.836 162.387C154.854 162.268 155.343 162.163 156.371 162.368C156.661 164.039 156.564 168.529 156.56 170.373L156.527 184.256C156.523 187.388 156.636 190.859 156.529 193.998C156.5 194.841 155.95 195.317 155.367 195.753C154.728 195.698 154.824 195.835 154.447 195.483C154.094 195.168 153.879 194.567 153.871 194.095C153.814 190.657 153.847 187.189 153.852 183.75L153.836 162.387Z" fill="white"/>
<path d="M173.992 162.355C175.073 162.232 175.37 162.191 176.496 162.322C176.383 170.472 176.875 186.659 176.161 195.297C176.132 195.647 175.527 195.725 175.231 195.791C174.368 195.489 173.678 194.686 173.748 193.756C174.513 183.712 173.021 172.25 173.992 162.355Z" fill="white"/>
<path d="M147.419 134.23L148.971 135.023L148.746 139.253C148.668 141.967 148.29 145.591 149.307 147.997C142.478 144.055 138.383 138.93 147.419 134.23Z" fill="#C8A663"/>
<path d="M202.575 189.08C202.922 186.44 202.908 181.368 203.96 179.343L204.455 178.987C204.726 179.109 205.19 179.26 205.221 179.636C205.437 182.288 205.214 186.443 205.083 189.015L202.575 189.08Z" fill="#C8A663"/>
<path d="M156.505 162.241H149.634C147.343 168.196 142.487 180.382 141.388 181.481C140.014 182.855 149.634 197.629 151.008 199.003C152.382 200.378 168.874 197.629 171.623 197.629H180.899V187.322V162.241H175.402C174.028 162.241 169.103 163.844 166.813 164.646L156.505 162.241Z" fill="#D4B57A"/>
<mask id="mask0_1305_51834" style="mask-type:alpha" maskUnits="userSpaceOnUse" x="134" y="178" width="61" height="28">
<path d="M140.53 201.064C138.927 201.637 135.582 202.885 135.033 203.298L134.002 193.85C135.262 189.555 137.85 180.69 138.125 179.591C138.4 178.492 148.89 179.133 154.101 179.591H181.415C182.103 179.591 187.428 183.027 190.005 184.745L194.643 191.444L191.207 195.911L185.882 200.034L183.477 205.187L164.065 201.923L152.04 201.064H140.53Z" fill="#D9D9D9"/>
</mask>
<g mask="url(#mask0_1305_51834)">
<path d="M174.277 204.593C175.274 204.401 176.23 204.484 176.928 205.365C177.392 205.95 177.492 206.656 177.554 207.365C177.722 209.283 177.553 211.193 177.412 213.103C177.34 214.07 177.296 215.041 177.249 216.01C177.241 216.171 177.195 216.35 177.322 216.525C177.547 216.38 177.643 216.151 177.762 215.94C178.386 214.83 178.98 213.702 179.637 212.612C180.768 210.733 181.845 208.821 183.072 207.001C183.447 206.447 183.847 205.907 184.263 205.384C184.868 204.621 185.648 204.419 186.428 204.789C186.931 205.028 187.039 205.241 186.837 205.761C186.413 206.85 185.937 207.92 185.538 209.018C184.607 211.577 183.774 214.166 183.496 216.894C183.457 217.272 183.459 217.656 183.485 218.034C183.532 218.695 183.989 218.918 184.564 218.572C184.744 218.464 184.908 218.328 185.069 218.195C185.219 218.073 185.374 217.95 185.561 218.085C185.749 218.22 185.667 218.419 185.611 218.593C185.337 219.461 184.134 220.244 183.259 220.13C182.099 219.977 181.472 219.285 181.427 218.085C181.394 217.214 181.527 216.357 181.699 215.505C182.151 213.272 182.906 211.127 183.61 208.966C183.641 208.872 183.718 208.78 183.637 208.639C182.976 209.538 182.405 210.478 181.828 211.412C180.343 213.819 179.107 216.36 177.705 218.812C177.57 219.049 177.435 219.296 177.218 219.476C176.643 219.95 175.91 219.705 175.775 218.973C175.626 218.155 175.618 217.325 175.695 216.499C175.882 214.559 175.81 212.614 175.808 210.672C175.812 210.643 175.784 210.61 175.727 210.491C175.438 211.238 175.178 211.917 174.91 212.594C174.11 214.63 173.199 216.611 171.802 218.318C170.987 219.312 170.078 220.239 168.767 220.533C166.933 220.944 165.01 220.291 164.451 218.359C164.052 216.979 164.73 215.28 165.908 214.738C166.332 214.544 166.766 214.487 167.21 214.656C167.378 214.722 167.5 214.838 167.521 215.028C167.539 215.19 167.471 215.327 167.33 215.389C166.424 215.785 166.354 216.615 166.278 217.431C166.233 217.905 166.381 218.322 166.678 218.713C167.212 219.42 168.482 219.281 169.114 218.915C170.205 218.281 170.936 217.31 171.632 216.296C173.152 214.074 174.126 211.591 175.098 209.107C175.323 208.533 175.557 207.96 175.747 207.373C175.966 206.703 175.654 206.069 175.057 205.854C174.699 205.726 174.371 205.869 174.062 205.991C172.636 206.562 170.644 208.876 170.922 210.749C170.957 210.978 170.997 211.187 171.163 211.354C171.335 211.526 171.423 211.719 171.294 211.958C171.153 212.219 170.907 212.205 170.672 212.17C169.669 212.025 168.961 210.953 169.147 209.859C169.328 208.811 169.784 207.885 170.453 207.069C171.46 205.838 172.679 204.902 174.277 204.593ZM161.08 205.76C162.463 205.58 163.853 205.453 165.242 205.713C165.909 205.838 166.535 206.075 167.073 206.498C167.529 206.858 167.812 207.322 167.768 207.925C167.745 208.242 167.63 208.522 167.274 208.605C166.935 208.683 166.732 208.508 166.574 208.229C166.079 207.359 165.21 207.21 164.336 207.146C163.002 207.048 161.688 207.279 160.378 207.502C156.916 208.091 153.601 209.207 150.282 210.317C148.784 210.818 147.278 211.284 145.694 211.432C145.459 211.454 145.224 211.466 144.988 211.482C144.27 211.468 143.568 211.374 142.928 211.026C142.635 210.869 142.379 210.659 142.22 210.358C142.062 210.064 142.085 209.767 142.3 209.51C142.484 209.289 142.732 209.211 143.01 209.321C144.264 209.818 145.545 209.702 146.817 209.448C149.029 209.009 151.137 208.208 153.288 207.562C155.846 206.793 158.424 206.105 161.08 205.76ZM147.592 183.891C148.705 183.833 149.748 183.986 150.538 184.884C151.107 185.53 151.314 186.313 151.285 187.149C151.226 188.906 150.669 190.47 149.388 191.724C149.103 192.002 148.776 192.225 148.369 192.288C147.913 192.36 147.583 192.195 147.426 191.825C147.27 191.463 147.352 191.14 147.725 190.858C148.414 190.339 148.831 189.643 149.089 188.838C149.441 187.981 149.593 187.109 149.294 186.203C149.249 186.068 149.195 185.933 149.085 185.831C148.895 185.441 148.547 185.311 148.15 185.28C147.537 185.233 146.981 185.436 146.466 185.743C144.98 186.628 143.834 187.872 142.844 189.26C140.965 191.891 139.597 194.751 139.028 197.955C138.842 199.004 138.895 200.053 139.232 201.069C139.897 203.069 141.596 203.915 143.605 203.275C144.86 202.877 145.914 202.143 146.894 201.299C147.999 200.346 149.03 199.315 149.992 198.215C150.254 197.914 150.462 197.585 150.602 197.211C150.935 196.313 151.277 195.418 151.616 194.522C151.964 193.758 152.308 192.993 152.66 192.23C153.442 190.534 154.336 188.9 155.396 187.36C155.823 186.739 156.313 186.168 156.949 185.755C157.416 185.452 157.921 185.224 158.506 185.336C159.04 185.438 159.331 185.739 159.443 186.269C159.556 186.806 159.421 187.311 159.253 187.812C158.846 189.018 158.198 190.098 157.483 191.141C155.963 193.357 154.277 195.438 152.275 197.237C151.629 197.82 151.401 198.536 151.104 199.333C151.342 199.282 151.41 199.133 151.506 199.022C152.515 197.867 153.419 196.618 154.571 195.588C155.163 195.058 155.802 194.639 156.643 194.682C157.328 195.007 157.516 195.379 157.416 196.211C157.316 197.029 156.992 197.78 156.695 198.536C156.392 199.305 156.091 200.076 155.928 200.89C155.889 201.082 155.83 201.291 156.028 201.434C156.225 201.574 156.409 201.464 156.581 201.37C157.199 201.033 157.612 200.486 158.027 199.944C158.733 199.026 159.316 198.031 159.856 197.009C160.047 196.649 160.256 196.301 160.456 195.947C160.888 195.455 161.238 194.891 161.729 194.447C162.243 193.985 162.787 193.58 163.46 193.382C164.371 193.112 165.112 193.461 165.488 194.326C165.533 194.43 165.525 194.596 165.668 194.604C165.809 194.613 165.828 194.451 165.879 194.351C165.983 194.15 166.112 193.97 166.29 193.829C166.491 193.67 166.718 193.621 166.955 193.731C167.205 193.85 167.264 194.081 167.254 194.328C167.242 194.621 167.133 194.89 167.021 195.158C166.523 196.334 165.914 197.456 165.378 198.611C165.151 199.102 164.964 199.609 164.943 200.157C164.935 200.339 164.948 200.529 164.995 200.703C165.106 201.114 165.368 201.198 165.699 200.94C165.961 200.738 166.15 200.462 166.34 200.196C167.179 199.019 168.016 197.837 168.724 196.575C169.186 195.751 169.581 194.89 169.609 193.909C169.62 193.535 169.737 193.179 170.031 192.917C170.316 192.668 170.645 192.603 170.979 192.791C171.301 192.973 171.346 193.281 171.272 193.616C171.264 193.653 171.256 193.693 171.246 193.731C171.062 194.404 171.079 194.443 171.771 194.629C172.124 194.723 172.485 194.789 172.804 194.995C173.286 195.308 173.478 195.746 173.419 196.306C173.376 196.704 173.238 197.07 173.06 197.426C172.708 198.131 172.352 198.835 172.006 199.544C171.814 199.936 171.688 200.356 171.655 200.791C171.616 201.316 171.932 201.529 172.404 201.292C172.848 201.069 173.172 200.7 173.499 200.34C174.039 199.747 174.526 199.108 174.984 198.45C175.353 197.921 175.381 197.284 175.521 196.689C176.063 194.361 176.88 192.132 177.919 189.983C177.999 189.82 178.057 189.644 178.124 189.475C178.744 188.409 179.28 187.29 179.998 186.282C180.512 185.563 181.056 184.872 181.868 184.457C182.042 184.369 182.225 184.287 182.413 184.233C183.634 183.886 184.439 184.573 184.326 185.847C184.232 186.9 183.855 187.869 183.426 188.813C182.018 191.915 180.201 194.741 177.694 197.086C177.522 197.247 177.336 197.395 177.16 197.553C176.276 198.344 175.994 199.996 176.562 201.049C176.833 201.548 177.285 201.732 177.911 201.572C178.539 201.413 179.059 201.053 179.52 200.613C180.911 199.286 181.969 197.704 182.961 196.072C183.317 195.49 183.635 194.882 183.977 194.291C184.114 194.054 184.252 193.813 184.508 193.672C184.721 193.553 184.938 193.535 185.145 193.666C185.347 193.793 185.39 194.003 185.354 194.222C185.266 194.764 185.002 195.238 184.752 195.715C184.079 196.993 183.358 198.248 182.89 199.624C182.755 200.025 182.64 200.429 182.681 200.858C182.717 201.253 182.974 201.411 183.342 201.256C183.46 201.207 183.58 201.135 183.676 201.049C184.488 200.327 185.135 199.47 185.699 198.548C186.049 198.151 186.333 197.714 186.542 197.231C186.998 196.174 187.637 195.24 188.392 194.377C188.713 194.011 189.116 193.737 189.486 193.427C189.981 193.216 190.471 192.993 191.031 193.012C191.995 193.042 192.624 193.67 192.646 194.637C192.667 195.553 192.337 196.352 191.733 197.009C190.704 198.129 189.464 198.841 187.872 198.688C187.535 198.655 187.398 198.761 187.347 199.086C187.287 199.464 187.236 199.84 187.265 200.223C187.324 201.026 187.813 201.499 188.615 201.527C189.413 201.556 190.105 201.245 190.756 200.83C191.535 200.333 192.229 199.732 192.828 199.024C193.039 198.775 193.252 198.52 193.528 198.336C193.725 198.205 193.95 198.15 194.152 198.313C194.342 198.471 194.322 198.69 194.234 198.898C194.173 199.043 194.105 199.19 194.005 199.309C192.91 200.603 191.68 201.738 190.129 202.477C189.366 202.84 188.572 202.921 187.747 202.715C187.393 202.625 187.106 202.418 186.806 202.232C186.347 201.687 186.036 201.075 185.991 200.35C185.987 200.284 185.985 200.205 185.908 200.188C185.816 200.168 185.773 200.247 185.722 200.307C185.38 200.707 185.046 201.112 184.698 201.507C184.322 201.934 183.882 202.286 183.352 202.513C182.552 202.854 181.763 202.482 181.511 201.65C181.368 201.174 181.439 200.691 181.49 200.217C181.296 200.168 181.252 200.309 181.183 200.389C180.553 201.116 179.867 201.785 179.047 202.3C178.541 202.617 178.011 202.875 177.397 202.896C176.448 202.926 175.754 202.47 175.408 201.587C175.267 201.227 175.196 200.857 175.159 200.475C175.151 200.379 175.171 200.24 175.038 200.213C174.936 200.192 174.88 200.297 174.825 200.366C174.447 200.838 174.023 201.27 173.579 201.681C173.121 202.104 172.607 202.447 171.993 202.603C171.058 202.84 170.412 202.339 170.358 201.38C170.315 200.593 170.561 199.877 170.855 199.17C171.148 198.467 171.47 197.776 171.748 197.066C172.014 196.392 171.893 196.156 171.212 195.895C170.428 195.592 170.442 195.598 170.092 196.36C169.193 198.321 168.075 200.137 166.516 201.652C166.28 201.881 166.026 202.09 165.731 202.243C164.794 202.728 163.898 202.269 163.751 201.225C163.71 200.93 163.693 200.633 163.656 200.249C163.446 200.506 163.291 200.711 163.123 200.903C162.55 201.562 161.938 202.169 161.164 202.597C159.937 203.275 158.691 202.711 158.515 201.387C158.504 201.301 158.512 201.184 158.404 201.155C158.296 201.127 158.247 201.237 158.191 201.303C157.825 201.736 157.415 202.124 156.953 202.453C156.736 202.606 156.505 202.732 156.253 202.812C155.588 203.02 154.933 202.676 154.721 202.012C154.561 201.517 154.621 201.024 154.735 200.533C154.952 199.595 155.312 198.705 155.629 197.8C155.776 197.379 155.901 196.95 156.028 196.522C156.057 196.426 156.112 196.309 156.018 196.226C155.909 196.13 155.791 196.205 155.688 196.256C155.134 196.53 154.72 196.984 154.299 197.409C152.729 198.99 151.361 200.736 150.155 202.609C150.049 202.773 149.947 202.945 149.82 203.094C149.624 203.325 149.364 203.414 149.075 203.296C148.766 203.171 148.692 202.891 148.762 202.607C148.874 202.149 149.036 201.703 149.175 201.251C149.21 201.141 149.273 201.035 149.232 200.89C149.055 200.898 148.977 201.049 148.877 201.151C147.876 202.163 146.841 203.132 145.642 203.907C144.678 204.531 143.632 204.958 142.476 205.014C139.709 205.146 137.634 203.505 137.094 200.781C136.705 198.829 137.017 196.933 137.616 195.074C138.555 192.165 139.98 189.519 142.014 187.209C142.922 186.176 143.974 185.31 145.145 184.586C145.924 184.226 146.722 183.936 147.592 183.891ZM164.754 195.706C164.742 194.829 164.217 194.494 163.484 194.833C163.172 194.978 162.9 195.183 162.652 195.424C161.727 196.326 161.044 197.398 160.483 198.551C160.166 199.203 159.921 199.884 159.843 200.611C159.812 200.914 159.795 201.247 160.067 201.445C160.346 201.648 160.647 201.517 160.921 201.372C161.367 201.133 161.754 200.816 162.083 200.438C162.854 199.552 163.495 198.573 164.074 197.555C164.414 196.958 164.678 196.33 164.754 195.706ZM191.22 195.234C191.222 194.576 190.886 194.334 190.319 194.524C190.117 194.594 189.933 194.698 189.777 194.839C189.016 195.528 188.48 196.379 188.016 197.282C187.86 197.585 188.087 197.583 188.279 197.579C189.022 197.555 189.695 197.329 190.282 196.867C190.835 196.434 191.191 195.895 191.22 195.234ZM182.858 185.727C182.683 185.633 182.529 185.734 182.384 185.828C181.925 186.127 181.571 186.534 181.248 186.968C179.497 189.311 178.324 191.947 177.319 194.668C177.129 195.187 176.99 195.721 176.886 196.265C176.869 196.34 176.843 196.433 176.921 196.478C177 196.528 177.068 196.452 177.129 196.409C177.452 196.178 177.727 195.894 177.982 195.594C179.803 193.453 181.174 191.034 182.3 188.473C182.621 187.741 182.91 186.99 183.021 186.207C183.002 186.019 183.043 185.825 182.858 185.727ZM157.984 186.99C157.786 186.866 157.6 186.984 157.44 187.101C157.089 187.358 156.788 187.673 156.536 188.026C155.274 189.811 154.238 191.724 153.331 193.709C153.084 194.253 152.828 194.794 152.642 195.42C152.75 195.393 152.78 195.393 152.797 195.379C152.877 195.311 152.957 195.242 153.028 195.166C154.506 193.61 155.818 191.923 156.949 190.102C157.442 189.308 157.833 188.46 158.099 187.562C158.158 187.362 158.203 187.129 157.984 186.99ZM185.646 189.955C186.207 189.648 186.806 189.91 186.966 190.531C187.111 191.102 186.94 191.597 186.526 191.998C186.244 192.272 185.887 192.398 185.507 192.21C185.082 191.995 184.941 191.611 184.957 191.153C184.98 190.636 185.178 190.211 185.646 189.955Z" fill="white"/>
</g>
<path d="M160.457 28.4809C167.326 22.782 166.655 23.3047 171.967 31.0582C173.824 35.0282 180.501 22.9609 177.241 26.084C183.797 28.3578 190.703 31.0611 191.278 39.0032C200.444 45.6603 201.526 57.2588 201.667 67.7344C201.681 68.7068 201.138 72.3339 201.327 72.9293C202.262 73.7109 202.354 73.7216 202.413 75.0107C204.653 75.212 205.783 75.0969 207.302 76.9278C209.717 79.8407 209.995 84.8012 209.642 88.3837C209.236 92.5132 207.59 97.527 204.296 100.28C202.949 101.406 202.251 101.395 200.599 101.675C199.458 113.716 196.888 124.069 187.076 132.114C186.688 132.432 186.294 132.742 185.894 133.046L183.033 134.881L180.748 136.157C179.84 136.555 178.92 136.927 177.991 137.273C167.682 141.093 158.247 140.617 148.303 136.062L146.751 135.27C145.775 134.747 144.881 134.109 143.962 133.488C132.802 125.027 129.894 115.015 128.647 101.571C119.904 99.8969 117.958 86.414 120.332 79.4112C121.493 75.9875 123.156 75.6436 126.367 74.888C126.633 74.8252 126.675 73.8728 126.718 73.5962L127.777 72.9118C127.916 72.2865 127.514 67.1191 127.533 65.9935C127.579 62.6028 127.855 58.9636 128.546 55.645C129.788 49.6778 132.157 42.6056 137.6 39.2626C138.469 38.729 138.333 37.8395 138.461 36.8741C138.835 30.7515 147.352 27.837 152.123 26.0387C148.261 21.6883 156.548 32.5073 160.457 28.4809Z" fill="#803C07"/>
<path d="M161.184 30.8858C168.054 25.1869 166.999 22.2735 172.31 30.027C174.168 33.997 180.501 22.9608 177.24 26.0839C183.797 28.3577 190.703 31.0609 191.278 39.003C200.444 45.6602 201.526 57.2586 201.667 67.7342C201.681 68.7066 201.138 72.3337 201.327 72.9291C200.77 73.0408 199.616 73.0621 199.008 73.0913C192.923 73.1576 186.795 72.2492 180.72 72.5821C175.21 72.8841 171.686 72.6773 167.744 76.9163C165.875 77.0616 163.27 77.019 161.338 77.0345L161.184 76.8765C160.474 76.1488 159.217 74.793 158.35 74.424C150.459 71.0697 138.54 73.1672 130.234 73.0662C129.141 73.1085 128.826 73.0683 127.777 72.9116C127.916 72.2863 127.514 67.1189 127.533 65.9933C127.579 62.6026 127.854 58.9634 128.545 55.6448C129.788 49.6776 132.157 42.6054 137.6 39.2624C138.469 38.7289 138.333 37.8393 138.461 36.8739C138.834 30.7513 147.351 27.8368 152.123 26.0385C148.261 21.6882 157.276 34.9122 161.184 30.8858Z" fill="#FEBC8A"/>
<path d="M163.549 32.0884C170.418 26.3895 165.968 25.1938 171.279 32.9473C173.137 36.9173 180.501 22.9606 177.24 26.0837C183.797 28.3575 190.703 31.0608 191.278 39.0029C190.746 42.4173 190.115 43.7277 187.636 46.2142C183.728 49.5977 180.303 51.7513 175.259 53.1582C163.762 56.3648 150.812 54.3515 141.99 46.0211C138.88 42.74 138.529 41.1897 138.461 36.8737C138.834 30.7512 147.351 27.8367 152.123 26.0384C148.261 21.688 159.64 36.1148 163.549 32.0884Z" fill="#FEBC8A"/>
<path d="M158.739 33.291C165.608 27.5921 164.079 28.9731 169.39 36.7266C171.248 40.6966 180.501 22.9608 177.24 26.0839C170.595 24.0792 158.603 23.9012 152.123 26.0386C148.261 21.6882 154.83 37.3173 158.739 33.291Z" fill="#803C07"/>
<path d="M127.777 72.9117C127.916 72.2864 127.514 67.119 127.533 65.9935C127.579 62.6027 127.854 58.9636 128.545 55.645C129.788 49.6777 132.157 42.6056 137.6 39.2626C138.469 38.729 138.333 37.8395 138.461 36.874C138.529 41.19 138.88 42.7402 141.99 46.0214C134.145 53.332 130.603 61.8342 130.245 72.6097C130.24 72.7619 130.236 72.9142 130.234 73.0664C129.141 73.1086 128.826 73.0684 127.777 72.9117Z" fill="#A06A48"/>
<path d="M191.278 39.0029C200.444 45.6601 201.526 57.2585 201.667 67.7341C201.68 68.7065 201.138 72.3336 201.327 72.929C200.77 73.0407 199.616 73.062 199.007 73.0912C198.684 61.8556 196.073 54.066 187.636 46.2143C190.115 43.7278 190.746 42.4174 191.278 39.0029Z" fill="#A06A48"/>
<path d="M174.916 62.8757C179.465 61.8063 189.448 61.8191 192.904 67.004C193.119 67.3267 192.934 67.6499 192.782 67.9532C191.93 68.5995 191.761 68.7645 190.687 68.9929C185.459 68.3583 181.427 68.4161 176.179 68.9484C172.644 69.3069 170.827 65.1893 174.916 62.8757Z" fill="#4E2606"/>
<path d="M151.289 62.2073C156.02 62.767 159.084 66.4621 154.432 68.4078C152.889 69.053 144.662 68.441 141.476 68.8455C141.032 68.9224 140.587 68.9905 140.141 69.0498C138.736 69.2299 136.665 69.2948 136.508 67.5026C138.265 62.8691 147.052 61.901 151.289 62.2073Z" fill="#4E2606"/>
<path d="M167.744 76.9171C171.686 72.678 175.21 72.8849 180.72 72.5829C186.794 72.2499 192.923 73.1584 199.008 73.0921C199.616 73.0628 200.77 73.0415 201.327 72.9299C202.261 73.7115 202.354 73.7222 202.412 75.0113C204.653 75.2126 205.783 75.0975 207.302 76.9284C209.717 79.8413 209.995 84.8018 209.641 88.3843C209.236 92.5137 207.59 97.5275 204.295 100.28C202.948 101.407 202.251 101.395 200.598 101.676L200.602 96.3078C200.622 93.9671 200.595 86.497 199.684 84.6555C197.819 93.4606 196.767 98.9359 190.046 105.568C184.299 101.28 180.054 100.347 173.139 99.5581C172.642 99.5529 171.309 99.4914 170.994 99.8226C168.239 102.79 163.527 104.046 160.081 101.533C158.107 100.093 158.704 99.6725 156.204 99.5694C156.892 99.4646 157.333 99.3595 158.007 99.1808C158.268 97.0675 158.18 94.7703 158.441 92.4897C155.731 96.1189 152.397 97.6423 147.943 98.091C132.202 99.6763 131.24 91.7565 130.018 79.0881C127.206 77.1566 126.831 77.0071 126.718 73.5968L127.777 72.9124C128.826 73.069 129.141 73.1092 130.234 73.067C138.54 73.168 150.459 71.0704 158.349 74.4248C159.217 74.7938 160.473 76.1495 161.184 76.8772L161.338 77.0353C163.27 77.0198 165.875 77.0624 167.744 76.9171Z" fill="#841D13"/>
<path d="M199.115 78.9601C201.234 77.5669 201.496 77.3546 202.413 75.0107C204.653 75.2121 205.783 75.097 207.302 76.9279C209.717 79.8407 209.996 84.8013 209.642 88.3838C209.236 92.5132 207.591 97.527 204.296 100.28C202.949 101.406 202.251 101.395 200.599 101.675L200.602 96.3073C200.623 93.9665 200.595 86.4965 199.685 84.6549C197.819 93.4601 196.768 98.9353 190.047 105.567C184.3 101.279 180.054 100.346 173.14 99.5576C172.301 99.416 171.274 99.5026 170.547 99.1329C170.586 96.9196 170.683 96.2221 170.3 93.9442C170.078 92.6311 169.448 90.4339 169.503 89.2966C171.617 94.1067 175.278 97.2099 180.487 97.85C198.153 100.021 197.132 91.4467 199.115 78.9601Z" fill="#FEBC8A"/>
<path d="M199.685 84.6548C200.33 83.131 200.836 81.497 202.512 80.8627C204.615 80.0673 205.498 82.6442 205.683 84.215C206.109 87.8586 204.745 91.5273 202.588 94.4165C201.835 95.4328 201.052 95.7959 200.602 96.3072C200.623 93.9664 200.595 86.4964 199.685 84.6548Z" fill="#F59C5F"/>
<path d="M158.44 92.4893C158.669 91.7832 159.487 90.3725 159.819 89.3731C160.676 86.7942 161.204 84.3328 161.786 81.6958C162.719 80.616 164.994 79.9958 166.143 80.7675C168.29 82.2095 168.655 86.7179 169.502 89.2968C169.447 90.434 170.077 92.6312 170.298 93.9443C170.682 96.2222 170.585 96.9197 170.546 99.133C171.273 99.5027 172.3 99.4161 173.139 99.5577C172.642 99.5525 171.308 99.491 170.993 99.8222C168.239 102.789 163.526 104.045 160.081 101.533C158.106 100.092 158.704 99.6721 156.203 99.569C156.892 99.4642 157.332 99.3591 158.006 99.1804C158.268 97.0671 158.179 94.77 158.44 92.4893Z" fill="#F59C5F"/>
<path d="M137.868 74.9467C142.758 74.5282 148.816 74.7986 153.699 75.2762C159.93 75.8853 160.045 80.6531 158.853 85.6106C157.906 89.5518 156.469 92.2866 152.936 94.4776C148.702 96.2546 141.721 96.9325 137.251 94.4161C132.854 91.9406 131.396 81.2455 133.344 76.8442C133.919 75.5452 136.47 75.1727 137.868 74.9467Z" fill="#FEBC8A"/>
<path d="M177.549 74.9732C181.146 74.5396 191.214 74.487 194.401 75.8874C198.218 77.5641 196.273 88.853 194.493 91.7081C192.966 94.1602 191.951 94.6862 189.184 95.4022L189.036 95.4349C178.937 97.5726 170.906 93.4727 170.032 82.5459C169.502 75.9197 171.732 75.7242 177.549 74.9732Z" fill="#FEBC8A"/>
<path d="M128.647 101.571C119.904 99.897 117.958 86.414 120.332 79.4112C121.493 75.9875 123.156 75.6436 126.367 74.888C126.633 74.8252 126.675 73.8728 126.718 73.5962C126.831 77.0065 127.207 77.156 130.018 79.0876C131.24 91.7559 132.202 99.6757 147.943 98.0904C152.397 97.6417 155.731 96.1183 158.441 92.4891C158.18 94.7698 158.269 97.0669 158.007 99.1803C157.333 99.3589 156.893 99.4641 156.204 99.5688C149.765 100.035 144.238 101.452 139.112 105.599C131.662 99.4572 131.494 92.2156 129.426 84.346C128.736 87.6382 128.5 93.0065 128.474 96.4172C128.531 97.863 128.697 100.192 128.647 101.571Z" fill="#FEBC8A"/>
<path d="M128.474 96.4169C118.486 87.4637 125.632 74.3466 129.427 84.3457C128.736 87.6378 128.5 93.0062 128.474 96.4169Z" fill="#F59C5F"/>
<path d="M150.21 107.275C156.057 109.705 160.396 112.154 166.925 112.859C168.602 113.041 169.688 113.16 171.421 113.204C173.783 113.263 178.8 112.435 180.711 113.222C182.346 115.48 178.451 118.659 176.803 119.91C173.521 121.818 171.064 122.567 166.863 122.726C159.594 123.001 149.659 117.758 149.107 109.697C149.026 108.509 149.386 108.058 150.21 107.275Z" fill="white"/>
<path d="M127.817 72.9107L130.737 73.0825C131.103 71.4956 134.539 56.6667 138.296 50.2347C141.453 51.9882 144.613 52.5968 148.215 52.8791C152.134 53.3844 156.09 53.5395 160.036 53.3426C168.181 52.9165 176.212 51.2397 183.846 48.3711C185.576 47.7251 191.585 44.9726 191.754 45.5624C177.636 41.9889 198.578 60.9016 198.078 73.0825H201.342C204.565 59.5725 202.702 59.8167 202.167 55.4211C201.825 51.2475 200.421 47.2304 198.086 43.7508C201.267 42.1357 205.854 38.4844 205.629 34.4257C205.629 34.2994 205.629 34.3415 205.629 34.4257C205.502 33.1056 203.195 34.833 202.604 35.142C202.829 34.3836 203.279 32.1366 201.815 32.6703C201.815 32.263 201.914 31.1536 201.379 30.971C200.845 30.7884 200.071 31.5889 199.719 31.8417C199.045 32.3379 198.329 32.7748 197.58 33.1478C196.82 32.7826 196.046 32.4035 195.272 32.0805C193.724 31.4344 192.162 30.8306 190.572 30.2969C188.953 29.6444 187.406 28.8255 185.956 27.8533C179.638 24.0756 172.799 20.7051 165.341 20.1152C157.684 19.4833 150.039 21.4638 143.656 25.7327C140.823 27.5977 138.369 29.9801 136.423 32.7546C135.41 34.2572 132.202 40.0713 135.72 40.6611C124.476 48.7222 127.564 71.4362 127.817 72.9107Z" fill="#663B13"/>
<path d="M153.336 86.9342C153.336 86.9342 151.782 82.3779 147.294 82.5791C146.158 82.5114 145.042 82.8895 144.18 83.6334C143.318 84.3773 142.779 85.4288 142.676 86.5659C142.676 86.5659 146.29 81.7703 153.336 86.9342Z" fill="black"/>
<path d="M180.004 78.7515C185.959 79.5231 186.141 86.7966 181.215 89.5473C176.035 89.4896 174.803 81.4523 180.004 78.7515Z" fill="#0D0D0C"/>
<path d="M180.327 80.725C180.748 80.4082 181.307 80.3439 181.789 80.5563C182.271 80.7689 182.601 81.2252 182.651 81.7499C182.701 82.2741 182.464 82.7847 182.031 83.085C181.38 83.5368 180.486 83.3839 180.022 82.7411C179.558 82.0979 179.693 81.2015 180.327 80.725Z" fill="white"/>
</g>
<defs>
<clipPath id="clip0_1305_51834">
<rect width="333" height="264" fill="white"/>
</clipPath>
</defs>
</svg>
