<svg width="250" height="232" viewBox="0 0 250 232" fill="none" xmlns="http://www.w3.org/2000/svg">
<g clip-path="url(#clip0_1305_54030)">
<path d="M116.071 110.422C116.071 113.512 113.581 116 110.49 116H11.8312C8.74009 116 6.25 113.512 6.25 110.422V79.6159C6.25 76.5266 8.74009 74.0381 11.8312 74.0381H110.49C113.581 74.0381 116.071 76.5266 116.071 79.6159V110.422Z" fill="#4D4D4D"/>
<path d="M26.1694 95.833L24.7955 95.0607L26.1694 94.2884C26.9421 93.8593 27.1997 92.9154 26.7704 92.1431C26.3411 91.3708 25.3966 91.1133 24.6238 91.5424L23.2499 92.3147V90.7701C23.2499 89.912 22.563 89.1396 21.6185 89.1396C20.7598 89.1396 19.9871 89.8261 19.9871 90.7701V92.3147L18.6132 91.5424C17.8404 91.1133 16.8959 91.3708 16.4666 92.1431C16.0373 92.9154 16.2949 93.8593 17.0676 94.2884L18.4415 95.0607L17.0676 95.833C16.2949 96.2621 16.0373 97.206 16.4666 97.9783C16.8959 98.7506 17.8404 99.0081 18.6132 98.579L19.9871 97.8067V99.3513C19.9871 100.209 20.674 100.982 21.6185 100.982C22.4771 100.982 23.2499 100.295 23.2499 99.3513V97.8067L24.6238 98.579C25.3966 99.0081 26.3411 98.7506 26.7704 97.9783C27.1997 97.206 26.9421 96.2621 26.1694 95.833Z" fill="white"/>
<path d="M45.9174 95.833L44.5436 95.0607L45.9174 94.2884C46.6902 93.8593 46.9478 92.9154 46.5184 92.1431C46.0891 91.3708 45.1446 91.1133 44.3718 91.5424L42.998 92.3147V90.7701C42.998 89.912 42.3111 89.1396 41.3665 89.1396C40.5079 89.1396 39.7351 89.8261 39.7351 90.7701V92.3147L38.3613 91.5424C37.5885 91.1133 36.644 91.3708 36.2146 92.1431C35.7853 92.9154 36.0429 93.8593 36.8157 94.2884L38.1895 95.0607L36.8157 95.833C36.0429 96.2621 35.7853 97.206 36.2146 97.9783C36.644 98.7506 37.5885 99.0081 38.3613 98.579L39.7351 97.8067V99.3513C39.7351 100.209 40.422 100.982 41.3665 100.982C42.2252 100.982 42.998 100.295 42.998 99.3513V97.8067L44.3718 98.579C45.1446 99.0081 46.0891 98.7506 46.5184 97.9783C46.9478 97.206 46.6902 96.2621 45.9174 95.833Z" fill="white"/>
<path d="M65.6674 95.833L64.2936 95.0607L65.6674 94.2884C66.4402 93.8593 66.6978 92.9154 66.2684 92.1431C65.8391 91.3708 64.8946 91.1133 64.1218 91.5424L62.748 92.3147V90.7701C62.748 89.912 62.0611 89.1396 61.1165 89.1396C60.2579 89.1396 59.4851 89.8261 59.4851 90.7701V92.3147L58.1113 91.5424C57.3385 91.1133 56.394 91.3708 55.9646 92.1431C55.5353 92.9154 55.7929 93.8593 56.5657 94.2884L57.9395 95.0607L56.5657 95.833C55.7929 96.2621 55.5353 97.206 55.9646 97.9783C56.394 98.7506 57.3385 99.0081 58.1113 98.579L59.4851 97.8067V99.3513C59.4851 100.209 60.172 100.982 61.1165 100.982C61.9752 100.982 62.748 100.295 62.748 99.3513V97.8067L64.1218 98.579C64.8946 99.0081 65.8391 98.7506 66.2684 97.9783C66.6978 97.206 66.4402 96.2621 65.6674 95.833Z" fill="white"/>
<path d="M85.4154 95.833L84.0416 95.0607L85.4154 94.2884C86.1882 93.8593 86.4458 92.9154 86.0165 92.1431C85.5872 91.3708 84.6426 91.1133 83.8699 91.5424L82.496 92.3147V90.7701C82.496 89.912 81.8091 89.1396 80.8646 89.1396C80.0059 89.1396 79.2332 89.8261 79.2332 90.7701V92.3147L77.8593 91.5424C77.0865 91.1133 76.142 91.3708 75.7127 92.1431C75.2834 92.9154 75.541 93.8593 76.3137 94.2884L77.6876 95.0607L76.3137 95.833C75.541 96.2621 75.2834 97.206 75.7127 97.9783C76.142 98.7506 77.0865 99.0081 77.8593 98.579L79.2332 97.8067V99.3513C79.2332 100.209 79.9201 100.982 80.8646 100.982C81.7232 100.982 82.496 100.295 82.496 99.3513V97.8067L83.8699 98.579C84.6426 99.0081 85.5872 98.7506 86.0165 97.9783C86.4458 97.206 86.1882 96.2621 85.4154 95.833Z" fill="white"/>
<path d="M105.163 95.833L103.79 95.0607L105.163 94.2884C105.936 93.8593 106.194 92.9154 105.765 92.1431C105.335 91.3708 104.391 91.1133 103.618 91.5424L102.244 92.3147V90.7701C102.244 89.912 101.557 89.1396 100.613 89.1396C99.754 89.1396 98.9812 89.8261 98.9812 90.7701V92.3147L97.6074 91.5424C96.8346 91.1133 95.89 91.3708 95.4607 92.1431C95.0314 92.9154 95.289 93.8593 96.0618 94.2884L97.4356 95.0607L96.0618 95.833C95.289 96.2621 95.0314 97.206 95.4607 97.9783C95.89 98.7506 96.8346 99.0081 97.6074 98.579L98.9812 97.8067V99.3513C98.9812 100.209 99.6681 100.982 100.613 100.982C101.471 100.982 102.244 100.295 102.244 99.3513V97.8067L103.618 98.579C104.391 99.0081 105.335 98.7506 105.765 97.9783C106.194 97.206 105.936 96.2621 105.163 95.833Z" fill="white"/>
<path fill-rule="evenodd" clip-rule="evenodd" d="M59.8216 174.893C64.1763 174.893 68.4498 173.714 72.188 171.482C75.9263 169.249 78.9896 166.047 81.0526 162.214C83.1155 158.381 84.1011 154.061 83.9046 149.713C83.708 145.365 82.3367 141.152 79.9363 137.52L60.7724 158.802C59.8773 159.796 58.6422 160.419 57.3103 160.549C55.9784 160.679 54.6461 160.306 53.5756 159.503L44.8227 152.942C44.2544 152.516 43.8787 151.882 43.7782 151.179C43.6778 150.476 43.8608 149.762 44.287 149.194C44.7132 148.626 45.3477 148.251 46.0509 148.15C46.7541 148.05 47.4684 148.233 48.0367 148.659L56.7897 155.22L76.4651 133.374C73.6147 130.654 70.1408 128.674 66.3475 127.608C62.5542 126.542 58.5571 126.421 54.7062 127.256C50.8554 128.092 47.2682 129.858 44.2588 132.401C41.2494 134.943 38.9094 138.184 37.4439 141.84C35.9784 145.496 35.432 149.455 35.8525 153.371C36.273 157.287 37.6476 161.04 39.856 164.302C42.0643 167.564 45.0391 170.235 48.5198 172.081C52.0005 173.928 55.8811 174.893 59.8216 174.893Z" fill="#2A9421"/>
<path d="M170.992 13.2999C177.432 7.96031 176.804 8.45003 181.783 15.7147C183.525 19.4344 189.784 8.12798 186.728 11.0542C192.875 13.1846 199.349 15.7174 199.888 23.1588C208.482 29.3962 209.496 40.2634 209.628 50.0786C209.641 50.9896 209.132 54.388 209.309 54.9459C210.186 55.6783 210.273 55.6883 210.327 56.8961C212.427 57.0847 213.487 56.9769 214.911 58.6924C217.175 61.4215 217.436 66.0693 217.105 69.4259C216.724 73.295 215.182 77.9927 212.093 80.5719C210.83 81.6271 210.176 81.6165 208.627 81.8795C207.557 93.1613 205.148 102.862 195.949 110.399C195.585 110.697 195.215 110.988 194.841 111.272L192.159 112.991L190.016 114.187C189.165 114.56 188.303 114.909 187.432 115.233C177.767 118.812 168.92 118.366 159.598 114.098L158.143 113.356C157.227 112.866 156.39 112.268 155.528 111.687C145.065 103.759 142.339 94.3778 141.169 81.782C132.973 80.2133 131.148 67.5804 133.374 61.0192C134.462 57.8113 136.022 57.489 139.032 56.7812C139.282 56.7222 139.321 55.8299 139.361 55.5708L140.354 54.9295C140.485 54.3436 140.108 49.502 140.125 48.4474C140.169 45.2705 140.427 41.8607 141.075 38.7514C142.24 33.1604 144.461 26.5341 149.564 23.4019C150.378 22.9019 150.251 22.0685 150.371 21.1639C150.721 15.4274 158.706 12.6966 163.179 11.0117C159.559 6.93561 167.328 17.0724 170.992 13.2999Z" fill="#803C07"/>
<path d="M171.675 15.5534C178.115 10.2138 177.126 7.48403 182.105 14.7487C183.847 18.4684 189.784 8.12799 186.728 11.0542C192.875 13.1846 199.349 15.7174 199.888 23.1588C208.482 29.3962 209.496 40.2634 209.628 50.0786C209.641 50.9896 209.132 54.388 209.31 54.9459C208.788 55.0505 207.705 55.0705 207.135 55.0979C201.431 55.16 195.685 54.3088 189.99 54.6208C184.824 54.9037 181.521 54.7099 177.824 58.6817C176.072 58.8179 173.63 58.778 171.819 58.7925L171.675 58.6444C171.008 57.9626 169.831 56.6923 169.017 56.3466C161.62 53.2037 150.445 55.169 142.658 55.0744C141.633 55.1139 141.338 55.0763 140.354 54.9295C140.485 54.3436 140.108 49.502 140.126 48.4474C140.169 45.2705 140.427 41.8607 141.075 38.7514C142.24 33.1604 144.461 26.5341 149.564 23.4019C150.378 22.9019 150.251 22.0685 150.371 21.1639C150.721 15.4274 158.706 12.6966 163.18 11.0117C159.559 6.93562 168.01 19.3259 171.675 15.5534Z" fill="#FEBC8A"/>
<path d="M173.892 16.6798C180.332 11.3402 176.16 10.2198 181.139 17.4844C182.881 21.2042 189.784 8.12743 186.728 11.0536C192.875 13.1841 199.349 15.7169 199.888 23.1583C199.39 26.3574 198.798 27.5852 196.474 29.9149C192.81 33.0851 189.599 35.1029 184.87 36.4211C174.091 39.4256 161.951 37.5391 153.68 29.734C150.764 26.6597 150.435 25.2072 150.371 21.1634C150.721 15.4268 158.706 12.696 163.18 11.0111C159.559 6.93506 170.227 20.4523 173.892 16.6798Z" fill="#FEBC8A"/>
<path d="M169.382 17.8065C175.822 12.4669 174.388 13.7609 179.368 21.0255C181.109 24.7452 189.784 8.12765 186.728 11.0538C180.498 9.17548 169.255 9.00873 163.179 11.0114C159.558 6.93528 165.718 21.579 169.382 17.8065Z" fill="#803C07"/>
<path d="M140.354 54.9287C140.485 54.3428 140.108 49.5012 140.126 48.4466C140.169 45.2696 140.427 41.8599 141.075 38.7506C142.24 33.1595 144.461 26.5333 149.564 23.401C150.378 22.9011 150.251 22.0677 150.371 21.1631C150.435 25.207 150.764 26.6595 153.68 29.7337C146.325 36.5834 143.004 44.5495 142.668 54.6457C142.663 54.7883 142.66 54.9309 142.658 55.0735C141.633 55.1131 141.338 55.0755 140.354 54.9287Z" fill="#A06A48"/>
<path d="M199.889 23.1582C208.482 29.3956 209.497 40.2628 209.629 50.078C209.642 50.989 209.133 54.3874 209.31 54.9453C208.788 55.0499 207.706 55.0699 207.136 55.0973C206.833 44.57 204.385 37.2716 196.475 29.9149C198.799 27.5852 199.39 26.3574 199.889 23.1582Z" fill="#A06A48"/>
<path d="M185.201 44.2513C189.577 44.0469 198.776 45.7721 201.07 51.141C201.213 51.4751 200.987 51.741 200.795 51.9944C199.899 52.4434 199.715 52.5664 198.686 52.5925C193.976 51.1107 190.251 50.472 185.322 50.0616C182.002 49.7851 181.035 45.6806 185.201 44.2513Z" fill="#4E2606"/>
<path d="M161.835 44.3111C166.3 44.1758 169.652 47.1767 165.607 49.6226C164.265 50.4339 156.552 51.0036 153.654 51.8187C153.253 51.9514 152.85 52.0759 152.444 52.1925C151.166 52.5537 149.255 52.9 148.861 51.2609C149.85 46.7241 157.864 44.6127 161.835 44.3111Z" fill="#4E2606"/>
<path d="M177.824 58.6817C181.52 54.7099 184.824 54.9037 189.99 54.6207C195.685 54.3088 201.431 55.1599 207.135 55.0978C207.705 55.0704 208.788 55.0505 209.309 54.9458C210.185 55.6782 210.272 55.6882 210.327 56.896C212.427 57.0846 213.487 56.9768 214.911 58.6923C217.175 61.4215 217.436 66.0693 217.104 69.4259C216.724 73.295 215.181 77.9927 212.092 80.5718C210.83 81.6271 210.176 81.6165 208.626 81.8795L208.63 76.8499C208.649 74.6567 208.623 67.6576 207.77 65.9321C206.021 74.1822 205.035 79.3122 198.733 85.5258C193.346 81.5083 189.365 80.6343 182.883 79.8952C182.417 79.8903 181.167 79.8327 180.872 80.143C178.289 82.9231 173.871 84.1 170.641 81.7455C168.789 80.3961 169.35 80.0024 167.005 79.9058C167.651 79.8076 168.064 79.7091 168.696 79.5417C168.941 77.5616 168.858 75.4093 169.103 73.2724C166.562 76.6728 163.436 78.1002 159.26 78.5206C144.503 80.0059 143.601 72.5855 142.456 60.7158C139.819 58.906 139.468 58.766 139.361 55.5707L140.354 54.9294C141.338 55.0762 141.633 55.1139 142.658 55.0743C150.445 55.1689 161.62 53.2036 169.017 56.3465C169.83 56.6922 171.008 57.9625 171.675 58.6443L171.819 58.7924C173.63 58.7779 176.072 58.8178 177.824 58.6817Z" fill="#841D13"/>
<path d="M207.235 60.5959C209.223 59.2905 209.467 59.0916 210.327 56.8955C212.428 57.0841 213.487 56.9763 214.911 58.6918C217.176 61.421 217.437 66.0688 217.105 69.4254C216.725 73.2945 215.182 77.9922 212.093 80.5713C210.83 81.6266 210.176 81.616 208.627 81.879L208.63 76.8494C208.649 74.6562 208.624 67.6571 207.77 65.9316C206.021 74.1817 205.035 79.3117 198.734 85.5253C193.346 81.5078 189.366 80.6338 182.883 79.8947C182.097 79.7621 181.134 79.8432 180.452 79.4968C180.489 77.423 180.58 76.7695 180.22 74.6352C180.013 73.4049 179.422 71.3462 179.474 70.2807C181.456 74.7875 184.888 77.695 189.771 78.2948C206.333 80.3286 205.377 72.2952 207.235 60.5959Z" fill="#FEBC8A"/>
<path d="M207.77 65.9317C208.375 64.504 208.849 62.973 210.421 62.3787C212.392 61.6335 213.22 64.0479 213.394 65.5197C213.793 68.9336 212.514 72.371 210.491 75.0779C209.786 76.0302 209.052 76.3704 208.63 76.8494C208.649 74.6562 208.623 67.6572 207.77 65.9317Z" fill="#F59C5F"/>
<path d="M169.103 73.273C169.317 72.6115 170.085 71.2897 170.396 70.3532C171.199 67.9369 171.695 65.6307 172.24 63.16C173.115 62.1483 175.247 61.5672 176.325 62.2902C178.338 63.6413 178.68 67.8655 179.474 70.2818C179.422 71.3473 180.013 73.4059 180.221 74.6363C180.58 76.7706 180.489 77.4241 180.452 79.4978C181.134 79.8442 182.097 79.7631 182.883 79.8957C182.417 79.8909 181.167 79.8333 180.872 80.1436C178.289 82.9237 173.872 84.1006 170.641 81.7461C168.79 80.3966 169.35 80.0029 167.006 79.9064C167.651 79.8082 168.065 79.7097 168.696 79.5423C168.941 77.5622 168.858 75.4099 169.103 73.273Z" fill="#F59C5F"/>
<path d="M149.814 56.8355C154.399 56.4434 160.079 56.6967 164.657 57.1442C170.499 57.715 170.606 62.1822 169.489 66.8271C168.601 70.5197 167.253 73.0822 163.941 75.135C159.972 76.8 153.427 77.4351 149.237 75.0774C145.114 72.758 143.747 62.7371 145.574 58.6134C146.113 57.3963 148.504 57.0473 149.814 56.8355Z" fill="#FEBC8A"/>
<path d="M158.805 60.6764C164.868 60.5151 165.028 68.0189 160.369 70.6731C155.533 71.0768 153.777 63.2997 158.805 60.6764Z" fill="#0D0D0C"/>
<path d="M160.251 62.2201C160.726 62.0856 161.237 62.2208 161.584 62.5726C161.931 62.9245 162.058 63.4373 161.916 63.9105C161.775 64.3837 161.386 64.742 160.903 64.8454C160.189 64.9983 159.482 64.5569 159.306 63.8481C159.13 63.1395 159.548 62.4191 160.251 62.2201Z" fill="white"/>
<path d="M187.017 56.8609C190.39 56.4546 199.828 56.4054 202.816 57.7175C206.394 59.2885 204.571 69.8656 202.903 72.5407C201.471 74.8382 200.519 75.3311 197.925 76.0019L197.786 76.0325C188.318 78.0355 180.789 74.194 179.969 63.9562C179.472 57.7478 181.563 57.5646 187.017 56.8609Z" fill="#FEBC8A"/>
<path d="M141.169 81.7815C132.973 80.2129 131.148 67.58 133.374 61.0187C134.462 57.8108 136.022 57.4886 139.032 56.7807C139.282 56.7218 139.321 55.8295 139.361 55.5703C139.468 58.7656 139.819 58.9057 142.456 60.7155C143.601 72.5851 144.503 80.0055 159.26 78.5202C163.436 78.0998 166.562 76.6724 169.103 73.2721C168.858 75.4089 168.941 77.5612 168.696 79.5413C168.064 79.7087 167.651 79.8072 167.005 79.9054C160.968 80.3426 155.787 81.6698 150.981 85.555C143.997 79.8008 143.839 73.0158 141.901 65.6424C141.253 68.7269 141.032 73.7569 141.007 76.9525C141.061 78.3071 141.216 80.4891 141.169 81.7815Z" fill="#FEBC8A"/>
<path d="M141.007 76.9523C131.643 68.5635 138.342 56.2735 141.9 65.6422C141.253 68.7267 141.031 73.7567 141.007 76.9523Z" fill="#F59C5F"/>
<path d="M159.622 92.1791C165.553 92.4326 170.162 93.1894 176.137 91.7066C177.672 91.3258 178.667 91.0806 180.207 90.5608C182.305 89.8522 186.454 87.5071 188.391 87.5836C190.558 89.0434 188.154 93.0955 187.107 94.7275C184.832 97.4633 182.911 98.9137 179.263 100.407C172.953 102.992 162.517 101.58 159.432 94.6654C158.977 93.6463 159.148 93.1332 159.622 92.1791Z" fill="white"/>
<path d="M140.391 54.9283L143.129 55.0893C143.472 53.6024 146.693 39.7085 150.216 33.682C153.176 35.3249 156.138 35.8951 159.516 36.1597C163.189 36.6331 166.898 36.7784 170.598 36.5939C178.234 36.1947 185.763 34.6236 192.92 31.9359C194.543 31.3306 200.176 28.7516 200.334 29.3042C187.098 25.956 206.732 43.6763 206.263 55.0893H209.323C212.345 42.431 210.598 42.6599 210.097 38.5413C209.776 34.6309 208.459 30.867 206.271 27.6068C209.253 26.0936 213.553 22.6725 213.342 18.8697C213.342 18.7513 213.342 18.7908 213.342 18.8697C213.224 17.6329 211.06 19.2513 210.506 19.5408C210.717 18.8303 211.139 16.7249 209.767 17.225C209.767 16.8434 209.859 15.8039 209.358 15.6328C208.857 15.4618 208.131 16.2118 207.801 16.4486C207.17 16.9135 206.499 17.3229 205.796 17.6723C205.084 17.3302 204.358 16.975 203.632 16.6723C202.181 16.067 200.717 15.5012 199.226 15.0012C197.708 14.3899 196.258 13.6226 194.899 12.7117C188.975 9.17212 182.563 6.01414 175.571 5.46149C168.392 4.86935 161.225 6.72501 155.241 10.7248C152.585 12.4722 150.285 14.7044 148.46 17.3039C147.51 18.7118 144.502 24.1594 147.8 24.712C137.259 32.2648 140.154 53.5467 140.391 54.9283Z" fill="#663B13"/>
<path d="M185.648 68.3353C185.648 68.3353 186.887 63.9981 191.099 63.9735C192.16 63.8563 193.223 64.1571 194.065 64.8124C194.907 65.4676 195.462 66.426 195.613 67.4851C195.613 67.4851 192.001 63.1691 185.648 68.3353Z" fill="black"/>
<mask id="mask0_1305_54030" style="mask-type:alpha" maskUnits="userSpaceOnUse" x="116" y="108" width="124" height="159">
<path d="M116.878 221.036C117.307 226.831 119.261 240.48 119.777 242.283L122.031 255.159C129.225 257.627 145.739 263.143 154.243 265.46C164.872 268.358 195.151 265.46 208.68 265.46C222.208 265.46 213.189 248.721 220.276 247.755C227.362 246.789 233.804 213.954 233.804 205.584C233.804 197.215 241.535 160.838 238.636 153.112C235.737 145.386 211.579 120.599 208.68 118.346C206.36 116.543 187.742 110.942 174.214 108.366C163.799 111.585 145.159 110.169 143.613 112.229C142.067 114.289 132.124 130.364 126.863 138.304L123.863 146.399C120.511 155.445 118.421 164.911 117.653 174.528L116.072 194.317L116.878 221.036Z" fill="#D9D9D9"/>
</mask>
<g mask="url(#mask0_1305_54030)">
<path d="M49.3552 109.036C50.5302 110.025 51.7204 110.995 52.9261 111.946C53.9891 112.601 55.4222 113.557 56.5512 113.99C67.6286 118.271 75.2427 119.015 86.4194 114.115C86.5202 114.071 86.6207 114.026 86.7209 113.981C87.807 113.422 89.0143 112.669 90.0792 112.04C91.7742 111.019 92.5443 110.398 94.0045 109.068L94.1472 109.115C98.2306 110.446 103.259 110.781 105.67 115.278C106.413 116.662 106.511 118.454 106.981 119.635C108.519 123.496 109.966 123.791 109.396 128.048C117.584 131.406 120.912 135.347 125.061 142.958C130.162 131.789 136.67 127.397 147.825 123.233L148.583 122.951L149.752 122.526C151.647 121.666 156.738 120.558 158.959 120.033L159.009 117.832C158.987 116.527 159.093 115.039 159.156 113.72C170.513 118.993 179.028 118.426 190.351 113.443L190.086 115.994C190.118 117.554 190.114 118.657 189.993 120.209C191.972 120.611 198.45 122.566 199.865 122.625L200.843 123.154C210.81 126.762 219.012 131.197 223.779 141.31C225.024 143.976 225.953 146.778 226.55 149.659C229.113 161.627 230.908 190.599 227.213 202.435C226.186 205.721 223.896 208.486 220.782 210.028C218.409 211.203 215.215 210.933 214.396 211.536C214.317 212.463 214.293 213.139 214.285 214.061L214.326 214.994C214.42 221.984 216.182 232.314 211.633 237.686C211.791 249.802 213.972 250.095 201.561 251.483C186.093 253.303 170.481 253.574 154.959 252.292C149.893 251.883 144.841 251.31 139.812 250.572L138.614 250.465C136.593 251.043 125.113 251.018 123.371 249.877C122.34 248.339 122.642 245.804 122.669 243.902C122.671 243.336 122.644 242.833 122.614 242.267C122.217 241.579 121.15 241.245 120.4 240.785C119.645 240.222 119.389 239.192 119.139 238.335C119.177 238.31 112.817 248.01 112.298 248.774C109.566 249.384 106.876 250.212 104.12 250.711C95.8035 252.218 86.9148 252.712 78.4696 252.979C71.2769 253.207 38.5515 253.09 34.3438 249.032C33.2827 248.009 33.7102 238.956 33.667 237.095C30.7355 232.886 31.1062 229.343 31.1233 224.463C31.1365 220.648 31.1529 216.811 31.1738 212.995C20.015 213.24 12.0787 210.701 10.9838 197.764C10.5021 192.072 11.035 185.947 11.4502 180.236C12.3208 168.256 12.8145 155.622 17.3792 144.374C20.8513 136.001 26.1383 131.382 34.3686 128.087C34.2391 127.395 33.9208 125.327 34.1991 124.674C38.7705 113.948 37.1619 111.941 49.3552 109.036Z" fill="#D4B57A"/>
<path d="M168.838 184.875C170.135 184.706 171.438 184.587 172.74 184.83C173.366 184.947 173.953 185.17 174.457 185.566C174.885 185.904 175.15 186.338 175.107 186.903C175.086 187.2 174.979 187.462 174.646 187.541C174.327 187.614 174.137 187.449 173.989 187.188C173.525 186.373 172.71 186.233 171.891 186.174C170.64 186.082 169.408 186.298 168.181 186.507C164.935 187.059 161.826 188.104 158.715 189.145C157.311 189.614 155.899 190.05 154.414 190.188C154.194 190.21 153.972 190.221 153.752 190.236C153.079 190.223 152.421 190.135 151.82 189.81C151.546 189.662 151.306 189.464 151.156 189.183C151.009 188.907 151.029 188.629 151.23 188.388C151.403 188.181 151.636 188.108 151.896 188.212C153.072 188.677 154.274 188.569 155.467 188.331C157.541 187.919 159.517 187.168 161.533 186.562C163.931 185.842 166.348 185.199 168.838 184.875ZM156.192 164.384C157.236 164.33 158.215 164.474 158.955 165.314C159.488 165.92 159.682 166.654 159.655 167.438C159.6 169.083 159.078 170.548 157.877 171.723C157.61 171.983 157.303 172.193 156.921 172.252C156.493 172.319 156.185 172.165 156.037 171.818C155.891 171.479 155.968 171.176 156.317 170.912C156.964 170.426 157.355 169.774 157.597 169.02C157.927 168.217 158.068 167.399 157.788 166.551C157.746 166.424 157.696 166.298 157.593 166.202C157.414 165.836 157.088 165.715 156.716 165.687C156.14 165.643 155.62 165.832 155.137 166.119C153.744 166.949 152.67 168.113 151.741 169.414C149.98 171.88 148.697 174.561 148.164 177.562C147.99 178.545 148.039 179.528 148.355 180.479C148.979 182.353 150.571 183.146 152.455 182.547C153.631 182.173 154.619 181.486 155.538 180.694C156.574 179.802 157.541 178.836 158.442 177.806C158.688 177.524 158.884 177.215 159.015 176.864C159.327 176.023 159.647 175.185 159.966 174.346C160.292 173.629 160.614 172.913 160.944 172.198C161.677 170.608 162.515 169.077 163.509 167.635C163.91 167.052 164.368 166.518 164.965 166.131C165.402 165.847 165.876 165.633 166.425 165.738C166.925 165.834 167.198 166.115 167.304 166.611C167.409 167.115 167.282 167.589 167.125 168.059C166.743 169.189 166.135 170.2 165.466 171.177C164.04 173.253 162.46 175.204 160.584 176.89C159.978 177.436 159.765 178.106 159.486 178.854C159.709 178.806 159.772 178.666 159.862 178.562C160.808 177.48 161.656 176.309 162.736 175.344C163.291 174.848 163.889 174.455 164.678 174.495C165.32 174.8 165.496 175.148 165.402 175.928C165.308 176.694 165.006 177.398 164.728 178.106C164.444 178.827 164.161 179.549 164.008 180.312C163.971 180.491 163.916 180.686 164.102 180.82C164.286 180.952 164.459 180.85 164.62 180.762C165.199 180.446 165.587 179.933 165.977 179.426C166.638 178.566 167.185 177.633 167.691 176.675C167.87 176.338 168.066 176.012 168.254 175.681C168.659 175.219 168.987 174.69 169.447 174.274C169.929 173.842 170.439 173.462 171.069 173.276C171.923 173.023 172.618 173.352 172.971 174.162C173.013 174.26 173.006 174.414 173.14 174.422C173.272 174.43 173.289 174.278 173.337 174.185C173.435 173.997 173.556 173.828 173.723 173.696C173.911 173.547 174.124 173.501 174.347 173.604C174.58 173.716 174.636 173.932 174.627 174.163C174.615 174.437 174.514 174.69 174.408 174.941C173.942 176.043 173.37 177.094 172.867 178.177C172.654 178.636 172.48 179.112 172.461 179.625C172.453 179.795 172.465 179.974 172.509 180.137C172.612 180.522 172.858 180.601 173.169 180.359C173.414 180.17 173.59 179.911 173.769 179.662C174.555 178.559 175.34 177.451 176.004 176.269C176.437 175.497 176.808 174.69 176.835 173.771C176.845 173.42 176.954 173.087 177.229 172.842C177.496 172.608 177.805 172.546 178.118 172.723C178.421 172.893 178.464 173.183 178.395 173.497C178.387 173.532 178.379 173.568 178.369 173.604C178.197 174.234 178.212 174.271 178.86 174.445C179.192 174.533 179.53 174.595 179.829 174.788C180.282 175.081 180.463 175.491 180.407 176.016C180.367 176.389 180.236 176.732 180.069 177.065C179.739 177.726 179.405 178.386 179.081 179.051C178.901 179.418 178.784 179.811 178.753 180.219C178.716 180.711 179.012 180.911 179.455 180.688C179.871 180.48 180.175 180.133 180.481 179.796C180.988 179.24 181.444 178.642 181.874 178.025C182.219 177.529 182.247 176.933 182.377 176.376C182.885 174.194 183.651 172.106 184.625 170.093C184.7 169.94 184.754 169.774 184.817 169.615C185.399 168.617 185.901 167.569 186.574 166.625C187.056 165.951 187.567 165.303 188.328 164.914C188.491 164.832 188.662 164.756 188.838 164.706C189.983 164.38 190.737 165.023 190.632 166.217C190.544 167.203 190.191 168.112 189.788 168.997C188.468 171.903 186.764 174.551 184.414 176.748C184.253 176.899 184.079 177.037 183.914 177.185C183.085 177.926 182.82 179.474 183.354 180.461C183.607 180.928 184.031 181.101 184.618 180.951C185.207 180.802 185.694 180.465 186.126 180.053C187.43 178.809 188.422 177.327 189.353 175.798C189.686 175.252 189.983 174.683 190.304 174.129C190.432 173.907 190.563 173.681 190.803 173.549C191.002 173.438 191.206 173.42 191.399 173.543C191.589 173.662 191.629 173.859 191.595 174.063C191.512 174.571 191.265 175.017 191.031 175.463C190.4 176.66 189.724 177.836 189.285 179.125C189.159 179.5 189.052 179.88 189.09 180.282C189.124 180.652 189.364 180.8 189.709 180.654C189.82 180.608 189.931 180.541 190.021 180.461C190.783 179.785 191.389 178.981 191.919 178.117C192.247 177.746 192.514 177.336 192.71 176.884C193.138 175.893 193.736 175.018 194.444 174.21C194.746 173.867 195.123 173.61 195.471 173.318C195.935 173.121 196.393 172.912 196.919 172.93C197.822 172.959 198.412 173.547 198.433 174.453C198.452 175.311 198.143 176.06 197.577 176.675C196.612 177.725 195.449 178.392 193.957 178.248C193.641 178.217 193.512 178.317 193.464 178.621C193.408 178.975 193.36 179.328 193.387 179.687C193.442 180.439 193.901 180.882 194.653 180.909C195.401 180.936 196.05 180.645 196.66 180.256C197.391 179.79 198.041 179.227 198.604 178.564C198.801 178.331 199 178.09 199.259 177.918C199.443 177.795 199.655 177.744 199.845 177.897C200.023 178.045 200.003 178.25 199.921 178.445C199.863 178.581 199.8 178.719 199.706 178.83C198.68 180.043 197.526 181.106 196.072 181.798C195.357 182.139 194.613 182.215 193.84 182.021C193.508 181.937 193.239 181.744 192.957 181.569C192.528 181.058 192.236 180.485 192.193 179.806C192.19 179.744 192.188 179.67 192.115 179.654C192.029 179.635 191.988 179.709 191.94 179.765C191.62 180.14 191.308 180.52 190.981 180.89C190.628 181.29 190.216 181.619 189.719 181.832C188.969 182.152 188.228 181.803 187.992 181.023C187.858 180.577 187.925 180.125 187.973 179.681C187.791 179.635 187.751 179.767 187.686 179.842C187.095 180.524 186.452 181.15 185.683 181.633C185.209 181.93 184.711 182.171 184.136 182.19C183.246 182.219 182.596 181.792 182.271 180.965C182.139 180.628 182.072 180.28 182.037 179.922C182.03 179.832 182.048 179.702 181.924 179.677C181.828 179.658 181.776 179.755 181.725 179.82C181.37 180.263 180.973 180.668 180.557 181.053C180.127 181.449 179.645 181.77 179.069 181.916C178.193 182.138 177.587 181.669 177.537 180.771C177.497 180.033 177.727 179.363 178.003 178.7C178.277 178.041 178.579 177.393 178.84 176.729C179.089 176.097 178.976 175.876 178.337 175.631C177.602 175.347 177.615 175.353 177.287 176.067C176.445 177.905 175.395 179.606 173.934 181.025C173.713 181.24 173.475 181.435 173.199 181.579C172.321 182.033 171.48 181.604 171.342 180.625C171.303 180.349 171.288 180.072 171.254 179.712C171.056 179.953 170.91 180.144 170.753 180.324C170.216 180.941 169.642 181.511 168.917 181.911C167.766 182.547 166.598 182.018 166.433 180.776C166.423 180.696 166.431 180.587 166.329 180.561C166.228 180.534 166.182 180.637 166.13 180.698C165.786 181.104 165.402 181.468 164.969 181.776C164.766 181.92 164.549 182.038 164.313 182.112C163.69 182.308 163.076 181.986 162.876 181.363C162.726 180.9 162.782 180.437 162.89 179.978C163.093 179.098 163.43 178.265 163.728 177.416C163.866 177.021 163.983 176.619 164.102 176.219C164.128 176.129 164.181 176.02 164.093 175.941C163.991 175.851 163.879 175.922 163.783 175.97C163.263 176.226 162.876 176.652 162.48 177.051C161.009 178.532 159.726 180.167 158.596 181.922C158.496 182.075 158.4 182.236 158.281 182.376C158.097 182.592 157.854 182.678 157.583 182.566C157.293 182.45 157.225 182.186 157.29 181.92C157.396 181.491 157.546 181.074 157.677 180.65C157.709 180.547 157.769 180.447 157.73 180.312C157.564 180.319 157.491 180.461 157.397 180.557C156.459 181.505 155.488 182.413 154.364 183.139C153.461 183.723 152.48 184.123 151.396 184.175C148.803 184.299 146.857 182.762 146.351 180.21C145.986 178.38 146.278 176.604 146.84 174.862C147.72 172.136 149.056 169.658 150.963 167.493C151.815 166.526 152.8 165.713 153.897 165.035C154.628 164.698 155.377 164.426 156.192 164.384ZM172.282 175.455C172.271 174.633 171.78 174.319 171.093 174.637C170.799 174.773 170.544 174.964 170.312 175.19C169.445 176.035 168.804 177.039 168.278 178.119C167.981 178.73 167.751 179.369 167.678 180.051C167.649 180.334 167.634 180.646 167.889 180.832C168.15 181.022 168.432 180.9 168.689 180.764C169.108 180.54 169.47 180.242 169.778 179.888C170.502 179.058 171.103 178.141 171.646 177.187C171.964 176.627 172.211 176.039 172.282 175.455ZM197.095 175.012C197.096 174.395 196.782 174.17 196.251 174.348C196.061 174.413 195.889 174.511 195.743 174.643C195.03 175.288 194.526 176.085 194.091 176.932C193.945 177.215 194.159 177.214 194.339 177.21C195.035 177.187 195.666 176.976 196.217 176.543C196.735 176.137 197.068 175.63 197.095 175.012ZM189.257 166.104C189.092 166.016 188.948 166.112 188.812 166.2C188.382 166.48 188.05 166.861 187.747 167.267C186.105 169.462 185.005 171.932 184.063 174.481C183.885 174.968 183.754 175.468 183.656 175.978C183.641 176.048 183.617 176.135 183.689 176.177C183.764 176.225 183.827 176.153 183.885 176.113C184.188 175.897 184.445 175.631 184.685 175.35C186.392 173.344 187.677 171.077 188.732 168.677C189.034 167.991 189.305 167.288 189.408 166.555C189.391 166.379 189.429 166.197 189.257 166.104ZM165.937 167.288C165.75 167.171 165.575 167.282 165.426 167.392C165.096 167.633 164.814 167.928 164.578 168.259C163.394 169.931 162.423 171.723 161.573 173.583C161.341 174.093 161.101 174.6 160.927 175.187C161.028 175.162 161.058 175.162 161.073 175.148C161.148 175.085 161.223 175.02 161.29 174.949C162.675 173.492 163.904 171.911 164.965 170.204C165.427 169.461 165.795 168.665 166.044 167.824C166.1 167.637 166.141 167.418 165.937 167.288ZM191.87 170.066C192.396 169.779 192.958 170.024 193.107 170.606C193.244 171.141 193.083 171.605 192.695 171.98C192.431 172.237 192.096 172.356 191.739 172.18C191.34 171.979 191.208 171.618 191.224 171.189C191.245 170.705 191.431 170.306 191.87 170.066Z" fill="white"/>
</g>
<path d="M159.019 184.228C158.223 183.14 156.894 181.214 157.646 179.84C160.115 175.325 167.058 177.832 171.083 176.862C171.516 176.758 171.619 176.66 172.173 176.588L172.349 176.567C172.2 174.569 170.799 172.282 170.565 169.768C170.162 165.447 170.798 161.067 175.886 160.253C176.302 160.187 177.33 160.536 177.472 160.958C178.364 163.6 177.369 166.994 178.186 169.795C179.221 173.035 183.795 181.253 185.946 183.393L186.139 183.583C188.842 187.88 187.988 191.649 187.106 196.445C186.833 197.926 185.534 201.85 184.84 203.098C183.747 203.507 182.593 203.963 181.497 204.34C180.624 204.528 179.749 204.7 178.871 204.858C175.182 205.501 163.669 206.019 160.556 203.658C157.787 201.557 160.55 200.473 160.582 199.066C160.585 198.964 157.694 196.821 157.77 195.384C157.85 193.886 158.249 193.575 159.254 192.456L159.158 191.201C156.152 189.426 156.57 186.82 159.52 185.336L159.019 184.228Z" fill="#FEBC8A"/>
<path d="M159.158 191.202C160.165 191.203 161.245 191.076 162.045 191.642L162.101 192C161.35 192.529 161.121 192.44 160.204 192.446L159.254 192.456L159.158 191.202Z" fill="#F59C5F"/>
<path d="M159.018 184.227C160.097 184.172 161.085 184.003 162.026 184.497L162.135 184.836C161.403 185.427 160.521 185.307 159.519 185.335L159.018 184.227Z" fill="#F59C5F"/>
<path d="M159.156 113.72C170.513 118.993 179.028 118.426 190.351 113.443L190.086 115.994C190.118 117.554 190.114 118.657 189.993 120.209C191.972 120.611 198.45 122.566 199.865 122.625C198.949 125.123 198.214 127.954 196.373 129.944C187.284 139.77 170.823 141.716 159.255 135.345C153.823 132.354 150.199 128.843 149.752 122.526C151.647 121.666 156.738 120.558 158.959 120.033L159.009 117.832C158.987 116.527 159.093 115.038 159.156 113.72Z" fill="#D4B57A"/>
<path d="M159.157 113.72C170.514 118.993 179.029 118.426 190.352 113.443L190.087 115.994C190.119 117.554 190.115 118.657 189.994 120.209C189.889 121.699 189.826 125.006 189.102 126.095C179.95 131.298 169.163 131.6 159.958 126.369C158.426 124.796 158.858 122.086 158.96 120.033L159.01 117.832C158.988 116.527 159.094 115.038 159.157 113.72Z" fill="#FEBC8A"/>
<path d="M159.156 113.72C170.513 118.993 179.028 118.426 190.35 113.443L190.086 115.994C190.026 116.457 189.88 118.152 189.583 118.351C182.219 123.266 165.971 123.617 159.009 117.832C158.986 116.527 159.093 115.038 159.156 113.72Z" fill="#F59C5F"/>
<path d="M189.1 126.095C182.824 134.612 173.737 138.08 164.635 131.278C162.799 129.929 161.216 128.268 159.957 126.369C169.162 131.6 179.949 131.298 189.1 126.095Z" fill="white"/>
<path d="M137.961 241.142C138.28 237.492 137.952 234.26 138.014 230.643L138.776 158.425C138.796 157.413 138.774 155.891 139.234 155.043L139.646 154.825C141.322 155.689 140.888 160.736 140.902 162.553C140.921 165.237 140.861 167.966 140.851 170.654C140.927 184.574 140.881 198.494 140.714 212.413C140.669 216.696 140.582 220.979 140.453 225.261C140.33 228.557 140.096 232.136 140.264 235.408C140.448 238.969 147.803 239.515 150.615 239.844C167.947 241.873 185.837 241.565 203.137 239.39C204.937 239.161 206.73 238.989 208.491 238.613C209.552 238.387 210.337 237.659 211.205 237.758L211.219 238.508C207.136 242.599 179.568 243.171 173.126 243.167C163.377 243.162 149.58 242.278 140.216 239.967C140.205 243.581 140.241 246.965 139.813 250.571L138.615 250.465C136.593 251.042 125.113 251.017 123.371 249.877C122.34 248.339 122.642 245.804 122.669 243.901C122.671 243.335 122.645 242.832 122.614 242.266C122.218 241.578 121.15 241.244 120.4 240.785C124.165 241.646 134.12 241.423 137.961 241.142Z" fill="#C8A663"/>
<path d="M207.751 183.418C207.861 180.614 208.618 155.821 208.963 155.001L209.534 154.598C209.907 154.708 209.954 154.637 210.162 155.009C211.658 157.674 209.981 179.307 209.664 183.644C211.37 183.97 215.743 184.416 216.517 185.502L216.442 186.043C215.016 187.017 209.852 185.33 208.038 185.239C201.648 184.917 194.874 183.157 188.582 182.714C190.607 189.042 188.687 199.601 185.755 205.405C194.374 208.606 204.802 210.608 214.013 211.085C214.096 212.018 214.165 213.15 214.285 214.061L214.325 214.994C206.909 214.688 188.228 210.761 182.316 206.484L181.496 204.341C182.592 203.963 183.746 203.507 184.839 203.098C185.533 201.851 186.832 197.926 187.105 196.445C187.987 191.649 188.841 187.88 186.138 183.583C186.33 182.82 186.447 181.895 186.973 181.382C189.551 180.756 203.872 183.059 207.751 183.418Z" fill="#C8A663"/>
<path d="M148.582 122.951L149.752 122.525C150.198 128.843 153.822 132.353 159.254 135.345C170.823 141.715 187.284 139.77 196.373 129.943C198.213 127.954 198.949 125.123 199.865 122.625L200.842 123.153C200.625 126.31 199.212 129.888 196.905 132.125C185.449 143.226 164.83 143.727 152.863 133.14C149.644 130.293 148.667 127.03 148.582 122.951Z" fill="#C8A663"/>
<path d="M191.979 112.983L194.661 111.264L194.844 111.347C199.558 113.437 205.516 114.113 207.433 119.796C208.476 122.881 208.534 123.651 208.283 126.755C203.078 134.713 187.109 137.871 178.456 139.695C177.352 139.928 175.619 140.568 174.613 140.176C175.426 139.821 179.051 135.478 180.216 134.403C183.039 131.799 185.971 129.407 188.657 126.673C188.937 126.458 189.214 126.238 189.488 126.015C190.284 123.315 190.084 120.706 190.069 117.887C190.054 116.713 189.924 115.366 189.837 114.179L191.979 112.983Z" fill="#D4B57A"/>
<path d="M157.142 112.983L154.46 111.264L154.277 111.347C149.563 113.437 143.605 114.113 141.688 119.796C140.645 122.881 140.587 123.651 140.838 126.755C146.043 134.713 162.012 137.871 170.665 139.695C171.769 139.928 173.502 140.568 174.508 140.176C173.695 139.821 170.07 135.478 168.905 134.403C166.082 131.799 163.15 129.407 160.464 126.673C160.184 126.458 159.907 126.238 159.633 126.015C158.837 123.315 159.037 120.706 159.052 117.887C159.067 116.713 159.197 115.366 159.284 114.179L157.142 112.983Z" fill="#D4B57A"/>
<path d="M189.837 114.18L191.98 112.983C195.286 114.711 198.454 116.485 195.991 120.639C194.994 122.322 191.278 125.541 189.488 126.015C190.285 123.316 190.085 120.706 190.07 117.887C190.055 116.714 189.925 115.366 189.837 114.18Z" fill="#C8A663"/>
<path d="M159.284 114.18L157.141 112.983C153.835 114.711 150.667 116.485 153.13 120.639C154.127 122.322 157.843 125.541 159.633 126.015C158.836 123.316 159.037 120.706 159.051 117.887C159.066 116.714 159.196 115.366 159.284 114.18Z" fill="#C8A663"/>
<path d="M206.995 126.755L208.222 127.212C205.88 133.689 190.448 139.375 183.936 139.668C182.88 139.546 182.602 139.583 181.588 139.699C181.413 140.039 181.329 140.126 181.1 140.439C178.571 141.293 169.611 141.182 166.683 140.726C165.593 140.556 165.514 140.447 165.068 139.711C164.104 139.519 163.646 139.617 162.691 139.729L162.425 139.725C158.112 139.634 137.613 132.743 139.879 127.179C141.367 128.371 142.289 129.585 143.957 130.704C150.875 135.347 159.18 137.9 167.337 139.268C169 139.547 171.266 140.528 172.433 140.534L173.144 140.116L173.325 140.175C174.331 140.567 176.064 139.927 177.168 139.694C185.821 137.87 201.789 134.712 206.995 126.755Z" fill="#C8A663"/>
<path d="M160.686 127.075C161.522 127.45 162.365 127.808 163.216 128.151C172.637 131.87 180.591 129.949 189.354 126.394C186.582 129.131 183.557 131.526 180.644 134.134C179.441 135.21 175.701 139.559 174.862 139.914L174.676 139.855C171.144 135.554 164.823 131.131 160.686 127.075Z" fill="white"/>
</g>
<defs>
<clipPath id="clip0_1305_54030">
<rect width="250" height="232" fill="white"/>
</clipPath>
</defs>
</svg>
