<svg width="45" height="31" viewBox="0 0 45 31" fill="none" xmlns="http://www.w3.org/2000/svg">
<rect x="0.5" y="0.5" width="44" height="29.8571" rx="3.5" fill="white" stroke="#DDDFE3"/>
<path d="M35.3535 18.4104H35.377L37.2529 13.7004H38.5723L34.5176 23.1428H33.2666L34.7734 19.8401L32.1133 13.7004H33.4326L35.3535 18.4104ZM29.0068 13.4866C29.9034 13.4866 30.6119 13.7307 31.1318 14.2122C31.6518 14.6938 31.9082 15.3674 31.9082 16.2161V20.26H30.748V19.3508H30.6943C30.1895 20.0998 29.5267 20.4748 28.6904 20.4749C27.9821 20.4749 27.3791 20.2604 26.9043 19.8323C26.4371 19.4347 26.1735 18.8461 26.1885 18.2268C26.1885 17.5463 26.4443 17.0109 26.9492 16.6057C27.4542 16.2005 28.1325 16.0012 28.9766 16.0012C29.7 16.0012 30.2876 16.1397 30.7549 16.3997V16.1165C30.7549 15.6959 30.5743 15.298 30.2578 15.0227C29.9338 14.7323 29.5193 14.5716 29.0898 14.5715C28.4116 14.5715 27.8763 14.8625 27.4844 15.4436L26.4141 14.7629C26.9868 13.9143 27.8538 13.4866 29.0068 13.4866ZM23.2568 10.6731C24.033 10.6578 24.7868 10.9557 25.3369 11.5061C26.4372 12.5459 26.5051 14.2972 25.4727 15.4211L25.3369 15.5588C24.7717 16.1015 24.0782 16.3762 23.2568 16.3762H21.252V20.261H20.0391V10.6731H23.2568ZM29.1641 16.9954C28.6743 16.9954 28.2593 17.1179 27.9277 17.3547C27.6038 17.5917 27.4376 17.8901 27.4375 18.2493C27.4375 18.5704 27.5882 18.8695 27.8369 19.053C28.1082 19.267 28.4402 19.3809 28.7793 19.3733C29.2918 19.3733 29.7818 19.167 30.1436 18.8C30.543 18.4178 30.7461 17.9664 30.7461 17.4465C30.3693 17.141 29.842 16.9878 29.1641 16.9954ZM21.2539 15.1995H23.2891C23.7413 15.2147 24.1783 15.0311 24.4873 14.7024C25.1204 14.0373 25.1058 12.9667 24.4502 12.3245C24.1412 12.0186 23.7262 11.8508 23.2891 11.8508H21.2539V15.1995Z" fill="#3C4043"/>
<path d="M17.067 15.5352C17.067 15.1606 17.0368 14.7859 16.9765 14.4189H11.8594V16.5368H14.791C14.6704 17.2173 14.2785 17.829 13.7058 18.2113V19.5875H15.4542C16.4791 18.6318 17.067 17.2173 17.067 15.5352Z" fill="#4285F4"/>
<path d="M11.8576 20.9181C13.3196 20.9181 14.5555 20.4288 15.4524 19.5878L13.7039 18.2115C13.2141 18.5479 12.5886 18.7391 11.8576 18.7391C10.4407 18.7391 9.24246 17.7681 8.81289 16.4683H7.01172V17.8904C7.93115 19.7483 9.80768 20.9181 11.8576 20.9181Z" fill="#34A853"/>
<path d="M8.81342 16.4681C8.58729 15.7876 8.58729 15.046 8.81342 14.3578V12.9434H7.01196C6.2356 14.4955 6.2356 16.3305 7.01196 17.8826L8.81342 16.4681Z" fill="#FBBC04"/>
<path d="M11.8576 12.0871C12.6338 12.0718 13.3799 12.37 13.9376 12.9129L15.49 11.3378C14.5028 10.405 13.2065 9.89276 11.8576 9.90805C9.80768 9.90805 7.93115 11.0855 7.01172 12.9434L8.81289 14.3656C9.24246 13.0581 10.4407 12.0871 11.8576 12.0871Z" fill="#EA4335"/>
</svg>
