<svg width="45" height="31" viewBox="0 0 45 31" fill="none" xmlns="http://www.w3.org/2000/svg">
<rect x="0.5" y="0.5" width="44" height="29.8571" rx="3.5" fill="white" stroke="#DDDFE3"/>
<path d="M28.9346 11.4951C30.5282 11.4953 32.0309 12.9301 32.04 15.5645C32.04 18.4444 30.555 19.7529 28.9248 19.7529C28.1238 19.7528 27.6413 19.4168 27.3135 19.1807L27.3037 21.752L25.0273 22.2334V11.6396H27.0312L27.1494 12.2031C27.4682 11.9124 28.0422 11.4951 28.9346 11.4951ZM9.50781 11.4951C10.2637 11.4951 11.0107 11.6133 11.7666 11.9131V14.0479C11.0745 13.6754 10.2 13.4658 9.50781 13.4658C9.02517 13.4658 8.7334 13.6027 8.7334 13.957C8.73377 14.9743 12.2038 14.493 12.2129 17.2002C12.2129 18.8264 10.9099 19.7617 9.01562 19.7617C8.23263 19.7617 7.37697 19.6074 6.53027 19.2441V17.082C7.29507 17.4998 8.2599 17.8085 9.01562 17.8086C9.52555 17.8086 9.89051 17.6726 9.89062 17.2549C9.89062 16.1738 6.42969 16.5729 6.42969 14.0654C6.42992 12.4577 7.65927 11.4951 9.50781 11.4951ZM14.8818 11.6494H16.6123V13.584H14.8818V16.8096C14.882 18.1533 16.32 17.7365 16.6123 17.6182V19.4619C16.3117 19.6254 15.7652 19.7617 15.0186 19.7617C13.6709 19.7615 12.6602 18.7712 12.6602 17.4268L12.6689 10.1504L14.8916 9.67773L14.8818 11.6494ZM35.9277 11.4951C38.0861 11.4951 39.2157 13.3297 39.2158 15.6553C39.2158 15.8732 39.1973 16.3454 39.1973 16.4639H34.7441C34.8443 17.5358 35.6275 17.8447 36.5107 17.8447C37.4122 17.8447 38.123 17.6545 38.7422 17.3457V19.1621C38.1229 19.5073 37.3034 19.7529 36.2197 19.7529C33.9977 19.7529 32.4494 18.372 32.4492 15.6377C32.4492 13.3303 33.7605 11.4954 35.9277 11.4951ZM19.4453 12.3213C19.9826 11.3406 21.0472 11.5404 21.3389 11.6494V13.7383C21.0561 13.6384 20.1455 13.5117 19.6084 14.2109V19.5986H17.332V11.6494H19.2988L19.4453 12.3213ZM24.1807 19.5986H21.8945V11.6494H24.1807V19.5986ZM28.3887 13.5117C27.8697 13.5117 27.5415 13.6927 27.3047 13.9561L27.3135 17.3271C27.532 17.5634 27.8513 17.7539 28.3887 17.7539C29.2264 17.7537 29.791 16.8452 29.791 15.6279C29.791 14.438 29.2173 13.5119 28.3887 13.5117ZM35.9209 13.3389C35.3472 13.3389 34.7189 13.7657 34.7188 14.792H37.0684C37.0682 13.7657 36.4764 13.3389 35.9209 13.3389ZM24.1807 10.4678L21.8945 10.959V9.10547L24.1807 8.62402V10.4678Z" fill="#6461FC"/>
</svg>
