<svg width="45" height="31" viewBox="0 0 45 31" fill="none" xmlns="http://www.w3.org/2000/svg">
<rect x="0.5" y="0.5" width="44" height="29.8571" rx="3.5" fill="white" stroke="#DDDFE3"/>
<path fill-rule="evenodd" clip-rule="evenodd" d="M10.7306 11.4852C11.335 11.5362 11.9393 11.1794 12.317 10.7269C12.6884 10.2617 12.934 9.63724 12.871 9C12.3359 9.02549 11.6749 9.35685 11.2972 9.82204C10.951 10.2235 10.6551 10.8735 10.7306 11.4852ZM17.9219 19.6928V9.7583H21.6046C23.5057 9.7583 24.834 11.0838 24.834 13.021C24.834 14.9582 23.4805 16.2964 21.5542 16.2964H19.4453V19.6928H17.9219ZM12.866 11.6063C12.3336 11.5753 11.8478 11.7684 11.4554 11.9244C11.2029 12.0247 10.989 12.1097 10.8263 12.1097C10.6438 12.1097 10.4211 12.0202 10.1711 11.9197C9.84353 11.7879 9.46901 11.6373 9.07627 11.6445C8.17606 11.6573 7.3388 12.1735 6.87925 12.9955C5.93497 14.6396 6.63374 17.0738 7.54654 18.412C7.9935 19.0747 8.52859 19.8012 9.23365 19.7757C9.54383 19.7639 9.76696 19.668 9.99788 19.5688C10.2637 19.4546 10.5399 19.336 10.9711 19.336C11.3874 19.336 11.6515 19.4516 11.905 19.5625C12.1461 19.6679 12.3775 19.7692 12.7212 19.763C13.4514 19.7502 13.911 19.1002 14.3579 18.4375C14.8403 17.7262 15.0522 17.032 15.0844 16.9267L15.0882 16.9145C15.0874 16.9137 15.0815 16.911 15.071 16.9061L15.0709 16.9061C14.9097 16.8314 13.6773 16.2603 13.6655 14.7288C13.6536 13.4433 14.643 12.792 14.7987 12.6895L14.7987 12.6895C14.8082 12.6833 14.8146 12.6791 14.8175 12.6769C14.188 11.7338 13.2059 11.6318 12.866 11.6063ZM27.6157 19.7693C28.5726 19.7693 29.4602 19.2786 29.8631 18.5012H29.8946V19.6928H31.3047V14.7479C31.3047 13.3141 30.1716 12.3901 28.4278 12.3901C26.8099 12.3901 25.6139 13.3268 25.5698 14.614H26.9421C27.0555 14.0023 27.6157 13.6008 28.3837 13.6008C29.3154 13.6008 29.8379 14.0405 29.8379 14.8498V15.3978L27.9368 15.5125C26.1678 15.6209 25.211 16.3537 25.211 17.6282C25.211 18.9154 26.1993 19.7693 27.6157 19.7693ZM28.0236 18.5904C27.2115 18.5904 26.6953 18.1953 26.6953 17.5899C26.6953 16.9654 27.1926 16.6022 28.1432 16.5449L29.8366 16.4365V16.9973C29.8366 17.9277 29.056 18.5904 28.0236 18.5904ZM35.9801 20.0817C35.3695 21.8214 34.6707 22.3949 33.185 22.3949C33.0717 22.3949 32.694 22.3822 32.6059 22.3567V21.165C32.7003 21.1778 32.9332 21.1905 33.0528 21.1905C33.7264 21.1905 34.1041 20.9038 34.3371 20.1582L34.4756 19.7185L31.8945 12.4858H33.4872L35.2813 18.3548H35.3128L37.1069 12.4858H38.6556L35.9801 20.0817ZM19.4453 11.0581H21.2017C22.5237 11.0581 23.2791 11.7718 23.2791 13.0272C23.2791 14.2825 22.5237 15.0026 21.1954 15.0026H19.4453V11.0581Z" fill="black"/>
</svg>
