<svg width="45" height="31" viewBox="0 0 45 31" fill="none" xmlns="http://www.w3.org/2000/svg">
<rect x="0.5" y="0.5" width="44" height="29.8571" rx="3.5" fill="white" stroke="#DDDFE3"/>
<path d="M28.5117 6.42871C33.357 6.42872 37.285 10.4022 37.2852 15.3037C37.2852 20.2054 33.3571 24.1797 28.5117 24.1797C26.3392 24.1797 24.3526 23.3788 22.8203 22.0557C21.288 23.3788 19.3014 24.1797 17.1289 24.1797C12.2835 24.1797 8.35547 20.2054 8.35547 15.3037C8.35561 10.4022 12.2836 6.42871 17.1289 6.42871C19.3013 6.42872 21.2881 7.22879 22.8203 8.55176C24.3526 7.2288 26.3394 6.42871 28.5117 6.42871Z" fill="#ED0006"/>
<path d="M28.5117 6.42871C33.357 6.42872 37.285 10.4022 37.2852 15.3037C37.2852 20.2054 33.3571 24.1797 28.5117 24.1797C26.3392 24.1797 24.3526 23.3788 22.8203 22.0557C24.7056 20.4278 25.9023 18.0077 25.9023 15.3037C25.9023 12.5997 24.7056 10.1796 22.8203 8.55176C24.3526 7.2288 26.3394 6.42871 28.5117 6.42871Z" fill="#F9A000"/>
<path d="M22.8203 8.55127C24.7058 10.1791 25.9023 12.6 25.9023 15.3042C25.9023 18.0079 24.7054 20.4273 22.8203 22.0552C20.9352 20.4274 19.7384 18.0079 19.7383 15.3042C19.7383 12.6 20.9348 10.1791 22.8203 8.55127Z" fill="#FF5E00"/>
</svg>
