<svg width="45" height="31" viewBox="0 0 45 31" fill="none" xmlns="http://www.w3.org/2000/svg">
<rect x="0.5" y="0.5" width="44" height="30" rx="3.5" fill="white" stroke="#DDDFE3"/>
<path fill-rule="evenodd" clip-rule="evenodd" d="M13.6605 21.0001H10.9344L8.8901 13.165C8.79307 12.8046 8.58705 12.4859 8.284 12.3358C7.5277 11.9584 6.69431 11.658 5.78516 11.5066V11.2049H10.1767C10.7828 11.2049 11.2374 11.658 11.3132 12.1843L12.3739 17.836L15.0986 11.2049H17.749L13.6605 21.0001ZM19.266 21.0002H16.6914L18.8114 11.2051H21.386L19.266 21.0002ZM24.7152 13.9185C24.791 13.3909 25.2455 13.0893 25.7759 13.0893C26.6093 13.0135 27.5171 13.165 28.2747 13.5411L28.7293 11.4321C27.9717 11.1305 27.1383 10.979 26.382 10.979C23.8831 10.979 22.0648 12.3358 22.0648 14.2188C22.0648 15.6513 23.3528 16.4035 24.262 16.8566C25.2455 17.3084 25.6244 17.6101 25.5486 18.0619C25.5486 18.7397 24.791 19.0413 24.0347 19.0413C23.1255 19.0413 22.2164 18.8154 21.3843 18.438L20.9297 20.5483C21.8389 20.9243 22.8225 21.0758 23.7316 21.0758C26.5335 21.1503 28.2747 19.7948 28.2747 17.7603C28.2747 15.1982 24.7152 15.048 24.7152 13.9185ZM37.2854 21.0002L35.2412 11.2051H33.0454C32.5908 11.2051 32.1362 11.5067 31.9847 11.9586L28.1992 21.0002H30.8496L31.3786 19.569H34.6351L34.9381 21.0002H37.2854ZM33.4223 13.8428L34.1786 17.5344H32.0586L33.4223 13.8428Z" fill="#172B85"/>
</svg>
