<svg width="46" height="46" viewBox="0 0 46 46" fill="none" xmlns="http://www.w3.org/2000/svg">
<path d="M23 19.168C16.9299 19.168 11.8009 24.4685 10.1449 31.2765C9.41658 34.2703 10.5148 37.4482 13.2106 38.9413C15.3477 40.1248 18.5265 41.2096 23 41.2096C27.4735 41.2096 30.6532 40.1248 32.7903 38.9413C35.4861 37.4482 36.5834 34.2703 35.8551 31.2765C34.1991 24.4676 29.0701 19.168 23 19.168ZM2.875 17.6768C2.875 20.3237 4.59042 23.0013 6.70833 23.0013C8.82625 23.0013 10.5417 20.3237 10.5417 17.6768C10.5417 15.0299 8.82625 13.418 6.70833 13.418C4.59042 13.418 2.875 15.0308 2.875 17.6768ZM43.125 17.6768C43.125 20.3237 41.4096 23.0013 39.2917 23.0013C37.1737 23.0013 35.4583 20.3237 35.4583 17.6768C35.4583 15.0299 37.1737 13.418 39.2917 13.418C41.4096 13.418 43.125 15.0308 43.125 17.6768ZM12.9375 9.0518C12.9375 11.6987 14.6529 14.3763 16.7708 14.3763C18.8887 14.3763 20.6042 11.6987 20.6042 9.0518C20.6042 6.40489 18.8887 4.79297 16.7708 4.79297C14.6529 4.79297 12.9375 6.40584 12.9375 9.0518ZM33.0625 9.0518C33.0625 11.6987 31.3471 14.3763 29.2292 14.3763C27.1112 14.3763 25.3958 11.6987 25.3958 9.0518C25.3958 6.40489 27.1112 4.79297 29.2292 4.79297C31.3471 4.79297 33.0625 6.40584 33.0625 9.0518Z" stroke="black" stroke-width="3" stroke-linecap="round" stroke-linejoin="round"/>
</svg>
