<svg width="204" height="237" viewBox="0 0 204 237" fill="none" xmlns="http://www.w3.org/2000/svg">
<g clip-path="url(#clip0_1305_54150)">
<path d="M173.161 122.151C173.426 121.458 173.655 120.079 173.734 117.451C173.735 117.447 173.735 117.447 173.736 117.442C173.736 117.403 173.74 117.366 173.74 117.327C173.865 112.512 174.888 107.222 175.3 103.7C175.343 103.705 175.386 103.711 175.424 103.715C175.73 103.747 176.043 103.727 176.343 103.66C176.617 103.602 176.643 103.289 176.531 103.083C181.211 102.08 188.809 100.86 184.897 97.0461C181.632 93.8596 154.19 72.8696 143.714 68.0756C143.612 68.0313 143.52 67.9892 143.422 67.9461C143.378 67.9256 143.329 67.904 143.285 67.8835C143.13 67.8165 142.979 67.7506 142.831 67.6949C142.826 67.6938 142.822 67.6927 142.814 67.6858C142.541 67.5756 142.285 67.4791 142.04 67.3996C142.031 67.3974 142.021 67.3951 142.012 67.3928C141.776 67.3156 141.556 67.2521 141.352 67.2068C141.342 67.2045 141.328 67.2011 141.319 67.1989C141.119 67.1547 140.94 67.1253 140.773 67.1084C140.763 67.1062 140.753 67.1085 140.739 67.1051C140.657 67.0995 140.585 67.0962 140.511 67.0974C140.506 67.0963 140.496 67.0986 140.491 67.0974C140.427 67.1009 140.367 67.1056 140.306 67.1148C140.295 67.1171 140.286 67.1148 140.28 67.1182C140.219 67.1275 140.167 67.1435 140.113 67.1641C140.102 67.1664 140.097 67.1698 140.086 67.1721C140.043 67.1904 139.998 67.2133 139.958 67.2373C139.952 67.2407 139.946 67.2441 139.941 67.2476C139.899 67.2761 139.863 67.3058 139.835 67.3423C139.828 67.3503 139.821 67.3583 139.814 67.3663C139.786 67.4028 139.762 67.4405 139.743 67.4793C139.742 67.4838 139.736 67.4873 139.735 67.4918C139.715 67.5352 139.697 67.5888 139.688 67.6447C139.685 67.6584 139.682 67.672 139.68 67.6812C139.671 67.737 139.661 67.7975 139.661 67.8602C139.661 67.8602 143.008 116.517 149.225 114.117C150.828 113.5 152.332 112.931 153.719 112.397C153.879 112.629 154.18 112.805 154.433 112.707C154.601 112.642 154.763 112.58 154.929 112.52C158.751 116.524 170.523 122.307 172.362 122.704C172.375 122.712 172.388 122.72 172.4 122.728C172.408 122.735 172.422 122.738 172.432 122.741C172.436 122.742 172.441 122.743 172.444 122.749C172.485 122.763 172.527 122.774 172.569 122.779C172.674 122.892 172.806 122.977 172.95 123.008C173.187 123.061 173.386 122.907 173.309 122.656C173.27 122.492 173.213 122.323 173.161 122.151Z" fill="#BDBDBD"/>
<path d="M175.272 127.663C175.254 127.634 175.236 127.606 175.223 127.578C175.22 127.573 175.216 127.567 175.217 127.562C175.187 127.507 175.156 127.451 175.125 127.395C175.065 127.279 175.006 127.158 174.948 127.032C174.729 126.558 174.564 126.064 174.44 125.56C174.413 125.447 174.266 125.329 174.176 125.273C174.057 125.196 173.887 125.13 173.742 125.123C173.625 125.119 173.496 125.126 173.407 125.21C173.325 125.287 173.332 125.38 173.356 125.483C173.61 126.545 174.087 127.556 174.731 128.443C174.889 128.661 175.233 128.822 175.504 128.773C175.75 128.727 175.856 128.531 175.703 128.314C175.548 128.102 175.404 127.888 175.272 127.663Z" fill="#BDBDBD"/>
<path d="M179.757 130.834C179.675 130.829 179.596 130.814 179.515 130.804C179.497 130.799 179.483 130.796 179.464 130.791C179.432 130.784 179.395 130.775 179.362 130.767C179.284 130.747 179.202 130.722 179.124 130.699C179.084 130.684 179.048 130.67 179.007 130.656C178.99 130.646 178.863 130.606 178.962 130.64C178.808 130.587 178.659 130.498 178.522 130.416C178.453 130.375 178.381 130.329 178.315 130.279C178.286 130.257 178.257 130.235 178.232 130.215C178.216 130.201 178.203 130.193 178.187 130.18C178.184 130.174 178.174 130.172 178.166 130.165C177.962 129.994 177.647 130.004 177.408 130.1C177.295 130.145 177.157 130.207 177.093 130.312C177.052 130.379 177.01 130.494 177.087 130.561C177.709 131.085 178.466 131.401 179.279 131.479C179.428 131.492 179.594 131.47 179.73 131.416C179.832 131.378 179.982 131.304 180.045 131.204C180.196 130.985 179.963 130.856 179.757 130.834Z" fill="#BDBDBD"/>
<path d="M186.604 129.593C186.36 129.466 185.981 129.474 185.768 129.668C185.698 129.733 185.624 129.797 185.546 129.855C185.511 129.881 185.475 129.906 185.44 129.931L185.388 129.962C185.302 130.013 185.219 130.055 185.131 130.096C185.092 130.116 185.048 130.134 185.004 130.152C184.993 130.159 184.978 130.161 184.967 130.167C184.881 130.199 184.791 130.226 184.702 130.248C184.666 130.258 184.63 130.264 184.593 130.274C184.583 130.276 184.573 130.278 184.562 130.281L184.541 130.285C184.445 130.3 184.349 130.311 184.25 130.315C184.196 130.317 184.017 130.307 184.225 130.319C184.172 130.315 184.122 130.318 184.069 130.315C183.915 130.306 183.753 130.324 183.618 130.397C183.523 130.446 183.395 130.55 183.374 130.661C183.318 130.932 183.595 131.106 183.837 131.117C184.86 131.18 185.906 130.861 186.66 130.172C186.742 130.095 186.816 129.993 186.805 129.874C186.792 129.745 186.704 129.642 186.604 129.593Z" fill="#BDBDBD"/>
<path d="M188.433 123.161C188.437 123.264 188.436 123.37 188.441 123.473C188.444 123.483 188.442 123.487 188.44 123.497C188.439 123.501 188.438 123.506 188.439 123.521C188.437 123.573 188.434 123.626 188.426 123.677C188.408 123.875 188.379 124.076 188.333 124.268C188.309 124.369 188.285 124.469 188.256 124.568C188.252 124.582 188.25 124.591 188.249 124.596C188.248 124.6 188.247 124.605 188.245 124.614C188.226 124.672 188.203 124.725 188.184 124.783C188.079 125.057 188.197 125.381 188.459 125.537C188.67 125.661 189.065 125.709 189.175 125.417C189.513 124.543 189.619 123.592 189.439 122.668C189.385 122.384 189.166 122.093 188.847 122.073C188.581 122.056 188.298 122.253 188.36 122.548C188.391 122.745 188.419 122.955 188.433 123.161Z" fill="#BDBDBD"/>
<path d="M185.583 118.854C185.676 118.973 185.785 119.053 185.919 119.124C186.315 119.332 186.707 119.534 187.102 119.742C187.189 119.788 187.336 119.79 187.414 119.727C187.502 119.667 187.529 119.538 187.518 119.439C187.504 119.295 187.444 119.155 187.354 119.041C187.261 118.922 187.152 118.842 187.018 118.771C186.622 118.563 186.23 118.361 185.835 118.153C185.748 118.107 185.601 118.105 185.523 118.168C185.435 118.228 185.409 118.357 185.419 118.456C185.435 118.595 185.493 118.74 185.583 118.854Z" fill="#BDBDBD"/>
<path d="M181.233 121.349C181.476 121.481 181.819 121.502 181.988 121.249C182.293 120.777 182.603 120.302 182.908 119.831C183.065 119.584 182.866 119.25 182.637 119.122C182.395 118.99 182.052 118.968 181.883 119.222C181.578 119.693 181.268 120.168 180.963 120.64C180.806 120.887 181.003 121.225 181.233 121.349Z" fill="#BDBDBD"/>
<path d="M180.958 126.799C180.901 126.321 180.879 125.842 180.886 125.365C180.889 125.109 180.758 124.816 180.614 124.602C180.563 124.527 180.329 124.237 180.326 124.493C180.313 125.587 180.451 126.685 180.714 127.75C180.773 127.992 180.895 128.302 181.096 128.467C181.293 128.627 181.235 128.274 181.212 128.186C181.099 127.738 181.019 127.298 180.958 126.799Z" fill="#BDBDBD"/>
<path d="M183.039 132.311C182.981 132.263 182.822 132.253 182.765 132.249C182.616 132.237 182.458 132.241 182.307 132.258C182.252 132.263 181.791 132.329 181.904 132.429C182.364 132.836 182.824 133.243 183.284 133.65C183.341 133.698 183.5 133.708 183.558 133.712C183.707 133.725 183.865 133.72 184.015 133.704C184.071 133.698 184.532 133.633 184.419 133.532C183.959 133.125 183.499 132.718 183.039 132.311Z" fill="#BDBDBD"/>
<path d="M187.325 136.618C186.955 136.18 186.586 135.737 186.217 135.299C186.144 135.213 186.035 135.119 185.918 135.114C185.812 135.108 185.714 135.171 185.667 135.261C185.544 135.511 185.632 135.856 185.803 136.062C186.172 136.5 186.541 136.943 186.911 137.382C186.983 137.467 187.093 137.562 187.209 137.566C187.315 137.573 187.414 137.51 187.46 137.42C187.587 137.176 187.5 136.826 187.325 136.618Z" fill="#BDBDBD"/>
<path d="M187.505 141.813C187.417 141.975 187.872 141.961 187.941 141.958C188.095 141.952 188.247 141.931 188.394 141.89C188.469 141.865 188.612 141.837 188.654 141.765C189.032 141.07 189.07 140.224 188.729 139.502C188.695 139.436 188.606 139.419 188.539 139.412C188.408 139.39 188.249 139.394 188.117 139.415C188.062 139.421 187.486 139.512 187.548 139.638C187.873 140.327 187.866 141.152 187.505 141.813Z" fill="#BDBDBD"/>
<path d="M188.197 143.877C188.087 143.825 187.929 143.83 187.815 143.855C187.573 143.903 187.264 144.025 187.192 144.283C186.951 145.143 186.583 145.957 186.107 146.711C185.964 146.937 186.266 147.049 186.445 147.04C186.712 147.028 187.033 146.918 187.178 146.683C187.687 145.874 188.07 144.996 188.326 144.077C188.356 143.993 188.268 143.908 188.197 143.877Z" fill="#BDBDBD"/>
<path d="M184.718 147.486C184.459 147.301 184.122 147.359 183.891 147.544C183.879 147.555 183.862 147.565 183.849 147.577C183.75 147.644 183.642 147.705 183.532 147.755C183.43 147.793 183.325 147.82 183.221 147.848C183.155 147.856 183.089 147.864 183.024 147.872C182.875 147.879 182.712 147.945 182.6 148.044C182.511 148.128 182.42 148.265 182.422 148.396C182.425 148.527 182.477 148.656 182.59 148.737C182.708 148.819 182.85 148.858 182.994 148.85C183.624 148.816 184.227 148.573 184.708 148.179C184.916 148.007 184.952 147.654 184.718 147.486Z" fill="#BDBDBD"/>
<path d="M183.928 98.5036C178.975 94.2514 173.883 90.1533 168.656 86.2298C163.433 82.3076 158.077 78.5508 152.605 74.9733C149.723 73.0884 146.808 71.2582 143.867 69.4749C143.813 69.0075 143.764 68.5412 143.724 68.0772C143.622 68.0329 143.529 67.9908 143.432 67.9477C143.388 67.9272 143.339 67.9056 143.295 67.8852C143.14 67.8181 142.989 67.7522 142.841 67.6966L142.823 67.6875C142.551 67.5773 142.295 67.4808 142.05 67.4014L142.022 67.3946C141.786 67.3174 141.566 67.2539 141.361 67.2086L141.329 67.2007C141.129 67.1565 140.95 67.1271 140.782 67.1103L140.749 67.1069C140.667 67.1014 140.594 67.098 140.52 67.0993L140.501 67.0993C140.436 67.1029 140.376 67.1075 140.315 67.1167L140.29 67.1202C140.229 67.1294 140.176 67.1454 140.122 67.1661L140.096 67.1741C140.052 67.1924 140.008 67.2153 139.968 67.2393L139.95 67.2496C139.909 67.2781 139.873 67.3078 139.844 67.3444L139.824 67.3683C139.795 67.4049 139.772 67.4425 139.752 67.4813L139.745 67.4939C139.724 67.5373 139.707 67.5909 139.698 67.6468L139.689 67.6833C139.681 67.7391 139.671 67.7996 139.671 67.8623C139.671 67.8623 143.011 116.525 149.227 114.124C150.831 113.507 152.335 112.938 153.722 112.403C153.882 112.636 154.183 112.811 154.436 112.714C154.604 112.648 154.766 112.587 154.932 112.526C158.754 116.53 170.524 122.312 172.363 122.71L172.401 122.734L172.433 122.746L172.445 122.754C172.486 122.769 172.528 122.779 172.57 122.785C172.675 122.897 172.807 122.983 172.951 123.013C173.188 123.066 173.387 122.912 173.31 122.661C173.259 122.489 173.206 122.322 173.15 122.149C173.415 121.455 173.644 120.076 173.723 117.448L173.725 117.438C172.535 116.625 171.362 115.777 170.215 114.907C169.293 112.917 168.365 110.936 167.475 108.935C166.926 107.694 166.367 106.456 165.792 105.223C165.698 104.861 165.553 104.507 165.394 104.169C164.96 103.246 164.371 102.396 163.772 101.568C162.817 100.247 161.797 98.9679 160.806 97.6719C159.676 96.2016 158.562 94.7256 157.473 93.2267C156.552 91.9625 155.646 90.6822 154.807 89.3654C154.479 88.8551 154.163 88.3379 153.874 87.8082C153.762 87.6019 153.651 87.3912 153.551 87.1781L153.525 87.1234C153.506 87.0801 153.486 87.0414 153.471 86.9992C153.434 86.908 153.398 86.8169 153.365 86.7269C153.343 86.6585 153.32 86.5901 153.303 86.5183C153.296 86.4875 153.288 86.4567 153.282 86.4214C153.282 86.4214 153.285 86.5092 153.282 86.402C153.278 86.3576 153.28 86.3097 153.277 86.2606L153.28 86.2469C153.303 86.2526 153.346 86.2582 153.355 86.2605C153.383 86.2673 153.479 86.2957 153.511 86.3036C153.533 86.3138 153.561 86.3206 153.569 86.3275C153.623 86.3502 153.68 86.374 153.734 86.3968C153.951 86.4933 154.163 86.6082 154.374 86.7276C154.396 86.7378 154.396 86.7378 154.465 86.7787C154.521 86.8117 154.576 86.8447 154.631 86.8822C154.716 86.9368 154.805 86.9926 154.89 87.0472C155.06 87.1564 155.227 87.2747 155.39 87.3919C157.115 88.6309 158.506 89.9914 160.044 91.4793C161.864 93.2392 163.641 95.0324 165.468 96.7844C167.175 98.4202 168.914 100.049 170.816 101.467C172.12 102.439 173.645 103.489 175.309 103.698C175.352 103.704 175.395 103.71 175.433 103.714C175.739 103.746 176.052 103.726 176.352 103.659C176.626 103.6 176.652 103.288 176.54 103.082L176.531 103.06C176.38 102.811 176.072 102.648 175.783 102.708C175.752 102.715 175.721 102.722 175.691 102.724L175.67 102.729C175.605 102.737 175.536 102.739 175.471 102.743C175.397 102.744 175.329 102.742 175.256 102.738C175.223 102.735 175.19 102.732 175.155 102.733L175.146 102.73L175.136 102.728C174.977 102.699 174.821 102.675 174.665 102.632C174.582 102.612 174.501 102.582 174.422 102.563L174.408 102.559C174.363 102.544 174.318 102.528 174.273 102.512C173.904 102.373 173.549 102.199 173.207 102.014C173.164 101.989 173.12 101.969 173.077 101.944C173.06 101.934 172.999 101.9 172.974 101.884C172.948 101.868 172.901 101.842 172.888 101.834C172.837 101.803 172.786 101.771 172.734 101.739C172.538 101.618 172.344 101.489 172.15 101.359C170.271 100.087 168.667 98.6117 167.042 97.0829C165.193 95.3401 163.403 93.539 161.587 91.7653C159.988 90.2046 158.378 88.6312 156.621 87.244C155.889 86.6636 155.117 86.1266 154.28 85.6946C153.774 85.4355 152.761 84.9456 152.32 85.5529C151.93 86.0951 152.442 87.0225 152.679 87.5204C153.199 88.5994 153.87 89.6143 154.537 90.6087C156.534 93.5862 158.732 96.4391 160.924 99.276C161.779 100.384 162.647 101.481 163.431 102.639C163.713 103.056 163.983 103.48 164.224 103.921C164.442 104.317 164.533 104.489 164.678 104.926C164.704 105 164.725 105.077 164.746 105.15C164.756 105.191 164.769 105.238 164.779 105.279C164.782 105.289 164.79 105.335 164.799 105.361C164.801 105.391 164.816 105.491 164.822 105.526C164.833 105.606 164.834 105.684 164.834 105.761C164.834 105.824 164.833 105.891 164.826 105.957C164.825 105.962 164.837 105.892 164.826 105.981C164.817 106.018 164.813 106.056 164.805 106.088C164.778 106.221 164.732 106.35 164.682 106.478L164.673 106.495C164.661 106.521 164.645 106.546 164.63 106.571C164.589 106.639 164.549 106.701 164.509 106.769C164.42 106.892 164.322 107.013 164.218 107.123C164.191 107.15 164.165 107.177 164.139 107.205C164.125 107.221 164.176 107.175 164.113 107.232C164.043 107.297 163.97 107.357 163.897 107.416C163.746 107.534 163.592 107.646 163.43 107.751C163.145 107.937 162.849 108.107 162.547 108.264C162.285 108.007 162.03 107.746 161.774 107.486C162.298 107.14 162.754 106.711 162.996 106.133C163.39 105.19 163.17 104.049 162.424 103.32C162.317 103.217 161.946 103.372 161.829 103.411C161.791 103.426 161.252 103.652 161.308 103.704C161.991 104.369 162.256 105.424 161.947 106.32C161.835 106.641 161.661 106.917 161.444 107.149C158.288 103.878 155.462 100.315 153.086 96.4331C150.368 91.9938 148.247 87.1932 146.774 82.2229C145.667 78.4972 144.61 74.6094 144.038 70.7004C149.063 73.7724 153.995 76.9905 158.829 80.3535C164.195 84.084 169.436 87.9914 174.545 92.0644C177.405 94.345 180.223 96.6781 182.995 99.0626C183.356 99.3734 184.415 98.9225 183.928 98.5036ZM165.723 106.955C166.462 108.585 167.173 110.229 167.917 111.86C168.222 112.525 168.533 113.185 168.844 113.846C166.948 112.343 165.12 110.76 163.376 109.091C164.33 108.59 165.325 107.935 165.723 106.955Z" fill="#CCCCCC"/>
<path d="M173.141 122.159C172.463 119.988 171.573 117.885 170.62 115.82C170.482 115.52 170.34 115.215 170.201 114.915C169.279 112.925 168.35 110.943 167.46 108.942C166.912 107.701 166.353 106.462 165.777 105.229C165.683 104.868 165.538 104.513 165.38 104.175C164.945 103.252 164.356 102.402 163.757 101.574C162.801 100.252 161.782 98.9731 160.791 97.6768C159.66 96.2062 158.546 94.7299 157.457 93.2308C156.536 91.9663 155.629 90.6858 154.79 89.3688C154.462 88.8584 154.146 88.3411 153.857 87.8112C153.745 87.605 153.634 87.3942 153.534 87.1811L153.508 87.1264C153.489 87.0831 153.469 87.0443 153.454 87.0021C153.417 86.911 153.381 86.8198 153.348 86.7297C153.326 86.6613 153.303 86.5929 153.286 86.5211C153.279 86.4903 153.271 86.4596 153.265 86.4242C153.265 86.4242 153.269 86.512 153.265 86.4048C153.261 86.3604 153.263 86.3125 153.26 86.2634C153.261 86.2589 153.262 86.2543 153.263 86.2497C153.286 86.2554 153.329 86.261 153.338 86.2633C153.366 86.2701 153.462 86.2985 153.494 86.3064C153.517 86.3166 153.544 86.3234 153.552 86.3303C153.606 86.353 153.664 86.3768 153.717 86.3996C153.934 86.4962 154.146 86.611 154.358 86.7304C154.38 86.7407 154.38 86.7407 154.448 86.7816C154.504 86.8146 154.56 86.8476 154.614 86.8851C154.699 86.9398 154.789 86.9955 154.873 87.0501C155.043 87.1593 155.211 87.2777 155.373 87.3949C157.098 88.6342 158.491 89.9948 160.028 91.483C161.848 93.2433 163.626 95.0368 165.453 96.7891C167.161 98.4252 168.9 100.055 170.802 101.473C172.107 102.444 173.632 103.495 175.297 103.704C175.339 103.71 175.382 103.716 175.42 103.72C175.726 103.752 176.04 103.732 176.34 103.665C176.614 103.606 176.64 103.294 176.528 103.088C176.524 103.082 176.522 103.072 176.518 103.066C176.368 102.816 176.059 102.654 175.77 102.714C175.739 102.721 175.708 102.727 175.678 102.73C175.668 102.732 175.663 102.731 175.658 102.734C175.592 102.742 175.523 102.745 175.458 102.748C175.384 102.75 175.316 102.747 175.244 102.744C175.21 102.741 175.177 102.737 175.142 102.739C175.137 102.737 175.137 102.737 175.133 102.736C175.128 102.735 175.128 102.735 175.124 102.734C174.964 102.705 174.808 102.681 174.652 102.638C174.569 102.617 174.488 102.588 174.409 102.569C174.404 102.567 174.4 102.566 174.395 102.565C174.35 102.549 174.305 102.533 174.26 102.518C173.891 102.379 173.536 102.205 173.194 102.02C173.151 101.995 173.107 101.974 173.064 101.949C173.046 101.94 172.986 101.906 172.96 101.89C172.935 101.874 172.887 101.848 172.874 101.84C172.823 101.808 172.772 101.776 172.721 101.744C172.525 101.624 172.331 101.494 172.136 101.364C170.258 100.092 168.653 98.6168 167.027 97.0877C165.179 95.3445 163.388 93.5431 161.571 91.7691C159.973 90.2081 158.362 88.6345 156.604 87.247C155.872 86.6665 155.1 86.1294 154.263 85.6973C153.757 85.4381 152.744 84.9481 152.303 85.5556C151.913 86.0979 152.425 87.0254 152.662 87.5234C153.182 88.6026 153.853 89.6177 154.52 90.6123C156.518 93.5903 158.716 96.4437 160.909 99.2812C161.764 100.39 162.632 101.486 163.416 102.645C163.698 103.062 163.968 103.486 164.21 103.927C164.428 104.323 164.519 104.495 164.663 104.932C164.69 105.006 164.71 105.084 164.732 105.157C164.741 105.198 164.755 105.244 164.764 105.285C164.767 105.296 164.775 105.341 164.784 105.367C164.786 105.397 164.801 105.497 164.808 105.533C164.818 105.613 164.819 105.69 164.82 105.768C164.819 105.83 164.818 105.898 164.812 105.964C164.811 105.968 164.822 105.899 164.811 105.988C164.802 106.024 164.798 106.062 164.79 106.094C164.763 106.227 164.717 106.356 164.667 106.484C164.665 106.493 164.663 106.498 164.658 106.501C164.647 106.528 164.631 106.553 164.615 106.578C164.574 106.645 164.535 106.708 164.494 106.775C164.405 106.899 164.308 107.02 164.203 107.129C164.177 107.157 164.15 107.184 164.124 107.211C164.111 107.227 164.161 107.182 164.098 107.239C164.028 107.304 163.955 107.363 163.882 107.423C163.731 107.541 163.577 107.653 163.415 107.758C163.13 107.944 162.834 108.113 162.531 108.271C161.941 108.586 161.328 108.856 160.716 109.117C159.325 109.704 157.908 110.236 156.495 110.775C155.622 111.107 154.747 111.443 153.872 111.78C153.554 111.9 153.572 112.19 153.727 112.421C153.887 112.654 154.188 112.829 154.442 112.732C154.609 112.666 154.771 112.604 154.938 112.544C156.428 111.971 157.914 111.412 159.402 110.829C160.592 110.362 161.784 109.891 162.929 109.325C163.074 109.255 163.225 109.176 163.376 109.097C164.33 108.596 165.325 107.941 165.723 106.96C166.462 108.591 167.174 110.235 167.917 111.867C168.223 112.531 168.534 113.192 168.845 113.853C169.585 115.421 170.329 116.99 170.991 118.593C171.512 119.851 171.978 121.13 172.364 122.437C172.401 122.567 172.478 122.693 172.575 122.799C172.681 122.911 172.812 122.997 172.956 123.027C173.193 123.08 173.392 122.926 173.315 122.675C173.25 122.5 173.193 122.331 173.141 122.159Z" fill="#555555"/>
<path d="M174.54 92.0274C177.398 94.3054 180.215 96.6359 182.985 99.0177C183.358 99.336 184.412 98.8845 183.925 98.4661C178.976 94.2187 173.887 90.1253 168.663 86.2063C163.444 82.2884 158.091 78.5359 152.623 74.9624C149.742 73.0797 146.829 71.2516 143.891 69.4703C143.703 69.3567 143.515 69.2431 143.327 69.1295C143.075 68.9762 142.758 68.971 142.501 69.1206C142.33 69.2233 142.134 69.5277 142.381 69.68C142.937 70.014 143.492 70.3525 144.042 70.6899C149.065 73.7584 153.994 76.9728 158.824 80.3321C164.196 84.0606 169.44 87.9602 174.54 92.0274Z" fill="white"/>
<path d="M176.136 100.793C174.172 100.939 172.532 99.66 171.068 98.5252C170.854 98.3571 170.506 98.2381 170.253 98.3933C170.023 98.5348 170.074 98.8318 170.272 98.9863C172.065 100.38 174.075 101.827 176.472 101.652C176.721 101.635 176.952 101.465 176.856 101.196C176.762 100.936 176.399 100.775 176.136 100.793Z" fill="white"/>
<path d="M162.393 103.322C162.286 103.219 161.915 103.375 161.798 103.414C161.76 103.428 161.22 103.654 161.276 103.706C161.959 104.372 162.224 105.428 161.915 106.324C161.804 106.645 161.629 106.921 161.412 107.153C160.941 107.662 160.272 107.996 159.636 108.295C159.603 108.311 159.417 108.391 159.4 108.44C159.384 108.508 159.43 108.481 159.484 108.499C159.577 108.522 159.75 108.453 159.834 108.43C159.981 108.389 160.126 108.337 160.259 108.273C160.74 108.048 161.265 107.804 161.737 107.494C162.261 107.148 162.718 106.719 162.96 106.14C163.355 105.192 163.135 104.05 162.393 103.322Z" fill="white"/>
<path d="M175.269 127.664C175.252 127.635 175.234 127.607 175.221 127.579C175.217 127.574 175.214 127.568 175.215 127.563C175.184 127.507 175.154 127.452 175.123 127.396C175.063 127.28 175.004 127.159 174.946 127.033C174.727 126.559 174.562 126.065 174.438 125.561C174.411 125.448 174.263 125.33 174.174 125.274C174.055 125.197 173.885 125.131 173.74 125.124C173.623 125.12 173.494 125.127 173.405 125.211C173.323 125.288 173.33 125.381 173.354 125.484C173.608 126.546 174.085 127.557 174.728 128.444C174.887 128.662 175.23 128.823 175.502 128.774C175.748 128.728 175.854 128.532 175.7 128.315C175.545 128.103 175.401 127.889 175.269 127.664Z" fill="#555555"/>
<path d="M179.757 130.834C179.675 130.829 179.596 130.814 179.515 130.804C179.496 130.799 179.483 130.796 179.464 130.791C179.432 130.783 179.395 130.774 179.362 130.766C179.284 130.747 179.202 130.722 179.124 130.699C179.084 130.684 179.048 130.67 179.007 130.655C178.99 130.646 178.863 130.606 178.962 130.64C178.808 130.587 178.659 130.498 178.522 130.416C178.453 130.375 178.381 130.328 178.315 130.278C178.286 130.257 178.257 130.235 178.232 130.215C178.216 130.201 178.203 130.193 178.187 130.18C178.183 130.174 178.174 130.172 178.166 130.165C177.962 129.994 177.647 130.004 177.408 130.1C177.295 130.145 177.157 130.207 177.093 130.312C177.052 130.379 177.01 130.495 177.087 130.562C177.709 131.086 178.465 131.401 179.279 131.479C179.427 131.492 179.594 131.47 179.73 131.416C179.832 131.378 179.982 131.304 180.045 131.204C180.196 130.985 179.963 130.855 179.757 130.834Z" fill="#555555"/>
<path d="M186.601 129.594C186.358 129.466 185.979 129.475 185.765 129.669C185.696 129.734 185.622 129.798 185.544 129.856C185.509 129.881 185.473 129.907 185.438 129.932L185.386 129.963C185.3 130.014 185.217 130.056 185.128 130.097C185.089 130.117 185.046 130.135 185.002 130.153C184.991 130.16 184.976 130.161 184.964 130.168C184.878 130.2 184.789 130.227 184.7 130.249C184.663 130.259 184.628 130.265 184.591 130.275C184.601 130.273 184.612 130.27 184.612 130.27L184.571 130.275C184.566 130.278 184.555 130.281 184.551 130.28C184.504 130.292 184.53 130.284 184.561 130.277L184.54 130.282C184.444 130.297 184.348 130.307 184.249 130.312C184.195 130.313 184.016 130.303 184.224 130.315C184.171 130.312 184.121 130.314 184.068 130.311C183.914 130.302 183.752 130.321 183.617 130.394C183.522 130.443 183.394 130.547 183.373 130.658C183.317 130.929 183.593 131.103 183.836 131.114C184.859 131.176 185.905 130.858 186.659 130.168C186.741 130.091 186.815 129.989 186.804 129.87C186.79 129.746 186.702 129.642 186.601 129.594Z" fill="#555555"/>
<path d="M188.433 123.161C188.437 123.264 188.436 123.37 188.441 123.473C188.443 123.483 188.442 123.488 188.44 123.497C188.439 123.501 188.438 123.506 188.439 123.521C188.436 123.573 188.434 123.626 188.426 123.677C188.408 123.876 188.379 124.076 188.333 124.268C188.308 124.369 188.284 124.469 188.255 124.568C188.252 124.582 188.25 124.591 188.249 124.596C188.248 124.6 188.247 124.605 188.244 124.614C188.226 124.672 188.203 124.725 188.184 124.783C188.079 125.057 188.197 125.381 188.459 125.537C188.669 125.661 189.064 125.709 189.174 125.417C189.512 124.543 189.619 123.592 189.439 122.668C189.385 122.384 189.166 122.093 188.847 122.073C188.581 122.056 188.298 122.253 188.36 122.548C188.391 122.745 188.419 122.955 188.433 123.161Z" fill="#555555"/>
<path d="M185.583 118.855C185.676 118.974 185.784 119.054 185.919 119.125C186.315 119.333 186.706 119.535 187.102 119.743C187.189 119.789 187.335 119.791 187.414 119.728C187.502 119.668 187.528 119.539 187.518 119.44C187.503 119.296 187.444 119.156 187.354 119.042C187.26 118.923 187.152 118.843 187.018 118.772C186.622 118.564 186.23 118.361 185.835 118.154C185.748 118.108 185.601 118.106 185.523 118.169C185.435 118.229 185.409 118.358 185.419 118.457C185.434 118.596 185.493 118.741 185.583 118.855Z" fill="#555555"/>
<path d="M181.233 121.349C181.476 121.481 181.819 121.502 181.988 121.249C182.292 120.777 182.603 120.302 182.907 119.83C183.065 119.584 182.866 119.25 182.637 119.121C182.394 118.989 182.052 118.968 181.883 119.222C181.578 119.693 181.267 120.168 180.963 120.64C180.805 120.887 181.003 121.225 181.233 121.349Z" fill="#555555"/>
<path d="M180.957 126.8C180.901 126.322 180.879 125.843 180.886 125.366C180.889 125.11 180.758 124.817 180.614 124.603C180.563 124.528 180.329 124.238 180.326 124.494C180.312 125.588 180.45 126.686 180.713 127.751C180.773 127.993 180.894 128.303 181.095 128.468C181.292 128.628 181.235 128.275 181.212 128.187C181.099 127.739 181.019 127.299 180.957 126.8Z" fill="#555555"/>
<path d="M183.038 132.312C182.981 132.264 182.822 132.254 182.765 132.25C182.616 132.238 182.458 132.242 182.307 132.259C182.252 132.264 181.791 132.33 181.904 132.43C182.364 132.837 182.824 133.244 183.284 133.651C183.341 133.699 183.5 133.709 183.558 133.714C183.706 133.726 183.864 133.721 184.015 133.705C184.07 133.699 184.532 133.633 184.419 133.533C183.959 133.126 183.498 132.719 183.038 132.312Z" fill="#555555"/>
<path d="M187.324 136.618C186.955 136.18 186.586 135.737 186.217 135.299C186.144 135.213 186.035 135.119 185.918 135.114C185.812 135.108 185.714 135.171 185.667 135.261C185.544 135.511 185.632 135.856 185.803 136.062C186.172 136.5 186.541 136.943 186.91 137.382C186.983 137.467 187.092 137.562 187.209 137.566C187.315 137.573 187.413 137.51 187.46 137.42C187.587 137.176 187.5 136.826 187.324 136.618Z" fill="#555555"/>
<path d="M187.505 141.814C187.417 141.976 187.872 141.962 187.941 141.959C188.094 141.953 188.246 141.932 188.393 141.891C188.468 141.866 188.612 141.838 188.654 141.766C189.032 141.071 189.069 140.224 188.728 139.503C188.695 139.437 188.606 139.42 188.539 139.413C188.407 139.39 188.249 139.395 188.117 139.416C188.062 139.422 187.486 139.513 187.548 139.639C187.873 140.328 187.865 141.153 187.505 141.814Z" fill="#555555"/>
<path d="M188.197 143.877C188.087 143.826 187.929 143.831 187.815 143.856C187.573 143.903 187.264 144.026 187.192 144.284C186.95 145.144 186.583 145.958 186.107 146.712C185.964 146.938 186.265 147.05 186.444 147.041C186.712 147.029 187.033 146.919 187.178 146.684C187.686 145.875 188.07 144.997 188.325 144.078C188.355 143.993 188.268 143.909 188.197 143.877Z" fill="#555555"/>
<path d="M184.716 147.486C184.457 147.302 184.12 147.36 183.889 147.545C183.877 147.556 183.86 147.566 183.847 147.578C183.747 147.645 183.64 147.706 183.53 147.756C183.428 147.794 183.323 147.821 183.218 147.849C183.153 147.857 183.087 147.865 183.022 147.873C182.873 147.88 182.71 147.947 182.598 148.045C182.509 148.129 182.418 148.266 182.42 148.397C182.423 148.528 182.475 148.657 182.588 148.738C182.705 148.82 182.848 148.859 182.992 148.851C183.622 148.817 184.224 148.573 184.706 148.179C184.914 148.008 184.95 147.655 184.716 147.486Z" fill="#555555"/>
<path d="M182.367 159.915C182.367 159.915 184.938 160.923 184.692 163.293C184.445 165.663 182.174 164.177 180.694 163.293C180.21 162.978 179.663 162.772 179.091 162.689C178.52 162.607 177.937 162.65 177.384 162.815C176.433 163.452 177.753 158.146 182.367 159.915Z" fill="#FFAF82"/>
<path d="M171.555 173.037C171.555 173.037 176.697 165.467 181.681 164.106C186.664 162.744 201.21 157.261 203.341 160.374C205.472 163.487 202.249 175.354 188.637 182.8C183.858 185.61 178.237 186.614 172.787 185.63L171.555 173.037Z" fill="#FFAF82"/>
<path d="M201.244 165.079L169.281 169.659L189.41 157.792C189.872 157.551 190.391 157.443 190.91 157.481C191.429 157.518 191.928 157.7 192.351 158.004L201.244 165.079Z" fill="#1F2232"/>
<path d="M191.4 175.036C194.48 171.834 197.75 168.821 201.192 166.016C203.886 164 204.15 167.891 202.125 170.101C200.1 172.312 196.049 176.822 191.4 175.036Z" fill="#FFAF82"/>
<path d="M173.745 185.347C173.745 185.347 133.55 197.934 114.533 191.423C101.418 185.894 88.5286 157.373 76.9316 135.36C82.7558 131.421 83.7545 116.876 90.7621 115.462C90.7621 115.462 114.75 159.674 122.313 165.814C129.876 171.953 173.745 171.456 173.745 171.456C174.806 174.236 174.401 182.458 173.745 185.347Z" fill="#D4B57A"/>
<path d="M75.4586 112.632L75.4886 117.161L75.452 119.455C77.8881 120.057 83.5801 121.36 85.6197 122.367L85.963 122.509C103.219 128.571 95.8541 138.183 97.9902 157.132C97.9902 179.269 97.6437 194.471 97.6437 223.544C97.4037 226.978 101.699 239.614 97.9902 240.906C97.9603 241.739 82.5693 243.725 98.5424 246.549C82.2227 246.549 98.6968 250.643 97.6437 252.192C95.7241 253.643 100.083 255.807 97.9902 254.814L97.6437 254.803C96.1307 255.272 92.0283 255.77 90.252 255.996C71.2662 258.288 52.0872 258.438 33.0681 256.442C29.9488 256.127 24.0501 255.589 21.2608 254.686L19.7511 255.223C19.5945 255.253 19.4345 255.279 19.2746 255.302C16.5552 255.696 7.58382 255.969 5.34099 254.264C4.38787 252.827 4.65118 249.993 4.66451 248.196C4.70783 247.042 4.68116 246.527 4.56452 245.382C0.941994 244.849 1.00199 235.128 0.785373 232.183C-0.124423 219.632 -0.244419 207.037 0.428764 194.471C0.732029 188.276 1.28194 181.97 1.70851 175.841C2.78493 160.41 1.51854 144.039 13.7791 132.527C19.6745 126.993 25.2932 124.889 32.6815 122.196L32.9882 122.118C34.4578 121.296 40.8364 119.779 42.646 119.321C42.5393 117.874 42.5626 116.919 42.6193 115.463L42.7093 112.946C53.4436 118.402 64.771 117.637 75.4586 112.632Z" fill="#D4B57A"/>
<path d="M19.4545 245.109C19.5444 240.614 18.2081 239.839 18.2314 234.74L18.9679 158.812C18.9912 157.417 18.9146 156.541 19.851 155.627L20.4309 155.744C21.534 157.29 21.1974 179.675 21.1874 183.39L21.0041 223.347C20.9474 228.263 20.4809 233.239 20.7742 238.152C20.8175 238.877 21.0108 239.417 21.3974 240.033C22.6671 242.057 26.5129 242.983 28.8024 243.315C47.7115 246.037 67.2537 246.264 86.1928 243.76C88.7422 243.423 96.8804 242.381 96.9171 238.969C96.9371 237.225 96.8005 234.575 96.7471 232.738C96.6172 228.42 96.5372 224.102 96.5039 219.782C96.4539 204.947 96.4939 190.112 96.6238 175.278L96.6372 164.372C96.6338 162.537 96.2039 156.965 97.6336 155.877L98.0402 156.186C99.2199 158.758 98.7167 170.727 98.7134 174.351L98.7167 206.63C98.7267 211.628 98.7 216.723 98.8233 221.715C98.9733 227.629 99.3666 233.362 99.1766 239.293C99.1566 241.37 99.1199 243.302 99.2399 245.377C102.139 245.565 96.2972 246.148 99.1766 246.115C100.436 246.101 97.1104 248.057 97.9902 248.206C97.9602 249.039 98.5321 250.502 98.5421 251.324C98.5788 253.257 114.327 252.86 113.273 254.409C111.354 255.86 100.083 255.807 97.9902 254.814L97.6436 254.803C96.1306 255.272 92.0282 255.771 90.2519 255.996C71.2662 258.289 52.0872 258.438 33.0681 256.442C29.9488 256.127 24.0501 255.589 21.2607 254.686L19.751 255.223C19.5944 255.253 19.4345 255.279 19.2745 255.302C16.5551 255.697 7.58376 255.969 5.34093 254.264C4.38781 252.827 4.65112 249.993 4.66445 248.196C4.70777 247.042 4.68109 246.527 4.56445 245.382C5.84417 244.961 15.4254 246.391 19.4545 245.109Z" fill="#C8A663"/>
<path d="M75.4588 112.632L75.4887 117.161L75.4521 119.455C77.8882 120.057 83.5803 121.36 85.6198 122.367C84.5967 122.858 84.8333 124.001 84.4167 124.972C76.8018 142.671 46.6852 143.812 35.9443 128.57C34.7012 126.804 33.9347 122.944 32.9883 122.118C34.458 121.296 40.8365 119.779 42.6461 119.321C42.5395 117.874 42.5628 116.919 42.6194 115.463L42.7094 112.946C53.4437 118.402 64.7711 117.637 75.4588 112.632Z" fill="#D4B57A"/>
<path d="M75.4595 112.632L75.4895 117.161L75.4528 119.455C75.2762 120.923 75.1396 124.532 74.3831 125.505C73.2367 125.861 71.8037 127.051 70.6506 127.488C60.8694 131.19 52.2247 130.544 43.2401 125.087C42.4502 124.181 42.6568 120.754 42.6469 119.321C42.5402 117.874 42.5635 116.919 42.6202 115.463L42.7102 112.946C53.4444 118.402 64.7719 117.637 75.4595 112.632Z" fill="#FEBC8A"/>
<path d="M75.4585 112.632L75.4885 117.161C72.3425 119.214 68.7966 120.58 65.0908 121.169C58.7022 122.24 49.4276 121.505 43.8822 117.721C42.7058 116.918 42.8091 116.687 42.6191 115.463L42.7091 112.946C53.4434 118.402 64.7709 117.637 75.4585 112.632Z" fill="#F59C5F"/>
<path d="M32.9877 122.118C33.9342 122.945 34.7007 126.804 35.9437 128.57C46.6846 143.812 76.8012 142.671 84.4162 124.972C84.8327 124.001 84.5961 122.858 85.6192 122.367L85.9625 122.509C85.9858 122.845 85.9992 123.182 86.0058 123.519C86.1991 134.546 69.1629 141.251 59.6517 141.039C50.4105 140.833 39.2596 137.705 34.1374 129.228C32.7178 126.875 32.6578 124.837 32.6811 122.196L32.9877 122.118Z" fill="#C8A663"/>
<g clip-path="url(#clip1_1305_54150)">
<path d="M68.1972 185.33C67.9207 186.04 67.6715 186.687 67.4146 187.331C66.6476 189.27 65.7748 191.156 64.4351 192.781C63.6544 193.727 62.7835 194.609 61.5262 194.89C59.7687 195.281 57.9249 194.66 57.3894 192.82C57.007 191.506 57.6562 189.889 58.786 189.373C59.192 189.188 59.6079 189.133 60.0335 189.295C60.1944 189.357 60.3121 189.468 60.3317 189.649C60.3493 189.803 60.2846 189.934 60.1493 189.992C59.2803 190.37 59.2136 191.16 59.1411 191.937C59.0979 192.388 59.2391 192.785 59.5235 193.157C60.0355 193.831 61.2536 193.698 61.8597 193.35C62.9051 192.746 63.6054 191.822 64.2723 190.856C65.7297 188.74 66.6633 186.377 67.595 184.012C67.8108 183.465 68.0344 182.92 68.2168 182.361C68.4267 181.723 68.1286 181.119 67.5558 180.915C67.2126 180.792 66.8987 180.929 66.6025 181.045C65.2354 181.588 63.3249 183.792 63.5917 185.575C63.625 185.793 63.6642 185.992 63.8231 186.151C63.9879 186.315 64.0722 186.498 63.9486 186.726C63.8133 186.975 63.5779 186.961 63.3524 186.928C62.3912 186.79 61.7126 185.77 61.891 184.728C62.0637 183.73 62.5011 182.848 63.1425 182.071C64.1075 180.899 65.2766 180.008 66.8085 179.714C67.7637 179.531 68.6797 179.611 69.3486 180.45C69.7939 181.006 69.89 181.678 69.9488 182.353C70.1097 184.179 69.9488 185.997 69.8135 187.816C69.7448 188.736 69.7017 189.661 69.6566 190.584C69.6487 190.737 69.6056 190.907 69.7272 191.074C69.9429 190.936 70.0351 190.718 70.1489 190.517C70.7471 189.46 71.316 188.386 71.9456 187.348C73.0303 185.559 74.0621 183.739 75.2389 182.007C75.5979 181.479 75.9823 180.965 76.3805 180.467C76.9611 179.741 77.7085 179.548 78.4558 179.901C78.9383 180.128 79.0423 180.331 78.8481 180.825C78.442 181.863 77.985 182.881 77.6025 183.926C76.7101 186.363 75.9117 188.828 75.645 191.425C75.6077 191.785 75.6097 192.151 75.6352 192.511C75.6803 193.14 76.1177 193.352 76.6689 193.023C76.8415 192.92 76.9984 192.791 77.1534 192.665C77.2965 192.548 77.4456 192.431 77.6241 192.559C77.8046 192.688 77.7261 192.877 77.6731 193.042C77.4103 193.87 76.257 194.615 75.4174 194.506C74.3053 194.36 73.7051 193.702 73.6619 192.559C73.6305 191.73 73.758 190.915 73.9228 190.103C74.3563 187.977 75.0801 185.935 75.7548 183.878C75.7842 183.788 75.8588 183.7 75.7803 183.566C75.1468 184.423 74.5995 185.316 74.0464 186.206C72.6223 188.497 71.4376 190.917 70.094 193.251C69.9645 193.476 69.8351 193.712 69.6271 193.883C69.076 194.335 68.3738 194.101 68.2443 193.404C68.1011 192.626 68.0933 191.835 68.1678 191.049C68.3463 189.202 68.2776 187.35 68.2757 185.501C68.2796 185.474 68.2521 185.443 68.1972 185.33Z" fill="white"/>
<path d="M38.7325 186.273C38.044 186.26 37.3712 186.17 36.7573 185.839C36.4768 185.689 36.2316 185.489 36.0786 185.203C35.9276 184.922 35.9492 184.64 36.1551 184.395C36.3317 184.185 36.569 184.111 36.8358 184.216C38.0381 184.689 39.266 184.578 40.4861 184.337C42.6064 183.918 44.6268 183.155 46.6883 182.54C49.1401 181.808 51.6116 181.154 54.1576 180.825C55.4836 180.654 56.8154 180.533 58.1473 180.78C58.7867 180.899 59.3869 181.125 59.9028 181.528C60.3402 181.87 60.6109 182.312 60.5677 182.886C60.5462 183.188 60.4363 183.455 60.095 183.535C59.7694 183.608 59.5752 183.441 59.4242 183.176C58.9495 182.347 58.1159 182.205 57.2783 182.145C55.9994 182.051 54.7402 182.271 53.4848 182.483C50.166 183.044 46.9884 184.107 43.8069 185.164C42.3711 185.641 40.9274 186.085 39.4092 186.225C39.1836 186.246 38.9581 186.258 38.7325 186.273Z" fill="white"/>
<path d="M85.859 173.736C85.6648 173.58 85.4491 173.632 85.2607 173.757C84.996 173.932 84.792 174.176 84.5899 174.413C84.0152 175.087 83.3503 175.659 82.6029 176.132C81.9792 176.527 81.3162 176.823 80.5512 176.796C79.7823 176.768 79.3135 176.319 79.2566 175.554C79.2292 175.19 79.2782 174.832 79.3351 174.471C79.3841 174.162 79.5156 174.061 79.8392 174.092C81.3652 174.238 82.5539 173.56 83.5405 172.494C84.1192 171.869 84.435 171.108 84.4154 170.236C84.3938 169.315 83.7916 168.717 82.8677 168.688C82.3303 168.671 81.8615 168.883 81.3868 169.083C81.0318 169.379 80.6454 169.64 80.3374 169.988C79.6136 170.81 79.0017 171.699 78.5642 172.706C78.3642 173.165 78.0915 173.582 77.7561 173.959C77.2147 174.837 76.5949 175.653 75.8162 176.34C75.724 176.422 75.6102 176.49 75.4965 176.537C75.1434 176.685 74.8982 176.535 74.8629 176.159C74.8237 175.75 74.9335 175.365 75.063 174.983C75.5122 173.673 76.2026 172.478 76.8479 171.261C77.0872 170.808 77.3403 170.356 77.4246 169.84C77.4599 169.632 77.4187 169.432 77.2246 169.311C77.0264 169.186 76.8185 169.204 76.6145 169.317C76.3693 169.451 76.236 169.681 76.1045 169.907C75.777 170.469 75.4729 171.047 75.1316 171.602C74.1803 173.156 73.1662 174.662 71.8324 175.926C71.3911 176.344 70.8929 176.687 70.2907 176.838C69.6905 176.99 69.257 176.815 68.9981 176.34C68.4528 175.338 68.7235 173.765 69.5708 173.011C69.7395 172.862 69.918 172.721 70.0828 172.568C72.4856 170.335 74.2274 167.645 75.5769 164.692C75.9888 163.792 76.3497 162.87 76.44 161.867C76.5478 160.654 75.777 160 74.606 160.331C74.4255 160.382 74.2509 160.46 74.0842 160.543C73.3055 160.939 72.7837 161.597 72.2914 162.282C71.6029 163.241 71.089 164.306 70.4947 165.32C70.43 165.482 70.375 165.649 70.2985 165.805C69.3021 167.851 68.5195 169.973 67.9997 172.19C67.8663 172.756 67.8388 173.362 67.4858 173.866C67.0464 174.493 66.5796 175.1 66.0617 175.665C65.7479 176.007 65.438 176.36 65.0123 176.572C64.5592 176.798 64.2572 176.595 64.2944 176.095C64.3258 175.68 64.4455 175.281 64.6299 174.907C64.9613 174.232 65.3027 173.562 65.64 172.891C65.8107 172.552 65.9441 172.204 65.9852 171.824C66.0421 171.291 65.8577 170.874 65.3948 170.576C65.0888 170.38 64.7436 170.317 64.4043 170.228C63.7413 170.051 63.7256 170.014 63.9021 169.373C63.912 169.336 63.9198 169.299 63.9276 169.264C63.9983 168.945 63.9551 168.651 63.6452 168.478C63.3255 168.299 63.0097 168.361 62.737 168.598C62.4546 168.848 62.3428 169.186 62.333 169.543C62.3055 170.477 61.9269 171.296 61.4836 172.081C60.805 173.282 60.0027 174.407 59.1985 175.528C59.0161 175.781 58.8356 176.044 58.5846 176.237C58.2668 176.482 58.0157 176.402 57.9098 176.011C57.8647 175.846 57.8529 175.665 57.8608 175.491C57.8804 174.97 58.0589 174.487 58.2766 174.02C58.7905 172.92 59.375 171.851 59.8517 170.732C59.9596 170.477 60.0635 170.22 60.0753 169.942C60.0851 169.706 60.0282 169.486 59.7889 169.373C59.5614 169.268 59.3437 169.315 59.1514 169.467C58.9808 169.601 58.8572 169.772 58.7572 169.963C58.7081 170.058 58.6905 170.212 58.5551 170.204C58.4178 170.197 58.4257 170.039 58.3825 169.94C58.0216 169.116 57.3116 168.783 56.4387 169.04C55.7934 169.229 55.2716 169.615 54.7793 170.055C54.3085 170.477 53.9731 171.014 53.5592 171.483C53.367 171.82 53.1669 172.151 52.9845 172.494C52.4667 173.467 51.9077 174.415 51.231 175.289C50.8328 175.805 50.4366 176.325 49.8442 176.646C49.6794 176.735 49.5029 176.84 49.3146 176.706C49.1243 176.57 49.1812 176.371 49.2185 176.188C49.3754 175.414 49.6637 174.68 49.954 173.948C50.2384 173.228 50.5484 172.513 50.6445 171.734C50.7406 170.942 50.5601 170.588 49.903 170.278C49.0969 170.238 48.4849 170.637 47.918 171.141C46.8137 172.122 45.9467 173.311 44.9797 174.411C44.8875 174.516 44.8228 174.658 44.5953 174.707C44.8797 173.948 45.0974 173.266 45.7172 172.712C47.6356 170.999 49.2518 169.017 50.7092 166.907C51.3938 165.914 52.0156 164.886 52.4059 163.738C52.5667 163.261 52.6962 162.78 52.5883 162.268C52.4804 161.764 52.2019 161.478 51.6899 161.38C51.129 161.273 50.6445 161.491 50.1973 161.78C49.5872 162.173 49.1184 162.716 48.7085 163.308C47.6924 164.773 46.8353 166.329 46.086 167.944C45.7486 168.671 45.4191 169.399 45.0856 170.127C44.76 170.979 44.4325 171.832 44.1127 172.686C43.9794 173.043 43.7793 173.356 43.5282 173.642C42.6063 174.689 41.6177 175.671 40.5585 176.578C39.619 177.382 38.6088 178.08 37.4064 178.46C35.4802 179.069 33.8522 178.263 33.2147 176.36C32.8911 175.392 32.8401 174.394 33.0186 173.395C33.5639 170.345 34.8761 167.621 36.6767 165.116C37.6261 163.794 38.7245 162.611 40.1486 161.768C40.6429 161.476 41.1744 161.283 41.7629 161.328C42.1434 161.357 42.4769 161.48 42.6593 161.852C42.7652 161.949 42.8162 162.077 42.8593 162.206C43.1457 163.068 43.0006 163.899 42.6632 164.715C42.4161 165.482 42.0159 166.144 41.3549 166.638C40.9979 166.907 40.9194 167.214 41.0685 167.559C41.2195 167.911 41.5353 168.067 41.9728 167.999C42.3631 167.939 42.6769 167.726 42.9496 167.462C44.1775 166.268 44.711 164.779 44.7679 163.107C44.7953 162.311 44.5972 161.565 44.0519 160.95C43.2948 160.096 42.2944 159.95 41.2274 160.004C40.3938 160.047 39.6288 160.323 38.8815 160.666C37.7595 161.355 36.7513 162.181 35.8804 163.164C33.9307 165.363 32.5655 167.882 31.6652 170.652C31.0904 172.422 30.7923 174.226 31.165 176.085C31.6828 178.678 33.6718 180.241 36.3237 180.115C37.4319 180.062 38.4342 179.655 39.3581 179.062C40.5075 178.324 41.5 177.401 42.4592 176.437C42.5553 176.34 42.6299 176.196 42.8005 176.188C42.8397 176.327 42.7789 176.428 42.7456 176.533C42.6122 176.963 42.4572 177.387 42.3494 177.823C42.2827 178.094 42.3533 178.361 42.6495 178.479C42.926 178.592 43.1751 178.507 43.3634 178.287C43.4851 178.145 43.5831 177.981 43.6851 177.825C44.8404 176.042 46.1527 174.38 47.6571 172.875C48.0612 172.47 48.4574 172.038 48.989 171.777C49.0871 171.729 49.2008 171.657 49.3048 171.748C49.395 171.828 49.3421 171.939 49.3146 172.03C49.193 172.437 49.0733 172.846 48.9321 173.247C48.6281 174.109 48.2829 174.956 48.0749 175.85C47.9651 176.317 47.9082 176.786 48.0612 177.257C48.2652 177.89 48.8929 178.217 49.5304 178.018C49.7716 177.942 49.9933 177.823 50.2012 177.677C50.6445 177.364 51.0368 176.994 51.3879 176.582C51.4408 176.519 51.4879 176.414 51.5919 176.441C51.6958 176.469 51.688 176.58 51.6978 176.661C51.8665 177.923 53.061 178.46 54.2379 177.814C54.9794 177.407 55.5658 176.829 56.1151 176.202C56.2759 176.019 56.425 175.824 56.627 175.579C56.6623 175.945 56.678 176.227 56.7172 176.508C56.8585 177.502 57.7176 177.938 58.6159 177.477C58.8984 177.331 59.1416 177.132 59.3672 176.914C60.8618 175.472 61.9348 173.743 62.7959 171.877C63.1313 171.15 63.1176 171.145 63.8688 171.433C64.522 171.682 64.6377 171.906 64.3827 172.548C64.116 173.224 63.808 173.882 63.5275 174.551C63.2451 175.225 63.0097 175.906 63.0509 176.656C63.1019 177.568 63.7217 178.045 64.6181 177.82C65.2065 177.672 65.6989 177.345 66.1382 176.942C66.5639 176.55 66.9699 176.14 67.3328 175.69C67.3857 175.624 67.4387 175.525 67.5368 175.544C67.6643 175.569 67.6447 175.702 67.6525 175.793C67.6878 176.157 67.7565 176.51 67.8918 176.852C68.2233 177.693 68.8882 178.127 69.7984 178.098C70.3868 178.078 70.8948 177.833 71.3793 177.531C72.1659 177.041 72.823 176.404 73.4271 175.711C73.4938 175.635 73.535 175.501 73.7213 175.548C73.6723 175.999 73.6036 176.459 73.741 176.912C73.9822 177.705 74.7393 178.059 75.5063 177.734C76.0143 177.518 76.436 177.183 76.7969 176.776C77.1304 176.4 77.4501 176.015 77.7777 175.634C77.8267 175.577 77.8679 175.501 77.9562 175.521C78.0307 175.536 78.0327 175.612 78.0366 175.674C78.0798 176.365 78.3779 176.947 78.8173 177.467C79.1056 177.644 79.3802 177.841 79.7196 177.927C80.51 178.123 81.2711 178.045 82.0027 177.699C83.4895 176.996 84.6684 175.916 85.7178 174.684C85.8139 174.571 85.8786 174.431 85.9375 174.292C86.0218 174.094 86.0414 173.885 85.859 173.736ZM79.9765 172.755C80.4218 171.894 80.9357 171.084 81.6653 170.428C81.8144 170.294 81.991 170.195 82.1851 170.129C82.7285 169.947 83.0502 170.177 83.0482 170.804C83.0207 171.433 82.6794 171.947 82.1498 172.359C81.5869 172.799 80.9416 173.013 80.2295 173.037C80.0452 173.041 79.8274 173.043 79.9765 172.755ZM69.308 171.785C69.408 171.267 69.5414 170.759 69.7238 170.265C70.6869 167.674 71.8109 165.165 73.4899 162.934C73.7998 162.521 74.1391 162.134 74.5785 161.85C74.7178 161.76 74.8649 161.663 75.0336 161.752C75.2101 161.846 75.1709 162.031 75.1885 162.21C75.0826 162.955 74.806 163.67 74.4981 164.367C73.4193 166.806 72.1051 169.109 70.3594 171.147C70.1142 171.433 69.8513 171.703 69.5414 171.923C69.4826 171.964 69.4178 172.036 69.3413 171.988C69.2668 171.945 69.2923 171.857 69.308 171.785ZM46.7294 169.352C47.5983 167.462 48.5908 165.642 49.801 163.942C50.0423 163.605 50.3306 163.306 50.668 163.06C50.821 162.949 50.9995 162.837 51.1898 162.955C51.3996 163.088 51.3565 163.31 51.2996 163.5C51.0446 164.355 50.67 165.163 50.1973 165.918C49.1126 167.652 47.8552 169.258 46.4391 170.74C46.3704 170.812 46.2939 170.878 46.2174 170.942C46.2017 170.956 46.1723 170.956 46.0683 170.981C46.2468 170.385 46.492 169.87 46.7294 169.352ZM57.0271 173.013C56.472 173.983 55.8581 174.915 55.1186 175.758C54.8028 176.118 54.4321 176.42 54.0045 176.648C53.7417 176.786 53.4533 176.911 53.1866 176.718C52.9257 176.529 52.9414 176.212 52.9708 175.924C53.0453 175.231 53.2807 174.582 53.5847 173.961C54.1222 172.864 54.7773 171.843 55.6639 170.985C55.9013 170.755 56.1621 170.561 56.4622 170.422C57.1645 170.099 57.6666 170.419 57.6784 171.254C57.6058 171.847 57.3528 172.445 57.0271 173.013Z" fill="white"/>
<path d="M77.0442 166.918C77.0658 166.426 77.256 166.021 77.7052 165.778C78.2426 165.486 78.8174 165.735 78.9704 166.327C79.1096 166.87 78.9449 167.341 78.5486 167.722C78.2779 167.983 77.9366 168.104 77.5718 167.925C77.1638 167.72 77.0285 167.354 77.0442 166.918Z" fill="white"/>
</g>
<path d="M77.3674 111.232L80.1421 109.444L80.3314 109.531C85.2086 111.704 91.3726 112.407 93.3555 118.315C94.4352 121.523 94.4952 122.324 94.2353 125.551C88.8498 133.825 72.3288 137.108 63.3762 139.004C62.2338 139.246 60.4412 139.912 59.4004 139.504C60.2412 139.136 63.9914 134.62 65.1971 133.503C68.1181 130.795 71.1508 128.308 73.9301 125.466C74.2201 125.242 74.5063 125.014 74.7896 124.781C75.6138 121.974 75.4065 119.261 75.3911 116.33C75.3758 115.11 75.2412 113.709 75.1505 112.476L77.3674 111.232Z" fill="#D4B57A"/>
<path d="M40.658 111.232L37.8833 109.444L37.694 109.531C32.8168 111.704 26.6528 112.407 24.6699 118.315C23.5902 121.523 23.5302 122.324 23.7901 125.551C29.1756 133.825 45.6966 137.108 54.6492 139.004C55.7916 139.246 57.5842 139.912 58.625 139.504C57.7842 139.136 54.034 134.62 52.8283 133.503C49.9073 130.795 46.8746 128.308 44.0953 125.466C43.8053 125.242 43.5191 125.014 43.2358 124.781C42.4116 121.974 42.6189 119.261 42.6343 116.33C42.6496 115.11 42.7842 113.709 42.8749 112.476L40.658 111.232Z" fill="#D4B57A"/>
<path d="M75.15 112.476L77.3668 111.232C80.7877 113.029 84.065 114.873 81.5169 119.192C80.4851 120.942 76.641 124.289 74.7891 124.782C75.6132 121.975 75.4059 119.262 75.3906 116.331C75.3753 115.111 75.2406 113.709 75.15 112.476Z" fill="#C8A663"/>
<path d="M42.8754 112.476L40.6586 111.232C37.2377 113.029 33.9604 114.873 36.5085 119.192C37.5403 120.942 41.3844 124.289 43.2363 124.782C42.4122 121.975 42.6195 119.262 42.6348 116.331C42.6501 115.111 42.7848 113.709 42.8754 112.476Z" fill="#C8A663"/>
<path d="M92.2353 125.552L93.5051 126.027C91.0823 132.761 75.1155 138.673 68.3783 138.978C67.2866 138.85 66.998 138.89 65.9499 139.01C65.7683 139.364 65.6813 139.453 65.445 139.78C62.8279 140.667 53.5583 140.551 50.5287 140.077C49.4006 139.9 49.3196 139.787 48.858 139.023C47.8603 138.823 47.3867 138.924 46.3989 139.041L46.123 139.037C41.6613 138.942 20.4531 131.777 22.7975 125.993C24.3362 127.232 25.291 128.495 27.0163 129.658C34.1737 134.485 42.7657 137.139 51.2052 138.562C52.9255 138.852 55.2706 139.871 56.478 139.878L57.2135 139.444L57.4005 139.505C58.4412 139.912 60.2338 139.247 61.3762 139.005C70.3289 137.108 86.8499 133.825 92.2353 125.552Z" fill="#C8A663"/>
<path d="M44.3242 126.218C45.1894 126.608 46.0622 126.981 46.9425 127.337C56.6895 131.204 64.9182 129.206 73.9842 125.51C71.1163 128.356 67.987 130.846 64.9729 133.557C63.7287 134.677 59.859 139.198 58.9914 139.567L58.7985 139.506C55.1444 135.034 48.6048 130.435 44.3242 126.218Z" fill="white"/>
<path d="M54.8225 8.26244C61.4853 2.71085 60.8348 3.22001 65.9866 10.7731C67.7886 14.6405 74.2646 2.88517 71.1023 5.92755C77.4622 8.14256 84.1603 10.7759 84.7182 18.5127C93.6089 24.9978 94.6587 36.2964 94.7953 46.5013C94.8086 47.4485 94.2821 50.9818 94.4654 51.5619C95.3718 52.3233 95.4618 52.3337 95.5184 53.5894C97.6913 53.7856 98.7878 53.6735 100.261 55.457C102.604 58.2946 102.873 63.1269 102.53 66.6168C102.137 70.6395 100.541 75.5237 97.3447 78.2052C96.0384 79.3024 95.3618 79.2913 93.7589 79.5648C92.6524 91.2945 90.1597 101.38 80.6428 109.217C80.2662 109.526 79.8836 109.829 79.4957 110.124L76.721 111.912L74.5042 113.155C73.6234 113.543 72.7316 113.905 71.8304 114.243C61.831 117.963 52.6787 117.5 43.0339 113.063L41.5279 112.291C40.5811 111.782 39.7143 111.16 38.8232 110.556C27.9983 102.313 25.1772 92.5593 23.9675 79.4633C15.4871 77.8324 13.5995 64.698 15.9026 57.8762C17.0284 54.541 18.642 54.206 21.7563 53.47C22.0146 53.4087 22.0552 52.4809 22.0969 52.2115L23.124 51.5448C23.2593 50.9356 22.8691 45.9018 22.8874 44.8054C22.9321 41.5023 23.1993 37.9572 23.8695 34.7244C25.0749 28.9114 27.3727 22.022 32.6522 18.7654C33.4947 18.2457 33.3631 17.3791 33.4874 16.4386C33.8496 10.4744 42.1108 7.63516 46.739 5.88337C42.9929 1.64546 51.031 12.1847 54.8225 8.26244Z" fill="#803C07"/>
<path d="M55.5284 10.6047C62.1912 5.05309 61.1679 2.21497 66.3197 9.76803C68.1216 13.6354 74.2645 2.8845 71.1022 5.92688C77.4621 8.14189 84.1603 10.7753 84.7182 18.5121C93.6089 24.9971 94.6586 36.2957 94.7953 46.5006C94.8086 47.4478 94.282 50.9811 94.4653 51.5612C93.9254 51.6699 92.8057 51.6907 92.2158 51.7192C86.3141 51.7837 80.3695 50.8988 74.4771 51.2231C69.1327 51.5173 65.7148 51.3158 61.8906 55.4453C60.078 55.5869 57.5513 55.5454 55.6774 55.5604L55.5284 55.4065C54.8389 54.6976 53.6201 53.3769 52.7787 53.0174C45.1254 49.7498 33.564 51.7931 25.5078 51.6947C24.4473 51.7359 24.1421 51.6967 23.124 51.5441C23.2593 50.935 22.869 45.9012 22.8873 44.8047C22.932 41.5016 23.1993 37.9565 23.8695 34.7237C25.0749 28.9107 27.3727 22.0213 32.6522 18.7648C33.4946 18.245 33.363 17.3785 33.4873 16.438C33.8496 10.4737 42.1107 7.63449 46.739 5.8827C42.9928 1.64479 51.7369 14.527 55.5284 10.6047Z" fill="#FEBC8A"/>
<path d="M57.8207 11.7764C64.4836 6.22481 60.1672 5.05995 65.319 12.613C67.121 16.4804 74.2635 2.88452 71.1012 5.9269C77.4611 8.14191 84.1593 10.7753 84.7172 18.5121C84.2013 21.8383 83.5894 23.1148 81.1847 25.537C77.3942 28.8331 74.0719 30.931 69.179 32.3015C58.0272 35.4252 45.467 33.4639 36.9096 25.3489C33.8929 22.1526 33.5523 20.6424 33.4863 16.438C33.8486 10.4737 42.1097 7.63451 46.738 5.88272C42.9919 1.64481 54.0292 15.6987 57.8207 11.7764Z" fill="#FEBC8A"/>
<path d="M53.1546 12.9477C59.8174 7.39609 58.3337 8.74146 63.4856 16.2945C65.2875 20.1619 74.2625 2.88459 71.1002 5.92697C64.6547 3.97402 53.0226 3.80065 46.737 5.88279C42.9908 1.64488 49.3631 16.87 53.1546 12.9477Z" fill="#803C07"/>
<path d="M23.124 51.5446C23.2593 50.9355 22.869 45.9017 22.8873 44.8052C22.932 41.5021 23.1993 37.957 23.8695 34.7242C25.0749 28.9112 27.3727 22.0219 32.6522 18.7653C33.4946 18.2455 33.363 17.379 33.4873 16.4385C33.5533 20.6429 33.8939 22.1531 36.9105 25.3494C29.3009 32.471 25.8657 40.7534 25.5178 51.2504C25.5128 51.3987 25.5094 51.547 25.5078 51.6952C24.4473 51.7364 24.1421 51.6972 23.124 51.5446Z" fill="#A06A48"/>
<path d="M84.7181 18.5127C93.6088 24.9977 94.6585 36.2964 94.7952 46.5012C94.8085 47.4484 94.2819 50.9818 94.4652 51.5618C93.9253 51.6706 92.8056 51.6913 92.2157 51.7198C91.9025 40.7746 89.3697 33.1864 81.1855 25.5376C83.5903 23.1154 84.2022 21.8389 84.7181 18.5127Z" fill="#A06A48"/>
<path d="M69.521 40.4434C74.0483 40.2309 83.5655 42.0245 85.9396 47.6065C86.0876 47.9539 85.8533 48.2304 85.6547 48.4938C84.7276 48.9607 84.537 49.0886 83.4725 49.1157C78.5996 47.5751 74.7455 46.911 69.646 46.4843C66.2114 46.1968 65.211 41.9294 69.521 40.4434Z" fill="#4E2606"/>
<path d="M45.3465 40.5046C49.9654 40.364 53.4337 43.484 49.2489 46.0271C47.8609 46.8705 39.8807 47.4629 36.882 48.3103C36.4675 48.4482 36.0506 48.5778 35.631 48.6989C34.3083 49.0744 32.3307 49.4346 31.9238 47.7303C32.9469 43.0135 41.2377 40.8182 45.3465 40.5046Z" fill="#4E2606"/>
<path d="M61.8895 55.4462C65.7136 51.3167 69.1315 51.5182 74.476 51.224C80.3683 50.8997 86.313 51.7846 92.2147 51.7201C92.8045 51.6916 93.9243 51.6708 94.4642 51.5621C95.3706 52.3235 95.4606 52.3339 95.5173 53.5897C97.6901 53.7858 98.7866 53.6737 100.26 55.4572C102.602 58.2948 102.872 63.1271 102.529 66.617C102.136 70.6397 100.539 75.5239 97.3435 78.2055C96.0372 79.3026 95.3606 79.2915 93.7577 79.565L93.761 74.3357C93.781 72.0554 93.7543 64.7785 92.8712 62.9845C91.0616 71.5621 90.0418 76.8958 83.5223 83.3561C77.9482 79.1791 73.8301 78.2704 67.1233 77.5019C66.6411 77.4969 65.3477 77.437 65.0424 77.7596C62.3704 80.6501 57.7997 81.8737 54.4575 79.4258C52.5419 78.0227 53.1218 77.6134 50.6963 77.513C51.3642 77.4109 51.7917 77.3085 52.4453 77.1344C52.6989 75.0757 52.6129 72.838 52.8662 70.6163C50.2374 74.1516 47.0038 75.6357 42.6831 76.0728C27.4152 77.6171 26.4821 69.902 25.297 57.5611C22.5696 55.6795 22.2057 55.5339 22.0957 52.2117L23.1228 51.545C24.1409 51.6976 24.4462 51.7368 25.5066 51.6956C33.5628 51.794 45.1242 49.7507 52.7775 53.0183C53.619 53.3778 54.8377 54.6985 55.5272 55.4074L55.6762 55.5613C57.5501 55.5463 60.0769 55.5878 61.8895 55.4462Z" fill="#841D13"/>
<path d="M92.319 57.4362C94.3752 56.079 94.6285 55.8722 95.5183 53.5889C97.6911 53.785 98.7876 53.6729 100.261 55.4565C102.603 58.294 102.873 63.1263 102.53 66.6162C102.137 70.6389 100.541 75.5231 97.3446 78.2047C96.0382 79.3018 95.3617 79.2908 93.7587 79.5642L93.762 74.3349C93.782 72.0546 93.7554 64.7777 92.8722 62.9838C91.0626 71.5613 90.0429 76.895 83.5233 83.3553C77.9492 79.1783 73.8312 78.2696 67.1243 77.5011C66.3109 77.3633 65.3144 77.4476 64.6092 77.0875C64.6469 74.9313 64.7412 74.2519 64.3693 72.0329C64.1547 70.7537 63.5431 68.6133 63.5971 67.5055C65.6473 72.1912 69.1982 75.2142 74.2504 75.8377C91.3859 77.9523 90.3961 69.6 92.319 57.4362Z" fill="#FEBC8A"/>
<path d="M92.8711 62.9836C93.4976 61.4992 93.9875 59.9074 95.6138 59.2895C97.6533 58.5147 98.5098 61.0249 98.6898 62.5552C99.103 66.1046 97.78 69.6785 95.6871 72.4929C94.9573 73.483 94.1975 73.8367 93.7609 74.3347C93.7809 72.0545 93.7542 64.7775 92.8711 62.9836Z" fill="#F59C5F"/>
<path d="M52.8652 70.6164C53.0868 69.9286 53.8806 68.5543 54.2028 67.5807C55.034 65.0685 55.5462 62.6707 56.1101 60.1019C57.0156 59.05 59.2217 58.4458 60.3365 59.1976C62.4194 60.6023 62.7736 64.9941 63.5951 67.5064C63.5411 68.6142 64.1526 70.7546 64.3672 72.0338C64.7392 74.2528 64.6449 74.9322 64.6072 77.0883C65.3124 77.4485 66.3088 77.3641 67.1223 77.502C66.6401 77.497 65.3467 77.4371 65.0414 77.7597C62.3694 80.6502 57.7987 81.8738 54.4565 79.4259C52.5409 78.0228 53.1208 77.6135 50.6953 77.5131C51.3632 77.411 51.7907 77.3086 52.4442 77.1345C52.6979 75.0758 52.6119 72.8381 52.8652 70.6164Z" fill="#F59C5F"/>
<path d="M32.9105 53.5268C37.6541 53.1191 43.5298 53.3825 48.2664 53.8477C54.3104 54.4412 54.4221 59.0857 53.266 63.915C52.3472 67.7543 50.9528 70.4185 47.5259 72.5528C43.4192 74.2839 36.6484 74.9442 32.3127 72.4929C28.047 70.0815 26.633 59.6627 28.5229 55.3753C29.0807 54.1098 31.5545 53.747 32.9105 53.5268Z" fill="#FEBC8A"/>
<path d="M42.2118 57.5193C48.4847 57.3516 48.6507 65.1533 43.8308 67.9129C38.8269 68.3326 37.01 60.2467 42.2118 57.5193Z" fill="#0D0D0C"/>
<path d="M43.7087 59.1255C44.2006 58.9856 44.7295 59.1262 45.0881 59.492C45.447 59.8578 45.5787 60.391 45.432 60.883C45.2854 61.375 44.8832 61.7475 44.3833 61.8549C43.6444 62.0139 42.9129 61.555 42.731 60.818C42.549 60.0814 42.9816 59.3323 43.7087 59.1255Z" fill="white"/>
<path d="M71.4006 53.5526C74.8894 53.1302 84.6546 53.079 87.7456 54.4432C91.4481 56.0765 89.5618 67.0736 87.8356 69.8549C86.3542 72.2436 85.3694 72.7561 82.6854 73.4536L82.5417 73.4854C72.7459 75.5678 64.9567 71.5739 64.1085 60.9296C63.5943 54.4747 65.7578 54.2842 71.4006 53.5526Z" fill="#FEBC8A"/>
<path d="M73.7839 57.4492C79.5596 58.2009 79.7359 65.2864 74.9587 67.966C69.9335 67.9098 68.7384 60.0803 73.7839 57.4492Z" fill="#0D0D0C"/>
<path d="M74.0965 59.3717C74.505 59.0631 75.0473 59.0005 75.5148 59.2074C75.9824 59.4145 76.302 59.859 76.3506 60.3701C76.3993 60.8808 76.1693 61.3782 75.7494 61.6707C75.1176 62.1108 74.2511 61.9619 73.8005 61.3357C73.3503 60.7091 73.4819 59.8359 74.0965 59.3717Z" fill="white"/>
<path d="M23.9675 79.4628C15.4871 77.8318 13.5995 64.6974 15.9026 57.8757C17.0284 54.5404 18.642 54.2054 21.7563 53.4694C22.0146 53.4081 22.0552 52.4804 22.0969 52.2109C22.2069 55.5331 22.5708 55.6787 25.2982 57.5604C26.4833 69.9012 27.4164 77.6163 42.6843 76.072C47.005 75.6349 50.2386 74.1509 52.8674 70.6155C52.6141 72.8372 52.7001 75.0749 52.4465 77.1337C51.7929 77.3077 51.3654 77.4101 50.6975 77.5122C44.4516 77.9667 39.0908 79.3467 34.1185 83.3861C26.8928 77.4034 26.7292 70.3491 24.724 62.6829C24.0541 65.8899 23.8249 71.1195 23.7999 74.442C23.8552 75.8504 24.0162 78.119 23.9675 79.4628Z" fill="#FEBC8A"/>
<path d="M23.7988 74.4422C14.111 65.7204 21.0421 52.9424 24.7229 62.683C24.0531 65.8901 23.8238 71.1197 23.7988 74.4422Z" fill="#F59C5F"/>
<path d="M43.855 84.5488C49.8563 85.8578 54.4216 87.4486 60.7749 86.9867C62.4075 86.8683 63.4643 86.793 65.1259 86.5329C67.3897 86.1781 72.0337 84.5097 73.9942 84.9307C75.9461 86.8097 72.7812 90.5358 71.4258 92.0226C68.6248 94.423 66.4103 95.569 62.4285 96.4539C55.5394 97.9852 45.1487 94.6921 43.2225 87.0624C42.9385 85.9378 43.2038 85.4425 43.855 84.5488Z" fill="white"/>
<path d="M23.1619 51.543L25.9946 51.7104C26.3495 50.1644 29.6819 35.7189 33.3263 29.4531C36.3888 31.1613 39.4539 31.7541 42.9479 32.0292C46.7487 32.5214 50.5858 32.6725 54.4134 32.4807C62.3142 32.0656 70.1039 30.4321 77.5081 27.6377C79.187 27.0084 85.0152 24.327 85.179 24.9016C71.4845 21.4205 91.7985 39.8443 91.3133 51.7104H94.4793C97.605 38.5496 95.7982 38.7875 95.2795 34.5054C94.948 30.4398 93.5854 26.5265 91.3212 23.1368C94.406 21.5635 98.8557 18.0066 98.6373 14.0528C98.6373 13.9297 98.6373 13.9708 98.6373 14.0528C98.5145 12.7669 96.2759 14.4496 95.7027 14.7506C95.9211 14.0118 96.3578 11.8229 94.9383 12.3428C94.9383 11.946 95.0339 10.8653 94.5152 10.6874C93.9965 10.5096 93.2458 11.2894 92.9046 11.5356C92.2509 12.0189 91.5568 12.4446 90.8299 12.8079C90.0928 12.4522 89.3421 12.0828 88.5914 11.7682C87.0899 11.1389 85.5749 10.5506 84.0325 10.0307C82.4618 9.39513 80.9614 8.59735 79.5555 7.6503C73.4269 3.9702 66.7934 0.686851 59.5592 0.112263C52.132 -0.503388 44.7163 1.42594 38.5255 5.58452C35.7779 7.40127 33.3975 9.7221 31.5098 12.4248C30.527 13.8887 27.415 19.5525 30.8273 20.1271C19.9215 27.9797 22.9162 50.1065 23.1619 51.543Z" fill="#663B13"/>
<path d="M202.441 168.191L179.812 181.509C179.351 181.754 178.832 181.864 178.312 181.826C177.792 181.789 177.293 181.605 176.871 181.297L166.657 173.143C166.513 173.043 166.39 172.915 166.296 172.766C166.203 172.617 166.14 172.451 166.112 172.277V172.188L165.988 170.137L169.281 169.659L201.244 165.079L203.005 164.849L203.146 167.006V167.166C203.139 167.386 203.069 167.601 202.944 167.783C202.819 167.964 202.645 168.106 202.441 168.191Z" fill="#32324C"/>
<path d="M176.731 179.227L166.517 171.056C166.338 170.949 166.192 170.794 166.095 170.608C165.998 170.422 165.955 170.213 165.97 170.004C165.984 169.795 166.056 169.594 166.178 169.424C166.299 169.254 166.466 169.121 166.658 169.04L189.305 155.722C189.762 155.478 190.277 155.367 190.794 155.402C191.31 155.436 191.807 155.614 192.228 155.917L202.459 164.088C202.633 164.199 202.774 164.355 202.867 164.54C202.96 164.725 203.001 164.931 202.987 165.138C202.972 165.344 202.902 165.543 202.785 165.713C202.667 165.883 202.506 166.018 202.319 166.104L179.672 179.368C179.216 179.619 178.701 179.739 178.182 179.714C177.662 179.689 177.16 179.521 176.731 179.227Z" fill="#434361"/>
<g opacity="0.15">
<path d="M178.844 176.399L170.937 170.067C170.758 169.96 170.612 169.805 170.515 169.619C170.418 169.434 170.375 169.225 170.389 169.016C170.404 168.807 170.476 168.606 170.598 168.436C170.719 168.265 170.885 168.132 171.078 168.051L188.688 157.687C189.147 157.446 189.663 157.338 190.18 157.375C190.696 157.413 191.192 157.594 191.611 157.899L199.536 164.213C199.714 164.323 199.859 164.48 199.955 164.667C200.051 164.854 200.094 165.064 200.08 165.273C200.065 165.483 199.994 165.685 199.873 165.856C199.752 166.028 199.587 166.163 199.395 166.247L181.785 176.611C181.323 176.852 180.804 176.96 180.284 176.922C179.765 176.885 179.267 176.704 178.844 176.399Z" fill="white"/>
</g>
</g>
<defs>
<clipPath id="clip0_1305_54150">
<rect width="204" height="237" fill="white"/>
</clipPath>
<clipPath id="clip1_1305_54150">
<rect width="55" height="35" fill="white" transform="translate(31 160)"/>
</clipPath>
</defs>
</svg>
