<svg width="135" height="16" viewBox="0 0 135 16" fill="none" xmlns="http://www.w3.org/2000/svg">
<path d="M74.7435 1.86724C60.1751 0.429632 45.7289 -0.541768 31.2848 0.331013C23.666 0.791578 16.4485 1.52569 9.70857 4.12883L9.12506 4.36188C6.23674 5.5513 3.76273 7.14035 1.83189 9.33325C0.205994 11.1859 -0.353943 12.985 0.217575 14.9914L0.220428 15.001C0.389297 15.602 0.567841 15.8585 0.648392 15.9415C0.663544 15.9571 0.672256 15.9636 0.674194 15.9649C0.674194 15.9649 0.676163 15.966 0.678497 15.967C0.681656 15.9684 0.696213 15.9748 0.726532 15.9815C0.757019 15.9882 0.809525 15.9959 0.887817 15.9994C0.939545 16.0008 0.979019 15.9995 1.00752 15.9974C1.02704 15.9712 1.05432 15.9325 1.08638 15.8767C1.1637 15.7421 1.25475 15.5418 1.35233 15.2534L1.35376 15.2492L1.46201 14.9431C3.78781 8.57592 9.66763 6.62536 14.2684 5.41132C20.8289 3.67373 27.5497 3.36843 33.9637 3.21247L36.6927 3.15111C56.2601 2.71734 75.5636 5.25495 94.6058 7.71428C103.212 8.82522 111.531 9.69922 119.852 8.8961L119.859 8.89541L120.784 8.80025C121.66 8.70253 122.536 8.58753 123.492 8.47205C127.113 7.70502 130.215 6.62267 132.735 4.58942L132.739 4.58597L132.743 4.58253L132.948 4.4136C133.952 3.56721 134.601 2.68872 134.902 1.70796L134.905 1.699C135.036 1.27714 135.006 1.02414 134.964 0.884689C134.924 0.753043 134.824 0.550103 134.507 0.298606C134.313 0.145158 134.203 0.115043 134.179 0.11037C134.187 0.110874 134.185 0.108648 134.163 0.114507C134.137 0.121379 134.064 0.145065 133.947 0.218623L133.945 0.219312C126.978 4.57942 119.227 5.26521 111.939 5.22653L111.938 5.22722L111.938 5.22653C99.3567 5.16493 86.7429 3.04991 74.7435 1.86724Z" fill="#D3C393"/>
</svg>
