<svg width="20" height="20" viewBox="0 0 20 20" fill="none" xmlns="http://www.w3.org/2000/svg">
<path d="M5.625 3.75C5.12772 3.75 4.65081 3.94754 4.29917 4.29917C3.94754 4.65081 3.75 5.12772 3.75 5.625V6.875C3.75 7.04076 3.68415 7.19973 3.56694 7.31694C3.44973 7.43415 3.29076 7.5 3.125 7.5C2.95924 7.5 2.80027 7.43415 2.68306 7.31694C2.56585 7.19973 2.5 7.04076 2.5 6.875V5.625C2.5 4.7962 2.82924 4.00134 3.41529 3.41529C4.00134 2.82924 4.7962 2.5 5.625 2.5H6.875C7.04076 2.5 7.19973 2.56585 7.31694 2.68306C7.43415 2.80027 7.5 2.95924 7.5 3.125C7.5 3.29076 7.43415 3.44973 7.31694 3.56694C7.19973 3.68415 7.04076 3.75 6.875 3.75H5.625ZM6.875 5C6.37772 5 5.90081 5.19754 5.54917 5.54917C5.19754 5.90081 5 6.37772 5 6.875V13.125C5 13.6223 5.19754 14.0992 5.54917 14.4508C5.90081 14.8025 6.37772 15 6.875 15H13.125C13.6223 15 14.0992 14.8025 14.4508 14.4508C14.8025 14.0992 15 13.6223 15 13.125V6.875C15 6.37772 14.8025 5.90081 14.4508 5.54917C14.0992 5.19754 13.6223 5 13.125 5H6.875ZM14.375 3.75C14.8723 3.75 15.3492 3.94754 15.7008 4.29917C16.0525 4.65081 16.25 5.12772 16.25 5.625V6.875C16.25 7.04076 16.3158 7.19973 16.4331 7.31694C16.5503 7.43415 16.7092 7.5 16.875 7.5C17.0408 7.5 17.1997 7.43415 17.3169 7.31694C17.4342 7.19973 17.5 7.04076 17.5 6.875V5.625C17.5 4.7962 17.1708 4.00134 16.5847 3.41529C15.9987 2.82924 15.2038 2.5 14.375 2.5H13.125C12.9592 2.5 12.8003 2.56585 12.6831 2.68306C12.5658 2.80027 12.5 2.95924 12.5 3.125C12.5 3.29076 12.5658 3.44973 12.6831 3.56694C12.8003 3.68415 12.9592 3.75 13.125 3.75H14.375ZM14.375 16.25C14.8723 16.25 15.3492 16.0525 15.7008 15.7008C16.0525 15.3492 16.25 14.8723 16.25 14.375V13.125C16.25 12.9592 16.3158 12.8003 16.4331 12.6831C16.5503 12.5658 16.7092 12.5 16.875 12.5C17.0408 12.5 17.1997 12.5658 17.3169 12.6831C17.4342 12.8003 17.5 12.9592 17.5 13.125V14.375C17.5 15.2038 17.1708 15.9987 16.5847 16.5847C15.9987 17.1708 15.2038 17.5 14.375 17.5H13.125C12.9592 17.5 12.8003 17.4342 12.6831 17.3169C12.5658 17.1997 12.5 17.0408 12.5 16.875C12.5 16.7092 12.5658 16.5503 12.6831 16.4331C12.8003 16.3158 12.9592 16.25 13.125 16.25H14.375ZM5.625 16.25C5.12772 16.25 4.65081 16.0525 4.29917 15.7008C3.94754 15.3492 3.75 14.8723 3.75 14.375V12.8125C3.75 12.6467 3.68415 12.4878 3.56694 12.3706C3.44973 12.2533 3.29076 12.1875 3.125 12.1875C2.95924 12.1875 2.80027 12.2533 2.68306 12.3706C2.56585 12.4878 2.5 12.6467 2.5 12.8125V14.375C2.5 15.2038 2.82924 15.9987 3.41529 16.5847C4.00134 17.1708 4.7962 17.5 5.625 17.5H7.1875C7.35326 17.5 7.51223 17.4342 7.62944 17.3169C7.74665 17.1997 7.8125 17.0408 7.8125 16.875C7.8125 16.7092 7.74665 16.5503 7.62944 16.4331C7.51223 16.3158 7.35326 16.25 7.1875 16.25H5.625Z" fill="#923D4F"/>
</svg>
