<svg width="143" height="143" viewBox="0 0 143 143" fill="none" xmlns="http://www.w3.org/2000/svg">
<path d="M89.0798 40.4674C89.2135 41.0854 89.8236 41.4785 90.4416 41.3448L94.1727 40.5378L94.9787 44.2641C95.1124 44.8819 95.7215 45.2742 96.3393 45.1408C96.9573 45.0071 97.3506 44.3979 97.217 43.7799L96.411 40.0536L100.139 39.2472C100.757 39.1134 101.149 38.5035 101.016 37.8856C100.882 37.2678 100.273 36.8754 99.6551 37.0089L95.9268 37.8153L95.1194 34.0823C94.9857 33.4643 94.3756 33.0712 93.7576 33.2049C93.1398 33.3387 92.7474 33.9486 92.8811 34.5665L93.6885 38.2995L89.9575 39.1065C89.3395 39.2402 88.9463 39.8495 89.0798 40.4674Z" fill="#8B7B70"/>
<path d="M6.8741 78.0712C7.29079 78.5465 8.01375 78.5942 8.4892 78.1778L11.3618 75.6607L13.8763 78.5303C14.2929 79.0058 15.0165 79.054 15.492 78.6375C15.9676 78.2208 16.0153 77.4966 15.5986 77.0211L13.0841 74.1514L15.9515 71.6389C16.427 71.2222 16.4752 70.4987 16.0588 70.0231C15.6421 69.5476 14.9179 69.4998 14.4423 69.9165L11.5749 72.4291L9.05974 69.5587C8.64303 69.0833 7.91942 69.0362 7.4439 69.4528C6.96859 69.8696 6.92082 70.5925 7.33738 71.068L9.85254 73.9383L6.97998 76.4554C6.50457 76.8721 6.45744 77.5957 6.8741 78.0712Z" fill="#8B7B70"/>
<path d="M95.2294 137.859C95.817 138.092 96.4831 137.806 96.7167 137.218L98.1261 133.673L101.673 135.083C102.26 135.316 102.925 135.029 103.159 134.442C103.392 133.854 103.106 133.189 102.518 132.956L98.9717 131.546L100.382 127.998C100.615 127.411 100.328 126.744 99.7405 126.511C99.1531 126.277 98.4873 126.565 98.2538 127.152L96.8436 130.7L93.2972 129.29C92.7097 129.057 92.0443 129.343 91.8108 129.931C91.5773 130.518 91.8643 131.183 92.4516 131.417L95.9981 132.827L94.5886 136.373C94.3551 136.96 94.6421 137.625 95.2294 137.859Z" fill="#8B7B70"/>
<circle cx="6.1059" cy="6.1059" r="5.1059" transform="matrix(-0.541631 0.840616 0.840616 0.541631 62.5099 75.1465)" stroke="#8B7B70" stroke-width="2"/>
<path d="M38.3004 35.934C37.5908 36.0658 37.2646 36.8713 37.6386 37.4537L37.7227 37.5673L43.0991 43.8569C43.5992 44.442 44.5454 44.2661 44.8021 43.5404L47.5613 35.7396C47.8177 35.014 47.1924 34.2832 46.4357 34.4237L38.3004 35.934Z" stroke="#8B7B70" stroke-width="2"/>
<path d="M122.306 86.4643C122.805 85.9432 122.6 85.0987 121.956 84.8441L121.821 84.8009L113.785 82.8318C113.037 82.6486 112.372 83.3436 112.587 84.0827L114.899 92.0274C115.115 92.7662 116.049 92.9947 116.581 92.4389L122.306 86.4643Z" stroke="#8B7B70" stroke-width="2"/>
</svg>
