<svg width="139" height="143" viewBox="0 0 139 143" fill="none" xmlns="http://www.w3.org/2000/svg">
<path d="M49.7426 40.4674C49.6089 41.0854 48.9988 41.4785 48.3808 41.3448L44.6497 40.5378L43.8437 44.2641C43.71 44.8819 43.1009 45.2742 42.483 45.1408C41.865 45.0071 41.4717 44.3979 41.6054 43.7799L42.4114 40.0536L38.6832 39.2472C38.0653 39.1134 37.673 38.5035 37.8067 37.8856C37.9405 37.2678 38.5495 36.8754 39.1673 37.0089L42.8956 37.8153L43.703 34.0823C43.8367 33.4643 44.4468 33.0712 45.0648 33.2049C45.6826 33.3387 46.0749 33.9486 45.9413 34.5665L45.1338 38.2995L48.8649 39.1065C49.4828 39.2402 49.8761 39.8495 49.7426 40.4674Z" fill="#8B7B70"/>
<path d="M131.948 78.0712C131.532 78.5465 130.809 78.5942 130.333 78.1778L127.461 75.6607L124.946 78.5303C124.529 79.0058 123.806 79.054 123.33 78.6375C122.855 78.2208 122.807 77.4966 123.224 77.0211L125.738 74.1514L122.871 71.6389C122.395 71.2222 122.347 70.4987 122.764 70.0231C123.18 69.5476 123.905 69.4998 124.38 69.9165L127.247 72.4291L129.763 69.5587C130.179 69.0833 130.903 69.0362 131.378 69.4528C131.854 69.8696 131.902 70.5925 131.485 71.068L128.97 73.9383L131.842 76.4554C132.318 76.8721 132.365 77.5957 131.948 78.0712Z" fill="#8B7B70"/>
<path d="M43.593 137.859C43.0054 138.092 42.3393 137.806 42.1057 137.218L40.6963 133.673L37.1498 135.083C36.5623 135.316 35.897 135.029 35.6634 134.442C35.4299 133.854 35.7168 133.189 36.3042 132.956L39.8507 131.546L38.4405 127.998C38.2069 127.411 38.4943 126.744 39.0818 126.511C39.6693 126.277 40.335 126.565 40.5686 127.152L41.9787 130.7L45.5252 129.29C46.1126 129.057 46.778 129.343 47.0116 129.931C47.245 130.518 46.958 131.183 46.3708 131.417L42.8243 132.827L44.2338 136.373C44.4673 136.96 44.1803 137.625 43.593 137.859Z" fill="#8B7B70"/>
<circle cx="74.4869" cy="83.5863" r="5.1059" transform="rotate(57.2053 74.4869 83.5863)" stroke="#8B7B70" stroke-width="2"/>
<path d="M100.522 35.934C101.232 36.0658 101.558 36.8713 101.184 37.4537L101.1 37.5673L95.7233 43.8569C95.2231 44.442 94.277 44.2661 94.0203 43.5404L91.2611 35.7396C91.0047 35.014 91.63 34.2832 92.3867 34.4237L100.522 35.934Z" stroke="#8B7B70" stroke-width="2"/>
<path d="M16.5168 86.4643C16.0176 85.9432 16.2228 85.0987 16.8664 84.8441L17.001 84.8009L25.0376 82.8318C25.7852 82.6486 26.4509 83.3436 26.2357 84.0827L23.9232 92.0274C23.7079 92.7662 22.7736 92.9947 22.2412 92.4389L16.5168 86.4643Z" stroke="#8B7B70" stroke-width="2"/>
</svg>
