<svg width="119" height="241" viewBox="0 0 119 241" fill="none" xmlns="http://www.w3.org/2000/svg">
<path d="M91.5598 240.16V205.954L24.0664 219.767V240.16H91.5598Z" fill="#9EC2DD"/>
<path d="M60.7104 126.602C27.1813 126.602 0 147.998 0 174.39V189.043H24.3165V240.161H119V174.39C119 147.998 94.2395 126.602 60.7104 126.602Z" fill="#9EC2DD"/>
<path d="M0.112098 172.652C0.0446927 173.616 0 174.585 0 175.563V208.241C0 216.076 6.35077 222.426 14.1852 222.426L81.5995 221.252V172.651L0.112098 172.652Z" fill="#9EC2DD"/>
<path d="M66.3269 207.418C64.3252 204.199 53.8605 204.278 47.9398 204.597C45.3762 204.735 42.9928 205.942 41.3671 207.929L39.4064 208.23V206.594H25.8008V228.237H39.4064V225.936C41.156 225.228 44.2332 226.744 46.8811 227.554C49.9568 228.496 56.5787 226.882 60.3439 226.21C64.1083 225.537 62.092 223.117 62.092 223.117C65.1846 221.369 62.8987 219.083 62.8987 219.083C69.0839 215.991 65.1172 212.562 65.1172 212.562C65.1172 212.562 69.1506 211.958 66.3269 207.418Z" fill="#8FB3CE"/>
<path d="M71.4355 201.566C69.998 199.255 64.1989 198.644 58.8504 198.601C58.8504 198.601 55.2464 198.299 55.5886 195.11C55.5893 195.103 55.59 195.098 55.5908 195.091C56.1447 192.624 56.1447 189.633 54.6632 186.43C54.6632 186.43 52.2579 184.559 51.7237 189.726C51.1889 194.893 47.3666 201.137 47.3666 201.137L47.3629 201.152C47.0501 201.441 46.7482 201.743 46.4756 202.077L36.1406 203.667C36.1406 203.667 42.2965 222.357 43.775 220.609C45.2543 218.861 48.914 220.763 51.9897 221.703C55.0655 222.645 61.6873 221.031 65.4525 220.359C69.2169 219.686 67.2006 217.266 67.2006 217.266C70.2932 215.518 68.0073 213.232 68.0073 213.232C74.1925 210.14 70.2258 206.711 70.2258 206.711C70.2258 206.711 74.2592 206.106 71.4355 201.566Z" fill="#F8BC91"/>
<path d="M47.6259 200.742H47.5988C47.4567 200.989 47.3666 201.137 47.3666 201.137L47.3629 201.152C47.0501 201.441 46.7482 201.743 46.4756 202.077L36.1406 203.667C36.1406 203.667 42.2965 222.357 43.775 220.609C44.5707 219.669 45.9987 219.787 47.6259 220.242V200.742Z" fill="#D19066"/>
<path d="M14.5319 222.384H44.5156V200.742H14.5319L14.5319 222.384Z" fill="#9EC2DD"/>
<path d="M22.3216 200.742H42.8451C43.6283 200.742 44.3588 201.272 44.4884 202.045C44.6533 203.026 43.8921 203.884 42.9403 203.884H22.3208C21.4534 203.884 20.75 203.181 20.75 202.313C20.7507 201.445 21.4541 200.742 22.3216 200.742Z" fill="#8FB3CE"/>
<path d="M27.2074 222.385H24.0664V240.16H27.2074V222.385Z" fill="#8FB3CE"/>
<path d="M1.73496 207.453C2.69255 207.453 3.46919 206.676 3.46919 205.719V174.39C3.46919 148.456 29.7192 127.362 62.4431 126.637C61.8658 126.624 61.2928 126.602 60.7104 126.602C27.1813 126.602 0 147.998 0 174.39V205.719C0 206.676 0.776626 207.453 1.73496 207.453Z" fill="#8FB3CE"/>
<path d="M60.7125 126.602C48.2938 126.602 36.7513 129.543 27.1328 134.58C32.0886 143.379 40.8909 149.739 56.507 150.375C74.6061 151.112 84.6151 143.46 90.1386 132.864C81.6272 128.887 71.641 126.602 60.7125 126.602Z" fill="#8FB3CE"/>
<path d="M59.7924 126.602C55.5085 126.602 51.4041 127.197 47.5898 128.271V138.666C50.1959 139.88 53.3757 140.647 57.2801 140.806C62.4403 141.016 66.489 140.075 69.682 138.356V127.718C66.574 126.999 63.266 126.602 59.7924 126.602Z" fill="#C6C6C6"/>
<path d="M89.8119 53.2921C90.1717 53.2657 90.5351 53.2598 90.9014 53.2818C97.1796 53.6569 101.839 61.177 101.307 70.0782C100.775 78.9794 95.2542 85.8914 88.9752 85.5163C88.6089 85.4943 88.2491 85.4459 87.8945 85.3763L89.8119 53.2921Z" fill="#F8BC91"/>
<path d="M58.5542 121.078C48.6199 121.078 40.5664 128.346 40.5664 137.312V141.904C40.5664 143.335 42.0852 144.254 43.3527 143.592L58.5534 135.65L73.7541 143.592C75.0223 144.254 76.5404 143.335 76.5404 141.904V137.312C76.5419 128.346 68.4884 121.078 58.5542 121.078Z" fill="#D9D9D8"/>
<path d="M25.6339 201.592V176.033C25.6339 175.169 24.9268 174.462 24.063 174.462C23.1992 174.462 22.4922 175.169 22.4922 176.033V201.592H25.6339Z" fill="#8FB3CE"/>
<path d="M93.1261 221.253V176.754C93.1261 175.89 92.419 175.183 91.5552 175.183C90.6914 175.183 89.9844 175.89 89.9844 176.754V221.253H93.1261Z" fill="#8FB3CE"/>
<path d="M93.1261 184.556H89.9844V240.161H93.1261V184.556Z" fill="#8FB3CE"/>
<path d="M47.1992 109.61V129.269C47.1992 131.079 52.851 132.546 59.8224 132.546C66.7937 132.546 72.4455 131.079 72.4455 129.269V109.61H47.1992Z" fill="#F8BC91"/>
<path d="M60.4759 125.401C65.0895 125.28 69.0481 124.543 72.4455 123.311V109.61H47.1992V123.625C51.0325 124.883 55.4227 125.534 60.4759 125.401Z" fill="#D19066"/>
<path d="M47.1992 117.682C50.5453 119.083 54.0797 119.924 57.7284 120.073C62.9538 120.286 67.9191 119.061 72.4455 116.763V109.61H47.1992V117.682Z" fill="#D19066"/>
<path d="M22.9771 57.7791C22.6167 57.801 22.2562 57.8443 21.8965 57.9146C15.7245 59.1257 12.1124 67.2012 13.8298 75.9514C15.5472 84.7017 21.9419 90.8136 28.1139 89.6032C28.4736 89.5321 28.8238 89.4362 29.166 89.3204L22.9771 57.7791Z" fill="#F8BC91"/>
<path d="M28.112 89.6032C28.4717 89.5329 28.8219 89.4362 29.1641 89.3204L22.9752 57.7798C22.6148 57.8018 22.2543 57.845 21.8946 57.9153C20.5296 58.1835 19.2914 58.7872 18.207 59.6591C18.3133 60.0503 18.4232 60.4482 18.5375 60.8519C21.359 70.8015 22.0228 76.6159 22.5247 79.7481C22.9569 83.3338 23.5159 86.5465 24.1929 89.4252C25.4788 89.7842 26.8005 89.8604 28.112 89.6032Z" fill="#D19066"/>
<path d="M22.529 62.4857C20.0094 24.154 36.1911 18.6428 55.768 18.1277C75.3456 17.6127 90.7207 19.4715 93.4249 60.6203C94.8192 81.8355 97.892 118.941 62.4441 119.874C26.9961 120.807 23.924 83.7009 22.529 62.4857Z" fill="#F8BC91"/>
<path d="M64.1953 45.0606C64.1953 45.0606 70.7424 38.6021 80.5858 42.5219C80.5858 42.5219 76.8448 36.5558 70.5644 38.2021C64.284 39.8491 64.1953 45.0606 64.1953 45.0606Z" fill="#D19066"/>
<path d="M84.0947 26.7124C77.2215 18.3146 67.2133 17.8266 55.7653 18.1277C44.5702 18.4223 34.4872 20.2972 28.3672 28.7653C29.4618 35.0619 38.7 39.9488 47.0634 40.321C56.8848 40.7577 71.4408 39.3399 84.0947 26.7124Z" fill="#D19066"/>
<path d="M93.6765 64.5569C93.6003 62.6754 93.4955 60.8532 93.3798 59.1249C90.7121 19.393 75.3393 17.6119 55.7617 18.1269C36.184 18.642 19.9987 23.9788 22.4831 60.9902C22.8136 65.913 23.0685 71.5656 23.7543 77.2994C26.4666 97.483 34.3758 120.612 62.4385 119.873C95.7815 118.996 95.0422 86.1149 93.6765 64.5569ZM91.9665 71.23C90.3268 88.3495 81.9216 87.8213 79.8247 87.4146C79.4386 87.3399 79.0495 87.3062 78.6561 87.3158L49.69 87.9773C48.7266 87.9993 47.7888 88.2872 46.9601 88.7803C39.3001 93.339 32.9581 88.2675 29.1519 83.5704C23.5689 75.1264 27.2528 56.803 27.2528 56.803C30.4604 45.8907 38.1271 34.1255 55.9881 30.8592C88.0833 24.9898 91.7957 57.3518 91.9921 70.5962C91.9958 70.8087 91.987 71.019 91.9665 71.23Z" fill="#AA551B"/>
<path d="M60.7126 104.784C60.1609 104.784 59.6935 104.361 59.6481 103.802C59.6004 103.213 60.0386 102.697 60.6277 102.65C62.7451 102.478 65.1431 101.71 67.3777 100.484C72.9123 97.4509 75.3323 93.0468 74.1212 90.8363C73.8377 90.3184 74.0274 89.6692 74.5447 89.3849C75.0627 89.1014 75.7118 89.2904 75.9961 89.8091C77.9787 93.4263 74.6451 98.9389 68.4057 102.359C65.9124 103.726 63.2111 104.586 60.7998 104.781C60.7705 104.783 60.7419 104.784 60.7126 104.784Z" fill="#422918"/>
<path d="M63.3285 118.182C35.2666 118.92 27.3574 95.7914 24.6443 75.6078C23.9586 69.8739 23.7043 64.2214 23.3739 59.2986C22.5028 46.3238 23.9285 37.246 26.9882 30.8997C23.3211 37.2907 21.5312 46.8162 22.483 60.9911C22.8134 65.9139 23.0684 71.5664 23.7542 77.3003C26.4665 97.4838 34.3764 120.612 62.4383 119.874C76.9078 119.493 84.9562 113.085 89.3229 104.191C84.781 112.196 76.8631 117.826 63.3285 118.182Z" fill="#632B0B"/>
<path d="M49.3524 62.7231C49.4337 65.8223 47.6292 68.3838 45.3212 68.4446C43.0133 68.5054 41.0762 66.0421 40.9948 62.943C40.9135 59.8438 42.7181 57.2823 45.026 57.2215C47.3339 57.1615 49.2711 59.624 49.3524 62.7231Z" fill="#D19066"/>
<path d="M49.3211 61.4124C49.4025 64.5116 47.5979 67.073 45.29 67.1345C42.9821 67.1953 41.0449 64.7321 40.9636 61.633C40.8823 58.5338 42.6868 55.9723 44.9947 55.9115C47.3026 55.85 49.2398 58.3132 49.3211 61.4124Z" fill="#1E1C3C"/>
<path d="M47.8306 59.215C47.8547 60.1411 47.1243 60.9111 46.1982 60.936C45.2721 60.9602 44.5013 60.2297 44.4771 59.3029C44.453 58.3768 45.1834 57.6061 46.1095 57.5819C47.0364 57.5577 47.8064 58.2889 47.8306 59.215Z" fill="white"/>
<path d="M78.6851 59.0598C78.7665 62.159 76.9619 64.7205 74.654 64.7813C72.3461 64.8421 70.4089 62.3788 70.3269 59.2797C70.2455 56.1805 72.0501 53.619 74.3587 53.5582C76.6659 53.4974 78.6031 55.9607 78.6851 59.0598Z" fill="#D19066"/>
<path d="M78.6454 57.749C78.7267 60.8482 76.9221 63.4104 74.6142 63.4705C72.3063 63.5313 70.3691 61.0681 70.2878 57.9689C70.2065 54.8697 72.011 52.3083 74.319 52.2474C76.6261 52.1866 78.5633 54.6499 78.6454 57.749Z" fill="#1E1C3C"/>
<path d="M77.1548 55.5519C77.179 56.478 76.4485 57.248 75.5224 57.273C74.5963 57.2971 73.8255 56.5659 73.8014 55.6398C73.7772 54.7137 74.5084 53.943 75.4345 53.9188C76.3598 53.8946 77.1306 54.6258 77.1548 55.5519Z" fill="white"/>
<path d="M66.349 68.7258C64.1634 68.5045 62.4937 59.9697 61.9882 55.7385L58.7109 55.9583C58.804 60.9888 59.8011 77.7662 62.0138 79.5554C68.525 84.8218 77.1046 69.8168 66.349 68.7258Z" fill="#EC6E24"/>
<path d="M63.9208 46.1303C64.2271 46.0856 64.5055 45.8936 64.6498 45.594C66.4822 41.7848 68.7484 39.6498 71.3831 39.2498C71.3911 39.2491 71.3992 39.2476 71.4073 39.2461C75.9696 38.5721 80.3619 43.2231 80.4059 43.2707C80.7685 43.6605 81.3781 43.6832 81.7686 43.3205C82.1584 42.9578 82.1819 42.349 81.8199 41.9585C81.6133 41.7357 76.6993 36.5147 71.1259 37.3383C71.1178 37.3397 71.1105 37.3405 71.1032 37.3419C67.7959 37.8401 65.0396 40.3356 62.912 44.758C62.6812 45.2379 62.8827 45.8138 63.3633 46.0453C63.5428 46.1317 63.7362 46.1574 63.9208 46.1303Z" fill="#964D15"/>
<path d="M36.7461 57.5139C36.7461 57.5139 43.2932 51.0555 53.1366 54.9752C53.1366 54.9752 49.3949 49.0084 43.1152 50.6554C36.8348 52.3025 36.7461 57.5139 36.7461 57.5139Z" fill="#D19066"/>
<path d="M36.413 58.3754C36.7193 58.3307 36.9977 58.1387 37.142 57.8391C38.9744 54.0299 41.2406 51.8949 43.8753 51.4949C43.8833 51.4934 43.8914 51.4927 43.8995 51.4912C48.4618 50.8172 52.8541 55.4689 52.8981 55.5158C53.2607 55.9056 53.8703 55.9283 54.2608 55.5656C54.6506 55.2037 54.6733 54.5941 54.3121 54.2036C54.1055 53.9808 49.1915 48.7599 43.6181 49.5834C43.61 49.5848 43.6027 49.5856 43.5954 49.587C40.2881 50.0853 37.5318 52.5807 35.4041 57.0031C35.1734 57.483 35.3748 58.0589 35.8555 58.2904C36.035 58.3769 36.2291 58.4025 36.413 58.3754Z" fill="#964D15"/>
<path d="M37.9414 98.2363C37.9414 98.2363 52.4446 101.169 67.3566 89.4912C67.3566 89.4912 83.0569 91.5683 90.4459 82.8305C90.4459 82.8305 79.2185 71.4383 64.8948 81.8942C64.8948 81.8942 46.1319 79.3862 37.9414 98.2363Z" fill="#632B0B"/>
<path d="M18.1663 151.653C17.6065 151.653 17.06 151.371 16.7435 150.861C15.2437 148.438 14.0091 147.523 13.9967 147.514C13.2567 146.975 13.0808 145.935 13.612 145.188C14.144 144.442 15.1682 144.258 15.9192 144.78C16.0972 144.903 17.712 146.075 19.5855 149.102C20.0712 149.886 19.8287 150.916 19.044 151.403C18.7708 151.571 18.4667 151.653 18.1663 151.653Z" fill="#8FB3CE"/>
<path d="M23.1282 166.456C22.3208 166.456 21.6101 165.869 21.4797 165.046C21.0555 162.379 20.4781 159.889 19.763 157.646C19.4824 156.766 19.9689 155.826 20.8481 155.545C21.7273 155.267 22.6673 155.751 22.948 156.63C23.7136 159.034 24.3305 161.689 24.7803 164.521C24.9254 165.433 24.3041 166.289 23.3919 166.434C23.3033 166.448 23.2154 166.456 23.1282 166.456Z" fill="#8FB3CE"/>
<path d="M24.0645 179.286C23.1413 179.286 22.3932 178.538 22.3932 177.615C22.3932 175.936 22.3515 174.278 22.268 172.689C22.2196 171.767 22.9281 170.981 23.8498 170.933C24.7656 170.886 25.5584 171.593 25.606 172.515C25.6925 174.162 25.7364 175.878 25.7364 177.615C25.7357 178.538 24.9876 179.286 24.0645 179.286Z" fill="#8FB3CE"/>
<path d="M99.2439 149.021C98.893 149.021 98.5398 148.911 98.238 148.683C97.5016 148.127 97.3558 147.079 97.9119 146.343C100.004 143.575 101.713 142.496 101.901 142.383C102.693 141.904 103.72 142.158 104.197 142.947C104.672 143.733 104.425 144.754 103.644 145.236C103.594 145.267 102.257 146.137 100.58 148.357C100.251 148.792 99.7509 149.021 99.2439 149.021Z" fill="#8FB3CE"/>
<path d="M92.7196 165.426C92.6199 165.426 92.5181 165.417 92.4162 165.398C91.5092 165.231 90.9077 164.36 91.0747 163.452C91.6623 160.251 92.4771 157.266 93.4933 154.582C93.8208 153.717 94.7886 153.286 95.6488 153.611C96.5111 153.938 96.9463 154.903 96.6188 155.766C95.6729 158.262 94.9139 161.051 94.3615 164.056C94.2135 164.862 93.5109 165.426 92.7196 165.426Z" fill="#8FB3CE"/>
<path d="M91.5579 179.286C90.6348 179.286 89.8867 178.538 89.8867 177.615C89.8867 175.878 89.9329 174.16 90.0245 172.51C90.0758 171.588 90.8714 170.88 91.7858 170.934C92.7075 170.985 93.4138 171.773 93.3625 172.695C93.2746 174.284 93.2299 175.939 93.2299 177.615C93.2292 178.538 92.4811 179.286 91.5579 179.286Z" fill="#8FB3CE"/>
<path d="M32.7782 22.7033C32.7782 22.7033 38.8014 8.87709 58.4963 7.97005C71.8111 7.3568 81.7109 10.4296 85.287 2.20688C88.8632 -6.01586 101.718 10.4282 88.8918 23.7679C76.0657 37.1075 61.1222 38.5824 51.1037 38.1369C41.0859 37.6908 29.8021 30.7685 32.7782 22.7033Z" fill="#723710"/>
<path d="M84.0947 26.7124C77.2215 18.3146 67.2133 17.8266 55.7653 18.1277C44.5702 18.4223 34.4872 20.2972 28.3672 28.7653C29.0962 32.9606 33.438 36.5294 38.7315 38.5545C43.0279 34.9864 48.646 32.203 55.9925 30.8601C64.5244 29.2995 71.0444 30.4475 76.0317 33.2141C78.7623 31.4755 81.4688 29.3332 84.0947 26.7124Z" fill="#723710"/>
<path d="M89.6751 0.479395C88.5886 -0.125057 87.4896 -0.177076 86.5781 0.479395C87.6486 0.495513 88.6787 0.497711 89.6751 0.479395Z" fill="#632B0B"/>
<path d="M39.3612 18.6753C39.3612 18.6753 40.8712 15.2252 44.7324 11.3186C35.8429 15.6824 32.7782 22.7035 32.7782 22.7035C29.8021 30.7688 41.0859 37.691 51.1037 38.1372C54.0834 38.2698 57.5013 38.2288 61.1669 37.7599C48.9833 36.8367 35.7608 28.4323 39.3612 18.6753Z" fill="#632B0B"/>
<g clip-path="url(#clip0_100_10256)">
<path d="M65.9234 171.728C65.7529 172.169 65.5994 172.571 65.4411 172.971C64.9685 174.175 64.4306 175.346 63.605 176.355C63.1239 176.943 62.5872 177.49 61.8124 177.664C60.7294 177.907 59.5932 177.522 59.2632 176.379C59.0275 175.564 59.4276 174.559 60.1238 174.239C60.374 174.124 60.6303 174.09 60.8926 174.19C60.9917 174.229 61.0642 174.298 61.0763 174.41C61.0872 174.506 61.0473 174.587 60.9639 174.623C60.4284 174.858 60.3873 175.348 60.3426 175.831C60.316 176.111 60.403 176.358 60.5783 176.589C60.8938 177.007 61.6444 176.925 62.0179 176.708C62.6622 176.334 63.0937 175.759 63.5047 175.16C64.4028 173.846 64.9781 172.379 65.5523 170.91C65.6853 170.57 65.8231 170.232 65.9355 169.885C66.0648 169.488 65.8811 169.114 65.5281 168.987C65.3166 168.911 65.1232 168.995 64.9407 169.068C64.0982 169.405 62.9209 170.773 63.0852 171.881C63.1058 172.016 63.13 172.139 63.2279 172.238C63.3294 172.34 63.3814 172.453 63.3052 172.595C63.2218 172.75 63.0768 172.741 62.9378 172.721C62.3455 172.635 61.9273 172.001 62.0373 171.355C62.1436 170.735 62.4132 170.187 62.8084 169.705C63.4031 168.977 64.1236 168.424 65.0676 168.241C65.6562 168.127 66.2207 168.177 66.6329 168.698C66.9073 169.044 66.9665 169.461 67.0028 169.88C67.1019 171.014 67.0028 172.143 66.9194 173.272C66.8771 173.844 66.8505 174.418 66.8227 174.991C66.8179 175.086 66.7913 175.191 66.8662 175.295C66.9992 175.209 67.056 175.074 67.1261 174.95C67.4947 174.293 67.8453 173.626 68.2333 172.982C68.9017 171.871 69.5375 170.741 70.2628 169.665C70.484 169.337 70.7209 169.018 70.9663 168.709C71.3241 168.258 71.7846 168.138 72.2451 168.357C72.5425 168.498 72.6065 168.624 72.4869 168.931C72.2367 169.575 71.955 170.208 71.7193 170.857C71.1693 172.37 70.6774 173.9 70.513 175.513C70.49 175.736 70.4912 175.964 70.5069 176.187C70.5347 176.578 70.8043 176.709 71.1439 176.505C71.2503 176.441 71.347 176.361 71.4425 176.283C71.5307 176.21 71.6226 176.138 71.7326 176.217C71.8438 176.297 71.7955 176.415 71.7628 176.517C71.6009 177.031 70.8901 177.494 70.3728 177.426C69.6874 177.336 69.3175 176.927 69.2909 176.217C69.2716 175.703 69.3502 175.196 69.4517 174.692C69.7188 173.372 70.1649 172.104 70.5807 170.826C70.5988 170.771 70.6447 170.716 70.5964 170.633C70.206 171.165 69.8687 171.72 69.5279 172.272C68.6503 173.695 67.9202 175.197 67.0922 176.647C67.0125 176.787 66.9327 176.933 66.8046 177.039C66.4649 177.32 66.0322 177.175 65.9524 176.742C65.8641 176.259 65.8593 175.768 65.9052 175.28C66.0152 174.132 65.9729 172.983 65.9717 171.835C65.9741 171.818 65.9572 171.798 65.9234 171.728Z" fill="white"/>
<path d="M47.7662 172.314C47.342 172.306 46.9274 172.25 46.549 172.045C46.3762 171.952 46.2251 171.827 46.1308 171.65C46.0377 171.476 46.051 171.3 46.1779 171.148C46.2867 171.017 46.433 170.972 46.5974 171.037C47.3383 171.331 48.095 171.262 48.8468 171.112C50.1535 170.852 51.3985 170.378 52.6689 169.996C54.1798 169.542 55.7029 169.135 57.2718 168.931C58.0889 168.825 58.9097 168.75 59.7304 168.903C60.1244 168.977 60.4943 169.117 60.8122 169.368C61.0818 169.58 61.2486 169.855 61.222 170.211C61.2087 170.399 61.141 170.564 60.9307 170.614C60.73 170.66 60.6104 170.556 60.5173 170.391C60.2248 169.876 59.7111 169.788 59.1949 169.751C58.4068 169.693 57.6308 169.829 56.8572 169.961C54.812 170.309 52.8538 170.969 50.8933 171.625C50.0085 171.922 49.1188 172.197 48.1832 172.284C48.0442 172.298 47.9052 172.305 47.7662 172.314Z" fill="white"/>
<path d="M76.8063 164.529C76.6867 164.432 76.5537 164.465 76.4377 164.542C76.2745 164.651 76.1488 164.802 76.0243 164.949C75.6701 165.368 75.2603 165.723 74.7998 166.017C74.4154 166.262 74.0069 166.446 73.5355 166.429C73.0616 166.412 72.7727 166.133 72.7377 165.658C72.7208 165.432 72.751 165.209 72.786 164.986C72.8163 164.794 72.8972 164.731 73.0967 164.75C74.0371 164.841 74.7696 164.42 75.3776 163.758C75.7342 163.37 75.9288 162.897 75.9167 162.356C75.9034 161.784 75.5323 161.413 74.963 161.395C74.6318 161.384 74.3429 161.515 74.0504 161.64C73.8316 161.824 73.5935 161.986 73.4037 162.202C72.9577 162.712 72.5806 163.264 72.311 163.889C72.1877 164.175 72.0197 164.433 71.813 164.668C71.4794 165.213 71.0974 165.719 70.6175 166.146C70.5607 166.197 70.4906 166.239 70.4205 166.268C70.2029 166.36 70.0519 166.267 70.0301 166.034C70.0059 165.78 70.0736 165.541 70.1534 165.304C70.4302 164.49 70.8557 163.748 71.2533 162.993C71.4008 162.711 71.5567 162.43 71.6087 162.11C71.6305 161.981 71.6051 161.856 71.4854 161.781C71.3633 161.704 71.2352 161.715 71.1095 161.785C70.9584 161.868 70.8762 162.011 70.7952 162.151C70.5934 162.501 70.406 162.86 70.1957 163.204C69.6095 164.169 68.9845 165.104 68.1626 165.889C67.8906 166.149 67.5836 166.361 67.2125 166.456C66.8426 166.55 66.5755 166.441 66.4159 166.146C66.0799 165.524 66.2467 164.547 66.7689 164.079C66.8729 163.986 66.9829 163.899 67.0844 163.804C68.5651 162.417 69.6385 160.747 70.4701 158.913C70.7239 158.355 70.9463 157.782 71.0019 157.159C71.0684 156.406 70.5934 156 69.8718 156.205C69.7605 156.237 69.653 156.285 69.5502 156.337C69.0704 156.583 68.7488 156.991 68.4454 157.417C68.0212 158.012 67.7045 158.674 67.3382 159.303C67.2983 159.404 67.2645 159.508 67.2173 159.604C66.6033 160.875 66.121 162.192 65.8007 163.569C65.7185 163.921 65.7016 164.297 65.484 164.61C65.2132 164.999 64.9256 165.376 64.6065 165.727C64.4131 165.939 64.2221 166.158 63.9598 166.29C63.6806 166.43 63.4944 166.304 63.5174 165.994C63.5367 165.736 63.6105 165.489 63.7241 165.257C63.9284 164.837 64.1387 164.421 64.3466 164.004C64.4517 163.794 64.5339 163.578 64.5593 163.342C64.5944 163.011 64.4807 162.752 64.1955 162.567C64.0069 162.445 63.7942 162.406 63.5851 162.351C63.1765 162.241 63.1668 162.218 63.2756 161.82C63.2817 161.797 63.2865 161.774 63.2913 161.752C63.3349 161.554 63.3083 161.372 63.1173 161.264C62.9203 161.153 62.7256 161.191 62.5576 161.339C62.3836 161.494 62.3147 161.704 62.3086 161.925C62.2917 162.505 62.0584 163.014 61.7852 163.501C61.367 164.247 60.8726 164.946 60.3771 165.642C60.2646 165.799 60.1534 165.962 59.9987 166.082C59.8029 166.234 59.6482 166.185 59.5829 165.942C59.5551 165.839 59.5479 165.727 59.5527 165.619C59.5648 165.295 59.6748 164.995 59.8089 164.705C60.1256 164.022 60.4858 163.359 60.7796 162.664C60.846 162.505 60.9101 162.346 60.9174 162.173C60.9234 162.027 60.8884 161.89 60.7409 161.82C60.6007 161.755 60.4665 161.784 60.348 161.878C60.2429 161.961 60.1667 162.068 60.1051 162.186C60.0749 162.246 60.064 162.341 59.9806 162.336C59.896 162.331 59.9008 162.233 59.8742 162.172C59.6518 161.66 59.2142 161.454 58.6764 161.613C58.2787 161.731 57.9571 161.97 57.6538 162.243C57.3637 162.505 57.157 162.839 56.9019 163.13C56.7835 163.339 56.6602 163.545 56.5478 163.758C56.2286 164.362 55.8841 164.951 55.4671 165.493C55.2218 165.814 54.9776 166.136 54.6125 166.336C54.511 166.392 54.4022 166.457 54.2862 166.373C54.1689 166.289 54.204 166.165 54.227 166.052C54.3237 165.571 54.5013 165.115 54.6802 164.661C54.8555 164.213 55.0465 163.77 55.1057 163.286C55.1649 162.794 55.0537 162.574 54.6488 162.382C54.152 162.357 53.7749 162.605 53.4256 162.918C52.745 163.527 52.2108 164.265 51.6149 164.948C51.558 165.014 51.5182 165.102 51.3779 165.132C51.5532 164.661 51.6874 164.238 52.0693 163.893C53.2515 162.829 54.2475 161.599 55.1456 160.289C55.5675 159.672 55.9506 159.034 56.1912 158.321C56.2903 158.025 56.3701 157.726 56.3036 157.408C56.2371 157.095 56.0655 156.917 55.75 156.857C55.4043 156.79 55.1057 156.926 54.8301 157.105C54.4542 157.349 54.1653 157.686 53.9127 158.054C53.2866 158.964 52.7583 159.93 52.2966 160.933C52.0887 161.384 51.8856 161.836 51.6801 162.288C51.4795 162.817 51.2776 163.347 51.0806 163.877C50.9984 164.099 50.8751 164.293 50.7204 164.471C50.1523 165.121 49.5431 165.73 48.8903 166.294C48.3114 166.793 47.6889 167.227 46.9479 167.462C45.7609 167.841 44.7576 167.34 44.3648 166.158C44.1654 165.557 44.1339 164.937 44.2439 164.317C44.58 162.423 45.3886 160.732 46.4982 159.177C47.0833 158.356 47.7602 157.621 48.6377 157.097C48.9423 156.916 49.2699 156.797 49.6325 156.824C49.867 156.842 50.0725 156.919 50.1849 157.149C50.2502 157.21 50.2816 157.29 50.3082 157.369C50.4847 157.905 50.3952 158.421 50.1873 158.928C50.035 159.404 49.7884 159.815 49.3811 160.122C49.1611 160.289 49.1128 160.48 49.2046 160.693C49.2977 160.912 49.4923 161.009 49.7619 160.967C50.0024 160.929 50.1958 160.797 50.3638 160.633C51.1205 159.892 51.4493 158.967 51.4843 157.929C51.5012 157.435 51.3792 156.972 51.0431 156.59C50.5765 156.059 49.9601 155.969 49.3025 156.002C48.7888 156.029 48.3174 156.201 47.8569 156.413C47.1655 156.841 46.5442 157.354 46.0075 157.964C44.806 159.33 43.9647 160.894 43.4099 162.614C43.0557 163.713 42.872 164.833 43.1017 165.988C43.4208 167.598 44.6464 168.568 46.2807 168.49C46.9636 168.457 47.5813 168.205 48.1506 167.836C48.8589 167.378 49.4705 166.805 50.0616 166.207C50.1209 166.146 50.1668 166.057 50.2719 166.052C50.2961 166.138 50.2586 166.201 50.2381 166.266C50.1559 166.533 50.0604 166.796 49.9939 167.067C49.9528 167.235 49.9964 167.401 50.1789 167.475C50.3493 167.545 50.5028 167.491 50.6189 167.355C50.6938 167.267 50.7542 167.165 50.8171 167.068C51.529 165.961 52.3377 164.929 53.2648 163.995C53.5138 163.743 53.758 163.475 54.0855 163.313C54.146 163.283 54.2161 163.238 54.2801 163.295C54.3357 163.344 54.3031 163.413 54.2862 163.47C54.2112 163.723 54.1375 163.976 54.0505 164.225C53.8631 164.761 53.6504 165.287 53.5223 165.842C53.4546 166.132 53.4195 166.423 53.5138 166.715C53.6395 167.108 54.0263 167.311 54.4191 167.188C54.5678 167.141 54.7044 167.067 54.8325 166.977C55.1057 166.782 55.3475 166.552 55.5638 166.296C55.5965 166.257 55.6255 166.192 55.6895 166.209C55.7536 166.226 55.7488 166.295 55.7548 166.346C55.8588 167.129 56.5949 167.462 57.3201 167.061C57.777 166.809 58.1385 166.45 58.4769 166.06C58.576 165.947 58.6679 165.826 58.7924 165.674C58.8141 165.901 58.8238 166.076 58.848 166.25C58.935 166.868 59.4645 167.139 60.0181 166.852C60.1921 166.761 60.342 166.638 60.481 166.503C61.4021 165.607 62.0633 164.534 62.5939 163.374C62.8006 162.924 62.7921 162.92 63.2551 163.099C63.6576 163.254 63.7289 163.393 63.5718 163.792C63.4074 164.211 63.2176 164.62 63.0448 165.035C62.8707 165.454 62.7256 165.877 62.751 166.342C62.7825 166.909 63.1644 167.205 63.7168 167.065C64.0794 166.973 64.3828 166.77 64.6536 166.52C64.9159 166.277 65.1661 166.022 65.3897 165.742C65.4224 165.701 65.455 165.64 65.5154 165.652C65.594 165.667 65.5819 165.75 65.5868 165.806C65.6085 166.033 65.6508 166.251 65.7342 166.464C65.9385 166.986 66.3483 167.256 66.9091 167.238C67.2717 167.226 67.5848 167.073 67.8834 166.886C68.3681 166.581 68.773 166.186 69.1453 165.756C69.1864 165.709 69.2118 165.625 69.3266 165.654C69.2964 165.935 69.2541 166.22 69.3387 166.502C69.4874 166.993 69.9539 167.213 70.4266 167.012C70.7396 166.877 70.9995 166.67 71.2219 166.417C71.4274 166.184 71.6244 165.944 71.8263 165.707C71.8565 165.672 71.8819 165.625 71.9363 165.637C71.9822 165.647 71.9834 165.694 71.9858 165.733C72.0124 166.162 72.1962 166.523 72.4669 166.846C72.6446 166.956 72.8138 167.078 73.023 167.131C73.5101 167.253 73.9791 167.205 74.4299 166.99C75.3462 166.553 76.0726 165.883 76.7193 165.118C76.7785 165.047 76.8184 164.96 76.8547 164.875C76.9066 164.751 76.9187 164.622 76.8063 164.529ZM73.1813 163.92C73.4557 163.385 73.7724 162.883 74.222 162.475C74.3139 162.392 74.4227 162.33 74.5423 162.289C74.8772 162.177 75.0754 162.319 75.0742 162.708C75.0573 163.099 74.8469 163.418 74.5206 163.674C74.1737 163.947 73.776 164.08 73.3372 164.095C73.2236 164.097 73.0894 164.099 73.1813 163.92ZM66.6069 163.318C66.6686 162.996 66.7508 162.681 66.8632 162.374C67.4567 160.765 68.1493 159.207 69.184 157.822C69.375 157.565 69.5841 157.325 69.8548 157.148C69.9406 157.093 70.0313 157.032 70.1353 157.088C70.244 157.146 70.2199 157.261 70.2307 157.372C70.1655 157.835 69.995 158.278 69.8053 158.711C69.1405 160.226 68.3306 161.656 67.2548 162.921C67.1037 163.099 66.9418 163.267 66.7508 163.404C66.7145 163.429 66.6746 163.474 66.6275 163.443C66.5815 163.417 66.5973 163.362 66.6069 163.318ZM52.6931 161.807C53.2285 160.633 53.8402 159.503 54.586 158.448C54.7346 158.239 54.9123 158.052 55.1202 157.9C55.2145 157.831 55.3245 157.761 55.4417 157.835C55.5711 157.917 55.5445 158.055 55.5094 158.173C55.3523 158.704 55.1214 159.206 54.8301 159.675C54.1617 160.752 53.3869 161.749 52.5142 162.669C52.4719 162.713 52.4247 162.754 52.3776 162.794C52.3679 162.803 52.3498 162.803 52.2857 162.818C52.3957 162.449 52.5468 162.128 52.6931 161.807ZM59.039 164.08C58.6969 164.682 58.3186 165.261 57.8629 165.785C57.6683 166.008 57.4398 166.196 57.1763 166.337C57.0143 166.423 56.8366 166.5 56.6723 166.381C56.5115 166.263 56.5212 166.066 56.5393 165.887C56.5852 165.457 56.7303 165.055 56.9176 164.669C57.2488 163.987 57.6525 163.354 58.1989 162.821C58.3452 162.678 58.5059 162.557 58.6909 162.472C59.1236 162.271 59.433 162.469 59.4403 162.988C59.3956 163.356 59.2396 163.727 59.039 164.08Z" fill="white"/>
<path d="M71.3757 160.296C71.389 159.99 71.5063 159.739 71.7831 159.587C72.1143 159.406 72.4684 159.561 72.5627 159.928C72.6486 160.266 72.547 160.558 72.3029 160.795C72.136 160.957 71.9257 161.032 71.7009 160.921C71.4495 160.794 71.3661 160.567 71.3757 160.296Z" fill="white"/>
</g>
<defs>
<clipPath id="clip0_100_10256">
<rect width="33.8932" height="21.7332" fill="white" transform="translate(43 156)"/>
</clipPath>
</defs>
</svg>
