<svg width="24" height="24" viewBox="0 0 24 24" fill="none" xmlns="http://www.w3.org/2000/svg">
<path d="M7.6002 3.9998C7.49411 3.9998 7.39237 3.95766 7.31735 3.88265C7.24234 3.80763 7.2002 3.70589 7.2002 3.5998V1.1998C7.2002 1.09372 7.24234 0.991977 7.31735 0.916962C7.39237 0.841947 7.49411 0.799805 7.6002 0.799805H10.0002C10.1063 0.799805 10.208 0.841947 10.283 0.916962C10.3581 0.991977 10.4002 1.09372 10.4002 1.1998V3.5998C10.4002 3.70589 10.3581 3.80763 10.283 3.88265C10.208 3.95766 10.1063 3.9998 10.0002 3.9998H7.6002ZM4.4002 7.1998C4.29411 7.1998 4.19237 7.15766 4.11735 7.08265C4.04234 7.00763 4.0002 6.90589 4.0002 6.7998V4.3998C4.0002 4.29372 4.04234 4.19198 4.11735 4.11696C4.19237 4.04195 4.29411 3.9998 4.4002 3.9998H6.8002C6.90628 3.9998 7.00802 4.04195 7.08304 4.11696C7.15805 4.19198 7.2002 4.29372 7.2002 4.3998V6.7998C7.2002 6.90589 7.15805 7.00763 7.08304 7.08265C7.00802 7.15766 6.90628 7.1998 6.8002 7.1998H4.4002ZM17.2002 7.1998C17.0941 7.1998 16.9924 7.15766 16.9174 7.08265C16.8423 7.00763 16.8002 6.90589 16.8002 6.7998V4.3998C16.8002 4.29372 16.8423 4.19198 16.9174 4.11696C16.9924 4.04195 17.0941 3.9998 17.2002 3.9998H19.6002C19.7063 3.9998 19.808 4.04195 19.883 4.11696C19.9581 4.19198 20.0002 4.29372 20.0002 4.3998V6.7998C20.0002 6.90589 19.9581 7.00763 19.883 7.08265C19.808 7.15766 19.7063 7.1998 19.6002 7.1998H17.2002ZM10.4002 6.7998C10.4002 7.0206 10.5794 7.1998 10.8002 7.1998H13.2002C13.3063 7.1998 13.408 7.15766 13.483 7.08265C13.5581 7.00763 13.6002 6.90589 13.6002 6.7998V4.3998C13.6002 4.29372 13.5581 4.19198 13.483 4.11696C13.408 4.04195 13.3063 3.9998 13.2002 3.9998H10.8002C10.6941 3.9998 10.5924 4.04195 10.5174 4.11696C10.4423 4.19198 10.4002 4.29372 10.4002 4.3998V6.7998ZM13.6002 3.5998C13.6002 3.8206 13.7794 3.9998 14.0002 3.9998H16.4002C16.5063 3.9998 16.608 3.95766 16.683 3.88265C16.7581 3.80763 16.8002 3.70589 16.8002 3.5998V1.1998C16.8002 1.09372 16.7581 0.991977 16.683 0.916962C16.608 0.841947 16.5063 0.799805 16.4002 0.799805H14.0002C13.8941 0.799805 13.7924 0.841947 13.7174 0.916962C13.6423 0.991977 13.6002 1.09372 13.6002 1.1998V3.5998ZM3.2002 15.531C3.20024 15.3192 3.28424 15.1161 3.4338 14.9662L4.8002 13.5998L6.9666 9.9886C7.0378 9.86978 7.13863 9.77148 7.25924 9.70332C7.37984 9.63517 7.51607 9.5995 7.6546 9.5998H16.3474C16.4857 9.59978 16.6216 9.63558 16.7419 9.70372C16.8621 9.77186 16.9627 9.87001 17.0338 9.9886L19.2002 13.5998L20.5666 14.9662C20.7161 15.1161 20.8001 15.3192 20.8002 15.531V21.5998C20.8002 21.812 20.7159 22.0155 20.5659 22.1655C20.4159 22.3155 20.2124 22.3998 20.0002 22.3998H17.6002C17.388 22.3998 17.1845 22.3155 17.0345 22.1655C16.8845 22.0155 16.8002 21.812 16.8002 21.5998V20.7998H7.2002V21.5998C7.2002 21.812 7.11591 22.0155 6.96588 22.1655C6.81585 22.3155 6.61237 22.3998 6.4002 22.3998H4.0002C3.78802 22.3998 3.58454 22.3155 3.43451 22.1655C3.28448 22.0155 3.2002 21.812 3.2002 21.5998V15.531ZM6.1858 14.3998H17.8146L15.8946 11.1998H8.1058L6.1858 14.3998ZM8.8002 17.9198V17.3246C8.80008 17.1766 8.74867 17.0332 8.65474 16.9189C8.56081 16.8045 8.43014 16.7263 8.285 16.6974L5.373 16.115C5.30348 16.1013 5.23179 16.1032 5.16307 16.1205C5.09436 16.1377 5.03032 16.17 4.97556 16.215C4.92081 16.26 4.87668 16.3165 4.84636 16.3805C4.81604 16.4446 4.80028 16.5145 4.8002 16.5854V17.9198C4.8002 18.0471 4.85077 18.1692 4.94078 18.2592C5.0308 18.3492 5.15289 18.3998 5.2802 18.3998H8.3202C8.4475 18.3998 8.56959 18.3492 8.65961 18.2592C8.74962 18.1692 8.8002 18.0471 8.8002 17.9198ZM19.2002 17.9198V16.7806C19.2001 16.686 19.1791 16.5926 19.1386 16.5071C19.0981 16.4217 19.0392 16.3462 18.966 16.2862C18.8929 16.2263 18.8074 16.1832 18.7156 16.1603C18.6239 16.1373 18.5282 16.135 18.4354 16.1534L15.5874 16.723C15.4784 16.7445 15.3802 16.8031 15.3096 16.8889C15.239 16.9747 15.2003 17.0823 15.2002 17.1934V17.9198C15.2002 17.9828 15.2126 18.0453 15.2367 18.1035C15.2609 18.1617 15.2962 18.2146 15.3408 18.2592C15.3854 18.3038 15.4383 18.3391 15.4965 18.3633C15.5547 18.3874 15.6172 18.3998 15.6802 18.3998H18.7202C18.7832 18.3998 18.8456 18.3874 18.9039 18.3633C18.9621 18.3391 19.015 18.3038 19.0596 18.2592C19.1042 18.2146 19.1395 18.1617 19.1637 18.1035C19.1878 18.0453 19.2002 17.9828 19.2002 17.9198Z" fill="#2B2A29"/>
</svg>
