<svg width="24" height="24" viewBox="0 0 24 24" fill="none" xmlns="http://www.w3.org/2000/svg">
<path d="M7.59922 3.9998C7.49313 3.9998 7.39139 3.95766 7.31638 3.88265C7.24136 3.80763 7.19922 3.70589 7.19922 3.5998V1.1998C7.19922 1.09372 7.24136 0.991977 7.31638 0.916962C7.39139 0.841947 7.49313 0.799805 7.59922 0.799805H9.99922C10.1053 0.799805 10.207 0.841947 10.2821 0.916962C10.3571 0.991977 10.3992 1.09372 10.3992 1.1998V3.5998C10.3992 3.70589 10.3571 3.80763 10.2821 3.88265C10.207 3.95766 10.1053 3.9998 9.99922 3.9998H7.59922ZM4.39922 7.1998C4.29313 7.1998 4.19139 7.15766 4.11638 7.08265C4.04136 7.00763 3.99922 6.90589 3.99922 6.7998V4.3998C3.99922 4.29372 4.04136 4.19198 4.11638 4.11696C4.19139 4.04195 4.29313 3.9998 4.39922 3.9998H6.79922C6.90531 3.9998 7.00705 4.04195 7.08206 4.11696C7.15708 4.19198 7.19922 4.29372 7.19922 4.3998V6.7998C7.19922 6.90589 7.15708 7.00763 7.08206 7.08265C7.00705 7.15766 6.90531 7.1998 6.79922 7.1998H4.39922ZM17.1992 7.1998C17.0931 7.1998 16.9914 7.15766 16.9164 7.08265C16.8414 7.00763 16.7992 6.90589 16.7992 6.7998V4.3998C16.7992 4.29372 16.8414 4.19198 16.9164 4.11696C16.9914 4.04195 17.0931 3.9998 17.1992 3.9998H19.5992C19.7053 3.9998 19.807 4.04195 19.8821 4.11696C19.9571 4.19198 19.9992 4.29372 19.9992 4.3998V6.7998C19.9992 6.90589 19.9571 7.00763 19.8821 7.08265C19.807 7.15766 19.7053 7.1998 19.5992 7.1998H17.1992ZM10.3992 6.7998C10.3992 7.0206 10.5784 7.1998 10.7992 7.1998H13.1992C13.3053 7.1998 13.407 7.15766 13.4821 7.08265C13.5571 7.00763 13.5992 6.90589 13.5992 6.7998V4.3998C13.5992 4.29372 13.5571 4.19198 13.4821 4.11696C13.407 4.04195 13.3053 3.9998 13.1992 3.9998H10.7992C10.6931 3.9998 10.5914 4.04195 10.5164 4.11696C10.4414 4.19198 10.3992 4.29372 10.3992 4.3998V6.7998ZM13.5992 3.5998C13.5992 3.8206 13.7784 3.9998 13.9992 3.9998H16.3992C16.5053 3.9998 16.607 3.95766 16.6821 3.88265C16.7571 3.80763 16.7992 3.70589 16.7992 3.5998V1.1998C16.7992 1.09372 16.7571 0.991977 16.6821 0.916962C16.607 0.841947 16.5053 0.799805 16.3992 0.799805H13.9992C13.8931 0.799805 13.7914 0.841947 13.7164 0.916962C13.6414 0.991977 13.5992 1.09372 13.5992 1.1998V3.5998ZM3.19922 15.531C3.19926 15.3192 3.28327 15.1161 3.43282 14.9662L4.79922 13.5998L6.96562 9.9886C7.03682 9.86978 7.13766 9.77148 7.25826 9.70332C7.37886 9.63517 7.51509 9.5995 7.65362 9.5998H16.3464C16.4847 9.59978 16.6206 9.63558 16.7409 9.70372C16.8612 9.77186 16.9618 9.87001 17.0328 9.9886L19.1992 13.5998L20.5656 14.9662C20.7152 15.1161 20.7992 15.3192 20.7992 15.531V21.5998C20.7992 21.812 20.7149 22.0155 20.5649 22.1655C20.4149 22.3155 20.2114 22.3998 19.9992 22.3998H17.5992C17.387 22.3998 17.1836 22.3155 17.0335 22.1655C16.8835 22.0155 16.7992 21.812 16.7992 21.5998V20.7998H7.19922V21.5998C7.19922 21.812 7.11493 22.0155 6.9649 22.1655C6.81487 22.3155 6.61139 22.3998 6.39922 22.3998H3.99922C3.78705 22.3998 3.58356 22.3155 3.43353 22.1655C3.2835 22.0155 3.19922 21.812 3.19922 21.5998V15.531ZM6.18482 14.3998H17.8136L15.8936 11.1998H8.10482L6.18482 14.3998ZM8.79922 17.9198V17.3246C8.7991 17.1766 8.7477 17.0332 8.65376 16.9189C8.55983 16.8045 8.42917 16.7263 8.28402 16.6974L5.37202 16.115C5.3025 16.1013 5.23081 16.1032 5.16209 16.1205C5.09338 16.1377 5.02935 16.17 4.97459 16.215C4.91983 16.26 4.87571 16.3165 4.84539 16.3805C4.81507 16.4446 4.7993 16.5145 4.79922 16.5854V17.9198C4.79922 18.0471 4.84979 18.1692 4.93981 18.2592C5.02982 18.3492 5.15191 18.3998 5.27922 18.3998H8.31922C8.44652 18.3998 8.56861 18.3492 8.65863 18.2592C8.74865 18.1692 8.79922 18.0471 8.79922 17.9198ZM19.1992 17.9198V16.7806C19.1991 16.686 19.1781 16.5926 19.1376 16.5071C19.0971 16.4217 19.0382 16.3462 18.9651 16.2862C18.8919 16.2263 18.8064 16.1832 18.7146 16.1603C18.6229 16.1373 18.5272 16.135 18.4344 16.1534L15.5864 16.723C15.4774 16.7445 15.3792 16.8031 15.3086 16.8889C15.238 16.9747 15.1993 17.0823 15.1992 17.1934V17.9198C15.1992 17.9828 15.2116 18.0453 15.2358 18.1035C15.2599 18.1617 15.2952 18.2146 15.3398 18.2592C15.3844 18.3038 15.4373 18.3391 15.4955 18.3633C15.5538 18.3874 15.6162 18.3998 15.6792 18.3998H18.7192C18.7823 18.3998 18.8447 18.3874 18.9029 18.3633C18.9611 18.3391 19.0141 18.3038 19.0586 18.2592C19.1032 18.2146 19.1386 18.1617 19.1627 18.1035C19.1868 18.0453 19.1992 17.9828 19.1992 17.9198Z" fill="#2B2A29"/>
</svg>
