<svg width="47" height="47" viewBox="0 0 47 47" fill="none" xmlns="http://www.w3.org/2000/svg">
<path d="M23.5007 7.83331C25.5782 7.83331 27.5706 8.65861 29.0397 10.1276C30.5087 11.5967 31.334 13.5891 31.334 15.6666C31.334 17.7442 30.5087 19.7366 29.0397 21.2057C27.5706 22.6747 25.5782 23.5 23.5007 23.5C21.4231 23.5 19.4307 22.6747 17.9616 21.2057C16.4926 19.7366 15.6673 17.7442 15.6673 15.6666C15.6673 13.5891 16.4926 11.5967 17.9616 10.1276C19.4307 8.65861 21.4231 7.83331 23.5007 7.83331ZM23.5007 39.1666C23.5007 39.1666 39.1673 39.1666 39.1673 35.25C39.1673 30.55 31.5298 25.4583 23.5007 25.4583C15.4715 25.4583 7.83398 30.55 7.83398 35.25C7.83398 39.1666 23.5007 39.1666 23.5007 39.1666Z" fill="#9EC2DD"/>
</svg>
