<svg width="34" height="34" viewBox="0 0 34 34" fill="none" xmlns="http://www.w3.org/2000/svg">
<path d="M10.7198 21.8295L9.22101 20.3222C10.3166 19.407 11.5316 18.7105 12.8661 18.2326C14.2006 17.7547 15.579 17.5163 17.0013 17.5172C18.4237 17.5181 19.8026 17.7566 21.138 18.2326C22.4735 18.7086 23.688 19.4051 24.7817 20.3222L23.2828 21.8295C22.3856 21.1118 21.402 20.5678 20.3319 20.1975C19.2619 19.8273 18.1517 19.6422 17.0013 19.6422C15.851 19.6422 14.7408 19.8273 13.6708 20.1975C12.6007 20.5678 11.618 21.1118 10.7198 21.8295ZM2.96926 14.4161L1.43359 12.9371C3.59732 11.0265 6.01462 9.573 8.68551 8.57661C11.3564 7.58023 14.1283 7.08203 17.0013 7.08203C19.8743 7.08203 22.6463 7.5755 25.3172 8.56245C27.9881 9.55034 30.4049 11.0086 32.5677 12.9371L31.0348 14.4161C29.0987 12.7142 26.9275 11.4161 24.521 10.5217C22.1146 9.62731 19.608 9.18011 17.0013 9.18011C14.3947 9.18011 11.8881 9.62731 9.48168 10.5217C7.07523 11.4161 4.90537 12.7142 2.96926 14.4161ZM6.86084 18.1278L5.36343 16.6474C6.98315 15.225 8.79365 14.1469 10.7949 13.4131C12.7962 12.6793 14.8768 12.3124 17.0368 12.3124C19.1967 12.3124 21.2712 12.6736 23.2602 13.3961C25.2492 14.1186 27.0545 15.1906 28.6761 16.6119L27.1773 18.1193C25.7606 16.9 24.181 15.9768 22.4385 15.3497C20.696 14.7226 18.8926 14.4095 17.0283 14.4104C15.1601 14.4104 13.3525 14.7249 11.6053 15.3539C9.85898 15.9839 8.27751 16.908 6.86084 18.1264M17.0013 26.9975C16.4035 26.9975 15.8907 26.7836 15.4628 26.3558C15.036 25.9279 14.8225 25.4151 14.8225 24.8173C14.8225 24.2194 15.0364 23.7113 15.4643 23.2929C15.8921 22.8746 16.4045 22.6654 17.0013 22.6654C17.5982 22.6654 18.1111 22.8746 18.5398 23.2929C18.9686 23.7113 19.1821 24.2194 19.1802 24.8173C19.1783 25.4151 18.9644 25.9279 18.5384 26.3558C18.1125 26.7836 17.6001 26.9975 17.0013 26.9975Z" fill="black"/>
</svg>
