<svg width="27" height="27" viewBox="0 0 27 27" fill="none" xmlns="http://www.w3.org/2000/svg">
<g clip-path="url(#clip0_2231_9972)">
<path d="M18.5615 7.80469C18.333 7.80469 18.1353 7.72119 17.9683 7.5542C17.8013 7.38721 17.7178 7.18945 17.7178 6.96094C17.7178 6.5127 17.8013 6.08203 17.9683 5.66895C18.1353 5.25586 18.3813 4.89111 18.7065 4.57471L19.748 3.52002C20.082 3.18604 20.249 2.78613 20.249 2.32031C20.249 2.0918 20.3325 1.89404 20.4995 1.72705C20.6665 1.56006 20.8643 1.47656 21.0928 1.47656C21.3213 1.47656 21.519 1.56006 21.686 1.72705C21.853 1.89404 21.9365 2.0918 21.9365 2.32031C21.9365 2.76855 21.853 3.19922 21.686 3.6123C21.519 4.02539 21.2729 4.39014 20.9478 4.70654L19.9062 5.76123C19.5723 6.09521 19.4053 6.49512 19.4053 6.96094C19.4053 7.18945 19.3218 7.38721 19.1548 7.5542C18.9878 7.72119 18.79 7.80469 18.5615 7.80469ZM13.499 7.80469C13.2705 7.80469 13.0728 7.72119 12.9058 7.5542C12.7388 7.38721 12.6553 7.18945 12.6553 6.96094C12.6553 6.5127 12.7388 6.08203 12.9058 5.66895C13.0728 5.25586 13.3188 4.89111 13.644 4.57471L14.6855 3.52002C15.0195 3.18604 15.1865 2.78613 15.1865 2.32031C15.1865 2.0918 15.27 1.89404 15.437 1.72705C15.604 1.56006 15.8018 1.47656 16.0303 1.47656C16.2588 1.47656 16.4565 1.56006 16.6235 1.72705C16.7905 1.89404 16.874 2.0918 16.874 2.32031C16.874 2.76855 16.7905 3.19922 16.6235 3.6123C16.4565 4.02539 16.2104 4.39014 15.8853 4.70654L14.8438 5.76123C14.5098 6.09521 14.3428 6.49512 14.3428 6.96094C14.3428 7.18945 14.2593 7.38721 14.0923 7.5542C13.9253 7.72119 13.7275 7.80469 13.499 7.80469ZM24.4678 10.125C24.8193 10.125 25.1489 10.1909 25.4565 10.3228C25.7642 10.4546 26.0322 10.6348 26.2607 10.8633C26.4893 11.0918 26.6694 11.3599 26.8013 11.6675C26.9331 11.9751 26.999 12.3047 26.999 12.6562V17.7188C26.999 18.0703 26.9331 18.3999 26.8013 18.7075C26.6694 19.0151 26.4893 19.2832 26.2607 19.5117C26.0322 19.7402 25.7642 19.9204 25.4565 20.0522C25.1489 20.1841 24.8193 20.25 24.4678 20.25H23.7163C23.6987 20.3115 23.6855 20.3687 23.6768 20.4214C23.668 20.4741 23.6504 20.5269 23.624 20.5796V21.0938C23.624 21.6738 23.5142 22.2188 23.2944 22.7285C23.0747 23.2383 22.7715 23.6865 22.3848 24.0732C21.998 24.46 21.5498 24.7632 21.04 24.9829C20.5303 25.2026 19.9854 25.3125 19.4053 25.3125H14.3428C13.6572 25.3125 13.0244 25.1587 12.4443 24.8511C11.8643 24.5435 11.3809 24.1348 10.9941 23.625H4.40234C3.82227 23.625 3.27734 23.5151 2.76758 23.2954C2.25781 23.0757 1.80957 22.7769 1.42285 22.3989C1.03613 22.021 0.73291 21.5728 0.513184 21.0542C0.293457 20.5356 0.183594 19.9863 0.183594 19.4062V18.5625H3.55859C3.55859 17.8682 3.69043 17.2134 3.9541 16.5981C4.21777 15.9829 4.58252 15.4468 5.04834 14.9897C5.51416 14.5327 6.05029 14.168 6.65674 13.8955C7.26318 13.623 7.91797 13.4912 8.62109 13.5C8.88477 13.5 9.13965 13.522 9.38574 13.5659C9.63184 13.6099 9.87793 13.6714 10.124 13.7505V8.4375H23.624V10.125H24.4678ZM8.62109 15.1875C8.15527 15.1875 7.72021 15.2754 7.31592 15.4512C6.91162 15.627 6.55127 15.8687 6.23486 16.1763C5.91846 16.4839 5.67676 16.8398 5.50977 17.2441C5.34277 17.6484 5.25488 18.0879 5.24609 18.5625H10.124V15.5566C9.89551 15.4424 9.6582 15.3545 9.41211 15.293C9.16602 15.2314 8.90234 15.1963 8.62109 15.1875ZM4.40234 21.9375H10.2163C10.1548 21.6826 10.124 21.4014 10.124 21.0938V20.25H2.01611C2.104 20.4961 2.22705 20.7202 2.38525 20.9224C2.54346 21.1245 2.72363 21.3047 2.92578 21.4629C3.12793 21.6211 3.35645 21.7354 3.61133 21.8057C3.86621 21.876 4.12988 21.9199 4.40234 21.9375ZM10.5063 22.8208V22.834L10.5195 22.8604V22.8472L10.5063 22.8208ZM21.9365 21.0938V10.125H11.8115V21.0938C11.8115 21.4453 11.8774 21.7749 12.0093 22.0825C12.1411 22.3901 12.3213 22.6582 12.5498 22.8867C12.7783 23.1152 13.0464 23.2954 13.354 23.4272C13.6616 23.5591 13.9912 23.625 14.3428 23.625H19.4053C19.7568 23.625 20.0864 23.5591 20.394 23.4272C20.7017 23.2954 20.9697 23.1152 21.1982 22.8867C21.4268 22.6582 21.6069 22.3901 21.7388 22.0825C21.8706 21.7749 21.9365 21.4453 21.9365 21.0938ZM25.3115 17.7188V12.6562C25.3115 12.4277 25.228 12.23 25.061 12.063C24.894 11.896 24.6963 11.8125 24.4678 11.8125H23.624V18.5625H24.4678C24.6963 18.5625 24.894 18.479 25.061 18.312C25.228 18.145 25.3115 17.9473 25.3115 17.7188Z" fill="black"/>
</g>
<defs>
<clipPath id="clip0_2231_9972">
<rect width="27" height="27" fill="white"/>
</clipPath>
</defs>
</svg>
