<svg width="27" height="27" viewBox="0 0 27 27" fill="none" xmlns="http://www.w3.org/2000/svg">
<path d="M18 2.24902V6.74902M9 2.24902V6.74902M23.625 17.999V13.499C23.625 9.25665 23.625 7.1349 22.3065 5.81752C20.988 4.50015 18.8674 4.49902 14.625 4.49902H12.375C8.13263 4.49902 6.01087 4.49902 4.6935 5.81752C3.37612 7.13602 3.375 9.25665 3.375 13.499V15.749C3.375 19.9914 3.375 22.1131 4.6935 23.4305C6.012 24.7479 8.13263 24.749 12.375 24.749H13.5M3.375 11.249H23.625" stroke="black" stroke-width="1.5" stroke-linecap="round" stroke-linejoin="round"/>
<path d="M23.625 21.9365H16.3125M18.5625 24.749C17.9933 24.1966 15.75 22.724 15.75 21.9365C15.75 21.149 17.9933 19.6764 18.5625 19.124" stroke="black" stroke-width="1.5" stroke-linecap="round" stroke-linejoin="round"/>
</svg>
