<svg width="27" height="27" viewBox="0 0 27 27" fill="none" xmlns="http://www.w3.org/2000/svg">
<g clip-path="url(#clip0_2231_9969)">
<path d="M0.382324 14.5391C0.127441 15.1016 0 15.686 0 16.2925V17.2417C0 17.9097 0.180176 18.5205 0.540527 19.0742C0.900879 19.6279 1.38428 20.041 1.99072 20.3135C2.26318 20.9199 2.67627 21.4033 3.22998 21.7637C3.78369 22.124 4.39453 22.3042 5.0625 22.3042C5.66895 22.3042 6.23145 22.1548 6.75 21.856C7.26855 21.5571 7.68164 21.144 7.98926 20.6167H17.3232C17.6309 21.144 18.0439 21.5571 18.5625 21.856C19.0811 22.1548 19.6436 22.3042 20.25 22.3042C20.8564 22.3042 21.4189 22.1548 21.9375 21.856C22.4561 21.5571 22.8691 21.144 23.1768 20.6167H25.3125C25.5498 20.6167 25.7695 20.5728 25.9717 20.4849C26.1738 20.397 26.3496 20.2783 26.499 20.1289C26.6484 19.9795 26.7715 19.7993 26.8682 19.5884C26.9648 19.3774 27.0088 19.1577 27 18.9292V15.5542C27 14.8511 26.8682 14.1919 26.6045 13.5767C26.3408 12.9614 25.9805 12.4253 25.5234 11.9683C25.0664 11.5112 24.5303 11.1509 23.915 10.8872C23.2998 10.6235 22.6406 10.4917 21.9375 10.4917H21.4497L17.1255 6.16748C16.8882 5.93018 16.6157 5.75 16.3081 5.62695C16.0005 5.50391 15.6753 5.43799 15.3325 5.4292H3.375V7.1167H3.75732L0.382324 14.5391ZM10.125 7.1167V10.4917H4.07373L5.37891 7.60449C5.44922 7.45508 5.55469 7.33643 5.69531 7.24854C5.83594 7.16064 5.98975 7.1167 6.15674 7.1167H10.125ZM15.3325 7.1167C15.561 7.1167 15.7588 7.2002 15.9258 7.36719L19.0503 10.4917H11.8125V7.1167H15.3325ZM20.25 20.6167C20.0127 20.6167 19.793 20.5728 19.5908 20.4849C19.3887 20.397 19.2129 20.2783 19.0635 20.1289C18.9141 19.9795 18.791 19.7993 18.6943 19.5884C18.5977 19.3774 18.5537 19.1577 18.5625 18.9292C18.5625 18.6919 18.6064 18.4722 18.6943 18.27C18.7822 18.0679 18.9009 17.8921 19.0503 17.7427C19.1997 17.5933 19.3799 17.4702 19.5908 17.3735C19.8018 17.2769 20.0215 17.2329 20.25 17.2417C20.4873 17.2417 20.707 17.2856 20.9092 17.3735C21.1113 17.4614 21.2871 17.5801 21.4365 17.7295C21.5859 17.8789 21.709 18.0591 21.8057 18.27C21.9023 18.481 21.9463 18.7007 21.9375 18.9292C21.9375 19.1665 21.8936 19.3862 21.8057 19.5884C21.7178 19.7905 21.5991 19.9663 21.4497 20.1157C21.3003 20.2651 21.1201 20.3882 20.9092 20.4849C20.6982 20.5815 20.4785 20.6255 20.25 20.6167ZM20.25 15.5542C19.7842 15.5542 19.3491 15.6421 18.9448 15.8179C18.5405 15.9937 18.1802 16.2354 17.8638 16.543C17.5474 16.8506 17.3057 17.2065 17.1387 17.6108C16.9717 18.0151 16.8838 18.4546 16.875 18.9292H11.8125V12.1792H21.9375C22.4033 12.1792 22.8384 12.2671 23.2427 12.4429C23.647 12.6187 24.0073 12.8604 24.3237 13.168C24.6401 13.4756 24.8818 13.8315 25.0488 14.2358C25.2158 14.6401 25.3037 15.0796 25.3125 15.5542V18.9292H23.625C23.625 18.4634 23.5371 18.0283 23.3613 17.624C23.1855 17.2197 22.9438 16.8594 22.6362 16.543C22.3286 16.2266 21.9727 15.9849 21.5684 15.8179C21.1641 15.6509 20.7246 15.563 20.25 15.5542ZM5.0625 20.6167C4.8252 20.6167 4.60547 20.5728 4.40332 20.4849C4.20117 20.397 4.02539 20.2783 3.87598 20.1289C3.72656 19.9795 3.60352 19.7993 3.50684 19.5884C3.41016 19.3774 3.36621 19.1577 3.375 18.9292C3.375 18.6919 3.41895 18.4722 3.50684 18.27C3.59473 18.0679 3.71338 17.8921 3.86279 17.7427C4.01221 17.5933 4.19238 17.4702 4.40332 17.3735C4.61426 17.2769 4.83398 17.2329 5.0625 17.2417C5.2998 17.2417 5.51953 17.2856 5.72168 17.3735C5.92383 17.4614 6.09961 17.5801 6.24902 17.7295C6.39844 17.8789 6.52148 18.0591 6.61816 18.27C6.71484 18.481 6.75879 18.7007 6.75 18.9292C6.75 19.1665 6.70605 19.3862 6.61816 19.5884C6.53027 19.7905 6.41162 19.9663 6.26221 20.1157C6.11279 20.2651 5.93262 20.3882 5.72168 20.4849C5.51074 20.5815 5.29102 20.6255 5.0625 20.6167ZM1.6875 16.2925C1.6875 15.9321 1.76221 15.5806 1.91162 15.2378L3.30908 12.1792H10.125V18.9292H8.4375C8.4375 18.4634 8.34961 18.0283 8.17383 17.624C7.99805 17.2197 7.75635 16.8594 7.44873 16.543C7.14111 16.2266 6.78516 15.9849 6.38086 15.8179C5.97656 15.6509 5.53711 15.563 5.0625 15.5542C4.69336 15.5542 4.3374 15.6113 3.99463 15.7256C3.65186 15.8398 3.33984 16.0024 3.05859 16.2134C2.77734 16.4243 2.53125 16.6748 2.32031 16.9648C2.10938 17.2549 1.94678 17.5801 1.83252 17.9404C1.73584 17.7031 1.6875 17.4702 1.6875 17.2417V16.2925Z" fill="black"/>
</g>
<defs>
<clipPath id="clip0_2231_9969">
<rect width="27" height="27" fill="white"/>
</clipPath>
</defs>
</svg>
