<svg width="27" height="27" viewBox="0 0 27 27" fill="none" xmlns="http://www.w3.org/2000/svg">
<path fill-rule="evenodd" clip-rule="evenodd" d="M12.1901 14.469L5.01962 0.981876C4.97842 0.9044 4.95289 0.819569 4.94448 0.732226C4.93607 0.644883 4.94495 0.556739 4.9706 0.472826C5.02241 0.303356 5.13943 0.16141 5.2959 0.0782135C5.45236 -0.00498302 5.63548 -0.0226146 5.80495 0.0291973C5.88886 0.054852 5.9669 0.0967833 6.0346 0.152597C6.10231 0.208411 6.15836 0.277015 6.19956 0.35449L13.3707 13.8416L14.3876 13.3004C14.6976 13.1356 15.0369 13.0335 15.3863 12.9999C15.7358 12.9663 16.0884 13.0019 16.424 13.1046C16.7597 13.2072 17.0718 13.375 17.3426 13.5984C17.6134 13.8217 17.8376 14.0962 18.0023 14.4062L18.4352 15.22L23.0247 21.9382L13.5044 27L10.5011 19.438L10.0688 18.6242C9.90397 18.3143 9.80183 17.9749 9.76818 17.6256C9.73452 17.2762 9.77002 16.9236 9.87264 16.588C9.97526 16.2523 10.143 15.9401 10.3663 15.6693C10.5895 15.3985 10.864 15.1743 11.1739 15.0095L12.1901 14.469ZM11.8006 16.1895L15.0144 14.481C15.1693 14.3986 15.339 14.3475 15.5137 14.3307C15.6883 14.3139 15.8646 14.3316 16.0325 14.383C16.2003 14.4343 16.3564 14.5181 16.4918 14.6298C16.6272 14.7414 16.7393 14.8786 16.8217 15.0336L17.2546 15.8467L11.6803 18.8106L11.248 17.9968C11.1656 17.8418 11.1146 17.6722 11.0977 17.4975C11.0809 17.3228 11.0987 17.1465 11.15 16.9787C11.2013 16.8108 11.2852 16.6548 11.3968 16.5194C11.5084 16.3839 11.6456 16.2718 11.8006 16.1895ZM12.3552 20.487L14.1945 25.1192L15.4199 24.4677L13.9734 21.6515L15.1627 21.0408L16.6005 23.8404L21.0784 21.4591L18.2669 17.3433L12.3552 20.487Z" fill="black"/>
<path d="M8.38024 20.9028C8.44767 20.8466 8.5255 20.8043 8.60929 20.7782C8.69307 20.7522 8.78118 20.7428 8.86856 20.7508C8.95595 20.7588 9.04091 20.7839 9.1186 20.8247C9.19628 20.8655 9.26517 20.9212 9.32132 20.9886C9.37748 21.0561 9.4198 21.1339 9.44588 21.2177C9.47195 21.3015 9.48127 21.3896 9.4733 21.477C9.46532 21.5643 9.44022 21.6493 9.39941 21.727C9.3586 21.8047 9.30289 21.8736 9.23547 21.9297L9.2348 21.9304L9.23346 21.9317L9.23146 21.9331L9.22478 21.9384L9.20473 21.9551L9.13591 22.0079C9.07756 22.0524 8.99583 22.1103 8.8907 22.1816C8.68024 22.3219 8.37623 22.505 7.99272 22.6881C6.99574 23.1664 5.90478 23.4167 4.799 23.421C4.6218 23.421 4.45185 23.3506 4.32655 23.2253C4.20125 23.1 4.13086 22.9301 4.13086 22.7529C4.13086 22.5757 4.20125 22.4057 4.32655 22.2804C4.45185 22.1551 4.6218 22.0847 4.799 22.0847C5.70599 22.0804 6.60064 21.8743 7.41812 21.4814C7.67107 21.3612 7.91531 21.2234 8.14907 21.0692C8.22594 21.0183 8.30104 20.9648 8.37423 20.9088L8.38091 20.9021L8.38024 20.9028ZM10.515 25.3132C10.6624 25.2148 10.7647 25.062 10.7994 24.8882C10.8341 24.7144 10.7984 24.5339 10.7 24.3865C10.6017 24.239 10.4488 24.1367 10.275 24.102C10.1012 24.0673 9.92075 24.1031 9.77332 24.2014L9.77198 24.2027L9.75862 24.2108L9.70116 24.2475C9.64815 24.2809 9.57043 24.327 9.46798 24.3858C9.19259 24.5431 8.90937 24.6863 8.61944 24.8148C7.90586 25.1321 7.0032 25.4254 6.13529 25.4254C5.95808 25.4254 5.78814 25.4958 5.66284 25.6211C5.53754 25.7464 5.46714 25.9164 5.46714 26.0936C5.46714 26.2708 5.53754 26.4407 5.66284 26.566C5.78814 26.6913 5.95808 26.7617 6.13529 26.7617C7.27246 26.7617 8.37356 26.3869 9.16264 26.0361C9.59146 25.8456 10.0073 25.6271 10.4074 25.382L10.4836 25.3339L10.5049 25.3199L10.5116 25.3159L10.515 25.3132Z" fill="black"/>
</svg>
