<svg width="74" height="74" viewBox="0 0 74 74" fill="none" xmlns="http://www.w3.org/2000/svg">
<path d="M27.7454 13.8711C28.972 13.8711 30.1484 14.3584 31.0157 15.2257C31.8831 16.0931 32.3704 17.2695 32.3704 18.4961V23.1211C32.3704 35.1091 29.933 45.0205 20.1326 54.8162C19.9217 55.0457 19.6665 55.2302 19.3824 55.3586C19.0983 55.487 18.7912 55.5567 18.4795 55.5633C18.1679 55.57 17.8581 55.5136 17.5688 55.3975C17.2794 55.2814 17.0166 55.108 16.796 54.8877C16.5754 54.6674 16.4016 54.4048 16.2851 54.1157C16.1686 53.8265 16.1117 53.5168 16.118 53.2051C16.1242 52.8934 16.1934 52.5862 16.3214 52.302C16.4494 52.0177 16.6335 51.7622 16.8627 51.551C23.2776 45.1407 26.1498 38.786 27.2181 31.423C25.9449 32.0504 24.5444 32.3764 23.125 32.3757H18.5C17.2734 32.3757 16.097 31.8884 15.2296 31.0211C14.3623 30.1537 13.875 28.9773 13.875 27.7507V18.5007C13.875 17.2741 14.3623 16.0977 15.2296 15.2303C16.097 14.363 17.2734 13.8757 18.5 13.8757H27.75L27.7454 13.8711ZM55.4954 13.8711C56.722 13.8711 57.8984 14.3584 58.7658 15.2257C59.6331 16.0931 60.1204 17.2695 60.1204 18.4961V23.1211C60.1204 35.1091 57.683 45.0205 47.878 54.8162C47.6684 55.0508 47.4131 55.24 47.1277 55.3725C46.8424 55.505 46.5331 55.5778 46.2186 55.5866C45.9042 55.5954 45.5912 55.54 45.2989 55.4237C45.0067 55.3074 44.7412 55.1327 44.5187 54.9102C44.2963 54.6878 44.1216 54.4223 44.0053 54.13C43.889 53.8377 43.8335 53.5248 43.8423 53.2104C43.8511 52.8959 43.924 52.5866 44.0565 52.3012C44.1889 52.0159 44.3782 51.7606 44.6128 51.551C51.0276 45.1407 53.8998 38.786 54.9681 31.423C53.6949 32.0504 52.2944 32.3764 50.875 32.3757H46.25C45.0234 32.3757 43.847 31.8884 42.9796 31.0211C42.1123 30.1537 41.625 28.9773 41.625 27.7507V18.5007C41.625 17.2741 42.1123 16.0977 42.9796 15.2303C43.847 14.363 45.0234 13.8757 46.25 13.8757L55.4954 13.8711Z" fill="#D3C393"/>
</svg>
