<svg width="27" height="27" viewBox="0 0 27 27" fill="none" xmlns="http://www.w3.org/2000/svg">
<path d="M13.5 11.251C9.93712 11.251 6.92663 14.3622 5.95463 18.3582C5.52713 20.1154 6.17175 21.9807 7.75406 22.857C9.00844 23.5517 10.8742 24.1885 13.5 24.1885C16.1258 24.1885 17.9921 23.5517 19.2465 22.857C20.8288 21.9807 21.4729 20.1154 21.0454 18.3582C20.0734 14.3616 17.0629 11.251 13.5 11.251ZM1.6875 10.3757C1.6875 11.9294 2.69437 13.501 3.9375 13.501C5.18063 13.501 6.1875 11.9294 6.1875 10.3757C6.1875 8.8221 5.18063 7.87598 3.9375 7.87598C2.69437 7.87598 1.6875 8.82266 1.6875 10.3757ZM25.3125 10.3757C25.3125 11.9294 24.3056 13.501 23.0625 13.501C21.8194 13.501 20.8125 11.9294 20.8125 10.3757C20.8125 8.8221 21.8194 7.87598 23.0625 7.87598C24.3056 7.87598 25.3125 8.82266 25.3125 10.3757ZM7.59375 5.31323C7.59375 6.86685 8.60062 8.43848 9.84375 8.43848C11.0869 8.43848 12.0938 6.86685 12.0938 5.31323C12.0938 3.7596 11.0869 2.81348 9.84375 2.81348C8.60062 2.81348 7.59375 3.76016 7.59375 5.31323ZM19.4062 5.31323C19.4062 6.86685 18.3994 8.43848 17.1562 8.43848C15.9131 8.43848 14.9062 6.86685 14.9062 5.31323C14.9062 3.7596 15.9131 2.81348 17.1562 2.81348C18.3994 2.81348 19.4062 3.76016 19.4062 5.31323Z" stroke="black" stroke-width="1.5" stroke-linecap="round" stroke-linejoin="round"/>
</svg>
